<?xml version="1.0" encoding="UTF-8"?>
<svg width="223px" height="196px" viewBox="0 0 223 196" version="1.1" xmlns="http://www.w3.org/2000/svg" xmlns:xlink="http://www.w3.org/1999/xlink">
    <title>Illustration large</title>
    <defs>
        <path d="M7.77034296,0 L7.93001833,0.000552779431 C10.4406656,0.0178761923 13.3661157,0.442510651 15.1101168,1.29427543 L15.1101168,1.29427543 L15.2016407,1.34055029 C18.1225301,2.86877382 17.3354477,7.47553437 17.3024544,7.66104241 L17.3014144,7.66681264 L17.3297116,7.87668881 C18.1614714,14.4777838 12.9211373,16.8128362 12.4963182,16.9907511 L12.475992,16.9991393 C12.4714186,17.0009924 12.4690811,17.0019091 12.4690811,17.0019091 L12.4690811,17.0019091 L12.3448907,23.8777624 L3.70364959,20.1324003 L3.7046201,20.1265714 C3.7206525,20.0299774 3.93173142,18.7467458 4.06993582,17.3162655 L4.0861534,17.1439676 C4.09670907,17.0287198 4.10672974,16.9127958 4.11607826,16.7967275 L4.12957976,16.6225836 C4.13822183,16.5065043 4.14612314,16.3905469 4.15314653,16.2752436 L4.15314653,16.2752436 L4.0263097,16.2478633 C-0.117298716,15.3262968 -0.115629958,12.6335316 0.0512457815,11.8034561 L0.0512457815,11.8034561 L0.0605348404,11.7603844 C0.253848753,10.9191106 1.23403632,9.57679649 1.39997776,6.88424982 L1.39997776,6.88424982 L1.40790982,6.75806656 C1.58069243,4.07139373 1.9866796,1.72487506 3.59127535,0.679164735 C4.28167758,0.229347046 5.89952896,0 7.77034296,0 L7.77034296,0 Z" id="path-1"></path>
        <path d="M43.0263846,0 L43.1613038,0 C47.6323159,0.0392438465 53.9416823,2.01770463 58.888032,11.1024602 L58.888032,11.1024602 L58.9777756,11.2682475 C60.9797964,14.9885898 62.8314109,19.9000616 64.6350337,26.2736713 L64.6350337,26.2736713 L64.718071,26.5682153 C67.4576141,36.3246039 70.1288172,49.6870275 72.6579754,66.2930515 L72.6579754,66.2930515 L72.7338276,66.7922895 C75.2304893,83.265002 77.0871263,99.5079279 78.2106131,110.300335 L78.2106131,110.300335 L84.7140911,119.735471 L84.7465796,119.784378 C85.3232848,120.685918 84.862732,121.851264 83.8997396,122.172883 L83.8997396,122.172883 L55.1555676,122.172883 L55.1350421,121.955789 C54.4459593,114.678463 52.5954052,96.2266002 49.8349128,76.814707 L49.8349128,76.814707 L49.7564587,76.2644665 C47.1692442,58.166251 44.7582789,45.9741747 42.7509953,37.7969209 L42.7509953,37.7969209 L42.667684,38.1209377 C42.4449984,38.9905112 42.2181421,39.9044401 41.9872846,40.8657571 L41.9872846,40.8657571 L41.9196109,41.1482201 C39.6867527,50.4958212 37.4911311,62.4481946 35.3924121,76.6810812 L35.3924121,76.6810812 L35.3045312,77.2787612 C32.4145788,96.9908535 30.5270948,115.543204 29.8877625,122.172883 L29.8877625,122.172883 L1.17976254,122.172883 L1.12673116,122.157173 C0.128280167,121.842762 -0.345505253,120.627918 0.285832727,119.712201 L0.285832727,119.712201 L6.796304,110.266509 L6.82500043,110.592777 L6.85991843,110.265618 C8.02024718,99.4109043 9.97569185,82.7844835 12.6368705,65.9727813 L12.6368705,65.9727813 L12.7163383,65.4720108 C15.3403763,48.9792229 18.1227058,35.7186576 20.9870479,26.0536805 L20.9870479,26.0536805 L21.0717704,25.7689425 C22.9647548,19.4315628 24.9150608,14.5513412 27.0301774,10.8570396 C32.1682843,1.88347663 38.5649345,0 43.0263846,0" id="path-3"></path>
        <path d="M43.0263846,0 L43.1613038,0 C47.6323159,0.0392438465 53.9416823,2.01770463 58.888032,11.1024602 L58.888032,11.1024602 L58.9777756,11.2682475 C60.9797964,14.9885898 62.8314109,19.9000616 64.6350337,26.2736713 L64.6350337,26.2736713 L64.718071,26.5682153 C67.4576141,36.3246039 70.1288172,49.6870275 72.6579754,66.2930515 L72.6579754,66.2930515 L72.7338276,66.7922895 C75.2304893,83.265002 77.0871263,99.5079279 78.2106131,110.300335 L78.2106131,110.300335 L84.7140911,119.735471 L84.7465796,119.784378 C85.3232848,120.685918 84.862732,121.851264 83.8997396,122.172883 L83.8997396,122.172883 L55.1555676,122.172883 L55.1350421,121.955789 C54.4459593,114.678463 52.5954052,96.2266002 49.8349128,76.814707 L49.8349128,76.814707 L49.7564587,76.2644665 C47.1692442,58.166251 44.7582789,45.9741747 42.7509953,37.7969209 L42.7509953,37.7969209 L42.667684,38.1209377 C42.4449984,38.9905112 42.2181421,39.9044401 41.9872846,40.8657571 L41.9872846,40.8657571 L41.9196109,41.1482201 C39.6867527,50.4958212 37.4911311,62.4481946 35.3924121,76.6810812 L35.3924121,76.6810812 L35.3045312,77.2787612 C32.4145788,96.9908535 30.5270948,115.543204 29.8877625,122.172883 L29.8877625,122.172883 L1.17976254,122.172883 L1.12673116,122.157173 C0.128280167,121.842762 -0.345505253,120.627918 0.285832727,119.712201 L0.285832727,119.712201 L6.796304,110.266509 L6.82500043,110.592777 L6.85991843,110.265618 C8.02024718,99.4109043 9.97569185,82.7844835 12.6368705,65.9727813 L12.6368705,65.9727813 L12.7163383,65.4720108 C15.3403763,48.9792229 18.1227058,35.7186576 20.9870479,26.0536805 L20.9870479,26.0536805 L21.0717704,25.7689425 C22.9647548,19.4315628 24.9150608,14.5513412 27.0301774,10.8570396 C32.1682843,1.88347663 38.5649345,0 43.0263846,0" id="path-5"></path>
        <path d="M43.0263846,0 L43.1613038,0 C47.6323159,0.0392438465 53.9416823,2.01770463 58.888032,11.1024602 L58.888032,11.1024602 L58.9777756,11.2682475 C60.9797964,14.9885898 62.8314109,19.9000616 64.6350337,26.2736713 L64.6350337,26.2736713 L64.718071,26.5682153 C67.4576141,36.3246039 70.1288172,49.6870275 72.6579754,66.2930515 L72.6579754,66.2930515 L72.7338276,66.7922895 C75.2304893,83.265002 77.0871263,99.5079279 78.2106131,110.300335 L78.2106131,110.300335 L84.7140911,119.735471 L84.7465796,119.784378 C85.3232848,120.685918 84.862732,121.851264 83.8997396,122.172883 L83.8997396,122.172883 L55.1555676,122.172883 L55.1350421,121.955789 C54.4459593,114.678463 52.5954052,96.2266002 49.8349128,76.814707 L49.8349128,76.814707 L49.7564587,76.2644665 C47.1692442,58.166251 44.7582789,45.9741747 42.7509953,37.7969209 L42.7509953,37.7969209 L42.667684,38.1209377 C42.4449984,38.9905112 42.2181421,39.9044401 41.9872846,40.8657571 L41.9872846,40.8657571 L41.9196109,41.1482201 C39.6867527,50.4958212 37.4911311,62.4481946 35.3924121,76.6810812 L35.3924121,76.6810812 L35.3045312,77.2787612 C32.4145788,96.9908535 30.5270948,115.543204 29.8877625,122.172883 L29.8877625,122.172883 L1.17976254,122.172883 L1.12673116,122.157173 C0.128280167,121.842762 -0.345505253,120.627918 0.285832727,119.712201 L0.285832727,119.712201 L6.796304,110.266509 L6.82500043,110.592777 L6.85991843,110.265618 C8.02024718,99.4109043 9.97569185,82.7844835 12.6368705,65.9727813 L12.6368705,65.9727813 L12.7163383,65.4720108 C15.3403763,48.9792229 18.1227058,35.7186576 20.9870479,26.0536805 L20.9870479,26.0536805 L21.0717704,25.7689425 C22.9647548,19.4315628 24.9150608,14.5513412 27.0301774,10.8570396 C32.1682843,1.88347663 38.5649345,0 43.0263846,0 L43.0263846,0 Z" id="path-7"></path>
    </defs>
    <g id="Illustration-large" stroke="none" stroke-width="1" fill="none" fill-rule="evenodd">
        <path d="M223,111.75 L0,111.75 C0,50.178 49.927,0.25 111.5,0.25 C173.073,0.25 223,50.178 223,111.75" id="Fill-10-Copy" fill="#E2F8EE"></path>
        <g id="Group-48-Copy-2" transform="translate(36.000000, 8.000000)">
            <g id="Group-5" transform="translate(58.662970, 43.912455)">
                <path d="M1.37202672,47.0093311 L4.35187314,53.5670733 C8.20539306,51.8342556 10.7791489,49.0919271 12.4905651,46.353437 L4.98705283,44.3423321 C4.03934736,45.3952653 2.85483611,46.3424014 1.37202672,47.0093311" id="Fill-1" fill="#CF9D76"></path>
                <path d="M6.43998417,42.3798315 C6.03244671,43.0477208 5.55280646,43.7136909 4.98707694,44.3422361 L12.4905892,46.353341 C12.9220002,45.6636206 13.2969829,44.9743799 13.6251832,44.3012127 L6.43998417,42.3798315 Z" id="Fill-3" fill="#003A29"></path>
                <path d="M17.861716,40.6371298 C17.8433888,40.6966257 17.8250617,40.7561216 17.8067346,40.8156174 C17.4614129,41.9350038 16.272561,42.5681072 15.1454426,42.230564 L5.57602886,39.6504097 C5.80511797,38.8925569 6.10100464,37.8758489 6.33009375,37.1345494 C9.05987132,28.2389548 10.6152658,22.5628553 8.26891103,18.1606395 C5.99731168,13.8999663 2.38976111,11.5777076 0,11.2202524 L1.69284793,0 L8.81800145,1.92114136 C13.2218175,4.26882984 16.5667596,8.12790576 18.9203488,12.5421167 C23.7215742,21.5480666 20.7410043,31.2521335 17.861716,40.6371298" id="Fill-4" fill="#006341"></path>
            </g>
            <g id="Group-10" transform="translate(37.661236, 18.895418)">
                <mask id="mask-2" fill="white">
                    <use xlink:href="#path-1"></use>
                </mask>
                <g id="Clip-7"></g>
                <polygon id="Fill-6" fill="#CF9D76" mask="url(#mask-2)" points="-2.81453837 24.7721199 18.9870279 24.7721199 18.9870279 -3.51313613 -2.81453837 -3.51313613"></polygon>
                <polygon id="Fill-8" fill="#003A29" mask="url(#mask-2)" points="9.71581588 16.2681665 3.19786907 19.8110506 3.19786907 16.2782424"></polygon>
                <path d="M27.4279487,-3.66976864 C27.4279487,2.8097652 22.1480477,8.0624363 15.6349238,8.0624363 C9.12179988,8.0624363 3.84189883,2.8097652 3.84189883,-3.66976864 C3.84189883,-10.1493025 9.12179988,-15.4019736 15.6349238,-15.4019736 C22.1480477,-15.4019736 27.4279487,-10.1493025 27.4279487,-3.66976864" id="Fill-9" fill="#F1DBCA" mask="url(#mask-2)"></path>
            </g>
            <g id="Group-32" transform="translate(0.307062, 0.000000)">
                <path d="M72.463143,33.2395643 C72.463143,39.5538052 67.3180428,44.6723706 60.9710688,44.6723706 C54.624336,44.6723706 49.4789946,39.5538052 49.4789946,33.2395643 C49.4789946,26.9253235 54.624336,21.8067581 60.9710688,21.8067581 C67.3180428,21.8067581 72.463143,26.9253235 72.463143,33.2395643" id="Fill-11" fill="#F1DBCA"></path>
                <path d="M50.9470459,30.4891271 L46.8171721,30.4891271 L46.8171721,26.7999023 L50.9470459,26.7999023 C51.9711947,26.7999023 52.8012207,27.6256477 52.8012207,28.6445147 C52.8012207,29.6633818 51.9711947,30.4891271 50.9470459,30.4891271" id="Fill-13" fill="#CF9D76"></path>
                <line x1="50.104215" y1="28.6443948" x2="51.4527058" y2="28.6443948" id="Stroke-14" stroke="#003A29" stroke-width="0.5" stroke-linecap="round"></line>
                <path d="M47.2385996,27.114199 C47.2385996,28.4919605 46.116063,29.6087079 44.7311591,29.6087079 C43.3462551,29.6087079 42.2237185,28.4919605 42.2237185,27.114199 C42.2237185,25.7364374 43.3462551,24.61969 44.7311591,24.61969 C46.116063,24.61969 47.2385996,25.7364374 47.2385996,27.114199 Z" id="Stroke-15" stroke="#003A29" stroke-width="0.5" stroke-linecap="round"></path>
                <path d="M41.8023392,26.0660398 C41.8023392,27.4438014 40.6795615,28.5605487 39.2948987,28.5605487 C37.9099947,28.5605487 36.7874581,27.4438014 36.7874581,26.0660398 C36.7874581,24.6882782 37.9099947,23.5715308 39.2948987,23.5715308 C40.6795615,23.5715308 41.8023392,24.6882782 41.8023392,26.0660398 Z" id="Stroke-16" stroke="#003A29" stroke-width="0.5" stroke-linecap="round"></path>
                <path d="M41.085845,30.5310621 C41.085845,30.5310621 42.0552536,30.9504121 43.445945,30.5730451" id="Stroke-17" stroke="#003A29" stroke-width="0.5" stroke-linecap="round"></path>
                <line x1="44.6258022" y1="26.6902668" x2="44.4150402" y2="27.8782653" id="Stroke-18" stroke="#003A29" stroke-width="0.5" stroke-linecap="round"></line>
                <path d="M13.948504,3.99275407 C12.8949352,3.65737 10.9985597,5.37627333 10.7877977,5.25056428 C10.5772769,5.12461532 11.6728051,3.23801996 12.5156119,2.35781671 C13.3584187,1.47737355 13.8641027,0.848348493 12.810534,0.387255374 C11.7572064,-0.0740776481 9.65006889,-0.367478733 8.25937743,0.974057543 C7.64276602,1.56901641 3.81070812,5.12125668 2.88374125,13.2544403 L10.667948,11.1680059 C10.9062006,10.1057165 11.2242728,9.01295938 11.6306045,8.2690209 C12.6841732,6.34068245 15.0020727,4.32813814 13.948504,3.99275407" id="Fill-19" fill="#CF9D76"></path>
                <path d="M12.9792159,0.680728429 C12.9792159,0.680728429 10.914279,2.35764877 9.69214894,4.70533726" id="Stroke-20" stroke="#003A29" stroke-width="0.5" stroke-linecap="round"></path>
                <path d="M11.9046433,0.303433347 C11.9046433,0.303433347 9.75530519,1.81266166 8.53317509,4.32804217" id="Stroke-21" stroke="#003A29" stroke-width="0.5" stroke-linecap="round"></path>
                <path d="M6.61579572,7.97561981 C6.61579572,7.97561981 8.51217124,7.34659476 9.43913811,7.22088571" id="Stroke-22" stroke="#003A29" stroke-width="0.5" stroke-linecap="round"></path>
                <path d="M10.3874706,0.219563339 C10.3874706,0.219563339 8.34351342,1.72879165 7.12162447,4.07672004" id="Stroke-23" stroke="#003A29" stroke-width="0.5" stroke-linecap="round"></path>
                <path d="M10.2683201,13.3244679 C10.3592323,12.7256706 10.4913805,11.9560625 10.6681409,11.1679819 L2.88369302,13.2544163 C2.80749075,13.9239849 2.75178593,14.6257005 2.71802543,15.3581237 L10.2683201,13.3244679 Z" id="Fill-24" fill="#003A29"></path>
                <path d="M67.159682,45.8253193 C66.1555482,57.02518 56.6982676,65.8037021 45.1832845,65.8037021 C32.9930914,65.8037021 23.1130811,55.9744059 23.1130811,43.8497201 C23.1130811,40.5330643 23.852436,37.3910577 25.1780179,34.5741195 L67.159682,45.8253193 Z" id="Fill-25" fill="#10A867"></path>
                <path d="M22.9100117,34.1118028 C20.4426014,33.2505519 18.2838586,32.2940596 17.0711332,31.2598387 C13.3299875,28.0696117 12.8573405,25.6010122 11.6409979,16.6658337 C11.5356169,15.8926271 11.5517737,16.3340481 11.4340943,15.4941486 L0.885867207,18.3468324 C0.295299603,18.5066076 -0.080888825,19.0814146 0.0148463071,19.6828509 C0.589739392,23.2984255 1.90374628,33.0200053 7.66931624,39.0837877 C10.7564728,42.3303918 16.2312202,44.6164253 21.1050306,46.1158176 C20.769596,40.0038148 21.9960667,36.1092333 22.9100117,34.1118028" id="Fill-26" fill="#00E677"></path>
                <line x1="40.2872886" y1="25.7516232" x2="40.0765266" y2="26.9396217" id="Stroke-27" stroke="#003A29" stroke-width="0.5" stroke-linecap="round"></line>
                <path d="M41.2824758,27.5963555 C41.2824758,27.5963555 41.1983156,27.7362188 40.9173801,28.2671237 C40.777274,28.5317364 40.8050058,29.0218578 41.3808635,29.3572418" id="Stroke-28" stroke="#003A29" stroke-width="0.5" stroke-linecap="round"></path>
                <path d="M29.8761773,26.0536128 L16.7091001,26.0536128 L16.7091001,13.553719 C16.7091001,12.4196986 17.6418544,11.4917547 18.7819948,11.4917547 L33.0086694,11.4917547 C33.9105571,11.4917547 34.6484652,12.2258572 34.6484652,13.1230935 L34.6716161,27.7643594 C34.6723387,28.1815504 34.2194657,28.4432843 33.8555757,28.2364881 L30.1370978,26.1224649 C30.0575195,26.0773632 29.9675718,26.0536128 29.8761773,26.0536128" id="Fill-29" fill="#00FF6E"></path>
                <path d="M77.5614849,65.0109914 C77.5614849,65.0109914 78.2077573,65.9053489 77.617672,67.1631591" id="Stroke-30" stroke="#FFFFFF" stroke-width="0.5" stroke-linecap="round"></path>
                <path d="M8.51400395,36.7973464 C8.51400395,36.7973464 7.4640524,36.4475681 7.20361426,35.0842007" id="Stroke-31" stroke="#FFFFFF" stroke-width="0.5" stroke-linecap="round"></path>
            </g>
            <g id="Group-47" transform="translate(0.000000, 65.827117)">
                <g id="Group-35">
                    <mask id="mask-4" fill="white">
                        <use xlink:href="#path-3"></use>
                    </mask>
                    <g id="Clip-34"></g>
                    <line x1="25.6596216" y1="124.343764" x2="25.6596216" y2="117.633203" id="Stroke-33" stroke="#FFFFFF" stroke-width="1.2" stroke-linecap="round" mask="url(#mask-4)"></line>
                </g>
                <g id="Group-38">
                    <mask id="mask-6" fill="white">
                        <use xlink:href="#path-5"></use>
                    </mask>
                    <g id="Clip-37"></g>
                    <line x1="59.5513053" y1="124.343764" x2="59.5513053" y2="117.633203" id="Stroke-36" stroke="#FFFFFF" stroke-width="1.2" stroke-linecap="round" mask="url(#mask-6)"></line>
                </g>
                <mask id="mask-8" fill="white">
                    <use xlink:href="#path-7"></use>
                </mask>
                <g id="Clip-40"></g>
                <polygon id="Fill-39" fill="#CF9D76" mask="url(#mask-8)" points="-8.29054 115.065524 84.0005388 115.065524 84.0005388 100.948206 -8.29054 100.948206"></polygon>
                <polygon id="Fill-41" fill="#F1DBCA" mask="url(#mask-8)" points="-8.29054 101.491585 84.0005388 101.491585 84.0005388 -1.84029413 -8.29054 -1.84029413"></polygon>
                <polygon id="Fill-42" fill="#003A29" mask="url(#mask-8)" points="16.0781747 -2.29596545 75.7300844 13.6928343 75.7300844 -2.20360288"></polygon>
                <polygon id="Fill-43" fill="#00E677" mask="url(#mask-8)" points="-5.67771845 124.017736 93.2716544 124.017736 93.2716544 110.098577 -5.67771845 110.098577"></polygon>
                <polygon id="Fill-44" fill="#004D36" mask="url(#mask-8)" points="-3.48617971 125.946314 87.5405684 125.946314 87.5405684 118.651351 -3.48617971 118.651351"></polygon>
                <polygon id="Fill-45" fill="#003A29" mask="url(#mask-8)" points="81.0087315 109.9721 54.0249285 109.930357 84.5625064 118.204124"></polygon>
                <polygon id="Fill-46" fill="#003A29" mask="url(#mask-8)" points="33.5849714 109.9721 6.60116831 109.930357 37.1387463 118.204124"></polygon>
            </g>
        </g>
    </g>
</svg>