<?xml version="1.0" encoding="UTF-8"?>
<svg width="223px" height="155px" viewBox="0 0 223 155" version="1.1" xmlns="http://www.w3.org/2000/svg" xmlns:xlink="http://www.w3.org/1999/xlink">
    <title>Illustration small</title>
    <defs>
        <path d="M17.393195,0 L17.7506136,0.00125012088 C23.3704656,0.0404273386 29.9188154,1.000746 33.8226008,2.92702776 L33.8226008,2.92702776 L34.0274687,3.0316792 C40.5656098,6.48778492 38.8037986,16.9060589 38.729946,17.3255887 L38.7276181,17.3386382 L38.7909588,17.813277 C40.6527762,32.7417751 28.9227725,38.0225392 27.971854,38.424897 L27.9263557,38.4438671 C27.9161186,38.4480579 27.9108864,38.4501311 27.9108864,38.4501311 L27.9108864,38.4501311 L27.6328976,54 L8.29027751,45.5297947 L8.29244993,45.5166126 C8.32833696,45.2981634 8.80081764,42.3961114 9.11017542,39.1610539 L9.14647698,38.771399 C9.17010485,38.510764 9.19253521,38.2485996 9.213461,37.9861091 L9.24368288,37.5922795 C9.26302733,37.3297639 9.28071369,37.0675242 9.2964349,36.8067637 L9.2964349,36.8067637 L9.01252238,36.7448425 C-0.262562341,34.6607029 -0.258826982,28.5709648 0.114708949,26.6937336 L0.114708949,26.6937336 L0.135501649,26.5963262 C0.568216987,24.69377 2.76227631,21.6581019 3.1337209,15.5688579 L3.1337209,15.5688579 L3.15147609,15.2834922 C3.53823401,9.20753202 4.44699878,3.90083677 8.03873817,1.53594358 C9.58413978,0.518672574 13.2055507,0 17.393195,0 L17.393195,0 Z" id="path-1"></path>
    </defs>
    <g id="Illustration-small" stroke="none" stroke-width="1" fill="none" fill-rule="evenodd">
        <path d="M223,147.5 L0,147.5 C0,85.928 49.927,36 111.5,36 C173.073,36 223,85.928 223,147.5" id="Fill-10-Copy" fill="#E2F8EE"></path>
        <g id="Group-48-Copy-2" transform="translate(15.000000, 0.000000)">
            <g id="Arm" transform="translate(133.000000, 99.000000)" fill="#006341">
                <path d="M20.7717556,48.65702 C21.2842751,46.9309961 19.6649342,43.5876364 18.4992572,41.3611923 C13.4172216,31.6574304 5.34638785,26.3684431 0,25.5543324 L3.78724952,0 L19.7276856,4.37543498 C29.5799293,9.72233891 37.0632538,18.5114557 42.3287175,28.5649027 C45.7640632,35.1249024 47.4186279,41.8475375 47.8693623,48.65702 C48.5084166,58.3115501 39.4758811,58.3115501 20.7717556,48.65702 Z" id="Fill-4"></path>
            </g>
            <g id="Group-10" transform="translate(85.000000, 43.000000)">
                <mask id="mask-2" fill="white">
                    <use xlink:href="#path-1"></use>
                </mask>
                <g id="Clip-7"></g>
                <polygon id="Fill-6" fill="#CF9D76" mask="url(#mask-2)" points="-6.30008419 56.022606 42.5007083 56.022606 42.5007083 -7.94502215 -6.30008419 -7.94502215"></polygon>
                <polygon id="Fill-8" fill="#003A29" mask="url(#mask-2)" points="21.7479565 36.7907587 7.15813454 44.8030563 7.15813454 36.8135455"></polygon>
                <path d="M61.3949298,-8.29924948 C61.3949298,6.35433584 49.576359,18.2333484 34.9973327,18.2333484 C20.4183065,18.2333484 8.59973569,6.35433584 8.59973569,-8.29924948 C8.59973569,-22.9528348 20.4183065,-34.8318474 34.9973327,-34.8318474 C49.576359,-34.8318474 61.3949298,-22.9528348 61.3949298,-8.29924948" id="Fill-9" fill="#F1DBCA" mask="url(#mask-2)"></path>
            </g>
            <g id="Group-32" transform="translate(1.000000, 0.000000)">
                <path d="M163.787711,75.2259698 C163.787711,89.5160154 152.158293,101.100074 137.812291,101.100074 C123.466835,101.100074 111.836872,89.5160154 111.836872,75.2259698 C111.836872,60.9359242 123.466835,49.3518659 137.812291,49.3518659 C152.158293,49.3518659 163.787711,60.9359242 163.787711,75.2259698" id="Fill-11" fill="#F1DBCA"></path>
                <path d="M115.155093,69.0013302 L105.820381,69.0013302 L105.820381,60.6520778 L115.155093,60.6520778 C117.469967,60.6520778 119.346066,62.5208596 119.346066,64.826704 C119.346066,67.1325484 117.469967,69.0013302 115.155093,69.0013302" id="Fill-13" fill="#CF9D76"></path>
                <line x1="113.250051" y1="64.8264325" x2="116.298031" y2="64.8264325" id="Stroke-14" stroke="#003A29" stroke-width="0.5" stroke-linecap="round"></line>
                <path d="M106.77293,61.3633768 C106.77293,64.4814517 104.235672,67.0088135 101.105387,67.0088135 C97.9751028,67.0088135 95.4378446,64.4814517 95.4378446,61.3633768 C95.4378446,58.2453019 97.9751028,55.7179401 101.105387,55.7179401 C104.235672,55.7179401 106.77293,58.2453019 106.77293,61.3633768 Z" id="Stroke-15" stroke="#003A29" stroke-width="0.5" stroke-linecap="round"></path>
                <path d="M94.4854053,58.9912401 C94.4854053,62.109315 91.947602,64.6366768 88.8178627,64.6366768 C85.6875783,64.6366768 83.1503201,62.109315 83.1503201,58.9912401 C83.1503201,55.8731652 85.6875783,53.3458034 88.8178627,53.3458034 C91.947602,53.3458034 94.4854053,55.8731652 94.4854053,58.9912401 Z" id="Stroke-16" stroke="#003A29" stroke-width="0.5" stroke-linecap="round"></path>
                <path d="M92.8659205,69.0962352 C92.8659205,69.0962352 95.0570651,70.0452853 98.2004309,69.1912488" id="Stroke-17" stroke="#003A29" stroke-width="0.5" stroke-linecap="round"></path>
                <line x1="100.86725" y1="60.4039566" x2="100.390867" y2="63.0925701" id="Stroke-18" stroke="#003A29" stroke-width="0.5" stroke-linecap="round"></line>
                <path d="M31.5276627,9.03618332 C29.1462919,8.27716038 24.8599335,12.1672887 24.3835503,11.8827908 C23.9077122,11.59775 26.3839236,7.32811024 28.2889112,5.33608222 C30.1938988,3.34351127 31.3368914,1.91993606 28.9555206,0.876415249 C26.5746949,-0.167648495 21.8119533,-0.831657833 18.6685874,2.20443393 C17.2748669,3.55091239 8.61330509,11.5901489 6.51809124,29.9967267 L24.1126551,25.2748222 C24.6511752,22.8707066 25.3701104,20.3976383 26.2885379,18.7139973 C28.6699087,14.3498868 33.9090335,9.79520626 31.5276627,9.03618332" id="Fill-19" fill="#CF9D76"></path>
                <path d="M29.3367907,1.54058747 C29.3367907,1.54058747 24.6694347,5.33570217 21.9070664,10.6488627" id="Stroke-20" stroke="#003A29" stroke-width="0.5" stroke-linecap="round"></path>
                <path d="M26.9079451,0.686713807 C26.9079451,0.686713807 22.0498178,4.10231704 19.2874495,9.79498908" id="Stroke-21" stroke="#003A29" stroke-width="0.5" stroke-linecap="round"></path>
                <path d="M14.9536163,18.0499879 C14.9536163,18.0499879 19.2399747,16.6264127 21.3351886,16.3419148" id="Stroke-22" stroke="#003A29" stroke-width="0.5" stroke-linecap="round"></path>
                <path d="M23.4786948,0.496903779 C23.4786948,0.496903779 18.8587592,3.91250701 16.0969359,9.22621052" id="Stroke-23" stroke="#003A29" stroke-width="0.5" stroke-linecap="round"></path>
                <path d="M23.2093802,30.1552094 C23.4148682,28.8000439 23.7135615,27.0583089 24.1130911,25.2747679 L6.51798222,29.9966724 C6.345743,31.5120036 6.21983395,33.1000881 6.14352543,34.7576682 L23.2093802,30.1552094 Z" id="Fill-24" fill="#003A29"></path>
                <path d="M151.800351,103.709364 C149.530718,129.056278 128.154522,148.923351 102.127322,148.923351 C74.5739514,148.923351 52.2422638,126.678224 52.2422638,99.2382957 C52.2422638,91.7322212 53.9134203,84.6214033 56.9096197,78.2462622 L151.800351,103.709364 Z" id="Fill-25" fill="#10A867"></path>
                <path d="M51.7832681,77.1999724 C46.2062056,75.2508362 41.3268209,73.0861549 38.58571,70.7455627 C30.1296362,63.5256149 29.0613169,57.9388152 26.3120301,37.7172061 C26.0738385,35.9673271 26.1103575,36.9663272 25.8443679,35.0655123 L2.0023167,41.5215507 C0.667462712,41.8831454 -0.182832194,43.1840173 0.033556958,44.545155 C1.33298199,52.7277263 4.3030185,74.7290758 17.3348781,88.4522974 C24.3127469,95.799835 36.6872631,100.973461 47.7034877,104.366804 C46.9453081,90.5344526 49.7174875,81.7204481 51.7832681,77.1999724" id="Fill-26" fill="#00E677"></path>
                <line x1="91.0609516" y1="58.2796697" x2="90.5845684" y2="60.9682831" id="Stroke-27" stroke="#003A29" stroke-width="0.5" stroke-linecap="round"></line>
                <path d="M93.3103631,62.4545673 C93.3103631,62.4545673 93.1201369,62.7710983 92.485141,63.9726132 C92.1684607,64.5714703 92.2311427,65.6806863 93.532748,66.4397092" id="Stroke-28" stroke="#003A29" stroke-width="0.5" stroke-linecap="round"></path>
                <path d="M67.528822,58.9631161 L37.7674102,58.9631161 L37.7674102,30.6740379 C37.7674102,28.1075848 39.8757055,26.0075128 42.4527531,26.0075128 L74.6091623,26.0075128 C76.6476898,26.0075128 78.315576,27.6688934 78.315576,29.6994698 L78.3679038,62.8347846 C78.369537,63.7789483 77.3459127,64.3712902 76.5234159,63.9032804 L68.1185778,59.1189384 C67.9387078,59.0168666 67.7354001,58.9631161 67.528822,58.9631161" id="Fill-29" fill="#00FF6E"></path>
                <path d="M175.311441,147.129331 C175.311441,147.129331 176.772204,149.153393 175.43844,152" id="Stroke-30" stroke="#FFFFFF" stroke-width="0.5" stroke-linecap="round"></path>
                <path d="M19.2441172,83.2777481 C19.2441172,83.2777481 16.8709223,82.4861491 16.2822566,79.4006503" id="Stroke-31" stroke="#FFFFFF" stroke-width="0.5" stroke-linecap="round"></path>
            </g>
        </g>
    </g>
</svg>