<svg width="220" height="190" viewBox="0 0 220 190" fill="none" xmlns="http://www.w3.org/2000/svg">
<g clip-path="url(#clip0)">
<rect width="220" height="190" fill="white"/>
<path d="M174 175.32H175.279" stroke="#979797" stroke-width="2" stroke-linecap="round"/>
<path fill-rule="evenodd" clip-rule="evenodd" d="M110.309 27.5195C124.515 27.5195 137.792 31.4943 149.089 38.3922L159.884 38.3939C161.297 38.3939 162.443 39.5395 162.443 40.9526C162.443 42.3657 161.297 43.5113 159.884 43.5113L156.439 43.5094C171.122 55.0967 181.339 72.09 184.089 91.4862L196.345 91.4866C197.758 91.4866 198.904 92.6322 198.904 94.0453C198.904 95.4584 197.758 96.604 196.345 96.604L184.636 96.6036C184.765 98.3993 184.831 100.213 184.831 102.041C184.831 106.723 184.399 111.305 183.573 115.747C177.839 117.326 173.582 119.903 170.803 123.478C168.109 126.945 166.217 132.107 165.128 138.963L165.028 139.611L161.011 143.373C155.885 140.493 150.907 140.061 146.077 142.076C141.246 144.091 137.723 147.87 135.509 153.412C132.043 151.262 128.766 150.378 125.678 150.758C122.591 151.139 119.473 152.811 116.327 155.775C115.485 154.564 114.437 153.635 113.182 152.988C111.928 152.34 110.816 152.155 109.846 152.431C108.148 146.373 105.215 142.722 101.047 141.477C96.8803 140.233 92.1859 141.542 86.9642 145.405C86.0846 140.621 83.9997 136.771 80.7096 133.857C77.4194 130.943 73.1969 129.206 68.0421 128.645C67.4273 126.406 66.2274 124.673 64.4424 123.446C62.6573 122.22 60.2528 121.477 57.2287 121.217C55.2324 115.37 52.5874 111.726 49.2937 110.283C45.9999 108.84 41.7623 109.729 36.5808 112.951C36.2855 110.939 36.0708 108.901 35.9398 106.839L28.1118 106.839C26.6986 106.839 25.5531 105.693 25.5531 104.28C25.5531 102.867 26.6986 101.721 28.1118 101.721L35.7885 101.721C35.8294 92.0001 37.7314 82.7188 41.1567 74.2147L33.2291 74.2155C31.816 74.2155 30.6704 73.0699 30.6704 71.6568C30.6704 70.2437 31.816 69.0981 33.2291 69.0981L43.4464 69.0974C55.6067 44.4637 80.9793 27.5195 110.309 27.5195ZM207.22 91.2221C208.633 91.2221 209.778 92.3676 209.778 93.7808C209.778 95.1939 208.633 96.3394 207.22 96.3394H204.661C203.248 96.3394 202.102 95.1939 202.102 93.7808C202.102 92.3676 203.248 91.2221 204.661 91.2221H207.22ZM22.9944 68.8558C24.4075 68.8558 25.5531 70.0014 25.5531 71.4145C25.5531 72.8276 24.4075 73.9732 22.9944 73.9732H18.5167C17.1036 73.9732 15.958 72.8276 15.958 71.4145C15.958 70.0014 17.1036 68.8558 18.5167 68.8558H22.9944Z" fill="#D8D8D8" fill-opacity="0.4"/>
<path opacity="0.405" d="M134.391 54.7697C134.904 54.7787 135.32 55.172 135.369 55.6703L135.374 55.787L135.369 55.9975L135.585 55.9985C136.137 55.9985 136.585 56.4462 136.585 56.9985C136.585 57.5113 136.199 57.934 135.701 57.9918L135.585 57.9985L135.334 57.9975L135.331 58.245C135.321 58.7972 134.866 59.237 134.313 59.2273C133.801 59.2183 133.385 58.825 133.336 58.3267L133.331 58.21L133.334 57.9975L133.12 57.9985C132.568 57.9985 132.12 57.5508 132.12 56.9985C132.12 56.4857 132.506 56.063 133.003 56.0052L133.12 55.9985L133.369 55.9975L133.374 55.752C133.384 55.1998 133.839 54.76 134.391 54.7697Z" fill="#979797"/>
<path fill-rule="evenodd" clip-rule="evenodd" d="M89.3383 142.967L84.4053 125.44L87.6923 124.568L92.0593 141.691L89.3383 142.967Z" fill="#D8D8D8"/>
<path d="M95.391 50.1376C96.1604 50.1376 96.784 49.5139 96.784 48.7446C96.784 47.9752 96.1604 47.3516 95.391 47.3516C94.6217 47.3516 93.998 47.9752 93.998 48.7446C93.998 49.5139 94.6217 50.1376 95.391 50.1376Z" fill="#979797"/>
<path fill-rule="evenodd" clip-rule="evenodd" d="M63.4648 22.7852C64.2344 22.7852 64.8582 23.409 64.8582 24.1786C64.8582 24.9482 64.2344 25.5721 63.4648 25.5721C62.6952 25.5721 62.0713 24.9482 62.0713 24.1786C62.0713 23.409 62.6952 22.7852 63.4648 22.7852ZM67.9994 17.2852C69.5386 17.2852 70.7864 18.5329 70.7864 20.0721C70.7864 21.6113 69.5386 22.8591 67.9994 22.8591C66.4602 22.8591 65.2125 21.6113 65.2125 20.0721C65.2125 18.5329 66.4602 17.2852 67.9994 17.2852Z" fill="#D8D8D8"/>
<path d="M195.82 38.6239C196.589 38.6239 197.213 38.0002 197.213 37.2309C197.213 36.4616 196.589 35.8379 195.82 35.8379C195.05 35.8379 194.427 36.4616 194.427 37.2309C194.427 38.0002 195.05 38.6239 195.82 38.6239Z" fill="#D8D8D8"/>
<path d="M144.683 74.954C145.452 74.954 146.076 74.3303 146.076 73.561C146.076 72.7916 145.452 72.168 144.683 72.168C143.914 72.168 143.29 72.7916 143.29 73.561C143.29 74.3303 143.914 74.954 144.683 74.954Z" fill="white"/>
<path d="M76.9646 76.4994L62.6724 103.771H71.773V92.3546H80.0185V103.771H85.9736V111.485H80.0185V119.321H71.773V111.485H52.8084V105.486L57.016 97.3504L58.7705 97.3512C59.6837 97.3512 60.4326 96.648 60.5052 95.7535L60.511 95.6107C60.511 94.6495 59.7318 93.8703 58.7705 93.8703L56.582 93.8707C55.9031 93.6333 55.4161 92.9872 55.4161 92.2273C55.4161 91.266 56.1953 90.4868 57.1565 90.4868H63.2482C64.2094 90.4868 64.9887 89.7075 64.9887 88.7463C64.9887 87.7851 64.2094 87.0058 63.2482 87.0058H53.2405C52.2792 87.0058 51.5 86.2266 51.5 85.2654C51.5 84.3041 52.2792 83.5249 53.2405 83.5249L64.168 83.5244L67.803 76.4994H76.9646ZM109.066 73.5762C119.266 73.5762 127.511 81.9017 127.511 95.7672C127.511 109.633 119.266 117.958 109.066 117.958C98.8351 117.958 90.6507 109.633 90.6507 95.7672C90.6507 90.4534 91.8527 85.9533 93.9113 82.4236C94.8199 81.1244 95.6187 80.0721 96.3077 79.2666L98.3241 77.265C101.34 74.8621 105.045 73.5762 109.066 73.5762ZM109.066 81.5037C103.599 81.5037 99.2321 86.4011 99.2321 95.7672C99.2321 105.133 103.599 110.031 109.066 110.031C114.563 110.031 118.899 105.133 118.899 95.7672C118.899 86.4011 114.563 81.5037 109.066 81.5037ZM148.192 84.8302C147.231 84.8302 146.452 85.6095 146.452 86.5707C146.452 87.5319 147.231 88.3112 148.192 88.3112L149.967 88.3104L141.864 103.771H150.965V92.3546H159.21V103.771H165.165V111.485H159.21V119.321H150.965V111.485H132V105.486L139.083 91.7914L135.574 91.7921C134.613 91.7921 133.834 91.0129 133.834 90.0517C133.834 89.0904 134.613 88.3112 135.574 88.3112L140.884 88.3104L143.12 83.99L146.995 76.4994H156.156L153.615 81.3484L160.376 81.3493C161.337 81.3493 162.116 82.1285 162.116 83.0898C162.116 84.051 161.337 84.8302 160.376 84.8302H148.192Z" fill="#D8D8D8"/>
<path d="M104.461 45.2478C106 45.2478 107.248 44 107.248 42.4608C107.248 40.9216 106 39.6738 104.461 39.6738C102.922 39.6738 101.674 40.9216 101.674 42.4608C101.674 44 102.922 45.2478 104.461 45.2478Z" fill="#D8D8D8"/>
<path d="M83.3701 140.332C83.9224 140.332 84.3701 139.884 84.3701 139.332C84.3701 138.78 83.9224 138.332 83.3701 138.332C82.8178 138.332 82.3701 138.78 82.3701 139.332C82.3701 139.884 82.8178 140.332 83.3701 140.332Z" fill="white"/>
<path d="M199.307 172.328C200.897 172.328 202.186 171.039 202.186 169.449C202.186 167.859 200.897 166.57 199.307 166.57C197.717 166.57 196.428 167.859 196.428 169.449C196.428 171.039 197.717 172.328 199.307 172.328Z" fill="#D8D8D8"/>
<path d="M139.095 116.436V121.553" stroke="white" stroke-width="2" stroke-linecap="round"/>
<path d="M141.654 118.994H136.537" stroke="white" stroke-width="2" stroke-linecap="round"/>
<path d="M12.3754 105.858C12.8882 105.858 13.3109 106.244 13.3686 106.741L13.3754 106.858L13.3752 107.948L14.4656 107.948C15.0179 107.948 15.4656 108.396 15.4656 108.948C15.4656 109.461 15.0795 109.884 14.5822 109.941L14.4656 109.948L13.3752 109.948L13.3754 111.038C13.3754 111.591 12.9277 112.038 12.3754 112.038C11.8625 112.038 11.4399 111.652 11.3821 111.155L11.3754 111.038L11.3752 109.948L10.2852 109.948C9.73287 109.948 9.28516 109.5 9.28516 108.948C9.28516 108.435 9.6712 108.013 10.1685 107.955L10.2852 107.948L11.3752 107.948L11.3754 106.858C11.3754 106.306 11.8231 105.858 12.3754 105.858ZM189.161 11.5723C189.674 11.5723 190.097 11.9583 190.154 12.4556L190.161 12.5723L190.161 13.6623L191.251 13.6625C191.804 13.6625 192.251 14.1102 192.251 14.6625C192.251 15.1753 191.865 15.598 191.368 15.6557L191.251 15.6625L190.161 15.6623L190.161 16.7527C190.161 17.305 189.713 17.7527 189.161 17.7527C188.648 17.7527 188.226 17.3666 188.168 16.8693L188.161 16.7527L188.161 15.6623L187.071 15.6625C186.519 15.6625 186.071 15.2148 186.071 14.6625C186.071 14.1496 186.457 13.727 186.954 13.6692L187.071 13.6625L188.161 13.6623L188.161 12.5723C188.161 12.02 188.609 11.5723 189.161 11.5723Z" fill="#D8D8D8"/>
<path d="M54.3857 125.678V130.137" stroke="white" stroke-width="2" stroke-linecap="round"/>
<path d="M56.6162 127.908H52.1572" stroke="white" stroke-width="2" stroke-linecap="round"/>
<path d="M52.0986 100.723H55.8126" stroke="#979797" stroke-width="2" stroke-linecap="round"/>
<path d="M161.889 114.154H165.603" stroke="#979797" stroke-width="2" stroke-linecap="round"/>
<path d="M168.286 114.154H169.565" stroke="#979797" stroke-width="2" stroke-linecap="round"/>
<path d="M47.9414 100.723H49.4174" stroke="#979797" stroke-width="2" stroke-linecap="round"/>
<path fill-rule="evenodd" clip-rule="evenodd" d="M94.1424 149.645L86.9639 122.243L125.618 111.992L136.676 150.76C136.26 152.553 135.73 153.297 135.085 152.989C130.411 150.76 119.922 152.835 117.092 155.776C113.874 159.121 106.224 157.077 94.1424 149.645Z" fill="white"/>
<path fill-rule="evenodd" clip-rule="evenodd" d="M88.8579 128.646L127.187 118.312L125.618 111.992L86.9639 122.242L88.8579 128.646Z" fill="#D8D8D8"/>
<path d="M98.6982 122.772L123.072 116.201" stroke="white" stroke-width="3" stroke-linecap="round"/>
<path d="M99.9424 138.369L123.991 131.885" stroke="#D8D8D8" stroke-width="2"/>
<path d="M100.499 141.712L114.343 137.98" stroke="#D8D8D8" stroke-width="2"/>
<path d="M91.4519 125.677C92.0677 125.677 92.5669 125.178 92.5669 124.562C92.5669 123.946 92.0677 123.447 91.4519 123.447C90.8361 123.447 90.3369 123.946 90.3369 124.562C90.3369 125.178 90.8361 125.677 91.4519 125.677Z" fill="#D8D8D8"/>
<path d="M94.7966 125.121C95.4124 125.121 95.9116 124.621 95.9116 124.006C95.9116 123.39 95.4124 122.891 94.7966 122.891C94.1808 122.891 93.6816 123.39 93.6816 124.006C93.6816 124.621 94.1808 125.121 94.7966 125.121Z" fill="#D8D8D8"/>
<path fill-rule="evenodd" clip-rule="evenodd" d="M177.448 62.3757C181.269 59.4961 182.632 54.8589 180.491 52.0182C178.35 49.1776 173.517 49.2091 169.696 52.0887C165.875 54.9683 164.512 59.6055 166.653 62.4462C168.793 65.2868 173.626 65.2553 177.448 62.3757Z" fill="white"/>
<path d="M183.682 52.875H181.706" stroke="#979797" stroke-width="2" stroke-linecap="round"/>
<path d="M188.941 58.6562H183.859" stroke="#979797" stroke-width="2" stroke-linecap="round"/>
<path d="M189.274 55.9355H188.818" stroke="#979797" stroke-width="2" stroke-linecap="round"/>
<path d="M186.259 55.9355H183.7" stroke="#979797" stroke-width="2" stroke-linecap="round"/>
<path fill-rule="evenodd" clip-rule="evenodd" d="M182.251 54.6191C184.829 57.7127 184.217 60.9912 180.415 64.4548C178.332 66.3519 176.103 66.9428 174.678 67.1183C172.125 67.433 170.08 66.655 168.544 64.7845C172.457 65.0633 175.72 63.9846 178.332 61.5484C180.944 59.1122 182.251 56.8025 182.251 54.6191Z" fill="#D8D8D8" fill-opacity="0.4"/>
<path fill-rule="evenodd" clip-rule="evenodd" d="M175.935 60.3677C178.409 58.5033 179.315 55.5332 177.959 53.7338C176.604 51.9344 173.499 51.9871 171.024 53.8515C168.55 55.7159 167.644 58.686 169 60.4854C170.356 62.2848 173.461 62.2321 175.935 60.3677Z" fill="#D8D8D8" fill-opacity="0.4"/>
<path d="M166.652 62.4469L168.857 65.0194C170.997 67.8601 175.83 67.8285 179.652 64.9489C183.473 62.0693 184.562 57.4598 182.421 54.6192L180.106 51.5684" stroke="#979797" stroke-width="1.5"/>
<path fill-rule="evenodd" clip-rule="evenodd" d="M177.448 62.3757C181.269 59.4961 182.632 54.8589 180.491 52.0182C178.35 49.1776 173.517 49.2091 169.696 52.0887C165.875 54.9683 164.512 59.6055 166.653 62.4462C168.793 65.2868 173.626 65.2553 177.448 62.3757Z" stroke="#979797" stroke-width="1.5"/>
<path fill-rule="evenodd" clip-rule="evenodd" d="M175.935 60.3677C178.409 58.5033 179.315 55.5332 177.959 53.7338C176.604 51.9344 173.499 51.9871 171.024 53.8515C168.55 55.7159 167.644 58.686 169 60.4854C170.356 62.2848 173.461 62.2321 175.935 60.3677Z" stroke="#979797" stroke-width="1.5"/>
<path d="M172.052 64.5664L173.572 66.8724" stroke="#979797" stroke-width="1.5"/>
<path d="M175.251 63.9277L176.771 66.2347" stroke="#979797" stroke-width="1.5"/>
<path d="M177.809 62.6484L179.467 64.8884" stroke="#979797" stroke-width="1.5"/>
<path d="M179.862 60.1895L181.781 62.6835" stroke="#979797" stroke-width="1.5"/>
<path d="M181.143 57.6309L183.062 60.1249" stroke="#979797" stroke-width="1.5"/>
<path fill-rule="evenodd" clip-rule="evenodd" d="M50.0071 47.7051C47.5674 50.6322 48.1465 53.7344 51.7443 57.0117C53.7148 58.8067 55.8241 59.3658 57.1721 59.532C59.588 59.8297 61.5229 59.0936 62.9768 57.3237C59.2739 57.5875 56.1865 56.5668 53.7148 54.2616C51.243 51.9565 50.0071 49.771 50.0071 47.7051Z" fill="#D8D8D8" fill-opacity="0.4"/>
<path d="M64.7659 55.1103L62.6802 57.5445C60.6548 60.2323 56.0816 60.2025 52.4658 57.4778C48.85 54.753 47.5608 50.3653 49.5862 47.6774L51.7442 45.0728" stroke="#979797" stroke-width="1.5"/>
<path d="M54.5515 55.0442C50.9355 52.3194 49.6462 47.9316 51.6717 45.2437C53.6972 42.5558 58.2705 42.5857 61.8864 45.3105C65.5023 48.0353 66.7916 52.4231 64.7661 55.111C62.7407 57.7989 58.1674 57.769 54.5515 55.0442Z" fill="white"/>
<path d="M54.5515 55.0442C50.9355 52.3194 49.6462 47.9316 51.6717 45.2437C53.6972 42.5558 58.2705 42.5857 61.8864 45.3105C65.5023 48.0353 66.7916 52.4231 64.7661 55.111C62.7407 57.7989 58.1674 57.769 54.5515 55.0442Z" stroke="#979797" stroke-width="1.5"/>
<path d="M55.983 53.1449C53.6418 51.3806 52.7839 48.5702 54.0668 46.8677C55.3498 45.1651 58.2878 45.2152 60.629 46.9794C62.9702 48.7436 63.8281 51.554 62.5452 53.2566C61.2622 54.9591 58.3242 54.9091 55.983 53.1449Z" fill="#D8D8D8" fill-opacity="0.4"/>
<path d="M55.983 53.1449C53.6418 51.3806 52.7839 48.5702 54.0668 46.8677C55.3498 45.1651 58.2878 45.2152 60.629 46.9794C62.9702 48.7436 63.8281 51.554 62.5452 53.2566C61.2622 54.9591 58.3242 54.9091 55.983 53.1449Z" stroke="#979797" stroke-width="1.5"/>
<path d="M50.0221 46.6348H47.2891" stroke="#979797" stroke-width="2" stroke-linecap="round"/>
<path d="M50.0212 55.2188H42.9932" stroke="#979797" stroke-width="2" stroke-linecap="round"/>
<path d="M41.8146 50.8145H41.1836" stroke="#979797" stroke-width="2" stroke-linecap="round"/>
<path d="M48.082 50.8379H44.543" stroke="#979797" stroke-width="2" stroke-linecap="round"/>
<path d="M51.2491 51.1602L49.4561 53.1162" stroke="#979797" stroke-width="1.5"/>
<path d="M53.4121 54.377L51.6191 56.333" stroke="#979797" stroke-width="1.5"/>
<path d="M56.0667 56.1465L54.0977 58.5795" stroke="#979797" stroke-width="1.5"/>
<path d="M59.7815 57.0312L57.8125 59.4643" stroke="#979797" stroke-width="1.5"/>
<path fill-rule="evenodd" clip-rule="evenodd" d="M139.518 137.666C140.706 137.502 141.838 137.501 143.036 137.667L143.487 141.117C144.456 141.351 145.363 141.732 146.19 142.239L148.949 140.118C149.888 140.829 150.726 141.667 151.437 142.606L149.315 145.367C149.82 146.192 150.202 147.1 150.434 148.067L153.884 148.519C154.052 149.735 154.046 150.867 153.884 152.038L150.434 152.489C150.202 153.457 149.82 154.364 149.315 155.19L151.437 157.95C150.726 158.89 149.888 159.728 148.949 160.439L146.189 158.318C145.363 158.824 144.455 159.206 143.487 159.439L143.036 162.889C141.837 163.055 140.706 163.054 139.518 162.89L139.067 159.442C138.097 159.209 137.187 158.827 136.36 158.321L133.6 160.442C132.64 159.717 131.794 158.857 131.112 157.956L133.233 155.197C132.726 154.369 132.343 153.459 132.109 152.488L128.66 152.037C128.494 150.834 128.506 149.639 128.66 148.52L132.109 148.069C132.343 147.098 132.726 146.188 133.233 145.36L131.112 142.601C131.839 141.641 132.699 140.796 133.6 140.114L136.36 142.236C137.187 141.729 138.097 141.347 139.067 141.114L139.518 137.666ZM141.272 145.561C138.667 145.561 136.555 147.673 136.555 150.278C136.555 152.883 138.667 154.995 141.272 154.995C143.877 154.995 145.989 152.883 145.989 150.278C145.989 147.673 143.877 145.561 141.272 145.561Z" fill="white"/>
<path d="M139.381 136.675C140.665 136.499 141.888 136.499 143.173 136.677L143.928 136.781L144.392 140.332L144.506 140.367C145.022 140.535 145.522 140.743 146.004 140.989L146.103 141.043L148.944 138.86L149.553 139.32C150.566 140.087 151.469 140.99 152.234 142.003L152.694 142.611L150.51 145.451L150.564 145.553C150.81 146.034 151.017 146.535 151.185 147.05L151.219 147.161L154.77 147.626L154.874 148.382C155.053 149.672 155.051 150.896 154.874 152.175L154.77 152.93L151.219 153.394L151.185 153.507C151.017 154.022 150.81 154.522 150.564 155.004L150.51 155.104L152.694 157.945L152.234 158.553C151.469 159.566 150.566 160.469 149.553 161.236L148.944 161.696L146.104 159.513L146.004 159.567C145.522 159.813 145.022 160.021 144.506 160.189L144.392 160.223L143.928 163.775L143.173 163.88C141.888 164.058 140.665 164.058 139.381 163.881L138.625 163.777L138.161 160.227L138.048 160.193C137.531 160.025 137.03 159.817 136.548 159.571L136.445 159.516L133.605 161.7L132.997 161.24C131.985 160.475 131.069 159.555 130.315 158.56L129.855 157.951L132.037 155.111L131.983 155.009C131.736 154.526 131.528 154.025 131.359 153.508L131.324 153.393L127.774 152.929L127.67 152.174C127.495 150.91 127.498 149.624 127.67 148.383L127.774 147.627L131.324 147.162L131.359 147.049C131.528 146.532 131.736 146.03 131.983 145.547L132.037 145.444L129.855 142.605L130.315 141.997C131.081 140.985 132.001 140.07 132.997 139.317L133.605 138.857L136.445 141.039L136.547 140.985C137.03 140.739 137.531 140.532 138.048 140.364L138.161 140.329L138.625 136.78L139.381 136.675ZM142.081 138.572C141.542 138.534 141.01 138.533 140.471 138.571L140.407 138.576L139.969 141.926L139.3 142.087C138.444 142.292 137.63 142.63 136.882 143.088L136.296 143.447L133.615 141.387L133.578 141.42C133.17 141.775 132.783 142.161 132.424 142.572L132.386 142.616L134.445 145.296L134.086 145.883C133.627 146.631 133.288 147.445 133.082 148.302L132.921 148.971L129.573 149.408L129.561 149.575C129.533 150.037 129.533 150.504 129.56 150.97L129.574 151.147L132.921 151.586L133.082 152.254C133.288 153.111 133.627 153.925 134.086 154.674L134.445 155.26L132.386 157.94L132.418 157.977C132.773 158.385 133.16 158.772 133.57 159.13L133.615 159.168L136.296 157.109L136.882 157.468C137.631 157.926 138.444 158.264 139.3 158.47L139.969 158.63L140.407 161.979L140.471 161.985C141.01 162.023 141.542 162.023 142.081 161.985L142.146 161.978L142.585 158.628L143.253 158.467C144.108 158.261 144.92 157.923 145.667 157.465L146.253 157.105L148.933 159.164L148.977 159.128C149.386 158.772 149.77 158.387 150.126 157.979L150.163 157.934L148.103 155.254L148.462 154.668C148.919 153.921 149.257 153.11 149.462 152.255L149.623 151.587L152.972 151.148L152.979 151.087C153.017 150.548 153.017 150.017 152.979 149.476L152.972 149.407L149.623 148.97L149.462 148.301C149.257 147.447 148.919 146.636 148.462 145.889L148.103 145.302L150.163 142.621L150.126 142.578C149.77 142.169 149.386 141.785 148.977 141.428L148.933 141.391L146.254 143.451L145.667 143.091C144.92 142.634 144.108 142.295 143.253 142.089L142.585 141.928L142.146 138.577L142.081 138.572ZM141.272 144.561C144.429 144.561 146.989 147.121 146.989 150.278C146.989 153.435 144.429 155.995 141.272 155.995C138.115 155.995 135.555 153.435 135.555 150.278C135.555 147.121 138.115 144.561 141.272 144.561ZM141.272 146.561C139.219 146.561 137.555 148.225 137.555 150.278C137.555 152.331 139.219 153.995 141.272 153.995C143.325 153.995 144.989 152.331 144.989 150.278C144.989 148.225 143.325 146.561 141.272 146.561Z" fill="#979797"/>
<path d="M158.413 150.482C159.215 150.144 160.011 149.913 160.857 149.775L161.285 149.714L162.042 149.619L163.102 152.186L163.138 152.188C163.383 152.203 163.625 152.23 163.867 152.268L164.259 152.339L165.948 150.134L166.654 150.421C167.445 150.743 168.195 151.157 168.888 151.654L169.23 151.909L169.831 152.377L168.765 154.944L168.788 154.967C168.949 155.15 169.102 155.341 169.246 155.537L169.456 155.838L169.474 155.867L172.228 155.502L172.524 156.205C172.865 157.012 173.095 157.809 173.233 158.652L173.294 159.078L173.389 159.835L170.822 160.894L170.789 161.295L170.741 161.658L170.677 162.018L170.669 162.048L172.876 163.739L172.589 164.445C172.268 165.236 171.854 165.986 171.358 166.68L171.102 167.021L170.634 167.623L168.068 166.558L168.045 166.58C167.862 166.742 167.671 166.895 167.475 167.04L167.174 167.25L167.143 167.269L167.509 170.023L166.806 170.319C166.003 170.658 165.207 170.889 164.362 171.028L163.935 171.09L163.178 171.185L162.116 168.619L161.716 168.586L161.352 168.538L160.991 168.473L160.957 168.466L159.268 170.672L158.562 170.385C157.772 170.064 157.012 169.643 156.325 169.151L155.987 168.899L155.385 168.431L156.449 165.865L156.427 165.84C156.265 165.657 156.112 165.466 155.967 165.269L155.756 164.968L155.736 164.937L152.984 165.301L152.687 164.598C152.354 163.808 152.116 162.98 151.979 162.145L151.918 161.728L151.823 160.971L154.389 159.91L154.391 159.873C154.407 159.628 154.434 159.385 154.471 159.143L154.543 158.749L152.338 157.06L152.625 156.353C152.947 155.563 153.368 154.804 153.86 154.116L154.113 153.779L154.581 153.177L157.146 154.242L157.172 154.219C157.355 154.058 157.546 153.905 157.743 153.76L158.073 153.53L157.71 150.778L158.413 150.482ZM160.505 151.886L160.173 151.975L159.897 152.061L160.233 154.599L159.629 154.928C159.152 155.187 158.714 155.505 158.323 155.877L158.093 156.106L157.62 156.604L155.254 155.622L155.104 155.861L154.929 156.163L154.793 156.421L156.826 157.978L156.63 158.638C156.476 159.157 156.391 159.692 156.376 160.233L156.376 160.558L156.394 161.246L154.028 162.223L154.101 162.535L154.171 162.797L154.267 163.113L156.805 162.778L157.133 163.382C157.392 163.859 157.712 164.297 158.084 164.689L158.313 164.918L158.812 165.391L157.83 167.756L158.069 167.907L158.219 167.995L158.371 168.081L158.628 168.217L160.187 166.184L160.846 166.379C161.365 166.532 161.899 166.618 162.44 166.632H162.765L163.453 166.614L164.43 168.979L164.713 168.916L164.879 168.874L165.044 168.828L165.321 168.74L164.985 166.202L165.589 165.873C166.065 165.614 166.502 165.295 166.892 164.924L167.121 164.695L167.595 164.196L169.96 165.177L170.114 164.934L170.288 164.634L170.421 164.378L168.388 162.821L168.583 162.161C168.736 161.644 168.821 161.11 168.835 160.571L168.835 160.247L168.818 159.56L171.183 158.581L171.122 158.301L171.079 158.135L171.033 157.969L170.945 157.689L168.407 158.026L168.078 157.422C167.82 156.946 167.502 156.509 167.131 156.119L166.903 155.89L166.404 155.416L167.385 153.051L167.143 152.897L166.842 152.723L166.586 152.589L165.029 154.622L164.37 154.426C163.852 154.273 163.318 154.188 162.778 154.173L162.454 154.173L161.767 154.19L160.788 151.822L160.505 151.886ZM161.41 155.94C163.875 155.28 166.407 156.743 167.068 159.207C167.728 161.671 166.265 164.203 163.801 164.864C161.337 165.524 158.805 164.062 158.144 161.598C157.484 159.133 158.946 156.601 161.41 155.94ZM161.928 157.872C160.531 158.247 159.702 159.683 160.076 161.08C160.451 162.477 161.887 163.306 163.284 162.932C164.681 162.557 165.51 161.121 165.136 159.724C164.761 158.327 163.325 157.498 161.928 157.872Z" fill="#979797"/>
<path fill-rule="evenodd" clip-rule="evenodd" d="M120.716 44.7414C126.733 46.3777 130.868 45.4806 133.12 42.0501C135.373 38.6197 135.701 34.7826 134.103 30.5391C133.098 33.7507 131.541 36.4652 129.43 38.6826C127.319 40.9001 124.414 42.9197 120.716 44.7414Z" fill="white"/>
<path d="M119.677 31.7703C120.56 31.7703 121.276 31.0544 121.276 30.1713C121.276 29.2882 120.56 28.5723 119.677 28.5723C118.794 28.5723 118.078 29.2882 118.078 30.1713C118.078 31.0544 118.794 31.7703 119.677 31.7703Z" fill="#979797"/>
<path d="M29.951 164.402C31.0285 164.402 31.902 163.529 31.902 162.451C31.902 161.373 31.0285 160.5 29.951 160.5C28.8735 160.5 28 161.373 28 162.451C28 163.529 28.8735 164.402 29.951 164.402Z" fill="#D8D8D8"/>
<path d="M23.393 21.6434C24.1623 21.6434 24.786 21.0198 24.786 20.2504C24.786 19.4811 24.1623 18.8574 23.393 18.8574C22.6237 18.8574 22 19.4811 22 20.2504C22 21.0198 22.6237 21.6434 23.393 21.6434Z" fill="#D8D8D8"/>
<path d="M25.393 167.786C26.1623 167.786 26.786 167.162 26.786 166.393C26.786 165.624 26.1623 165 25.393 165C24.6237 165 24 165.624 24 166.393C24 167.162 24.6237 167.786 25.393 167.786Z" fill="#D8D8D8"/>
<path d="M203.322 175.948C204.091 175.948 204.715 175.324 204.715 174.555C204.715 173.786 204.091 173.162 203.322 173.162C202.552 173.162 201.929 173.786 201.929 174.555C201.929 175.324 202.552 175.948 203.322 175.948Z" fill="#D8D8D8"/>
<path d="M204.875 71.2852C205.388 71.2852 205.811 71.6712 205.869 72.1685L205.875 72.2852L205.875 73.3752L206.966 73.3754C207.518 73.3754 207.966 73.8231 207.966 74.3754C207.966 74.8882 207.58 75.3109 207.082 75.3686L206.966 75.3754L205.875 75.3752L205.875 76.4656C205.875 77.0179 205.428 77.4656 204.875 77.4656C204.363 77.4656 203.94 77.0795 203.882 76.5822L203.875 76.4656L203.875 75.3752L202.785 75.3754C202.233 75.3754 201.785 74.9277 201.785 74.3754C201.785 73.8625 202.171 73.4399 202.669 73.3821L202.785 73.3754L203.875 73.3752L203.875 72.2852C203.875 71.7329 204.323 71.2852 204.875 71.2852Z" fill="#D8D8D8"/>
<path d="M80.8159 73.372L66.5227 100.643H72.9707L72.9713 89.2271H83.2167L83.2167 100.643L89.1718 100.644V110.357L83.2167 110.356L83.2167 118.193H72.9713L72.9707 110.356L54.0066 110.357V103.115L58.6058 94.2227L60.9688 94.2238C61.3549 94.2238 61.6758 93.9265 61.7043 93.5857L61.7092 93.4833C61.7092 93.0971 61.412 92.7763 61.0711 92.7478L60.9689 92.7428L58.6106 92.7432L58.4502 92.6872C57.3593 92.3058 56.6143 91.2739 56.6143 90.0998C56.6143 88.5863 57.8413 87.3593 59.3548 87.3593H65.4465C65.8554 87.3593 66.1869 87.0278 66.1869 86.6189C66.1869 86.2327 65.8897 85.9118 65.5488 85.8833L65.4465 85.8784H55.4387C53.9252 85.8784 52.6982 84.6514 52.6982 83.1379C52.6982 81.6244 53.9252 80.3974 55.4387 80.3974L65.7567 80.3964L69.3927 73.372H80.8159ZM159.911 73.372L157.37 78.2204L162.478 78.2218C163.935 78.2218 165.127 79.3596 165.213 80.7954L165.218 80.9623C165.218 82.4758 163.992 83.7028 162.478 83.7028H150.295C149.886 83.7028 149.554 84.0343 149.554 84.4433C149.554 84.8294 149.851 85.1503 150.192 85.1788L150.294 85.1837L153.723 85.1823L145.619 100.643H152.067L152.067 89.2271H162.312L162.312 100.643L168.267 100.644V110.357L162.312 110.356L162.312 118.193H152.067L152.067 110.356L133.102 110.357V103.115L139.542 90.6634L137.676 90.6647C136.219 90.6647 135.027 89.5269 134.941 88.0912L134.936 87.9242C134.936 86.4107 136.163 85.1837 137.676 85.1837L142.377 85.1824L148.488 73.372H159.911ZM110.984 72.5762C122.25 72.5762 130.43 81.9279 130.43 95.7672C130.43 102.419 128.54 108.034 125.327 112.072L121.585 113.098C125.825 109.442 128.43 103.383 128.43 95.7672C128.43 82.9773 121.082 74.5762 110.984 74.5762C107.349 74.5762 103.984 75.6868 101.197 77.79L100.902 78.0184L98.9863 79.9167C98.6577 80.3008 98.3011 80.7458 97.9224 81.2431L97.4576 81.8643L96.9737 82.5323L96.6938 82.9274C94.6609 86.4131 93.5694 90.7775 93.5694 95.7672C93.5694 107.406 99.6004 115.389 108.286 116.751L104.443 117.807C96.692 114.911 91.5694 106.763 91.5694 95.7672C91.5694 90.4355 92.7479 85.7234 95.0105 81.8505C95.8335 80.6738 96.5709 79.692 97.264 78.8614L97.5219 78.5569L99.5383 76.5553L99.6197 76.4829C102.825 73.9289 106.754 72.5762 110.984 72.5762ZM77.5097 75.3714H70.6097L66.9748 82.397L55.4387 82.3974C55.0298 82.3974 54.6982 82.729 54.6982 83.1379C54.6982 83.5469 55.0298 83.8784 55.4387 83.8784L65.4868 83.8792L65.6701 83.8874C67.0879 84.0025 68.1869 85.1888 68.1869 86.6189C68.1869 88.1324 66.96 89.3593 65.4465 89.3593H59.3548C58.9458 89.3593 58.6143 89.6909 58.6143 90.0998C58.6143 90.3466 58.7362 90.5704 58.9289 90.706L58.9887 90.7424L61.0091 90.7436L61.1924 90.7519C62.6102 90.867 63.7092 92.0533 63.7084 93.5237L63.7002 93.707C63.5851 95.1247 62.3988 96.2238 60.9683 96.2238L59.8217 96.2224L56.0057 103.602V108.356L74.9713 108.357L74.9707 116.192H81.2167L81.2167 108.357L87.1717 108.356V102.643L81.2167 102.644L81.2167 91.2264H74.9707L74.9713 102.644H63.2176L77.5097 75.3714ZM156.605 75.3714H149.706L143.595 87.1829L137.676 87.1837C137.267 87.1837 136.936 87.5153 136.936 87.9242C136.936 88.3332 137.267 88.6647 137.676 88.6647L142.828 88.6637L135.102 103.6V108.356L154.067 108.357L154.067 116.192H160.312L160.312 108.357L166.267 108.356V102.643L160.312 102.644L160.312 91.2264H154.067L154.067 102.644H142.313L150.416 87.1824L150.254 87.1829L150.071 87.1747C148.653 87.0596 147.554 85.8733 147.554 84.4433C147.554 82.9297 148.781 81.7028 150.295 81.7028H162.478C162.887 81.7028 163.218 81.3713 163.218 80.9623C163.218 80.5534 162.887 80.2218 162.478 80.2218L154.064 80.2208L156.605 75.3714ZM110.984 80.5037C117.468 80.5037 121.818 86.3862 121.818 95.7672C121.818 105.148 117.468 111.031 110.984 111.031C104.521 111.031 100.151 105.134 100.151 95.7672C100.151 86.4002 104.521 80.5037 110.984 80.5037ZM110.984 82.5037C105.777 82.5037 102.151 87.3971 102.151 95.7672C102.151 104.137 105.777 109.031 110.984 109.031C116.21 109.031 119.818 104.152 119.818 95.7672C119.818 87.3825 116.21 82.5037 110.984 82.5037Z" fill="#979797"/>
<path d="M119.643 33.6878L121.191 34.9534C118.343 38.4394 117.35 41.8566 118.465 42.9713L118.488 42.9924L118.551 43.0504C119.998 44.2514 124.367 42.5271 128.2 38.6942C132.032 34.8614 133.757 30.4923 132.556 29.0457L132.477 28.9591C131.401 27.8827 128.17 28.7727 124.8 31.4144L124.54 31.6211L123.282 30.0663C127.455 26.69 131.795 25.4482 133.891 27.5448C136.831 30.4844 137.121 39.5331 133.08 43.5741C129.039 47.615 119.99 47.325 117.05 44.3856C114.982 42.3176 116.162 38.0658 119.431 33.9503L119.643 33.6878ZM123.328 44.5736C126.306 44.7585 129.767 44.0586 131.665 42.1599C133.564 40.2611 134.264 36.8005 134.079 33.8229L134.001 33.9991C133.105 35.9933 131.588 38.134 129.614 40.1085C127.581 42.1413 125.372 43.6889 123.328 44.5736ZM119.075 29.5503L127.573 34.849L126.515 36.5461L125.292 35.783L126.053 37.0117L124.353 38.0653L119.075 29.5503ZM104.562 25.0323L106.562 25.063C106.488 29.8722 110.382 33.7243 115.15 33.6382L115.432 33.6286L115.532 35.626C109.587 35.9253 104.642 31.2574 104.562 25.3446L104.562 25.0323ZM114.977 14.247C120.923 13.9477 125.867 18.6156 125.948 24.5284L125.947 24.8408L123.947 24.81C124.022 20.0008 120.127 16.1487 115.359 16.2348L115.078 16.2445L114.977 14.247ZM108.952 25.2659L110.95 25.3624C110.844 27.5472 112.607 29.3231 114.762 29.2653L114.979 29.2533L115.145 31.2464C111.768 31.5279 108.92 28.8594 108.946 25.5065L108.952 25.2659ZM115.364 18.6265C118.741 18.3451 121.589 21.0135 121.564 24.3664L121.557 24.6071L119.559 24.5106C119.665 22.3257 117.903 20.5498 115.747 20.6077L115.53 20.6196L115.364 18.6265ZM113.386 23.1316C114.383 22.0995 116.027 22.0708 117.059 23.0675C118.092 24.0642 118.12 25.7088 117.124 26.7409C116.127 27.773 114.482 27.8017 113.45 26.805C112.418 25.8084 112.389 24.1637 113.386 23.1316ZM114.825 24.5209C114.595 24.7584 114.602 25.137 114.839 25.3664C115.077 25.5957 115.456 25.5891 115.685 25.3516C115.914 25.1141 115.908 24.7355 115.67 24.5062C115.433 24.2768 115.054 24.2834 114.825 24.5209Z" fill="#979797"/>
<path d="M44.3609 108.512C51.2684 108.512 57.0784 113.53 58.2785 120.229C58.4385 120.221 58.5995 120.217 58.761 120.217C63.3591 120.217 67.2472 123.29 68.564 127.526C77.617 128.223 85.1497 134.666 87.3468 143.329C88.3891 142.394 89.5686 141.613 90.8497 141.02L85.7443 121.53L126.311 110.773L130.907 126.884C130.932 126.879 130.957 126.875 130.982 126.872L131.099 126.866H132.771C133.323 126.866 133.771 127.313 133.771 127.866C133.771 128.379 133.385 128.801 132.888 128.859L132.771 128.866L131.472 128.866L134.7 140.184V140.809L133.625 140.524H132.717L126.712 119.475L89.8743 129.407L92.7309 140.308C94.0033 139.929 95.3488 139.726 96.7388 139.726C103.649 139.726 109.451 144.744 110.654 151.432C113.022 151.476 115.123 152.621 116.483 154.382C119.314 151.459 123.22 149.759 127.404 149.759C127.766 149.759 128.125 149.771 128.482 149.796C130.085 149.909 128.728 150.491 128.482 151.033C128.293 151.45 129.557 151.886 128.45 151.799C128.104 151.772 127.755 151.759 127.404 151.759C123.571 151.759 120.01 153.4 117.525 156.197C117.839 156.969 118.031 157.803 118.08 158.677L120.994 158.677C121.546 158.677 121.994 159.124 121.994 159.677C121.994 160.19 121.608 160.612 121.111 160.67L120.994 160.677H116.327C115.774 160.677 115.327 160.229 115.327 159.677C115.327 159.21 115.646 158.818 116.078 158.708C115.872 155.756 113.456 153.431 110.513 153.431C109.651 153.431 108.819 153.629 108.064 154.006C107.569 154.253 106.969 154.052 106.722 153.558C106.476 153.064 106.676 152.463 107.171 152.217C107.647 151.979 108.147 151.793 108.662 151.662C107.58 145.975 102.624 141.726 96.7388 141.726C90.8344 141.726 85.858 146.005 84.8011 151.734C85.7502 151.971 86.6584 152.345 87.5032 152.846C87.9783 153.127 88.1351 153.741 87.8535 154.216C87.5718 154.691 86.9584 154.848 86.4833 154.566C85.2343 153.826 83.8162 153.431 82.3397 153.431C78.1008 153.431 74.5992 156.693 74.1155 160.906L74.616 160.906C75.1682 160.906 75.616 161.354 75.616 161.906C75.616 162.419 75.2299 162.842 74.7326 162.9L74.616 162.906H66.9177C66.3654 162.906 65.9177 162.459 65.9177 161.906C65.9177 161.393 66.3037 160.971 66.8011 160.913L66.9177 160.906L72.1048 160.906C72.5989 155.593 76.9885 151.431 82.3397 151.431C82.5009 151.431 82.6615 151.434 82.8215 151.442C83.2471 149.066 84.2536 146.9 85.6837 145.095C84.1796 136.81 77.3538 130.472 68.9847 129.573C69.0225 129.941 69.0422 130.314 69.0422 130.693C69.0422 131.245 68.5945 131.693 68.0422 131.693C67.4899 131.693 67.0422 131.245 67.0422 130.693C67.0422 126.007 63.3299 122.217 58.761 122.217C57.2845 122.217 55.8664 122.612 54.6174 123.352C54.1423 123.634 53.5289 123.477 53.2472 123.002C52.9656 122.527 53.1224 121.914 53.5975 121.632C54.4421 121.131 55.35 120.757 56.2977 120.52C55.2416 114.791 50.2652 110.512 44.3609 110.512C38.4758 110.512 33.5207 114.761 32.4367 120.449C32.9533 120.579 33.4533 120.765 33.9305 121.003C34.4247 121.25 34.6254 121.85 34.3788 122.344C34.1322 122.838 33.5317 123.039 33.0375 122.793C32.2818 122.415 31.4499 122.217 30.5883 122.217C27.7495 122.217 25.4008 124.38 25.0528 127.184L25.897 127.184C26.4493 127.184 26.897 127.632 26.897 128.184C26.897 128.697 26.5109 129.12 26.0136 129.178L25.897 129.184H18.1987C17.6464 129.184 17.1987 128.737 17.1987 128.184C17.1987 127.671 17.5847 127.249 18.0821 127.191L18.1987 127.184L23.0413 127.185C23.3952 123.326 26.5608 120.291 30.4458 120.218C31.6484 113.531 37.4508 108.512 44.3609 108.512ZM63.7193 160.906C64.2716 160.906 64.7193 161.354 64.7193 161.906C64.7193 162.419 64.3333 162.842 63.836 162.9L63.7193 162.906H61.0748C60.5225 162.906 60.0748 162.459 60.0748 161.906C60.0748 161.393 60.4609 160.971 60.9582 160.913L61.0748 160.906H63.7193ZM57.9623 160.906C58.5146 160.906 58.9623 161.354 58.9623 161.906C58.9623 162.419 58.5763 162.842 58.0789 162.9L57.9623 162.906H56.0433C55.491 162.906 55.0433 162.459 55.0433 161.906C55.0433 161.393 55.4293 160.971 55.9267 160.913L56.0433 160.906H57.9623ZM185.086 117.116C189.986 117.116 194.628 118.803 198.345 121.829L205.953 121.831C206.505 121.831 206.953 122.278 206.953 122.831C206.953 123.344 206.567 123.766 206.069 123.824L205.953 123.831H198.255C198.074 123.831 197.905 123.783 197.758 123.699L197.631 123.844C194.181 120.814 189.766 119.116 185.086 119.116C174.561 119.116 166.028 127.679 166.028 138.244L166.034 138.743C166.522 138.656 167.024 138.611 167.536 138.611C171.907 138.611 175.51 141.9 176.003 146.138L181.645 146.138C182.198 146.138 182.645 146.586 182.645 147.138C182.645 147.651 182.259 148.074 181.762 148.131L181.645 148.138H173.947C173.395 148.138 172.947 147.69 172.947 147.138C172.947 146.625 173.333 146.203 173.83 146.145L173.947 146.138H173.985C173.505 143.008 170.801 140.611 167.536 140.611C164.011 140.611 161.139 143.406 161.016 146.901L161.011 147.135H159.011C159.011 145.871 159.287 144.67 159.781 143.59C157.471 142.374 154.888 141.726 152.208 141.726C151.745 141.726 151.285 141.745 150.829 141.783C149.918 141.859 149.456 141.605 149.444 141.021C148.581 140.427 148.581 140.064 149.444 139.933C150.352 139.795 151.275 139.726 152.208 139.726C155.259 139.726 158.201 140.475 160.825 141.88C161.675 140.795 162.784 139.921 164.058 139.35C164.037 138.984 164.028 138.615 164.028 138.244C164.028 126.576 173.455 117.116 185.086 117.116ZM186.763 146.138C187.315 146.138 187.763 146.586 187.763 147.138C187.763 147.651 187.377 148.074 186.879 148.131L186.763 148.138H185.461C184.909 148.138 184.461 147.69 184.461 147.138C184.461 146.625 184.847 146.203 185.345 146.145L185.461 146.138H186.763ZM15.0226 127.184C15.5749 127.184 16.0226 127.632 16.0226 128.184C16.0226 128.697 15.6365 129.12 15.1392 129.178L15.0226 129.184H12.7598C12.2075 129.184 11.7598 128.737 11.7598 128.184C11.7598 127.671 12.1458 127.249 12.6431 127.191L12.7598 127.184H15.0226ZM136.865 126.866C137.417 126.866 137.865 127.313 137.865 127.866C137.865 128.379 137.479 128.801 136.981 128.859L136.865 128.866H135.558C135.006 128.866 134.558 128.418 134.558 127.866C134.558 127.353 134.944 126.93 135.441 126.872L135.558 126.866H136.865ZM124.925 113.209L88.1842 122.951L89.3673 127.472L126.163 117.552L124.925 113.209ZM210.408 121.831C210.961 121.831 211.408 122.278 211.408 122.831C211.408 123.344 211.022 123.766 210.525 123.824L210.408 123.831H209.129C208.577 123.831 208.129 123.383 208.129 122.831C208.129 122.318 208.515 121.895 209.012 121.837L209.129 121.831H210.408Z" fill="#979797"/>
</g>
<defs>
<clipPath id="clip0">
<rect width="220" height="190" fill="white"/>
</clipPath>
</defs>
</svg>
