<svg width="688" height="240" viewBox="0 0 688 240" fill="none" xmlns="http://www.w3.org/2000/svg">
<rect width="688" height="240" fill="white"/>
<path fill-rule="evenodd" clip-rule="evenodd" d="M178.103 132.329C175.71 131.597 173.148 131.4 171.365 131.803C169.037 132.329 166.826 133.809 162.536 134.758C159.676 135.391 156.186 135.244 152.28 133.798V121.613C152.744 121.663 153.687 121.663 155.11 121.613V130.002C158.261 130.96 161.438 130.709 164.644 129.248C167.849 127.787 172.335 126.993 178.103 126.864V132.329Z" fill="#D8D8D8" fill-opacity="0.4"/>
<path fill-rule="evenodd" clip-rule="evenodd" d="M154.651 116.62C157.701 117.055 160.57 116.706 163.256 115.572C167.286 113.871 169.226 112.473 173.222 112.072C175.885 111.804 178.303 112.608 180.474 114.484V128.121C178.145 127.159 175.805 126.792 173.456 127.018C169.932 127.357 166.269 129.64 162.681 130.733C160.289 131.461 157.613 131.346 154.651 130.386V116.62Z" fill="white"/>
<path d="M153.28 121.613L153.28 133.088L153.536 133.174C156.546 134.146 159.397 134.347 161.941 133.86L162.32 133.781C163.464 133.528 164.505 133.227 165.562 132.857L166.096 132.665L167.713 132.025L168.733 131.632L169.72 131.266L170.069 131.142L170.375 131.038L170.628 130.959C170.666 130.948 170.7 130.938 170.732 130.929C170.871 130.892 171.008 130.858 171.145 130.827C172.702 130.476 174.735 130.534 176.773 130.957L177.103 131.028L177.103 129.248H179.103V133.68L177.811 133.285C175.579 132.602 173.188 132.416 171.585 132.778C171.476 132.803 171.364 132.83 171.251 132.861L171.038 132.924L170.76 133.017L170.056 133.271L168.203 133.981L166.786 134.542C165.461 135.032 164.18 135.418 162.753 135.734C159.609 136.43 156.078 136.183 152.394 134.901L151.933 134.735L151.28 134.493L151.28 130.728L144.322 130.729C143.77 130.729 143.322 130.281 143.322 129.729C143.322 129.216 143.708 128.793 144.205 128.735L144.322 128.729L151.28 128.728V126.301L147.992 126.302C147.44 126.302 146.992 125.854 146.992 125.302C146.992 124.789 147.378 124.366 147.875 124.309L147.992 124.302L151.28 124.301L151.28 121.613H153.28ZM180.474 114.484V128.121C178.145 127.159 175.805 126.792 173.456 127.018C171.586 127.198 169.677 127.925 167.761 128.731L166.286 129.359C165.081 129.872 163.877 130.369 162.681 130.733C160.289 131.461 157.612 131.346 154.651 130.386V116.62C157.701 117.055 160.569 116.706 163.256 115.572C163.781 115.35 164.271 115.134 164.735 114.924L165.63 114.513L166.877 113.936C168.884 113.019 170.616 112.333 173.221 112.072C175.885 111.804 178.302 112.608 180.474 114.484ZM140.595 128.729C141.148 128.729 141.595 129.176 141.595 129.729C141.595 130.242 141.209 130.664 140.712 130.722L140.595 130.729H139.157C138.605 130.729 138.157 130.281 138.157 129.729C138.157 129.216 138.543 128.793 139.041 128.735L139.157 128.729H140.595ZM173.421 114.062C171.809 114.224 170.539 114.559 169.047 115.17L168.515 115.401L164.951 117.012L164.033 117.415C161.728 118.388 159.301 118.848 156.771 118.797L156.651 118.792V128.867L156.861 128.916C158.671 129.306 160.306 129.298 161.784 128.909L162.098 128.82L162.503 128.691C162.571 128.669 162.64 128.646 162.709 128.623L163.132 128.473L163.581 128.306L164.065 128.116L164.596 127.9L165.501 127.52L166.535 127.078L167.295 126.759C167.417 126.708 167.537 126.659 167.655 126.611L168.338 126.338C170.319 125.561 171.715 125.176 173.264 125.027C174.825 124.877 176.381 124.956 177.927 125.263L178.474 125.38V115.451L178.404 115.4C176.862 114.313 175.226 113.88 173.421 114.062ZM167.194 117.662C169.376 117.662 171.145 119.431 171.145 121.613C171.145 123.795 169.376 125.564 167.194 125.564C165.012 125.564 163.242 123.795 163.242 121.613C163.242 119.431 165.012 117.662 167.194 117.662ZM167.194 119.662C166.116 119.662 165.242 120.535 165.242 121.613C165.242 122.691 166.116 123.564 167.194 123.564C168.271 123.564 169.145 122.691 169.145 121.613C169.145 120.535 168.271 119.662 167.194 119.662Z" fill="#979797"/>
<path fill-rule="evenodd" clip-rule="evenodd" d="M632.403 150.598C629.353 151.034 626.485 150.685 623.799 149.551C619.769 147.85 617.828 146.451 613.833 146.05C611.17 145.783 608.752 146.587 606.58 148.463V162.1C608.91 161.138 611.249 160.77 613.599 160.996C617.123 161.335 620.785 163.619 624.374 164.711C626.766 165.44 629.442 165.324 632.403 164.364V150.598Z" fill="white"/>
<path d="M633.774 155.591L633.775 167.067L633.519 167.153C630.508 168.124 627.658 168.326 625.114 167.838L624.734 167.76C623.591 167.507 622.549 167.206 621.492 166.836L620.958 166.643L619.342 166.003L618.322 165.611L617.335 165.244L616.986 165.121L616.68 165.017L616.426 164.937C616.389 164.926 616.355 164.916 616.323 164.908C616.184 164.87 616.046 164.836 615.91 164.806C614.353 164.454 612.32 164.512 610.282 164.935L609.952 165.007L609.951 163.226H607.951V167.658L609.244 167.263C611.476 166.58 613.867 166.395 615.469 166.757C615.579 166.781 615.69 166.809 615.804 166.839L616.016 166.903L616.294 166.996L616.999 167.25L618.852 167.96L620.269 168.521C621.593 169.01 622.874 169.397 624.302 169.713C627.445 170.408 630.976 170.162 634.66 168.879L635.122 168.714L635.774 168.472L635.774 164.707L642.733 164.707C643.285 164.707 643.733 164.26 643.733 163.707C643.733 163.194 643.347 162.772 642.849 162.714L642.733 162.707L635.774 162.707V160.28L639.063 160.28C639.615 160.28 640.063 159.833 640.063 159.28C640.063 158.768 639.677 158.345 639.179 158.287L639.063 158.28L635.774 158.28L635.774 155.591H633.774ZM606.581 148.463V162.1C608.91 161.138 611.25 160.77 613.599 160.996C615.469 161.176 617.378 161.904 619.294 162.71L620.769 163.338C621.973 163.851 623.178 164.347 624.374 164.711C626.766 165.44 629.442 165.324 632.404 164.364V150.598C629.354 151.034 626.485 150.685 623.799 149.551C623.273 149.329 622.783 149.112 622.32 148.902L621.425 148.492L620.178 147.915C618.171 146.998 616.439 146.312 613.833 146.05C611.17 145.783 608.752 146.587 606.581 148.463ZM646.459 162.707C645.907 162.707 645.459 163.155 645.459 163.707C645.459 164.22 645.845 164.643 646.343 164.701L646.459 164.707H647.897C648.45 164.707 648.897 164.26 648.897 163.707C648.897 163.194 648.511 162.772 648.014 162.714L647.897 162.707H646.459ZM613.634 148.04C615.246 148.202 616.516 148.537 618.008 149.149L618.54 149.38L622.104 150.991L623.021 151.393C625.327 152.367 627.753 152.827 630.284 152.776L630.404 152.771V162.846L630.193 162.894C628.384 163.284 626.749 163.276 625.271 162.887L624.956 162.798L624.551 162.67C624.483 162.648 624.415 162.625 624.346 162.601L623.922 162.452L623.474 162.284L622.99 162.094L622.459 161.879L621.554 161.499L620.519 161.057L619.76 160.738C619.638 160.687 619.518 160.638 619.4 160.59L618.717 160.316C616.736 159.54 615.34 159.155 613.791 159.005C612.23 158.855 610.674 158.935 609.127 159.241L608.581 159.359V149.43L608.651 149.378C610.193 148.291 611.829 147.859 613.634 148.04ZM619.861 151.64C617.679 151.64 615.91 153.409 615.91 155.591C615.91 157.774 617.679 159.543 619.861 159.543C622.043 159.543 623.812 157.774 623.812 155.591C623.812 153.409 622.043 151.64 619.861 151.64ZM619.861 153.64C620.939 153.64 621.812 154.514 621.812 155.591C621.812 156.669 620.939 157.543 619.861 157.543C618.783 157.543 617.91 156.669 617.91 155.591C617.91 154.514 618.783 153.64 619.861 153.64Z" fill="#D8D8D8"/>
<path d="M57.1033 74.2267V77.3071C54.7098 76.5751 52.1478 76.3789 50.365 76.7814C48.0368 77.3071 45.8264 78.7873 41.5364 79.7367C38.6764 80.3696 35.1858 80.2225 31.2803 78.7761V66.5918" stroke="#D8D8D8" stroke-width="2"/>
<path fill-rule="evenodd" clip-rule="evenodd" d="M33.6514 61.5984C36.7014 62.034 39.5696 61.6848 42.256 60.5508C46.2856 58.8499 48.2263 57.4515 52.2215 57.0501C54.885 56.7825 57.3026 57.5868 59.4744 59.4628V73.0996C57.1449 72.1379 54.8054 71.7702 52.456 71.9963C48.9319 72.3355 45.2692 74.6188 41.6812 75.7114C39.2891 76.4398 36.6125 76.3242 33.6514 75.3645V61.5984Z" fill="white"/>
<path d="M23.3223 74.707H30.6633" stroke="#D8D8D8" stroke-width="2" stroke-linecap="round"/>
<path d="M26.9922 70.2793H30.6632" stroke="#D8D8D8" stroke-width="2" stroke-linecap="round"/>
<path d="M18.1572 74.707H19.5952" stroke="#D8D8D8" stroke-width="2" stroke-linecap="round"/>
<path d="M46.1942 69.5426C47.824 69.5426 49.1452 68.2214 49.1452 66.5916C49.1452 64.9618 47.824 63.6406 46.1942 63.6406C44.5644 63.6406 43.2432 64.9618 43.2432 66.5916C43.2432 68.2214 44.5644 69.5426 46.1942 69.5426Z" stroke="#D8D8D8" stroke-width="2"/>
<path fill-rule="evenodd" clip-rule="evenodd" d="M52.3215 58.0444C54.5704 57.8185 56.6191 58.455 58.4744 59.9316V71.6702C56.4432 71.0253 54.4049 70.8034 52.3602 71.0002C50.2514 71.2032 48.0906 72.0558 45.9262 72.9769L44.8946 73.4172C43.7233 73.9157 42.5528 74.4 41.3899 74.7541C39.3626 75.3714 37.1161 75.3159 34.6514 74.6221V62.7167C37.4663 62.9499 40.1305 62.5328 42.6449 61.4715C43.684 61.0328 44.5859 60.6142 45.4199 60.227C47.7228 59.1577 49.4748 58.3304 52.3215 58.0444Z" stroke="#D8D8D8" stroke-width="2"/>
<path fill-rule="evenodd" clip-rule="evenodd" d="M338.054 28.9805C356.134 28.9805 373.032 34.0392 387.411 42.8184L401.149 42.8206C402.948 42.8206 404.406 44.2786 404.406 46.0771C404.406 47.8756 402.948 49.3336 401.149 49.3336L396.766 49.3319C415.452 64.0791 428.456 85.7065 431.956 110.392L447.554 110.393C449.353 110.393 450.811 111.851 450.811 113.65C450.811 115.448 449.353 116.906 447.554 116.906L432.651 116.905C432.816 119.191 432.9 121.499 432.9 123.826C432.9 129.785 432.35 135.616 431.299 141.27C424.001 143.28 418.583 146.56 415.047 151.11C411.51 155.66 409.06 162.504 407.696 171.642L402.583 176.43C396.06 172.765 389.724 172.215 383.576 174.78C377.428 177.345 372.945 182.154 370.127 189.207C365.715 186.471 361.545 185.346 357.615 185.83C353.685 186.314 349.717 188.442 345.712 192.214C344.642 190.674 343.308 189.492 341.711 188.667C340.114 187.843 338.699 187.607 337.465 187.958C335.303 180.248 331.57 175.601 326.266 174.017C320.963 172.434 314.988 174.1 308.342 179.017C307.223 172.927 304.569 168.028 300.382 164.319C296.194 160.61 290.82 158.399 284.26 157.686C283.477 154.836 281.95 152.63 279.678 151.069C277.406 149.508 274.346 148.562 270.497 148.231C267.956 140.791 264.59 136.152 260.398 134.315C256.206 132.479 250.812 133.611 244.218 137.712C243.842 135.15 243.569 132.556 243.402 129.932L233.439 129.932C231.641 129.932 230.183 128.474 230.183 126.676C230.183 124.877 231.641 123.419 233.439 123.419L243.209 123.418C243.262 111.047 245.682 99.2348 250.041 88.4115L239.952 88.4117C238.154 88.4117 236.696 86.9537 236.696 85.1552C236.696 83.3567 238.154 81.8987 239.952 81.8987L252.956 81.8978C268.433 50.5459 300.725 28.9805 338.054 28.9805ZM461.394 110.056C463.193 110.056 464.651 111.514 464.651 113.313C464.651 115.111 463.193 116.569 461.394 116.569H458.138C456.339 116.569 454.881 115.111 454.881 113.313C454.881 111.514 456.339 110.056 458.138 110.056H461.394ZM226.926 81.5903C228.725 81.5903 230.183 83.0482 230.183 84.8468C230.183 86.6453 228.725 88.1033 226.926 88.1033H221.227C219.429 88.1033 217.971 86.6453 217.971 84.8468C217.971 83.0482 219.429 81.5903 221.227 81.5903H226.926Z" fill="#D8D8D8" fill-opacity="0.4"/>
<g opacity="0.1">
<path opacity="0.1" d="M367.086 66.498H370.222" stroke="#979797" stroke-width="2" stroke-linecap="round"/>
<path opacity="0.1" d="M368.681 64.9336L368.627 68.0616" stroke="#979797" stroke-width="2" stroke-linecap="round"/>
</g>
<path fill-rule="evenodd" clip-rule="evenodd" d="M311.363 175.915L305.085 153.607L309.268 152.498L314.827 174.29L311.363 175.915Z" fill="#D8D8D8"/>
<g opacity="0.1">
<path opacity="0.1" d="M236.86 194.621H239.996" stroke="#979797" stroke-width="2" stroke-linecap="round"/>
<path opacity="0.1" d="M238.455 193.057L238.401 196.185" stroke="#979797" stroke-width="2" stroke-linecap="round"/>
</g>
<path d="M319.067 57.7667C320.047 57.7667 320.841 56.9725 320.841 55.9927C320.841 55.013 320.047 54.2188 319.067 54.2188C318.087 54.2188 317.293 55.013 317.293 55.9927C317.293 56.9725 318.087 57.7667 319.067 57.7667Z" fill="#979797"/>
<path d="M547.774 220.548C548.754 220.548 549.548 219.754 549.548 218.774C549.548 217.794 548.754 217 547.774 217C546.794 217 546 217.794 546 218.774C546 219.754 546.794 220.548 547.774 220.548Z" fill="#979797"/>
<path d="M126.774 220.548C127.754 220.548 128.548 219.754 128.548 218.774C128.548 217.794 127.754 217 126.774 217C125.794 217 125 217.794 125 218.774C125 219.754 125.794 220.548 126.774 220.548Z" fill="#979797"/>
<path d="M86.774 25.548C87.7538 25.548 88.548 24.7538 88.548 23.774C88.548 22.7942 87.7538 22 86.774 22C85.7942 22 85 22.7942 85 23.774C85 24.7538 85.7942 25.548 86.774 25.548Z" fill="#D8D8D8"/>
<path d="M170.082 83.005C171.061 83.005 171.856 82.2108 171.856 81.231C171.856 80.2513 171.061 79.457 170.082 79.457C169.102 79.457 168.308 80.2513 168.308 81.231C168.308 82.2108 169.102 83.005 170.082 83.005Z" fill="#D8D8D8"/>
<path d="M40.774 211.548C41.7538 211.548 42.548 210.754 42.548 209.774C42.548 208.794 41.7538 208 40.774 208C39.7942 208 39 208.794 39 209.774C39 210.754 39.7942 211.548 40.774 211.548Z" fill="#D8D8D8"/>
<path d="M446.885 43.1125C447.865 43.1125 448.659 42.3182 448.659 41.3385C448.659 40.3587 447.865 39.5645 446.885 39.5645C445.906 39.5645 445.111 40.3587 445.111 41.3385C445.111 42.3182 445.906 43.1125 446.885 43.1125Z" fill="#D8D8D8"/>
<path d="M381.802 89.3527C382.782 89.3527 383.576 88.5584 383.576 87.5787C383.576 86.5989 382.782 85.8047 381.802 85.8047C380.823 85.8047 380.028 86.5989 380.028 87.5787C380.028 88.5584 380.823 89.3527 381.802 89.3527Z" fill="white"/>
<path d="M295.971 91.0529L277.781 125.763H289.364V111.232H299.858V125.763H307.437V135.58H299.858V145.552H289.364V135.58H265.227V127.944L270.583 117.591L272.815 117.592C273.985 117.592 274.943 116.684 275.025 115.535L275.03 115.376C275.03 114.153 274.038 113.161 272.815 113.161L270.03 113.162C269.166 112.86 268.546 112.038 268.546 111.07C268.546 109.847 269.537 108.855 270.761 108.855H278.514C279.737 108.855 280.729 107.863 280.729 106.64C280.729 105.416 279.737 104.425 278.514 104.425H265.777C264.553 104.425 263.562 103.433 263.562 102.21C263.562 100.986 264.553 99.9944 265.777 99.9944L279.686 99.9939L284.311 91.0529H295.971ZM336.471 87.5977C349.453 87.5977 359.947 98.1937 359.947 115.841C359.947 133.488 349.453 144.084 336.471 144.084C323.45 144.084 313.034 133.488 313.034 115.841C313.034 109.078 314.564 103.35 317.184 98.8581C318.34 97.2045 319.357 95.8651 320.234 94.8401L322.8 92.2925C326.639 89.2343 331.354 87.5977 336.471 87.5977ZM336.471 97.6873C329.514 97.6873 323.956 103.92 323.956 115.841C323.956 127.761 329.514 133.994 336.471 133.994C343.467 133.994 348.986 127.761 348.986 115.841C348.986 103.92 343.467 97.6873 336.471 97.6873ZM385.688 100.842C384.465 100.842 383.473 101.833 383.473 103.057C383.473 104.28 384.465 105.272 385.688 105.272L387.946 105.272L377.634 124.949H389.216V110.418H399.711V124.949H407.29V134.766H399.711V144.738H389.216V134.766H365.08V127.13L374.095 109.702L369.628 109.702C368.405 109.702 367.413 108.71 367.413 107.487C367.413 106.264 368.405 105.272 369.628 105.272L376.386 105.272L379.232 99.7723L384.164 90.2388H395.824L392.589 96.4108L401.194 96.4113C402.418 96.4113 403.409 97.4031 403.409 98.6264C403.409 99.8498 402.418 100.842 401.194 100.842H385.688Z" fill="#D8D8D8"/>
<path d="M330.609 51.5432C332.568 51.5432 334.157 49.9552 334.157 47.9962C334.157 46.0373 332.568 44.4492 330.609 44.4492C328.651 44.4492 327.062 46.0373 327.062 47.9962C327.062 49.9552 328.651 51.5432 330.609 51.5432Z" fill="#D8D8D8"/>
<path d="M284.205 23.0491C286.164 23.0491 287.752 21.461 287.752 19.5021C287.752 17.5431 286.164 15.9551 284.205 15.9551C282.246 15.9551 280.658 17.5431 280.658 19.5021C280.658 21.461 282.246 23.0491 284.205 23.0491Z" fill="#D8D8D8"/>
<path d="M303.768 172.353C304.356 172.353 304.832 171.876 304.832 171.289C304.832 170.701 304.356 170.225 303.768 170.225C303.18 170.225 302.704 170.701 302.704 171.289C302.704 171.876 303.18 172.353 303.768 172.353Z" fill="white"/>
<path d="M640.483 213.966C641.854 213.966 642.966 212.854 642.966 211.483C642.966 210.112 641.854 209 640.483 209C639.112 209 638 210.112 638 211.483C638 212.854 639.112 213.966 640.483 213.966Z" fill="#D8D8D8"/>
<path d="M464.243 186.107C466.267 186.107 467.907 184.467 467.907 182.443C467.907 180.42 466.267 178.779 464.243 178.779C462.22 178.779 460.579 180.42 460.579 182.443C460.579 184.467 462.22 186.107 464.243 186.107Z" fill="#D8D8D8"/>
<path d="M564.664 36.328C566.688 36.328 568.328 34.6876 568.328 32.664C568.328 30.6404 566.688 29 564.664 29C562.64 29 561 30.6404 561 32.664C561 34.6876 562.64 36.328 564.664 36.328Z" fill="#D8D8D8"/>
<path d="M118.664 86.328C120.688 86.328 122.328 84.6876 122.328 82.664C122.328 80.6404 120.688 79 118.664 79C116.64 79 115 80.6404 115 82.664C115 84.6876 116.64 86.328 118.664 86.328Z" fill="#D8D8D8"/>
<path d="M374.689 142.145V148.658" stroke="white" stroke-width="2" stroke-linecap="round"/>
<path d="M377.946 145.402H371.433" stroke="white" stroke-width="2" stroke-linecap="round"/>
<path d="M209.16 103.066V106.613" stroke="#D8D8D8" stroke-width="2" stroke-linecap="round"/>
<path d="M210.933 104.84H207.386" stroke="#D8D8D8" stroke-width="2" stroke-linecap="round"/>
<path d="M164.605 185.295V188.842" stroke="#D8D8D8" stroke-width="2" stroke-linecap="round"/>
<path d="M166.379 187.068H162.832" stroke="#D8D8D8" stroke-width="2" stroke-linecap="round"/>
<path d="M594.25 194V198" stroke="#D8D8D8" stroke-width="2" stroke-linecap="round"/>
<path d="M596.25 196H592.25" stroke="#D8D8D8" stroke-width="2" stroke-linecap="round"/>
<path d="M255.995 221V224.547" stroke="#D8D8D8" stroke-width="2" stroke-linecap="round"/>
<path d="M257.769 222.773H254.222" stroke="#D8D8D8" stroke-width="2" stroke-linecap="round"/>
<path d="M495.182 110.395V118.536" stroke="#D8D8D8" stroke-width="2" stroke-linecap="round"/>
<path d="M499.251 114.465H491.11" stroke="#D8D8D8" stroke-width="2" stroke-linecap="round"/>
<path d="M266.878 153.908V159.583" stroke="white" stroke-width="2" stroke-linecap="round"/>
<path d="M269.716 156.746H264.041" stroke="white" stroke-width="2" stroke-linecap="round"/>
<path d="M169.976 39.3789C173.692 39.3789 176.838 41.9808 177.657 45.5154L177.523 45.5132C180.537 45.5132 183.014 47.8243 183.348 50.7921L186.352 50.7928C186.904 50.7928 187.352 51.2405 187.352 51.7928C187.352 52.3056 186.966 52.7283 186.469 52.786L186.352 52.7928H182.318C181.765 52.7928 181.318 52.3451 181.318 51.7928C181.318 51.6655 181.341 51.5438 181.385 51.4319L181.387 51.479C181.387 49.2841 179.652 47.5132 177.523 47.5132C176.835 47.5132 176.176 47.6969 175.594 48.0418C175.119 48.3234 174.506 48.1666 174.224 47.6915C173.942 47.2164 174.099 46.603 174.574 46.3213C174.923 46.1148 175.29 45.9459 175.671 45.8169C175.005 43.2493 172.693 41.3789 169.976 41.3789C167.268 41.3789 164.964 43.2372 164.288 45.788C164.437 45.842 164.581 45.9047 164.723 45.9752C165.217 46.2218 165.417 46.8223 165.171 47.3165C164.942 47.7754 164.408 47.9812 163.937 47.8108L163.83 47.7648C163.499 47.5999 163.136 47.5132 162.759 47.5132C161.697 47.5132 160.79 48.2057 160.452 49.1769C160.932 49.2494 161.3 49.664 161.3 50.1645C161.3 50.6774 160.914 51.1 160.417 51.1578L160.3 51.1645H156.266C155.713 51.1645 155.266 50.7168 155.266 50.1645C155.266 49.6517 155.652 49.229 156.149 49.1712L156.266 49.1645L158.39 49.164C158.755 47.238 160.332 45.745 162.291 45.5378C163.101 41.9952 166.249 39.3789 169.976 39.3789ZM195.307 50.7928C195.86 50.7928 196.307 51.2405 196.307 51.7928C196.307 52.3056 195.921 52.7283 195.424 52.786L195.307 52.7928H191.273C190.721 52.7928 190.273 52.3451 190.273 51.7928C190.273 51.2799 190.659 50.8573 191.156 50.7995L191.273 50.7928H195.307Z" fill="#D8D8D8"/>
<path d="M442.371 11.6992C446.002 11.6992 449.076 14.2368 449.885 17.687L449.735 17.6848C452.682 17.6848 455.104 19.9388 455.441 22.8368L458.35 22.8364C458.903 22.8364 459.35 23.2841 459.35 23.8364C459.35 24.3492 458.964 24.7719 458.467 24.8297L458.35 24.8364H454.414C453.861 24.8364 453.414 24.3887 453.414 23.8364C453.414 23.7107 453.437 23.5904 453.479 23.4796L453.481 23.5302C453.481 21.4019 451.799 19.6848 449.735 19.6848C449.068 19.6848 448.429 19.8629 447.865 20.1972C447.39 20.4788 446.777 20.322 446.495 19.8469C446.214 19.3718 446.37 18.7584 446.846 18.4767C447.18 18.2784 447.533 18.1155 447.898 17.9901C447.245 15.5062 445.003 13.6992 442.371 13.6992C439.747 13.6992 437.514 15.4947 436.851 17.9625C436.99 18.0137 437.124 18.0725 437.256 18.1381C437.75 18.3847 437.951 18.9853 437.704 19.4794C437.475 19.9383 436.941 20.1441 436.47 19.9738L436.363 19.9277C436.044 19.7685 435.693 19.6848 435.329 19.6848C434.314 19.6848 433.444 20.341 433.11 21.2651C433.577 21.3494 433.93 21.7573 433.93 22.2476C433.93 22.7604 433.544 23.1831 433.046 23.2409L432.93 23.2476H428.993C428.441 23.2476 427.993 22.7999 427.993 22.2476C427.993 21.7348 428.379 21.3121 428.877 21.2543L428.993 21.2476L431.046 21.248C431.41 19.373 432.945 17.9202 434.852 17.7108C435.651 14.252 438.729 11.6992 442.371 11.6992ZM465.016 22.8364C465.568 22.8364 466.016 23.2841 466.016 23.8364C466.016 24.3492 465.63 24.7719 465.133 24.8297L465.016 24.8364H461.08C460.527 24.8364 460.08 24.3887 460.08 23.8364C460.08 23.3235 460.466 22.9009 460.963 22.8431L461.08 22.8364H465.016Z" fill="#D8D8D8"/>
<path d="M263.968 122.146H268.695" stroke="#979797" stroke-width="2" stroke-linecap="round"/>
<path d="M403.7 139.242H408.427" stroke="#979797" stroke-width="2" stroke-linecap="round"/>
<path d="M411.842 139.242H413.47" stroke="#979797" stroke-width="2" stroke-linecap="round"/>
<path d="M258.677 122.146H260.554" stroke="#979797" stroke-width="2" stroke-linecap="round"/>
<path d="M433.224 143.285C439.431 143.285 445.309 145.433 450.003 149.285L459.782 149.286C460.334 149.286 460.782 149.734 460.782 150.286C460.782 150.799 460.396 151.221 459.899 151.279L459.782 151.286H449.984C449.824 151.286 449.672 151.248 449.537 151.181L449.371 151.371C444.93 147.471 439.247 145.285 433.224 145.285C419.678 145.285 408.696 156.306 408.696 169.903C408.696 170.225 408.702 170.546 408.714 170.866C409.418 170.719 410.144 170.642 410.888 170.642C416.394 170.642 420.916 174.848 421.419 180.222L428.845 180.223C429.398 180.223 429.845 180.67 429.845 181.223C429.845 181.735 429.459 182.158 428.962 182.216L428.845 182.223H419.048C418.495 182.223 418.048 181.775 418.048 181.223C418.048 180.71 418.434 180.287 418.931 180.229L419.048 180.223L419.408 180.223C418.914 175.955 415.288 172.642 410.888 172.642C406.237 172.642 402.451 176.344 402.315 180.962L402.311 181.219H400.311C400.311 179.559 400.694 177.988 401.376 176.589C398.339 174.941 394.925 174.061 391.38 174.061C388.954 174.061 386.586 174.472 384.35 175.267L383.874 175.443L383.158 173.575C385.76 172.578 388.535 172.061 391.38 172.061C395.297 172.061 399.071 173.043 402.421 174.881C403.53 173.401 405.019 172.221 406.743 171.485C406.711 170.96 406.696 170.433 406.696 169.903C406.696 155.203 418.572 143.285 433.224 143.285ZM435.358 180.223C435.911 180.223 436.358 180.67 436.358 181.223C436.358 181.735 435.972 182.158 435.475 182.216L435.358 182.223H433.702C433.149 182.223 432.702 181.775 432.702 181.223C432.702 180.71 433.088 180.287 433.585 180.229L433.702 180.223H435.358ZM465.453 149.286C466.005 149.286 466.453 149.734 466.453 150.286C466.453 150.799 466.067 151.221 465.569 151.279L465.453 151.286H463.824C463.272 151.286 462.824 150.838 462.824 150.286C462.824 149.773 463.211 149.35 463.708 149.293L463.824 149.286H465.453Z" fill="#979797"/>
<path fill-rule="evenodd" clip-rule="evenodd" d="M317.478 184.412L308.342 149.536L357.538 136.49L371.612 185.831C371.082 188.114 370.407 189.059 369.587 188.668C363.639 185.831 350.288 188.472 346.687 192.215C342.591 196.472 332.855 193.871 317.478 184.412Z" fill="white"/>
<path fill-rule="evenodd" clip-rule="evenodd" d="M310.752 157.687L359.534 144.535L357.538 136.49L308.342 149.536L310.752 157.687Z" fill="#D8D8D8"/>
<path d="M323.276 150.211L354.297 141.848" stroke="white" stroke-width="3" stroke-linecap="round"/>
<path d="M324.859 170.061L355.466 161.809" stroke="#D8D8D8" stroke-width="2"/>
<path d="M325.568 174.317L343.188 169.566" stroke="#D8D8D8" stroke-width="2"/>
<path d="M314.054 153.908C314.837 153.908 315.473 153.273 315.473 152.489C315.473 151.706 314.837 151.07 314.054 151.07C313.27 151.07 312.635 151.706 312.635 152.489C312.635 153.273 313.27 153.908 314.054 153.908Z" fill="#D8D8D8"/>
<path d="M318.31 153.197C319.093 153.197 319.729 152.562 319.729 151.778C319.729 150.995 319.093 150.359 318.31 150.359C317.526 150.359 316.891 150.995 316.891 151.778C316.891 152.562 317.526 153.197 318.31 153.197Z" fill="#D8D8D8"/>
<path d="M477.27 210.531V217.044" stroke="#D8D8D8" stroke-width="2" stroke-linecap="round"/>
<path d="M480.526 213.787H474.013" stroke="#D8D8D8" stroke-width="2" stroke-linecap="round"/>
<path fill-rule="evenodd" clip-rule="evenodd" d="M423.504 73.3442C428.368 69.6793 430.102 63.7774 427.377 60.162C424.653 56.5466 418.502 56.5868 413.638 60.2518C408.775 63.9167 407.041 69.8186 409.765 73.434C412.489 77.0494 418.641 77.0092 423.504 73.3442Z" fill="white"/>
<path d="M431.439 61.252H428.924" stroke="#979797" stroke-width="2" stroke-linecap="round"/>
<path d="M438.133 68.6113H431.666" stroke="#979797" stroke-width="2" stroke-linecap="round"/>
<path d="M438.556 65.1484H437.976" stroke="#979797" stroke-width="2" stroke-linecap="round"/>
<path d="M434.72 65.1484H431.463" stroke="#979797" stroke-width="2" stroke-linecap="round"/>
<path fill-rule="evenodd" clip-rule="evenodd" d="M429.616 63.4707C432.898 67.4079 432.119 71.5806 427.28 75.9889C424.629 78.4033 421.792 79.1553 419.979 79.3788C416.729 79.7792 414.127 78.7891 412.171 76.4085C417.152 76.7633 421.305 75.3904 424.629 72.2898C427.954 69.1892 429.616 66.2495 429.616 63.4707Z" fill="#D8D8D8" fill-opacity="0.4"/>
<path fill-rule="evenodd" clip-rule="evenodd" d="M421.579 70.7897C424.728 68.4168 425.882 64.6367 424.156 62.3465C422.43 60.0564 418.478 60.1235 415.329 62.4964C412.18 64.8693 411.027 68.6494 412.752 70.9396C414.478 73.2297 418.43 73.1626 421.579 70.7897Z" fill="#D8D8D8" fill-opacity="0.4"/>
<path d="M409.765 73.4333L412.57 76.7075C415.294 80.3228 421.446 80.2827 426.309 76.6177C431.173 72.9528 432.558 67.0861 429.834 63.4707L426.888 59.5879" stroke="#979797" stroke-width="1.5"/>
<path fill-rule="evenodd" clip-rule="evenodd" d="M423.504 73.3442C428.368 69.6793 430.102 63.7774 427.377 60.162C424.653 56.5466 418.502 56.5868 413.638 60.2518C408.775 63.9167 407.041 69.8186 409.765 73.434C412.489 77.0494 418.641 77.0092 423.504 73.3442Z" stroke="#979797" stroke-width="1.5"/>
<path fill-rule="evenodd" clip-rule="evenodd" d="M421.579 70.7897C424.728 68.4168 425.882 64.6367 424.156 62.3465C422.43 60.0564 418.478 60.1235 415.329 62.4964C412.18 64.8693 411.027 68.6494 412.752 70.9396C414.478 73.2297 418.43 73.1626 421.579 70.7897Z" stroke="#979797" stroke-width="1.5"/>
<path d="M416.637 76.1328L418.572 79.0678" stroke="#979797" stroke-width="1.5"/>
<path d="M420.708 75.3184L422.642 78.2544" stroke="#979797" stroke-width="1.5"/>
<path d="M423.964 73.6914L426.074 76.5434" stroke="#979797" stroke-width="1.5"/>
<path d="M426.577 70.5625L429.02 73.7365" stroke="#979797" stroke-width="1.5"/>
<path d="M428.206 67.3066L430.649 70.4806" stroke="#979797" stroke-width="1.5"/>
<path fill-rule="evenodd" clip-rule="evenodd" d="M260.621 54.1582C258.058 57.2339 258.666 60.4935 262.447 63.9372C264.517 65.8233 266.733 66.4108 268.15 66.5853C270.688 66.8981 272.721 66.1247 274.249 64.265C270.358 64.5421 267.114 63.4697 264.517 61.0475C261.92 58.6254 260.621 56.3289 260.621 54.1582Z" fill="#D8D8D8" fill-opacity="0.4"/>
<path d="M276.13 61.9398L273.938 64.4976C271.81 67.3218 267.005 67.2904 263.205 64.4275C259.406 61.5645 258.051 56.954 260.179 54.1298L262.447 51.3929" stroke="#979797" stroke-width="1.5"/>
<path d="M265.396 61.8695C261.597 59.0064 260.242 54.396 262.37 51.5718C264.498 48.7476 269.304 48.7791 273.103 51.6421C276.902 54.5052 278.257 59.1156 276.129 61.9398C274.001 64.764 269.196 64.7325 265.396 61.8695Z" fill="white"/>
<path d="M265.396 61.8695C261.597 59.0064 260.242 54.396 262.37 51.5718C264.498 48.7476 269.304 48.7791 273.103 51.6421C276.902 54.5052 278.257 59.1156 276.129 61.9398C274.001 64.764 269.196 64.7325 265.396 61.8695Z" stroke="#979797" stroke-width="1.5"/>
<path d="M266.9 59.8742C264.441 58.0205 263.539 55.0676 264.887 53.2786C266.235 51.4896 269.322 51.542 271.782 53.3956C274.242 55.2493 275.143 58.2022 273.795 59.9912C272.447 61.7802 269.36 61.7278 266.9 59.8742Z" fill="#D8D8D8" fill-opacity="0.4"/>
<path d="M266.9 59.8742C264.441 58.0205 263.539 55.0676 264.887 53.2786C266.235 51.4896 269.322 51.542 271.782 53.3956C274.242 55.2493 275.143 58.2022 273.795 59.9912C272.447 61.7802 269.36 61.7278 266.9 59.8742Z" stroke="#979797" stroke-width="1.5"/>
<path d="M260.636 53.0332H257.765" stroke="#979797" stroke-width="2" stroke-linecap="round"/>
<path d="M260.636 62.0527H253.252" stroke="#979797" stroke-width="2" stroke-linecap="round"/>
<path d="M252.013 57.4238H251.35" stroke="#979797" stroke-width="2" stroke-linecap="round"/>
<path d="M258.598 57.4512H254.88" stroke="#979797" stroke-width="2" stroke-linecap="round"/>
<path d="M261.926 57.7891L260.041 59.8441" stroke="#979797" stroke-width="1.5"/>
<path d="M264.199 61.1699L262.315 63.2249" stroke="#979797" stroke-width="1.5"/>
<path d="M266.989 63.0293L264.919 65.5863" stroke="#979797" stroke-width="1.5"/>
<path d="M270.891 63.957L268.821 66.514" stroke="#979797" stroke-width="1.5"/>
<path fill-rule="evenodd" clip-rule="evenodd" d="M516.748 174.908C519.524 178.238 518.865 181.768 514.772 185.496C512.53 187.539 510.13 188.175 508.597 188.364C505.848 188.702 503.647 187.865 501.993 185.851C506.205 186.151 509.718 184.99 512.53 182.368C515.342 179.745 516.748 177.259 516.748 174.908Z" fill="#D8D8D8" fill-opacity="0.4"/>
<path d="M499.957 183.333L502.33 186.103C504.634 189.161 509.837 189.127 513.951 186.027C518.065 182.927 519.531 177.935 517.227 174.877L514.772 171.913" stroke="#979797" stroke-width="1.5"/>
<path d="M511.579 183.258C515.693 180.158 517.16 175.166 514.855 172.108C512.551 169.05 507.348 169.084 503.234 172.184C499.12 175.284 497.653 180.276 499.958 183.334C502.262 186.392 507.465 186.358 511.579 183.258Z" fill="white"/>
<path d="M511.579 183.258C515.693 180.158 517.16 175.166 514.855 172.108C512.551 169.05 507.348 169.084 503.234 172.184C499.12 175.284 497.653 180.276 499.958 183.334C502.262 186.392 507.465 186.358 511.579 183.258Z" stroke="#979797" stroke-width="1.5"/>
<path d="M509.949 181.096C512.613 179.088 513.589 175.891 512.129 173.954C510.669 172.017 507.326 172.073 504.663 174.08C501.999 176.088 501.023 179.285 502.483 181.222C503.943 183.16 507.286 183.103 509.949 181.096Z" fill="#D8D8D8" fill-opacity="0.4"/>
<path d="M509.949 181.096C512.613 179.088 513.589 175.891 512.129 173.954C510.669 172.017 507.326 172.073 504.663 174.08C501.999 176.088 501.023 179.285 502.483 181.222C503.943 183.16 507.286 183.103 509.949 181.096Z" stroke="#979797" stroke-width="1.5"/>
<path d="M516.732 173.691H519.841" stroke="#979797" stroke-width="2" stroke-linecap="round"/>
<path d="M516.733 183.457H524.728" stroke="#979797" stroke-width="2" stroke-linecap="round"/>
<path d="M526.069 178.445H526.787" stroke="#979797" stroke-width="2" stroke-linecap="round"/>
<path d="M518.939 178.475H522.965" stroke="#979797" stroke-width="2" stroke-linecap="round"/>
<path d="M515.336 178.84L517.376 181.065" stroke="#979797" stroke-width="1.5"/>
<path d="M512.873 182.498L514.914 184.724" stroke="#979797" stroke-width="1.5"/>
<path d="M509.854 184.512L512.095 187.281" stroke="#979797" stroke-width="1.5"/>
<path d="M505.628 185.52L507.869 188.288" stroke="#979797" stroke-width="1.5"/>
<path fill-rule="evenodd" clip-rule="evenodd" d="M653.669 69.1191C656.445 72.4493 655.786 75.9788 651.693 79.7074C649.451 81.7496 647.051 82.3857 645.517 82.5747C642.769 82.9134 640.568 82.0759 638.913 80.0623C643.126 80.3624 646.639 79.2012 649.451 76.5786C652.263 73.956 653.669 71.4695 653.669 69.1191Z" fill="#D8D8D8" fill-opacity="0.4"/>
<path d="M636.878 77.546L639.251 80.3155C641.555 83.3735 646.758 83.3395 650.872 80.2395C654.986 77.1396 656.452 72.1476 654.148 69.0896L651.693 66.1263" stroke="#D8D8D8" stroke-width="1.5"/>
<path d="M648.5 77.4705C652.614 74.3705 654.081 69.3784 651.776 66.3204C649.472 63.2625 644.269 63.2966 640.155 66.3966C636.041 69.4967 634.574 74.4887 636.878 77.5467C639.183 80.6047 644.386 80.5706 648.5 77.4705Z" fill="white"/>
<path d="M648.5 77.4705C652.614 74.3705 654.081 69.3784 651.776 66.3204C649.472 63.2625 644.269 63.2966 640.155 66.3966C636.041 69.4967 634.574 74.4887 636.878 77.5467C639.183 80.6047 644.386 80.5706 648.5 77.4705Z" stroke="#D8D8D8" stroke-width="1.5"/>
<path d="M646.87 75.3086C649.534 73.3014 650.51 70.1038 649.05 68.1666C647.59 66.2294 644.247 66.2862 641.584 68.2934C638.92 70.3006 637.944 73.4981 639.404 75.4353C640.864 77.3725 644.206 77.3158 646.87 75.3086Z" fill="#D8D8D8" fill-opacity="0.4"/>
<path d="M646.87 75.3086C649.534 73.3014 650.51 70.1038 649.05 68.1666C647.59 66.2294 644.247 66.2862 641.584 68.2934C638.92 70.3006 637.944 73.4981 639.404 75.4353C640.864 77.3725 644.206 77.3158 646.87 75.3086Z" stroke="#D8D8D8" stroke-width="1.5"/>
<path d="M653.655 67.9023H656.764" stroke="#D8D8D8" stroke-width="2" stroke-linecap="round"/>
<path d="M653.653 77.6699H661.649" stroke="#D8D8D8" stroke-width="2" stroke-linecap="round"/>
<path d="M662.991 72.6582H663.708" stroke="#D8D8D8" stroke-width="2" stroke-linecap="round"/>
<path d="M655.862 72.6855H659.887" stroke="#D8D8D8" stroke-width="2" stroke-linecap="round"/>
<path d="M652.257 73.0508L654.298 75.2768" stroke="#D8D8D8" stroke-width="1.5"/>
<path d="M649.795 76.7109L651.835 78.9369" stroke="#D8D8D8" stroke-width="1.5"/>
<path d="M646.776 78.7246L649.017 81.4926" stroke="#D8D8D8" stroke-width="1.5"/>
<path d="M642.55 79.7305L644.791 82.4985" stroke="#D8D8D8" stroke-width="1.5"/>
<path fill-rule="evenodd" clip-rule="evenodd" d="M232.604 186.184C230.359 188.877 230.892 191.732 234.203 194.749C236.016 196.401 237.958 196.915 239.198 197.068C241.422 197.342 243.202 196.665 244.54 195.036C241.132 195.279 238.291 194.339 236.016 192.218C233.742 190.096 232.604 188.085 232.604 186.184Z" fill="#D8D8D8" fill-opacity="0.4"/>
<path d="M246.187 192.999L244.267 195.239C242.403 197.713 238.194 197.686 234.867 195.178C231.539 192.67 230.352 188.632 232.217 186.159L234.203 183.762" stroke="#979797" stroke-width="1.5"/>
<path d="M236.787 192.938C233.459 190.431 232.272 186.392 234.136 183.919C236 181.445 240.209 181.473 243.537 183.981C246.865 186.489 248.051 190.527 246.188 193C244.324 195.474 240.115 195.446 236.787 192.938Z" fill="white"/>
<path d="M236.787 192.938C233.459 190.431 232.272 186.392 234.136 183.919C236 181.445 240.209 181.473 243.537 183.981C246.865 186.489 248.051 190.527 246.188 193C244.324 195.474 240.115 195.446 236.787 192.938Z" stroke="#979797" stroke-width="1.5"/>
<path d="M238.103 191.188C235.949 189.565 235.159 186.978 236.34 185.411C237.521 183.844 240.225 183.89 242.38 185.513C244.535 187.137 245.324 189.724 244.143 191.291C242.962 192.858 240.258 192.812 238.103 191.188Z" fill="#D8D8D8" fill-opacity="0.4"/>
<path d="M238.103 191.188C235.949 189.565 235.159 186.978 236.34 185.411C237.521 183.844 240.225 183.89 242.38 185.513C244.535 187.137 245.324 189.724 244.143 191.291C242.962 192.858 240.258 192.812 238.103 191.188Z" stroke="#979797" stroke-width="1.5"/>
<path d="M232.618 185.199H230.102" stroke="#979797" stroke-width="2" stroke-linecap="round"/>
<path d="M232.617 193.1H226.149" stroke="#979797" stroke-width="2" stroke-linecap="round"/>
<path d="M225.063 189.045H224.483" stroke="#979797" stroke-width="2" stroke-linecap="round"/>
<path d="M230.831 189.068H227.575" stroke="#979797" stroke-width="2" stroke-linecap="round"/>
<path d="M233.747 189.363L232.096 191.163" stroke="#979797" stroke-width="1.5"/>
<path d="M235.739 192.324L234.089 194.125" stroke="#979797" stroke-width="1.5"/>
<path d="M238.18 193.951L236.368 196.191" stroke="#979797" stroke-width="1.5"/>
<path d="M241.599 194.766L239.786 197.006" stroke="#979797" stroke-width="1.5"/>
<path fill-rule="evenodd" clip-rule="evenodd" d="M375.229 169.168C376.741 168.96 378.181 168.959 379.706 169.17L380.281 173.561C381.513 173.858 382.669 174.344 383.72 174.988L387.232 172.289C388.428 173.194 389.494 174.26 390.398 175.456L387.698 178.969C388.341 180.02 388.826 181.175 389.122 182.406L393.512 182.981C393.726 184.529 393.718 185.97 393.512 187.46L389.122 188.034C388.826 189.265 388.341 190.42 387.698 191.471L390.398 194.984C389.494 196.18 388.428 197.247 387.232 198.152L383.72 195.452C382.668 196.097 381.513 196.583 380.281 196.88L379.706 201.271C378.181 201.482 376.741 201.481 375.229 201.272L374.654 196.883C373.42 196.587 372.263 196.101 371.209 195.456L367.696 198.156C366.475 197.233 365.398 196.138 364.531 194.992L367.23 191.48C366.584 190.426 366.097 189.268 365.8 188.033L361.41 187.458C361.198 185.927 361.213 184.407 361.41 182.982L365.8 182.408C366.097 181.173 366.584 180.014 367.23 178.961L364.531 175.449C365.455 174.227 366.55 173.151 367.696 172.284L371.209 174.984C372.262 174.34 373.42 173.853 374.654 173.557L375.229 169.168ZM377.461 179.217C374.146 179.217 371.458 181.905 371.458 185.22C371.458 188.536 374.146 191.223 377.461 191.223C380.777 191.223 383.465 188.536 383.465 185.22C383.465 181.905 380.777 179.217 377.461 179.217Z" fill="white"/>
<path d="M254.119 132.334C262.858 132.334 270.196 138.742 271.605 147.259C271.883 147.241 272.164 147.231 272.446 147.231C278.239 147.231 283.129 151.148 284.716 156.519C296.358 157.334 306.039 165.69 308.673 176.886C310.115 175.525 311.782 174.405 313.608 173.588L307.122 148.824L358.23 135.271L364.083 155.791C364.18 155.744 364.285 155.713 364.396 155.7L364.513 155.694H366.641C367.193 155.694 367.641 156.141 367.641 156.694C367.641 157.207 367.255 157.629 366.758 157.687L366.641 157.694L364.626 157.693L368.632 171.742L371.291 173.784L371.471 173.686C372.004 173.409 372.555 173.169 373.121 172.968L373.549 172.825L373.748 172.766L374.336 168.28L375.092 168.176C376.521 167.979 377.89 167.957 379.308 168.112L379.843 168.178L380.598 168.283L381.185 172.77L381.385 172.829C381.958 173.011 382.516 173.231 383.057 173.49L383.459 173.691L383.638 173.788L387.227 171.03L387.835 171.49C388.963 172.344 389.982 173.333 390.869 174.434L391.195 174.852L391.655 175.46L388.896 179.049L388.993 179.229C389.27 179.76 389.509 180.31 389.709 180.875L389.852 181.301L389.911 181.499L394.398 182.087L394.502 182.842C394.701 184.28 394.722 185.651 394.568 187.063L394.502 187.595L394.398 188.351L389.911 188.938L389.852 189.136C389.671 189.709 389.451 190.267 389.193 190.807L388.993 191.209L388.895 191.387L391.655 194.978L391.195 195.586C390.342 196.714 389.354 197.734 388.253 198.621L387.835 198.947L387.227 199.408L383.638 196.649L383.459 196.747C382.927 197.024 382.377 197.264 381.812 197.465L381.385 197.608L381.185 197.667L380.598 202.155L379.843 202.26C378.411 202.458 377.041 202.48 375.625 202.327L375.092 202.261L374.336 202.157L373.748 197.671L373.549 197.612C372.975 197.431 372.416 197.211 371.874 196.952L371.471 196.751L371.29 196.653L367.701 199.412L367.093 198.953C365.966 198.1 364.933 197.095 364.055 196.006L363.733 195.594L363.272 194.986L366.03 191.397L365.932 191.216C365.655 190.684 365.414 190.132 365.213 189.565L365.069 189.137L365.009 188.936L360.523 188.349L360.419 187.594C360.384 187.343 360.355 187.091 360.332 186.839C360.159 186.833 359.985 186.83 359.81 186.83C354.795 186.83 350.138 189.003 346.92 192.699C347.378 193.772 347.646 194.947 347.682 196.18L351.652 196.18C352.205 196.18 352.652 196.628 352.652 197.18C352.652 197.693 352.266 198.116 351.769 198.174L351.652 198.18H345.712C345.16 198.18 344.712 197.733 344.712 197.18C344.712 196.668 345.098 196.245 345.595 196.187L345.681 196.183C345.533 192.164 342.287 188.958 338.312 188.958C337.173 188.958 336.073 189.221 335.073 189.719C334.579 189.966 333.979 189.765 333.732 189.271C333.485 188.777 333.686 188.176 334.18 187.93C334.846 187.598 335.548 187.347 336.273 187.184C334.97 179.691 328.493 174.061 320.782 174.061C313.047 174.061 306.542 179.731 305.276 187.277C306.546 187.567 307.763 188.054 308.888 188.721C309.363 189.003 309.52 189.616 309.239 190.091C308.957 190.566 308.344 190.723 307.869 190.442C306.237 189.474 304.384 188.958 302.456 188.958C296.818 188.958 292.181 193.375 291.687 199.018L292.625 199.018C293.178 199.018 293.625 199.466 293.625 200.018C293.625 200.531 293.239 200.954 292.742 201.011L292.625 201.018H282.828C282.275 201.018 281.828 200.57 281.828 200.018C281.828 199.505 282.214 199.083 282.711 199.025L282.828 199.018L289.68 199.019C290.181 192.277 295.705 186.958 302.456 186.958C302.738 186.958 303.018 186.967 303.297 186.986C303.812 183.87 305.121 181.036 307.003 178.694C305.091 167.86 296.115 159.585 285.147 158.561C285.221 159.127 285.259 159.705 285.259 160.291C285.259 160.844 284.811 161.291 284.259 161.291C283.707 161.291 283.259 160.844 283.259 160.291C283.259 154.179 278.413 149.231 272.446 149.231C270.518 149.231 268.665 149.748 267.034 150.715C266.559 150.997 265.945 150.84 265.664 150.365C265.382 149.89 265.539 149.276 266.014 148.994C267.139 148.327 268.354 147.841 269.624 147.55C268.359 140.004 261.854 134.334 254.119 134.334C246.408 134.334 239.931 139.965 238.628 147.458C239.355 147.621 240.056 147.871 240.722 148.203C241.216 148.45 241.417 149.05 241.171 149.545C240.924 150.039 240.323 150.239 239.829 149.993C238.83 149.494 237.729 149.231 236.59 149.231C232.734 149.231 229.564 152.249 229.243 156.1L230.619 156.099C231.172 156.099 231.619 156.547 231.619 157.099C231.619 157.612 231.233 158.035 230.736 158.092L230.619 158.099H220.822C220.269 158.099 219.822 157.651 219.822 157.099C219.822 156.586 220.208 156.164 220.705 156.106L220.822 156.099L227.237 156.099C227.564 151.149 231.623 147.231 236.59 147.231L236.638 147.232C238.057 138.737 245.382 132.334 254.119 132.334ZM278.757 199.018C279.309 199.018 279.757 199.466 279.757 200.018C279.757 200.531 279.371 200.954 278.874 201.011L278.757 201.018H275.391C274.839 201.018 274.391 200.57 274.391 200.018C274.391 199.505 274.777 199.083 275.275 199.025L275.391 199.018H278.757ZM271.43 199.018C271.982 199.018 272.43 199.466 272.43 200.018C272.43 200.531 272.044 200.954 271.547 201.011L271.43 201.018H268.988C268.435 201.018 267.988 200.57 267.988 200.018C267.988 199.505 268.374 199.083 268.871 199.025L268.988 199.018H271.43ZM376.771 170.027L376.306 170.056L376.117 170.073L375.556 174.368L374.887 174.528C373.909 174.763 372.974 175.13 372.101 175.619L371.731 175.836L371.145 176.195L367.708 173.553L367.577 173.662C367.105 174.067 366.653 174.505 366.23 174.968L365.917 175.32L365.801 175.459L368.442 178.895L368.082 179.482C367.558 180.337 367.154 181.257 366.88 182.223L366.771 182.64L366.611 183.309L362.317 183.87L362.293 184.158C362.257 184.681 362.247 185.209 362.265 185.738L362.292 186.266L362.317 186.567L366.611 187.129L366.771 187.797C367.007 188.777 367.375 189.712 367.865 190.585L368.082 190.956L368.442 191.542L365.801 194.978L365.91 195.109C366.315 195.58 366.753 196.032 367.216 196.456L367.568 196.768L367.708 196.883L371.145 194.243L371.731 194.602C372.586 195.125 373.505 195.528 374.471 195.801L374.887 195.909L375.556 196.07L376.117 200.364L376.306 200.382C376.928 200.431 377.541 200.44 378.16 200.411L378.626 200.381L378.815 200.363L379.378 196.067L380.046 195.906C381.022 195.671 381.956 195.303 382.827 194.815L383.197 194.598L383.783 194.239L387.219 196.879L387.358 196.764C387.832 196.357 388.281 195.922 388.702 195.46L389.012 195.11L389.126 194.97L386.486 191.534L386.844 190.948C387.366 190.095 387.769 189.177 388.041 188.214L388.15 187.799L388.31 187.13L392.606 186.568L392.623 186.383C392.672 185.762 392.682 185.148 392.653 184.528L392.624 184.062L392.606 183.869L388.31 183.307L388.15 182.639C387.915 181.663 387.548 180.73 387.061 179.859L386.844 179.49L386.486 178.903L389.127 175.466L389.012 175.328C388.605 174.854 388.17 174.405 387.709 173.984L387.358 173.673L387.219 173.558L383.783 176.199L383.197 175.839C382.344 175.317 381.426 174.913 380.462 174.64L380.046 174.531L379.378 174.37L378.815 170.074L378.626 170.056C378.003 170.007 377.39 169.997 376.771 170.027ZM377.461 178.215C381.329 178.215 384.464 181.351 384.464 185.219C384.464 189.086 381.329 192.222 377.461 192.222C373.593 192.222 370.457 189.086 370.457 185.219C370.457 181.351 373.593 178.215 377.461 178.215ZM359.12 145.681L311.714 158.462L315.489 172.873C317.163 172.345 318.942 172.061 320.782 172.061C329.519 172.061 336.845 178.464 338.263 186.959L338.312 186.958C341.425 186.958 344.181 188.496 345.885 190.863C349.453 187.054 354.45 184.83 359.81 184.83L360.26 184.835C360.271 184.342 360.303 183.851 360.355 183.364L360.419 182.844L360.523 182.088L365.009 181.5L365.069 181.3C365.251 180.726 365.472 180.166 365.731 179.624L365.932 179.221L366.03 179.04L363.272 175.452L363.733 174.844C364.563 173.747 365.537 172.741 366.592 171.879L359.12 145.681ZM377.461 180.215C374.698 180.215 372.457 182.455 372.457 185.219C372.457 187.982 374.698 190.222 377.461 190.222C380.224 190.222 382.464 187.982 382.464 185.219C382.464 182.455 380.224 180.215 377.461 180.215ZM216.779 156.099C217.332 156.099 217.779 156.547 217.779 157.099C217.779 157.612 217.393 158.035 216.896 158.092L216.779 158.099H213.899C213.347 158.099 212.899 157.651 212.899 157.099C212.899 156.586 213.285 156.164 213.783 156.106L213.899 156.099H216.779ZM371.851 155.694C372.404 155.694 372.851 156.141 372.851 156.694C372.851 157.207 372.465 157.629 371.968 157.687L371.851 157.694H370.188C369.636 157.694 369.188 157.246 369.188 156.694C369.188 156.181 369.574 155.758 370.071 155.7L370.188 155.694H371.851ZM356.845 137.708L309.562 150.246L311.208 156.527L358.571 143.758L356.845 137.708Z" fill="#979797"/>
<path d="M397.673 187.101C398.529 186.686 399.385 186.391 400.304 186.196L400.702 186.118L401.452 185.984L402.734 188.679L402.822 188.679C403.084 188.682 403.344 188.697 403.604 188.724L403.992 188.772L404.073 188.786L405.763 186.324L406.484 186.574C407.366 186.88 408.208 187.291 408.99 187.798L409.322 188.021L409.947 188.457L408.947 191.271L409.007 191.33C409.19 191.516 409.363 191.71 409.528 191.912L409.769 192.221L409.818 192.29L412.753 191.745L413.086 192.431C413.504 193.292 413.798 194.149 413.993 195.064L414.07 195.46L414.204 196.211L411.509 197.494L411.51 197.58C411.507 197.841 411.492 198.101 411.466 198.361L411.418 198.748L411.403 198.83L413.866 200.52L413.617 201.24C413.312 202.122 412.901 202.964 412.394 203.747L412.171 204.079L411.735 204.705L408.921 203.706L408.864 203.765C408.677 203.948 408.483 204.122 408.281 204.287L407.972 204.528L407.9 204.579L408.448 207.514L407.762 207.847C406.904 208.263 406.049 208.558 405.131 208.754L404.734 208.832L403.982 208.966L402.699 206.271L402.613 206.273C402.351 206.27 402.09 206.255 401.83 206.229L401.442 206.18L401.356 206.166L399.669 208.628L398.948 208.379C398.067 208.074 397.214 207.656 396.438 207.154L396.111 206.934L395.485 206.498L396.483 203.684L396.423 203.625C396.24 203.439 396.066 203.244 395.9 203.041L395.658 202.732L395.608 202.66L392.673 203.206L392.34 202.52C391.94 201.693 391.639 200.82 391.445 199.935L391.357 199.492L391.223 198.741L393.917 197.459L393.916 197.37C393.92 197.108 393.935 196.847 393.961 196.587L394.01 196.198L394.023 196.114L391.562 194.425L391.812 193.705C392.118 192.823 392.536 191.971 393.038 191.195L393.258 190.868L393.695 190.243L396.507 191.242L396.568 191.181C396.755 190.998 396.949 190.824 397.152 190.659L397.461 190.418L397.531 190.368L396.986 187.434L397.673 187.101ZM399.591 188.466L399.236 188.596L399.745 191.323L399.158 191.682C398.653 191.992 398.194 192.364 397.789 192.791L397.553 193.053L397.106 193.576L394.491 192.648L394.31 192.973L394.138 193.311L393.977 193.657L396.264 195.226L396.104 195.895C395.966 196.469 395.903 197.057 395.918 197.647L395.936 198.001L395.99 198.687L393.487 199.878L393.589 200.236L393.705 200.596L393.837 200.954L396.562 200.448L396.922 201.034C397.232 201.539 397.605 201.998 398.032 202.403L398.295 202.64L398.818 203.087L397.89 205.699L398.215 205.881L398.553 206.054L398.899 206.214L400.469 203.927L401.137 204.087C401.711 204.224 402.299 204.286 402.888 204.271L403.242 204.252L403.928 204.198L405.119 206.702C405.365 206.638 405.604 206.566 405.841 206.483L406.196 206.35L405.689 203.625L406.275 203.265C406.779 202.956 407.237 202.583 407.641 202.157L407.877 201.894L408.324 201.371L410.937 202.298L411.122 201.969L411.294 201.633L411.452 201.29L409.164 199.719L409.325 199.051C409.462 198.479 409.524 197.893 409.509 197.304L409.49 196.951L409.437 196.265L411.941 195.073C411.878 194.829 411.806 194.591 411.723 194.353L411.589 193.995L408.864 194.503L408.504 193.917C408.196 193.413 407.824 192.956 407.398 192.551L407.136 192.315L406.614 191.869L407.541 189.254C407.324 189.126 407.102 189.007 406.875 188.898L406.532 188.739L404.963 191.026L404.294 190.866C403.721 190.728 403.134 190.666 402.545 190.68L402.192 190.699L401.507 190.752L400.315 188.248C400.068 188.311 399.829 188.384 399.591 188.466ZM401.199 192.813C403.773 191.977 406.539 193.386 407.376 195.961C408.212 198.536 406.803 201.301 404.228 202.138C401.653 202.974 398.888 201.565 398.051 198.99C397.215 196.416 398.624 193.65 401.199 192.813ZM401.817 194.716C400.292 195.211 399.458 196.848 399.953 198.372C400.449 199.897 402.086 200.731 403.61 200.236C405.135 199.74 405.969 198.103 405.473 196.579C404.978 195.054 403.341 194.22 401.817 194.716Z" fill="#979797"/>
<path fill-rule="evenodd" clip-rule="evenodd" d="M472.486 73.7114C474.88 72.9794 477.442 72.7832 479.225 73.1857C481.553 73.7114 483.763 75.1916 488.053 76.141C490.913 76.7739 494.404 76.6268 498.31 75.1804V62.9961C497.846 63.0463 496.903 63.0463 495.479 62.9961V71.3844C492.329 72.3431 489.151 72.0919 485.946 70.6309C482.741 69.17 478.254 68.3754 472.486 68.2473V73.7114Z" fill="#D8D8D8" fill-opacity="0.4"/>
<path fill-rule="evenodd" clip-rule="evenodd" d="M495.938 58.0027C492.888 58.4383 490.02 58.0891 487.334 56.9551C483.304 55.2542 481.364 53.8557 477.368 53.4544C474.705 53.1868 472.287 53.9911 470.115 55.8671V69.5039C472.445 68.5422 474.784 68.1745 477.134 68.4006C480.658 68.7398 484.321 71.0231 487.909 72.1157C490.301 72.8441 492.977 72.7285 495.938 71.7688V58.0027Z" fill="white"/>
<path d="M497.31 62.9957L497.31 74.4713L497.054 74.557C494.044 75.5285 491.193 75.73 488.649 75.2425L488.269 75.1642C487.126 74.9112 486.085 74.61 485.028 74.24L484.494 74.0475L482.877 73.4076L481.857 73.0152L480.87 72.6487L480.521 72.525L480.215 72.4211L479.962 72.3415C479.924 72.3305 479.89 72.3207 479.858 72.3122C479.719 72.2748 479.581 72.2407 479.445 72.2099C477.888 71.8584 475.855 71.9167 473.817 72.3396L473.487 72.4113L473.486 70.6306H471.486V75.0626L472.779 74.6673C475.011 73.9847 477.402 73.7991 479.005 74.1608C479.114 74.1856 479.226 74.2132 479.339 74.2437L479.551 74.3072L479.83 74.4003L480.534 74.6541L482.387 75.3642L483.804 75.9253C485.128 76.4144 486.41 76.801 487.837 77.117C490.98 77.8126 494.511 77.566 498.196 76.2835L498.657 76.1178L499.31 75.8761L499.31 72.1113L506.268 72.1115C506.82 72.1115 507.268 71.6638 507.268 71.1115C507.268 70.5987 506.882 70.176 506.385 70.1183L506.268 70.1115L499.31 70.1113V67.6843L502.598 67.6847C503.15 67.6847 503.598 67.237 503.598 66.6847C503.598 66.1719 503.212 65.7492 502.714 65.6915L502.598 65.6847L499.31 65.6843L499.31 62.9957H497.31ZM470.116 55.8671V69.5039C472.445 68.5422 474.785 68.1745 477.134 68.4006C479.004 68.5805 480.913 69.3079 482.829 70.1143L484.304 70.7423C485.509 71.255 486.713 71.7515 487.909 72.1157C490.301 72.8441 492.978 72.7285 495.939 71.7688V58.0027C492.889 58.4383 490.021 58.0891 487.334 56.9551C486.809 56.7333 486.318 56.5166 485.855 56.3065L484.96 55.8958L483.713 55.3193C481.706 54.402 479.974 53.7161 477.369 53.4544C474.705 53.1868 472.288 53.9911 470.116 55.8671ZM509.994 70.1115C509.442 70.1115 508.994 70.5593 508.994 71.1115C508.994 71.6244 509.381 72.0471 509.878 72.1048L509.994 72.1115H511.433C511.985 72.1115 512.433 71.6638 512.433 71.1115C512.433 70.5987 512.047 70.176 511.549 70.1183L511.433 70.1115H509.994ZM477.169 55.4444C478.781 55.6064 480.051 55.9416 481.543 56.5529L482.075 56.784L485.639 58.3953L486.556 58.7977C488.862 59.7709 491.289 60.2312 493.819 60.1802L493.939 60.1753V70.2503L493.729 70.2984C491.919 70.6885 490.284 70.6805 488.806 70.2916L488.492 70.2024L488.086 70.0742C488.018 70.0518 487.95 70.0289 487.881 70.0054L487.458 69.8562L487.009 69.6885L486.525 69.4986L485.994 69.2829L485.089 68.9028L484.055 68.4613L483.295 68.1419C483.173 68.0913 483.053 68.0419 482.935 67.9939L482.252 67.7204C480.271 66.944 478.875 66.5589 477.326 66.4098C475.765 66.2596 474.209 66.339 472.662 66.6457L472.116 66.7633V56.8343L472.186 56.7825C473.728 55.6956 475.364 55.2631 477.169 55.4444ZM483.396 59.0445C481.214 59.0445 479.445 60.8135 479.445 62.9957C479.445 65.1779 481.214 66.9469 483.396 66.9469C485.578 66.9469 487.347 65.1779 487.347 62.9957C487.347 60.8135 485.578 59.0445 483.396 59.0445ZM483.396 61.0445C484.474 61.0445 485.347 61.9181 485.347 62.9957C485.347 64.0733 484.474 64.9469 483.396 64.9469C482.319 64.9469 481.445 64.0733 481.445 62.9957C481.445 61.9181 482.319 61.0445 483.396 61.0445Z" fill="#979797"/>
<path fill-rule="evenodd" clip-rule="evenodd" d="M351.299 50.898C358.957 52.9805 364.219 51.8388 367.087 47.4727C369.954 43.1067 370.37 38.2232 368.336 32.8223C367.058 36.9098 365.076 40.3646 362.39 43.1868C359.703 46.009 356.006 48.5794 351.299 50.898Z" fill="white"/>
<path d="M349.976 34.3903C351.1 34.3903 352.011 33.4792 352.011 32.3553C352.011 31.2314 351.1 30.3203 349.976 30.3203C348.853 30.3203 347.941 31.2314 347.941 32.3553C347.941 33.4792 348.853 34.3903 349.976 34.3903Z" fill="#979797"/>
<path d="M76.5806 109C82.267 109 86.9008 113.507 87.1039 119.144C89.8701 120.034 91.9298 122.5 92.2257 125.485L93.9088 125.485L94.0255 125.492C94.5228 125.549 94.9088 125.972 94.9088 126.485C94.9088 127.037 94.4611 127.485 93.9088 127.485H88.9439L88.8273 127.478C88.33 127.42 87.9439 126.998 87.9439 126.485C87.9439 125.933 88.3917 125.485 88.9439 125.485L90.2119 125.484C89.8495 122.832 87.5749 120.788 84.8229 120.788C84.5245 120.788 84.2296 120.812 83.9399 120.859C83.3948 120.948 82.8809 120.578 82.792 120.033C82.7031 119.488 83.073 118.974 83.6181 118.885C84.0141 118.821 84.4166 118.788 84.8229 118.788C84.9088 118.788 84.9943 118.789 85.0795 118.792C84.7055 114.427 81.0432 111 76.5806 111C73.5059 111 70.7356 112.642 69.2276 115.202C69.4163 115.213 69.6023 115.236 69.7866 115.266C70.3317 115.354 70.7016 115.868 70.6127 116.413C70.5239 116.959 70.01 117.328 69.4649 117.24C69.23 117.201 68.9909 117.182 68.7489 117.182C66.3138 117.182 64.3398 119.156 64.3398 121.591C64.3398 122.143 63.8921 122.591 63.3398 122.591C62.7875 122.591 62.3398 122.143 62.3398 121.591C62.3398 121.421 62.3464 121.253 62.3594 121.086C61.7378 120.889 61.0841 120.788 60.4151 120.788C57.4784 120.788 54.9652 122.756 54.1908 125.485L54.2422 125.485L54.3588 125.492C54.8561 125.549 55.2422 125.972 55.2422 126.485C55.2422 127.037 54.7944 127.485 54.2422 127.485H49.2773L49.1607 127.478C48.6633 127.42 48.2773 126.998 48.2773 126.485C48.2773 125.933 48.725 125.485 49.2773 125.485L52.1313 125.484C52.9516 121.629 56.3771 118.788 60.4151 118.788C61.2411 118.788 62.0514 118.906 62.8265 119.136C63.5535 117.385 65.0348 116.025 66.8652 115.463C68.4906 111.583 72.2963 109 76.5806 109ZM46.3667 125.485L46.4833 125.492C46.9806 125.549 47.3667 125.972 47.3667 126.485C47.3667 127.037 46.919 127.485 46.3667 127.485H43.7909L43.6743 127.478C43.1769 127.42 42.7909 126.998 42.7909 126.485C42.7909 125.933 43.2386 125.485 43.7909 125.485H46.3667ZM40.0303 125.485L40.1469 125.492C40.6443 125.549 41.0303 125.972 41.0303 126.485C41.0303 127.037 40.5826 127.485 40.0303 127.485H39L38.8834 127.478C38.386 127.42 38 126.998 38 126.485C38 125.933 38.4477 125.485 39 125.485H40.0303Z" fill="#D8D8D8"/>
<path d="M563 114.727L563.117 114.734C563.614 114.792 564 115.214 564 115.727C564 116.28 563.552 116.727 563 116.727H561L560.883 116.721C560.386 116.663 560 116.24 560 115.727C560 115.175 560.448 114.727 561 114.727H563ZM598.581 98C604.267 98 608.901 102.507 609.104 108.144C611.87 109.034 613.93 111.5 614.226 114.485L615.909 114.485L616.025 114.492C616.523 114.549 616.909 114.972 616.909 115.485C616.909 116.037 616.461 116.485 615.909 116.485H610.944L610.827 116.478C610.33 116.42 609.944 115.998 609.944 115.485C609.944 114.933 610.392 114.485 610.944 114.485L612.212 114.484C611.85 111.832 609.575 109.788 606.823 109.788C606.525 109.788 606.23 109.812 605.94 109.859C605.395 109.948 604.881 109.578 604.792 109.033C604.703 108.488 605.073 107.974 605.618 107.885C606.014 107.821 606.417 107.788 606.823 107.788C606.909 107.788 606.994 107.789 607.079 107.792C606.705 103.427 603.043 100 598.581 100C595.506 100 592.736 101.642 591.228 104.202C591.416 104.213 591.602 104.236 591.787 104.266C592.332 104.354 592.702 104.868 592.613 105.413C592.524 105.959 592.01 106.328 591.465 106.24C591.23 106.201 590.991 106.182 590.749 106.182C588.314 106.182 586.34 108.156 586.34 110.591C586.34 111.143 585.892 111.591 585.34 111.591C584.787 111.591 584.34 111.143 584.34 110.591C584.34 110.421 584.346 110.253 584.359 110.086C583.738 109.889 583.084 109.788 582.415 109.788C579.478 109.788 576.965 111.756 576.191 114.485L576.242 114.485L576.359 114.492C576.856 114.549 577.242 114.972 577.242 115.485C577.242 116.037 576.794 116.485 576.242 116.485H571.277L571.161 116.478C570.663 116.42 570.277 115.998 570.277 115.485C570.277 114.933 570.725 114.485 571.277 114.485L574.131 114.484C574.952 110.629 578.377 107.788 582.415 107.788C583.241 107.788 584.051 107.906 584.827 108.136C585.553 106.385 587.035 105.025 588.865 104.463C590.491 100.583 594.296 98 598.581 98ZM568.367 114.485L568.483 114.492C568.981 114.549 569.367 114.972 569.367 115.485C569.367 116.037 568.919 116.485 568.367 116.485H565.791L565.674 116.478C565.177 116.42 564.791 115.998 564.791 115.485C564.791 114.933 565.239 114.485 565.791 114.485H568.367Z" fill="#D8D8D8"/>
<path fill-rule="evenodd" clip-rule="evenodd" d="M65.2716 179.453C62.7081 182.529 63.3165 185.788 67.0969 189.232C69.1674 191.118 71.3838 191.706 72.8003 191.88C75.3387 192.193 77.3718 191.42 78.8995 189.56C75.0087 189.837 71.7647 188.765 69.1674 186.342C66.5702 183.92 65.2716 181.624 65.2716 179.453Z" fill="#D8D8D8" fill-opacity="0.4"/>
<path d="M80.78 187.235L78.5884 189.792C76.4602 192.617 71.6549 192.585 67.8556 189.722C64.0563 186.859 62.7016 182.249 64.8299 179.425L67.0974 176.688" stroke="#979797" stroke-width="1.5"/>
<path d="M70.0465 187.164C66.2471 184.301 64.8923 179.691 67.0205 176.867C69.1487 174.042 73.954 174.074 77.7534 176.937C81.5528 179.8 82.9076 184.411 80.7794 187.235C78.6512 190.059 73.8459 190.027 70.0465 187.164Z" fill="white"/>
<path d="M70.0465 187.164C66.2471 184.301 64.8923 179.691 67.0205 176.867C69.1487 174.042 73.954 174.074 77.7534 176.937C81.5528 179.8 82.9076 184.411 80.7794 187.235C78.6512 190.059 73.8459 190.027 70.0465 187.164Z" stroke="#979797" stroke-width="1.5"/>
<path d="M71.5508 185.169C69.0909 183.315 68.1897 180.362 69.5378 178.573C70.8859 176.784 73.9729 176.837 76.4327 178.691C78.8926 180.544 79.7939 183.497 78.4458 185.286C77.0977 187.075 74.0107 187.023 71.5508 185.169Z" fill="#D8D8D8" fill-opacity="0.4"/>
<path d="M71.5508 185.169C69.0909 183.315 68.1897 180.362 69.5378 178.573C70.8859 176.784 73.9729 176.837 76.4327 178.691C78.8926 180.544 79.7939 183.497 78.4458 185.286C77.0977 187.075 74.0107 187.023 71.5508 185.169Z" stroke="#979797" stroke-width="1.5"/>
<path d="M65.286 178.328H62.415" stroke="#979797" stroke-width="2" stroke-linecap="round"/>
<path d="M65.2863 187.348H57.9023" stroke="#979797" stroke-width="2" stroke-linecap="round"/>
<path d="M56.663 182.719H56" stroke="#D8D8D8" stroke-width="2" stroke-linecap="round"/>
<path d="M63.2483 182.746H59.5303" stroke="#979797" stroke-width="2" stroke-linecap="round"/>
<path d="M66.5764 183.084L64.6914 185.139" stroke="#979797" stroke-width="1.5"/>
<path d="M68.8498 186.465L66.9658 188.52" stroke="#979797" stroke-width="1.5"/>
<path d="M71.6393 188.324L69.5693 190.881" stroke="#979797" stroke-width="1.5"/>
<path d="M75.5417 189.252L73.4717 191.809" stroke="#979797" stroke-width="1.5"/>
<path d="M350.144 37.0034L351.693 38.2689C347.988 42.8025 346.686 47.2843 348.24 48.8391L348.291 48.8868L348.342 48.9338C350.313 50.6283 356.031 48.381 361.016 43.3955C366.002 38.41 368.249 32.6925 366.554 30.7216L366.46 30.6197C364.952 29.1113 360.681 30.2931 356.276 33.7638L355.995 33.9884L354.736 32.4337C359.95 28.215 365.341 26.6722 367.874 29.2053C371.512 32.8427 371.875 44.1868 366.841 49.2205C361.808 54.2541 350.464 53.8906 346.826 50.2533C344.32 47.7477 345.803 42.4444 349.913 37.2896L350.144 37.0034ZM353.631 50.7858C354.313 50.8823 355.023 50.9462 355.738 50.9692C359.678 51.0954 363.183 50.05 365.427 47.8063C367.671 45.5626 368.716 42.0576 368.59 38.1175C368.567 37.4019 368.503 36.6922 368.406 36.009L368.377 36.089C367.382 38.7754 365.402 41.771 362.703 44.5342L362.43 44.8097C359.565 47.6754 356.426 49.7682 353.631 50.7858ZM348.176 30.5552L359.916 38.5625L358.789 40.2148L355.789 38.168L357.835 41.1682L356.183 42.2952L348.176 30.5552ZM331.012 25.8189L333.012 25.8496C332.915 32.1415 338.024 37.179 344.268 37.0394L344.587 37.0278L344.687 39.0253C337.261 39.3991 331.088 33.5578 331.011 26.1665L331.012 25.8189ZM344.008 12.3604C351.435 11.9865 357.608 17.8278 357.685 25.2192L357.684 25.5668L355.684 25.536C355.781 19.2441 350.672 14.2067 344.427 14.3462L344.109 14.3578L344.008 12.3604ZM336.599 26.1252L338.597 26.2216C338.454 29.1797 340.857 31.5819 343.782 31.4731L344.02 31.4587L344.186 33.4518C340.038 33.7975 336.543 30.5118 336.591 26.3894L336.599 26.1252ZM344.51 17.9337C348.658 17.588 352.153 20.8738 352.104 24.9961L352.097 25.2604L350.099 25.1639C350.242 22.2058 347.839 19.8036 344.914 19.9124L344.676 19.9268L344.51 17.9337ZM342.166 23.5851C343.33 22.3799 345.25 22.3463 346.455 23.5102C347.661 24.6741 347.694 26.5946 346.53 27.7999C345.366 29.0051 343.446 29.0386 342.241 27.8748C341.035 26.7109 341.002 24.7903 342.166 23.5851ZM343.605 24.9744C343.208 25.3851 343.219 26.0395 343.63 26.4361C344.041 26.8327 344.695 26.8212 345.092 26.4106C345.488 25.9999 345.477 25.3455 345.066 24.9489C344.656 24.5523 344.001 24.5637 343.605 24.9744Z" fill="#979797"/>
<path d="M300.066 87.6105L281.875 122.32H290.805L290.806 107.79H303.3L303.299 122.32L310.879 122.32V134.137L303.299 134.137L303.3 144.11H290.806L290.805 134.137L266.669 134.137V125.259L272.416 114.148L275.257 114.149C275.853 114.149 276.354 113.718 276.453 113.175L276.467 113.057L276.472 112.934C276.472 112.338 276.041 111.838 275.498 111.739L275.38 111.724L275.258 111.719L272.303 111.72L272.143 111.664C270.863 111.217 269.988 110.006 269.988 108.628C269.988 106.913 271.33 105.512 273.021 105.418L273.203 105.413H280.956C281.627 105.413 282.171 104.869 282.171 104.197C282.171 103.601 281.74 103.101 281.197 103.002L281.079 102.987L280.956 102.982H268.219C266.443 102.982 265.004 101.543 265.004 99.7671C265.004 98.0527 266.346 96.6517 268.037 96.5571L268.219 96.552L281.519 96.551L286.145 87.6105H300.066ZM400.734 87.6105L397.497 93.782L404.451 93.783C406.104 93.783 407.466 95.0308 407.646 96.636L407.661 96.8158L407.666 96.9982C407.666 98.7126 406.324 100.114 404.633 100.208L404.451 100.213H388.945C388.274 100.213 387.73 100.757 387.73 101.428C387.73 102.025 388.161 102.525 388.704 102.624L388.822 102.639L388.945 102.644L392.855 102.643L382.542 122.32H391.472L391.473 107.79H403.967V122.32L411.546 122.32V134.137L403.967 134.137V144.11H391.473L391.472 134.137L367.336 134.137V125.259L375.707 109.073L372.885 109.074C371.232 109.074 369.87 107.826 369.69 106.221L369.675 106.041L369.67 105.859C369.67 104.144 371.012 102.743 372.702 102.649L372.885 102.644L379.033 102.643L386.812 87.6105H400.734ZM338.913 86.5977C353.093 86.5977 363.389 98.3702 363.389 115.841C363.389 124.401 360.917 131.594 356.727 136.704L353.066 137.676C358.236 132.933 361.389 125.32 361.389 115.841C361.389 99.4196 351.924 88.5977 338.913 88.5977C334.202 88.5977 329.84 90.0456 326.236 92.7865L325.904 93.044L323.436 95.4901C323.126 95.8528 322.796 96.2575 322.45 96.7006L321.918 97.3937L321.363 98.1419L320.786 98.9426L320.49 99.3619C317.877 103.842 316.476 109.444 316.476 115.841C316.476 130.316 323.768 140.416 334.397 142.628L330.649 143.622C320.911 139.965 314.476 129.708 314.476 115.841C314.476 109.102 315.964 103.152 318.807 98.285C319.874 96.7593 320.826 95.4933 321.709 94.44L321.972 94.1304L324.538 91.5828L324.619 91.5104C328.651 88.2987 333.59 86.5977 338.913 86.5977ZM296.76 89.61H287.361L282.736 98.5515L268.219 98.552C267.548 98.552 267.004 99.096 267.004 99.7671C267.004 100.396 267.482 100.914 268.095 100.976L268.219 100.982L280.991 100.983L281.185 100.99C282.863 101.109 284.171 102.507 284.171 104.197C284.171 105.912 282.829 107.313 281.139 107.408L280.956 107.413H273.203C272.532 107.413 271.988 107.957 271.988 108.628C271.988 109.014 272.17 109.365 272.46 109.59L272.574 109.668L272.669 109.719L275.292 109.719L275.486 109.727C277.104 109.841 278.378 111.145 278.467 112.786L278.472 112.969L278.464 113.163C278.35 114.781 277.046 116.055 275.437 116.144L275.257 116.149L273.632 116.148L268.668 125.746V132.137L292.806 132.137L292.805 142.11H301.299L301.3 132.137L308.879 132.137V124.32L301.3 124.32L301.299 109.789H292.805L292.806 124.32H278.57L296.76 89.61ZM397.427 89.61H388.028L380.251 104.644L372.885 104.644C372.214 104.644 371.67 105.188 371.67 105.859C371.67 106.488 372.148 107.005 372.761 107.068L372.885 107.074L378.994 107.073L369.335 125.746V132.137L393.473 132.137L393.472 142.11H401.967V132.137L409.546 132.137V124.32L401.967 124.32V109.789H393.472L393.473 124.32H379.237L389.549 104.643L388.91 104.643L388.716 104.636C387.038 104.517 385.73 103.119 385.73 101.428C385.73 99.714 387.072 98.313 388.762 98.2184L388.945 98.2133H404.451C405.122 98.2133 405.666 97.6693 405.666 96.9982C405.666 96.369 405.188 95.8516 404.575 95.7893L404.451 95.783L394.192 95.7824L397.427 89.61ZM338.913 96.6873C346.993 96.6873 352.429 104.037 352.429 115.841C352.429 127.644 346.993 134.994 338.913 134.994C330.859 134.994 325.398 127.627 325.398 115.841C325.398 104.055 330.859 96.6873 338.913 96.6873ZM338.913 98.6873C332.115 98.6873 327.398 105.052 327.398 115.841C327.398 126.63 332.115 132.994 338.913 132.994C345.736 132.994 350.429 126.648 350.429 115.841C350.429 105.034 345.736 98.6873 338.913 98.6873Z" fill="#979797"/>
</svg>
