<svg width="500" height="500" viewBox="0 0 500 500" fill="none" xmlns="http://www.w3.org/2000/svg">
<rect width="500" height="500" fill="white"/>
<path fill-rule="evenodd" clip-rule="evenodd" d="M401.439 271.953C417.698 271.953 430.879 258.711 430.879 242.377C430.879 226.042 417.698 212.801 401.439 212.801C385.18 212.801 372 226.042 372 242.377C372 247.16 373.13 251.678 375.137 255.676C375.614 256.627 376.851 258.384 378.846 260.948C379.324 261.803 379.934 262.603 380.678 263.346C386.001 268.666 393.338 271.953 401.439 271.953ZM440.943 309.051H394.982V299.03C394.982 297.925 395.878 297.03 396.982 297.03H404.009L406.665 300.92H438.943C440.048 300.92 440.943 301.816 440.943 302.92V309.051Z" fill="#E4F2D2"/>
<path fill-rule="evenodd" clip-rule="evenodd" d="M440.747 276C443.508 276 445.747 278.239 445.747 281C445.747 283.761 443.508 286 440.747 286H416.715L416.627 276H440.747ZM462.747 275C465.508 275 467.747 277.239 467.747 280C467.747 282.761 465.508 285 462.747 285H456.747C453.986 285 451.747 282.761 451.747 280C451.747 277.239 453.986 275 456.747 275H462.747ZM267.747 147C285.903 147 303.306 150.224 319.414 156.13C317.059 161.809 316.963 167.692 319.678 172.588C321.363 175.629 323.946 177.953 327.114 179.52C327.867 179.893 329.57 180.409 332.223 181.07C332.943 181.382 333.76 181.593 334.674 181.705C341.214 182.501 348.802 181.026 355.902 177.091C356.285 176.879 356.663 176.661 357.035 176.439C369.929 186 381.235 197.58 390.485 210.711C381.287 213.801 373.899 220.832 370.329 229.798L238.747 230V254H123.622C123.934 253.754 124.171 253.366 124.334 252.838C125.569 248.817 126.97 244.868 128.527 241L112.747 241C109.986 241 107.747 238.761 107.747 236C107.747 233.239 109.986 231 112.747 231L132.985 231C136.116 224.617 139.688 218.49 143.661 212.656C143.848 212.382 147.472 212.242 154.532 212.237H155.414C162.608 212.242 173.103 212.376 186.898 212.64L187.747 212.656V170.227C188.416 169.706 189.039 169.269 189.616 168.917C212.371 155.013 239.123 147 267.747 147ZM92.7471 231C95.5085 231 97.7471 233.239 97.7471 236C97.7471 238.761 95.5085 241 92.7471 241H82.7471C79.9856 241 77.7471 238.761 77.7471 236C77.7471 233.239 79.9856 231 82.7471 231H92.7471Z" fill="#E4F2D2"/>
<path d="M297.747 254H118.747V285H297.747V254Z" fill="#BBDE8F"/>
<path d="M384.747 354.5V356.5H297.959V354.5H384.747ZM364.747 343.5V345.5H297.63V343.5H364.747ZM364.747 317.5V319.5H297.547V317.5H364.747ZM384.747 303.5V305.5H297.685V303.5H384.747ZM364.747 292.5V294.5H297.856V292.5H364.747Z" fill="#BBDE8F"/>
<path fill-rule="evenodd" clip-rule="evenodd" d="M372 241.576C372 246.359 373.13 250.877 375.137 254.875C375.614 255.826 376.851 257.583 378.846 260.147C379.009 260.438 379.187 260.723 379.38 261.001H298.064L298 254.5H238.747V253.25V245.5V230L374.34 230C372.834 233.556 372 237.468 372 241.576Z" fill="#BBDE8F"/>
<path d="M362.585 405H302.202" stroke="#009639" stroke-width="2"/>
<path d="M372 242.376C372 244.685 372.263 246.933 372.762 249.09L284.763 249.428C282.553 249.437 280.756 247.653 280.747 245.444C280.739 243.301 282.416 241.546 284.532 241.434L284.732 241.428L372.027 241.092C372.009 241.518 372 241.946 372 242.376Z" fill="white"/>
<path d="M252.747 250C254.956 250 256.747 248.209 256.747 246C256.747 243.791 254.956 242 252.747 242C250.538 242 248.747 243.791 248.747 246C248.747 248.209 250.538 250 252.747 250Z" fill="#78BE20"/>
<path d="M266.747 250C268.956 250 270.747 248.209 270.747 246C270.747 243.791 268.956 242 266.747 242C264.538 242 262.747 243.791 262.747 246C262.747 248.209 264.538 250 266.747 250Z" fill="#E4F2D2"/>
<path d="M308.247 174V184" stroke="white" stroke-width="2" stroke-linecap="round"/>
<path d="M313.247 179H303.247" stroke="white" stroke-width="2" stroke-linecap="round"/>
<path d="M204.747 223V236" stroke="white" stroke-width="2" stroke-linecap="round"/>
<path d="M210.747 229.5H197.747" stroke="white" stroke-width="2" stroke-linecap="round"/>
<path d="M187.747 108V121" stroke="#7FCB9C" stroke-width="2" stroke-linecap="round"/>
<path d="M194.247 114.5H181.247" stroke="#7FCB9C" stroke-width="2" stroke-linecap="round"/>
<path d="M310.846 95V104" stroke="#CCEAD8" stroke-width="2" stroke-linecap="round"/>
<path d="M315.346 99.5H306.346" stroke="#CCEAD8" stroke-width="2" stroke-linecap="round"/>
<path d="M99.8052 352.8C110.041 352.8 118.582 360.619 119.784 370.841C126.583 371.221 132.16 376.18 133.489 382.687C146.863 383.852 157.875 393.529 160.551 406.327C164.196 402.788 169.207 400.616 174.702 400.616C184.679 400.616 193.043 407.772 194.575 417.248C200.429 417.265 205.167 422.051 205.167 427.949C205.167 428.501 204.719 428.949 204.167 428.949C203.615 428.949 203.167 428.501 203.167 427.949C203.167 423.141 199.304 419.247 194.543 419.247C193.209 419.247 191.921 419.552 190.751 420.131C190.256 420.376 189.656 420.173 189.411 419.678C189.166 419.183 189.369 418.584 189.864 418.339C190.723 417.914 191.634 417.608 192.578 417.43C191.143 408.989 183.648 402.616 174.702 402.616C165.705 402.616 158.162 409.066 156.798 417.602C158.281 417.931 159.699 418.486 161.011 419.248C161.489 419.526 161.651 420.138 161.373 420.615C161.096 421.093 160.484 421.255 160.006 420.977C158.066 419.85 155.861 419.247 153.566 419.247C146.69 419.247 141.076 424.654 140.735 431.453L142.011 431.454C142.563 431.454 143.011 431.901 143.011 432.454C143.011 432.966 142.625 433.389 142.127 433.447L142.011 433.454H131.164C130.611 433.454 130.164 433.006 130.164 432.454C130.164 431.941 130.55 431.518 131.047 431.46L131.164 431.454L138.733 431.453C139.075 423.55 145.585 417.247 153.566 417.247C153.987 417.247 154.406 417.265 154.821 417.3C155.378 413.795 156.869 410.606 159.03 407.977L158.828 408.01C156.844 395.596 146.497 386.028 133.759 384.722C133.779 385.038 133.789 385.356 133.789 385.677C133.789 386.229 133.342 386.677 132.789 386.677C132.237 386.677 131.789 386.229 131.789 385.677C131.789 378.575 126.038 372.818 118.943 372.818C116.648 372.818 114.443 373.42 112.502 374.548C112.025 374.825 111.413 374.663 111.135 374.185C110.858 373.708 111.02 373.096 111.497 372.818C113.408 371.708 115.543 371.037 117.772 370.863C116.595 361.741 108.944 354.8 99.8052 354.8C90.8413 354.8 83.3219 361.474 81.9169 370.318C82.8757 370.507 83.8001 370.838 84.6701 371.299C85.1581 371.558 85.3439 372.163 85.0852 372.651C84.8265 373.139 84.2212 373.325 83.7333 373.066C82.5693 372.449 81.2897 372.125 79.9663 372.125C75.4217 372.125 71.6714 375.968 71.3626 380.865L72.6335 380.866C73.1858 380.866 73.6335 381.314 73.6335 381.866C73.6335 382.379 73.2474 382.801 72.7501 382.859L72.6335 382.866H61.7864C61.2341 382.866 60.7864 382.418 60.7864 381.866C60.7864 381.353 61.1724 380.93 61.6698 380.873L61.7864 380.866L69.3593 380.865C69.6741 374.906 74.2638 370.148 79.9241 370.125C81.4288 360.266 89.8001 352.8 99.8052 352.8ZM117.544 431.454C118.096 431.454 118.544 431.901 118.544 432.454C118.544 432.966 118.158 433.389 117.66 433.447L117.544 433.454H114.772C114.22 433.454 113.772 433.006 113.772 432.454C113.772 431.941 114.158 431.518 114.655 431.46L114.772 431.454H117.544ZM126.553 431.454C127.105 431.454 127.553 431.901 127.553 432.454C127.553 432.966 127.167 433.389 126.669 433.447L126.553 433.454H122.542C121.989 433.454 121.542 433.006 121.542 432.454C121.542 431.941 121.928 431.518 122.425 431.46L122.542 431.454H126.553ZM401.439 212C418.251 212 431.878 225.69 431.878 242.576C431.878 259.462 418.251 273.152 401.439 273.152C392.204 273.152 383.931 269.022 378.348 262.5L298.746 262.499L298.747 428H309.247C309.799 428 310.247 428.448 310.247 429C310.247 429.513 309.861 429.936 309.364 429.993L309.247 430H209.787V428H296.747L296.746 285.5H119.747V296.434H117.747V253H298.747L298.746 260.499L376.776 260.5C373.142 255.464 371 249.271 371 242.576C371 225.69 384.627 212 401.439 212ZM418.747 342.702L418.747 364.67C419.913 364.237 421.174 364 422.491 364C424.412 364 426.262 364.505 427.889 365.451C428.366 365.728 428.528 366.34 428.251 366.818C427.973 367.295 427.361 367.457 426.884 367.18C425.56 366.411 424.057 366 422.491 366C417.651 366 413.727 369.927 413.727 374.773C413.727 375.325 413.279 375.773 412.727 375.773C412.413 375.773 412.133 375.628 411.949 375.401C403.266 376.32 396.196 382.766 394.669 391.171C395.937 392.792 396.858 394.691 397.321 396.765C397.571 396.747 397.823 396.739 398.077 396.739C403.768 396.739 408.427 401.159 408.815 406.756L413.854 406.756L413.971 406.762C414.468 406.82 414.854 407.243 414.854 407.756C414.854 408.269 414.468 408.691 413.971 408.749L413.854 408.756H406.206L406.089 408.749C405.592 408.691 405.206 408.269 405.206 407.756C405.206 407.243 405.592 406.82 406.089 406.762L406.206 406.756L406.809 406.756C406.426 402.264 402.663 398.739 398.077 398.739C396.511 398.739 395.008 399.149 393.684 399.919C393.207 400.196 392.595 400.034 392.317 399.556C392.04 399.079 392.202 398.467 392.679 398.189C393.515 397.704 394.41 397.334 395.343 397.09C394.071 391.63 389.077 387.6 383.173 387.6C377.109 387.6 372.014 391.849 370.91 397.521C371.501 397.656 372.072 397.859 372.614 398.127C373.109 398.372 373.312 398.972 373.067 399.467C372.822 399.962 372.222 400.165 371.727 399.92C370.942 399.532 370.079 399.327 369.184 399.327C365.99 399.327 363.398 401.941 363.398 405.168C363.398 405.72 362.95 406.168 362.398 406.168C361.845 406.168 361.398 405.72 361.398 405.168C361.398 400.931 364.736 397.477 368.911 397.332C370.116 390.63 376.078 385.6 383.173 385.6C386.957 385.6 390.422 387.032 393.014 389.388C395.206 380.784 402.717 374.336 411.814 373.403C412.227 370.143 414.095 367.338 416.748 365.66L416.747 342.702H418.747ZM420.545 406.756L420.662 406.762C421.159 406.82 421.545 407.243 421.545 407.756C421.545 408.269 421.159 408.691 420.662 408.749L420.545 408.756H417.717L417.601 408.749C417.103 408.691 416.717 408.269 416.717 407.756C416.717 407.243 417.103 406.82 417.601 406.762L417.717 406.756H420.545ZM121.473 299.173L122.229 299.277L123.071 305.711L123.408 305.808C124.574 306.159 125.697 306.625 126.766 307.199L127.07 307.367L132.219 303.41L132.827 303.87C134.599 305.209 136.236 306.838 137.598 308.638L138.058 309.246L134.101 314.395L134.27 314.698C134.845 315.768 135.312 316.892 135.665 318.058L135.762 318.396L142.197 319.24L142.302 319.995C142.607 322.203 142.613 324.491 142.302 326.739L142.197 327.494L135.762 328.336L135.665 328.676C135.312 329.842 134.845 330.966 134.27 332.035L134.102 332.338L138.058 337.487L137.598 338.096C136.255 339.871 134.623 341.506 132.828 342.864L132.219 343.324L127.069 339.365L126.766 339.534C125.697 340.108 124.574 340.574 123.408 340.926L123.071 341.022L122.229 347.457L121.473 347.561C119.187 347.876 117.016 347.876 114.727 347.559L113.971 347.454L113.129 341.016L112.792 340.92C111.629 340.568 110.507 340.102 109.44 339.528L109.138 339.359L103.99 343.317L103.381 342.857C101.579 341.493 99.973 339.886 98.6107 338.084L98.151 337.476L102.11 332.326L101.942 332.025C101.369 330.958 100.904 329.838 100.553 328.675L100.456 328.339L94.0202 327.497L93.9157 326.741C93.6008 324.466 93.5979 322.291 93.9156 319.993L94.0201 319.237L100.456 318.394L100.553 318.059C100.904 316.897 101.369 315.777 101.941 314.71L102.109 314.407L98.1507 309.257L98.6104 308.649C99.973 306.847 101.579 305.24 103.381 303.876L103.989 303.416L109.138 307.373L109.44 307.206C110.507 306.632 111.629 306.166 112.792 305.814L113.129 305.716L113.971 299.28L114.727 299.175C117.016 298.858 119.187 298.858 121.473 299.173ZM116.14 301.026L115.755 301.064L114.936 307.323L114.268 307.484C112.608 307.885 111.033 308.541 109.584 309.429L108.998 309.788L103.992 305.94L103.703 306.176C102.693 307.024 101.758 307.959 100.91 308.97L100.675 309.259L104.523 314.266L104.164 314.853C103.278 316.301 102.623 317.876 102.224 319.533L102.064 320.201L95.8064 321.02L95.7665 321.409C95.6485 322.732 95.6494 324.02 95.7672 325.334L95.8064 325.713L102.064 326.532L102.224 327.201C102.623 328.859 103.278 330.433 104.164 331.881L104.523 332.467L100.675 337.474L100.911 337.763C101.758 338.774 102.693 339.709 103.703 340.557L103.992 340.792L108.998 336.945L109.585 337.305C111.033 338.193 112.609 338.849 114.268 339.249L114.936 339.41L115.755 345.669L116.14 345.708C117.458 345.826 118.745 345.827 120.062 345.709L120.446 345.67L121.264 339.414L121.933 339.254C123.595 338.855 125.173 338.199 126.624 337.311L127.211 336.952L132.217 340.799L132.505 340.564C133.517 339.714 134.461 338.769 135.305 337.764L135.534 337.484L131.686 332.479L132.046 331.893C132.936 330.441 133.594 328.862 133.994 327.198L134.155 326.53L140.411 325.711L140.457 325.223C140.559 323.977 140.558 322.726 140.456 321.494L140.411 321.022L134.155 320.204L133.994 319.535C133.594 317.872 132.936 316.293 132.046 314.841L131.686 314.254L135.534 309.249L135.297 308.96C134.445 307.946 133.499 307.004 132.495 306.161L132.218 305.934L127.211 309.782L126.624 309.423C125.173 308.534 123.595 307.879 121.933 307.48L121.264 307.319L120.446 301.063L120.062 301.024C118.745 300.907 117.458 300.907 116.14 301.026ZM418.747 272.204L418.747 300.108L439.053 300.109C440.532 300.109 441.753 301.228 441.923 302.666L441.938 302.84L441.943 303.01V337.049C441.943 338.591 440.739 339.856 439.223 339.944L439.053 339.949H396.873C395.334 339.949 394.075 338.74 393.987 337.219L393.982 337.049V298.931C393.982 297.388 395.186 296.123 396.703 296.034L396.873 296.029H404.527L407.403 300.109L416.747 300.108L416.747 272.204H418.747ZM439.943 310.05H395.982V337.049C395.982 337.508 396.324 337.887 396.762 337.942L396.873 337.949H439.053C439.504 337.949 439.881 337.606 439.936 337.162L439.943 337.049V310.05ZM118.109 313.689C123.454 313.689 127.787 318.022 127.787 323.367C127.787 328.712 123.454 333.045 118.109 333.045C112.764 333.045 108.431 328.712 108.431 323.367C108.431 318.022 112.764 313.689 118.109 313.689ZM118.109 315.689C113.868 315.689 110.431 319.127 110.431 323.367C110.431 327.607 113.868 331.045 118.109 331.045C122.349 331.045 125.787 327.607 125.787 323.367C125.787 319.127 122.349 315.689 118.109 315.689ZM403.49 298.029H396.873C396.421 298.029 396.044 298.373 395.989 298.818L395.982 298.931V308.05H439.943V303.01C439.943 302.551 439.601 302.172 439.164 302.116L439.053 302.109H406.366L403.49 298.029ZM81.6848 272.842L84.0221 276.936L84.2657 276.912C85.0454 276.847 85.8274 276.851 86.6047 276.922L86.8461 276.947L89.2185 272.869L89.9554 273.064C91.5273 273.481 93.0897 274.13 94.5162 274.974L95.1726 275.363L93.9301 279.913L94.1168 280.066C94.7135 280.571 95.2654 281.126 95.7667 281.728L95.9211 281.919L100.48 280.714L100.863 281.374C101.683 282.786 102.322 284.337 102.736 285.949L102.925 286.688L98.8301 289.025L98.8543 289.271C98.9188 290.051 98.9147 290.834 98.843 291.612L98.8171 291.852L102.894 294.225L102.699 294.962C102.281 296.536 101.63 298.098 100.787 299.522L100.398 300.178L95.8471 298.934L95.6926 299.122C95.1884 299.718 94.6334 300.269 94.0322 300.77L93.8421 300.922L95.0464 305.481L94.3863 305.864C92.9243 306.712 91.4496 307.316 89.8091 307.736L89.0704 307.926L86.7321 303.829L86.4883 303.853C85.7094 303.917 84.9284 303.913 84.1525 303.841L83.9141 303.815L81.5416 307.893L80.8044 307.697C79.2032 307.273 77.6669 306.628 76.2421 305.784L75.5861 305.396L76.8311 300.843L76.6441 300.692C76.0496 300.189 75.4997 299.635 75.0001 299.035L74.8481 298.845L70.2884 300.051L69.9054 299.391C69.06 297.935 68.4537 296.459 68.0313 294.813L67.8417 294.074L71.9381 291.735L71.9132 291.494C71.8489 290.716 71.8527 289.936 71.9239 289.16L71.9501 288.921L67.871 286.549L68.066 285.812C68.4896 284.211 69.1331 282.675 69.9769 281.249L70.3653 280.592L74.9171 281.835L75.0683 281.65C75.5712 281.054 76.1251 280.504 76.7253 280.003L76.9161 279.85L75.7101 275.29L76.3695 274.907C77.8337 274.056 79.3084 273.452 80.9457 273.031L81.6848 272.842ZM80.7151 275.174L80.4917 275.243C79.7148 275.492 78.9752 275.795 78.246 276.163L78.0391 276.271L79.1952 280.647L78.6379 281.049C77.6626 281.753 76.8104 282.601 76.1028 283.567L75.6962 284.122L71.3301 282.928L71.2246 283.126C70.8523 283.854 70.5362 284.609 70.2792 285.384L70.2131 285.597L74.1256 287.874L74.0157 288.552C73.8243 289.734 73.8176 290.935 74.0001 292.122L74.1045 292.802L70.1751 295.044L70.2439 295.272C70.4941 296.051 70.7976 296.791 71.1643 297.519L71.2711 297.722L75.6453 296.566L76.0474 297.124C76.7498 298.098 77.5971 298.95 78.5619 299.658L79.116 300.065L77.9231 304.432L78.12 304.537C78.847 304.91 79.6018 305.226 80.3773 305.484L80.5911 305.55L82.8667 301.638L83.5458 301.749C84.7274 301.941 85.9296 301.949 87.1191 301.767L87.7982 301.663L90.0421 305.592L90.2658 305.525C91.0436 305.275 91.7833 304.973 92.512 304.606L92.7181 304.497L91.5617 300.125L92.1199 299.723C93.0968 299.019 93.9506 298.17 94.6605 297.203L95.0671 296.648L99.4351 297.841L99.5395 297.642C99.9128 296.912 100.231 296.15 100.488 295.379L100.552 295.175L96.6399 292.9L96.7504 292.221C96.9432 291.036 96.9503 289.831 96.7672 288.639L96.6627 287.96L100.591 285.717L100.524 285.5C100.271 284.719 99.9589 283.959 99.5947 283.232L99.4961 283.042L95.1231 284.199L94.721 283.641C94.0164 282.663 93.1662 281.809 92.1979 281.1L91.6427 280.693L92.8361 276.327L92.636 276.221C91.9047 275.848 91.1431 275.53 90.372 275.275L90.1701 275.21L87.8932 279.124L87.2145 279.014C86.0304 278.822 84.8265 278.816 83.6367 278.999L82.9567 279.104L80.7151 275.174ZM85.3837 283.745C89.0493 283.745 92.0209 286.716 92.0209 290.382C92.0209 294.047 89.0493 297.019 85.3837 297.019C81.718 297.019 78.7464 294.047 78.7464 290.382C78.7464 286.716 81.718 283.745 85.3837 283.745ZM85.3837 285.745C82.8226 285.745 80.7464 287.821 80.7464 290.382C80.7464 292.943 82.8226 295.019 85.3837 295.019C87.9448 295.019 90.0209 292.943 90.0209 290.382C90.0209 287.821 87.9448 285.745 85.3837 285.745ZM296.747 255H119.747L119.747 283.5H296.746L296.747 255ZM401.439 214C385.734 214 373 226.793 373 242.576C373 258.359 385.734 271.152 401.439 271.152C417.145 271.152 429.878 258.359 429.878 242.576C429.878 226.793 417.145 214 401.439 214ZM402.745 231L402.744 241.744L413.489 241.745V243.745L402.744 243.744L402.745 254.489H400.745L400.744 243.744L390 243.745V241.745L400.744 241.744L400.745 231H402.745ZM369.628 229V231H239.747L239.747 250.442H237.747V229H369.628Z" fill="#009639"/>
<path fill-rule="evenodd" clip-rule="evenodd" d="M353.818 151.754C360.042 159.214 359.39 166.452 351.863 173.468C347.741 177.31 343.328 178.507 340.508 178.863C335.454 179.5 331.406 177.924 328.364 174.136C336.111 174.7 342.57 172.515 347.741 167.581C352.912 162.646 354.938 157.371 353.818 151.754Z" fill="#E4F2D2"/>
<path fill-rule="evenodd" clip-rule="evenodd" d="M342.878 164.948C347.885 161.154 349.72 155.112 346.976 151.451C344.231 147.79 337.947 147.897 332.94 151.69C327.933 155.483 326.098 161.526 328.842 165.187C331.587 168.848 337.871 168.741 342.878 164.948Z" fill="#E4F2D2"/>
<path d="M414 189C415.657 189 417 187.657 417 186C417 184.343 415.657 183 414 183C412.343 183 411 184.343 411 186C411 187.657 412.343 189 414 189Z" fill="#E4F2D2"/>
<path d="M164.747 269.428L275.747 269" stroke="white" stroke-width="8" stroke-linecap="round"/>
<path d="M132.747 274C134.956 274 136.747 272.209 136.747 270C136.747 267.791 134.956 266 132.747 266C130.538 266 128.747 267.791 128.747 270C128.747 272.209 130.538 274 132.747 274Z" fill="#78BE20"/>
<path d="M146.747 274C148.956 274 150.747 272.209 150.747 270C150.747 267.791 148.956 266 146.747 266C144.538 266 142.747 267.791 142.747 270C142.747 272.209 144.538 274 146.747 274Z" fill="#E4F2D2"/>
<path fill-rule="evenodd" clip-rule="evenodd" d="M253.031 151.943C250.091 151.044 246.944 150.803 244.754 151.297C241.895 151.943 239.18 153.761 233.91 154.927C230.397 155.705 226.11 155.524 221.312 153.747V138.781C221.882 138.843 223.04 138.843 224.789 138.781V149.085C228.658 150.262 232.561 149.954 236.499 148.159C240.436 146.365 245.947 145.389 253.031 145.231V151.943Z" fill="#E4F2D2"/>
<path fill-rule="evenodd" clip-rule="evenodd" d="M224.225 132.648C227.971 133.183 231.494 132.754 234.794 131.362C239.743 129.272 242.127 127.555 247.035 127.062C250.306 126.733 253.276 127.721 255.943 130.025V146.775C253.082 145.594 250.208 145.142 247.323 145.42C242.994 145.837 238.495 148.641 234.088 149.983C231.15 150.878 227.862 150.736 224.225 149.557V132.648Z" fill="white"/>
<path d="M316.143 428C316.696 428 317.143 428.448 317.143 429C317.143 429.513 316.757 429.936 316.26 429.993L316.143 430H313.685C313.133 430 312.685 429.552 312.685 429C312.685 428.487 313.071 428.064 313.568 428.007L313.685 428H316.143Z" fill="#009639"/>
<path d="M260.506 48C252.414 48 245.616 53.9172 244.28 61.7923L243.964 61.7764L243.566 61.7697C236.979 61.7697 231.648 67.2126 231.648 73.9166L231.652 73.62L223.747 73.6209C223.234 73.6209 222.811 74.007 222.753 74.5043L222.747 74.6209C222.747 75.1732 223.194 75.6209 223.747 75.6209H232.803C233.355 75.6209 233.803 75.1732 233.803 74.6209C233.803 74.4157 233.741 74.2249 233.635 74.0662C233.644 74.0179 233.648 73.9677 233.648 73.9166C233.648 68.308 238.093 63.7697 243.566 63.7697C245.335 63.7697 247.034 64.2432 248.53 65.1302C249.005 65.4118 249.619 65.255 249.9 64.7799C250.182 64.3049 250.025 63.6914 249.55 63.4098C248.524 62.8014 247.417 62.3541 246.261 62.0817C247.453 55.1784 253.417 50 260.506 50C267.572 50 273.511 55.1426 274.737 61.9983C274.084 62.149 273.454 62.3768 272.855 62.6759C272.36 62.9224 272.16 63.523 272.406 64.0171C272.653 64.5113 273.253 64.712 273.748 64.4654C274.661 64.0097 275.666 63.7697 276.708 63.7697C280.204 63.7697 283.084 66.4849 283.416 69.9653L282.226 69.966C281.674 69.966 281.226 70.4137 281.226 70.966C281.226 71.5182 281.674 71.966 282.226 71.966H291.282C291.835 71.966 292.282 71.5182 292.282 70.966C292.282 70.4137 291.835 69.966 291.282 69.966L285.423 69.9655C285.084 65.3849 281.315 61.7697 276.708 61.7697L276.727 61.7697C275.384 53.9134 268.597 48 260.506 48ZM297.063 69.9298C296.511 69.9298 296.063 70.3775 296.063 70.9298C296.063 71.4821 296.511 71.9298 297.063 71.9298H301.467C302.019 71.9298 302.467 71.4821 302.467 70.9298C302.467 70.3775 302.019 69.9298 301.467 69.9298H297.063Z" fill="#B2E0C4"/>
<path d="M409.968 122C415.584 122 420.307 126.04 421.355 131.449C424.457 131.583 426.974 133.989 427.341 137.062L431.057 137.062C431.609 137.062 432.057 137.51 432.057 138.062C432.057 138.615 431.609 139.062 431.057 139.062H424.847C424.295 139.062 423.847 138.615 423.847 138.062C423.847 137.51 424.295 137.062 424.847 137.062L425.32 137.062C424.961 135.002 423.196 133.442 421.079 133.442C420.414 133.442 419.772 133.595 419.19 133.886C418.695 134.133 418.095 133.932 417.848 133.438C417.602 132.944 417.802 132.343 418.297 132.097C418.639 131.926 418.995 131.787 419.361 131.682C418.438 127.274 414.56 124 409.968 124C405.36 124 401.466 127.297 400.562 131.74C401.282 131.935 401.972 132.228 402.617 132.611C403.092 132.892 403.248 133.506 402.967 133.981C402.685 134.456 402.072 134.613 401.597 134.331C400.619 133.751 399.509 133.442 398.353 133.442C394.775 133.442 391.866 136.412 391.866 140.086L391.863 140.145C391.923 140.274 391.957 140.417 391.957 140.569C391.957 141.121 391.509 141.569 390.957 141.569H384.747C384.195 141.569 383.747 141.121 383.747 140.569C383.747 140.016 384.195 139.569 384.747 139.569L389.881 139.568C390.144 135.039 393.832 131.442 398.353 131.442L398.581 131.447C399.63 126.034 404.357 122 409.968 122ZM442.603 137.038C443.155 137.038 443.603 137.485 443.603 138.038C443.603 138.59 443.155 139.038 442.603 139.038H436.393C435.84 139.038 435.393 138.59 435.393 138.038C435.393 137.485 435.84 137.038 436.393 137.038H442.603Z" fill="#CCEAD8"/>
<path d="M110.382 137C104.766 137 100.043 141.04 98.9955 146.449C95.8936 146.583 93.376 148.989 93.0094 152.062L89.2929 152.062C88.7406 152.062 88.2929 152.51 88.2929 153.062C88.2929 153.615 88.7406 154.062 89.2929 154.062H95.5028C96.0551 154.062 96.5028 153.615 96.5028 153.062C96.5028 152.51 96.0551 152.062 95.5028 152.062L95.0302 152.062C95.3894 150.002 97.1544 148.442 99.2712 148.442C99.9361 148.442 100.578 148.595 101.161 148.886C101.655 149.133 102.255 148.932 102.502 148.438C102.748 147.944 102.548 147.343 102.054 147.097C101.712 146.926 101.356 146.787 100.989 146.682C101.913 142.274 105.79 139 110.382 139C114.99 139 118.884 142.297 119.788 146.74C119.068 146.935 118.378 147.228 117.734 147.611C117.258 147.892 117.102 148.506 117.383 148.981C117.665 149.456 118.278 149.613 118.753 149.331C119.731 148.751 120.841 148.442 121.997 148.442C125.575 148.442 128.484 151.412 128.484 155.086L128.487 155.145C128.427 155.274 128.393 155.417 128.393 155.569C128.393 156.121 128.841 156.569 129.393 156.569H135.603C136.155 156.569 136.603 156.121 136.603 155.569C136.603 155.016 136.155 154.569 135.603 154.569L130.469 154.568C130.206 150.039 126.518 146.442 121.997 146.442L121.769 146.447C120.72 141.034 115.993 137 110.382 137ZM77.7475 152.038C77.1952 152.038 76.7475 152.485 76.7475 153.038C76.7475 153.59 77.1952 154.038 77.7475 154.038H83.9573C84.5096 154.038 84.9573 153.59 84.9573 153.038C84.9573 152.485 84.5096 152.038 83.9573 152.038H77.7475Z" fill="#E5F5EB"/>
<path d="M202.967 428.988H210.06" stroke="#009639" stroke-width="2" stroke-linecap="round"/>
<path d="M118.747 349.994V372.511" stroke="#009639" stroke-width="2"/>
<path fill-rule="evenodd" clip-rule="evenodd" d="M182.923 177.498V207.999H122.57V198.999L173.638 198.624L174 177.498H182.923Z" fill="#E4F2D2"/>
<path d="M183.923 177.499V209H121.57V202.271H123.57L123.57 206.999H181.923L181.923 177.499H183.923ZM151.641 162V164H114.285L114.285 177.045C114.285 177.051 114.285 177.057 114.285 177.062L114.284 177.079L114.285 185.014C114.285 185.02 114.285 185.026 114.285 185.031L114.284 185.048L114.285 197.625H172.638L172.638 179.783H174.638V199.625H112.285L112.285 186.031L105.857 186.031C105.305 186.031 104.857 185.584 104.857 185.031C104.857 184.518 105.243 184.096 105.74 184.038L105.857 184.031L112.285 184.031V178.062L104 178.062C103.448 178.062 103 177.615 103 177.062C103 176.55 103.386 176.127 103.883 176.069L104 176.062L112.285 176.062L112.285 162H151.641ZM131.855 188.719V190.719H120.713V188.719H131.855ZM139.283 188.719V190.719H135.569V188.719H139.283ZM126.284 181.688V183.688H120.713V181.688H126.284Z" fill="#009639"/>
<path fill-rule="evenodd" clip-rule="evenodd" d="M159.114 147.754C152.89 155.214 153.542 162.452 161.069 169.468C165.191 173.31 169.604 174.507 172.425 174.863C177.479 175.5 181.527 173.924 184.568 170.136C176.821 170.7 170.363 168.515 165.191 163.581C160.02 158.646 157.994 153.371 159.114 147.754Z" fill="#E4F2D2"/>
<path fill-rule="evenodd" clip-rule="evenodd" d="M170.053 160.948C165.046 157.154 163.211 151.112 165.956 147.451C168.7 143.79 174.984 143.897 179.991 147.69C184.999 151.483 186.833 157.526 184.089 161.187C181.345 164.848 175.061 164.741 170.053 160.948Z" fill="#E4F2D2"/>
<path d="M362 91C363.657 91 365 89.6569 365 88C365 86.3431 363.657 85 362 85C360.343 85 359 86.3431 359 88C359 89.6569 360.343 91 362 91Z" stroke="#E5F5EB" stroke-width="2"/>
<path d="M257.642 335.193V337.193L203.227 337.193V398.613H264.646L264.646 349.276H266.646V400.613H201.227V335.193H257.642ZM229.486 387.583V389.583H213.308V387.583H229.486ZM254.304 387.583V389.583H238.126V387.583H254.304ZM229.486 379.311V381.311H213.308V379.311H229.486ZM254.304 379.311V381.311H238.126V379.311H254.304ZM230.767 354.495V373.039H212.223V354.495H230.767ZM254.304 371.038V373.038H238.126V371.038H254.304ZM223.627 307.193L223.885 332.135L221.885 332.155L221.647 309.193H160.218V370.613H198.163V372.613H158.219V307.193H223.627ZM228.767 356.495H214.222V371.039H228.767V356.495ZM254.304 362.766V364.766H238.126V362.766H254.304ZM182.578 343.039C183.867 343.039 184.922 344.043 185.005 345.311L185.01 345.471V356.394C185.01 357.684 184.006 358.739 182.738 358.821L182.578 358.826H171.655C170.365 358.826 169.31 357.823 169.228 356.554L169.223 356.394V345.471C169.223 344.182 170.226 343.127 171.495 343.044L171.655 343.039H182.578ZM182.578 345.039H171.655C171.443 345.039 171.266 345.192 171.23 345.393L171.223 345.471V356.394C171.223 356.606 171.376 356.783 171.577 356.819L171.655 356.826H182.578C182.79 356.826 182.966 356.673 183.003 356.472L183.01 356.394V345.471C183.01 345.233 182.816 345.039 182.578 345.039ZM254.304 354.494V356.494H238.126V354.494H254.304ZM199.351 351.311V353.311H192.396V351.311H199.351ZM258.677 324.724L277.62 339.26L271.685 341.619L276.601 347.948L271.04 351.676L267.058 344.332L261.987 348.728L258.677 324.724ZM261.323 329.275L263.464 344.801L267.63 341.191L271.75 348.79L273.705 347.48L268.472 340.744L273.607 338.702L261.323 329.275ZM254.307 346.222V348.222H213.31V346.222H254.307ZM199.229 345.797V347.797H192.396V345.797H199.229ZM182.578 318.221C183.867 318.221 184.922 319.225 185.005 320.493L185.01 320.653V331.577C185.01 332.866 184.006 333.921 182.738 334.003L182.578 334.008H171.655C170.365 334.008 169.31 333.005 169.228 331.737L169.223 331.577V320.653C169.223 319.364 170.226 318.309 171.495 318.227L171.655 318.221H182.578ZM182.578 320.221H171.655C171.443 320.221 171.266 320.374 171.23 320.575L171.223 320.653V331.577C171.223 331.788 171.376 331.965 171.577 332.001L171.655 332.008H182.578C182.79 332.008 182.966 331.855 183.003 331.654L183.01 331.577V320.653C183.01 320.415 182.816 320.221 182.578 320.221ZM211.412 326.493V328.493H192.396V326.493H211.412ZM211.412 320.979V322.979H192.396V320.979H211.412Z" fill="#BBDE8F"/>
<path d="M183.399 143.583C191.438 149.652 194.353 159.529 189.738 165.741L189.805 165.796L185.379 170.99L185.195 171.228C180.474 177.178 170.305 177.034 162.338 170.996C157.902 167.635 155.149 163.066 154.405 158.584L144.318 158.584L144.201 158.577C143.704 158.52 143.318 158.097 143.318 157.584C143.318 157.071 143.704 156.649 144.201 156.591L144.318 156.584L154.207 156.584C154.17 155.404 154.28 154.244 154.542 153.129L150.364 153.129L150.247 153.122C149.75 153.064 149.364 152.642 149.364 152.129C149.364 151.616 149.75 151.193 150.247 151.135L150.364 151.129H155.136L155.199 151.132C155.492 150.45 155.85 149.793 156.276 149.168L153.545 149.168L153.429 149.162C152.931 149.104 152.545 148.681 152.545 148.168C152.545 147.656 152.931 147.233 153.429 147.175L153.545 147.168H157.239L157.355 147.175C157.474 147.189 157.586 147.223 157.688 147.275L159.679 144.635C159.881 144.294 160.104 143.961 160.346 143.638C160.597 143.306 160.863 142.991 161.145 142.694L161.231 142.579L161.245 142.59C166.246 137.459 175.819 137.861 183.399 143.583ZM172.945 169.264L170.466 172.917C171.743 173.284 173.012 173.503 174.241 173.576L176.501 170.186C175.323 169.992 174.131 169.685 172.945 169.264ZM183.747 169.833C182.194 170.295 180.504 170.489 178.749 170.418L176.68 173.52C179.506 173.212 181.969 172.035 183.616 170.001L183.747 169.833ZM167.81 166.675L165.036 170.44C166.171 171.165 167.337 171.765 168.509 172.24L171.05 168.493C169.951 167.986 168.865 167.38 167.81 166.675ZM162.989 162.444L160.017 166.009C160.9 167.093 161.93 168.119 163.1 169.055L163.399 169.288L166.193 165.498C165.003 164.556 163.932 163.529 162.989 162.444ZM162.662 144.003L161.353 145.737C158.326 151.004 160.988 159.071 167.852 164.252C175.117 169.737 184.185 169.797 188.101 164.591C192.017 159.384 189.46 150.665 182.194 145.179C175.342 140.006 166.886 139.659 162.662 144.003ZM180.595 146.892C185.997 150.984 188.012 157.621 184.889 161.786C181.764 165.956 174.854 165.838 169.45 161.744C164.048 157.652 162.033 151.016 165.156 146.85C168.281 142.68 175.191 142.798 180.595 146.892ZM160.021 158.069L157.26 161.379C157.663 162.384 158.178 163.378 158.803 164.342L161.718 160.843C161.069 159.943 160.502 159.014 160.021 158.069ZM166.756 148.05C164.39 151.206 166.045 156.655 170.658 160.15C175.268 163.643 180.926 163.739 183.289 160.587C185.655 157.43 184.001 151.981 179.388 148.486C174.777 144.994 169.119 144.897 166.756 148.05ZM158.124 150.02L158.006 150.182C156.247 152.688 155.803 155.881 156.547 159.116L159.125 156.021C158.384 154.009 158.038 151.969 158.124 150.02ZM146.977 151.129L147.094 151.135C147.591 151.193 147.977 151.616 147.977 152.129C147.977 152.642 147.591 153.064 147.094 153.122L146.977 153.129H145.784L145.667 153.122C145.17 153.064 144.784 152.642 144.784 152.129C144.784 151.616 145.17 151.193 145.667 151.135L145.784 151.129H146.977ZM222.312 138.781L222.312 153.041L222.619 153.146C226.442 154.406 230.065 154.667 233.293 154.035L233.694 153.951C235.108 153.638 236.395 153.266 237.702 152.808L238.386 152.56C238.778 152.401 242.913 150.747 244.036 150.445C244.204 150.4 244.37 150.359 244.534 150.322C246.482 149.882 249.059 149.975 251.623 150.54L252.031 150.634L252.031 148.159H254.031V153.295L252.739 152.899C249.961 152.05 246.985 151.819 244.975 152.273C244.837 152.304 244.697 152.338 244.555 152.377L244.327 152.444C243.274 152.776 240.656 153.809 239.553 154.248L239.319 154.341C239.151 154.408 239.053 154.448 239.05 154.449C237.433 155.046 235.869 155.518 234.126 155.904C230.29 156.752 225.975 156.446 221.467 154.866L220.965 154.685L220.312 154.443L220.312 149.749L211.537 149.75C210.985 149.75 210.537 149.302 210.537 148.75C210.537 148.237 210.923 147.814 211.42 147.757L211.537 147.75L220.312 147.749V144.312L216.045 144.312C215.493 144.312 215.045 143.865 215.045 143.312C215.045 142.8 215.431 142.377 215.929 142.319L216.045 142.312L220.312 142.312L220.312 138.781H222.312ZM255.943 130.025V146.775C253.082 145.594 250.208 145.142 247.322 145.42C244.797 145.663 242.214 146.719 239.625 147.823L238.516 148.296C237.036 148.926 235.557 149.536 234.088 149.983C231.149 150.878 227.862 150.736 224.224 149.557V132.648C227.971 133.183 231.494 132.754 234.794 131.362C239.743 129.272 242.127 127.555 247.034 127.062C250.306 126.733 253.276 127.721 255.943 130.025ZM206.96 147.75C207.512 147.75 207.96 148.198 207.96 148.75C207.96 149.263 207.574 149.686 207.076 149.743L206.96 149.75H205.193C204.641 149.75 204.193 149.302 204.193 148.75C204.193 148.237 204.579 147.814 205.077 147.757L205.193 147.75H206.96ZM247.234 129.052C245.207 129.255 243.605 129.678 241.734 130.445L241.343 130.613C240.032 131.188 236.746 132.708 235.571 133.204C232.69 134.42 229.652 134.97 226.477 134.856L226.224 134.844V148.052L226.511 148.123C228.962 148.698 231.177 148.705 233.174 148.165L233.505 148.07L233.936 147.935C234.87 147.632 235.832 147.257 237.259 146.657L239.542 145.688C243.062 144.215 244.857 143.648 247.131 143.429C249.332 143.217 251.525 143.386 253.702 143.931L253.943 143.994V130.982L253.815 130.885C251.789 129.408 249.622 128.812 247.234 129.052ZM239.631 134.156C242.185 134.156 244.256 136.227 244.256 138.781C244.256 141.336 242.185 143.406 239.631 143.406C237.076 143.406 235.006 141.336 235.006 138.781C235.006 136.227 237.076 134.156 239.631 134.156ZM239.631 136.156C238.181 136.156 237.006 137.332 237.006 138.781C237.006 140.231 238.181 141.406 239.631 141.406C241.08 141.406 242.256 140.231 242.256 138.781C242.256 137.332 241.08 136.156 239.631 136.156ZM329.533 147.583C337.127 141.85 346.722 141.457 351.715 146.619L351.766 146.579L352.209 147.165C352.338 147.319 352.464 147.476 352.586 147.638C352.7 147.791 352.811 147.946 352.917 148.103L355.241 151.183C355.258 151.18 355.275 151.177 355.292 151.175L355.409 151.168H359.102C359.654 151.168 360.102 151.616 360.102 152.168C360.102 152.681 359.716 153.104 359.219 153.162L359.102 153.168L356.721 153.168C357.147 153.792 357.505 154.448 357.798 155.129L362.568 155.129C363.12 155.129 363.568 155.576 363.568 156.129C363.568 156.642 363.182 157.064 362.685 157.122L362.568 157.129L358.455 157.129C358.717 158.244 358.827 159.404 358.791 160.584L368.25 160.584C368.802 160.584 369.25 161.032 369.25 161.584C369.25 162.097 368.864 162.52 368.367 162.577L368.25 162.584L358.593 162.584C357.848 167.066 355.095 171.635 350.66 174.996C342.692 181.034 332.523 181.178 327.802 175.228L327.619 174.99L323.193 169.796L323.218 169.775C318.569 163.565 321.479 153.663 329.533 147.583ZM340.674 173.007C339.262 173.562 337.836 173.955 336.431 174.186L338.693 177.579C340.152 177.499 341.669 177.212 343.189 176.715L340.674 173.007ZM329.269 173.857L329.18 173.742C330.81 175.918 333.332 177.178 336.245 177.512L334.182 174.418C332.46 174.488 330.8 174.302 329.269 173.857ZM345.692 170.282C344.666 171.011 343.607 171.644 342.53 172.181L345.105 175.979C346.253 175.469 347.392 174.839 348.496 174.088L345.692 170.282ZM350.376 165.932C349.469 167.038 348.433 168.09 347.275 169.06L350.1 172.892C351.359 171.858 352.451 170.72 353.367 169.519L350.376 165.932ZM350.652 148.422C346.573 143.642 337.803 143.846 330.738 149.179C323.471 154.665 320.914 163.384 324.831 168.591C328.746 173.797 337.814 173.737 345.08 168.252C352.162 162.906 354.771 154.488 351.273 149.244L350.652 148.422ZM332.336 150.892C337.741 146.798 344.65 146.68 347.776 150.85C350.898 155.016 348.883 161.652 343.482 165.744C338.078 169.838 331.168 169.956 328.042 165.786C324.92 161.621 326.935 154.984 332.336 150.892ZM353.137 161.608C352.705 162.516 352.193 163.411 351.605 164.283L354.534 167.797C355.094 166.861 355.554 165.901 355.908 164.933L353.137 161.608ZM346.176 152.05C343.813 148.897 338.155 148.994 333.544 152.486C328.931 155.981 327.276 161.43 329.643 164.587C332.005 167.739 337.664 167.643 342.274 164.15C346.887 160.655 348.542 155.206 346.176 152.05ZM354.803 153.923C354.897 155.735 354.615 157.627 353.988 159.504L356.56 162.592C357.142 159.538 356.656 156.553 354.991 154.182L354.819 153.944L354.803 153.923ZM367.148 155.129C367.7 155.129 368.148 155.576 368.148 156.129C368.148 156.642 367.762 157.064 367.264 157.122L367.148 157.129H365.954C365.402 157.129 364.954 156.681 364.954 156.129C364.954 155.616 365.341 155.193 365.838 155.135L365.954 155.129H367.148Z" fill="#009639"/>
</svg>
