<svg width="500" height="500" viewBox="0 0 500 500" fill="none" xmlns="http://www.w3.org/2000/svg">
<rect width="500" height="500" fill="white"/>
<path d="M247 309H165V388H247V309Z" fill="#D8D8D8"/>
<path d="M243.05 340.35H234.05V344.5H243.05V340.35Z" fill="#D8D8D8"/>
<path d="M174.05 326.75H165.05V330.9H174.05V326.75Z" fill="#D8D8D8"/>
<path d="M205.65 368.4H196.65V372.55H205.65V368.4Z" fill="#D8D8D8"/>
<path d="M222.85 383.9H213.85V388.05H222.85V383.9Z" fill="#D8D8D8"/>
<path d="M238.05 335.199H229.05V339.349H238.05V335.199Z" fill="#D8D8D8"/>
<path d="M247 309H165V314H247V309Z" fill="#D8D8D8"/>
<path d="M165.05 307.943C165.563 307.943 165.985 308.329 166.043 308.827L166.05 308.943V339.271C166.05 339.823 165.602 340.271 165.05 340.271C164.537 340.271 164.114 339.885 164.057 339.387L164.05 339.271V308.943C164.05 308.391 164.498 307.943 165.05 307.943Z" fill="#979797"/>
<path d="M263.9 309.301H146.8L176.95 229.301H294.1L263.9 309.301Z" fill="#D8D8D8" fill-opacity="0.4"/>
<path d="M166.35 299.65H157.35V303.8H166.35V299.65Z" fill="#D8D8D8"/>
<path d="M171.5 294.5H162.5V298.65H171.5V294.5Z" fill="#D8D8D8"/>
<path d="M161.35 294.5H152.35V298.65H161.35V294.5Z" fill="#D8D8D8"/>
<path d="M185.6 245.551H176.6V249.701H185.6V245.551Z" fill="#D8D8D8"/>
<path d="M180.6 240.35H171.6V244.5H180.6V240.35Z" fill="#D8D8D8"/>
<path opacity="0.82" d="M247.7 309.3L239.25 276.45L232.9 281.6C230.15 283.8 226.15 283.3 224.05 280.5C222.05 277.8 222.6 274 225.25 271.95L267.45 239.7C269.7 238 272.8 238 275 239.75L288.45 250.35L247.7 309.3Z" fill="#D8D8D8"/>
<path d="M236.15 211.15H216.95V229.3H236.15V211.15Z" fill="#D8D8D8"/>
<path d="M235.55 222.699H228.15V226.849H235.55V222.699Z" fill="#D8D8D8"/>
<path d="M222.85 218.551H215.95V222.701H222.85V218.551Z" fill="#D8D8D8"/>
<path d="M241 203.9H212.15V211.15H241V203.9Z" fill="#D8D8D8"/>
<path d="M227.9 320.35H183.9V356.35H227.9V320.35Z" fill="white"/>
<path opacity="0.62" d="M183.9 340.8V354L209.45 320.35H199.4L183.9 340.8Z" fill="#D8D8D8"/>
<path opacity="0.62" d="M185.55 356.35H190.55L217.9 320.35H212.9L185.55 356.35Z" fill="#D8D8D8"/>
<path d="M230.4 358.35H181.4V364.35H230.4V358.35Z" stroke="#D8D8D8" stroke-width="2" stroke-linecap="round" stroke-linejoin="round"/>
<path d="M230.4 356.35H181.4V362.35H230.4V356.35Z" fill="white"/>
<path d="M435.9 301.6C443.6 314.45 449.2 356.5 425.05 356.5C400.95 356.5 406.55 314.45 414.2 301.6C417.4 296.3 421.6 293.85 425.05 293.85C428.5 293.85 432.7 296.3 435.9 301.6Z" fill="#D8D8D8"/>
<path d="M414.51 290.945C421.215 309.08 424.368 351.2 402 351.2C381.084 351.2 382.521 314.369 388.251 294.76C388.29 294.627 388.414 294.744 388.623 295.112L413.545 291.185C414.153 290.93 414.474 290.85 414.51 290.945Z" fill="#D8D8D8"/>
<path d="M131.8 344.501L128.15 339.351C126.203 341.69 125.055 343.407 124.706 344.501C124.029 346.623 125.123 349.398 124.706 349.3C116.054 347.254 109.844 337.676 109.8 327.351C109.5 298.001 117 266.801 129.35 234.901C129.9 233.451 131.7 233.501 132.2 235.001C142.95 267.501 147.95 298.451 146.55 328.051C146.157 338.053 140.155 347.101 131.878 349.229C130.68 349.538 133.083 344.501 131.8 344.501Z" fill="#D8D8D8"/>
<path d="M131.8 388.35H124.8V344.85L128.3 338.65L131.8 344.85V388.35Z" fill="#D8D8D8"/>
<path d="M106.1 264.45C113.8 281.75 119.4 338.35 95.2501 338.35C71.1001 338.35 76.7501 281.75 84.4001 264.45C87.6001 257.3 91.8001 254 95.2501 254C98.7001 254 102.95 257.3 106.1 264.45Z" fill="#D8D8D8"/>
<path d="M83.0503 287.101C90.7503 302.101 96.3503 351.201 72.2003 351.201C48.0503 351.201 53.7003 302.101 61.3503 287.101C64.5503 280.901 68.7503 278.051 72.2003 278.051C75.6503 278.051 79.9003 280.901 83.0503 287.101Z" fill="#D8D8D8"/>
<path d="M366.85 388.35H246.75V259.9L306.8 208.25L321.77 221.126L333.422 303.768L366.85 298.3V388.35Z" fill="#D8D8D8"/>
<path d="M367 290.35H358V294.5H367V290.35Z" fill="#D8D8D8"/>
<path d="M357 290.35H348V294.5H357V290.35Z" fill="#D8D8D8"/>
<path d="M320.05 246.699H311.05V250.849H320.05V246.699Z" fill="#D8D8D8"/>
<path d="M260.75 295.5H251.75V299.65H260.75V295.5Z" fill="#D8D8D8"/>
<path d="M355.65 366H346.65V370.15H355.65V366Z" fill="#D8D8D8"/>
<path d="M285.05 265.85H276.05V270H285.05V265.85Z" fill="#D8D8D8"/>
<path d="M255.75 290.35H246.75V294.5H255.75V290.35Z" fill="#D8D8D8"/>
<path d="M251.25 231.199H242.25V235.349H251.25V231.199Z" fill="#D8D8D8"/>
<path d="M232.4 292.9H223.4V297.05H232.4V292.9Z" fill="#D8D8D8"/>
<path d="M310.7 334.199H301.7V338.349H310.7V334.199Z" fill="#D8D8D8"/>
<path d="M305.7 329.051H296.7V333.201H305.7V329.051Z" fill="#D8D8D8"/>
<path d="M246.75 259.9V267.7L306.65 216.95L323.136 230.992L321.628 221.004L306.8 208.25L246.75 259.9Z" fill="#D8D8D8"/>
<path d="M346.65 320.35H310.65V388.35H346.65V320.35Z" fill="#D8D8D8"/>
<path d="M346.65 320.35H342.55V388.35H346.65V320.35Z" fill="#D8D8D8"/>
<path d="M296.7 320.35H265.7V356.35H296.7V320.35Z" fill="white"/>
<path opacity="0.92" d="M265.7 350.3L288.45 320.35H278.4L265.7 337.1V350.3Z" fill="#D8D8D8"/>
<path opacity="0.92" d="M296.7 320.65V320.35H291.9L265.7 354.85V356.35H269.55L296.7 320.65Z" fill="#D8D8D8"/>
<path d="M300.2 358.35H262.2V364.35H300.2V358.35Z" stroke="#D8D8D8" stroke-width="2" stroke-linecap="round" stroke-linejoin="round"/>
<path d="M300.2 356.35H262.2V362.35H300.2V356.35Z" fill="white"/>
<path d="M306.8 279.35C314.808 279.35 321.3 272.858 321.3 264.85C321.3 256.841 314.808 250.35 306.8 250.35C298.792 250.35 292.3 256.841 292.3 264.85C292.3 272.858 298.792 279.35 306.8 279.35Z" fill="white"/>
<path d="M306.8 250.35C305.4 250.35 304.05 250.55 302.8 250.9C308.85 252.65 313.3 258.2 313.3 264.85C313.3 271.45 308.85 277.05 302.8 278.8C304.05 279.15 305.4 279.35 306.8 279.35C314.8 279.35 321.3 272.85 321.3 264.85C321.3 256.8 314.8 250.35 306.8 250.35Z" fill="#D8D8D8"/>
<path d="M307 249.35L307.044 249.351C315.492 249.482 322.3 256.371 322.3 264.85C322.3 264.891 322.3 264.932 322.299 264.973C322.3 264.982 322.3 264.991 322.3 265L322.299 265.039C322.197 273.512 315.297 280.35 306.8 280.35L307.053 280.348C307.035 280.349 307.018 280.35 307 280.35L306.964 280.348L306.8 280.35C298.345 280.35 291.471 273.58 291.303 265.166L291.3 265.034C291.3 265.022 291.3 265.011 291.3 265L291.301 264.976L291.3 264.85C291.3 256.395 298.069 249.521 306.484 249.353L306.8 249.35C306.856 249.35 306.912 249.35 306.968 249.35L307 249.35ZM305.999 265.999L293.348 265.999C293.909 272.654 299.298 277.934 305.999 278.326L305.999 265.999ZM320.252 265.999L307.999 265.999L308 278.297C314.515 277.723 319.701 272.521 320.252 265.999ZM305.999 251.373C299.198 251.771 293.749 257.204 293.326 263.999L305.999 263.999L305.999 251.373ZM308 251.402L307.999 263.999L320.273 263.999C319.859 257.338 314.614 251.985 308 251.402Z" fill="#979797"/>
<path d="M352.65 388.35H304.65V384.35C304.65 380.5 307.8 377.35 311.65 377.35H345.65C349.5 377.35 352.65 380.5 352.65 384.35V388.35Z" fill="#D8D8D8"/>
<path d="M352.65 383.65H304.65V388.3H352.65V383.65Z" fill="#D8D8D8"/>
<path d="M322.002 223.402L306.65 210.401L236.45 269.851C234.4 271.601 231.35 271.301 229.6 269.251C227.9 267.201 228.15 264.201 230.2 262.501L299.2 204.151L306.7 197.801L314.15 204.151L320.345 209.39L322.002 223.402Z" fill="#D8D8D8"/>
<path d="M284.2 248.25H277V252.4H284.2V248.25Z" fill="#D8D8D8"/>
<path d="M300.65 304H294V308.15H300.65V304Z" fill="#D8D8D8"/>
<path d="M95.5498 388.35V285.65" stroke="#979797" stroke-width="2" stroke-linecap="round" stroke-linejoin="round"/>
<path d="M72.5 388.351V312.051" stroke="#979797" stroke-width="2" stroke-linecap="round" stroke-linejoin="round"/>
<path d="M129.35 292.25C129.863 292.25 130.286 292.636 130.343 293.133L130.35 293.25L130.35 302.252L133.423 297.737C133.734 297.281 134.356 297.163 134.813 297.473C135.237 297.762 135.369 298.319 135.137 298.762L135.077 298.863L130.35 305.806V324.077L135.996 317.593C136.358 317.177 136.99 317.133 137.407 317.496C137.791 317.831 137.858 318.394 137.581 318.807L137.504 318.907L130.35 327.123L130.35 339.486C130.35 340.038 129.902 340.486 129.35 340.486C128.837 340.486 128.415 340.1 128.357 339.602L128.35 339.486L128.35 317.265L122.17 312.865C121.72 312.544 121.615 311.92 121.936 311.47C122.231 311.055 122.786 310.933 123.223 311.169L123.33 311.235L128.35 314.81L128.35 305.52C128.35 305.509 128.35 305.499 128.35 305.488L128.35 293.25C128.35 292.698 128.798 292.25 129.35 292.25Z" fill="#979797"/>
<path d="M168.95 388.35H161.95V344.85L165.45 338.65L168.95 344.85V388.35Z" fill="#D8D8D8"/>
<path d="M150.35 388.35H143.35V344.85L146.85 338.65L150.35 344.85V388.35Z" fill="#D8D8D8"/>
<path d="M113.25 388.35H106.25V344.85L109.75 338.65L113.25 344.85V388.35Z" fill="#D8D8D8"/>
<path d="M94.5 388.35H87.5V344.85L91 338.65L94.5 344.85V388.35Z" fill="#D8D8D8"/>
<path d="M338.15 331.75H319.2V350.2H338.15V331.75Z" fill="#D8D8D8"/>
<path opacity="0.92" d="M319.2 345.85L329.9 331.75H319.9L319.2 332.65V345.85Z" fill="#D8D8D8"/>
<path opacity="0.92" d="M332.75 331.75L319.2 349.6V350.2H321.25L335.25 331.75H332.75Z" fill="#D8D8D8"/>
<path d="M101.75 294.5L95.5498 300.75" stroke="#979797" stroke-width="2" stroke-linecap="round" stroke-linejoin="round"/>
<path d="M95.5498 316.751L103.5 309.301" stroke="#979797" stroke-width="2" stroke-linecap="round" stroke-linejoin="round"/>
<path d="M95.5504 307.25L89.6504 301.9" stroke="#979797" stroke-width="2" stroke-linecap="round" stroke-linejoin="round"/>
<path d="M72.5 332L77.85 325.75" stroke="#979797" stroke-width="2" stroke-linecap="round" stroke-linejoin="round"/>
<path d="M72.25 322.5L67.25 318.25" stroke="#979797" stroke-width="2" stroke-linecap="round" stroke-linejoin="round"/>
<path d="M161.8 147.6V147.55C161.85 147.15 161.85 146.7 161.85 146.3C161.85 138.65 155.65 132.45 148 132.45C145.35 132.45 142.9 133.2 140.8 134.45C139.05 133.2 136.9 132.45 134.6 132.45C133.75 132.45 132.95 132.55 132.15 132.75C131 125.7 124.9 120.3 117.5 120.3C116 120.3 114.55 120.5 113.2 120.95C109.25 117.85 104.3 116 98.9 116C87.45 116 77.95 124.25 76 135.15C75.9 135.15 75.75 135.15 75.65 135.15C68.25 135.15 62.15 140.55 61 147.6" stroke="#D8D8D8" stroke-width="2"/>
<path fill-rule="evenodd" clip-rule="evenodd" d="M444.631 215.357L446.441 217.515C447.861 219.207 447.641 221.73 445.948 223.15L441.352 227.007L434.399 218.721L438.995 214.864C440.688 213.444 443.211 213.665 444.631 215.357Z" fill="#D8D8D8"/>
<path d="M336.105 170.896L320.31 173.9L336.105 280.369L336.105 170.896Z" fill="#D8D8D8"/>
<path fill-rule="evenodd" clip-rule="evenodd" d="M335.255 286.25L409.005 286.535L336.723 298.75L335.255 286.25Z" fill="#D8D8D8"/>
<path d="M440.505 175.375H433.005" stroke="#979797" stroke-width="2" stroke-linecap="round"/>
<path d="M436.755 182.875H433.005" stroke="#979797" stroke-width="2" stroke-linecap="round"/>
<path d="M430.255 205C439.92 205 447.755 197.165 447.755 187.5C447.755 177.835 439.92 170 430.255 170C420.59 170 412.755 177.835 412.755 187.5C412.755 197.165 420.59 205 430.255 205Z" fill="#D8D8D8"/>
<path d="M239 68C243.102 68 246.627 70.4694 248.169 74.0026C253.061 74.0914 257 78.0857 257 83H255C255 79.4076 252.294 76.4473 248.809 76.0462C248.934 76.6787 249 77.3317 249 78H247C247 73.5817 243.418 70 239 70C235.093 70 231.84 72.8004 231.14 76.5034C235.125 77.8201 238 81.5743 238 86H236C236 81.5817 232.418 78 228 78C224.129 78 220.901 80.749 220.16 84.4012C222.407 85.2684 224 87.4482 224 90H222C222 87.7909 220.209 86 218 86C215.791 86 214 87.7909 214 90H212C212 86.6863 214.686 84 218 84C218.067 84 218.134 84.0011 218.201 84.0033C219.124 79.4375 223.161 76 228 76C228.402 76 228.798 76.0237 229.187 76.0697C230.085 71.4707 234.137 68 239 68ZM256 83C259.314 83 262 85.6863 262 89H260C260 86.7909 258.209 85 256 85C253.791 85 252 86.7909 252 89H250C250 85.6863 252.686 83 256 83Z" fill="#D8D8D8"/>
<path d="M307.243 196.96L307.349 197.039L314.796 203.386C315.89 204.311 316.539 204.861 317.153 205.38L317.436 205.619C318.237 206.297 319.086 207.015 320.898 208.547C321.319 208.903 321.372 209.534 321.015 209.956C320.659 210.378 320.028 210.43 319.606 210.074L313.501 204.911L306.697 199.112L299.846 204.914L230.838 263.27C229.222 264.61 229.015 266.978 230.361 268.601C231.719 270.192 234.027 270.451 235.639 269.22L235.804 269.087L246.251 260.238C246.316 260.164 246.392 260.1 246.475 260.048L306.004 209.637C306.377 209.321 306.923 209.321 307.296 209.637L322.241 222.293C322.662 222.65 322.715 223.281 322.358 223.702C322.001 224.124 321.37 224.176 320.948 223.819L306.65 211.71L248 261.378V387.349H303.65V384.35C303.65 380.513 306.383 377.288 309.999 376.522L310 320C310 319.487 310.386 319.064 310.883 319.007L311 319H347C347.513 319 347.936 319.386 347.993 319.883L348 320L347.999 376.704C351.18 377.687 353.527 380.609 353.645 384.075L353.65 384.35V387.349H366.099L366.1 298.81C366.1 298.297 366.486 297.875 366.983 297.817L367.1 297.81C367.613 297.81 368.035 298.196 368.093 298.694L368.1 298.81V387.5H401L401 352.173C391.464 351.656 385.919 343.677 384.161 330.605C382.697 319.723 384.051 305.709 387.223 294.716C387.376 294.185 387.93 293.879 388.461 294.032C388.991 294.185 389.297 294.74 389.144 295.27C386.046 306.01 384.719 319.748 386.143 330.338L386.27 331.233C388.025 342.859 392.9 349.657 401 350.169L401 328.281L395.662 323.226C395.261 322.846 395.244 322.213 395.624 321.812C395.974 321.442 396.541 321.399 396.941 321.693L397.038 321.774L401 325.526L401 312.05C401 311.498 401.448 311.05 402 311.05C402.513 311.05 402.936 311.436 402.993 311.933L403 312.05L403 319.7L407.055 316.696C407.499 316.368 408.125 316.461 408.454 316.905C408.757 317.314 408.701 317.88 408.341 318.223L408.245 318.304L403 322.188V334.258L410.078 329.329C410.532 329.014 411.155 329.125 411.471 329.578C411.762 329.997 411.689 330.56 411.32 330.893L411.221 330.971L403 336.695L403.001 350.169C411.816 349.61 416.828 341.583 418.13 328.113C419.009 319.025 418.007 307.993 415.823 298.857C415.675 298.65 415.616 298.395 415.649 298.15C415.085 295.874 414.445 293.725 413.743 291.764C413.557 291.244 413.828 290.672 414.348 290.486C414.868 290.3 415.44 290.57 415.626 291.09C416.206 292.709 416.743 294.449 417.233 296.279C419.702 294.051 422.458 292.85 425.05 292.85C429.178 292.85 433.591 295.841 436.758 301.086C441.018 308.196 444.045 322.337 443.417 333.923C442.654 348.023 436.938 356.992 426.001 357.479L426 387.5H446.5C447.052 387.5 447.5 387.948 447.5 388.5C447.5 389.013 447.114 389.436 446.617 389.493L446.5 389.5H54.8C54.2477 389.5 53.8 389.052 53.8 388.5C53.8 387.987 54.186 387.564 54.6834 387.507L54.8 387.5H87.5V379H81.15C80.5977 379 80.15 378.552 80.15 378C80.15 377.487 80.536 377.064 81.0334 377.007L81.15 377H87.5V370H81.15C80.5977 370 80.15 369.552 80.15 369C80.15 368.487 80.536 368.064 81.0334 368.007L81.15 368H87.5V361H81.15C80.5977 361 80.15 360.552 80.15 360C80.15 359.487 80.536 359.064 81.0334 359.007L81.15 359H87.5V344.85C87.5 344.721 87.525 344.593 87.5733 344.474L87.6292 344.358L90.832 338.686C90.051 338.436 89.3006 338.117 88.5813 337.73C85.8661 346.874 80.4557 352.2 72.2 352.2C60.5976 352.2 54.6256 341.683 53.8511 324.821C53.233 311.366 56.2433 294.912 60.4614 286.641C63.6115 280.538 68.0227 277.05 72.2 277.05C74.4841 277.05 76.8441 278.09 79.0192 280.018C80.2126 273.534 81.7903 267.879 83.4872 264.042C86.6276 257.025 91.0328 253 95.25 253C99.4858 253 103.932 257.049 107.014 264.043C109.466 269.553 111.509 278.252 112.668 287.613C115.925 270.828 121.204 253.172 128.415 234.545C129.303 232.205 132.355 232.303 133.149 234.686C141.227 259.107 145.979 282.387 147.358 304.685L176.014 228.647C176.146 228.297 176.461 228.053 176.827 228.008L176.95 228L215.949 227.999V212.15H212.15C211.637 212.15 211.214 211.764 211.157 211.267L211.15 211.15V203.9C211.15 203.387 211.536 202.964 212.033 202.907L212.15 202.9H241C241.513 202.9 241.936 203.286 241.993 203.783L242 203.9V211.15C242 211.663 241.614 212.085 241.117 212.143L241 212.15H237.149V227.999L269.447 228L298.554 203.387L306.054 197.037C306.394 196.749 306.878 196.724 307.243 196.96ZM49.483 387.35C50.0353 387.35 50.483 387.798 50.483 388.35C50.483 388.863 50.097 389.285 49.5996 389.343L49.483 389.35H45.2852C44.7329 389.35 44.2852 388.902 44.2852 388.35C44.2852 387.837 44.6712 387.414 45.1685 387.357L45.2852 387.35H49.483ZM456.198 387.35C456.75 387.35 457.198 387.798 457.198 388.35C457.198 388.863 456.812 389.285 456.314 389.343L456.198 389.35H452C451.448 389.35 451 388.902 451 388.35C451 387.837 451.386 387.414 451.883 387.357L452 387.35H456.198ZM105.25 379H96.5V387.5H105.25V379ZM123.8 379H114.25V387.5H123.8V379ZM246 310L147.624 310.001C147.84 315.692 147.833 321.319 147.603 326.884L147.549 328.089C147.139 338.518 141.01 347.493 132.8 350.003L132.8 359H142.35V344.85C142.35 344.721 142.375 344.593 142.423 344.474L142.479 344.358L145.979 338.158C146.339 337.52 147.225 337.483 147.647 338.046L147.721 338.158L151.221 344.358C151.284 344.471 151.325 344.594 151.342 344.722L151.35 344.85V359H160.95V344.85C160.95 344.721 160.975 344.593 161.023 344.474L161.079 344.358L164.579 338.158C164.939 337.52 165.825 337.483 166.247 338.046L166.321 338.158L169.821 344.358C169.884 344.471 169.925 344.594 169.942 344.722L169.95 344.85V359H175.15C175.702 359 176.15 359.448 176.15 360C176.15 360.513 175.764 360.936 175.267 360.993L175.15 361H169.95V368H175.15C175.702 368 176.15 368.448 176.15 369C176.15 369.513 175.764 369.936 175.267 369.993L175.15 370H169.95V377H175.15C175.702 377 176.15 377.448 176.15 378C176.15 378.513 175.764 378.936 175.267 378.993L175.15 379H169.95V387.5H246V310ZM142.35 379H132.8V387.5H142.35V379ZM160.95 379H151.35V387.5H160.95V379ZM410.817 349.551C408.602 351.112 405.999 352.011 403 352.173L403 387.5H424L424 357.474C418.148 357.18 413.738 354.407 410.817 349.551ZM128.3 340.683L125.8 345.111V387.35H130.8V345.112L128.3 340.683ZM92 340.683L89.5 345.111V387.35H94.5V345.112L92 340.683ZM109.75 340.683L107.25 345.111V387.35H112.25L112.249 378.494C112.166 378.348 112.119 378.18 112.119 378C112.119 377.82 112.166 377.652 112.249 377.506V369.494C112.166 369.348 112.119 369.18 112.119 369C112.119 368.82 112.166 368.652 112.249 368.506V360.494C112.166 360.348 112.119 360.18 112.119 360C112.119 359.82 112.166 359.652 112.249 359.506L112.25 345.112L109.75 340.683ZM165.45 340.683L162.95 345.111L162.951 359.757C162.97 359.835 162.981 359.916 162.981 360C162.981 360.084 162.97 360.166 162.951 360.244L162.951 368.757C162.97 368.835 162.981 368.916 162.981 369C162.981 369.084 162.97 369.166 162.951 369.244L162.951 377.757C162.97 377.835 162.981 377.916 162.981 378C162.981 378.084 162.97 378.166 162.951 378.244L162.95 387.35H167.95V345.112L165.45 340.683ZM146.85 340.683L144.349 345.112V387.35H149.349V345.111L146.85 340.683ZM345.65 378.35H311.65C308.427 378.35 305.773 380.931 305.654 384.126L305.65 384.35V387.349H351.65V384.35C351.65 381.202 349.188 378.597 346.096 378.367L345.874 378.354L345.65 378.35ZM160.95 370H151.35V377H160.95V370ZM123.8 370H114.25V377H123.8V370ZM105.25 370H96.5V377H105.25V370ZM142.35 370H132.8V377H142.35V370ZM346 321H312L311.999 376.35H345.65C345.767 376.35 345.884 376.353 346 376.358L346 321ZM160.95 361H151.35V368H160.95V361ZM123.8 361H114.25V368H123.8V361ZM105.25 361H96.5V368H105.25V361ZM142.35 361H132.8V368H142.35V361ZM227.9 319.35C228.413 319.35 228.835 319.736 228.893 320.233L228.9 320.35V355.35H230.4C230.913 355.35 231.335 355.736 231.393 356.233L231.4 356.35V362.35C231.4 362.863 231.014 363.285 230.517 363.343L230.4 363.35H181.4C180.887 363.35 180.464 362.964 180.407 362.467L180.4 362.35V356.35C180.4 355.837 180.786 355.414 181.283 355.357L181.4 355.35H182.9V320.35C182.9 319.837 183.286 319.414 183.783 319.357L183.9 319.35H227.9ZM296 319C296.513 319 296.936 319.386 296.993 319.883L297 320V355H300C300.513 355 300.936 355.386 300.993 355.883L301 356V362C301 362.513 300.614 362.936 300.117 362.993L300 363H262C261.487 363 261.064 362.614 261.007 362.117L261 362V356C261 355.487 261.386 355.064 261.883 355.007L262 355H264V320C264 319.487 264.386 319.064 264.883 319.007L265 319H296ZM229.399 357.35H182.399V361.35H229.399V357.35ZM299 357H263V361H299V357ZM319 355C319.513 355 319.936 355.386 319.993 355.883L320 356V359C320 359.552 319.552 360 319 360C318.487 360 318.064 359.614 318.007 359.117L318 359V356C318 355.448 318.448 355 319 355ZM108.947 330.083C105.9 336.034 101.359 339.35 95.25 339.35C94.6489 339.35 94.0614 339.317 93.4877 339.252L96.3708 344.358C96.4343 344.471 96.4752 344.594 96.4917 344.722L96.5 344.85V359H105.25V344.85C105.25 344.721 105.275 344.593 105.323 344.474L105.379 344.358L108.879 338.158C109.239 337.52 110.125 337.483 110.547 338.046L110.621 338.158L114.121 344.358C114.184 344.471 114.225 344.594 114.242 344.722L114.25 344.85V359H123.8L123.8 350.091C115.938 347.852 109.946 339.706 108.947 330.083ZM425.05 294.85C422.728 294.85 420.121 296.114 417.796 298.513C420.012 307.84 421.017 319.034 420.121 328.305C420.076 328.766 420.027 329.221 419.974 329.67C419.996 329.627 420.024 329.585 420.055 329.544C420.364 329.138 420.922 329.035 421.352 329.285L421.456 329.355L424 331.292L424 312.05C424 311.498 424.448 311.05 425 311.05C425.513 311.05 425.936 311.436 425.993 311.933L426 312.05L426 324.205L429.114 320.823C429.488 320.416 430.121 320.39 430.527 320.764C430.902 321.109 430.954 321.675 430.665 322.08L430.586 322.177L426.536 326.577C426.388 326.738 426.199 326.839 426 326.88L426 333.038C426.066 333.238 426.067 333.456 426.001 333.659L426 339.214L431.095 335.818C431.555 335.512 432.176 335.636 432.482 336.095C432.767 336.522 432.68 337.088 432.298 337.412L432.205 337.482L426 341.617L426 355.476C435.634 354.986 440.708 346.964 441.42 333.815C442.027 322.608 439.085 308.86 435.044 302.117C432.214 297.43 428.407 294.85 425.05 294.85ZM419.881 330.399L419.856 330.604C418.79 338.547 416.317 344.623 412.388 348.276L412.382 348.268L412.392 348.285C414.96 352.701 418.787 355.181 424 355.471L424 333.807L420.244 330.945C420.058 330.804 419.935 330.609 419.881 330.399ZM226.9 321.35H184.9V355.35H226.9V321.35ZM295 321H266V355H295V321ZM338.15 330.75C338.663 330.75 339.086 331.136 339.143 331.633L339.15 331.75V350.2C339.15 350.713 338.764 351.135 338.267 351.193L338.15 351.2H319.2C318.687 351.2 318.264 350.814 318.207 350.317L318.2 350.2V331.75C318.2 331.237 318.586 330.814 319.083 330.757L319.2 330.75H338.15ZM72.2 279.05C68.8817 279.05 65.0778 282.058 62.2408 287.554C58.1937 295.49 55.2459 311.602 55.8489 324.729C56.5808 340.661 61.9975 350.2 72.2 350.2C82.4042 350.2 87.8311 340.656 88.5698 324.729C89.1793 311.587 86.2263 295.477 82.1585 287.553C79.3749 282.074 75.5375 279.05 72.2 279.05ZM337.15 332.75H320.2V349.199H337.15V332.75ZM110.8 327.346C110.842 337.048 116.384 345.551 123.8 347.996L123.8 344.85C123.8 344.721 123.825 344.593 123.873 344.474L123.929 344.358L127.429 338.158C127.789 337.52 128.675 337.483 129.097 338.046L129.171 338.158L132.671 344.358C132.734 344.471 132.775 344.594 132.792 344.722L132.8 344.85L132.8 347.893C139.769 345.426 145.041 337.589 145.534 328.376L145.551 328.003C146.925 298.951 142.125 268.19 131.251 235.316C131.048 234.705 130.5 234.687 130.283 235.261C122.248 256.015 116.632 275.535 113.553 293.962C113.523 294.139 113.449 294.297 113.343 294.427C113.664 298.763 113.78 303.111 113.643 307.232L113.618 307.928C113.34 314.832 112.407 320.806 110.793 325.635L110.793 324.975C110.789 325.766 110.792 326.554 110.8 327.346ZM95.25 255C91.9791 255 88.1656 258.484 85.3146 264.854C83.5721 268.795 81.9307 274.848 80.737 281.775C81.903 283.135 82.9861 284.766 83.9396 286.643C88.1764 294.897 91.1924 311.35 90.5677 324.821C90.3814 328.838 89.8999 332.495 89.1174 335.735C90.9153 336.803 92.9523 337.35 95.25 337.35C101.601 337.35 106.118 333.022 108.793 325.28C108.792 325.175 108.792 325.071 108.793 324.967C108.794 324.665 108.929 324.394 109.143 324.212C110.537 319.746 111.362 314.238 111.62 307.847C112.222 292.879 109.358 274.588 105.367 265.27L105.185 264.853C102.387 258.503 98.5402 255 95.25 255ZM267.082 230H177.641L148.245 308H246V263.072L237.099 270.611C234.7 272.658 231.143 272.393 228.997 270.076L228.83 269.888C226.827 267.473 227.076 263.965 229.369 261.897L229.554 261.736L267.082 230ZM431.357 160L431.358 168.941C441.19 169.456 449.005 177.674 449.005 187.736C449.005 197.799 441.19 206.017 431.358 206.532L431.357 220.937L438.348 215.072C440.444 213.313 443.431 213.4 445.134 215.228L445.286 215.399L447.102 217.564C448.725 219.498 448.401 222.461 446.406 224.29L446.22 224.453L431.357 236.924V263H437.939C438.491 263 438.939 263.448 438.939 264C438.939 264.513 438.553 264.936 438.055 264.993L437.939 265H431.357V269H434.323C434.875 269 435.323 269.448 435.323 270C435.323 270.513 434.937 270.936 434.44 270.993L434.323 271H431.357L431.357 287.786L414.539 287.785L414.545 287.818L336.784 298.747L319 172.205L335.273 169.917V160H431.357ZM400.543 287.785H337.224L338.45 296.511L400.543 287.785ZM429.396 161.981H337.234V285.805H429.396L429.396 238.569L401.853 261.681L401.936 261.781L399.981 263.421L399.898 263.321L399.792 263.411L392.298 263.666L392.299 263.814H353.705V261.337L390.372 261.337L391.92 254.029L394.78 251.629L353.705 251.629V249.153L397.732 249.152L429.396 222.583L429.397 206.532C419.564 206.017 411.748 197.799 411.748 187.736C411.748 177.674 419.564 169.456 429.397 168.941L429.396 161.981ZM335.273 171.918L321.217 173.893L335.272 273.903L335.273 171.918ZM444 263C444.552 263 445 263.448 445 264C445 264.513 444.614 264.936 444.117 264.993L444 265H442.255C441.703 265 441.255 264.552 441.255 264C441.255 263.487 441.641 263.064 442.139 263.007L442.255 263H444ZM393.542 255.761L392.298 261.631V261.72L398.376 261.512L393.542 255.761ZM437.178 225.487L398.657 257.88L400.64 260.238L439.188 227.892L437.178 225.487ZM433.752 221.387L397.783 251.567L397.784 251.629L397.709 251.629L395.183 253.749L397.142 256.078L435.683 223.697L433.752 221.387ZM400.312 232.313V234.789H353.705V232.313H400.312ZM235.148 212.15H217.948L217.949 227.999H235.149L235.148 212.15ZM439.711 216.395L439.559 216.515L435.708 219.746L441.144 226.252L445.009 223.01C446.206 222.005 446.499 220.349 445.745 219.16L445.641 219.007L445.538 218.877L443.721 216.712C442.757 215.562 440.997 215.437 439.711 216.395ZM413.709 220.426V222.902H353.705V220.426H413.709ZM240 204.9H213.15V210.15L216.424 210.149C216.547 210.073 216.686 210.023 216.836 210.006L216.95 210H236.15C236.343 210 236.523 210.055 236.675 210.149L240 210.15V204.9ZM430.377 170.896C421.171 170.896 413.709 178.436 413.709 187.736C413.709 197.037 421.171 204.576 430.377 204.576C439.582 204.576 447.044 197.037 447.044 187.736C447.044 178.436 439.582 170.896 430.377 170.896ZM400.312 201.605V204.081H353.705V201.605H400.312ZM430.845 192.523C431.32 192.523 431.719 192.672 432.043 192.97C432.366 193.268 432.528 193.642 432.528 194.092C432.528 194.542 432.366 194.917 432.043 195.214C431.719 195.512 431.32 195.661 430.845 195.661C430.371 195.661 429.979 195.505 429.67 195.193C429.361 194.88 429.206 194.513 429.206 194.092C429.206 193.671 429.361 193.304 429.67 192.992C429.979 192.679 430.371 192.523 430.845 192.523ZM377.104 189.718V192.194H353.705V189.718H377.104ZM432.161 180.079V190.54H429.573V180.079H432.161Z" fill="#979797"/>
<path d="M322.462 115C328.385 115 333.313 119.265 334.341 124.891C337.914 125.289 340.692 128.32 340.692 132H338.692C338.692 129.495 336.906 127.408 334.537 126.943L334.538 127.077H332.538C332.538 121.512 328.027 117 322.462 117C317.518 117 313.405 120.561 312.548 125.257C315.323 126.243 317.308 128.889 317.308 132H315.308C315.308 129.685 313.782 127.727 311.681 127.076L310.385 127.077C310.385 127.002 310.385 126.926 310.387 126.852C310.31 126.848 310.232 126.846 310.154 126.846C307.307 126.846 305 129.154 305 132H303C303 128.049 306.203 124.846 310.154 124.846C310.3 124.846 310.445 124.851 310.589 124.859C311.629 119.248 316.549 115 322.462 115Z" fill="#D8D8D8"/>
<path d="M230.278 142C230.831 142 231.278 142.448 231.278 143L231.278 145.278L233.557 145.278C234.07 145.278 234.492 145.664 234.55 146.162L234.557 146.278C234.557 146.831 234.109 147.278 233.557 147.278L231.278 147.278L231.278 149.557C231.278 150.07 230.892 150.492 230.395 150.55L230.278 150.557C229.726 150.557 229.278 150.109 229.278 149.557L229.278 147.278L227 147.278C226.487 147.278 226.064 146.892 226.007 146.395L226 146.278C226 145.726 226.448 145.278 227 145.278L229.278 145.278L229.278 143C229.278 142.487 229.664 142.064 230.162 142.007L230.278 142Z" fill="#D8D8D8"/>
<path d="M97.2784 43C97.8307 43 98.2784 43.4477 98.2784 44L98.278 46.278L100.557 46.2784C101.07 46.2784 101.492 46.6645 101.55 47.1618L101.557 47.2784C101.557 47.8307 101.109 48.2784 100.557 48.2784L98.278 48.278L98.2784 50.5568C98.2784 51.0697 97.8924 51.4923 97.395 51.5501L97.2784 51.5568C96.7261 51.5568 96.2784 51.1091 96.2784 50.5568L96.278 48.278L94 48.2784C93.4872 48.2784 93.0645 47.8924 93.0067 47.395L93 47.2784C93 46.7261 93.4477 46.2784 94 46.2784L96.278 46.278L96.2784 44C96.2784 43.4872 96.6645 43.0645 97.1618 43.0067L97.2784 43Z" fill="#D8D8D8"/>
<path d="M92 191C95.3137 191 98 193.686 98 197C98 200.314 95.3137 203 92 203C88.6863 203 86 200.314 86 197C86 193.686 88.6863 191 92 191ZM92 193C89.7909 193 88 194.791 88 197C88 199.209 89.7909 201 92 201C94.2091 201 96 199.209 96 197C96 194.791 94.2091 193 92 193Z" fill="#D8D8D8"/>
<path d="M381 105C383.209 105 385 106.791 385 109C385 111.209 383.209 113 381 113C378.791 113 377 111.209 377 109C377 106.791 378.791 105 381 105ZM381 107C379.895 107 379 107.895 379 109C379 110.105 379.895 111 381 111C382.105 111 383 110.105 383 109C383 107.895 382.105 107 381 107ZM344.278 64C344.831 64 345.278 64.4477 345.278 65L345.278 67.278L347.557 67.2784C348.07 67.2784 348.492 67.6645 348.55 68.1618L348.557 68.2784C348.557 68.8307 348.109 69.2784 347.557 69.2784L345.278 69.278L345.278 71.5568C345.278 72.0697 344.892 72.4924 344.395 72.5501L344.278 72.5568C343.726 72.5568 343.278 72.1091 343.278 71.5568L343.278 69.278L341 69.2784C340.487 69.2784 340.064 68.8924 340.007 68.395L340 68.2784C340 67.7261 340.448 67.2784 341 67.2784L343.278 67.278L343.278 65C343.278 64.4872 343.664 64.0645 344.162 64.0067L344.278 64Z" fill="#D8D8D8"/>
</svg>
