<svg width="300" height="300" viewBox="0 0 300 300" fill="none" xmlns="http://www.w3.org/2000/svg">
<rect width="300" height="300" fill="white"/>
<path fill-rule="evenodd" clip-rule="evenodd" d="M86.2701 160.728L102.632 160.838V130.961V116.054C102.632 112.389 99.6606 109.418 95.9954 109.418C92.3302 109.418 89.3589 112.389 89.3589 116.054V153.249L89.1187 156.352L87.8955 158.567L85.5439 160.15L86.2701 160.728Z" fill="#B3D4F1"/>
<path d="M218 49C218 60.0457 209.046 69 198 69C186.954 69 178 60.0457 178 49C178 37.9543 186.954 29 198 29C209.046 29 218 37.9543 218 49Z" fill="#B3D4F1"/>
<path fill-rule="evenodd" clip-rule="evenodd" d="M60.5 250.25C60.5 254.254 57.2541 257.5 53.25 257.5C49.2459 257.5 46 254.254 46 250.25C46 246.246 49.2459 243 53.25 243C57.2541 243 60.5 246.246 60.5 250.25ZM48.5 250.25C48.5 252.873 50.6266 255 53.25 255C55.8734 255 58 252.873 58 250.25C58 247.627 55.8734 245.5 53.25 245.5C50.6266 245.5 48.5 247.627 48.5 250.25Z" fill="#B3D4F1"/>
<path fill-rule="evenodd" clip-rule="evenodd" d="M46.406 179.915C46.8695 180.073 47.3163 180.279 47.7403 180.53C48.3341 180.883 48.5302 181.649 48.1781 182.243C47.8261 182.837 47.0593 183.033 46.4654 182.681C45.7543 182.259 44.9481 182.035 44.1073 182.035C41.5153 182.035 39.4014 184.181 39.383 186.849C39.4299 186.981 39.4555 187.122 39.4555 187.27C39.4555 187.96 38.8958 188.52 38.2055 188.52H33.25C32.5596 188.52 32 187.96 32 187.27C32 186.579 32.5596 186.02 33.25 186.02H36.9324C37.3458 182.433 40.2998 179.629 43.924 179.537C44.9392 175.195 48.8069 172 53.3756 172C57.9586 172 61.8303 175.213 62.834 179.567C65.2368 179.827 67.1711 181.658 67.6266 184.02H70.2055C70.8958 184.02 71.4555 184.579 71.4555 185.27C71.4555 185.96 70.8958 186.52 70.2055 186.52H65.25C64.5596 186.52 64 185.96 64 185.27C64 184.649 64.4528 184.134 65.0462 184.036C64.6261 182.866 63.5269 182.035 62.2429 182.035C61.7828 182.035 61.3399 182.14 60.937 182.342C60.3193 182.65 59.5686 182.399 59.2604 181.781C58.9522 181.163 59.203 180.413 59.8208 180.105C59.9887 180.021 60.1606 179.946 60.3358 179.88C59.5015 176.766 56.6853 174.5 53.3756 174.5C50.0563 174.5 47.2291 176.781 46.406 179.915ZM27.2055 188.52H22.25C21.5596 188.52 21 187.96 21 187.27C21 186.579 21.5596 186.02 22.25 186.02H27.2055C27.8958 186.02 28.4555 186.579 28.4555 187.27C28.4555 187.96 27.8958 188.52 27.2055 188.52Z" fill="#B3D4F1"/>
<path fill-rule="evenodd" clip-rule="evenodd" d="M260.63 164.63V160.25C260.63 159.56 261.189 159 261.88 159C262.57 159 263.13 159.56 263.13 160.25V164.63H267.509C268.2 164.63 268.759 165.189 268.759 165.88C268.759 166.57 268.2 167.13 267.509 167.13H263.13V171.509C263.13 172.2 262.57 172.759 261.88 172.759C261.189 172.759 260.63 172.2 260.63 171.509V167.13H256.25C255.56 167.13 255 166.57 255 165.88C255 165.189 255.56 164.63 256.25 164.63H260.63Z" fill="#B3D4F1"/>
<path fill-rule="evenodd" clip-rule="evenodd" d="M46.6297 43.6297V39.25C46.6297 38.5596 47.1894 38 47.8797 38C48.5701 38 49.1297 38.5596 49.1297 39.25V43.6297H53.5095C54.1998 43.6297 54.7595 44.1894 54.7595 44.8797C54.7595 45.5701 54.1998 46.1297 53.5095 46.1297H49.1297V50.5095C49.1297 51.1998 48.5701 51.7595 47.8797 51.7595C47.1894 51.7595 46.6297 51.1998 46.6297 50.5095V46.1297H42.25C41.5596 46.1297 41 45.5701 41 44.8797C41 44.1894 41.5596 43.6297 42.25 43.6297H46.6297Z" fill="#B3D4F1"/>
<path fill-rule="evenodd" clip-rule="evenodd" d="M179.25 49C179.25 38.6447 187.645 30.25 198 30.25C208.355 30.25 216.75 38.6447 216.75 49C216.75 59.3553 208.355 67.75 198 67.75C187.645 67.75 179.25 59.3553 179.25 49ZM177.141 44.9204C176.884 46.2407 176.75 47.6046 176.75 49C176.75 60.2589 185.506 69.4726 196.58 70.2033V108.596H96.8834C96.5784 108.56 96.2681 108.542 95.9535 108.542C95.6389 108.542 95.3286 108.56 95.0236 108.596H94.9988V108.599C91.0702 109.07 88.0251 112.415 88.0251 116.47V155.214C88.0251 157.6 86.3161 159.586 84.0557 160.016H82.9807V160.099C80.354 160.016 78.25 157.861 78.25 155.214V44.9724L80.4998 42.6332L83.0939 45.1791L85.7137 42.6081L88.3334 45.1791L90.9532 42.6081L93.5729 45.1791L96.1927 42.6081L98.8124 45.1791L101.432 42.6081L104.052 45.1791L106.672 42.6081L109.291 45.1791L111.911 42.6081L114.531 45.1791L117.151 42.6081L119.77 45.1791L122.39 42.6081L125.01 45.1791L127.63 42.6081L130.249 45.1791L132.869 42.6081L135.489 45.1791L138.109 42.6081L140.728 45.1791L143.348 42.6081L145.968 45.1791L148.588 42.6081L151.207 45.1791L153.827 42.6081L156.447 45.1791L159.067 42.6081L161.686 45.1791L164.306 42.6081L166.926 45.1791L169.546 42.6081L172.165 45.1791L174.785 42.6081L177.141 44.9204ZM84.2689 162.516C83.9001 162.572 83.5223 162.602 83.1376 162.602C79.0575 162.602 75.75 159.294 75.75 155.214V42.6836H76.9827L80.4486 39.0801L83.0939 41.6763L85.7137 39.1052L88.3334 41.6763L90.9532 39.1052L93.5729 41.6763L96.1927 39.1052L98.8124 41.6763L101.432 39.1052L104.052 41.6763L106.672 39.1052L109.291 41.6763L111.911 39.1052L114.531 41.6763L117.151 39.1052L119.77 41.6763L122.39 39.1052L125.01 41.6763L127.63 39.1052L130.249 41.6763L132.869 39.1052L135.489 41.6763L138.109 39.1052L140.728 41.6763L143.348 39.1052L145.968 41.6763L148.588 39.1052L151.207 41.6763L153.827 39.1052L156.447 41.6763L159.067 39.1052L161.686 41.6763L164.306 39.1052L166.926 41.6763L169.546 39.1052L172.165 41.6763L174.785 39.1052L177.405 41.6763L178.455 40.6453C181.701 33.0627 189.23 27.75 198 27.75C205.168 27.75 211.507 31.2993 215.356 36.7363H222.576C223.266 36.7363 223.826 37.296 223.826 37.9863C223.826 38.6767 223.266 39.2363 222.576 39.2363H216.879C217.77 40.9548 218.432 42.8104 218.828 44.7631C218.911 44.7455 218.997 44.7363 219.086 44.7363H229.503C230.193 44.7363 230.753 45.296 230.753 45.9863C230.753 46.6767 230.193 47.2363 229.503 47.2363H219.178C219.226 47.8179 219.25 48.4061 219.25 49C219.25 50.2748 219.138 51.5233 218.923 52.7363H223C223.69 52.7363 224.25 53.296 224.25 53.9863C224.25 54.6767 223.69 55.2363 223 55.2363H218.32C215.756 63.6001 208.171 69.768 199.08 70.223V108.596H205.956C216.588 108.596 225.206 117.215 225.206 127.846V262.358H222.15L219.854 260.055L217.04 262.878L214.225 260.055L211.411 262.878L208.596 260.055L205.782 262.878L202.968 260.055L200.153 262.878L197.339 260.055L194.524 262.878L191.71 260.055L188.895 262.878L186.081 260.055L183.267 262.878L180.452 260.055L177.638 262.878L174.823 260.055L172.009 262.878L169.194 260.055L166.38 262.878L163.566 260.055L160.751 262.878L157.937 260.055L155.122 262.878L152.308 260.055L149.493 262.878L146.679 260.055L143.865 262.878L141.05 260.055L138.236 262.878L135.421 260.055L132.607 262.878L129.792 260.055L126.978 262.878L124.164 260.055L121.349 262.878L118.535 260.055L115.72 262.878L112.906 260.055L110.091 262.878L107.277 260.055L104.982 262.358H103.486V261.965H101.382V162.516H84.2689ZM88.7522 160.016H101.382V116.47C101.382 113.733 99.356 111.469 96.7218 111.096H95.1852C92.551 111.469 90.5251 113.733 90.5251 116.47V155.214C90.5251 157.047 89.8575 158.724 88.7522 160.016ZM101.782 111.096H196.58V111.096H205.956C215.207 111.096 222.706 118.595 222.706 127.846V259.375L219.854 256.514L217.04 259.337L214.225 256.514L211.411 259.337L208.596 256.514L205.782 259.337L202.968 256.514L200.153 259.337L197.339 256.514L194.524 259.337L191.71 256.514L188.895 259.337L186.081 256.514L183.267 259.337L180.452 256.514L177.638 259.337L174.823 256.514L172.009 259.337L169.194 256.514L166.38 259.337L163.566 256.514L160.751 259.337L157.937 256.514L155.122 259.337L152.308 256.514L149.493 259.337L146.679 256.514L143.865 259.337L141.05 256.514L138.236 259.337L135.421 256.514L132.607 259.337L129.792 256.514L126.978 259.337L124.164 256.514L121.349 259.337L118.535 256.514L115.72 259.337L112.906 256.514L110.091 259.337L107.277 256.514L103.944 259.858H103.882V116.47C103.882 114.396 103.086 112.509 101.782 111.096ZM225.75 37.9863C225.75 37.296 226.31 36.7363 227 36.7363H230C230.69 36.7363 231.25 37.296 231.25 37.9863C231.25 38.6767 230.69 39.2363 230 39.2363H227C226.31 39.2363 225.75 38.6767 225.75 37.9863ZM234.057 44.7363C233.367 44.7363 232.807 45.296 232.807 45.9863C232.807 46.6767 233.367 47.2363 234.057 47.2363H236.057C236.748 47.2363 237.307 46.6767 237.307 45.9863C237.307 45.296 236.748 44.7363 236.057 44.7363H234.057ZM110.038 64.5254C109.348 64.5254 108.788 65.085 108.788 65.7754C108.788 66.4657 109.348 67.0254 110.038 67.0254H162.086C162.776 67.0254 163.336 66.4657 163.336 65.7754C163.336 65.085 162.776 64.5254 162.086 64.5254H110.038ZM174.816 79.2422H98.9087C98.2183 79.2422 97.6587 78.6825 97.6587 77.9922C97.6587 77.3018 98.2183 76.7422 98.9087 76.7422H174.816C175.506 76.7422 176.066 77.3018 176.066 77.9922C176.066 78.6825 175.506 79.2422 174.816 79.2422ZM114.029 89.7754C114.029 89.085 114.589 88.5254 115.279 88.5254H157.528C158.219 88.5254 158.778 89.085 158.778 89.7754C158.778 90.4657 158.219 91.0254 157.528 91.0254H115.279C114.589 91.0254 114.029 90.4657 114.029 89.7754ZM110.635 119.736C109.944 119.736 109.385 120.296 109.385 120.986C109.385 121.677 109.944 122.236 110.635 122.236H119.093C119.784 122.236 120.343 121.677 120.343 120.986C120.343 120.296 119.784 119.736 119.093 119.736H110.635ZM110.623 128.521C109.933 128.521 109.373 129.081 109.373 129.771C109.373 130.462 109.933 131.021 110.623 131.021H119.971C120.661 131.021 121.221 130.462 121.221 129.771C121.221 129.081 120.661 128.521 119.971 128.521H110.623ZM109.376 138.984C109.376 138.294 109.936 137.734 110.626 137.734H118.865C119.556 137.734 120.115 138.294 120.115 138.984C120.115 139.675 119.556 140.234 118.865 140.234H110.626C109.936 140.234 109.376 139.675 109.376 138.984ZM110.623 147.375C109.933 147.375 109.373 147.935 109.373 148.625C109.373 149.315 109.933 149.875 110.623 149.875H119.971C120.661 149.875 121.221 149.315 121.221 148.625C121.221 147.935 120.661 147.375 119.971 147.375H110.623ZM109.373 157.195C109.373 156.505 109.933 155.945 110.623 155.945H119.971C120.661 155.945 121.221 156.505 121.221 157.195C121.221 157.886 120.661 158.445 119.971 158.445H110.623C109.933 158.445 109.373 157.886 109.373 157.195ZM125.146 147.375C124.456 147.375 123.896 147.935 123.896 148.625C123.896 149.315 124.456 149.875 125.146 149.875H162.916C163.607 149.875 164.166 149.315 164.166 148.625C164.166 147.935 163.607 147.375 162.916 147.375H125.146ZM123.043 139.199C123.043 138.509 123.603 137.949 124.293 137.949H170.983C171.674 137.949 172.233 138.509 172.233 139.199C172.233 139.89 171.674 140.449 170.983 140.449H124.293C123.603 140.449 123.043 139.89 123.043 139.199ZM125.147 128.521C124.457 128.521 123.897 129.081 123.897 129.771C123.897 130.462 124.457 131.021 125.147 131.021H166.964C167.655 131.021 168.214 130.462 168.214 129.771C168.214 129.081 167.655 128.521 166.964 128.521H125.147ZM123.042 121.201C123.042 120.511 123.601 119.951 124.292 119.951H174.341C175.032 119.951 175.591 120.511 175.591 121.201C175.591 121.892 175.032 122.451 174.341 122.451H124.292C123.601 122.451 123.042 121.892 123.042 121.201ZM125.147 155.945C124.457 155.945 123.897 156.505 123.897 157.195C123.897 157.886 124.457 158.445 125.147 158.445H177.819C178.509 158.445 179.069 157.886 179.069 157.195C179.069 156.505 178.509 155.945 177.819 155.945H125.147ZM204.463 147.375C203.773 147.375 203.213 147.935 203.213 148.625C203.213 149.315 203.773 149.875 204.463 149.875H212.771C213.461 149.875 214.021 149.315 214.021 148.625C214.021 147.935 213.461 147.375 212.771 147.375H204.463ZM203.518 155.73C202.827 155.73 202.268 156.29 202.268 156.98C202.268 157.671 202.827 158.23 203.518 158.23H212.564C213.254 158.23 213.814 157.671 213.814 156.98C213.814 156.29 213.254 155.73 212.564 155.73H203.518ZM111.474 173.729C110.784 173.729 110.224 174.288 110.224 174.979C110.224 175.669 110.784 176.229 111.474 176.229H148.769C149.46 176.229 150.019 175.669 150.019 174.979C150.019 174.288 149.46 173.729 148.769 173.729H111.474ZM153.248 174.965C153.248 174.274 153.807 173.715 154.498 173.715H160.401C161.091 173.715 161.651 174.274 161.651 174.965C161.651 175.655 161.091 176.215 160.401 176.215H154.498C153.807 176.215 153.248 175.655 153.248 174.965ZM157.915 181.715C157.225 181.715 156.665 182.274 156.665 182.965C156.665 183.655 157.225 184.215 157.915 184.215H163.818C164.508 184.215 165.068 183.655 165.068 182.965C165.068 182.274 164.508 181.715 163.818 181.715H157.915ZM188.942 175.193C188.942 174.503 189.502 173.943 190.192 173.943H212.025C212.715 173.943 213.275 174.503 213.275 175.193C213.275 175.884 212.715 176.443 212.025 176.443H190.192C189.502 176.443 188.942 175.884 188.942 175.193ZM111.475 181.715C110.784 181.715 110.225 182.274 110.225 182.965C110.225 183.655 110.784 184.215 111.475 184.215H153.041C153.732 184.215 154.291 183.655 154.291 182.965C154.291 182.274 153.732 181.715 153.041 181.715H111.475ZM192.802 184.406C192.802 183.716 193.362 183.156 194.052 183.156H212.638C213.328 183.156 213.888 183.716 213.888 184.406C213.888 185.097 213.328 185.656 212.638 185.656H194.052C193.362 185.656 192.802 185.097 192.802 184.406ZM110.226 201.76C110.226 201.069 110.786 200.51 111.476 200.51H194.052C194.743 200.51 195.302 201.069 195.302 201.76C195.302 202.45 194.743 203.01 194.052 203.01H111.476C110.786 203.01 110.226 202.45 110.226 201.76ZM111.476 209.938C110.786 209.938 110.226 210.497 110.226 211.188C110.226 211.878 110.786 212.438 111.476 212.438H194.052C194.743 212.438 195.302 211.878 195.302 211.188C195.302 210.497 194.743 209.938 194.052 209.938H111.476ZM110.623 237.361C109.933 237.361 109.373 237.921 109.373 238.611C109.373 239.302 109.933 239.861 110.623 239.861H119.971C120.661 239.861 121.221 239.302 121.221 238.611C121.221 237.921 120.661 237.361 119.971 237.361H110.623ZM111.476 219.363C110.786 219.363 110.226 219.923 110.226 220.613C110.226 221.304 110.786 221.863 111.476 221.863H194.052C194.743 221.863 195.302 221.304 195.302 220.613C195.302 219.923 194.743 219.363 194.052 219.363H111.476ZM123.896 238.611C123.896 237.921 124.456 237.361 125.146 237.361H162.916C163.607 237.361 164.166 237.921 164.166 238.611C164.166 239.302 163.607 239.861 162.916 239.861H125.146C124.456 239.861 123.896 239.302 123.896 238.611ZM197.132 52.4546H199.862V40.0006H197.132V52.4546ZM196.586 56.7576C196.586 57.8366 197.405 58.6816 198.484 58.6816C199.563 58.6816 200.408 57.8366 200.408 56.7576C200.408 55.6786 199.563 54.8596 198.484 54.8596C197.405 54.8596 196.586 55.6786 196.586 56.7576Z" fill="#006FCF"/>
</svg>
