<svg width="200" height="200" viewBox="0 0 200 200" fill="none" xmlns="http://www.w3.org/2000/svg">
<rect width="200" height="200" fill="white"/>
<path d="M20.5 76C23.5376 76 26 73.5376 26 70.5C26 67.4624 23.5376 65 20.5 65C17.4624 65 15 67.4624 15 70.5C15 73.5376 17.4624 76 20.5 76ZM20.5 74C18.567 74 17 72.433 17 70.5C17 68.567 18.567 67 20.5 67C22.433 67 24 68.567 24 70.5C24 72.433 22.433 74 20.5 74ZM177.5 128C182.194 128 186 124.194 186 119.5C186 114.806 182.194 111 177.5 111C172.806 111 169 114.806 169 119.5C169 124.194 172.806 128 177.5 128ZM177.5 126C173.91 126 171 123.09 171 119.5C171 115.91 173.91 113 177.5 113C181.09 113 184 115.91 184 119.5C184 123.09 181.09 126 177.5 126Z" fill="#B3D4F1"/>
<path d="M36.7273 105.272C37.2796 105.272 37.7273 105.72 37.7273 106.272L37.727 107.999L39.4545 108C39.9674 108 40.3901 108.386 40.4478 108.883L40.4545 109C40.4545 109.552 40.0068 110 39.4545 110L37.727 109.999L37.7273 111.727C37.7273 112.24 37.3412 112.662 36.8439 112.72L36.7273 112.727C36.175 112.727 35.7273 112.279 35.7273 111.727L35.727 109.999L34 110C33.4872 110 33.0645 109.614 33.0067 109.116L33 109C33 108.447 33.4477 108 34 108L35.727 107.999L35.7273 106.272C35.7273 105.76 36.1133 105.337 36.6107 105.279L36.7273 105.272ZM170.636 47.3633C171.189 47.3633 171.636 47.811 171.636 48.3633L171.636 50.9993L174.273 50.9996C174.786 50.9996 175.208 51.3857 175.266 51.883L175.273 51.9996C175.273 52.5519 174.825 52.9996 174.273 52.9996L171.636 52.9993L171.636 55.636C171.636 56.1488 171.25 56.5715 170.753 56.6293L170.636 56.636C170.084 56.636 169.636 56.1883 169.636 55.636L169.636 52.9993L167 52.9996C166.487 52.9996 166.064 52.6136 166.007 52.1163L166 51.9996C166 51.4474 166.448 50.9996 167 50.9996L169.636 50.9993L169.636 48.3633C169.636 47.8504 170.022 47.4278 170.52 47.37L170.636 47.3633Z" fill="#B3D4F1"/>
<path d="M151.825 9C154.92 9 157.539 11.1415 158.266 14.0605C159.841 14.2805 161.107 15.4712 161.461 17.0131L163.045 17.0132C163.597 17.0132 164.045 17.4609 164.045 18.0132C164.045 18.5655 163.597 19.0132 163.045 19.0132H159.742C159.189 19.0132 158.742 18.5655 158.742 18.0132C158.742 17.5888 159.006 17.2262 159.379 17.081C159.085 16.454 158.458 16.0232 157.737 16.0232C157.512 16.0232 157.295 16.0644 157.091 16.1436L156.941 16.2102C156.446 16.4567 155.846 16.256 155.599 15.7619C155.353 15.2677 155.553 14.6672 156.048 14.4206L156.264 14.3206C155.68 12.3899 153.904 11 151.825 11C149.742 11 147.959 12.3972 147.381 14.3391C147.648 14.4398 147.907 14.5639 148.154 14.7103C148.629 14.9919 148.785 15.6054 148.504 16.0804C148.222 16.5555 147.609 16.7123 147.134 16.4307C146.685 16.1648 146.177 16.0232 145.647 16.0232C144.017 16.0232 142.686 17.3689 142.664 19.0474C142.696 19.1413 142.712 19.242 142.712 19.3465C142.712 19.8988 142.264 20.3465 141.712 20.3465H138.408C137.856 20.3465 137.408 19.8988 137.408 19.3465C137.408 18.7942 137.856 18.3465 138.408 18.3465L140.717 18.3463C141.058 15.9867 143.001 14.1515 145.393 14.0296C146.13 11.1238 148.744 9 151.825 9ZM169.187 17C169.74 17 170.187 17.4477 170.187 18C170.187 18.5523 169.74 19 169.187 19H165.884C165.331 19 164.884 18.5523 164.884 18C164.884 17.4477 165.331 17 165.884 17H169.187Z" fill="#B3D4F1"/>
<path fill-rule="evenodd" clip-rule="evenodd" d="M113.608 21.3653C120.604 19.7502 127.584 24.1121 129.199 31.1078L130.654 37.4103L49.7417 56.0905L48.2867 49.7879C46.6716 42.7922 51.0334 35.8118 58.0291 34.1967L113.608 21.3653ZM103.98 33.0082L86.4418 37.0573C85.3655 37.3058 84.6945 38.3797 84.943 39.456C85.1914 40.5322 86.2653 41.2033 87.3416 40.9548L104.88 36.9057C105.957 36.6572 106.628 35.5833 106.379 34.507C106.131 33.4308 105.057 32.7597 103.98 33.0082ZM77.6725 39.0819C76.5962 39.3303 75.9251 40.4043 76.1736 41.4805C76.4221 42.5568 77.496 43.2278 78.5723 42.9794C79.6485 42.7309 80.3196 41.657 80.0711 40.5807C79.8226 39.5045 78.7487 38.8334 77.6725 39.0819Z" fill="#B3D4F1"/>
<path fill-rule="evenodd" clip-rule="evenodd" d="M153.316 133.347L157.173 150.054C158.789 157.049 154.427 164.03 147.431 165.645L89.1837 179.092C83.4677 180.412 77.7542 176.964 76.233 171.333L76.1616 171.055C86.3506 171.055 93.6626 168.277 98.0976 162.72C102.532 157.164 104.276 151.22 103.328 144.887L153.316 133.347ZM117.109 152.107C114.418 152.728 112.74 155.413 113.361 158.104C113.983 160.794 116.667 162.472 119.358 161.851C122.049 161.23 123.726 158.545 123.105 155.854C122.484 153.164 119.799 151.486 117.109 152.107Z" fill="#B3D4F1"/>
<path d="M141.9 111.8C152.89 111.8 161.8 102.89 161.8 91.9C161.8 80.9095 152.89 72 141.9 72C130.91 72 122 80.9095 122 91.9C122 102.89 130.91 111.8 141.9 111.8Z" fill="#B3D4F1"/>
<path d="M117.77 97.329L118.221 99.2775L79.6144 108.208L79.1637 106.259L117.77 97.329ZM115.296 86.6109L115.746 88.5594L77.1399 97.4894L76.6892 95.5409L115.296 86.6109ZM112.596 74.9184L113.047 76.867L74.4405 85.797L73.9898 83.8485L112.596 74.9184ZM86.8788 67.5308L87.3287 69.4796L71.5157 73.1303L71.0658 71.1815L86.8788 67.5308Z" fill="#B3D4F1"/>
<path d="M130.634 30.5233L130.708 30.8274L140.003 71.0843C140.628 71.028 141.261 70.9992 141.901 70.9992C149.462 70.9992 156.086 75.0147 159.756 81.0295C159.797 81.0189 159.84 81.011 159.884 81.0059L160 80.9992H165.982C166.534 80.9992 166.982 81.4469 166.982 81.9992C166.982 82.5121 166.596 82.9347 166.099 82.9925L165.982 82.9992L160.817 82.9993C161.415 84.2678 161.889 85.6062 162.224 86.999L165.153 86.9992C165.705 86.9992 166.153 87.4469 166.153 87.9992C166.153 88.512 165.767 88.9347 165.27 88.9925L165.153 88.9992L162.602 88.9989C162.733 89.947 162.801 90.9154 162.801 91.8997C162.801 100.83 157.201 108.452 149.321 111.445L158.165 149.756C159.882 157.196 155.29 164.68 147.923 166.553L147.619 166.627L91.6049 179.559C85.9414 180.866 80.0943 178.522 76.822 173.778L76.6396 173.507L76.0289 172.474L56.2427 189.158V171.872C49.1927 169.856 43.1039 163.097 40.8341 154.73C40.6862 154.869 40.495 154.963 40.2828 154.991L40.1532 154.999H37.0005C36.4482 154.999 36.0005 154.551 36.0005 153.999C36.0005 153.486 36.3865 153.064 36.8839 153.006L37.0005 152.999H40.1532C40.2507 152.999 40.345 153.013 40.4341 153.039C40.1578 151.693 39.9818 150.312 39.9161 148.908C39.8216 148.952 39.7187 148.981 39.6104 148.993L39.5005 148.999H34.0005C33.4482 148.999 33.0005 148.551 33.0005 147.999C33.0005 147.486 33.3865 147.064 33.8839 147.006L34.0005 146.999H39.5005C39.6407 146.999 39.7741 147.028 39.8952 147.08C40.1876 134.157 50.2195 123.134 61.943 123.134L64.1049 123.134L47.2741 50.0903C45.557 42.6527 50.1501 35.1642 57.5152 33.2916L57.8194 33.2178L113.834 20.2859C121.273 18.5683 128.762 23.1616 130.634 30.5233ZM82.7004 125.134H61.943C51.2011 125.134 41.8869 135.549 41.8869 147.664C41.8869 158.523 49.1032 168.165 57.4708 170.126L58.2427 170.307V184.856L75.7966 170.054H82.7004C93.3054 170.054 102.21 159.734 102.21 147.594C102.21 135.369 93.3451 125.134 82.7004 125.134ZM152.598 134.538L104.146 145.724C104.188 146.342 104.21 146.966 104.21 147.594C104.21 160.778 94.4809 172.054 82.7004 172.054L78.1029 172.054L78.3365 172.449C81.0338 176.556 86 178.665 90.8519 177.676L91.155 177.61L147.169 164.678C153.539 163.208 157.585 156.868 156.28 150.5L156.216 150.206L152.598 134.538ZM124.08 155.629C124.825 158.857 122.812 162.079 119.583 162.824C116.355 163.57 113.133 161.557 112.387 158.328C111.642 155.099 113.655 151.877 116.884 151.132C120.113 150.387 123.334 152.4 124.08 155.629ZM117.334 153.081C115.181 153.578 113.839 155.726 114.336 157.878C114.833 160.031 116.981 161.373 119.133 160.876C121.286 160.379 122.628 158.231 122.131 156.078C121.634 153.926 119.486 152.584 117.334 153.081ZM86.0005 152.499V154.499H59.0005V152.499H86.0005ZM30.0005 146.999C30.5528 146.999 31.0005 147.447 31.0005 147.999C31.0005 148.512 30.6144 148.935 30.1171 148.992L30.0005 148.999H27.9609C27.4087 148.999 26.9609 148.551 26.9609 147.999C26.9609 147.486 27.347 147.064 27.8443 147.006L27.9609 146.999H30.0005ZM86.0005 142.499V144.499H59.0005V142.499H86.0005ZM130.424 38.4878L50.8832 56.8508L66.1569 123.134L82.7004 123.134C93.3482 123.134 102.269 132.217 103.932 143.721L152.148 132.589L147.411 112.066C145.763 112.516 144.034 112.768 142.25 112.797L141.901 112.8C130.358 112.8 121 103.443 121 91.8997C121 81.685 128.328 73.1818 138.014 71.36L130.424 38.4878ZM141.901 72.9992C131.463 72.9992 123 81.4613 123 91.8997C123 102.338 131.463 110.8 141.901 110.8C152.339 110.8 160.801 102.338 160.801 91.8997C160.801 81.4613 152.339 72.9992 141.901 72.9992ZM149.626 84.242L151.04 85.6562L143.496 93.1982L150.722 100.424L149.308 101.838L142.082 94.6124L135.175 101.521L133.761 100.107L140.668 93.1982L133.444 85.9735L134.858 84.5592L142.082 91.7839L149.626 84.242ZM172.188 80.9992C172.741 80.9992 173.188 81.4469 173.188 81.9992C173.188 82.5121 172.802 82.9347 172.305 82.9925L172.188 82.9992H170C169.448 82.9992 169 82.5515 169 81.9992C169 81.4864 169.387 81.0637 169.884 81.0059L170 80.9992H172.188ZM114.577 22.1706L114.284 22.2346L58.2693 35.1665C51.9013 36.6367 47.8547 42.9808 49.1589 49.347L49.2229 49.6408L50.4352 54.9028L129.974 36.5388L128.759 31.2773C127.29 24.9127 120.945 20.8659 114.577 22.1706ZM81.0459 40.3546C81.4186 41.969 80.412 43.5799 78.7977 43.9526C77.1833 44.3253 75.5724 43.3187 75.1997 41.7043C74.827 40.0899 75.8336 38.4791 77.448 38.1063C79.0623 37.7336 80.6732 38.7402 81.0459 40.3546ZM77.8979 40.0551C77.3597 40.1793 77.0242 40.7163 77.1484 41.2544C77.2727 41.7925 77.8096 42.1281 78.3478 42.0038C78.8859 41.8796 79.2214 41.3426 79.0972 40.8045C78.9729 40.2664 78.436 39.9308 77.8979 40.0551ZM107.354 34.2809C107.727 35.8953 106.72 37.5062 105.106 37.8789L87.567 41.928C85.9526 42.3007 84.3417 41.2941 83.969 39.6797C83.5963 38.0654 84.6029 36.4545 86.2173 36.0818L103.756 32.0327C105.37 31.66 106.981 32.6665 107.354 34.2809ZM104.206 33.9814L86.6672 38.0305C86.1291 38.1548 85.7935 38.6917 85.9178 39.2298C86.042 39.768 86.579 40.1035 87.1171 39.9793L104.656 35.9301C105.194 35.8059 105.529 35.269 105.405 34.7308C105.281 34.1927 104.744 33.8572 104.206 33.9814Z" fill="#006FCF"/>
</svg>
