<svg width="300" height="300" viewBox="0 0 300 300" fill="none" xmlns="http://www.w3.org/2000/svg">
<rect width="300" height="300" fill="white"/>
<path fill-rule="evenodd" clip-rule="evenodd" d="M86.2701 160.728L102.632 160.838V130.961V116.054C102.632 112.389 99.6606 109.418 95.9954 109.418C92.3302 109.418 89.3589 112.389 89.3589 116.054V153.249L89.1187 156.352L87.8955 158.567L85.5439 160.15L86.2701 160.728Z" fill="#339C63"/>
<path d="M217.997 45.3493C217.804 56.3934 208.695 65.19 197.651 64.9973C186.607 64.8045 177.81 55.6953 178.003 44.6513C178.196 33.6072 187.305 24.8106 198.349 25.0033C209.393 25.1961 218.19 34.3053 217.997 45.3493Z" fill="#339C63"/>
<path fill-rule="evenodd" clip-rule="evenodd" d="M179.129 44.29C179.309 33.9363 187.849 25.6894 198.203 25.8701C208.557 26.0508 216.804 34.5907 216.623 44.9445C216.442 55.2982 207.902 63.5451 197.549 63.3644C187.195 63.1837 178.948 54.6438 179.129 44.29ZM198.247 23.3705C187.555 23.1839 178.571 30.926 176.903 41.1789L174.783 39.107L172.165 41.6763L169.546 39.1052L166.926 41.6763L164.306 39.1052L161.686 41.6763L159.067 39.1052L156.447 41.6763L153.827 39.1052L151.207 41.6763L148.588 39.1052L145.968 41.6763L143.348 39.1052L140.728 41.6763L138.109 39.1052L135.489 41.6763L132.869 39.1052L130.249 41.6763L127.63 39.1052L125.01 41.6763L122.39 39.1052L119.77 41.6763L117.151 39.1052L114.531 41.6763L111.911 39.1052L109.291 41.6763L106.672 39.1052L104.052 41.6763L101.432 39.1052L98.8124 41.6763L96.1927 39.1052L93.5729 41.6763L90.9532 39.1052L88.3334 41.6763L85.7137 39.1052L83.0939 41.6763L80.4486 39.0801L76.9827 42.6836H75.75V155.214C75.75 159.294 79.0575 162.602 83.1376 162.602C83.5223 162.602 83.9001 162.572 84.2689 162.516H101.382V261.965H103.486V262.358H104.982L107.277 260.055L110.091 262.878L112.906 260.055L115.72 262.878L118.535 260.055L121.349 262.878L124.164 260.055L126.978 262.878L129.792 260.055L132.607 262.878L135.421 260.055L138.236 262.878L141.05 260.055L143.865 262.878L146.679 260.055L149.493 262.878L152.308 260.055L155.122 262.878L157.937 260.055L160.751 262.878L163.566 260.055L166.38 262.878L169.194 260.055L172.009 262.878L174.823 260.055L177.638 262.878L180.452 260.055L183.267 262.878L186.081 260.055L188.895 262.878L191.71 260.055L194.524 262.878L197.339 260.055L200.153 262.878L202.968 260.055L205.782 262.878L208.596 260.055L211.411 262.878L214.225 260.055L217.04 262.878L219.854 260.055L222.15 262.358H225.206V127.846C225.206 117.215 216.588 108.596 205.956 108.596H199.08V65.8341C206.422 65.4251 212.796 61.2765 216.287 55.2363H221C221.69 55.2363 222.25 54.6767 222.25 53.9863C222.25 53.296 221.69 52.7363 221 52.7363H217.52C218.236 51.0059 218.73 49.1591 218.966 47.2307C219.006 47.2344 219.046 47.2363 219.086 47.2363H229.503C230.193 47.2363 230.753 46.6767 230.753 45.9863C230.753 45.296 230.193 44.7363 229.503 44.7363H219.126C219.137 42.8369 218.898 40.993 218.439 39.2363H222.576C223.266 39.2363 223.826 38.6767 223.826 37.9863C223.826 37.296 223.266 36.7363 222.576 36.7363H217.616C214.536 29.0293 207.066 23.5244 198.247 23.3705ZM101.382 160.016V116.47C101.382 113.733 99.356 111.469 96.7218 111.096H95.1852C92.551 111.469 90.5251 113.733 90.5251 116.47V155.214C90.5251 157.047 89.8575 158.724 88.7522 160.016H101.382ZM84.0557 160.016C86.3161 159.586 88.0251 157.6 88.0251 155.214V116.47C88.0251 112.415 91.0702 109.07 94.9988 108.599V108.596H95.0236C95.3286 108.56 95.6389 108.542 95.9535 108.542C96.2681 108.542 96.5784 108.56 96.8834 108.596H196.58V65.8281C185.336 65.1494 176.512 55.7581 176.627 44.4049L174.787 42.6063L172.165 45.1791L169.546 42.6081L166.926 45.1791L164.306 42.6081L161.686 45.1791L159.067 42.6081L156.447 45.1791L153.827 42.6081L151.207 45.1791L148.588 42.6081L145.968 45.1791L143.348 42.6081L140.728 45.1791L138.109 42.6081L135.489 45.1791L132.869 42.6081L130.249 45.1791L127.63 42.6081L125.01 45.1791L122.39 42.6081L119.77 45.1791L117.151 42.6081L114.531 45.1791L111.911 42.6081L109.291 45.1791L106.672 42.608L104.052 45.1791L101.432 42.608L98.8124 45.1791L96.1927 42.608L93.5729 45.1791L90.9532 42.6081L88.3334 45.1791L85.7137 42.6081L83.0939 45.1791L80.4998 42.6332L78.25 44.9724V155.214C78.25 157.861 80.354 160.016 82.9807 160.099V160.016H84.0557ZM101.782 111.096C103.086 112.509 103.882 114.396 103.882 116.47V259.858H103.944L107.277 256.514L110.091 259.337L112.906 256.514L115.72 259.337L118.535 256.514L121.349 259.337L124.164 256.514L126.978 259.337L129.792 256.514L132.607 259.337L135.421 256.514L138.236 259.337L141.05 256.514L143.865 259.337L146.679 256.514L149.493 259.337L152.308 256.514L155.122 259.337L157.937 256.514L160.751 259.337L163.566 256.514L166.38 259.337L169.194 256.514L172.009 259.337L174.823 256.514L177.638 259.337L180.452 256.514L183.267 259.337L186.081 256.514L188.895 259.337L191.71 256.514L194.524 259.337L197.339 256.514L200.153 259.337L202.968 256.514L205.782 259.337L208.596 256.514L211.411 259.337L214.225 256.514L217.04 259.337L219.854 256.514L222.706 259.375V127.846C222.706 118.595 215.207 111.096 205.956 111.096H196.58V111.096H101.782ZM206.656 37.9956L200.191 44.6906L206.749 51.0233L205.012 52.8217L198.454 46.4889L192.121 53.0476L190.322 51.311L196.656 44.7523L189.96 38.2862L191.697 36.4878L198.393 42.9539L204.858 36.259L206.656 37.9956ZM227 36.7363C226.31 36.7363 225.75 37.296 225.75 37.9863C225.75 38.6767 226.31 39.2363 227 39.2363H230C230.69 39.2363 231.25 38.6767 231.25 37.9863C231.25 37.296 230.69 36.7363 230 36.7363H227ZM232.807 45.9863C232.807 45.296 233.367 44.7363 234.057 44.7363H236.057C236.748 44.7363 237.307 45.296 237.307 45.9863C237.307 46.6767 236.748 47.2363 236.057 47.2363H234.057C233.367 47.2363 232.807 46.6767 232.807 45.9863ZM110.038 64.5254C109.348 64.5254 108.788 65.085 108.788 65.7754C108.788 66.4657 109.348 67.0254 110.038 67.0254H162.086C162.776 67.0254 163.336 66.4657 163.336 65.7754C163.336 65.085 162.776 64.5254 162.086 64.5254H110.038ZM174.816 79.2402H98.9084C98.2181 79.2402 97.6584 78.6806 97.6584 77.9902C97.6584 77.2999 98.2181 76.7402 98.9084 76.7402H174.816C175.506 76.7402 176.066 77.2999 176.066 77.9902C176.066 78.6806 175.506 79.2402 174.816 79.2402ZM114.029 89.7754C114.029 89.085 114.589 88.5254 115.279 88.5254H157.528C158.219 88.5254 158.778 89.085 158.778 89.7754C158.778 90.4657 158.219 91.0254 157.528 91.0254H115.279C114.589 91.0254 114.029 90.4657 114.029 89.7754ZM110.012 120.986C110.012 120.296 110.571 119.736 111.262 119.736H119.72C120.411 119.736 120.97 120.296 120.97 120.986C120.97 121.677 120.411 122.236 119.72 122.236H111.262C110.571 122.236 110.012 121.677 110.012 120.986ZM110 129.771C110 129.081 110.56 128.521 111.25 128.521H120.598C121.288 128.521 121.848 129.081 121.848 129.771C121.848 130.462 121.288 131.021 120.598 131.021H111.25C110.56 131.021 110 130.462 110 129.771ZM125.774 128.521C125.084 128.521 124.524 129.081 124.524 129.771C124.524 130.462 125.084 131.021 125.774 131.021H167.591C168.282 131.021 168.841 130.462 168.841 129.771C168.841 129.081 168.282 128.521 167.591 128.521H125.774ZM123.669 121.201C123.669 120.511 124.228 119.951 124.919 119.951H174.968C175.659 119.951 176.218 120.511 176.218 121.201C176.218 121.892 175.659 122.451 174.968 122.451H124.919C124.228 122.451 123.669 121.892 123.669 121.201ZM111.253 137.734C110.563 137.734 110.003 138.294 110.003 138.984C110.003 139.675 110.563 140.234 111.253 140.234H119.492C120.183 140.234 120.742 139.675 120.742 138.984C120.742 138.294 120.183 137.734 119.492 137.734H111.253ZM111.25 147.375C110.56 147.375 110 147.935 110 148.625C110 149.315 110.56 149.875 111.25 149.875H120.598C121.288 149.875 121.848 149.315 121.848 148.625C121.848 147.935 121.288 147.375 120.598 147.375H111.25ZM110 157.195C110 156.505 110.56 155.945 111.25 155.945H120.598C121.288 155.945 121.848 156.505 121.848 157.195C121.848 157.886 121.288 158.445 120.598 158.445H111.25C110.56 158.445 110 157.886 110 157.195ZM125.773 147.375C125.083 147.375 124.523 147.935 124.523 148.625C124.523 149.315 125.083 149.875 125.773 149.875H163.543C164.234 149.875 164.793 149.315 164.793 148.625C164.793 147.935 164.234 147.375 163.543 147.375H125.773ZM123.67 139.199C123.67 138.509 124.23 137.949 124.92 137.949H171.61C172.301 137.949 172.86 138.509 172.86 139.199C172.86 139.89 172.301 140.449 171.61 140.449H124.92C124.23 140.449 123.67 139.89 123.67 139.199ZM124.524 157.195C124.524 156.505 125.084 155.945 125.774 155.945H178.446C179.136 155.945 179.696 156.505 179.696 157.195C179.696 157.886 179.136 158.445 178.446 158.445H125.774C125.084 158.445 124.524 157.886 124.524 157.195ZM204.145 155.73C203.454 155.73 202.895 156.29 202.895 156.98C202.895 157.671 203.454 158.23 204.145 158.23H213.191C213.881 158.23 214.441 157.671 214.441 156.98C214.441 156.29 213.881 155.73 213.191 155.73H204.145ZM203.84 148.625C203.84 147.935 204.4 147.375 205.09 147.375H213.398C214.088 147.375 214.648 147.935 214.648 148.625C214.648 149.315 214.088 149.875 213.398 149.875H205.09C204.4 149.875 203.84 149.315 203.84 148.625ZM153.248 174.965C153.248 174.274 153.807 173.715 154.498 173.715H160.401C161.091 173.715 161.651 174.274 161.651 174.965C161.651 175.655 161.091 176.215 160.401 176.215H154.498C153.807 176.215 153.248 175.655 153.248 174.965ZM110 174.979C110 174.288 110.56 173.729 111.25 173.729H148.545C149.235 173.729 149.795 174.288 149.795 174.979C149.795 175.669 149.235 176.229 148.545 176.229H111.25C110.56 176.229 110 175.669 110 174.979ZM157.915 181.715C157.225 181.715 156.665 182.274 156.665 182.965C156.665 183.655 157.225 184.215 157.915 184.215H163.818C164.508 184.215 165.068 183.655 165.068 182.965C165.068 182.274 164.508 181.715 163.818 181.715H157.915ZM188.942 175.193C188.942 174.503 189.502 173.943 190.192 173.943H212.025C212.715 173.943 213.275 174.503 213.275 175.193C213.275 175.884 212.715 176.443 212.025 176.443H190.192C189.502 176.443 188.942 175.884 188.942 175.193ZM111.25 181.715C110.56 181.715 110 182.274 110 182.965C110 183.655 110.56 184.215 111.25 184.215H152.816C153.507 184.215 154.066 183.655 154.066 182.965C154.066 182.274 153.507 181.715 152.816 181.715H111.25ZM192.802 184.406C192.802 183.716 193.362 183.156 194.052 183.156H212.638C213.328 183.156 213.888 183.716 213.888 184.406C213.888 185.097 213.328 185.656 212.638 185.656H194.052C193.362 185.656 192.802 185.097 192.802 184.406ZM110.226 201.76C110.226 201.069 110.786 200.51 111.476 200.51H194.052C194.743 200.51 195.302 201.069 195.302 201.76C195.302 202.45 194.743 203.01 194.052 203.01H111.476C110.786 203.01 110.226 202.45 110.226 201.76ZM110.226 211.188C110.226 210.497 110.786 209.938 111.476 209.938H194.052C194.743 209.938 195.302 210.497 195.302 211.188C195.302 211.878 194.743 212.438 194.052 212.438H111.476C110.786 212.438 110.226 211.878 110.226 211.188ZM111.476 219.363C110.786 219.363 110.226 219.923 110.226 220.613C110.226 221.304 110.786 221.863 111.476 221.863H194.052C194.743 221.863 195.302 221.304 195.302 220.613C195.302 219.923 194.743 219.363 194.052 219.363H111.476ZM109.373 238.611C109.373 237.921 109.933 237.361 110.623 237.361H119.971C120.661 237.361 121.221 237.921 121.221 238.611C121.221 239.302 120.661 239.861 119.971 239.861H110.623C109.933 239.861 109.373 239.302 109.373 238.611ZM123.896 238.611C123.896 237.921 124.456 237.361 125.146 237.361H162.916C163.607 237.361 164.166 237.921 164.166 238.611C164.166 239.302 163.607 239.861 162.916 239.861H125.146C124.456 239.861 123.896 239.302 123.896 238.611Z" fill="white"/>
<path fill-rule="evenodd" clip-rule="evenodd" d="M60.5 250.25C60.5 254.254 57.2541 257.5 53.25 257.5C49.2459 257.5 46 254.254 46 250.25C46 246.246 49.2459 243 53.25 243C57.2541 243 60.5 246.246 60.5 250.25ZM48.5 250.25C48.5 252.873 50.6266 255 53.25 255C55.8734 255 58 252.873 58 250.25C58 247.627 55.8734 245.5 53.25 245.5C50.6266 245.5 48.5 247.627 48.5 250.25Z" fill="#CCEAD8"/>
<path fill-rule="evenodd" clip-rule="evenodd" d="M46.406 179.915C46.8695 180.073 47.3163 180.279 47.7403 180.53C48.3341 180.883 48.5302 181.649 48.1781 182.243C47.8261 182.837 47.0593 183.033 46.4654 182.681C45.7543 182.259 44.9481 182.035 44.1073 182.035C41.5153 182.035 39.4014 184.181 39.383 186.849C39.4299 186.981 39.4555 187.122 39.4555 187.27C39.4555 187.96 38.8958 188.52 38.2055 188.52H33.25C32.5596 188.52 32 187.96 32 187.27C32 186.579 32.5596 186.02 33.25 186.02H36.9324C37.3458 182.433 40.2998 179.629 43.924 179.537C44.9392 175.195 48.8069 172 53.3756 172C57.9586 172 61.8303 175.213 62.834 179.567C65.2368 179.827 67.1711 181.658 67.6266 184.02H70.2055C70.8958 184.02 71.4555 184.579 71.4555 185.27C71.4555 185.96 70.8958 186.52 70.2055 186.52H65.25C64.5596 186.52 64 185.96 64 185.27C64 184.649 64.4528 184.134 65.0462 184.036C64.6261 182.866 63.5269 182.035 62.2429 182.035C61.7828 182.035 61.3399 182.14 60.937 182.342C60.3193 182.65 59.5686 182.399 59.2604 181.781C58.9522 181.163 59.203 180.413 59.8208 180.105C59.9887 180.021 60.1606 179.946 60.3358 179.88C59.5015 176.766 56.6853 174.5 53.3756 174.5C50.0563 174.5 47.2291 176.781 46.406 179.915ZM27.2055 188.52H22.25C21.5596 188.52 21 187.96 21 187.27C21 186.579 21.5596 186.02 22.25 186.02H27.2055C27.8958 186.02 28.4555 186.579 28.4555 187.27C28.4555 187.96 27.8958 188.52 27.2055 188.52Z" fill="#CCEAD8"/>
<path fill-rule="evenodd" clip-rule="evenodd" d="M260.63 164.63V160.25C260.63 159.56 261.189 159 261.88 159C262.57 159 263.13 159.56 263.13 160.25V164.63H267.509C268.2 164.63 268.759 165.189 268.759 165.88C268.759 166.57 268.2 167.13 267.509 167.13H263.13V171.509C263.13 172.2 262.57 172.759 261.88 172.759C261.189 172.759 260.63 172.2 260.63 171.509V167.13H256.25C255.56 167.13 255 166.57 255 165.88C255 165.189 255.56 164.63 256.25 164.63H260.63Z" fill="#B2E0C4"/>
<path fill-rule="evenodd" clip-rule="evenodd" d="M46.6297 43.6297V39.25C46.6297 38.5596 47.1894 38 47.8797 38C48.5701 38 49.1297 38.5596 49.1297 39.25V43.6297H53.5095C54.1998 43.6297 54.7595 44.1894 54.7595 44.8797C54.7595 45.5701 54.1998 46.1297 53.5095 46.1297H49.1297V50.5095C49.1297 51.1998 48.5701 51.7595 47.8797 51.7595C47.1894 51.7595 46.6297 51.1998 46.6297 50.5095V46.1297H42.25C41.5596 46.1297 41 45.5701 41 44.8797C41 44.1894 41.5596 43.6297 42.25 43.6297H46.6297Z" fill="#B2E0C4"/>
</svg>
