<svg width="200" height="200" viewBox="0 0 200 200" fill="none" xmlns="http://www.w3.org/2000/svg">
<rect width="200" height="200" fill="white"/>
<path d="M22.5 160.727C24.433 160.727 26 159.16 26 157.227C26 155.294 24.433 153.727 22.5 153.727C20.567 153.727 19 155.294 19 157.227C19 159.16 20.567 160.727 22.5 160.727ZM22.5 158.727C21.6716 158.727 21 158.055 21 157.227C21 156.398 21.6716 155.727 22.5 155.727C23.3284 155.727 24 156.398 24 157.227C24 158.055 23.3284 158.727 22.5 158.727ZM179 51.7266C182.866 51.7266 186 48.5926 186 44.7266C186 40.8606 182.866 37.7266 179 37.7266C175.134 37.7266 172 40.8606 172 44.7266C172 48.5926 175.134 51.7266 179 51.7266ZM179 49.7266C176.239 49.7266 174 47.488 174 44.7266C174 41.9651 176.239 39.7266 179 39.7266C181.761 39.7266 184 41.9651 184 44.7266C184 47.488 181.761 49.7266 179 49.7266Z" fill="#D8D8D8"/>
<path d="M140.727 11C141.28 11 141.727 11.4477 141.727 12L141.727 13.727L143.455 13.7273C143.967 13.7273 144.39 14.1133 144.448 14.6107L144.455 14.7273C144.455 15.2796 144.007 15.7273 143.455 15.7273L141.727 15.727L141.727 17.4545C141.727 17.9674 141.341 18.3901 140.844 18.4478L140.727 18.4545C140.175 18.4545 139.727 18.0068 139.727 17.4545L139.727 15.727L138 15.7273C137.487 15.7273 137.064 15.3412 137.007 14.8439L137 14.7273C137 14.175 137.448 13.7273 138 13.7273L139.727 13.727L139.727 12C139.727 11.4872 140.113 11.0645 140.611 11.0067L140.727 11ZM27.7273 50C28.2796 50 28.7273 50.4477 28.7273 51L28.727 52.727L30.4545 52.7273C30.9674 52.7273 31.3901 53.1133 31.4478 53.6107L31.4545 53.7273C31.4545 54.2796 31.0068 54.7273 30.4545 54.7273L28.727 54.727L28.7273 56.4545C28.7273 56.9674 28.3412 57.3901 27.8439 57.4478L27.7273 57.4545C27.175 57.4545 26.7273 57.0068 26.7273 56.4545L26.727 54.727L25 54.7273C24.4872 54.7273 24.0645 54.3412 24.0067 53.8439L24 53.7273C24 53.175 24.4477 52.7273 25 52.7273L26.727 52.727L26.7273 51C26.7273 50.4872 27.1133 50.0645 27.6107 50.0067L27.7273 50Z" fill="#979797"/>
<path d="M63.8873 99.6816H39.1963C38.644 99.6816 38.1963 100.129 38.1963 100.682V121.221C38.1963 121.773 38.644 122.221 39.1963 122.221H63.8873C64.4396 122.221 64.8873 121.773 64.8873 121.221V100.682C64.8873 100.129 64.4396 99.6816 63.8873 99.6816Z" fill="#D8D8D8"/>
<path fill-rule="evenodd" clip-rule="evenodd" d="M118 25.5488C125.18 25.5488 131 31.3691 131 38.5488V45.0172H47.9591V38.5488C47.9591 31.3691 53.7794 25.5488 60.9591 25.5488H118ZM106 34.7276H88.0001C86.8955 34.7276 86.0001 35.623 86.0001 36.7276C86.0001 37.8321 86.8955 38.7276 88.0001 38.7276H106C107.105 38.7276 108 37.8321 108 36.7276C108 35.623 107.105 34.7276 106 34.7276ZM79.0001 34.7276C77.8955 34.7276 77.0001 35.623 77.0001 36.7276C77.0001 37.8321 77.8955 38.7276 79.0001 38.7276C80.1047 38.7276 81.0001 37.8321 81.0001 36.7276C81.0001 35.623 80.1047 34.7276 79.0001 34.7276ZM46.8818 143.593H85.484V173.739H59.9259C52.7592 173.739 46.9443 167.939 46.9259 160.773L46.8818 143.593Z" fill="#D8D8D8"/>
<path d="M131.9 98.5285C142.89 98.5285 151.8 89.619 151.8 78.6285C151.8 67.638 142.89 58.7285 131.9 58.7285C120.91 58.7285 112 67.638 112 78.6285C112 89.619 120.91 98.5285 131.9 98.5285Z" fill="#D8D8D8"/>
<path d="M30.5 107.727C31.0523 107.727 31.5 108.174 31.5 108.727C31.5 109.279 31.0523 109.727 30.5 109.727H26.4325C25.8802 109.727 25.4325 109.279 25.4325 108.727C25.4325 108.174 25.8802 107.727 26.4325 107.727H30.5ZM30.5 99.7266C31.0523 99.7266 31.5 100.174 31.5 100.727C31.5 101.279 31.0523 101.727 30.5 101.727H23C22.4477 101.727 22 101.279 22 100.727C22 100.174 22.4477 99.7266 23 99.7266H30.5ZM18.7945 99.7266C19.3468 99.7266 19.7945 100.174 19.7945 100.727C19.7945 101.279 19.3468 101.727 18.7945 101.727H16C15.4477 101.727 15 101.279 15 100.727C15 100.174 15.4477 99.7266 16 99.7266H18.7945Z" fill="#979797"/>
<path d="M172.442 115.727H86.0859V153.105H172.442V115.727Z" fill="#D8D8D8"/>
<path d="M86.8301 153.105H171.043" stroke="#979797" stroke-width="2" stroke-linecap="square"/>
<path d="M118.462 24.5488C126.097 24.5488 132.361 30.7091 132.529 38.3032L132.532 38.6161L132.532 58.7369C137.515 58.8849 142.059 60.7764 145.576 63.8223C145.672 63.7766 145.777 63.7461 145.888 63.7338L146 63.7276H153.5C154.052 63.7276 154.5 64.1753 154.5 64.7276C154.5 65.2404 154.114 65.6631 153.617 65.7208L153.5 65.7276L147.509 65.7275C148.841 67.2229 149.962 68.911 150.825 70.7449L150.883 70.7343L151 70.7276H158.5C159.052 70.7276 159.5 71.1753 159.5 71.7276C159.5 72.2404 159.114 72.6631 158.617 72.7208L158.5 72.7276L151.635 72.7268C152.39 74.8873 152.801 77.2097 152.801 79.6281C152.801 90.9597 143.783 100.185 132.532 100.519L132.532 114.727L173.356 114.728V174.384L106.268 174.384L106.269 174.739H60.9742C53.3366 174.739 47.075 168.583 46.9072 160.986L46.9037 160.673V151.556L46.959 130.417L36 130.417C32.6863 130.417 30 127.731 30 124.417V79.7276C30 76.4138 32.6863 73.7276 36 73.7276L46.959 73.7268L46.9037 67.0623V38.6167C46.9037 30.9835 53.0637 24.7202 60.6612 24.5523L60.9742 24.5488H118.462ZM84.999 144.592H48.921L48.9037 151.559V160.673C48.9037 167.208 54.173 172.574 60.6733 172.736L60.9742 172.739L84.9997 172.739L84.999 144.592ZM171.356 116.728H87V172.384H171.356V116.728ZM151.464 162.013V163.797H94.0119V162.013H151.464ZM105.742 124.394C109.378 124.394 111.442 126.436 111.536 129.744L111.539 129.983V132.315C112.246 133.499 112.037 135.027 111.063 135.957C110.746 137.008 110.28 137.951 109.693 138.728L109.493 138.981V139.457L109.568 139.52L109.755 139.663L109.988 139.825C110.273 140.014 110.628 140.227 111.044 140.459L111.301 140.6L112.024 140.983L112.913 141.43C113.559 141.748 114.24 142.07 114.931 142.386L115.624 142.7L116.854 143.241L116.069 145.08L114.805 144.525C113.86 144.101 112.915 143.66 112.03 143.225L111.838 143.13L111.65 143.036L110.933 142.67C108.912 141.616 107.87 140.935 107.571 140.174L107.535 140.069L107.493 139.928V138.206L107.765 137.918C108.343 137.303 108.818 136.447 109.131 135.438L109.219 135.131L109.311 134.791L109.596 134.583C109.968 134.312 110.07 133.759 109.821 133.34L109.752 133.238L109.539 132.966V129.983C109.539 127.625 108.346 126.394 105.742 126.394C103.272 126.394 102.025 127.582 101.947 129.762L101.943 129.983V132.967L101.731 133.238C101.424 133.632 101.474 134.194 101.801 134.51L101.888 134.583L102.172 134.791L102.263 135.131C102.542 136.169 102.99 137.063 103.548 137.726L103.719 137.917L103.99 138.206V139.928L103.948 140.069C103.762 140.691 103.095 141.248 101.824 141.978L101.579 142.117L101.076 142.392L100.549 142.67C100.205 142.85 99.8389 143.035 99.4537 143.224C98.7902 143.551 98.0925 143.88 97.3863 144.204L96.6783 144.524L96.201 144.737L95.4147 145.08L94.6297 143.241L95.3922 142.908L96.5525 142.386C97.2432 142.07 97.9247 141.748 98.5704 141.43C98.9424 141.247 99.2947 141.069 99.6243 140.897C100.404 140.49 101.039 140.128 101.495 139.824C101.666 139.711 101.807 139.608 101.915 139.52L101.99 139.457V138.981C101.308 138.16 100.771 137.124 100.419 135.956C99.4931 135.07 99.2595 133.643 99.8488 132.487L99.9434 132.316V129.983C99.9434 126.565 102.078 124.394 105.742 124.394ZM154.367 142.794V144.579H126.012V142.794H154.367ZM130.532 46.0168H48.9037L48.9037 67.054L48.959 73.7193L48.017 73.7268L60.9652 73.7276L73.0294 85.8547V124.417C73.0294 127.731 70.3431 130.417 67.0294 130.417L48.159 130.417L48.959 130.42L48.927 142.592H84.999L85 114.728L130.532 114.727L130.532 100.484C119.627 99.7799 111 90.7115 111 79.6281C111 68.5447 119.627 59.4762 130.532 58.7716L130.532 46.0168ZM159.523 133.772V135.557H126.012V133.772H159.523ZM60.1337 75.7276H36C33.7909 75.7276 32 77.5184 32 79.7276V124.417C32 126.626 33.7909 128.417 36 128.417H67.0294C69.2386 128.417 71.0294 126.626 71.0294 124.417V86.68L60.1337 75.7276ZM138.901 124.75V126.534H126.012V124.75H138.901ZM64.8873 99.6818V122.221H38.1961V99.6818H64.8873ZM59.0531 101.681V120.221L62.8873 120.221V101.682L59.0531 101.681ZM44.3131 114.027H40.1951L40.1961 120.221L44.3131 120.221V114.027ZM50.8381 114.026L46.3131 114.027V120.221H50.8381V114.026ZM52.8381 114.026V120.221L57.0531 120.22L57.0535 114.027L52.8381 114.026ZM57.0531 101.681H52.5411L52.5417 108.03L40.1951 108.03V112.027L57.0535 112.027L57.0531 101.681ZM50.5411 101.681L40.1961 101.682L40.1951 106.03L50.5417 106.03L50.5411 101.681ZM131.9 60.7276C121.462 60.7276 113 69.1896 113 79.6281C113 90.0665 121.462 98.5285 131.9 98.5285C142.339 98.5285 150.801 90.0665 150.801 79.6281C150.801 69.1896 142.339 60.7276 131.9 60.7276ZM55.2467 90.4857V92.4857H38.0612V90.4857H55.2467ZM132.5 85.6455C133.438 85.6455 134.129 86.3135 134.129 87.1807C134.129 88.0596 133.438 88.7276 132.5 88.7276C131.562 88.7276 130.871 88.0596 130.871 87.1807C130.871 86.3135 131.562 85.6455 132.5 85.6455ZM46.0261 84.3387V86.3387H38.0612V84.3387H46.0261ZM133.754 70.6455V83.4072H131.246V70.6455H133.754ZM159.795 63.7276C160.347 63.7276 160.795 64.1753 160.795 64.7276C160.795 65.2404 160.408 65.6631 159.911 65.7208L159.795 65.7276H157C156.448 65.7276 156 65.2798 156 64.7276C156 64.2147 156.386 63.792 156.883 63.7343L157 63.7276H159.795ZM118.462 26.5488H60.9742C54.4387 26.5488 49.0687 31.82 48.9074 38.3161L48.9037 38.6167V44.0168H130.532L130.532 38.6161C130.532 32.0841 125.261 26.7138 118.763 26.5526L118.462 26.5488ZM106 33.7276C107.657 33.7276 109 35.0707 109 36.7276C109 38.3844 107.657 39.7276 106 39.7276H88C86.3431 39.7276 85 38.3844 85 36.7276C85 35.0707 86.3431 33.7276 88 33.7276H106ZM79 33.7276C80.6569 33.7276 82 35.0707 82 36.7276C82 38.3844 80.6569 39.7276 79 39.7276C77.3431 39.7276 76 38.3844 76 36.7276C76 35.0707 77.3431 33.7276 79 33.7276ZM106 35.7276H88C87.4477 35.7276 87 36.1753 87 36.7276C87 37.2798 87.4477 37.7276 88 37.7276H106C106.552 37.7276 107 37.2798 107 36.7276C107 36.1753 106.552 35.7276 106 35.7276ZM79 35.7276C78.4477 35.7276 78 36.1753 78 36.7276C78 37.2798 78.4477 37.7276 79 37.7276C79.5523 37.7276 80 37.2798 80 36.7276C80 36.1753 79.5523 35.7276 79 35.7276Z" fill="#979797"/>
</svg>
