<svg width="300" height="300" viewBox="0 0 300 300" fill="none" xmlns="http://www.w3.org/2000/svg">
<g clip-path="url(#clip0)">
<rect width="300" height="300" fill="white"/>
<path fill-rule="evenodd" clip-rule="evenodd" d="M80.4192 151.686L47.8452 194.056C47.3679 194.764 47.0089 195.296 46.7683 195.654C33.6015 215.228 38.7958 241.77 58.3699 254.937C65.6062 259.804 74.1589 262.34 82.8789 262.203L104.464 261.866C127.194 261.51 145.333 242.795 144.977 220.064C144.855 212.27 142.522 204.671 138.251 198.151C125.352 178.462 114.607 162.973 106.015 151.686L118.697 131.15H69.5742L80.4192 151.686Z" fill="#E4F2D2"/>
<path fill-rule="evenodd" clip-rule="evenodd" d="M158.457 208.479H154.086L161.483 244.425L158.457 208.479Z" fill="#E4F2D2"/>
<path fill-rule="evenodd" clip-rule="evenodd" d="M162.984 261.249L153.584 208.695L254.56 190.891L255.861 198.27L163 208.139L162.984 261.249Z" fill="#E4F2D2"/>
<path fill-rule="evenodd" clip-rule="evenodd" d="M157.29 208.051L259.262 197.333L260.407 208.229L157.29 208.051Z" fill="#E4F2D2"/>
<path opacity="0.5" d="M254.784 208.643H163.652V262.02H254.784V208.643Z" fill="url(#paint0_linear)" fill-opacity="0.3"/>
<path fill-rule="evenodd" clip-rule="evenodd" d="M212.456 246.264V252.774H208.984V246.264H212.456ZM212.456 235.415V243.226H208.984V235.415H212.456ZM212.456 225.434V233.245H208.984V225.434H212.456ZM212.456 215.887V222.396H208.984V215.887H212.456Z" fill="#BBDE8F"/>
<path fill-rule="evenodd" clip-rule="evenodd" d="M232.594 252.386L238.227 255.527L243.861 245.121L242.32 242.168C240.399 243.865 239.236 244.849 238.833 245.121C238.429 245.392 236.35 247.814 232.594 252.386Z" fill="white"/>
<path fill-rule="evenodd" clip-rule="evenodd" d="M222.92 224.91C225.196 223.184 227.393 222.322 229.512 222.322C232.692 222.322 235.009 222.375 236.677 222.375C238.345 222.375 236.818 224.46 237.362 226.007C237.906 227.553 237.757 227.353 238.833 229.045C239.909 230.737 241.929 232.741 242.698 232.741C243.21 232.741 243.698 232.633 244.162 232.417C245.449 232.182 246.148 231.437 246.26 230.182C246.428 228.3 246.428 228.589 245.78 224.91C245.131 221.23 244.957 219.623 238.883 217.489C232.809 215.354 226.925 217.936 224.922 219.582C223.587 220.679 222.92 222.455 222.92 224.91Z" fill="#E4F2D2"/>
<path d="M178.901 225.174H184.039C186.938 225.174 188.491 226.545 188.491 228.871C188.491 230.867 187.103 232.23 184.768 232.456L188.509 237.325H185.575L182.034 232.49H181.322V237.325H178.901V225.174ZM183.995 227.404H181.322V230.381H183.995C185.315 230.381 186 229.895 186 228.871C186 227.864 185.28 227.404 183.995 227.404Z" fill="#009639"/>
<path fill-rule="evenodd" clip-rule="evenodd" d="M229.096 254.168L228.287 250.573V248.074L229.702 248.341L232.24 252.386L229.096 254.168Z" fill="white"/>
<g opacity="0.547">
<path opacity="0.547" d="M246.724 209L246.724 209.039L254.657 213.22V216.835L247.332 221.508L254.657 225.351V227.654L247.332 232.327L254.657 236.169V239.11L247.332 243.783L254.656 247.625V251.203L247.376 255.845L247.527 255.942L247.492 255.959L254.656 259.717V261.514L245.78 256.857L237.409 261.25L227.291 255.942L237.409 249.489L245.897 254.902L254.565 249.374L244.163 243.917L254.018 237.631L244.163 232.461L253.47 226.524L244.163 221.642L254.592 214.99L246.651 210.823L237.409 216.325L226 210.349L227.661 209.414L237.409 214.529L246.65 209.044L246.651 209L246.689 209.021L246.724 209ZM237.409 251.376L230.46 255.808L237.409 259.453L244.357 255.808L237.409 251.376Z" fill="#BBDE8F"/>
<path opacity="0.547" d="M246.724 209L246.724 209.039L254.657 213.22V216.835L247.332 221.508L254.657 225.351V227.654L247.332 232.327L254.657 236.169V239.11L247.332 243.783L254.656 247.625V251.203L247.376 255.845L247.527 255.942L247.492 255.959L254.656 259.717V261.514L245.78 256.857L237.409 261.25L227.291 255.942L237.409 249.489L245.897 254.902L254.565 249.374L244.163 243.917L254.018 237.631L244.163 232.461L253.47 226.524L244.163 221.642L254.592 214.99L246.651 210.823L237.409 216.325L226 210.349L227.661 209.414L237.409 214.529L246.65 209.044L246.651 209L246.689 209.021L246.724 209ZM237.409 251.376L230.46 255.808L237.409 259.453L244.357 255.808L237.409 251.376Z" fill="url(#paint1_linear)"/>
</g>
<path d="M241.814 240.04H242.81C245.134 240.04 247.116 238.355 247.489 236.06L247.835 233.933C247.977 233.063 247.386 232.243 246.516 232.101C246.432 232.087 246.346 232.081 246.26 232.081V226.298C245.898 223.235 245.018 220.986 243.619 219.551C240.069 215.909 235.235 216.256 232.24 216.679C227.562 217.34 224.455 219.85 222.92 224.211C222.288 227.248 221.954 229.543 221.92 231.098C221.751 238.846 223.597 245.221 227.225 247.531C229.32 248.865 233.613 247.686 235.686 246.791C238.848 245.426 241.06 243.885 242.32 242.168V239.325C240.88 236.731 241.393 234.201 243.861 231.737" stroke="#009639" stroke-width="2"/>
<path d="M228.287 248.074V250.519L228.822 255.527L232.764 252.37L230.264 248.555" stroke="#009639" stroke-width="2"/>
<path d="M232.764 252.37L238.227 255.527L243.861 245.053L242.265 242.512L233.049 251.525" stroke="#009639" stroke-width="2"/>
<path d="M228.287 249.938L224.622 252.365" stroke="#009639" stroke-width="2"/>
<path d="M222.92 225.24C226.74 222.572 231.361 221.753 236.782 222.784M242.265 232.998C240.188 231.543 238.715 230.006 237.846 228.387C236.977 226.768 236.622 224.9 236.782 222.784L239.155 220.41L242.265 232.998Z" stroke="#009639" stroke-width="2"/>
<path fill-rule="evenodd" clip-rule="evenodd" d="M218 185C228.493 185 237 176.493 237 166C237 165.773 236.3 167.236 235.897 167.652C234.8 168.785 233.111 170.247 232.476 170.277C229.786 170.4 227.223 168.113 226 166C225.822 165.693 234.094 155.89 233.9 155.594C230.505 150.418 224.652 147 218 147C207.507 147 199 155.507 199 166C199 176.493 207.507 185 218 185Z" fill="#E4F2D2"/>
<path d="M212.901 160.174H218.039C220.938 160.174 222.491 161.545 222.491 163.871C222.491 165.867 221.103 167.23 218.768 167.456L222.509 172.325H219.575L216.034 167.49H215.322V172.325H212.901V160.174ZM217.995 162.404H215.322V165.381H217.995C219.315 165.381 220 164.895 220 163.871C220 162.864 219.28 162.404 217.995 162.404Z" fill="#009639"/>
<path d="M79.5 73C84.7467 73 89 68.7467 89 63.5C89 58.2533 84.7467 54 79.5 54C74.2533 54 70 58.2533 70 63.5C70 68.7467 74.2533 73 79.5 73ZM79.5 71C75.3579 71 72 67.6421 72 63.5C72 59.3579 75.3579 56 79.5 56C83.6421 56 87 59.3579 87 63.5C87 67.6421 83.6421 71 79.5 71ZM236 107C239.314 107 242 104.314 242 101C242 97.6863 239.314 95 236 95C232.686 95 230 97.6863 230 101C230 104.314 232.686 107 236 107ZM236 105C233.791 105 232 103.209 232 101C232 98.7909 233.791 97 236 97C238.209 97 240 98.7909 240 101C240 103.209 238.209 105 236 105Z" fill="#B2E0C4"/>
<path d="M246.321 44C246.873 44 247.321 44.4477 247.321 45L247.32 47.479L249.8 47.4794C250.313 47.4794 250.736 47.8655 250.793 48.3628L250.8 48.4794C250.8 49.0317 250.352 49.4794 249.8 49.4794L247.32 49.479L247.321 51.9589C247.321 52.4717 246.935 52.8944 246.437 52.9521L246.321 52.9589C245.768 52.9589 245.321 52.5112 245.321 51.9589L245.32 49.479L242.841 49.4794C242.328 49.4794 241.906 49.0934 241.848 48.5961L241.841 48.4794C241.841 47.9272 242.289 47.4794 242.841 47.4794L245.32 47.479L245.321 45C245.321 44.4872 245.707 44.0645 246.204 44.0067L246.321 44ZM47.15 102C47.7023 102 48.15 102.448 48.15 103L48.1492 108.461L53.6119 108.462C54.1247 108.462 54.5474 108.848 54.6051 109.345L54.6119 109.462C54.6119 110.014 54.1641 110.462 53.6119 110.462L48.1492 110.461L48.15 115.924C48.15 116.436 47.764 116.859 47.2667 116.917L47.15 116.924C46.5978 116.924 46.15 116.476 46.15 115.924L46.1492 110.461L40.6882 110.462C40.1754 110.462 39.7527 110.076 39.695 109.578L39.6882 109.462C39.6882 108.91 40.1359 108.462 40.6882 108.462L46.1492 108.461L46.15 103C46.15 102.487 46.5361 102.064 47.0334 102.007L47.15 102Z" fill="#7FCB9C"/>
<path d="M208.671 53.5L187.268 90.953L192.044 90.9823C192.557 90.9854 192.978 91.3739 193.032 91.8716L193.038 91.9883C193.035 92.5011 192.647 92.9214 192.149 92.9762L192.033 92.9823L187.485 92.955L226.754 145.368L230.891 140.292C232.523 138.288 234.931 137.094 237.494 137.005L237.803 137H263.563V139H237.803C235.811 139 233.919 139.86 232.603 141.353L232.427 141.56L226.992 148.229C229.601 149.588 231.899 151.524 233.702 153.918L233.998 154.321L240.535 147.853L241.927 149.28L228.291 162.771C228.253 162.809 228.215 162.848 228.178 162.888C226.679 164.498 226.76 167.026 228.359 168.534C230.028 170.109 232.601 170.137 234.302 168.636L234.47 168.481L248.405 154.865L249.097 155.577C252.322 158.896 256.702 160.81 261.301 160.923L261.733 160.928H263.563V162.928H261.733C256.924 162.928 252.299 161.155 248.719 157.973L248.386 157.671L241.218 164.673L243.691 167.974C249.71 176.368 253.579 183.504 255.283 189.415L255.435 189.388L255.827 191.606C255.926 192.088 256.009 192.56 256.076 193.023L256.801 197.14L260.841 196.715L261.922 207H266L266 261H277.719C278.232 261 278.654 261.386 278.712 261.883L278.719 262C278.719 262.513 278.333 262.936 277.835 262.993L277.719 263H95.8578L82.8945 263.204C81.2385 263.23 79.5884 263.161 77.9518 263.001L29.1119 263C28.5596 263 28.1119 262.552 28.1119 262C28.1119 261.487 28.498 261.064 28.9953 261.007L29.1119 261L68.4939 261.002C64.7326 259.759 61.1364 258.003 57.8118 255.767C37.9797 242.427 32.5713 215.671 45.5399 195.699L45.9385 195.096L47.0524 193.447L78.3886 152.686L73.9201 152.686C73.4073 152.686 72.9846 152.3 72.9268 151.803L72.9201 151.686C72.9201 151.173 73.3061 150.751 73.8035 150.693L73.9201 150.686L78.7596 150.686L67.9152 130.151L118.294 130.15L141.933 92.4533C141.712 92.2686 141.572 91.9905 141.574 91.6803C141.576 91.3634 141.725 91.0818 141.956 90.8999L124.551 53.5H208.671ZM23.5501 261C24.1023 261 24.5501 261.448 24.5501 262C24.5501 262.513 24.164 262.936 23.6667 262.993L23.5501 263H18.6418C18.0896 263 17.6418 262.552 17.6418 262C17.6418 261.487 18.0279 261.064 18.5252 261.007L18.6418 261H23.5501ZM287.55 261C288.102 261 288.55 261.448 288.55 262C288.55 262.513 288.164 262.936 287.667 262.993L287.55 263H282.642C282.09 263 281.642 262.552 281.642 262C281.642 261.487 282.028 261.064 282.525 261.007L282.642 261H287.55ZM144.144 92.695L119.57 131.882L119.462 131.814L107.226 151.628L108.551 153.386C116.251 163.659 125.563 177.08 136.488 193.648L137.133 194.627L139.087 197.603C143.463 204.282 145.852 212.065 145.977 220.049C146.277 239.228 133.722 255.617 116.273 261.001L162 261L162 258.407L153.015 207.447L253.302 189.764C251.802 184.692 248.588 178.56 243.653 171.397L242.879 170.285L242.078 169.157L239.775 166.083L235.853 169.916C233.459 172.255 229.698 172.347 227.196 170.17L227.001 169.993C224.601 167.729 224.479 163.936 226.728 161.52L226.813 161.431L226.899 161.344L232.562 155.741C229.25 150.94 223.81 148 217.868 148C207.992 148 199.987 156.059 199.987 166C199.987 175.941 207.992 184 217.868 184C225.591 184 232.359 179.026 234.799 171.803L234.912 171.457L236.609 172H241.709C242.257 172 242.702 172.448 242.702 173C242.702 173.513 242.319 173.936 241.825 173.993L241.709 174H236.183C236.15 174 236.117 173.998 236.085 173.995C235.784 174.69 235.445 175.364 235.072 176.012L234.786 176.495H235.748C236.297 176.495 236.742 176.942 236.742 177.495C236.742 178.007 236.358 178.43 235.864 178.488L235.748 178.495H233.762C233.646 178.495 233.534 178.475 233.431 178.438C229.753 183.095 224.089 186 217.868 186C206.895 186 198 177.046 198 166C198 154.954 206.895 146 217.868 146C220.231 146 222.524 146.419 224.662 147.202L225.118 147.375L225.452 146.966L184.974 92.94L144.144 92.695ZM105.517 152.686H80.9116L48.6742 194.616L47.598 196.213C34.7395 215.328 39.8121 241.249 58.928 254.107C64.6547 257.959 71.2256 260.316 78.0435 261.001L95.8898 261L104.448 260.866C126.626 260.519 144.324 242.258 143.977 220.08C143.858 212.475 141.582 205.061 137.414 198.699C125.834 181.023 115.993 166.738 107.894 155.848L107.446 155.247L106.099 153.452L105.517 152.686ZM264 209H164L164 251.153L165.035 261H264V209ZM202.997 251L203.003 253L178.904 253.074L178.898 251.074L202.997 251ZM188.509 245.074V247.074H178.901V245.074H188.509ZM157.525 208.682L155.332 209.07L160.863 240.437L157.525 208.682ZM162 209.115L159.608 209.366L162 232.124V209.115ZM259.061 198.913L182.119 207H259.911L259.061 198.913ZM253.804 191.705L173.087 205.938L254.807 197.349L254.537 195.816L254.287 195.817C254.287 195.031 254.225 194.207 254.102 193.344L253.856 191.95C253.839 191.869 253.822 191.787 253.804 191.705ZM116.904 132.151H71.2332L81.0216 150.686H87.5566L83.7619 141.718C83.562 141.245 83.7528 140.706 84.1883 140.459L84.2931 140.407C84.7654 140.207 85.3051 140.398 85.5521 140.833L85.6038 140.938L89.7154 150.654C89.72 150.665 89.7244 150.676 89.7286 150.687H95.7487C95.7529 150.676 95.7573 150.665 95.7619 150.654L99.8735 140.938C100.089 140.43 100.676 140.192 101.184 140.407C101.693 140.622 101.931 141.209 101.715 141.718L97.9196 150.686H105.457L116.904 132.151ZM205.225 55.5H127.688L144.067 90.695L155.625 90.764L148.731 72.1056C148.553 71.6246 148.768 71.0943 149.215 70.8678L149.322 70.821C149.803 70.6433 150.333 70.8589 150.56 71.3054L150.607 71.4124L157.732 90.6969C157.742 90.7237 157.751 90.7506 157.758 90.7776L169.702 90.8493C169.715 90.7835 169.735 90.718 169.762 90.6538L173.874 80.9383C174.089 80.4297 174.676 80.1918 175.184 80.4071C175.693 80.6223 175.931 81.2091 175.715 81.7177L171.845 90.861L184.973 90.94L205.225 55.5Z" fill="#009639"/>
</g>
<defs>
<linearGradient id="paint0_linear" x1="259.923" y1="234.099" x2="107.556" y2="233.687" gradientUnits="userSpaceOnUse">
<stop stop-color="#78BE20" stop-opacity="0.954"/>
<stop offset="0.72104" stop-color="white" stop-opacity="0.4"/>
<stop offset="0.85275" stop-color="white" stop-opacity="0"/>
<stop offset="1" stop-color="white" stop-opacity="0"/>
</linearGradient>
<linearGradient id="paint1_linear" x1="239.943" y1="203.389" x2="244.468" y2="286.757" gradientUnits="userSpaceOnUse">
<stop stop-color="#78BE20" stop-opacity="0.954"/>
<stop offset="0.54446" stop-color="white" stop-opacity="0.4"/>
<stop offset="0.85275" stop-color="white" stop-opacity="0"/>
<stop offset="1" stop-color="white" stop-opacity="0"/>
</linearGradient>
<clipPath id="clip0">
<rect width="300" height="300" fill="white"/>
</clipPath>
</defs>
</svg>
