<svg width="300" height="300" viewBox="0 0 300 300" fill="none" xmlns="http://www.w3.org/2000/svg">
<rect width="300" height="300" fill="white"/>
<path fill-rule="evenodd" clip-rule="evenodd" d="M104.4 92.9473L89.8069 94.8453L104.4 199.922V92.9473Z" fill="#E4F2D2"/>
<path fill-rule="evenodd" clip-rule="evenodd" d="M104.4 92.9473H100.103L104.456 171.834L104.4 92.9473Z" fill="#BBDE8F"/>
<path d="M260.138 99.1562C260.69 99.1562 261.138 99.604 261.138 100.156C261.138 100.669 260.752 101.092 260.254 101.15L260.138 101.156L228.548 101.156V115.04L260.138 115.04C260.651 115.04 261.073 115.427 261.131 115.924L261.138 116.04C261.138 116.553 260.752 116.976 260.254 117.034L260.138 117.04L244.83 117.04V131.006L255.048 131.007C255.601 131.007 256.048 131.455 256.048 132.007C256.048 132.52 255.662 132.942 255.165 133L255.048 133.007L228.556 133.006V146.89L238.097 146.891C238.61 146.891 239.032 147.277 239.09 147.774L239.097 147.891C239.097 148.404 238.711 148.827 238.213 148.884L238.097 148.891H227.548C227.479 148.891 227.412 148.884 227.347 148.871L195.008 148.869C194.456 148.869 194.008 148.422 194.008 147.869V131.985C194.008 131.433 194.456 130.985 195.008 130.985L210.281 130.984L210.282 116.046C210.282 115.533 210.668 115.111 211.166 115.053L211.282 115.046L226.548 115.045V101.156H215.112C214.56 101.156 214.112 100.709 214.112 100.156C214.112 99.6434 214.498 99.2207 214.995 99.163L215.112 99.1562H260.138ZM226.548 132.985L196.009 132.986V146.87L226.548 146.869V132.985ZM242.831 117.047H212.283V130.931H242.831V117.047Z" fill="#CCEAD8"/>
<path d="M195 116.041H227.548" stroke="#CCEAD8" stroke-width="2" stroke-linecap="round" stroke-linejoin="round"/>
<path fill-rule="evenodd" clip-rule="evenodd" d="M105.8 203.752H151.894L146.922 209.207L106.675 214.867L105.8 203.752Z" fill="#E4F2D2"/>
<path d="M230.088 191.953C230.6 191.953 231.023 192.339 231.081 192.837L231.088 192.953V195.647L233.782 195.647C234.334 195.647 234.782 196.095 234.782 196.647C234.782 197.16 234.396 197.583 233.898 197.64L233.782 197.647L231.088 197.647V200.341C231.088 200.893 230.64 201.341 230.088 201.341C229.575 201.341 229.152 200.955 229.094 200.458L229.088 200.341V197.647L226.394 197.647C225.841 197.647 225.394 197.199 225.394 196.647C225.394 196.134 225.78 195.712 226.277 195.654L226.394 195.647L229.088 195.647V192.953C229.088 192.401 229.535 191.953 230.088 191.953Z" fill="#7FCB9C"/>
<path d="M178.2 64.9688H185.08" stroke="#E5F5EB" stroke-width="2" stroke-linecap="round" stroke-linejoin="round"/>
<path d="M181.663 61.5508V68.4308" stroke="#E5F5EB" stroke-width="2" stroke-linecap="round" stroke-linejoin="round"/>
<path d="M47.2176 96.4609C47.7699 96.4609 48.2176 96.9087 48.2176 97.4609C48.2176 97.9738 47.8316 98.3964 47.3342 98.4542L47.2176 98.4609H42.6001C42.0478 98.4609 41.6001 98.0132 41.6001 97.4609C41.6001 96.9481 41.9861 96.5254 42.4835 96.4677L42.6001 96.4609H47.2176Z" fill="#CCEAD8"/>
<path d="M44.9087 94.1504C45.4215 94.1504 45.8442 94.5364 45.902 95.0338L45.9087 95.1504V99.7679C45.9087 100.32 45.461 100.768 44.9087 100.768C44.3959 100.768 43.9732 100.382 43.9154 99.8845L43.9087 99.7679V95.1504C43.9087 94.5981 44.3564 94.1504 44.9087 94.1504Z" fill="#CCEAD8"/>
<path d="M136.032 242.557C136.545 242.557 136.967 242.943 137.025 243.44L137.032 243.557L137.031 246.148L139.623 246.148C140.176 246.148 140.623 246.596 140.623 247.148C140.623 247.661 140.237 248.084 139.74 248.141L139.623 248.148L137.031 248.148L137.032 250.739C137.032 251.292 136.584 251.739 136.032 251.739C135.519 251.739 135.096 251.353 135.039 250.856L135.032 250.739L135.031 248.148L132.44 248.148C131.888 248.148 131.44 247.7 131.44 247.148C131.44 246.635 131.826 246.213 132.324 246.155L132.44 246.148L135.031 246.148L135.032 243.557C135.032 243.004 135.48 242.557 136.032 242.557Z" fill="#99D5B0"/>
<path d="M40.031 200.803H47.373" stroke="#E5F5EB" stroke-width="2" stroke-linecap="round" stroke-linejoin="round"/>
<path d="M43.7251 197.154V204.496" stroke="#E5F5EB" stroke-width="2" stroke-linecap="round" stroke-linejoin="round"/>
<path d="M204.309 215C200.825 215 198 217.825 198 221.309C198 224.793 200.825 227.618 204.309 227.618C207.793 227.618 210.618 224.793 210.618 221.309C210.618 217.825 207.793 215 204.309 215ZM204.309 217C206.688 217 208.618 218.929 208.618 221.309C208.618 223.688 206.688 225.618 204.309 225.618C201.929 225.618 200 223.688 200 221.309C200 218.929 201.929 217 204.309 217Z" fill="#B2E0C4"/>
<path d="M60.117 126.893C58.3407 126.893 56.9006 128.333 56.9006 130.109C56.9006 131.885 58.3407 133.325 60.117 133.325C61.8934 133.325 63.3334 131.885 63.3334 130.109C63.3334 128.333 61.8934 126.893 60.117 126.893ZM60.117 128.893C60.7888 128.893 61.3334 129.437 61.3334 130.109C61.3334 130.781 60.7888 131.325 60.117 131.325C59.4452 131.325 58.9006 130.781 58.9006 130.109C58.9006 129.437 59.4452 128.893 60.117 128.893Z" fill="#7FCB9C"/>
<path d="M75.8785 214.15C73.5156 214.15 71.6001 216.066 71.6001 218.429C71.6001 220.792 73.5156 222.707 75.8785 222.707C78.2414 222.707 80.157 220.792 80.157 218.429C80.157 216.066 78.2414 214.15 75.8785 214.15ZM75.8785 216.15C77.1369 216.15 78.157 217.17 78.157 218.429C78.157 219.687 77.1369 220.707 75.8785 220.707C74.6202 220.707 73.6001 219.687 73.6001 218.429C73.6001 217.17 74.6202 216.15 75.8785 216.15Z" fill="#B2E0C4"/>
<path d="M213.7 31.752C211.767 31.752 210.2 33.319 210.2 35.252C210.2 37.185 211.767 38.752 213.7 38.752C215.633 38.752 217.2 37.185 217.2 35.252C217.2 33.319 215.633 31.752 213.7 31.752ZM213.7 33.752C214.528 33.752 215.2 34.4235 215.2 35.252C215.2 36.0804 214.528 36.752 213.7 36.752C212.872 36.752 212.2 36.0804 212.2 35.252C212.2 34.4235 212.872 33.752 213.7 33.752Z" fill="#99D5B0"/>
<path d="M100.945 42.2852C101.497 42.2852 101.945 42.7329 101.945 43.2852V79.7342C101.945 80.2865 101.497 80.7342 100.945 80.7342H51.1243C50.572 80.7342 50.1243 80.2865 50.1243 79.7342V43.2852C50.1243 42.7329 50.572 42.2852 51.1243 42.2852H100.945ZM99.945 44.285H52.125V78.734H99.945V44.285ZM96.1051 47.1443C96.6573 47.1443 97.1051 47.592 97.1051 48.1443V74.8876C97.1051 75.4399 96.6573 75.8876 96.1051 75.8876H55.9901C55.4379 75.8876 54.9901 75.4399 54.9901 74.8876V48.1443C54.9901 47.592 55.4379 47.1443 55.9901 47.1443H96.1051ZM95.1049 49.1433H56.9899V73.8873H95.1049V49.1433ZM77.7645 56.0864L77.8383 56.197L85.2747 69.045C85.6413 69.6783 85.2255 70.4629 84.5225 70.5398L84.4092 70.5459H63.2171C62.4478 70.5459 61.9666 69.7135 62.3506 69.0468L68.7047 58.0143C69.0894 57.3465 70.0532 57.3465 70.4378 58.0143L72.7483 62.0262L76.1063 56.1987C76.468 55.571 77.3415 55.5333 77.7645 56.0864ZM76.9739 58.6973L73.9013 64.0292L76.5023 68.5452L82.6739 68.5453L76.9739 58.6973ZM69.5709 60.5163L64.9459 68.5453H74.1949L69.5709 60.5163ZM87.2372 51.8575C89.3513 51.8575 91.0651 53.5714 91.0651 55.6855C91.0651 57.7996 89.3513 59.5134 87.2372 59.5134C85.1231 59.5134 83.4092 57.7996 83.4092 55.6855C83.4092 53.5714 85.1231 51.8575 87.2372 51.8575ZM87.2372 53.8575C86.2276 53.8575 85.4092 54.6759 85.4092 55.6855C85.4092 56.695 86.2276 57.5134 87.2372 57.5134C88.2467 57.5134 89.0651 56.695 89.0651 55.6855C89.0651 54.6759 88.2467 53.8575 87.2372 53.8575Z" fill="#E5F5EB"/>
<path d="M85.6882 151.957L85.8048 151.964C86.3022 152.022 86.6882 152.444 86.6882 152.957C86.6882 153.509 86.2405 153.957 85.6882 153.957H74.2514V167.841L100.157 167.841L100.274 167.848C100.771 167.906 101.157 168.328 101.157 168.841C101.157 169.394 100.709 169.841 100.157 169.841L90.5174 169.841V183.785L102.35 183.786L102.466 183.793C102.964 183.85 103.35 184.273 103.35 184.786L103.343 184.903C103.285 185.4 102.863 185.786 102.35 185.786L74.2514 185.786V199.67L104.456 199.67L104.573 199.677C105.07 199.735 105.456 200.157 105.456 200.67C105.456 201.222 105.009 201.67 104.456 201.67L73.4535 201.671C73.3883 201.685 73.3208 201.692 73.2517 201.692H62.7033L62.5867 201.685C62.0893 201.627 61.7033 201.205 61.7033 200.692L61.71 200.575C61.7678 200.078 62.1904 199.692 62.7033 199.692L72.2434 199.691V185.807L45.7519 185.808L45.6353 185.801C45.1379 185.743 44.7519 185.32 44.7519 184.808C44.7519 184.255 45.1996 183.808 45.7519 183.808L55.9694 183.807V169.841L40.6624 169.841L40.5457 169.835C40.0484 169.777 39.6624 169.354 39.6624 168.841L39.6691 168.725C39.7268 168.227 40.1495 167.841 40.6624 167.841L72.252 167.841V153.957L40.6624 153.957L40.5457 153.95C40.0484 153.893 39.6624 153.47 39.6624 152.957C39.6624 152.405 40.1101 151.957 40.6624 151.957H85.6882ZM88.517 169.847H57.9691V183.731H88.517V169.847Z" fill="#CCEAD8"/>
<path d="M202.824 158.824L209.329 165.33L178.631 196.027L172.126 189.522L202.824 158.824Z" fill="#526066"/>
<path d="M202.824 158.824L209.329 165.33L178.631 196.027L172.126 189.522L202.824 158.824Z" fill="#E4F2D2"/>
<path opacity="0.64" d="M202.824 158.824L204.857 160.857L174.16 191.554L172.127 189.521L202.824 158.824Z" fill="#BBDE8F"/>
<path d="M207.5 163.5L209.33 165.33L178.632 196.028L176.802 194.198L207.5 163.5Z" fill="white"/>
<path d="M157.977 216.843C155.782 214.648 153.566 212.432 151.37 210.236C155.416 205.337 160.092 200.661 165.194 196.412C167.39 198.608 169.606 200.823 171.802 203.019C167.553 208.122 162.877 212.798 157.977 216.843Z" fill="#42708A"/>
<path d="M157.977 216.843C155.782 214.648 153.566 212.432 151.37 210.236C155.416 205.337 160.092 200.661 165.194 196.412C167.39 198.608 169.606 200.823 171.802 203.019C167.553 208.122 162.877 212.798 157.977 216.843Z" fill="#E4F2D2"/>
<path d="M171.802 203.021C171.273 202.493 170.744 201.964 170.216 201.436C165.967 206.538 161.291 211.214 156.392 215.26C156.92 215.788 157.449 216.317 157.977 216.845C162.877 212.8 167.553 208.124 171.802 203.021Z" fill="#BBDE8F"/>
<path opacity="0.73" d="M153.911 212.372C153.586 212.046 153.281 211.741 152.955 211.416C156.94 206.578 161.534 201.983 166.556 197.775C166.881 198.1 167.206 198.426 167.532 198.751C162.51 202.959 157.916 207.554 153.911 212.372Z" fill="white"/>
<path d="M145.962 223.938C150.313 221.783 154.684 220.055 157.977 216.843L151.37 210.236C148.158 213.53 146.43 217.901 144.275 222.251L145.962 223.938Z" fill="#E4F2D2"/>
<path d="M157.977 216.843C157.916 216.904 157.835 216.986 157.774 217.047L153.423 212.696C150.252 215.908 147.772 219.527 145.332 223.308L144.275 222.251C146.43 217.901 148.158 213.53 151.37 210.236L157.977 216.843Z" fill="white"/>
<path d="M212.379 159.434L208.719 155.775L213.944 150.55C214.656 149.839 215.875 149.92 216.587 150.632L217.603 151.648C218.315 152.36 218.315 153.498 217.603 154.21L212.379 159.434Z" fill="#E4F2D2"/>
<path d="M202.417 164.109L208.719 170.412L205.06 174.071L198.757 167.769L202.417 164.109Z" fill="#E4F2D2"/>
<path d="M192.598 186.534L193.31 181.35L202.824 171.836L205.06 174.072L192.598 186.534Z" fill="#E4F2D2"/>
<path fill-rule="evenodd" clip-rule="evenodd" d="M138.422 114.364V113.472C138.422 113.222 138.275 112.997 138.054 112.909C135.456 111.865 132.572 110.57 132.33 109.763V108.916C132.869 108.343 133.294 107.544 133.545 106.609C134.15 106.168 134.3 105.259 133.8 104.62V102.724C133.8 100.767 132.751 99.4277 130.354 99.4277C128.018 99.4277 126.907 100.767 126.907 102.724V104.62C126.407 105.259 126.557 106.167 127.161 106.609C127.412 107.544 127.838 108.343 128.377 108.916V109.763C128.135 110.569 125.251 111.865 122.653 112.908C122.432 112.998 122.285 113.222 122.285 113.472V114.364" fill="url(#paint0_linear)" fill-opacity="0.3"/>
<path d="M130.354 98.4277C133.102 98.4277 134.704 99.9963 134.796 102.494L134.8 102.724L134.799 104.325L134.862 104.445C135.281 105.315 135.137 106.361 134.511 107.074L134.424 107.164L134.418 107.189C134.185 107.927 133.852 108.594 133.435 109.151L133.329 109.285V109.472L133.55 109.64C133.833 109.846 134.245 110.089 134.767 110.359C135.699 110.839 136.927 111.379 138.426 111.98C138.986 112.205 139.361 112.73 139.415 113.322L139.422 113.472V114.364H137.422L137.421 113.731L136.643 113.413C133.456 112.094 131.803 111.176 131.409 110.156L131.372 110.051L131.33 109.91V108.52L131.602 108.231C131.978 107.831 132.293 107.269 132.505 106.604L132.58 106.349L132.671 106.009L132.956 105.801C133.097 105.699 133.143 105.481 133.057 105.307L133.012 105.236L132.8 104.964V102.724C132.8 101.184 132.067 100.428 130.354 100.428C128.744 100.428 127.97 101.15 127.91 102.546L127.907 102.724V104.965L127.694 105.236C127.571 105.394 127.584 105.618 127.697 105.751L127.751 105.801L128.035 106.009L128.127 106.349C128.312 107.04 128.606 107.633 128.967 108.073L129.105 108.231L129.377 108.519V109.91L129.335 110.05C129.027 111.076 127.473 111.983 124.391 113.277L123.285 113.731L123.285 114.364H121.285V113.472C121.285 112.82 121.674 112.225 122.28 111.981L123.071 111.658C124.09 111.236 124.962 110.848 125.679 110.49L125.94 110.358C126.463 110.088 126.874 109.845 127.158 109.639L127.377 109.471V109.285L127.272 109.151C126.914 108.673 126.618 108.115 126.395 107.5L126.281 107.163L126.195 107.072C125.57 106.36 125.426 105.315 125.844 104.445L125.906 104.328L125.907 102.724C125.907 100.191 127.469 98.5277 130.111 98.4321L130.354 98.4277Z" fill="#009639"/>
<path d="M130.5 92.9512C123.486 92.9512 117.8 98.6372 117.8 105.651C117.8 112.665 123.486 118.351 130.5 118.351C137.514 118.351 143.2 112.665 143.2 105.651C143.2 98.6372 137.514 92.9512 130.5 92.9512ZM130.5 94.9512C136.409 94.9512 141.2 99.7417 141.2 105.651C141.2 111.561 136.409 116.351 130.5 116.351C124.591 116.351 119.8 111.561 119.8 105.651C119.8 99.7417 124.591 94.9512 130.5 94.9512Z" fill="#009639"/>
<path d="M194.4 135.352C204.341 135.352 212.4 127.293 212.4 117.352C212.4 107.41 204.341 99.3516 194.4 99.3516C184.459 99.3516 176.4 107.41 176.4 117.352C176.4 127.293 184.459 135.352 194.4 135.352Z" fill="#E4F2D2"/>
<path d="M196.527 81L196.527 97.999L205.778 98L205.895 98.0067C206.392 98.0645 206.778 98.4872 206.778 99C206.778 99.5523 206.331 100 205.778 100L202.152 99.9993C203.899 100.781 205.507 101.819 206.927 103.066C207.037 103.023 207.157 103 207.282 103H210.661L210.778 103.007C211.275 103.064 211.661 103.487 211.661 104C211.661 104.552 211.214 105 210.661 105L208.838 104.999C211.682 108.321 213.4 112.635 213.4 117.351C213.4 127.845 204.893 136.351 194.4 136.351C183.907 136.351 175.4 127.845 175.4 117.351C175.4 106.858 183.907 98.3512 194.4 98.3512C194.443 98.3512 194.485 98.3514 194.527 98.3516L194.527 82.9998H105.927V202.2L152.534 202.2V204.2H105.517L106.847 213.667L146.776 208.051L147.054 210.032L105.146 215.926L88 93.9248L103.927 91.686L103.927 81H196.527ZM103.927 93.705L90.258 95.6267L103.927 192.889V93.705ZM194.4 100.351C185.011 100.351 177.4 107.962 177.4 117.351C177.4 126.74 185.011 134.351 194.4 134.351C203.789 134.351 211.4 126.74 211.4 117.351C211.4 107.962 203.789 100.351 194.4 100.351ZM211 98L211.117 98.0067C211.614 98.0645 212 98.4872 212 99C212 99.5523 211.552 100 211 100H209.682L209.565 99.9933C209.068 99.9355 208.682 99.5128 208.682 99C208.682 98.4477 209.13 98 209.682 98H211Z" fill="#009639"/>
<path d="M195.175 120.567H193.525V110.15H195.175V120.567ZM194.35 125.429C193.69 125.429 193.195 124.923 193.195 124.263C193.195 123.603 193.69 123.108 194.35 123.108C194.999 123.108 195.516 123.603 195.516 124.263C195.516 124.923 194.999 125.429 194.35 125.429Z" fill="#009639"/>
<path d="M195 135.381V161.936" stroke="#009639" stroke-width="2"/>
<path d="M96.2001 199.751C96.7524 199.751 97.2001 200.199 97.2001 200.751C97.2001 201.264 96.8141 201.687 96.3167 201.744L96.2001 201.751H94.8821C94.3298 201.751 93.8821 201.304 93.8821 200.751C93.8821 200.238 94.2681 199.816 94.7655 199.758L94.8821 199.751H96.2001ZM191.815 190.451C192.367 190.451 192.815 190.899 192.815 191.451C192.815 191.964 192.429 192.387 191.931 192.444L191.815 192.451H184.2C183.648 192.451 183.2 192.004 183.2 191.451C183.2 190.938 183.586 190.516 184.083 190.458L184.2 190.451H191.815ZM187.629 195.251C188.182 195.251 188.629 195.699 188.629 196.251C188.629 196.764 188.243 197.187 187.746 197.244L187.629 197.251H186.6C186.048 197.251 185.6 196.804 185.6 196.251C185.6 195.738 185.986 195.316 186.483 195.258L186.6 195.251H187.629ZM183.391 195.251C183.944 195.251 184.391 195.699 184.391 196.251C184.391 196.764 184.005 197.187 183.508 197.244L183.391 197.251H178.4C177.848 197.251 177.4 196.804 177.4 196.251C177.4 195.738 177.786 195.316 178.284 195.258L178.4 195.251H183.391ZM164 184V186H119V184H164ZM155 177V179H119V177H155ZM179 163V165H119V163H179ZM155 156V158H119V156H155ZM179 142V144H119V142H179ZM155 135V137H119V135H155Z" fill="#009639"/>
<path d="M217.158 149.796L217.294 149.924L218.311 150.94C219.367 151.997 219.411 153.668 218.443 154.775L218.311 154.916L213.787 159.441C214.059 159.8 214.056 160.301 213.778 160.657L213.696 160.751L209.93 164.516L210.037 164.622C210.397 164.983 210.425 165.55 210.12 165.942L210.037 166.036L207.897 168.175L209.427 169.704C209.787 170.065 209.815 170.632 209.51 171.024L209.427 171.119L205.775 174.769L205.768 174.778L193.306 187.24C192.656 187.891 191.569 187.39 191.599 186.509L191.608 186.397L191.915 184.157L179.667 196.408C179.569 196.723 179.317 196.99 178.949 197.08C175.722 197.864 173.376 200.21 172.782 203.214C172.751 203.371 172.688 203.508 172.601 203.623L172.57 203.66C171.143 205.374 169.668 207.04 168.152 208.651C168.12 208.719 168.08 208.783 168.032 208.844L167.954 208.932L163.685 213.201C163.599 213.287 163.5 213.355 163.395 213.403C161.831 214.871 160.235 216.277 158.614 217.615L158.642 217.593C157.072 219.116 155.225 220.384 152.84 221.669C152.175 222.027 151.685 222.281 150.911 222.661L150.606 222.81L147.271 224.412L146.406 224.835C146.38 224.848 146.353 224.86 146.325 224.871L145.389 225.805C145.028 226.165 144.461 226.193 144.069 225.888L143.975 225.805L143.868 225.699L141.729 227.838C141.339 228.228 140.706 228.228 140.315 227.838C139.953 227.475 139.927 226.903 140.238 226.511L140.315 226.424L142.453 224.284L142.348 224.179C141.988 223.818 141.96 223.251 142.265 222.859L142.348 222.764L143.451 221.662L143.518 221.525L143.586 221.387L145.562 217.287C145.812 216.777 146.008 216.39 146.216 215.993L146.343 215.753L146.823 214.867C148.023 212.708 149.226 211.003 150.654 209.539L150.627 209.566C151.918 208.004 153.273 206.464 154.684 204.954C154.716 204.812 154.78 204.675 154.875 204.555L154.952 204.468L159.222 200.199C159.359 200.062 159.526 199.973 159.702 199.932C161.269 198.463 162.889 197.031 164.554 195.645C164.676 195.541 164.826 195.466 165 195.432L164.968 195.439C164.979 195.436 164.99 195.434 165.002 195.432C168.005 194.837 170.35 192.492 171.134 189.265C171.202 188.987 171.371 188.775 171.586 188.646L202.117 158.117C202.477 157.756 203.045 157.728 203.437 158.034L203.531 158.117L203.637 158.223L207.403 154.457C207.76 154.1 208.32 154.07 208.712 154.366L213.237 149.843C214.295 148.785 216.042 148.815 217.158 149.796ZM151.4 211.682L151.219 211.894C150.387 212.884 149.62 214.01 148.853 215.34L148.566 215.848L148.307 216.322C148.012 216.869 147.789 217.296 147.5 217.879L147.349 218.185L145.488 222.05L146.164 222.726L146.279 222.67L146.396 222.614L149.361 221.191C150.319 220.728 150.858 220.457 151.461 220.138L151.645 220.04L152.366 219.648C153.747 218.881 154.917 218.121 155.943 217.304L156.321 216.995L156.53 216.812L151.4 211.682ZM155.781 206.711C155.026 207.528 154.288 208.353 153.568 209.185L152.854 210.02L152.723 210.175L158.038 215.49L158.194 215.36C159.31 214.416 160.414 213.44 161.503 212.433L155.781 206.711ZM160.009 202.399C159.035 203.337 158.083 204.29 157.154 205.255L162.959 211.06C163.925 210.132 164.877 209.179 165.816 208.206L160.009 202.399ZM165.134 197.768L164.946 197.929C163.76 198.938 162.597 199.971 161.462 201.024L167.19 206.752C167.98 205.901 168.758 205.034 169.524 204.153L170.286 203.268L170.445 203.079L165.134 197.768ZM172.55 191.36L172.436 191.63C171.375 194.026 169.52 195.878 167.205 196.843L167.085 196.89L171.324 201.128L171.371 201.009C172.336 198.694 174.188 196.839 176.584 195.778L176.853 195.663L172.55 191.36ZM202.824 160.237L173.541 189.52L178.632 194.611L201.408 171.834L198.051 168.476C197.69 168.115 197.663 167.548 197.968 167.156L198.051 167.062L201.71 163.402C202.071 163.042 202.638 163.014 203.03 163.319L203.124 163.402L206.482 166.76L207.915 165.328L207.817 165.231L207.809 165.223L202.93 160.344C202.927 160.341 202.924 160.338 202.921 160.335L202.824 160.237ZM202.823 173.249L194.254 181.818L193.994 183.723L203.645 174.071L202.823 173.249ZM202.417 165.523L200.172 167.768L205.061 172.656L207.306 170.411L202.417 165.523ZM208.108 156.578L205.051 159.636L208.516 163.101L211.573 160.043L208.108 156.578ZM214.73 151.19L214.651 151.257L210.134 155.774L212.379 158.019L216.896 153.502C217.163 153.235 217.208 152.841 217.032 152.532L216.965 152.432L216.896 152.355L215.88 151.338C215.56 151.018 215.04 150.97 214.73 151.19ZM103.4 206.751C103.952 206.751 104.4 207.199 104.4 207.751C104.4 208.264 104.014 208.687 103.517 208.745L103.4 208.751H101.021C100.468 208.751 100.021 208.304 100.021 207.751C100.021 207.238 100.407 206.816 100.904 206.758L101.021 206.751H103.4ZM103.4 199.751C103.952 199.751 104.4 200.199 104.4 200.751C104.4 201.264 104.014 201.687 103.517 201.745L103.4 201.751H99.1035C98.5512 201.751 98.1035 201.304 98.1035 200.751C98.1035 200.238 98.4896 199.816 98.9869 199.758L99.1035 199.751H103.4Z" fill="#009639"/>
<defs>
<linearGradient id="paint0_linear" x1="130.354" y1="99.4277" x2="130.354" y2="114.364" gradientUnits="userSpaceOnUse">
<stop stop-color="#78BE20" stop-opacity="0.953521"/>
<stop offset="0.72104" stop-color="white" stop-opacity="0.4"/>
<stop offset="0.85275" stop-color="white" stop-opacity="0"/>
<stop offset="1" stop-color="white" stop-opacity="0"/>
</linearGradient>
</defs>
</svg>
