<svg width="500" height="500" viewBox="0 0 500 500" fill="none" xmlns="http://www.w3.org/2000/svg">
<rect width="500" height="500" fill="white"/>
<path d="M322.504 211C341.282 211 356.504 195.778 356.504 177C356.504 158.222 341.282 143 322.504 143C303.726 143 288.504 158.222 288.504 177C288.504 195.778 303.726 211 322.504 211Z" fill="#E4F2D2"/>
<path d="M189.316 403.206C191.598 403.206 193.449 401.355 193.449 399.073C193.449 396.79 191.598 394.94 189.316 394.94C187.033 394.94 185.183 396.79 185.183 399.073C185.183 401.355 187.033 403.206 189.316 403.206ZM189.316 401.206C188.138 401.206 187.183 400.251 187.183 399.073C187.183 397.895 188.138 396.94 189.316 396.94C190.494 396.94 191.449 397.895 191.449 399.073C191.449 400.251 190.494 401.206 189.316 401.206ZM235.022 89.0376C239.727 89.0376 243.541 85.2236 243.541 80.5188C243.541 75.814 239.727 72 235.022 72C230.318 72 226.504 75.814 226.504 80.5188C226.504 85.2236 230.318 89.0376 235.022 89.0376ZM235.022 87.0376C231.422 87.0376 228.504 84.119 228.504 80.5188C228.504 76.9186 231.422 74 235.022 74C238.623 74 241.541 76.9186 241.541 80.5188C241.541 84.119 238.623 87.0376 235.022 87.0376Z" fill="#7FCB9C"/>
<path d="M260.744 395.686C264.411 395.686 267.383 392.714 267.383 389.047C267.383 385.381 264.411 382.408 260.744 382.408C257.078 382.408 254.105 385.381 254.105 389.047C254.105 392.714 257.078 395.686 260.744 395.686ZM260.744 393.686C258.182 393.686 256.105 391.609 256.105 389.047C256.105 386.485 258.182 384.408 260.744 384.408C263.306 384.408 265.383 386.485 265.383 389.047C265.383 391.609 263.306 393.686 260.744 393.686Z" fill="#CCEAD8"/>
<path d="M106.094 200.774C106.646 200.774 107.094 201.221 107.094 201.774L107.093 208.107L113.135 208.108C113.648 208.108 114.07 208.494 114.128 208.991L114.135 209.108C114.135 209.66 113.687 210.108 113.135 210.108L107.093 210.107L107.094 216.442C107.094 216.954 106.708 217.377 106.211 217.435L106.094 217.442C105.542 217.442 105.094 216.994 105.094 216.442L105.093 210.107L99.0535 210.108C98.5406 210.108 98.118 209.722 98.0602 209.224L98.0535 209.108C98.0535 208.555 98.5012 208.108 99.0535 208.108L105.093 208.107L105.094 201.774C105.094 201.261 105.48 200.838 105.977 200.78L106.094 200.774ZM336.242 78.0293C336.794 78.0293 337.242 78.477 337.242 79.0293L337.242 82.3073L340.349 82.3074C340.862 82.3074 341.284 82.6935 341.342 83.1908L341.349 83.3074C341.349 83.8597 340.901 84.3074 340.349 84.3074L337.242 84.3073L337.242 87.5856C337.242 88.0984 336.856 88.5211 336.358 88.5789L336.242 88.5856C335.69 88.5856 335.242 88.1379 335.242 87.5856L335.242 84.3073L332.135 84.3074C331.622 84.3074 331.199 83.9214 331.142 83.4241L331.135 83.3074C331.135 82.7552 331.583 82.3074 332.135 82.3074L335.242 82.3073L335.242 79.0293C335.242 78.5165 335.628 78.0938 336.125 78.036L336.242 78.0293Z" fill="#7FCB9C"/>
<path fill-rule="evenodd" clip-rule="evenodd" d="M103 323.5C97.7472 329.901 98.2457 337.3 105.992 344.467C110.235 348.392 114.776 349.615 117.679 349.978C122.88 350.629 127.046 349.02 130.176 345.149C122.204 345.726 115.556 343.494 110.235 338.453C104.913 333.412 103 328.018 103 323.5Z" fill="#E4F2D2"/>
<path d="M111.957 340.107C104.128 334.207 101.351 324.686 105.756 318.841C110.161 312.996 120.078 313.04 127.908 318.94C135.737 324.84 138.514 334.361 134.109 340.207C129.705 346.052 119.787 346.007 111.957 340.107Z" fill="white"/>
<path d="M115.068 335.975C109.999 332.155 108.151 326.056 110.941 322.354C113.732 318.651 120.103 318.746 125.172 322.566C130.242 326.386 132.089 332.484 129.299 336.187C126.509 339.89 120.137 339.795 115.068 335.975Z" fill="#E4F2D2"/>
<path fill-rule="evenodd" clip-rule="evenodd" d="M134.636 329.874C135.692 333.496 135.28 336.992 133.311 339.605C133.282 339.643 133.254 339.68 133.225 339.717L132.766 340.261C130.771 342.445 127.765 343.577 124.322 343.562C120.549 343.545 116.319 342.142 112.559 339.309C108.8 336.476 106.285 332.796 105.229 329.174C104.173 325.552 104.585 322.056 106.555 319.443C108.524 316.83 111.771 315.47 115.543 315.486C119.316 315.503 123.546 316.906 127.306 319.739C131.066 322.572 133.58 326.252 134.636 329.874ZM134.793 340.96L134.778 340.978C134.613 341.188 134.442 341.391 134.265 341.586L130.322 346.259C127.908 349.493 124.029 351.031 119.819 351.004C115.6 350.976 110.985 349.383 106.938 346.286C105.098 344.878 103.521 343.27 102.237 341.55H87.1516C86.5993 341.55 86.1516 341.102 86.1516 340.55C86.1516 339.997 86.5993 339.55 87.1516 339.55H100.905C100.037 338.079 99.3732 336.554 98.9306 335.024C98.6339 333.998 98.4357 332.966 98.343 331.943C98.2666 331.962 98.1868 331.971 98.1046 331.971H90.4866C89.9343 331.971 89.4866 331.524 89.4866 330.971C89.4866 330.419 89.9343 329.971 90.4866 329.971H98.1046C98.1704 329.971 98.2347 329.978 98.2969 329.99C98.4047 327.627 99.1228 325.379 100.543 323.465L100.557 323.446L101.102 322.778H96.3977C95.8454 322.778 95.3977 322.33 95.3977 321.778C95.3977 321.226 95.8454 320.778 96.3977 320.778H102.282C102.419 320.778 102.55 320.806 102.67 320.856L105.217 317.733L105.304 317.803C107.754 314.869 111.503 313.468 115.552 313.487C119.797 313.506 124.44 315.075 128.51 318.142C132.58 321.209 135.368 325.239 136.556 329.314C137.745 333.389 137.343 337.577 134.908 340.809C134.87 340.859 134.831 340.909 134.792 340.959L134.793 340.96ZM128.754 345.017L128.819 344.939C127.401 345.363 125.879 345.569 124.313 345.562C124.125 345.561 123.937 345.557 123.748 345.55L121.028 348.963C124.253 348.719 126.998 347.384 128.735 345.042L128.754 345.017ZM115.787 343.569C117.634 344.424 119.524 345.006 121.381 345.311L118.492 348.937C116.618 348.763 114.66 348.256 112.726 347.409L115.787 343.569ZM110.894 346.499C109.963 345.98 109.045 345.38 108.154 344.698C107.63 344.297 107.131 343.88 106.656 343.448L109.966 339.78C110.411 340.168 110.874 340.544 111.356 340.906C112.207 341.548 113.083 342.123 113.975 342.633L110.894 346.499ZM104.781 333.325C105.73 335.11 106.984 336.831 108.514 338.404L105.236 342.036C103.722 340.388 102.535 338.591 101.703 336.761L102.046 336.355L102.288 336.088L102.77 335.553L103.736 334.484L104.781 333.325ZM103.866 331.354C103.653 330.816 103.467 330.275 103.309 329.734C102.741 327.786 102.536 325.813 102.743 323.93L102.136 324.675C100.196 327.302 99.7965 330.82 100.852 334.468C100.868 334.525 100.885 334.582 100.902 334.638L103.866 331.354ZM83.2537 329.917C82.7014 329.917 82.2537 330.364 82.2537 330.917C82.2537 331.469 82.7014 331.917 83.2537 331.917H84.6117C85.1639 331.917 85.6117 331.469 85.6117 330.917C85.6117 330.364 85.1639 329.917 84.6117 329.917H83.2537ZM128.5 335.587C129.656 334.052 129.905 331.954 129.226 329.712C128.547 327.47 126.954 325.162 124.57 323.366C122.187 321.57 119.529 320.675 117.187 320.64C114.845 320.605 112.896 321.422 111.74 322.957C110.584 324.491 110.335 326.59 111.014 328.832C111.693 331.073 113.286 333.382 115.67 335.178C118.053 336.974 120.711 337.869 123.053 337.904C125.395 337.938 127.344 337.121 128.5 335.587ZM125.774 321.769C128.46 323.793 130.325 326.443 131.14 329.132C131.954 331.82 131.731 334.622 130.097 336.79C128.463 338.959 125.831 339.945 123.023 339.903C120.214 339.861 117.152 338.799 114.466 336.775C111.78 334.751 109.915 332.1 109.1 329.412C108.286 326.724 108.509 323.922 110.143 321.753C111.777 319.585 114.409 318.598 117.217 318.64C120.026 318.682 123.088 319.745 125.774 321.769Z" fill="#009639"/>
<path fill-rule="evenodd" clip-rule="evenodd" d="M428.698 134.115C433.95 140.516 432.704 147.3 424.958 154.467C420.715 158.392 416.173 159.615 413.271 159.978C408.069 160.629 403.904 159.02 400.773 155.149C408.746 155.726 415.393 153.494 420.715 148.453C426.037 143.412 428.698 138.633 428.698 134.115Z" fill="#E4F2D2"/>
<path d="M418.992 150.107C426.822 144.207 429.598 134.686 425.193 128.841C420.789 122.996 410.871 123.04 403.042 128.94C395.212 134.84 392.436 144.361 396.84 150.207C401.245 156.052 411.163 156.007 418.992 150.107Z" fill="white"/>
<path d="M415.882 145.975C420.951 142.155 422.798 136.056 420.008 132.354C417.218 128.651 410.846 128.746 405.777 132.566C400.708 136.386 398.86 142.484 401.651 146.187C404.441 149.89 410.812 149.795 415.882 145.975Z" fill="#E4F2D2"/>
<path fill-rule="evenodd" clip-rule="evenodd" d="M396.313 139.874C395.257 143.496 395.67 146.992 397.639 149.605C397.659 149.632 397.68 149.659 397.701 149.686L398.21 150.289C400.205 152.455 403.199 153.577 406.627 153.562C410.4 153.545 414.631 152.142 418.39 149.309C422.15 146.476 424.664 142.796 425.721 139.174C426.777 135.552 426.364 132.056 424.395 129.443C422.426 126.83 419.179 125.47 415.406 125.486C411.634 125.503 407.403 126.906 403.643 129.739C399.884 132.572 397.369 136.252 396.313 139.874ZM396.042 150.809C396.255 151.091 396.479 151.361 396.714 151.618L400.628 156.258C403.042 159.492 406.92 161.03 411.13 161.002C415.35 160.974 419.965 159.381 424.012 156.284C425.851 154.876 427.427 153.269 428.711 151.55H443.799C444.351 151.55 444.799 151.102 444.799 150.55C444.799 149.997 444.351 149.55 443.799 149.55H430.044C430.913 148.078 431.577 146.553 432.019 145.022C432.316 143.997 432.514 142.965 432.607 141.943C432.683 141.962 432.763 141.971 432.845 141.971H440.463C441.015 141.971 441.463 141.524 441.463 140.971C441.463 140.419 441.015 139.971 440.463 139.971H432.845C432.779 139.971 432.715 139.978 432.653 139.99C432.546 137.626 431.828 135.377 430.407 133.463L430.393 133.445L429.85 132.778H434.552C435.104 132.778 435.552 132.33 435.552 131.778C435.552 131.226 435.104 130.778 434.552 130.778H428.668C428.531 130.778 428.4 130.806 428.281 130.856L425.733 127.731L425.645 127.802C423.194 124.869 419.446 123.468 415.397 123.487C411.153 123.506 406.51 125.075 402.44 128.142C398.37 131.209 395.581 135.239 394.393 139.314C393.205 143.389 393.606 147.577 396.042 150.809ZM402.196 155.015L402.133 154.94C403.551 155.364 405.071 155.569 406.636 155.562C406.824 155.561 407.013 155.557 407.202 155.55L409.92 158.961C406.696 158.716 403.952 157.382 402.215 155.04L402.196 155.015ZM412.456 158.935L409.569 155.311C411.426 155.006 413.315 154.424 415.162 153.569L418.222 157.408C416.288 158.255 414.33 158.762 412.456 158.935ZM420.055 156.498C420.986 155.979 421.905 155.378 422.796 154.696C423.319 154.296 423.818 153.879 424.293 153.447L420.983 149.78C420.538 150.168 420.075 150.544 419.594 150.906C418.743 151.548 417.867 152.123 416.974 152.633L420.055 156.498ZM425.713 152.035L422.436 148.404C423.966 146.831 425.219 145.11 426.169 143.325L429.144 146.623L429.414 146.38C428.577 148.341 427.332 150.274 425.713 152.035ZM430.047 144.638C430.065 144.581 430.082 144.524 430.098 144.466C431.153 140.818 430.754 137.3 428.814 134.673L428.206 133.927C428.414 135.811 428.209 137.785 427.641 139.734C427.483 140.275 427.297 140.816 427.083 141.354L430.047 144.638ZM402.449 145.587C401.293 144.053 401.044 141.955 401.724 139.712C402.403 137.471 403.996 135.163 406.379 133.367C408.762 131.571 411.421 130.676 413.762 130.641C416.105 130.606 418.053 131.423 419.21 132.958C420.366 134.492 420.614 136.59 419.935 138.833C419.256 141.074 417.663 143.382 415.28 145.178C412.896 146.974 410.238 147.869 407.897 147.904C405.554 147.939 403.606 147.122 402.449 145.587ZM405.175 131.769C402.49 133.793 400.624 136.444 399.81 139.133C398.995 141.82 399.218 144.623 400.852 146.791C402.486 148.959 405.119 149.946 407.926 149.904C410.735 149.862 413.798 148.8 416.483 146.776C419.169 144.752 421.035 142.101 421.849 139.413C422.663 136.725 422.441 133.922 420.807 131.754C419.173 129.586 416.54 128.599 413.732 128.641C410.923 128.683 407.861 129.745 405.175 131.769ZM447.696 139.917C448.248 139.917 448.696 140.364 448.696 140.917C448.696 141.469 448.248 141.917 447.696 141.917H446.338C445.786 141.917 445.338 141.469 445.338 140.917C445.338 140.364 445.786 139.917 446.338 139.917H447.696Z" fill="#009639"/>
<path d="M336.334 392.18V406.848C336.334 407.4 336.782 407.848 337.334 407.848C337.886 407.848 338.334 407.4 338.334 406.848V392.18C338.334 391.627 337.886 391.18 337.334 391.18C336.782 391.18 336.334 391.627 336.334 392.18Z" fill="#7FCB9C"/>
<path d="M344.374 398.514H330.293C329.741 398.514 329.293 398.961 329.293 399.514C329.293 400.066 329.741 400.514 330.293 400.514H344.374C344.926 400.514 345.374 400.066 345.374 399.514C345.374 398.961 344.926 398.514 344.374 398.514Z" fill="#7FCB9C"/>
<path d="M140.465 104C148.557 104 155.355 109.917 156.69 117.792L157.006 117.776L157.405 117.77C163.992 117.77 169.323 123.213 169.323 129.917L169.319 129.62L177.224 129.621C177.737 129.621 178.159 130.007 178.217 130.504L178.224 130.621C178.224 131.173 177.776 131.621 177.224 131.621H168.168C167.616 131.621 167.168 131.173 167.168 130.621C167.168 130.416 167.23 130.225 167.336 130.066C167.327 130.018 167.323 129.968 167.323 129.917C167.323 124.308 162.878 119.77 157.405 119.77C155.636 119.77 153.937 120.243 152.44 121.13C151.965 121.412 151.352 121.255 151.07 120.78C150.789 120.305 150.946 119.691 151.421 119.41C152.447 118.801 153.554 118.354 154.71 118.082C153.518 111.178 147.553 106 140.465 106C133.399 106 127.46 111.143 126.234 117.998C126.886 118.149 127.517 118.377 128.116 118.676C128.61 118.922 128.811 119.523 128.564 120.017C128.318 120.511 127.717 120.712 127.223 120.465C126.31 120.01 125.304 119.77 124.263 119.77C120.767 119.77 117.887 122.485 117.555 125.965L118.744 125.966C119.297 125.966 119.744 126.414 119.744 126.966C119.744 127.518 119.297 127.966 118.744 127.966H109.688C109.136 127.966 108.688 127.518 108.688 126.966C108.688 126.414 109.136 125.966 109.688 125.966L115.548 125.965C115.886 121.385 119.656 117.77 124.263 117.77L124.243 117.77C125.587 109.913 132.374 104 140.465 104ZM103.907 125.93C104.46 125.93 104.907 126.378 104.907 126.93C104.907 127.482 104.46 127.93 103.907 127.93H99.5037C98.9514 127.93 98.5037 127.482 98.5037 126.93C98.5037 126.378 98.9514 125.93 99.5037 125.93H103.907ZM404.984 321.5C410.6 321.5 415.323 325.54 416.371 330.949C419.473 331.083 421.99 333.489 422.357 336.562L426.073 336.562C426.625 336.562 427.073 337.01 427.073 337.562C427.073 338.115 426.625 338.562 426.073 338.562H419.863C419.311 338.562 418.863 338.115 418.863 337.562C418.863 337.01 419.311 336.562 419.863 336.562L420.336 336.562C419.977 334.502 418.212 332.942 416.095 332.942C415.43 332.942 414.788 333.095 414.206 333.386C413.711 333.633 413.111 333.432 412.864 332.938C412.618 332.444 412.818 331.843 413.313 331.597C413.655 331.426 414.011 331.287 414.377 331.182C413.453 326.774 409.576 323.5 404.984 323.5C400.376 323.5 396.482 326.797 395.578 331.24C396.298 331.435 396.988 331.728 397.633 332.111C398.108 332.392 398.264 333.006 397.983 333.481C397.701 333.956 397.088 334.113 396.613 333.831C395.635 333.251 394.525 332.942 393.369 332.942C389.791 332.942 386.882 335.912 386.882 339.586L386.879 339.645C386.939 339.774 386.973 339.917 386.973 340.069C386.973 340.621 386.525 341.069 385.973 341.069H379.763C379.211 341.069 378.763 340.621 378.763 340.069C378.763 339.516 379.211 339.069 379.763 339.069L384.897 339.068C385.16 334.539 388.848 330.942 393.369 330.942L393.597 330.947C394.646 325.534 399.373 321.5 404.984 321.5ZM437.619 336.538C438.171 336.538 438.619 336.985 438.619 337.538C438.619 338.09 438.171 338.538 437.619 338.538H431.409C430.856 338.538 430.409 338.09 430.409 337.538C430.409 336.985 430.856 336.538 431.409 336.538H437.619Z" fill="#B2E0C4"/>
<path d="M310.137 110.016C311.867 110.016 313.27 108.613 313.27 106.883C313.27 105.153 311.867 103.75 310.137 103.75C308.407 103.75 307.004 105.153 307.004 106.883C307.004 108.613 308.407 110.016 310.137 110.016Z" fill="#7FCB9C"/>
<path d="M397.314 260.639C400.428 260.639 402.953 258.115 402.953 255C402.953 251.886 400.428 249.361 397.314 249.361C394.199 249.361 391.675 251.886 391.675 255C391.675 258.115 394.199 260.639 397.314 260.639Z" fill="#B2E0C4"/>
<path d="M66.7843 422.339H53M59.8921 415.723V428.956V415.723Z" stroke="white" stroke-width="2" stroke-linecap="round"/>
<path d="M349.683 210.886C365.291 249.593 356.589 294.305 326.566 324.327C326.175 324.718 325.542 324.718 325.152 324.327C324.761 323.937 324.761 323.304 325.152 322.913C354.603 293.463 363.138 249.604 347.829 211.634C347.622 211.122 347.87 210.539 348.382 210.333C348.894 210.126 349.477 210.374 349.683 210.886Z" fill="#009639"/>
<path fill-rule="evenodd" clip-rule="evenodd" d="M305.569 299.134C318.533 286.172 319.064 263.942 305.682 250.56L256.994 299.249C270.376 312.63 292.607 312.098 305.569 299.134Z" fill="#E4F2D2"/>
<path fill-rule="evenodd" clip-rule="evenodd" d="M193.944 187.509C206.906 174.544 229.502 174.38 243.336 188.214L194.647 236.901C180.814 223.068 180.98 200.47 193.944 187.509Z" fill="#E4F2D2"/>
<path d="M223.309 290.994V303.865" stroke="#009639" stroke-width="2" stroke-linecap="round"/>
<path d="M212.738 283.354L202.565 291.238" stroke="#009639" stroke-width="2" stroke-linecap="round"/>
<path d="M207.169 270.18H194.299" stroke="#009639" stroke-width="2" stroke-linecap="round"/>
<path d="M250.889 146.596C260.994 146.596 270.91 148.026 280.421 150.812L286.909 152.841C287.437 153.006 287.73 153.567 287.565 154.094C287.401 154.621 286.84 154.915 286.312 154.75L279.842 152.726C270.53 149.999 260.803 148.596 250.889 148.596C224.032 148.596 199.58 158.886 181.257 175.739L192.784 187.265C192.933 187.109 193.084 186.955 193.237 186.802C206.757 173.279 229.989 173.453 244.043 187.508L254.411 197.875L240.428 211.858L246.647 218.11L245.229 219.52L239.014 213.272L217.897 234.389L223.83 240.325L222.416 241.739L216.482 235.804L204.309 247.978L193.94 237.609C180.54 224.21 179.76 202.464 191.439 188.75L179.798 177.107C160.206 195.839 148.004 222.235 148.004 251.482C148.004 308.303 194.067 354.367 250.889 354.367C269.545 354.367 284.285 351.286 301.479 341.431C304.463 339.721 307.281 337.941 309.933 336.092C310.901 335.418 311.803 334.655 312.629 333.813C319.979 326.324 319.865 314.294 312.375 306.945L306.217 300.902C306.052 300.739 305.955 300.533 305.926 300.32L305.918 300.192L305.871 300.239C292.446 313.229 270.218 313.43 256.698 300.36L256.287 299.956L245.542 289.211L295.644 239.109L306.389 249.853C319.785 263.249 319.797 285.601 306.91 299.19C307.164 299.186 307.421 299.281 307.618 299.474L313.776 305.517C322.054 313.64 322.18 326.936 314.056 335.214C313.144 336.144 312.146 336.987 311.077 337.733C308.376 339.616 305.508 341.427 302.474 343.166C284.938 353.217 269.866 356.367 250.889 356.367C192.962 356.367 146.004 309.408 146.004 251.482C146.004 193.555 192.962 146.596 250.889 146.596ZM304.755 251.048L257.561 298.402L257.701 298.542C270.398 311.239 291.69 311.172 304.476 298.806L304.861 298.427C317.476 285.814 317.795 264.524 305.355 251.655L304.974 251.267L304.755 251.048ZM295.644 241.937L284.886 252.695L288.913 256.721L287.498 258.135L283.472 254.109L260.542 277.039L264.148 280.644L262.733 282.059L259.128 278.453L248.37 289.211L256.147 296.988L303.341 249.634L295.644 241.937ZM244.255 190.548L197.062 237.903L204.309 245.15L251.583 197.875L244.255 190.548ZM194.651 188.217C181.914 200.952 182.078 222.919 195.354 236.195L195.647 236.488L242.841 189.134L242.629 188.922C229.351 175.644 207.385 175.479 194.651 188.217ZM322.504 141C342.386 141 358.504 157.118 358.504 177C358.504 181.893 357.528 186.558 355.76 190.81L362.075 190.809C362.628 190.809 363.075 191.257 363.075 191.809C363.075 192.322 362.689 192.745 362.192 192.803L362.075 192.809L354.855 192.81C353.22 196.15 351.083 199.2 348.541 201.86L353.133 201.86C353.686 201.86 354.133 202.307 354.133 202.86C354.133 203.373 353.747 203.795 353.25 203.853L353.133 203.86H346.862C346.747 203.86 346.636 203.84 346.534 203.805C340.162 209.522 331.739 213 322.504 213C302.621 213 286.504 196.882 286.504 177C286.504 157.118 302.621 141 322.504 141ZM322.504 143C303.726 143 288.504 158.222 288.504 177C288.504 195.778 303.726 211 322.504 211C341.281 211 356.504 195.778 356.504 177C356.504 158.222 341.281 143 322.504 143ZM370.427 190.809C370.98 190.809 371.427 191.257 371.427 191.809C371.427 192.322 371.041 192.745 370.544 192.803L370.427 192.809H367.078C366.526 192.809 366.078 192.362 366.078 191.809C366.078 191.297 366.464 190.874 366.962 190.816L367.078 190.809H370.427ZM323.288 188.388C324.301 188.388 325.094 189.159 325.094 190.172C325.094 191.185 324.301 192 323.288 192C322.275 192 321.504 191.185 321.504 190.172C321.504 189.159 322.275 188.388 323.288 188.388ZM324.543 162V182.727H322.032V162H324.543Z" fill="#009639"/>
</svg>
