<svg width="300" height="300" viewBox="0 0 300 300" fill="none" xmlns="http://www.w3.org/2000/svg">
<rect width="300" height="300" fill="white"/>
<path fill-rule="evenodd" clip-rule="evenodd" d="M122.023 223.348C129.906 223.348 136.296 229.707 136.296 237.55C136.296 245.394 129.906 251.752 122.023 251.752C114.14 251.752 107.75 245.394 107.75 237.55C107.75 229.707 114.14 223.348 122.023 223.348ZM122.023 230.088C117.881 230.088 114.523 233.429 114.523 237.55C114.523 241.672 117.881 245.013 122.023 245.013C126.165 245.013 129.523 241.672 129.523 237.55C129.523 233.429 126.165 230.088 122.023 230.088ZM83.9996 105.077L53.9295 96.5372C51.781 95.9271 50.3762 93.8677 50.5922 91.6447C50.7649 89.8667 52.3462 88.5653 54.1242 88.738C54.3122 88.7563 54.4983 88.791 54.6802 88.8417L81.9378 96.4413L83.9996 105.077Z" fill="#D8D8D8"/>
<path fill-rule="evenodd" clip-rule="evenodd" d="M99.3577 119.939L93.6465 110.48L141.863 81.654L169.446 127.334" fill="#D8D8D8"/>
<path d="M91.0689 243.493C92.1624 243.493 93.0489 242.611 93.0489 241.523C93.0489 240.435 92.1624 239.553 91.0689 239.553C89.9753 239.553 89.0889 240.435 89.0889 241.523C89.0889 242.611 89.9753 243.493 91.0689 243.493Z" fill="white"/>
<path d="M34.3311 260.758V268.639" stroke="white" stroke-width="2" stroke-linecap="round"/>
<path d="M38.4551 264.699H30.2051" stroke="white" stroke-width="2" stroke-linecap="round"/>
<path fill-rule="evenodd" clip-rule="evenodd" d="M38.3704 156.365C35.2266 160.177 35.9728 164.217 40.6089 168.485C43.1481 170.823 45.8662 171.551 47.6033 171.767C50.7164 172.155 53.2097 171.196 55.0832 168.891C50.3116 169.235 46.3333 167.906 43.1481 164.904C39.963 161.902 38.3704 159.056 38.3704 156.365Z" fill="#D8D8D8"/>
<path d="M44.1951 165.901C39.5179 162.376 37.8565 156.692 40.4843 153.205C43.112 149.718 49.0338 149.748 53.711 153.273C58.3881 156.797 60.0495 162.481 57.4217 165.968C54.794 169.455 48.8722 169.425 44.1951 165.901Z" fill="white"/>
<path d="M46.0503 163.433C43.0219 161.151 41.9162 157.511 43.5808 155.302C45.2453 153.093 49.0497 153.152 52.0781 155.434C55.1065 157.716 56.2122 161.357 54.5476 163.566C52.8831 165.775 49.0787 165.716 46.0503 163.433Z" fill="#D8D8D8"/>
<path fill-rule="evenodd" clip-rule="evenodd" d="M251.575 108.604C254.719 112.415 253.973 116.455 249.336 120.723C246.797 123.061 244.079 123.789 242.342 124.005C239.229 124.393 236.736 123.435 234.862 121.13C239.634 121.473 243.612 120.144 246.797 117.142C249.982 114.14 251.575 111.294 251.575 108.604Z" fill="#D8D8D8"/>
<path d="M245.751 118.139C250.428 114.614 252.09 108.93 249.462 105.443C246.834 101.956 240.912 101.986 236.235 105.511C231.558 109.035 229.897 114.719 232.525 118.207C235.152 121.694 241.074 121.663 245.751 118.139Z" fill="white"/>
<path d="M243.894 115.674C246.922 113.392 248.028 109.751 246.364 107.542C244.699 105.333 240.895 105.393 237.866 107.675C234.838 109.957 233.732 113.597 235.397 115.806C237.061 118.015 240.866 117.956 243.894 115.674Z" fill="#D8D8D8"/>
<path d="M243.247 212.926C243.799 212.926 244.247 213.373 244.247 213.926L244.246 217.293L247.461 217.293C247.974 217.293 248.396 217.679 248.454 218.177L248.461 218.293C248.461 218.846 248.013 219.293 247.461 219.293L244.246 219.293L244.247 222.661C244.247 223.174 243.861 223.596 243.364 223.654L243.247 223.661C242.695 223.661 242.247 223.213 242.247 222.661L242.246 219.293L239.033 219.293C238.52 219.293 238.098 218.907 238.04 218.41L238.033 218.293C238.033 217.741 238.481 217.293 239.033 217.293L242.246 217.293L242.247 213.926C242.247 213.413 242.633 212.99 243.13 212.933L243.247 212.926Z" fill="#D8D8D8"/>
<path d="M66.015 206.747C68.2313 206.747 70.03 204.957 70.03 202.747C70.03 200.537 68.2313 198.747 66.015 198.747C63.7987 198.747 62 200.537 62 202.747C62 204.957 63.7987 206.747 66.015 206.747ZM66.015 204.747C64.9011 204.747 64 203.85 64 202.747C64 201.643 64.9011 200.747 66.015 200.747C67.129 200.747 68.03 201.643 68.03 202.747C68.03 203.85 67.129 204.747 66.015 204.747ZM200.19 64.8065C204.022 64.8065 207.13 61.7137 207.13 57.8961C207.13 54.0785 204.022 50.9857 200.19 50.9857C196.358 50.9857 193.25 54.0785 193.25 57.8961C193.25 61.7137 196.358 64.8065 200.19 64.8065ZM200.19 62.8065C197.461 62.8065 195.25 60.6069 195.25 57.8961C195.25 55.1853 197.461 52.9857 200.19 52.9857C202.919 52.9857 205.13 55.1853 205.13 57.8961C205.13 60.6069 202.919 62.8065 200.19 62.8065Z" fill="#D8D8D8"/>
<path d="M100.964 70.3887C101.516 70.3887 101.964 70.8364 101.964 71.3887L101.963 74.7557L105.178 74.7563C105.69 74.7563 106.113 75.1423 106.171 75.6397L106.178 75.7563C106.178 76.3086 105.73 76.7563 105.178 76.7563L101.963 76.7557L101.964 80.1238C101.964 80.6367 101.578 81.0593 101.08 81.1171L100.964 81.1238C100.412 81.1238 99.9639 80.6761 99.9639 80.1238L99.963 76.7557L96.75 76.7563C96.2372 76.7563 95.8145 76.3702 95.7568 75.8729L95.75 75.7563C95.75 75.204 96.1978 74.7563 96.75 74.7563L99.963 74.7557L99.9639 71.3887C99.9639 70.8759 100.35 70.4532 100.847 70.3955L100.964 70.3887ZM236.855 46.6134C237.407 46.6134 237.855 47.0611 237.855 47.6134L237.854 50.9804L241.069 50.981C241.581 50.981 242.004 51.367 242.062 51.8643L242.069 51.981C242.069 52.5332 241.621 52.981 241.069 52.981L237.854 52.9804L237.855 56.3485C237.855 56.8613 237.469 57.284 236.971 57.3418L236.855 57.3485C236.302 57.3485 235.855 56.9008 235.855 56.3485L235.854 52.9804L232.641 52.981C232.128 52.981 231.705 52.5949 231.648 52.0976L231.641 51.981C231.641 51.4287 232.089 50.981 232.641 50.981L235.854 50.9804L235.855 47.6134C235.855 47.1006 236.241 46.6779 236.738 46.6201L236.855 46.6134Z" fill="#D8D8D8"/>
<path d="M95.0766 36.8066C100.671 36.8066 105.387 40.8098 106.436 46.1834L106.663 46.1783C111.171 46.1783 114.851 49.7476 115.116 54.2445L120.22 54.2442C120.772 54.2442 121.22 54.6919 121.22 55.2442C121.22 55.7965 120.772 56.2442 120.22 56.2442H114.025C113.473 56.2442 113.025 55.7965 113.025 55.2442C113.025 55.0823 113.064 54.9293 113.132 54.7941L113.132 54.7648C113.132 51.1237 110.232 48.1783 106.663 48.1783C105.51 48.1783 104.403 48.4853 103.427 49.0607C102.951 49.3413 102.338 49.1831 102.058 48.7074C101.777 48.2317 101.935 47.6186 102.411 47.338C103.053 46.9595 103.739 46.6692 104.454 46.4737C103.55 42.0737 99.6699 38.8066 95.0766 38.8066C90.4985 38.8066 86.6348 42.0502 85.7102 46.42C86.076 46.522 86.4296 46.659 86.7693 46.8277C87.264 47.0733 87.4659 47.6734 87.2202 48.1681C86.9746 48.6628 86.3745 48.8647 85.8799 48.6191C85.2983 48.3303 84.6581 48.1783 83.9946 48.1783C81.8866 48.1783 80.13 49.7199 79.7683 51.7558L80.2197 51.7566C80.772 51.7566 81.2197 52.2043 81.2197 52.7566C81.2197 53.3089 80.772 53.7566 80.2197 53.7566H74.0254C73.4731 53.7566 73.0254 53.3089 73.0254 52.7566C73.0254 52.2043 73.4731 51.7566 74.0254 51.7566L77.7467 51.7561C78.1153 48.7055 80.6255 46.3195 83.7173 46.1843C84.7646 40.8155 89.4765 36.8066 95.0766 36.8066ZM68.7031 51.732C69.2554 51.732 69.7031 52.1797 69.7031 52.732C69.7031 53.2843 69.2554 53.732 68.7031 53.732H62.5088C61.9565 53.732 61.5088 53.2843 61.5088 52.732C61.5088 52.1797 61.9565 51.732 62.5088 51.732H68.7031ZM245.053 167.404C248.503 167.404 251.421 169.8 252.197 173.057C253.987 173.268 255.429 174.622 255.792 176.373L257.675 176.374C258.228 176.374 258.675 176.821 258.675 177.374C258.675 177.926 258.228 178.374 257.675 178.374H253.959C253.407 178.374 252.959 177.926 252.959 177.374C252.959 176.904 253.282 176.51 253.718 176.403C253.394 175.594 252.613 175.027 251.704 175.027C251.368 175.027 251.044 175.103 250.75 175.249C250.256 175.495 249.655 175.293 249.41 174.798C249.164 174.304 249.366 173.704 249.861 173.458C249.97 173.404 250.082 173.354 250.196 173.31C249.56 171.047 247.487 169.404 245.053 169.404C242.613 169.404 240.532 171.057 239.902 173.336C240.234 173.45 240.553 173.599 240.857 173.778C241.332 174.059 241.49 174.672 241.21 175.147C240.929 175.623 240.316 175.781 239.84 175.501C239.316 175.191 238.722 175.027 238.102 175.027C236.194 175.027 234.639 176.596 234.621 178.545C234.657 178.646 234.675 178.754 234.675 178.866C234.675 179.418 234.228 179.866 233.675 179.866H229.959C229.407 179.866 228.959 179.418 228.959 178.866C228.959 178.314 229.407 177.866 229.959 177.866L232.666 177.865C233.003 175.199 235.209 173.121 237.916 173.03C238.701 169.784 241.615 167.404 245.053 167.404ZM264.585 176.359C265.138 176.359 265.585 176.807 265.585 177.359C265.585 177.911 265.138 178.359 264.585 178.359H260.869C260.317 178.359 259.869 177.911 259.869 177.359C259.869 176.807 260.317 176.359 260.869 176.359H264.585Z" fill="#D8D8D8"/>
<path d="M224.625 84.0757C225.661 84.0757 226.5 83.2403 226.5 82.2097C226.5 81.1792 225.661 80.3438 224.625 80.3438C223.589 80.3438 222.75 81.1792 222.75 82.2097C222.75 83.2403 223.589 84.0757 224.625 84.0757Z" fill="#D8D8D8"/>
<path d="M78 183.327C80.0711 183.327 81.75 181.657 81.75 179.596C81.75 177.536 80.0711 175.865 78 175.865C75.9289 175.865 74.25 177.536 74.25 179.596C74.25 181.657 75.9289 183.327 78 183.327Z" fill="#D8D8D8"/>
<path fill-rule="evenodd" clip-rule="evenodd" d="M173.774 223.348C181.657 223.348 188.047 229.706 188.047 237.55C188.047 245.393 181.657 251.751 173.774 251.751C165.891 251.751 159.501 245.393 159.501 237.55C159.501 229.706 165.891 223.348 173.774 223.348ZM173.774 230.087C169.632 230.087 166.274 233.428 166.274 237.55C166.274 241.671 169.632 245.012 173.774 245.012C177.916 245.012 181.274 241.671 181.274 237.55C181.274 233.428 177.916 230.087 173.774 230.087Z" fill="#D8D8D8"/>
<path d="M205.171 152.972C215.759 152.972 224.342 144.432 224.342 133.897C224.342 123.362 215.759 114.822 205.171 114.822C194.583 114.822 186 123.362 186 133.897C186 144.432 194.583 152.972 205.171 152.972Z" fill="#D8D8D8"/>
<path fill-rule="evenodd" clip-rule="evenodd" d="M250.231 104.802C247.243 100.795 240.72 100.838 235.661 104.691C230.624 108.527 228.785 114.806 231.724 118.806L234.193 122.163C237.141 126.121 243.664 126.078 248.724 122.225C249.831 121.381 250.784 120.419 251.566 119.39L260.287 119.389C260.839 119.389 261.287 118.942 261.287 118.389C261.287 117.837 260.839 117.389 260.287 117.389L252.828 117.389C253.449 116.176 253.846 114.917 253.997 113.682L254.056 113.686H258.616C259.168 113.686 259.616 113.238 259.616 112.686C259.616 112.133 259.168 111.686 258.616 111.686H254.056L254.02 111.687C253.888 110.434 253.468 109.248 252.733 108.21L254.807 108.211C255.36 108.211 255.807 107.763 255.807 107.211C255.807 106.659 255.36 106.211 254.807 106.211H251.286C251.229 106.211 251.174 106.216 251.12 106.225L250.972 106.043C250.771 105.61 250.524 105.195 250.231 104.802ZM236.497 121.712L236.464 121.682C237.142 121.811 237.85 121.865 238.576 121.846L239.525 123.031C238.357 122.856 237.314 122.414 236.497 121.712ZM240.898 121.547C241.726 121.357 242.558 121.079 243.378 120.712L244.643 122.292C243.782 122.648 242.916 122.888 242.074 123.013L240.898 121.547ZM246.324 118.958C246.527 118.804 246.724 118.646 246.916 118.484L248.288 119.996C248.04 120.215 247.782 120.428 247.512 120.634C247.166 120.897 246.814 121.139 246.458 121.36L245.172 119.755C245.563 119.51 245.948 119.245 246.324 118.958ZM236.873 106.282C241.02 103.123 246.119 103.007 248.446 105.768L249.246 107.092C250.493 110.134 248.895 114.486 245.113 117.367C240.853 120.611 235.59 120.645 233.358 117.651C231.119 114.649 232.608 109.53 236.873 106.282ZM248.358 117.096C249.037 116.348 249.619 115.551 250.098 114.728L251.271 116.022C250.879 116.89 250.345 117.746 249.68 118.554L248.358 117.096ZM247.144 106.916C245.11 104.187 240.695 104.263 237.281 106.863C233.872 109.459 232.588 113.711 234.616 116.431C236.651 119.16 241.065 119.084 244.48 116.484C247.889 113.887 249.173 109.636 247.144 106.916ZM238.492 108.454C241.112 106.46 244.269 106.405 245.541 108.111C246.819 109.825 245.892 112.894 243.268 114.893C240.649 116.887 237.492 116.941 236.219 115.235C234.941 113.521 235.868 110.453 238.492 108.454ZM251.593 110.457L251.615 110.266C252.074 111.317 252.181 112.538 251.963 113.807L251.022 112.768C251.303 112 251.495 111.224 251.593 110.457ZM263.674 112.653C263.674 112.101 263.226 111.653 262.674 111.653H261.861C261.309 111.653 260.861 112.101 260.861 112.653C260.861 113.205 261.309 113.653 261.861 113.653H262.674C263.226 113.653 263.674 113.205 263.674 112.653ZM58.1906 166.608C61.172 162.609 59.3378 156.301 54.2839 152.452C49.2248 148.599 42.7017 148.556 39.7139 152.563C39.6012 152.714 39.4954 152.868 39.3964 153.026L38.6653 154.011C38.5774 153.986 38.4845 153.972 38.3885 153.972H34.8668C34.3145 153.972 33.8668 154.42 33.8668 154.972C33.8668 155.524 34.3145 155.972 34.8668 155.972L37.2139 155.971C36.4789 157.009 36.0587 158.195 35.9277 159.448C35.9147 159.447 35.9016 159.447 35.8885 159.447H31.3288C30.7765 159.447 30.3288 159.894 30.3288 160.447C30.3288 160.999 30.7765 161.447 31.3288 161.447H35.8885L35.9494 161.443C36.1005 162.678 36.4979 163.937 37.1189 165.15L29.3327 165.151C28.7804 165.151 28.3327 165.598 28.3327 166.151C28.3327 166.703 28.7804 167.151 29.3327 167.151L38.3806 167.151C39.1621 168.181 40.1152 169.142 41.223 169.986C46.2821 173.839 52.5255 173.785 55.4742 169.828L57.7797 167.11C57.8654 167.014 57.9489 166.916 58.0301 166.815L58.061 166.775L58.1618 166.658L58.156 166.652L58.1906 166.608ZM45.3011 170.055L46.5671 168.474C47.3872 168.84 48.2194 169.118 49.0466 169.308L47.8879 170.756C47.0451 170.646 46.1738 170.414 45.3011 170.055ZM52.9094 169.533L53.0113 169.519C52.3057 170.091 51.4549 170.479 50.5126 170.676L51.3689 169.607C51.8931 169.621 52.4082 169.596 52.9094 169.533ZM41.6579 167.756L43.0289 166.245C43.2209 166.407 43.4181 166.565 43.6205 166.719C43.997 167.006 44.3816 167.271 44.7723 167.516L43.4865 169.121C43.1324 168.901 42.7812 168.659 42.4347 168.395C42.1646 168.189 41.9055 167.976 41.6579 167.756ZM41.545 153.484L41.5414 153.479C43.8865 150.77 48.9493 150.903 53.0722 154.043C57.337 157.291 58.8255 162.411 56.5872 165.413C56.5556 165.455 56.5233 165.497 56.4905 165.538L56.3072 165.755C53.9383 168.399 48.9227 168.243 44.8323 165.128C40.7394 162.011 39.2035 157.17 41.0647 154.131L41.545 153.484ZM38.6743 163.782L39.8473 162.489C40.3257 163.312 40.908 164.109 41.5869 164.857L40.2656 166.314C39.6003 165.506 39.0669 164.649 38.6743 163.782ZM38.2541 158.215L38.3302 158.03C38.4185 158.858 38.6185 159.698 38.9232 160.53L37.9828 161.566C37.7788 160.373 37.8615 159.222 38.2541 158.215ZM28.8127 160.414C28.8127 159.862 28.365 159.414 27.8127 159.414H27C26.4477 159.414 26 159.862 26 160.414C26 160.966 26.4477 161.414 27 161.414H27.8127C28.365 161.414 28.8127 160.966 28.8127 160.414ZM53.7492 162.966C54.3422 162.179 54.4954 161.069 54.1161 159.82C53.737 158.572 52.8397 157.262 51.4765 156.234C50.1132 155.207 48.6068 154.706 47.3026 154.685C45.9973 154.665 44.9726 155.118 44.3796 155.905C43.7865 156.692 43.6334 157.802 44.0127 159.051C44.3918 160.299 45.2891 161.609 46.6523 162.636C48.0155 163.664 49.522 164.165 50.8262 164.185C52.1315 164.206 53.1561 163.753 53.7492 162.966ZM52.6801 154.637C54.3453 155.892 55.515 157.544 56.0297 159.239C56.5442 160.932 56.4179 162.747 55.3465 164.169C54.275 165.591 52.5652 166.213 50.795 166.185C49.0238 166.158 47.1139 165.488 45.4487 164.234C43.7835 162.979 42.6138 161.327 42.099 159.632C41.5846 157.938 41.7109 156.123 42.7823 154.702C43.8538 153.28 45.5636 152.658 47.3338 152.686C49.1049 152.713 51.0149 153.382 52.6801 154.637Z" fill="#979797"/>
<path d="M142.461 80.2129L170.249 126.232L183.859 127.652C184.408 127.709 184.807 128.201 184.75 128.75C184.693 129.299 184.201 129.698 183.652 129.641L156.326 126.79V145.816L186.667 145.816C187.18 145.816 187.603 146.202 187.661 146.7L187.667 146.816C187.667 147.329 187.281 147.752 186.784 147.81L186.667 147.816L156.326 147.816V170.387H182.518L186.705 153.241C186.827 152.742 187.302 152.423 187.799 152.485L187.914 152.506C188.412 152.628 188.731 153.103 188.669 153.6L188.648 153.715L184.577 170.387H207.962L213.125 154.192C213.292 153.665 213.855 153.375 214.381 153.542C214.907 153.71 215.198 154.273 215.03 154.799L202.167 195.156L104.035 195.155L106.022 204.488C106.498 206.723 108.422 208.341 110.685 208.443L110.913 208.448H203.696C204.248 208.448 204.696 208.896 204.696 209.448C204.696 209.961 204.31 210.383 203.813 210.441L203.696 210.448L184.678 210.447L177.827 222.89C184.294 224.658 189.046 230.551 189.046 237.551C189.046 243.833 185.218 249.225 179.757 251.541L194.974 251.541C195.526 251.541 195.974 251.989 195.974 252.541C195.974 253.054 195.588 253.477 195.09 253.535L194.974 253.541H101.407C100.855 253.541 100.407 253.094 100.407 252.541C100.407 252.029 100.793 251.606 101.291 251.548L101.407 251.541L116.04 251.541C110.579 249.225 106.751 243.833 106.751 237.551L106.754 237.206L104.14 237.206C103.588 237.206 103.14 236.758 103.14 236.206C103.14 235.693 103.526 235.271 104.023 235.213L104.14 235.206L106.931 235.207C107.148 233.811 107.556 232.479 108.127 231.236L101.14 231.236C100.588 231.236 100.14 230.788 100.14 230.236C100.14 229.723 100.526 229.301 101.023 229.243L101.14 229.236L109.236 229.236C111.315 226.073 114.547 223.73 118.337 222.795L120.624 210.447L110.913 210.448C107.693 210.448 104.9 208.254 104.123 205.152L104.066 204.905L89.6587 137.196C89.5533 137.252 89.4366 137.29 89.313 137.306L89.1871 137.314H84.0001C83.4478 137.314 83.0001 136.866 83.0001 136.314C83.0001 135.801 83.3861 135.378 83.8835 135.32L84.0001 135.314H89.1871C89.2114 135.314 89.2354 135.314 89.2593 135.316L87.8674 128.775C87.7105 128.948 87.4936 129.067 87.2494 129.097L87.1252 129.105H81.9382C81.386 129.105 80.9382 128.657 80.9382 128.105C80.9382 127.592 81.3243 127.169 81.8216 127.111L81.9382 127.105H87.1252C87.2695 127.105 87.4066 127.135 87.5305 127.19L82.783 104.882C82.5785 105.215 82.191 105.404 81.7938 105.349L81.6745 105.325L54.3974 98.0959C51.6042 97.3557 49.6592 94.828 49.6592 91.9384C49.6592 89.6287 51.5316 87.7563 53.8413 87.7563C54.1118 87.7563 54.3814 87.7826 54.6465 87.8346L54.9098 87.8952L82.7808 95.2611L87.5342 117.605L97.7222 118.668L92.5286 110.066L102.9 103.866L116.624 80.2138L129.8 87.7829L142.461 80.2129ZM215.59 251.541C216.142 251.541 216.59 251.989 216.59 252.541C216.59 253.054 216.204 253.477 215.707 253.535L215.59 253.541H200.524C199.972 253.541 199.524 253.094 199.524 252.541C199.524 252.029 199.91 251.606 200.408 251.548L200.524 251.541H215.59ZM95.8566 251.541C96.4089 251.541 96.8566 251.989 96.8566 252.541C96.8566 253.054 96.4706 253.477 95.9732 253.535L95.8566 253.541H86.3414C85.7891 253.541 85.3414 253.094 85.3414 252.541C85.3414 252.029 85.7274 251.606 86.2247 251.548L86.3414 251.541H95.8566ZM80.9979 251.541C81.5501 251.541 81.9979 251.989 81.9979 252.541C81.9979 253.054 81.6118 253.477 81.1145 253.535L80.9979 253.541H77.0332C76.4809 253.541 76.0332 253.094 76.0332 252.541C76.0332 252.029 76.4192 251.606 76.9166 251.548L77.0332 251.541H80.9979ZM225.105 251.541C225.658 251.541 226.105 251.989 226.105 252.541C226.105 253.054 225.719 253.477 225.222 253.535L225.105 253.541H222.727C222.174 253.541 221.727 253.094 221.727 252.541C221.727 252.029 222.113 251.606 222.61 251.548L222.727 251.541H225.105ZM171.624 210.447H133.678L126.721 223.081C132.857 225.054 137.296 230.786 137.296 237.551C137.296 243.833 133.468 249.225 128.007 251.541L167.79 251.541C162.329 249.225 158.501 243.833 158.501 237.551C158.501 230.705 163.046 224.918 169.295 223.013L171.624 210.447ZM122.024 224.349C114.692 224.349 108.751 230.26 108.751 237.551C108.751 244.841 114.692 250.752 122.024 250.752C129.355 250.752 135.296 244.841 135.296 237.551C135.296 230.26 129.355 224.349 122.024 224.349ZM173.774 224.349C166.442 224.349 160.501 230.26 160.501 237.551C160.501 244.841 166.442 250.752 173.774 250.752C181.105 250.752 187.046 244.841 187.046 237.551C187.046 231.306 182.687 226.073 176.829 224.7L176.804 224.749L176.637 224.657C175.715 224.455 174.757 224.349 173.774 224.349ZM122.024 229.088C126.717 229.088 130.524 232.876 130.524 237.551C130.524 242.225 126.717 246.013 122.024 246.013C117.33 246.013 113.524 242.225 113.524 237.551C113.524 232.876 117.33 229.088 122.024 229.088ZM173.774 229.088C178.467 229.088 182.274 232.876 182.274 237.551C182.274 242.225 178.467 246.013 173.774 246.013C169.08 246.013 165.274 242.225 165.274 237.551C165.274 232.876 169.08 229.088 173.774 229.088ZM173.774 231.088C170.183 231.088 167.274 233.982 167.274 237.551C167.274 241.119 170.183 244.013 173.774 244.013C177.365 244.013 180.274 241.119 180.274 237.551C180.274 233.982 177.365 231.088 173.774 231.088ZM122.024 231.088C118.433 231.088 115.524 233.982 115.524 237.551C115.524 241.119 118.433 244.013 122.024 244.013C125.614 244.013 128.524 241.119 128.524 237.551C128.524 233.982 125.614 231.088 122.024 231.088ZM122.024 233.565C124.232 233.565 126.024 235.349 126.024 237.551C126.024 239.753 124.232 241.536 122.024 241.536C119.816 241.536 118.024 239.753 118.024 237.551C118.024 235.349 119.816 233.565 122.024 233.565ZM174 233.565C176.208 233.565 178 235.349 178 237.551C178 239.753 176.208 241.536 174 241.536C171.792 241.536 170 239.753 170 237.551C170 235.349 171.792 233.565 174 233.565ZM174 235.565C172.894 235.565 172 236.455 172 237.551C172 238.646 172.894 239.536 174 239.536C175.106 239.536 176 238.646 176 237.551C176 236.455 175.106 235.565 174 235.565ZM122.024 235.565C120.918 235.565 120.024 236.455 120.024 237.551C120.024 238.646 120.918 239.536 122.024 239.536C123.129 239.536 124.024 238.646 124.024 237.551C124.024 236.455 123.129 235.565 122.024 235.565ZM97.9349 229.236C98.4871 229.236 98.9349 229.684 98.9349 230.236C98.9349 230.749 98.5488 231.172 98.0515 231.229L97.9349 231.236H96.349C95.7967 231.236 95.349 230.788 95.349 230.236C95.349 229.723 95.735 229.301 96.2324 229.243L96.349 229.236H97.9349ZM131.395 210.447H122.658L120.437 222.43C120.959 222.376 121.488 222.349 122.024 222.349C122.941 222.349 123.839 222.429 124.712 222.584L131.395 210.447ZM182.395 210.447H173.658L171.419 222.528C172.186 222.41 172.973 222.349 173.774 222.349C174.45 222.349 175.117 222.393 175.77 222.477L182.395 210.447ZM207.324 172.387H184.089L179.02 193.155L200.705 193.156L207.324 172.387ZM125.522 172.387H99.1912L103.61 193.155H129.541L125.522 172.387ZM154.326 172.387H127.56L131.579 193.155H154.326V172.387ZM182.03 172.387H156.326V193.155H176.961L182.03 172.387ZM122.8 147.793L127.173 170.387H154.326V147.816L142.784 147.816L142.757 147.814L122.8 147.793ZM93.9512 147.762L98.7652 170.387H125.135L120.762 147.791L93.9512 147.762ZM200.532 108.017L207.286 114.737L200.532 121.456L199.122 120.039L203.232 115.947C194.092 117.008 187 124.737 187 134.113C187 144.213 195.231 152.402 205.386 152.402C215.542 152.402 223.772 144.213 223.772 134.113C223.772 127.706 220.435 121.876 215.075 118.565L214.751 118.37L215.768 116.647C221.919 120.276 225.772 126.862 225.772 134.113C225.772 145.32 216.644 154.402 205.386 154.402C194.128 154.402 185 145.32 185 134.113C185 123.502 193.183 114.795 203.609 113.899L199.122 109.435L200.532 108.017ZM206.439 142.452C207.414 142.452 208.194 143.187 208.194 144.162C208.194 145.152 207.414 145.917 206.439 145.917C205.464 145.917 204.714 145.152 204.714 144.162C204.714 143.187 205.464 142.452 206.439 142.452ZM117.961 122.789L122.413 145.793L144.227 145.816L154.326 145.816V126.582L117.961 122.789ZM87.9722 119.661L93.5252 145.762L120.375 145.79L115.881 122.572L87.9722 119.661ZM207.684 124.902V139.152H205.239V124.902H207.684ZM75.6871 135.314C76.2394 135.314 76.6871 135.761 76.6871 136.314C76.6871 136.826 76.301 137.249 75.8037 137.307L75.6871 137.314H74.8096C74.2573 137.314 73.8096 136.866 73.8096 136.314C73.8096 135.801 74.1956 135.378 74.693 135.32L74.8096 135.314H75.6871ZM80.9371 135.314C81.4894 135.314 81.9371 135.761 81.9371 136.314C81.9371 136.826 81.551 137.249 81.0537 137.307L80.9371 137.314H78.9385C78.3862 137.314 77.9385 136.866 77.9385 136.314C77.9385 135.801 78.3246 135.378 78.8219 135.32L78.9385 135.314H80.9371ZM141.778 82.9513L95.2791 110.752L100.216 118.928L167.756 125.972L141.778 82.9513ZM53.8413 89.7563C52.6361 89.7563 51.6592 90.7333 51.6592 91.9384C51.6592 93.85 52.8999 95.5307 54.7067 96.1036L54.9098 96.1627L82.1868 103.391C82.2626 103.412 82.334 103.44 82.4004 103.475L82.4961 103.533L81.0806 96.8804L54.3988 89.8288C54.2169 89.7807 54.0295 89.7563 53.8413 89.7563ZM117.354 82.94L106.441 101.749L127.833 88.9589L117.354 82.94Z" fill="#979797"/>
</svg>
