<svg width="300" height="300" viewBox="0 0 300 300" fill="none" xmlns="http://www.w3.org/2000/svg">
<rect width="300" height="300" fill="white"/>
<g clip-path="url(#clip0)">
<path d="M82.5995 207.058C83.6317 207.058 84.4685 206.222 84.4685 205.189C84.4685 204.157 83.6317 203.32 82.5995 203.32C81.5672 203.32 80.7305 204.157 80.7305 205.189C80.7305 206.222 81.5672 207.058 82.5995 207.058Z" stroke="#D8D8D8" stroke-width="2"/>
<path fill-rule="evenodd" clip-rule="evenodd" d="M154.235 74.0013C154.235 77.0287 151.781 79.483 148.753 79.483C145.726 79.483 143.272 77.0287 143.272 74.0013C143.272 70.9738 145.726 68.5195 148.753 68.5195C151.781 68.5195 154.235 70.9738 154.235 74.0013ZM145.265 74.0013C145.265 75.9278 146.827 77.4896 148.753 77.4896C150.68 77.4896 152.242 75.9278 152.242 74.0013C152.242 72.0747 150.68 70.5129 148.753 70.5129C146.827 70.5129 145.265 72.0747 145.265 74.0013Z" fill="#D8D8D8"/>
<path d="M93.6508 111.018V107.639C93.6508 107.089 94.097 106.642 94.6475 106.642C95.1979 106.642 95.6441 107.089 95.6441 107.639V111.018H98.8465C99.3969 111.018 99.8432 111.464 99.8432 112.014C99.8432 112.565 99.3969 113.011 98.8465 113.011H95.6441V116.389C95.6441 116.939 95.1979 117.385 94.6475 117.385C94.097 117.385 93.6508 116.939 93.6508 116.389V113.011H90.4469C89.8964 113.011 89.4502 112.565 89.4502 112.014C89.4502 111.464 89.8964 111.018 90.4469 111.018H93.6508Z" fill="#D8D8D8"/>
<path d="M206.555 75.9941C207.105 75.9941 207.552 76.4404 207.552 76.9908L207.551 78.5451L209.005 78.5461C209.516 78.5461 209.937 78.9309 209.995 79.4266L210.002 79.5428C210.002 80.0932 209.555 80.5395 209.005 80.5395L207.551 80.5391L207.552 82.0948C207.552 82.6059 207.167 83.0272 206.671 83.0847L206.555 83.0914C206.005 83.0914 205.558 82.6452 205.558 82.0948L205.557 80.5391L204.105 80.5395C203.594 80.5395 203.173 80.1547 203.115 79.659L203.108 79.5428C203.108 78.9923 203.555 78.5461 204.105 78.5461L205.557 78.5451L205.558 76.9908C205.558 76.4797 205.943 76.0584 206.439 76.0008L206.555 75.9941Z" fill="#D8D8D8"/>
<path fill-rule="evenodd" clip-rule="evenodd" d="M56.9295 157.916C53.7962 161.734 54.5398 165.781 59.1606 170.056C61.6914 172.398 64.4004 173.127 66.1317 173.344C69.2345 173.732 71.7195 172.772 73.5868 170.463C68.8311 170.807 64.8659 169.476 61.6914 166.469C58.5168 163.462 56.9295 160.611 56.9295 157.916Z" fill="#D8D8D8"/>
<path d="M62.7178 167.456C58.0477 163.936 56.3918 158.257 59.0192 154.77C61.6466 151.284 67.5624 151.31 72.2325 154.829C76.9026 158.348 78.5585 164.028 75.9311 167.514C73.3037 171.001 67.3879 170.975 62.7178 167.456Z" fill="white"/>
<path d="M64.5742 164.991C61.5501 162.712 60.4478 159.074 62.112 156.866C63.7762 154.657 67.5767 154.714 70.6007 156.993C73.6247 159.272 74.7271 162.909 73.0629 165.118C71.3987 167.326 67.5982 167.269 64.5742 164.991Z" fill="#D8D8D8"/>
<path d="M72.7915 154.003C77.8268 157.856 79.6534 164.17 76.6848 168.172L76.6176 168.257L74.0105 171.493C71.0715 175.458 64.5673 175.414 59.5244 171.555C58.4203 170.71 57.4705 169.747 56.6917 168.715L47.9213 168.715C47.3708 168.715 46.9246 168.269 46.9246 167.719C46.9246 167.208 47.3093 166.786 47.805 166.729L47.9213 166.722L55.4398 166.722C54.8185 165.504 54.421 164.241 54.2702 163.002L49.9107 163.002C49.3602 163.002 48.914 162.556 48.914 162.005C48.914 161.494 49.2988 161.073 49.7944 161.015L49.9107 161.009L54.2471 161.009C54.3789 159.75 54.7994 158.559 55.5355 157.518L53.4369 157.518C52.8865 157.518 52.4403 157.072 52.4403 156.521C52.4403 156.01 52.825 155.589 53.3207 155.531L53.4369 155.525H56.9469C57.0107 155.525 57.0731 155.531 57.1336 155.542L58.0619 154.404C58.1274 154.305 58.1955 154.209 58.2664 154.113C61.2444 150.1 67.7486 150.143 72.7915 154.003ZM65.1003 170.042L63.7739 171.705C64.6476 172.052 65.5242 172.278 66.374 172.386L67.5751 170.877C66.7495 170.688 65.9188 170.409 65.1003 170.042ZM71.6969 171.063L71.6752 171.066C71.0962 171.156 70.4971 171.192 69.8855 171.176L68.9702 172.325C70.0155 172.126 70.9502 171.704 71.6969 171.063ZM61.573 167.81L60.0935 169.448C60.3 169.627 60.5142 169.802 60.7359 169.972C61.1324 170.275 61.5376 170.551 61.9482 170.798L63.314 169.085C62.9225 168.839 62.537 168.571 62.1597 168.283C61.959 168.129 61.7634 167.971 61.573 167.81ZM59.9511 155.191L59.9757 155.212L59.6769 155.576C57.725 158.617 59.2459 163.542 63.3712 166.7C67.616 169.948 72.8586 169.983 75.0839 166.984C77.3174 163.974 75.8324 158.84 71.58 155.586C67.3876 152.377 62.2219 152.303 59.9511 155.191ZM58.4005 164.048L57.0676 165.524C57.4742 166.384 58.0179 167.231 58.6903 168.027L60.1381 166.423C59.4598 165.673 58.8781 164.874 58.4005 164.048ZM71.1771 156.179C74.5731 158.778 75.8512 163.031 73.8324 165.752C71.8045 168.485 67.4019 168.409 63.9984 165.804C60.6024 163.205 59.3243 158.952 61.3431 156.231C63.371 153.498 67.7736 153.574 71.1771 156.179ZM62.9439 157.419C61.6673 159.139 62.5925 162.218 65.2099 164.221C67.8198 166.219 70.9637 166.273 72.2316 164.564C73.5082 162.844 72.583 159.765 69.9656 157.762C67.3557 155.764 64.2118 155.71 62.9439 157.419ZM56.8531 159.154L56.8467 159.167C56.1886 160.367 56.0353 161.833 56.339 163.356L57.4815 162.091C57.1243 161.113 56.9111 160.123 56.8531 159.154ZM46.4063 160.976C46.9567 160.976 47.403 161.422 47.403 161.973C47.403 162.484 47.0182 162.905 46.5225 162.963L46.4063 162.969H45.5963C45.0458 162.969 44.5996 162.523 44.5996 161.973C44.5996 161.461 44.9844 161.04 45.4801 160.983L45.5963 160.976H46.4063Z" fill="#979797"/>
<path d="M210.262 210.047V218.797C210.262 219.348 210.708 219.794 211.258 219.794C211.809 219.794 212.255 219.348 212.255 218.797V210.047C212.255 209.497 211.809 209.051 211.258 209.051C210.708 209.051 210.262 209.497 210.262 210.047Z" fill="#D8D8D8"/>
<path d="M215.459 213.426H207.06C206.509 213.426 206.063 213.872 206.063 214.422C206.063 214.973 206.509 215.419 207.06 215.419H215.459C216.01 215.419 216.456 214.973 216.456 214.422C216.456 213.872 216.01 213.426 215.459 213.426Z" fill="#D8D8D8"/>
<path d="M93.0444 71.5117C97.7258 71.5117 101.677 74.8433 102.615 79.3353L102.668 79.3344C106.451 79.3344 109.546 82.3021 109.844 86.0672L113.927 86.0671C114.478 86.0671 114.924 86.5134 114.924 87.0638C114.924 87.6143 114.478 88.0605 113.927 88.0605H108.783C108.232 88.0605 107.786 87.6143 107.786 87.0638C107.786 86.9185 107.817 86.7804 107.873 86.6559C107.87 83.7084 105.536 81.3277 102.668 81.3277C101.741 81.3277 100.851 81.5757 100.066 82.0407C99.5928 82.3214 98.9814 82.1651 98.7007 81.6916C98.42 81.2181 98.5763 80.6067 99.0498 80.326C99.551 80.0289 100.084 79.7953 100.639 79.6296C99.8494 76.1043 96.728 73.5051 93.0444 73.5051C89.3728 73.5051 86.2647 76.0859 85.4593 79.5873C85.7209 79.6686 85.9748 79.7718 86.2203 79.8943C86.7128 80.14 86.9129 80.7386 86.6671 81.2311C86.4213 81.7236 85.8228 81.9237 85.3303 81.6779C84.8705 81.4485 84.3647 81.3277 83.8401 81.3277C82.2382 81.3277 80.8906 82.4607 80.5326 83.9897L80.7048 83.9907C81.2552 83.9907 81.7015 84.4369 81.7015 84.9874C81.7015 85.5378 81.2552 85.9841 80.7048 85.9841H75.56C75.0095 85.9841 74.5633 85.5378 74.5633 84.9874C74.5633 84.4369 75.0095 83.9907 75.56 83.9907L78.505 83.9901C78.8738 81.4783 80.9291 79.5206 83.4716 79.3469C84.4036 74.8533 88.3546 71.5117 93.0444 71.5117ZM71.1395 83.9702C71.69 83.9702 72.1362 84.4164 72.1362 84.9669C72.1362 85.5173 71.69 85.9635 71.1395 85.9635H65.9947C65.4443 85.9635 64.998 85.5173 64.998 84.9669C64.998 84.4164 65.4443 83.9702 65.9947 83.9702H71.1395ZM230.48 185.133C233.921 185.133 236.829 187.534 237.601 190.795C239.387 191.008 240.824 192.364 241.184 194.118L243.061 194.118C243.611 194.118 244.057 194.564 244.057 195.115C244.057 195.665 243.611 196.111 243.061 196.111H239.356C238.806 196.111 238.36 195.665 238.36 195.115C238.36 194.646 238.683 194.253 239.119 194.146C238.798 193.331 238.017 192.759 237.109 192.759C236.774 192.759 236.453 192.835 236.16 192.981C235.668 193.227 235.069 193.027 234.823 192.535C234.578 192.042 234.778 191.444 235.27 191.198C235.381 191.143 235.493 191.093 235.607 191.048C234.974 188.775 232.907 187.126 230.48 187.126C228.047 187.126 225.972 188.785 225.345 191.073C225.677 191.189 225.996 191.338 226.3 191.518C226.773 191.799 226.929 192.41 226.649 192.884C226.368 193.357 225.757 193.514 225.283 193.233C224.761 192.924 224.169 192.759 223.552 192.759C221.651 192.759 220.1 194.332 220.083 196.289C220.119 196.39 220.137 196.497 220.137 196.61C220.137 197.16 219.691 197.606 219.14 197.606H215.436C214.886 197.606 214.44 197.16 214.44 196.61C214.44 196.059 214.886 195.613 215.436 195.613L218.134 195.612C218.468 192.943 220.667 190.86 223.367 190.768C224.147 187.519 227.052 185.133 230.48 185.133ZM249.948 194.103C250.498 194.103 250.944 194.549 250.944 195.1C250.944 195.65 250.498 196.096 249.948 196.096H246.243C245.693 196.096 245.247 195.65 245.247 195.1C245.247 194.549 245.693 194.103 246.243 194.103H249.948Z" fill="#D8D8D8"/>
<path d="M168.562 92.6892C169.595 92.6892 170.431 91.8524 170.431 90.8202C170.431 89.7879 169.595 88.9512 168.562 88.9512C167.53 88.9512 166.693 89.7879 166.693 90.8202C166.693 91.8524 167.53 92.6892 168.562 92.6892Z" fill="#D8D8D8"/>
<path d="M216.895 166.183C218.199 166.183 219.256 165.126 219.256 163.822C219.256 162.518 218.199 161.461 216.895 161.461C215.591 161.461 214.534 162.518 214.534 163.822C214.534 165.126 215.591 166.183 216.895 166.183Z" stroke="#D8D8D8" stroke-width="2.5"/>
<path d="M184.906 155.637C197.128 155.637 207.036 145.729 207.036 133.507C207.036 121.285 197.128 111.377 184.906 111.377C172.684 111.377 162.776 121.285 162.776 133.507C162.776 145.729 172.684 155.637 184.906 155.637Z" fill="#D8D8D8"/>
<path d="M186.704 138.347V121.688H184.686V138.347H186.704ZM185.695 145.801C186.509 145.801 187.147 145.146 187.147 144.331C187.147 143.517 186.509 142.897 185.695 142.897C184.88 142.897 184.261 143.517 184.261 144.331C184.261 145.146 184.88 145.801 185.695 145.801Z" fill="#979797"/>
<path fill-rule="evenodd" clip-rule="evenodd" d="M117.903 160.037L119.187 160.042L137.49 160.129C138.497 160.144 139.253 160.953 139.248 161.906C139.247 162.308 139.272 164.661 139.275 167.653L139.274 168.853C139.267 174.715 139.16 182.208 138.631 182.739L138.612 182.758L138.534 182.835C136.836 184.522 114.403 206.822 113.92 207.035C113.555 207.203 113.125 207.251 112.722 207.138C112.527 207.084 112.158 206.894 111.946 206.68L92.4561 187.003C91.7664 186.309 91.7725 185.188 92.4664 184.503L116.653 160.548C116.986 160.219 117.434 160.034 117.903 160.037ZM128.633 167.001C126.419 167.001 124.624 168.796 124.624 171.01C124.624 173.224 126.419 175.019 128.633 175.019C130.848 175.019 132.643 173.224 132.643 171.01C132.643 168.796 130.848 167.001 128.633 167.001Z" fill="#D8D8D8"/>
<path fill-rule="evenodd" clip-rule="evenodd" d="M248.8 121.428C251.933 125.246 251.19 129.293 246.569 133.568C244.038 135.909 241.329 136.639 239.598 136.855C236.495 137.244 234.01 136.283 232.143 133.975C236.898 134.319 240.864 132.987 244.038 129.98C247.213 126.973 248.8 124.123 248.8 121.428Z" fill="#D8D8D8"/>
<path d="M243.011 130.967C247.681 127.448 249.337 121.769 246.709 118.282C244.082 114.795 238.166 114.822 233.496 118.341C228.826 121.86 227.17 127.539 229.797 131.026C232.425 134.513 238.341 134.486 243.011 130.967Z" fill="white"/>
<path d="M241.154 128.502C244.178 126.224 245.281 122.586 243.617 120.378C241.952 118.169 238.152 118.226 235.128 120.505C232.104 122.784 231.001 126.421 232.666 128.63C234.33 130.838 238.13 130.781 241.154 128.502Z" fill="#D8D8D8"/>
<path d="M232.937 117.514C227.902 121.368 226.075 127.682 229.044 131.684L229.111 131.769L229.039 131.829L231.718 135.005C234.657 138.969 241.161 138.926 246.204 135.067C247.308 134.222 248.258 133.258 249.037 132.227L257.807 132.227C258.358 132.227 258.804 131.781 258.804 131.23C258.804 130.719 258.419 130.298 257.923 130.24L257.807 130.234L250.289 130.234C250.91 129.016 251.307 127.753 251.458 126.514L255.818 126.514C256.368 126.514 256.814 126.067 256.814 125.517C256.814 125.006 256.43 124.585 255.934 124.527L255.818 124.52L251.481 124.521C251.35 123.262 250.929 122.071 250.193 121.03L252.292 121.03C252.842 121.03 253.288 120.584 253.288 120.033C253.288 119.522 252.903 119.101 252.408 119.043L252.292 119.037H248.782C248.718 119.037 248.655 119.043 248.595 119.054L247.667 117.915C247.601 117.817 247.533 117.72 247.462 117.625C244.484 113.612 237.98 113.655 232.937 117.514ZM240.628 133.553L241.955 135.217C241.081 135.564 240.204 135.79 239.355 135.897L238.153 134.389C238.979 134.199 239.81 133.921 240.628 133.553ZM234.032 134.574L234.053 134.578C234.632 134.667 235.231 134.704 235.843 134.688L236.758 135.837C235.713 135.637 234.778 135.216 234.032 134.574ZM244.155 131.322L245.635 132.96C245.428 133.139 245.214 133.314 244.993 133.484C244.596 133.787 244.191 134.062 243.78 134.31L242.414 132.596C242.806 132.35 243.191 132.083 243.569 131.794C243.769 131.641 243.965 131.483 244.155 131.322ZM245.777 118.703L246.052 119.088C248.003 122.129 246.483 127.054 242.357 130.211C238.112 133.46 232.87 133.495 230.645 130.496C228.411 127.485 229.896 122.352 234.149 119.097C238.341 115.889 243.507 115.815 245.777 118.703ZM247.328 127.56L248.661 129.036C248.254 129.896 247.711 130.742 247.038 131.539L245.59 129.935C246.269 129.185 246.85 128.386 247.328 127.56ZM234.551 119.69C231.155 122.289 229.877 126.543 231.896 129.264C233.924 131.997 238.327 131.921 241.73 129.316C245.126 126.717 246.404 122.464 244.385 119.743C242.357 117.009 237.955 117.085 234.551 119.69ZM242.785 120.93C244.061 122.651 243.136 125.73 240.519 127.733C237.909 129.731 234.765 129.785 233.497 128.076C232.22 126.355 233.145 123.277 235.763 121.273C238.373 119.276 241.517 119.221 242.785 120.93ZM248.875 122.666L248.882 122.679C249.54 123.879 249.693 125.344 249.389 126.867L248.247 125.603C248.604 124.625 248.817 123.635 248.875 122.666ZM259.322 124.488C258.772 124.488 258.326 124.934 258.326 125.484C258.326 125.995 258.71 126.417 259.206 126.474L259.322 126.481H260.132C260.683 126.481 261.129 126.035 261.129 125.484C261.129 124.973 260.744 124.552 260.248 124.494L260.132 124.488H259.322Z" fill="#979797"/>
<path d="M190.138 158.7L190.137 225.813L194.419 225.814C194.97 225.814 195.416 226.26 195.416 226.811C195.416 227.322 195.031 227.743 194.536 227.801L194.419 227.807H108.73C108.18 227.807 107.734 227.361 107.734 226.811C107.734 226.299 108.118 225.878 108.614 225.821L108.73 225.814L111.457 225.813L111.458 212.331H113.451V225.814H188.144V158.7H190.138ZM200.887 225.814C201.438 225.814 201.884 226.26 201.884 226.811C201.884 227.322 201.499 227.743 201.004 227.801L200.887 227.807H198.752C198.201 227.807 197.755 227.361 197.755 226.811C197.755 226.299 198.14 225.878 198.635 225.821L198.752 225.814H200.887ZM105.206 225.814C105.757 225.814 106.203 226.26 106.203 226.811C106.203 227.322 105.818 227.743 105.323 227.801L105.206 227.807H103.071C102.52 227.807 102.074 227.361 102.074 226.811C102.074 226.299 102.459 225.878 102.954 225.821L103.071 225.814H105.206ZM117.909 159.043L119.191 159.047L137.494 159.134C139.044 159.157 140.252 160.4 140.245 161.913L140.245 162.025C140.246 162.197 140.248 162.533 140.25 162.885L140.252 163.237C140.254 163.584 140.257 163.899 140.257 164.035L140.258 164.107C140.276 167.057 140.278 169.723 140.254 172.319C140.187 179.595 140.028 182.751 139.337 183.445L139.282 183.5C139.044 183.736 138.134 184.64 137.129 185.637L136.81 185.955C136.328 186.434 135.838 186.92 135.403 187.352C132.547 190.186 129.726 192.981 127.081 195.597L126.974 195.702C118.1 204.476 114.733 207.768 114.322 207.949C113.75 208.213 113.077 208.275 112.453 208.101C112.063 207.991 111.554 207.703 111.237 207.384L91.7478 187.707C90.6709 186.623 90.6788 184.869 91.7658 183.796L104.473 171.21L102.643 171.21C102.132 171.21 101.711 170.825 101.653 170.33L101.647 170.214C101.647 169.702 102.032 169.281 102.527 169.224L102.643 169.217L106.486 169.217L109.864 165.871L104.779 165.871C104.268 165.871 103.847 165.486 103.789 164.99L103.783 164.874C103.783 164.363 104.167 163.942 104.663 163.884L104.779 163.877L111.877 163.877L115.952 159.842C116.473 159.326 117.176 159.038 117.909 159.043ZM117.899 161.036C117.694 161.035 117.5 161.114 117.354 161.259L107.718 170.804C107.658 170.886 107.585 170.959 107.502 171.019L93.1675 185.213C92.8646 185.512 92.8624 186 93.163 186.303L112.654 205.981C112.719 206.046 112.923 206.162 112.991 206.181C113.15 206.226 113.338 206.208 113.504 206.132C113.543 206.115 119.368 200.42 125.573 194.285L125.68 194.179C128.324 191.565 131.144 188.77 133.998 185.937C135.261 184.684 136.981 182.976 137.651 182.31L137.806 182.156L137.81 182.141C137.844 181.999 137.88 181.785 137.914 181.51C137.983 180.953 138.043 180.171 138.092 179.189C138.18 177.436 138.235 175.097 138.26 172.301C138.284 169.716 138.282 167.06 138.265 164.119C138.265 164.143 138.255 162.665 138.252 162.106L138.251 161.904C138.254 161.48 137.918 161.134 137.475 161.128L119.182 161.041L117.899 161.036ZM128.633 166.006C131.398 166.006 133.639 168.247 133.639 171.012C133.639 173.777 131.398 176.018 128.633 176.018C125.869 176.018 123.628 173.777 123.628 171.012C123.628 168.247 125.869 166.006 128.633 166.006ZM128.633 168C126.97 168 125.621 169.348 125.621 171.012C125.621 172.676 126.97 174.024 128.633 174.024C130.297 174.024 131.646 172.676 131.646 171.012C131.646 169.348 130.297 168 128.633 168ZM100.708 163.877C101.258 163.877 101.704 164.324 101.704 164.874C101.704 165.385 101.32 165.807 100.824 165.864L100.708 165.871H99.4398C98.8894 165.871 98.4432 165.425 98.4432 164.874C98.4432 164.363 98.8279 163.942 99.3236 163.884L99.4398 163.877H100.708ZM150.019 107.703C155.982 107.703 161.574 110.789 165.201 115.819L163.585 116.985C160.32 112.457 155.317 109.696 150.019 109.696H149.706C140.626 109.696 133.249 117.914 133.249 127.576L133.248 132.909L159.446 132.909V134.903L133.248 134.902L133.249 140.209H131.255L131.255 134.902L113.451 134.903V159.185H111.458V132.909L131.255 132.909L131.255 127.576C131.255 116.858 139.474 107.703 149.706 107.703H150.019ZM184.906 110.382C188.466 110.382 191.839 111.186 194.852 112.624L204.138 112.624C204.688 112.624 205.134 113.07 205.134 113.621C205.134 114.132 204.749 114.553 204.254 114.611L204.138 114.618L198.249 114.617C199.631 115.595 200.901 116.721 202.036 117.972C202.139 117.916 202.253 117.879 202.375 117.864L202.498 117.857H205.646C206.196 117.857 206.642 118.303 206.642 118.853C206.642 119.365 206.258 119.786 205.762 119.843L205.646 119.85L203.57 119.85C206.376 123.677 208.032 128.4 208.032 133.509C208.032 146.281 197.678 156.635 184.906 156.635C172.133 156.635 161.779 146.281 161.779 133.509C161.779 120.736 172.133 110.382 184.906 110.382ZM184.906 112.375C173.234 112.375 163.772 121.837 163.772 133.509C163.772 145.18 173.234 154.642 184.906 154.642C196.577 154.642 206.039 145.18 206.039 133.509C206.039 121.837 196.577 112.375 184.906 112.375ZM209.383 112.782C209.934 112.782 210.38 113.228 210.38 113.778C210.38 114.289 209.995 114.711 209.499 114.768L209.383 114.775H208.334C207.784 114.775 207.337 114.329 207.337 113.778C207.337 113.267 207.722 112.846 208.218 112.788L208.334 112.782H209.383Z" fill="#979797"/>
</g>
<defs>
<clipPath id="clip0">
<rect width="300" height="300" fill="white"/>
</clipPath>
</defs>
</svg>
