<svg width="208" height="208" viewBox="0 0 208 208" fill="none" xmlns="http://www.w3.org/2000/svg">
<g filter="url(#filter0_d)">
<rect width="200" height="200" transform="translate(4)" fill="white"/>
<path d="M24.5 75C26.9853 75 29 72.9853 29 70.5C29 68.0147 26.9853 66 24.5 66C22.0147 66 20 68.0147 20 70.5C20 72.9853 22.0147 75 24.5 75Z" stroke="#B2E0C4" stroke-width="2"/>
<path d="M181.5 127C185.642 127 189 123.642 189 119.5C189 115.358 185.642 112 181.5 112C177.358 112 174 115.358 174 119.5C174 123.642 177.358 127 181.5 127Z" stroke="#B2E0C4" stroke-width="2"/>
<path d="M38 109H43.455" stroke="#7FCB9C" stroke-width="2" stroke-linecap="round"/>
<path d="M40.7271 106.273V111.728" stroke="#7FCB9C" stroke-width="2" stroke-linecap="round"/>
<path d="M171 52H178.273" stroke="#7FCB9C" stroke-width="2" stroke-linecap="round"/>
<path d="M174.636 48.3633V55.6363" stroke="#7FCB9C" stroke-width="2" stroke-linecap="round"/>
<path d="M150.207 15.1806C150.466 12.2761 152.883 10 155.825 10C158.795 10 161.229 12.319 161.45 15.2624" stroke="#B2E0C4" stroke-width="2"/>
<path d="M160.493 15.3156C160.868 15.1285 161.29 15.0234 161.736 15.0234C163.295 15.0234 164.56 16.3086 164.56 17.8938" stroke="#B2E0C4" stroke-width="2" stroke-linecap="round"/>
<path d="M167.053 18.0137H163.749" stroke="#B2E0C4" stroke-width="2" stroke-linecap="round"/>
<path d="M145.719 19.3477H142.416" stroke="#B2E0C4" stroke-width="2" stroke-linecap="round"/>
<path d="M173.195 18H169.891" stroke="#B2E0C4" stroke-width="2" stroke-linecap="round"/>
<path d="M145.663 19.0898C145.663 16.844 147.446 15.0234 149.646 15.0234C150.373 15.0234 151.055 15.2227 151.643 15.5707" stroke="#B2E0C4" stroke-width="2" stroke-linecap="round"/>
<path fill-rule="evenodd" clip-rule="evenodd" d="M117.608 21.3653C124.604 19.7502 131.584 24.1121 133.199 31.1078L134.654 37.4103L53.7417 56.0905L52.2867 49.7879C50.6716 42.7922 55.0334 35.8118 62.0291 34.1967L117.608 21.3653ZM107.98 33.0082L90.4418 37.0573C89.3655 37.3058 88.6945 38.3797 88.943 39.456C89.1914 40.5322 90.2653 41.2033 91.3416 40.9548L108.88 36.9057C109.957 36.6572 110.628 35.5833 110.379 34.507C110.131 33.4308 109.057 32.7597 107.98 33.0082ZM81.6725 39.0819C80.5962 39.3303 79.9251 40.4043 80.1736 41.4805C80.4221 42.5568 81.496 43.2278 82.5723 42.9794C83.6485 42.7309 84.3196 41.657 84.0711 40.5807C83.8226 39.5045 82.7487 38.8334 81.6725 39.0819Z" fill="#339C63"/>
<path fill-rule="evenodd" clip-rule="evenodd" d="M157.316 133.347L161.173 150.054C162.788 157.05 158.426 164.03 151.431 165.645L95.3413 178.595C88.3547 180.208 81.3813 175.859 79.7555 168.876L75.8623 152.152L157.316 133.347ZM121.108 152.108C118.418 152.729 116.74 155.414 117.361 158.104C117.982 160.795 120.667 162.473 123.358 161.852C126.048 161.23 127.726 158.546 127.105 155.855C126.484 153.164 123.799 151.487 121.108 152.108Z" fill="#339C63"/>
<path d="M123.358 161.851C126.048 161.23 127.726 158.545 127.105 155.855C126.484 153.164 123.799 151.486 121.108 152.108C118.418 152.729 116.74 155.414 117.361 158.104C117.982 160.795 120.667 162.473 123.358 161.851Z" stroke="white" stroke-width="2"/>
<path d="M145.9 111.8C156.89 111.8 165.8 102.89 165.8 91.9C165.8 80.9095 156.89 72 145.9 72C134.91 72 126 80.9095 126 91.9C126 102.89 134.91 111.8 145.9 111.8Z" fill="#339C63"/>
<path fill-rule="evenodd" clip-rule="evenodd" d="M81.2415 138.75C84.18 138.75 86.5728 141.028 86.5728 143.967L84.2145 168.457C84.2145 171.399 81.8218 173.75 78.8833 173.75H51.5418C48.6035 173.75 46.2118 171.447 46.2118 168.505L43.8535 143.987C43.8535 141.048 46.245 138.75 49.1835 138.75H81.2415ZM65.2098 151.377C63.0933 151.377 61.3743 153.025 61.3743 155.107L62.4243 163.75H68.003L69.05 155.086C69.05 153.003 67.3298 151.377 65.2098 151.377Z" fill="#339C63"/>
<path d="M103.127 116.249L103.577 118.198L87.7638 121.849L87.3139 119.9L103.127 116.249ZM122.771 97.329L123.221 99.2775L84.6149 108.208L84.1642 106.259L122.771 97.329ZM120.296 86.6109L120.747 88.5594L82.1404 97.4894L81.6897 95.5409L120.296 86.6109ZM117.597 74.9184L118.048 76.867L79.441 85.797L78.9903 83.8485L117.597 74.9184ZM91.8793 67.5308L92.3292 69.4796L76.5162 73.1303L76.0663 71.1815L91.8793 67.5308Z" fill="#339C63"/>
<path fill-rule="evenodd" clip-rule="evenodd" d="M65.21 150.376C67.8858 150.376 70.0502 152.453 70.0502 155.085L70.043 155.205L68.8897 164.749H61.5386L60.3818 155.227L60.3745 155.107C60.3745 152.473 62.5397 150.376 65.21 150.376ZM65.21 152.376C63.6496 152.376 62.4055 153.562 62.3751 155.051L63.3103 162.749H67.1168L68.0497 155.03C68.0194 153.547 66.7797 152.376 65.21 152.376Z" fill="white"/>
<path d="M146.5 97.9172C147.437 97.9172 148.129 98.5852 148.129 99.4523C148.129 100.331 147.437 100.999 146.5 100.999C145.562 100.999 144.871 100.331 144.871 99.4523C144.871 98.5852 145.562 97.9172 146.5 97.9172Z" fill="white"/>
<path d="M147.754 82.9172V95.6789H145.246V82.9172H147.754Z" fill="white"/>
<path fill-rule="evenodd" clip-rule="evenodd" d="M85.0454 40.3546C85.4181 41.969 84.4116 43.5798 82.7972 43.9526C81.1828 44.3253 79.5719 43.3187 79.1992 41.7043C78.8265 40.0899 79.8331 38.479 81.4475 38.1063C83.0619 37.7336 84.6727 38.7402 85.0454 40.3546ZM81.8974 40.0551C81.3592 40.1793 81.0237 40.7163 81.1479 41.2544C81.2722 41.7925 81.8091 42.1281 82.3473 42.0038C82.8854 41.8796 83.2209 41.3426 83.0967 40.8045C82.9725 40.2664 82.4355 39.9308 81.8974 40.0551Z" fill="white"/>
<path fill-rule="evenodd" clip-rule="evenodd" d="M111.353 34.2809C111.726 35.8953 110.72 37.5062 109.105 37.8789L91.5665 41.928C89.9521 42.3007 88.3412 41.2941 87.9685 39.6797C87.5958 38.0654 88.6024 36.4545 90.2168 36.0818L107.755 32.0327C109.37 31.66 110.981 32.6665 111.353 34.2809ZM108.205 33.9814L90.6667 38.0305C90.1286 38.1548 89.793 38.6917 89.9173 39.2298C90.0415 39.768 90.5785 40.1035 91.1166 39.9793L108.655 35.9301C109.193 35.8059 109.529 35.269 109.405 34.7308C109.28 34.1927 108.743 33.8572 108.205 33.9814Z" fill="white"/>
<path fill-rule="evenodd" clip-rule="evenodd" d="M134.634 30.5233L134.708 30.8274L144.002 71.0843C144.627 71.028 145.261 70.9992 145.9 70.9992C153.449 70.9992 160.063 75.0013 163.737 80.9994L170.5 80.9992C171.052 80.9992 171.5 81.4469 171.5 81.9992C171.5 82.5121 171.114 82.9347 170.617 82.9925L170.5 82.9992L164.817 82.9993C165.415 84.268 165.889 85.6066 166.223 86.9995L170.153 86.9992C170.705 86.9992 171.153 87.4469 171.153 87.9992C171.153 88.512 170.767 88.9347 170.269 88.9925L170.153 88.9992L166.601 88.9999C166.733 89.9476 166.801 90.9157 166.801 91.8997C166.801 100.83 161.2 108.452 153.319 111.445L162.164 149.756C163.882 157.196 159.289 164.68 151.923 166.553L151.619 166.627L95.6044 179.559C90.1442 180.819 84.5134 178.686 81.2052 174.314C80.5551 174.568 79.8514 174.719 79.1156 174.745L78.8835 174.749H51.542C48.1165 174.749 45.338 172.107 45.2204 168.824L45.2166 168.599L43.9104 154.999L41 154.999C40.4477 154.999 40 154.551 40 153.999C40 153.486 40.386 153.064 40.8834 153.006L41 152.999L43.7184 152.999L43.3344 148.999L38 148.999C37.4477 148.999 37 148.551 37 147.999C37 147.486 37.386 147.064 37.8834 147.006L38 146.999L43.1424 146.999L42.8537 143.986C42.8537 140.585 45.5559 137.872 48.9512 137.753L49.1837 137.749L52.9654 137.749L52.966 127.591C52.966 121.408 58.482 116.246 64.9146 116.088L65.2167 116.085C65.6577 116.085 66.0946 116.108 66.5262 116.154L51.2736 50.0903C49.5565 42.6527 54.1496 35.1642 61.5147 33.2916L61.8189 33.2178L117.833 20.2859C125.273 18.5683 132.762 23.1616 134.634 30.5233ZM156.598 134.538L86.9344 150.621L85.2147 168.456C85.2147 170.404 84.3316 172.138 82.9431 173.29C85.7357 176.839 90.3429 178.595 94.8514 177.676L95.1545 177.61L151.169 164.678C157.538 163.208 161.584 156.868 160.28 150.5L160.216 150.206L156.598 134.538ZM81.2417 139.749H49.1837C46.847 139.749 44.9706 141.511 44.8548 143.685L44.8491 143.89L47.212 168.504C47.212 170.801 49.0219 172.638 51.3307 172.744L51.542 172.749H78.8835C81.2101 172.749 83.1006 170.946 83.214 168.577L83.2193 168.361L85.573 143.966C85.573 141.608 83.6571 139.749 81.2417 139.749ZM134.424 38.4878L54.8867 56.8498L68.675 116.576C73.5629 117.989 77.3224 122.284 77.462 127.302L77.466 127.591L77.4654 137.749L81.2417 137.749C84.6705 137.749 87.4471 140.369 87.5645 143.825L87.5684 144.062L87.1374 148.521L156.148 132.589L151.411 112.066C149.655 112.545 147.808 112.8 145.9 112.8C134.357 112.8 125 103.443 125 91.8997C125 81.685 132.328 73.1818 142.013 71.36L134.424 38.4878ZM65.2167 118.085C59.8172 118.085 55.1275 122.309 54.9701 127.33L54.966 127.591L54.9654 137.749H75.4654L75.466 127.591C75.466 122.541 70.8709 118.233 65.4955 118.088L65.2167 118.085ZM145.9 72.9992C135.462 72.9992 127 81.4613 127 91.8997C127 102.338 135.462 110.8 145.9 110.8C156.339 110.8 164.801 102.338 164.801 91.8997C164.801 81.4613 156.339 72.9992 145.9 72.9992ZM118.577 22.1706L118.283 22.2346L62.2688 35.1665C55.9008 36.6367 51.8542 42.9808 53.1584 49.3466L53.2224 49.6404L54.4367 54.9028L133.974 36.5388L132.759 31.2773C131.289 24.9127 124.945 20.8659 118.577 22.1706Z" fill="white"/>
<path d="M34 146.999C34.5523 146.999 35 147.447 35 147.999C35 148.512 34.6139 148.935 34.1166 148.992L34 148.999H31.9604C31.4082 148.999 30.9604 148.551 30.9604 147.999C30.9604 147.486 31.3465 147.064 31.8438 147.006L31.9604 146.999H34Z" fill="white"/>
<path d="M177.188 80.9992C177.74 80.9992 178.188 81.4469 178.188 81.9992C178.188 82.5121 177.802 82.9347 177.304 82.9925L177.188 82.9992H175C174.448 82.9992 174 82.5515 174 81.9992C174 81.4864 174.386 81.0637 174.883 81.0059L175 80.9992H177.188Z" fill="white"/>
<path d="M51.1165 29.3717L51.5012 29.4605C52.0393 29.5847 52.3748 30.1217 52.2506 30.6598C52.1264 31.1979 51.5894 31.5335 51.0513 31.4092L50.6666 31.3204C47.1716 30.5135 43.6694 32.7335 42.8492 36.2865C42.3745 38.3426 42.8939 40.455 44.2072 42.0291C44.561 42.4532 44.5041 43.0838 44.08 43.4376C43.6559 43.7914 43.0253 43.7344 42.6715 43.3104C40.9605 41.2595 40.2838 38.5076 40.9004 35.8366C41.9679 31.2129 46.5396 28.315 51.1165 29.3717Z" fill="white"/>
<path d="M50.2378 33.1489C50.7759 33.2731 51.1114 33.8101 50.9872 34.3482C50.863 34.8864 50.326 35.2219 49.7879 35.0977C48.5264 34.8064 47.2677 35.593 46.9764 36.8544C46.8492 37.4057 46.9246 37.9691 47.1778 38.4579L47.2688 38.618C47.56 39.0872 47.4158 39.7037 46.9465 39.995C46.4773 40.2862 45.8608 40.142 45.5695 39.6727C44.9687 38.7047 44.7662 37.5371 45.0277 36.4045C45.5674 34.0668 47.9 32.6092 50.2378 33.1489Z" fill="white"/>
<path d="M162.973 171.54L163.358 171.628C167.935 172.685 172.506 169.787 173.574 165.163C174.19 162.492 173.514 159.741 171.803 157.69C171.449 157.266 170.818 157.209 170.394 157.562C169.97 157.916 169.913 158.547 170.267 158.971C171.58 160.545 172.1 162.657 171.625 164.713C170.805 168.266 167.302 170.486 163.807 169.68L163.423 169.591C162.885 169.467 162.348 169.802 162.224 170.34C162.099 170.878 162.435 171.415 162.973 171.54Z" fill="white"/>
<path d="M163.487 166.652C163.363 167.19 163.698 167.727 164.236 167.851C166.574 168.391 168.907 166.933 169.446 164.595C169.708 163.463 169.505 162.295 168.905 161.327C168.613 160.858 167.997 160.714 167.528 161.005C167.058 161.296 166.914 161.913 167.205 162.382L167.296 162.542C167.55 163.031 167.625 163.594 167.498 164.146C167.206 165.407 165.948 166.194 164.686 165.902C164.148 165.778 163.611 166.114 163.487 166.652Z" fill="white"/>
</g>
<defs>
<filter id="filter0_d" x="0" y="0" width="208" height="208" filterUnits="userSpaceOnUse" color-interpolation-filters="sRGB">
<feFlood flood-opacity="0" result="BackgroundImageFix"/>
<feColorMatrix in="SourceAlpha" type="matrix" values="0 0 0 0 0 0 0 0 0 0 0 0 0 0 0 0 0 0 127 0" result="hardAlpha"/>
<feOffset dy="4"/>
<feGaussianBlur stdDeviation="2"/>
<feColorMatrix type="matrix" values="0 0 0 0 0 0 0 0 0 0 0 0 0 0 0 0 0 0 0.25 0"/>
<feBlend mode="normal" in2="BackgroundImageFix" result="effect1_dropShadow"/>
<feBlend mode="normal" in="SourceGraphic" in2="effect1_dropShadow" result="shape"/>
</filter>
</defs>
</svg>
