<svg width="400" height="400" viewBox="0 0 400 400" fill="none" xmlns="http://www.w3.org/2000/svg">
<rect width="400" height="400" fill="white"/>
<path fill-rule="evenodd" clip-rule="evenodd" d="M68.9968 160.125L81.2707 158.844V274.021L68.9968 160.125Z" fill="#E4F2D2"/>
<path fill-rule="evenodd" clip-rule="evenodd" d="M79.9999 281.228L59.2067 160.125L282.582 119.096L285.46 136.101L68.9967 160.125L79.9999 281.228Z" fill="#E4F2D2"/>
<path fill-rule="evenodd" clip-rule="evenodd" d="M67.404 158.637L292.983 133.94L295.516 159.049L67.404 158.637Z" fill="#E4F2D2"/>
<path d="M80 158H306.821V283.736H80V158Z" fill="white"/>
<rect opacity="0.6" x="101.637" y="160" width="181.44" height="123" fill="url(#paint0_linear)" fill-opacity="0.3"/>
<path d="M130.055 229.117V225.45C134.748 224.728 138.206 221.935 138.206 217.128C138.206 213.138 134.995 210.915 130.055 210.098L128.801 209.889C125.723 209.376 123.386 209.015 123.424 207.362C123.462 205.842 125.267 205.12 127.87 205.12C130.815 205.12 133.418 206.203 135.242 207.267L137.921 202.441C135.546 201.149 133.247 200.237 130.055 199.895V196.418H125.286V199.895C120.498 200.579 117.211 203.467 117.116 207.742C117.021 212.131 120.061 214.43 125.305 215.247L126.635 215.456C130.055 215.988 131.917 216.425 131.879 217.983C131.841 219.579 129.979 220.32 127.509 220.32C124.336 220.32 121.505 219.256 119.111 217.679L116.128 222.467C118.484 224.196 121.79 225.241 125.286 225.545V229.117H130.055Z" fill="#009639"/>
<path d="M116.325 247.559H132.357" stroke="#009639" stroke-width="2.5" stroke-linecap="round"/>
<path d="M140.669 247.502H152.11" stroke="#009639" stroke-width="2.5" stroke-linecap="round"/>
<path d="M116.325 264.91H166.177" stroke="#009639" stroke-width="2.5" stroke-linecap="round"/>
<rect x="181.76" y="179" width="7.68" height="15" fill="#BBDE8F"/>
<rect x="181.76" y="201" width="7.68" height="18" fill="#BBDE8F"/>
<rect x="181.76" y="224" width="7.68" height="18" fill="#BBDE8F"/>
<rect x="181.76" y="249" width="7.68" height="15" fill="#BBDE8F"/>
<path fill-rule="evenodd" clip-rule="evenodd" d="M219.697 248.149C217.734 245.769 214.396 242.321 211.777 230.708C209.157 219.094 210.852 201.63 211.752 199.757C216.763 189.334 221.348 178.521 232.913 178.521L239.853 178.521C253.108 178.521 263.853 189.267 263.853 202.521V214.291C263.853 214.291 264.931 219.19 262.85 224.047C260.769 228.903 256.605 230.244 256.605 230.244L255.505 237.257C255.505 237.257 245.051 246.563 239.786 248.376C229.848 251.798 220.553 249.187 219.697 248.149Z" fill="white"/>
<path fill-rule="evenodd" clip-rule="evenodd" d="M212.588 197.487C212.588 197.487 220.139 191.523 227.172 191.523C234.205 191.523 239.331 191.644 243.02 191.644C246.71 191.644 243.334 196.451 244.537 200.014C245.739 203.577 245.411 203.117 247.79 207.016C250.17 210.915 254.64 215.532 256.34 215.532C258.039 215.532 259.319 214.343 259.319 214.343C259.319 214.343 263.205 214.524 264.94 210.003C266.675 205.482 263.853 216.162 263.853 214.291C263.853 212.421 266.974 205.971 263.158 197.487C259.342 189.002 261.338 185.304 247.901 180.385C234.464 175.466 221.448 181.416 217.018 185.209C212.588 189.002 212.588 197.487 212.588 197.487Z" fill="#E4F2D2"/>
<path fill-rule="evenodd" clip-rule="evenodd" d="M233.989 260.802L246.451 268.04L258.913 244.06L255.505 237.256C255.505 237.256 249.129 243.121 247.79 244.06C246.451 244.999 233.989 260.802 233.989 260.802Z" fill="white"/>
<path fill-rule="evenodd" clip-rule="evenodd" d="M226.251 264.909L224.461 256.624V250.865L227.592 251.481L233.206 260.802L226.251 264.909Z" fill="white"/>
<ellipse cx="303.492" cy="261.77" rx="21.1161" ry="21.9959" transform="rotate(64 303.492 261.77)" fill="#E4F2D2"/>
<path d="M305.6 176.908H314.741" stroke="#009639" stroke-width="2.5" stroke-linecap="round"/>
<path d="M68.9968 253.908H74.7415" stroke="#009639" stroke-width="2.5" stroke-linecap="round"/>
<path d="M71.8767 265.908H77.6214" stroke="#009639" stroke-width="2.5" stroke-linecap="round"/>
<path d="M64.1968 253.908H65.1415" stroke="#009639" stroke-width="2.5" stroke-linecap="round"/>
<path d="M305.6 186.908H312.837" stroke="#009639" stroke-width="2.5" stroke-linecap="round"/>
<path d="M318.597 176.908H321.477" stroke="#009639" stroke-width="2.5" stroke-linecap="round"/>
<path fill-rule="evenodd" clip-rule="evenodd" d="M102.117 298.25C102.117 302.254 99.0007 305.5 95.1568 305.5C91.3129 305.5 88.1968 302.254 88.1968 298.25C88.1968 294.246 91.3129 291 95.1568 291C99.0007 291 102.117 294.246 102.117 298.25ZM90.5968 298.25C90.5968 300.873 92.6384 303 95.1568 303C97.6752 303 99.7168 300.873 99.7168 298.25C99.7168 295.627 97.6752 293.5 95.1568 293.5C92.6384 293.5 90.5968 295.627 90.5968 298.25Z" fill="#CCEAD8"/>
<path fill-rule="evenodd" clip-rule="evenodd" d="M202.917 103.75C202.917 109.135 198.726 113.5 193.557 113.5C188.387 113.5 184.197 109.135 184.197 103.75C184.197 98.3652 188.387 94 193.557 94C198.726 94 202.917 98.3652 202.917 103.75ZM186.597 103.75C186.597 107.754 189.713 111 193.557 111C197.401 111 200.517 107.754 200.517 103.75C200.517 99.7459 197.401 96.5 193.557 96.5C189.713 96.5 186.597 99.7459 186.597 103.75Z" fill="#B2E0C4"/>
<path fill-rule="evenodd" clip-rule="evenodd" d="M115.466 118.915C115.911 119.073 116.34 119.279 116.747 119.53C117.317 119.883 117.506 120.649 117.168 121.243C116.83 121.837 116.094 122.033 115.523 121.681C114.841 121.259 114.067 121.035 113.26 121.035C110.771 121.035 108.742 123.181 108.724 125.849C108.769 125.981 108.794 126.122 108.794 126.27C108.794 126.96 108.257 127.52 107.594 127.52H102.837C102.174 127.52 101.637 126.96 101.637 126.27C101.637 125.579 102.174 125.02 102.837 125.02H106.372C106.769 121.433 109.604 118.629 113.084 118.537C114.058 114.195 117.771 111 122.157 111C126.557 111 130.274 114.213 131.237 118.567C133.544 118.827 135.401 120.658 135.838 123.02H138.314C138.977 123.02 139.514 123.579 139.514 124.27C139.514 124.96 138.977 125.52 138.314 125.52H133.557C132.894 125.52 132.357 124.96 132.357 124.27C132.357 123.649 132.791 123.134 133.361 123.036C132.958 121.866 131.902 121.035 130.67 121.035C130.228 121.035 129.803 121.14 129.416 121.342C128.823 121.65 128.103 121.399 127.807 120.781C127.511 120.163 127.752 119.413 128.345 119.105C128.506 119.021 128.671 118.946 128.839 118.88C128.038 115.766 125.335 113.5 122.157 113.5C118.971 113.5 116.257 115.781 115.466 118.915ZM97.0339 127.52H92.2767C91.6139 127.52 91.0767 126.96 91.0767 126.27C91.0767 125.579 91.6139 125.02 92.2767 125.02H97.0339C97.6967 125.02 98.2339 125.579 98.2339 126.27C98.2339 126.96 97.6967 127.52 97.0339 127.52Z" fill="#CCEAD8"/>
<path fill-rule="evenodd" clip-rule="evenodd" d="M259.681 296.68V292.25C259.681 291.56 260.218 291 260.881 291C261.544 291 262.081 291.56 262.081 292.25V296.68H266.511C267.201 296.68 267.761 297.217 267.761 297.88C267.761 298.542 267.201 299.08 266.511 299.08H262.081V303.509C262.081 304.2 261.544 304.759 260.881 304.759C260.218 304.759 259.681 304.2 259.681 303.509V299.08H255.251C254.561 299.08 254.001 298.542 254.001 297.88C254.001 297.217 254.561 296.68 255.251 296.68H259.681Z" fill="#B2E0C4"/>
<path fill-rule="evenodd" clip-rule="evenodd" d="M308.641 109.68V105.25C308.641 104.56 309.178 104 309.841 104C310.504 104 311.041 104.56 311.041 105.25V109.68H315.471C316.161 109.68 316.721 110.217 316.721 110.88C316.721 111.542 316.161 112.08 315.471 112.08H311.041V116.509C311.041 117.2 310.504 117.759 309.841 117.759C309.178 117.759 308.641 117.2 308.641 116.509V112.08H304.211C303.521 112.08 302.961 111.542 302.961 110.88C302.961 110.217 303.521 109.68 304.211 109.68H308.641Z" fill="#B2E0C4"/>
<path fill-rule="evenodd" clip-rule="evenodd" d="M212.616 201.379C212.623 201.34 212.631 201.301 212.638 201.264L212.68 201.292C214.991 197.815 218.896 194.945 222.453 194.105C226.795 193.08 232.063 192.841 236.298 192.867C238.404 192.88 240.235 192.959 241.537 193.034C241.847 193.052 242.126 193.069 242.373 193.086C242.367 193.208 242.361 193.338 242.355 193.475C242.315 194.503 242.309 195.938 242.441 197.57C242.703 200.798 243.523 204.961 245.866 208.239C248.064 211.316 250.085 213.418 251.821 214.764C252.952 215.642 254.026 216.248 254.991 216.553C254.647 217.207 254.334 217.946 254.094 218.771C253.519 220.746 253.342 223.33 253.526 225.583C253.618 226.715 253.805 227.814 254.105 228.746C254.343 229.488 254.697 230.265 255.248 230.83L254.315 236.779C252.472 239.373 247.705 243.915 239.329 247.212C235.072 248.887 231.292 249.391 228.587 249.479C227.234 249.522 226.152 249.462 225.417 249.392C225.049 249.357 224.769 249.32 224.584 249.292C224.492 249.278 224.424 249.267 224.382 249.26L224.376 249.259L224.321 249.242C224.246 249.219 224.133 249.182 223.992 249.133C223.707 249.034 223.312 248.884 222.874 248.681C221.967 248.263 221.007 247.68 220.41 246.966L220.368 247.001C220.341 246.969 220.315 246.938 220.288 246.905L220.287 246.905C219.36 245.795 218.259 244.48 217.083 242.298C215.741 239.808 214.287 236.154 212.996 230.432C211.721 224.779 211.486 217.633 211.694 211.623C211.797 208.627 212.009 205.94 212.249 203.896C212.37 202.872 212.496 202.021 212.616 201.379ZM218.788 248.899L218.733 248.945C218.619 248.807 218.499 248.663 218.373 248.513L218.373 248.513C217.434 247.392 216.184 245.899 214.883 243.484C213.41 240.751 211.886 236.874 210.557 230.983C209.213 225.023 208.985 217.629 209.195 211.536C209.301 208.48 209.518 205.724 209.767 203.604C209.891 202.545 210.025 201.634 210.159 200.918C210.284 200.253 210.432 199.619 210.626 199.215C210.867 198.714 211.108 198.21 211.35 197.703C213.59 193.014 215.894 188.19 218.9 184.448C222.286 180.233 226.653 177.271 232.913 177.271H239.853C253.798 177.271 265.103 188.576 265.103 202.521V214.168C265.11 214.203 265.117 214.245 265.126 214.293C265.154 214.455 265.192 214.685 265.229 214.974C265.302 215.551 265.377 216.367 265.382 217.341C265.392 219.283 265.128 221.905 263.999 224.539C262.852 227.215 261.125 228.933 259.68 229.979C258.959 230.501 258.307 230.858 257.826 231.087L257.775 231.111L257.731 231.132L256.802 237.055L259.862 243.164L272.508 250.397L271.267 252.567L258.961 245.529L246.98 269.794L234.027 262.27L234.015 262.285L233.99 262.249L233.633 262.041L225.326 268.154L223.448 257.335L218.299 261.237L216.789 259.245L223.211 254.378V251.509L223.169 251.494C222.826 251.374 222.353 251.195 221.826 250.951C220.904 250.525 219.711 249.858 218.788 248.899ZM257.204 243.44L255.276 239.59C253.801 241.291 251.583 243.314 248.557 245.288L235.679 260.339L245.923 266.289L257.204 243.44ZM256.828 228.793C257.187 228.617 257.674 228.345 258.214 227.954C259.372 227.116 260.767 225.734 261.701 223.554C262.653 221.332 262.891 219.077 262.882 217.354C262.877 216.497 262.812 215.785 262.749 215.292C262.717 215.045 262.686 214.855 262.664 214.73C262.653 214.667 262.644 214.621 262.638 214.592L262.632 214.56L262.632 214.559L262.631 214.558L262.603 214.427V202.521C262.603 189.957 252.417 179.771 239.853 179.771H232.913C227.608 179.771 223.9 182.216 220.849 186.013C218.857 188.494 217.184 191.501 215.571 194.731C217.545 193.27 219.73 192.179 221.879 191.672C226.513 190.578 232.018 190.341 236.313 190.367C238.472 190.381 240.345 190.461 241.681 190.538C242.345 190.576 242.877 190.614 243.245 190.642L246.914 187.033C247.406 186.549 248.197 186.555 248.681 187.047C249.166 187.539 249.159 188.331 248.667 188.815L244.915 192.506C244.895 192.761 244.871 193.124 244.853 193.572C244.816 194.525 244.81 195.857 244.933 197.368C245.181 200.425 245.946 204.051 247.9 206.786C249.998 209.722 251.858 211.629 253.353 212.789C254.892 213.983 255.908 214.281 256.34 214.281V214.52C256.411 214.433 256.481 214.35 256.55 214.27C256.982 213.771 257.379 213.393 257.675 213.136C257.824 213.008 257.947 212.909 258.037 212.839C258.082 212.804 258.119 212.777 258.146 212.757L258.181 212.732L258.192 212.724L258.197 212.721L258.199 212.719L258.199 212.719C258.2 212.718 258.2 212.718 258.913 213.745C259.626 214.772 259.627 214.771 259.627 214.771L259.622 214.775C259.611 214.783 259.592 214.797 259.564 214.818C259.51 214.861 259.424 214.929 259.314 215.024C259.095 215.215 258.784 215.508 258.441 215.905C257.754 216.699 256.955 217.888 256.494 219.47C256.024 221.085 255.852 223.352 256.018 225.38C256.1 226.388 256.261 227.286 256.485 227.981C256.602 228.347 256.722 228.61 256.828 228.793ZM226.845 251.982L232.345 259.885L227.099 263.746L225.693 255.648L225.668 255.653L225.711 255.62V251.925C226.048 251.949 226.427 251.97 226.845 251.982ZM223.807 251.48H223.808L224.087 250.476L223.807 251.48ZM223.886 251.48H223.887C223.92 251.312 223.979 251.015 224.084 250.491L223.886 251.48ZM240.244 249.538C240.992 249.244 241.714 248.939 242.41 248.627L234.219 258.201L229.846 251.917C232.652 251.723 236.259 251.107 240.244 249.538Z" fill="#009639"/>
<path fill-rule="evenodd" clip-rule="evenodd" d="M286.483 134.653L283.603 117.639L58.9807 158.896L57.7998 159.11L57.974 160.334L78.9344 284.159L81.3993 283.742L81.3982 283.736H300.04C297.41 283.33 294.931 282.469 292.686 281.236H102.397L104.548 281H82.4999V160.5H304.321V238.438C298.379 238.017 292.364 239.91 287.74 244.222L289.445 246.05C297.435 238.6 310.276 239.259 318.123 247.674C323.797 253.758 325.247 262.181 322.585 269.189L320.052 263.155L317.747 264.123L321.822 273.831L331.379 270.123L330.475 267.792L324.979 269.925C327.904 262.052 326.229 252.701 319.951 245.969C316.302 242.056 311.656 239.631 306.821 238.753V158H295.41L292.982 133.941L286.483 134.653ZM70.1398 160.854L79.9999 258.575V159.775L70.1398 160.854ZM292.897 158H96.208L290.748 136.701L292.897 158ZM283.993 134.926L281.561 120.556L84.2789 156.791L283.993 134.926ZM67.5276 159.868L60.6447 161.132L78.0007 263.665L67.5276 159.868ZM284.535 249.598L289.586 258.872L287.39 260.068L284.243 254.289C282.092 261.079 283.668 268.984 289.065 274.771C296.912 283.186 309.753 283.845 317.743 276.395L319.448 278.224C310.379 286.68 295.959 285.83 287.236 276.476C281.308 270.119 279.486 261.428 281.762 253.852L276.598 256.529L275.448 254.309L284.535 249.598ZM294.507 264.11C295.747 264.11 296.753 263.062 296.753 261.77C296.753 260.477 295.747 259.43 294.507 259.43C293.266 259.43 292.26 260.477 292.26 261.77C292.26 263.062 293.266 264.11 294.507 264.11ZM305.739 261.77C305.739 263.062 304.733 264.11 303.492 264.11C302.252 264.11 301.246 263.062 301.246 261.77C301.246 260.477 302.252 259.43 303.492 259.43C304.733 259.43 305.739 260.477 305.739 261.77ZM312.478 264.11C313.718 264.11 314.724 263.062 314.724 261.77C314.724 260.477 313.718 259.43 312.478 259.43C311.237 259.43 310.231 260.477 310.231 261.77C310.231 263.062 311.237 264.11 312.478 264.11Z" fill="#009639"/>
<defs>
<linearGradient id="paint0_linear" x1="294.008" y1="110.399" x2="-9.34301" y2="108.336" gradientUnits="userSpaceOnUse">
<stop stop-color="#78BE20" stop-opacity="0.953521"/>
<stop offset="0.721043" stop-color="white" stop-opacity="0.4"/>
<stop offset="0.852745" stop-color="white" stop-opacity="0.01"/>
<stop offset="1" stop-color="white" stop-opacity="0.01"/>
</linearGradient>
</defs>
</svg>
