<svg width="208" height="208" viewBox="0 0 208 208" fill="none" xmlns="http://www.w3.org/2000/svg">
<g filter="url(#filter0_d)">
<rect width="200" height="200" transform="translate(4)" fill="white"/>
<path fill-rule="evenodd" clip-rule="evenodd" d="M138 26C145.18 26 151 31.8203 151 39V45.4684H67.959V39C67.959 31.8203 73.7793 26 80.959 26H138ZM126 35.1787H108C106.895 35.1787 106 36.0742 106 37.1787C106 38.2833 106.895 39.1787 108 39.1787H126C127.105 39.1787 128 38.2833 128 37.1787C128 36.0742 127.105 35.1787 126 35.1787ZM99 35.1787C97.8954 35.1787 97 36.0742 97 37.1787C97 38.2833 97.8954 39.1787 99 39.1787C100.105 39.1787 101 38.2833 101 37.1787C101 36.0742 100.105 35.1787 99 35.1787Z" fill="#339C63"/>
<path d="M48.5 167.18C50.433 167.18 52 165.613 52 163.68C52 161.747 50.433 160.18 48.5 160.18C46.567 160.18 45 161.747 45 163.68C45 165.613 46.567 167.18 48.5 167.18ZM48.5 165.18C47.6716 165.18 47 164.508 47 163.68C47 162.851 47.6716 162.18 48.5 162.18C49.3284 162.18 50 162.851 50 163.68C50 164.508 49.3284 165.18 48.5 165.18ZM174.5 158.18C179.194 158.18 183 154.374 183 149.68C183 144.985 179.194 141.18 174.5 141.18C169.806 141.18 166 144.985 166 149.68C166 154.374 169.806 158.18 174.5 158.18ZM174.5 156.18C170.91 156.18 168 153.27 168 149.68C168 146.09 170.91 143.18 174.5 143.18C178.09 143.18 181 146.09 181 149.68C181 153.27 178.09 156.18 174.5 156.18Z" fill="#B2E0C4"/>
<path d="M166.727 31.4512C167.28 31.4512 167.727 31.8989 167.727 32.4512L167.727 34.1782L169.455 34.1784C169.967 34.1784 170.39 34.5645 170.448 35.0618L170.455 35.1784C170.455 35.7307 170.007 36.1784 169.455 36.1784L167.727 36.1782L167.727 37.9057C167.727 38.4186 167.341 38.8412 166.844 38.899L166.727 38.9057C166.175 38.9057 165.727 38.458 165.727 37.9057L165.727 36.1782L164 36.1784C163.487 36.1784 163.064 35.7924 163.007 35.2951L163 35.1784C163 34.6262 163.448 34.1784 164 34.1784L165.727 34.1782L165.727 32.4512C165.727 31.9383 166.113 31.5157 166.611 31.4579L166.727 31.4512Z" fill="#7FCB9C"/>
<path fill-rule="evenodd" clip-rule="evenodd" d="M151.5 144.045V161.191C151.5 168.371 145.68 174.191 138.5 174.191H80.959C73.7793 174.191 67.959 168.371 67.959 161.191V144.045H151.5ZM112 154.18C109.239 154.18 107 156.418 107 159.18C107 161.941 109.239 164.18 112 164.18C114.761 164.18 117 161.941 117 159.18C117 156.418 114.761 154.18 112 154.18Z" fill="#339C63"/>
<path d="M90 68.6797H106.229" stroke="#339C63" stroke-width="2"/>
<path d="M90 81.6869L128.767 81.6719" stroke="#339C63" stroke-width="2"/>
<path d="M47.3481 77.1797H67.3481" stroke="#339C63" stroke-width="2"/>
<path d="M47.3481 83.6857L67.3481 83.6797" stroke="#339C63" stroke-width="2"/>
<path d="M47.3481 90.6857L67.3481 90.6797" stroke="#339C63" stroke-width="2"/>
<path d="M90 93.6855L128 94.1796" stroke="#339C63" stroke-width="2"/>
<path d="M90 104.684L115.138 104.674" stroke="#339C63" stroke-width="2"/>
<path d="M150.9 115.98C161.89 115.98 170.8 107.07 170.8 96.0797C170.8 85.0892 161.89 76.1797 150.9 76.1797C139.91 76.1797 131 85.0892 131 96.0797C131 107.07 139.91 115.98 150.9 115.98Z" fill="#339C63"/>
<path d="M67.5 135.18C73.8513 135.18 79 130.031 79 123.68C79 117.328 73.8513 112.18 67.5 112.18C61.1487 112.18 56 117.328 56 123.68C56 130.031 61.1487 135.18 67.5 135.18Z" fill="#339C63"/>
<path d="M138.462 25C146.097 25 152.361 31.1603 152.529 38.7544L152.532 39.0673L152.533 75.2415C158.539 75.7056 163.834 78.7085 167.346 83.1785L174.5 83.1787C175.052 83.1787 175.5 83.6264 175.5 84.1787C175.5 84.6916 175.114 85.1142 174.617 85.172L174.5 85.1787L168.737 85.1789C169.684 86.7251 170.435 88.4038 170.957 90.1809L171 90.1787H178.5C179.052 90.1787 179.5 90.6264 179.5 91.1787C179.5 91.6916 179.114 92.1142 178.617 92.172L178.5 92.1787L171.438 92.1789C171.676 93.4425 171.801 94.7463 171.801 96.0792C171.801 107.073 163.313 116.084 152.533 116.917L152.532 161.124C152.532 168.76 146.374 175.019 138.775 175.187L138.462 175.19H80.9742C73.3366 175.19 67.075 169.034 66.9072 161.437L66.9037 161.124L66.903 151.678L64 151.679C63.4477 151.679 63 151.231 63 150.679C63 150.166 63.386 149.743 63.8834 149.685L64 149.679L66.903 149.678V145.178L59 145.179C58.4477 145.179 58 144.731 58 144.179C58 143.666 58.386 143.243 58.8834 143.185L59 143.179L66.903 143.178L66.9032 135.393C61.6215 135.038 57.299 131.204 56.2456 126.179L31 126.179C28.3112 126.179 26.1182 124.056 26.0046 121.396L26 121.179V90.1787C26 87.49 28.1223 85.2969 30.7831 85.1833L31 85.1787L38.999 85.178L39 66.1787L66.903 66.178L66.9037 39.0679C66.9037 31.4347 73.0637 25.1713 80.6612 25.0035L80.9742 25H138.462ZM150.532 145.043H68.903L68.9042 150.322C68.9465 150.433 68.9696 150.553 68.9696 150.679C68.9696 150.804 68.9465 150.925 68.9042 151.035L68.9037 161.124C68.9037 167.659 74.173 173.026 80.6733 173.187L80.9742 173.19H138.462C144.999 173.19 150.367 167.923 150.529 161.425L150.532 161.124L150.532 145.043ZM112 153.179C115.314 153.179 118 155.865 118 159.179C118 162.492 115.314 165.179 112 165.179C108.686 165.179 106 162.492 106 159.179C106 155.865 108.686 153.179 112 153.179ZM112 155.179C109.791 155.179 108 156.97 108 159.179C108 161.388 109.791 163.179 112 163.179C114.209 163.179 116 161.388 116 159.179C116 156.97 114.209 155.179 112 155.179ZM55 143.179C55.5523 143.179 56 143.626 56 144.179C56 144.692 55.614 145.114 55.1166 145.172L55 145.179H51.4159C50.8636 145.179 50.4159 144.731 50.4159 144.179C50.4159 143.666 50.802 143.243 51.2993 143.185L51.4159 143.179H55ZM47 143.179C47.5523 143.179 48 143.626 48 144.179C48 144.692 47.614 145.114 47.1166 145.172L47 145.179H46.4159C45.8636 145.179 45.4159 144.731 45.4159 144.179C45.4159 143.666 45.802 143.243 46.2993 143.185L46.4159 143.179H47ZM150.532 46.468H68.903V66.178L76.7627 66.1787L76.912 85.21L82.9844 85.1912C85.6731 85.1829 87.8728 87.2983 87.9947 89.9587L88 90.1756V121.214C88 123.884 85.8927 126.061 83.2508 126.174L83.0354 126.179H80.5288V124.179H83.0354C84.6142 124.179 85.9048 122.945 85.995 121.388L86 121.214L85.999 119.777L68.846 102.544L60.7408 108.667C58.695 110.212 55.4958 110.259 53.3715 108.811L53.1557 108.655L46.705 103.767L28.1383 122.082C28.5047 123.244 29.5591 124.1 30.8237 124.174L31 124.179L56.0061 124.179C56.0021 124.053 56 123.926 56 123.799C56 117.38 61.2427 112.179 67.7059 112.179C73.673 112.179 78.668 116.633 79.3383 122.496C79.713 126.39 77.5361 129.684 74.0955 129.684C72.7438 129.684 71.7601 129.138 71.1599 128.235L71.0519 128.062L70.8302 128.24C69.9951 128.88 68.9235 129.357 67.8012 129.57C65.0909 130.085 62.8619 128.891 62.5539 126.075C62.2319 123.132 64.3241 121.881 67.5155 121.917C68.4363 121.927 69.4082 122.04 70.3799 122.223C70.4119 122.229 70.4437 122.235 70.4754 122.241C70.4435 121.911 70.3568 121.525 70.1868 121.159C69.5666 119.824 68.0888 119.334 64.9909 120.371L64.7048 120.47L64.0381 118.584C68.2336 117.101 70.8872 117.919 72.0006 120.316C72.3433 121.054 72.4741 121.789 72.4861 122.411L72.4853 122.638L72.4848 125.56L72.48 125.56L72.4778 125.83C72.4812 126.063 72.5131 126.328 72.5851 126.583L72.6468 126.771C72.8729 127.375 73.2744 127.684 74.0955 127.684C76.1925 127.684 77.6204 125.524 77.3494 122.705C76.7965 117.871 72.6565 114.179 67.7059 114.179C62.3437 114.179 58 118.488 58 123.799C58 129.111 62.3437 133.42 67.7059 133.42C69.8 133.42 71.7909 132.762 73.4421 131.561C73.8887 131.236 74.5142 131.335 74.8391 131.781C75.164 132.228 75.0654 132.853 74.6188 133.178C72.9462 134.395 70.9832 135.15 68.9037 135.36L68.903 143.043H150.532L150.532 116.977C139.159 116.78 130 107.499 130 96.0792C130 84.6592 139.159 75.3783 150.532 75.1819L150.532 46.468ZM67.4934 123.917C65.3321 123.893 64.3887 124.457 64.542 125.858C64.7065 127.362 65.7543 127.923 67.4281 127.605C68.9469 127.317 70.2926 126.337 70.4722 125.568L70.484 125.495V124.283L70.4238 124.271L70.0108 124.189C69.1447 124.026 68.2837 123.925 67.4934 123.917ZM28.0502 89.6291C28.0282 89.7479 28.0132 89.8691 28.0057 89.9924L28 90.1787V119.407L45.095 102.546L28.0502 89.6291ZM85.9472 89.6282L70.457 101.327L85.999 116.942L86 90.1912L85.9943 90.0056C85.9865 89.8775 85.9706 89.7515 85.9472 89.6282ZM150.9 77.1787C140.462 77.1787 132 85.6408 132 96.0792C132 106.518 140.462 114.98 150.9 114.98C161.339 114.98 169.801 106.518 169.801 96.0792C169.801 85.6408 161.339 77.1787 150.9 77.1787ZM74.7785 68.1787H41V96.8413L40.877 96.841L54.3636 107.061C55.7103 108.082 57.9383 108.128 59.3553 107.198L59.5353 107.071L74.994 95.394L74.7785 68.1787ZM151.5 102.097C152.438 102.097 153.129 102.765 153.129 103.632C153.129 104.511 152.438 105.179 151.5 105.179C150.562 105.179 149.871 104.511 149.871 103.632C149.871 102.765 150.562 102.097 151.5 102.097ZM152.754 87.0967V99.8584H150.246V87.0967H152.754ZM38.999 87.178L31 87.1787C30.2615 87.1787 29.5854 87.4456 29.0627 87.8881L38.999 95.418V87.178ZM82.9906 87.1913L76.928 87.21L76.981 93.893L84.9271 87.892C84.4035 87.4527 83.7277 87.189 82.9906 87.1913ZM180.795 83.1787C181.347 83.1787 181.795 83.6264 181.795 84.1787C181.795 84.6916 181.408 85.1142 180.911 85.172L180.795 85.1787H178C177.448 85.1787 177 84.731 177 84.1787C177 83.6659 177.386 83.2432 177.883 83.1855L178 83.1787H180.795ZM138.462 27H80.9742C74.4387 27 69.0687 32.2712 68.9074 38.7672L68.9037 39.0679L68.903 44.468H150.532L150.532 39.0673C150.532 32.5353 145.261 27.165 138.763 27.0037L138.462 27ZM126 34.1787C127.657 34.1787 129 35.5219 129 37.1787C129 38.8356 127.657 40.1787 126 40.1787H108C106.343 40.1787 105 38.8356 105 37.1787C105 35.5219 106.343 34.1787 108 34.1787H126ZM99 34.1787C100.657 34.1787 102 35.5219 102 37.1787C102 38.8356 100.657 40.1787 99 40.1787C97.3431 40.1787 96 38.8356 96 37.1787C96 35.5219 97.3431 34.1787 99 34.1787ZM126 36.1787H108C107.448 36.1787 107 36.6264 107 37.1787C107 37.731 107.448 38.1787 108 38.1787H126C126.552 38.1787 127 37.731 127 37.1787C127 36.6264 126.552 36.1787 126 36.1787ZM99 36.1787C98.4477 36.1787 98 36.6264 98 37.1787C98 37.731 98.4477 38.1787 99 38.1787C99.5523 38.1787 100 37.731 100 37.1787C100 36.6264 99.5523 36.1787 99 36.1787Z" fill="white"/>
</g>
<defs>
<filter id="filter0_d" x="0" y="0" width="208" height="208" filterUnits="userSpaceOnUse" color-interpolation-filters="sRGB">
<feFlood flood-opacity="0" result="BackgroundImageFix"/>
<feColorMatrix in="SourceAlpha" type="matrix" values="0 0 0 0 0 0 0 0 0 0 0 0 0 0 0 0 0 0 127 0" result="hardAlpha"/>
<feOffset dy="4"/>
<feGaussianBlur stdDeviation="2"/>
<feColorMatrix type="matrix" values="0 0 0 0 0 0 0 0 0 0 0 0 0 0 0 0 0 0 0.25 0"/>
<feBlend mode="normal" in2="BackgroundImageFix" result="effect1_dropShadow"/>
<feBlend mode="normal" in="SourceGraphic" in2="effect1_dropShadow" result="shape"/>
</filter>
</defs>
</svg>
