<svg width="300" height="300" viewBox="0 0 300 300" fill="none" xmlns="http://www.w3.org/2000/svg">
<rect width="300" height="300" fill="white"/>
<path d="M230.848 212.3V214.3H178.776V212.3H230.848ZM218.848 202.7V204.7H178.578V202.7H218.848ZM230.848 185.7V187.7H178.611V185.7H230.848ZM218.848 175.1V177.1H178.714V175.1H218.848Z" fill="#BBDE8F"/>
<path d="M212.248 224.4H181.648C179.66 224.4 178.048 226.012 178.048 228C178.048 229.989 179.66 231.6 181.648 231.6H212.248C214.236 231.6 215.848 229.989 215.848 228C215.848 226.012 214.236 224.4 212.248 224.4Z" fill="#BBDE8F"/>
<path d="M178.648 152.4H71.248V171H178.648V152.4Z" fill="#BBDE8F"/>
<path d="M250.648 138H143.248V156.6H250.648V138Z" fill="#BBDE8F"/>
<path d="M170.848 147.257L237.448 147" stroke="white" stroke-width="8" stroke-linecap="round"/>
<path d="M151.648 149.999C152.974 149.999 154.048 148.925 154.048 147.599C154.048 146.274 152.974 145.199 151.648 145.199C150.323 145.199 149.248 146.274 149.248 147.599C149.248 148.925 150.323 149.999 151.648 149.999Z" fill="#78BE20"/>
<path d="M160.048 149.999C161.373 149.999 162.448 148.925 162.448 147.599C162.448 146.274 161.373 145.199 160.048 145.199C158.722 145.199 157.648 146.274 157.648 147.599C157.648 148.925 158.722 149.999 160.048 149.999Z" fill="#E4F2D2"/>
<path d="M184.948 104.4V110.4" stroke="white" stroke-width="2" stroke-linecap="round"/>
<path d="M187.948 107.4H181.948" stroke="white" stroke-width="2" stroke-linecap="round"/>
<path d="M122.848 133.801V141.601" stroke="white" stroke-width="2" stroke-linecap="round"/>
<path d="M126.448 137.699H118.648" stroke="white" stroke-width="2" stroke-linecap="round"/>
<path d="M45.2001 90C45.7129 90 46.1356 90.386 46.1933 90.8834L46.2001 91V93.899L49.1 93.9C49.6523 93.9 50.1 94.3477 50.1 94.9C50.1 95.4128 49.714 95.8355 49.2167 95.8933L49.1 95.9L46.2001 95.899V98.8C46.2001 99.3523 45.7523 99.8 45.2001 99.8C44.6872 99.8 44.2645 99.414 44.2068 98.9166L44.2001 98.8V95.899L41.3 95.9C40.7478 95.9 40.3 95.4523 40.3 94.9C40.3 94.3872 40.6861 93.9645 41.1834 93.9067L41.3 93.9L44.2001 93.899V91C44.2001 90.4477 44.6478 90 45.2001 90Z" fill="#7FCB9C"/>
<path d="M186.508 56C187.02 56 187.443 56.386 187.501 56.8834L187.508 57V58.699L189.208 58.7C189.76 58.7 190.208 59.1477 190.208 59.7C190.208 60.2128 189.822 60.6355 189.324 60.6933L189.208 60.7L187.508 60.699V62.4C187.508 62.9523 187.06 63.4 186.508 63.4C185.995 63.4 185.572 63.014 185.514 62.5166L185.508 62.4V60.699L183.808 60.7C183.255 60.7 182.808 60.2523 182.808 59.7C182.808 59.1872 183.194 58.7645 183.691 58.7067L183.808 58.7L185.508 58.699V57C185.508 56.4477 185.955 56 186.508 56Z" fill="#CCEAD8"/>
<path d="M154.115 202.467V204.467L121.782 204.466V241.759H159.074L159.074 213.572H161.074V243.759H119.782V202.467H154.115ZM137.671 234.926V236.926H126.671V234.926H137.671ZM153.047 234.926V236.926H143.023V234.926H153.047ZM137.671 229.801V231.801H126.671V229.801H137.671ZM153.047 229.801V231.801H143.023V229.801H153.047ZM138.845 214.426V226.676H126.594V214.426H138.845ZM153.047 224.675V226.675H143.023V224.675H153.047ZM134.417 185.119L134.581 200.948L132.581 200.969L132.437 187.118H95.1348V224.411L118.264 224.412V226.412H93.1353V185.119H134.417ZM136.844 216.425H128.594V224.675H136.844V216.425ZM153.047 219.55V221.55H143.023V219.55H153.047ZM108.608 207.328C109.65 207.328 110.495 208.173 110.495 209.215V215.983C110.495 217.025 109.65 217.87 108.608 217.87H101.84C100.798 217.87 99.9532 217.025 99.9532 215.983V209.215C99.9532 208.173 100.798 207.328 101.84 207.328H108.608ZM153.047 214.425V216.425H143.023V214.425H153.047ZM108.495 209.327H101.953V215.869H108.495V209.327ZM119 212.453V214.453H114.691V212.453H119ZM153.049 209.3V211.3H126.472V209.3H153.049ZM118.924 209.036V211.036H114.691V209.036H118.924ZM108.608 191.952C109.65 191.952 110.495 192.797 110.495 193.839V200.607C110.495 201.649 109.65 202.494 108.608 202.494H101.84C100.798 202.494 99.9532 201.649 99.9532 200.607V193.839C99.9532 192.796 100.798 191.952 101.84 191.952H108.608ZM108.495 193.951H101.953V200.493H108.495V193.951ZM126.472 197.077V199.077H114.691V197.077H126.472ZM126.472 193.66V195.66H114.691V193.66H126.472Z" fill="#BBDE8F"/>
<path d="M168.256 205.474L155.253 195.496L157.526 211.981L160.84 209.108L163.281 213.609L167.413 210.84L164.426 206.995L168.256 205.474ZM162.146 207.321L164.517 210.372L163.991 210.724L162.146 207.321ZM157.899 200.047L164.244 204.916L161.446 206.028L161.413 205.967L161.251 206.105L161.214 206.121L161.222 206.13L159.003 208.053L157.899 200.047Z" fill="#BBDE8F"/>
<path fill-rule="evenodd" clip-rule="evenodd" d="M215.454 88.2031C220.433 94.1714 219.911 99.9618 213.89 105.574C210.592 108.648 207.062 109.606 204.805 109.89C200.762 110.4 197.524 109.139 195.09 106.108C201.288 106.56 206.455 104.812 210.592 100.865C214.729 96.9171 216.349 92.6966 215.454 88.2031Z" fill="#E4F2D2"/>
<path fill-rule="evenodd" clip-rule="evenodd" d="M206.702 98.7578C210.708 95.7231 212.176 90.8888 209.981 87.96C207.785 85.0312 202.758 85.117 198.752 88.1517C194.746 91.1863 193.279 96.0206 195.474 98.9494C197.669 101.878 202.697 101.792 206.702 98.7578Z" fill="#E4F2D2"/>
<path d="M98.8481 161.657L165.448 161.4" stroke="white" stroke-width="8" stroke-linecap="round"/>
<path d="M79.648 164.4C80.9735 164.4 82.048 163.325 82.048 162C82.048 160.674 80.9735 159.6 79.648 159.6C78.3226 159.6 77.248 160.674 77.248 162C77.248 163.325 78.3226 164.4 79.648 164.4Z" fill="#78BE20"/>
<path d="M88.0479 164.4C89.3734 164.4 90.4479 163.325 90.4479 162C90.4479 160.674 89.3734 159.6 88.0479 159.6C86.7225 159.6 85.6479 160.674 85.6479 162C85.6479 163.325 86.7225 164.4 88.0479 164.4Z" fill="#E4F2D2"/>
<path d="M78.698 259.473H85.206" stroke="#009639" stroke-width="2" stroke-linecap="round"/>
<path d="M121.78 257.393H126.036" stroke="#009639" stroke-width="2" stroke-linecap="round"/>
<path fill-rule="evenodd" clip-rule="evenodd" d="M133.354 107.498V125.799H97.1421V120.399L127.783 120.174L128 107.498H133.354Z" fill="#E4F2D2"/>
<path fill-rule="evenodd" clip-rule="evenodd" d="M116.691 86.2031C111.712 92.1714 112.234 97.9618 118.255 103.574C121.553 106.648 125.083 107.606 127.34 107.89C131.383 108.4 134.621 107.139 137.055 104.108C130.857 104.56 125.69 102.812 121.553 98.8647C117.416 94.9171 115.796 90.6966 116.691 86.2031Z" fill="#E4F2D2"/>
<path fill-rule="evenodd" clip-rule="evenodd" d="M125.443 96.7578C121.437 93.7231 119.969 88.8888 122.164 85.96C124.36 83.0312 129.387 83.117 133.393 86.1517C137.399 89.1863 138.866 94.0206 136.671 96.9494C134.476 99.8782 129.448 99.7924 125.443 96.7578Z" fill="#E4F2D2"/>
<path d="M247.877 79C244.404 79 241.47 81.435 240.709 84.7344C238.621 84.9609 237 86.7517 237 88.9207C237 89.4439 237.424 89.8681 237.947 89.8681C238.47 89.8681 238.894 89.4439 238.894 88.9207C238.894 87.6384 239.911 86.605 241.157 86.605C241.506 86.605 241.841 86.6851 242.147 86.8375C242.615 87.0711 243.184 86.881 243.417 86.4128C243.651 85.9447 243.461 85.3758 242.993 85.1422C242.866 85.0789 242.736 85.0223 242.604 84.9726C243.234 82.6127 245.369 80.8947 247.877 80.8947C250.393 80.8947 252.536 82.6235 253.16 84.9993C252.808 85.1184 252.469 85.2746 252.148 85.465C251.698 85.7318 251.55 86.3129 251.816 86.7629C252.083 87.213 252.664 87.3616 253.114 87.0948C253.653 86.7753 254.264 86.605 254.901 86.605C256.866 86.605 258.468 88.2322 258.482 90.2543C258.446 90.3542 258.427 90.4611 258.427 90.5724C258.427 91.0956 258.851 91.5198 259.374 91.5198H263.13C263.653 91.5198 264.077 91.0956 264.077 90.5724C264.077 90.0492 263.653 89.6251 263.13 89.6251L260.339 89.6256C260.026 86.9068 257.787 84.7814 255.04 84.7121C254.271 81.4214 251.34 79 247.877 79Z" fill="#CCEAD8"/>
<path d="M146.2 28C149.673 28 152.607 30.435 153.368 33.7344C155.456 33.9609 157.077 35.7517 157.077 37.9207C157.077 38.4439 156.653 38.8681 156.13 38.8681C155.607 38.8681 155.183 38.4439 155.183 37.9207C155.183 36.6384 154.166 35.605 152.92 35.605C152.571 35.605 152.236 35.6851 151.93 35.8375C151.462 36.0711 150.893 35.881 150.66 35.4128C150.426 34.9447 150.616 34.3758 151.084 34.1422C151.211 34.0789 151.341 34.0223 151.473 33.9726C150.843 31.6127 148.708 29.8947 146.2 29.8947C143.684 29.8947 141.541 31.6235 140.918 33.9993C141.269 34.1184 141.608 34.2746 141.929 34.465C142.379 34.7318 142.528 35.3129 142.261 35.7629C141.994 36.213 141.413 36.3616 140.963 36.0948C140.424 35.7753 139.813 35.605 139.176 35.605C137.211 35.605 135.609 37.2322 135.595 39.2543C135.631 39.3542 135.65 39.461 135.65 39.5724C135.65 40.0956 135.226 40.5198 134.703 40.5198H130.947C130.424 40.5198 130 40.0956 130 39.5724C130 39.0492 130.424 38.6251 130.947 38.6251L133.738 38.6256C134.051 35.9067 136.29 33.7814 139.037 33.7121C139.806 30.4214 142.737 28 146.2 28Z" fill="#CCEAD8"/>
<path d="M162.5 108C160.015 108 158 110.015 158 112.5C158 114.985 160.015 117 162.5 117C164.985 117 167 114.985 167 112.5C167 110.015 164.985 108 162.5 108ZM162.5 110C163.881 110 165 111.119 165 112.5C165 113.881 163.881 115 162.5 115C161.119 115 160 113.881 160 112.5C160 111.119 161.119 110 162.5 110Z" fill="#99D5B0"/>
<path fill-rule="evenodd" clip-rule="evenodd" d="M265.641 184.014H235V178C235 176.895 235.895 176 237 176H241.018L242.789 178.593H263.641C264.745 178.593 265.641 179.489 265.641 180.593V184.014ZM241.965 161.52C251.335 161.52 258.93 154.016 258.93 144.76C258.93 135.504 251.335 128 241.965 128C232.595 128 225 135.504 225 144.76C225 147.47 225.651 150.03 226.808 152.296C227.083 152.835 227.795 153.831 228.945 155.283C229.22 155.768 229.572 156.221 230.001 156.642C233.069 159.657 237.297 161.52 241.965 161.52Z" fill="#E4F2D2"/>
<path fill-rule="evenodd" clip-rule="evenodd" d="M210.781 87.3605C208.204 83.9231 202.551 84.0196 198.148 87.3548C193.748 90.6882 192.1 96.1161 194.674 99.5495C197.25 102.987 202.903 102.89 207.306 99.5552C211.706 96.2218 213.354 90.7939 210.781 87.3605ZM199.356 88.949C202.965 86.215 207.366 86.1399 209.18 88.5601C210.998 90.9843 209.71 95.225 206.099 97.9609C202.489 100.695 198.088 100.77 196.274 98.3499C194.457 95.9256 195.744 91.685 199.356 88.949Z" fill="#009639"/>
<path fill-rule="evenodd" clip-rule="evenodd" d="M213.933 83.9739C209.866 79.745 202.063 80.0588 195.906 84.7074C189.379 89.6344 187.017 97.6823 190.822 102.749L190.802 102.767L194.343 106.922L194.52 107.152C198.378 111.963 206.612 111.835 213.049 106.957C216.582 104.28 218.798 100.65 219.443 97.0676L227 97.0677L227.117 97.0609C227.614 97.0032 228 96.5805 228 96.0677C228 95.5154 227.552 95.0677 227 95.0677L219.637 95.0672C219.648 94.263 219.575 93.471 219.414 92.703L222.455 92.7034L222.571 92.6967C223.068 92.6389 223.455 92.2162 223.455 91.7034C223.455 91.1511 223.007 90.7034 222.455 90.7034L218.769 90.7034C218.483 90.0632 218.126 89.4507 217.694 88.8743L217.438 88.535L218.682 88.5352L218.798 88.5284C219.296 88.4707 219.682 88.048 219.682 87.5352C219.682 86.9829 219.234 86.5352 218.682 86.5352L215.929 86.535L214.885 85.151C214.803 85.0294 214.717 84.9094 214.628 84.791C214.533 84.6644 214.435 84.5411 214.334 84.4209L213.973 83.9435L213.933 83.9739ZM201.882 106.293C202.871 106.111 203.87 105.83 204.862 105.451L206.635 108.063C205.56 108.394 204.491 108.591 203.458 108.658L201.882 106.293ZM196.393 106.256L196.378 106.239C197.414 106.476 198.511 106.576 199.642 106.539L200.983 108.552C199.16 108.263 197.56 107.496 196.393 106.256ZM206.717 104.621C207.461 104.238 208.194 103.799 208.908 103.303L210.912 106.022C210.142 106.532 209.352 106.969 208.556 107.332L206.717 104.621ZM210.492 102.08C211.306 101.385 212.043 100.639 212.701 99.8584L214.837 102.421C214.175 103.271 213.399 104.081 212.515 104.825L210.492 102.08ZM197.111 86.3036C202.686 82.0946 209.582 81.9349 212.769 85.6677L213.249 86.3026C215.985 90.3992 213.934 97.0223 208.344 101.243C202.611 105.571 195.482 105.617 192.425 101.553C189.367 97.4876 191.377 90.6321 197.111 86.3036ZM213.934 98.2124C214.316 97.6364 214.656 97.0477 214.955 96.4514L216.899 98.7867C216.657 99.4283 216.357 100.066 215.999 100.691L213.934 98.2124ZM216.454 90.7249L216.457 90.6049C217.501 92.2821 217.838 94.315 217.524 96.4129L215.815 94.3613C216.211 93.1437 216.429 91.9183 216.454 90.7249Z" fill="#009639"/>
<path d="M227.938 91.7034C227.938 91.1511 227.49 90.7034 226.938 90.7034H225.636L225.52 90.7101C225.022 90.7679 224.636 91.1906 224.636 91.7034C224.636 92.2557 225.084 92.7034 225.636 92.7034H226.938L227.054 92.6967C227.552 92.6389 227.938 92.2162 227.938 91.7034Z" fill="#009639"/>
<path d="M134.354 126.8V110.5H132.354L132.353 124.799H98.142L98.142 122.363H96.142V126.8H134.354Z" fill="#009639"/>
<path d="M111.585 99.8005V97.8005H90.571L90.571 106.237L86 106.238L85.8833 106.245C85.386 106.302 85 106.725 85 107.238C85 107.79 85.4477 108.238 86 108.238L90.571 108.237V111.018L87.1142 111.019L86.9976 111.026C86.5002 111.084 86.1142 111.506 86.1142 112.019C86.1142 112.571 86.5619 113.019 87.1142 113.019L90.571 113.018L90.571 121.175H128.783V110.87H126.783L126.782 119.175H92.571L92.57 112.035L92.571 112.019L92.5709 112.002L92.57 107.254L92.571 107.238L92.5709 107.221L92.571 99.8005H111.585Z" fill="#009639"/>
<path d="M102.713 115.832V113.832H96.0278V115.832H102.713Z" fill="#009639"/>
<path d="M107.17 115.832V113.832H104.941V115.832H107.17Z" fill="#009639"/>
<path d="M99.3705 111.613V109.613H96.0278V111.613H99.3705Z" fill="#009639"/>
<path fill-rule="evenodd" clip-rule="evenodd" d="M137.472 97.5495C140.045 94.1161 138.397 88.6882 133.997 85.3548C129.594 82.0196 123.941 81.9231 121.365 85.3605C118.791 88.7939 120.439 94.2218 124.839 97.5552C129.242 100.89 134.895 100.987 137.472 97.5495ZM126.047 95.9609C122.435 93.225 121.148 88.9843 122.965 86.5601C124.779 84.1399 129.18 84.215 132.789 86.949C136.401 89.685 137.689 93.9256 135.871 96.3499C134.057 98.7701 129.656 98.6949 126.047 95.9609Z" fill="#009639"/>
<path fill-rule="evenodd" clip-rule="evenodd" d="M141.321 100.753C145.13 95.6865 142.768 87.6357 136.24 82.7074C130.08 78.0577 122.275 77.7448 118.21 81.9769L118.166 81.9435L117.733 82.5151C117.66 82.6053 117.588 82.6973 117.517 82.791C117.45 82.8803 117.385 82.9705 117.321 83.0616L116.209 84.535L112.464 84.5352L112.347 84.5419C111.85 84.5997 111.464 85.0223 111.464 85.5352C111.464 86.048 111.85 86.4707 112.347 86.5284L112.464 86.5352L114.7 86.535L114.445 86.8743L114.271 87.1142C113.916 87.6197 113.616 88.1513 113.369 88.7034L109.691 88.7034L109.574 88.7101C109.077 88.7679 108.691 89.1906 108.691 89.7034C108.691 90.2162 109.077 90.6389 109.574 90.6967L109.691 90.7034L112.725 90.703C112.564 91.471 112.49 92.263 112.501 93.0672L107.145 93.0677L107.029 93.0744C106.531 93.1322 106.145 93.5548 106.145 94.0677C106.145 94.5805 106.531 95.0032 107.029 95.0609L107.145 95.0677L112.696 95.0676C113.34 98.6501 115.557 102.28 119.09 104.957C125.527 109.835 133.761 109.963 137.618 105.152L137.796 104.922L141.336 100.767L141.321 100.753ZM125.508 106.065L127.283 103.451C128.275 103.83 129.275 104.111 130.264 104.293L128.687 106.658C127.654 106.592 126.584 106.395 125.508 106.065ZM135.551 104.287L135.759 104.241C134.593 105.488 132.99 106.26 131.163 106.551L132.503 104.539C133.556 104.573 134.579 104.49 135.551 104.287ZM121.231 104.025L123.237 101.303C123.951 101.799 124.685 102.238 125.429 102.621L123.587 105.334C122.791 104.971 122.002 104.535 121.231 104.025ZM117.305 100.426L119.445 97.8584C120.102 98.6394 120.84 99.3849 121.653 100.08L119.628 102.828C118.743 102.084 117.968 101.276 117.305 100.426ZM118.944 84.232L119.311 83.7458C122.467 79.9329 129.421 80.0655 135.035 84.3036C140.768 88.6321 142.779 95.4876 139.721 99.5531C136.664 103.617 129.535 103.571 123.802 99.2428C118.179 94.9979 116.137 88.3228 118.944 84.232ZM115.241 96.7917L117.191 94.4524C117.489 95.0483 117.83 95.6367 118.212 96.2124L116.143 98.6969C115.785 98.0715 115.484 97.4337 115.241 96.7917ZM115.603 88.7342L115.689 88.5936C115.701 89.8283 115.92 91.099 116.33 92.3613L114.615 94.4199C114.308 92.3732 114.62 90.3879 115.603 88.7342Z" fill="#009639"/>
<path d="M105.898 88.7101L105.782 88.7034H104.827L104.711 88.7101C104.213 88.7679 103.827 89.1906 103.827 89.7034C103.827 90.2162 104.213 90.6389 104.711 90.6967L104.827 90.7034H105.782L105.898 90.6967C106.396 90.6389 106.782 90.2162 106.782 89.7034C106.782 89.1906 106.396 88.7679 105.898 88.7101Z" fill="#009639"/>
<path d="M76.9315 259.473C76.9315 258.92 76.4838 258.473 75.9315 258.473H73.525L73.4084 258.479C72.911 258.537 72.525 258.96 72.525 259.473C72.525 260.025 72.9727 260.473 73.525 260.473H75.9315L76.0482 260.466C76.5455 260.408 76.9315 259.985 76.9315 259.473Z" fill="#009639"/>
<path d="M71.5263 259.473C71.5263 258.92 71.0786 258.473 70.5263 258.473H68.8631L68.7465 258.479C68.2492 258.537 67.8631 258.96 67.8631 259.473C67.8631 260.025 68.3108 260.473 68.8631 260.473H70.5263L70.6429 260.466C71.1402 260.408 71.5263 259.985 71.5263 259.473Z" fill="#009639"/>
<path d="M72.2489 222.132L72.2482 211.197H70.2482L70.2486 219.215C68.3909 214.544 63.892 211.28 58.6831 211.28C52.5913 211.28 47.479 215.742 46.413 221.686C43.0756 221.875 40.4012 224.635 40.0455 228.12L35.8718 228.12L35.7552 228.127C35.2579 228.184 34.8718 228.607 34.8718 229.12C34.8718 229.672 35.3195 230.12 35.8718 230.12H42.3801L42.4967 230.113C42.9941 230.055 43.3801 229.633 43.3801 229.12C43.3801 228.568 42.9324 228.12 42.3801 228.12L42.0595 228.119C42.4089 225.592 44.4036 223.675 46.7798 223.675C47.5079 223.675 48.2114 223.854 48.8526 224.194C49.3405 224.452 49.9458 224.266 50.2045 223.778C50.4632 223.291 50.2774 222.685 49.7894 222.427C49.3496 222.193 48.8878 222.012 48.4098 221.888C49.367 216.955 53.629 213.28 58.6831 213.28C63.9009 213.28 68.2818 217.2 69.0399 222.384C68.2189 222.596 67.4319 222.919 66.6975 223.346C66.22 223.623 66.0579 224.235 66.3354 224.713C66.6129 225.19 67.2249 225.352 67.7024 225.075C68.806 224.433 70.0597 224.091 71.3656 224.091C75.4015 224.091 78.6736 227.366 78.6736 231.407C78.6736 231.959 79.1214 232.407 79.6736 232.407C80.2259 232.407 80.6736 231.959 80.6736 231.407L80.6712 231.285C87.8082 232.212 93.5756 237.574 94.8433 244.527L94.8907 244.806C93.739 246.29 92.9234 248.044 92.5596 249.958C92.42 249.952 92.2799 249.949 92.1394 249.949C86.9985 249.949 82.8314 254.12 82.8314 259.265C82.8314 259.817 83.2791 260.265 83.8314 260.265C84.3837 260.265 84.8314 259.817 84.8314 259.265C84.8314 255.224 88.1035 251.949 92.1394 251.949C93.4454 251.949 94.6991 252.291 95.8026 252.933C96.2801 253.21 96.8921 253.048 97.1696 252.571C97.4472 252.093 97.285 251.481 96.8075 251.204C96.095 250.789 95.3328 250.473 94.5383 250.261C95.4769 245.515 99.7479 241.97 104.821 241.97C109.859 241.97 114.1 245.465 115.08 250.152C114.618 250.268 114.169 250.433 113.741 250.645C113.246 250.89 113.043 251.49 113.288 251.985C113.533 252.48 114.133 252.683 114.628 252.438C115.275 252.117 115.987 251.949 116.726 251.949C119.361 251.949 121.5 254.106 121.5 256.77C121.5 257.322 121.948 257.77 122.5 257.77C123.052 257.77 123.5 257.322 123.5 256.77C123.5 253.125 120.659 250.145 117.082 249.959C115.996 244.243 110.889 239.97 104.821 239.97C101.668 239.97 98.7724 241.124 96.5669 243.038C94.7115 235.615 88.2513 230.046 80.421 229.242C79.5119 225.419 76.2486 222.509 72.2489 222.132Z" fill="#009639"/>
<path d="M242.564 143.716L242.565 138.062H240.565L240.564 143.716L234.797 143.717V145.717L240.564 145.716L240.565 151.372H242.565L242.564 145.716L248.333 145.717V143.717L242.564 143.716Z" fill="#009639"/>
<path fill-rule="evenodd" clip-rule="evenodd" d="M259.93 145.159C259.93 135.348 251.884 127.399 241.965 127.399C232.046 127.399 224 135.348 224 145.159C224 149.196 225.362 152.918 227.657 155.9L179.648 155.9L179.648 151.4H70.2482V176.661H72.2482L72.2478 171.7H177.648L177.648 256.399L125.872 256.4V258.4H179.648L179.648 258.399L185.548 258.4L185.665 258.394C186.162 258.336 186.548 257.913 186.548 257.4C186.548 256.848 186.1 256.4 185.548 256.4L179.648 256.399V157.9L229.45 157.901C232.685 161.007 237.1 162.919 241.965 162.919C251.884 162.919 259.93 154.971 259.93 145.159ZM72.248 153.399H177.648L177.648 169.7H72.2478L72.248 153.399ZM226 145.159C226 136.458 233.145 129.4 241.965 129.4C250.785 129.4 257.93 136.458 257.93 145.159C257.93 153.861 250.785 160.919 241.965 160.919C233.145 160.919 226 153.861 226 145.159Z" fill="#009639"/>
<path d="M190.686 257.4C190.686 256.848 190.238 256.4 189.686 256.4H188.211L188.094 256.407C187.597 256.465 187.211 256.888 187.211 257.4C187.211 257.953 187.659 258.4 188.211 258.4H189.686L189.803 258.394C190.3 258.336 190.686 257.913 190.686 257.4Z" fill="#009639"/>
<path d="M251.648 218.252V207.532H249.648V219.18C248.309 220.09 247.308 221.461 246.874 223.066C241.456 223.704 237.015 227.502 235.559 232.547C234.004 231.332 232.038 230.607 229.904 230.607C225.552 230.607 221.893 233.621 221.014 237.667C218.687 237.894 216.828 239.702 216.492 242H181.321V244H217.551V243.741C218.05 243.685 218.438 243.261 218.438 242.747C218.438 241.025 219.821 239.643 221.51 239.643C221.996 239.643 222.453 239.756 222.859 239.957C223.354 240.202 223.953 239.999 224.198 239.504C224.443 239.009 224.241 238.409 223.746 238.164C223.513 238.049 223.271 237.952 223.02 237.873C223.783 234.86 226.564 232.607 229.904 232.607C233.272 232.607 236.073 234.9 236.807 237.952C236.314 238.105 235.845 238.313 235.407 238.567C234.929 238.845 234.767 239.457 235.045 239.934C235.322 240.412 235.934 240.574 236.412 240.296C237.127 239.881 237.957 239.643 238.847 239.643C241.24 239.643 243.23 241.376 243.631 243.658C243.128 243.709 242.735 244.135 242.735 244.652C242.735 245.205 243.182 245.652 243.735 245.652H248.324C248.876 245.652 249.324 245.205 249.324 244.652C249.324 244.1 248.876 243.652 248.324 243.652H245.652C245.232 240.265 242.346 237.643 238.847 237.643L238.788 237.643C238.512 236.387 237.967 235.232 237.218 234.236C238.039 229.565 241.842 225.867 246.668 225.112C246.778 225.544 247.17 225.864 247.637 225.864C248.189 225.864 248.637 225.416 248.637 224.864C248.637 222.177 250.812 220 253.495 220C254.384 220 255.214 220.238 255.929 220.654C256.407 220.931 257.019 220.769 257.297 220.292C257.574 219.814 257.412 219.202 256.934 218.925C255.922 218.336 254.746 218 253.495 218C252.855 218 252.236 218.088 251.648 218.252Z" fill="#009639"/>
<path fill-rule="evenodd" clip-rule="evenodd" d="M77.072 194.021C77.072 190.593 74.2931 187.814 70.8653 187.814C67.4374 187.814 64.6586 190.593 64.6586 194.021C64.6586 197.449 67.4374 200.227 70.8653 200.227C74.2931 200.227 77.072 197.449 77.072 194.021ZM66.6586 194.021C66.6586 191.697 68.542 189.814 70.8653 189.814C73.1886 189.814 75.072 191.697 75.072 194.021C75.072 196.344 73.1886 198.227 70.8653 198.227C68.542 198.227 66.6586 196.344 66.6586 194.021Z" fill="#009639"/>
<path fill-rule="evenodd" clip-rule="evenodd" d="M73.6942 179.212L72.9382 179.108C71.5308 178.914 70.1908 178.914 68.7811 179.109L68.0258 179.214L67.5148 183.121L67.3276 183.179C66.7636 183.363 66.2161 183.59 65.6891 183.859L65.5218 183.948L62.3955 181.547L61.7874 182.007C60.6769 182.848 59.6869 183.838 58.8472 184.949L58.3875 185.557L60.7908 188.682L60.7002 188.852C60.4317 189.378 60.2047 189.926 60.0212 190.489L59.9658 190.673L56.0576 191.186L55.9532 191.941C55.7575 193.357 55.7593 194.698 55.9532 196.1L56.0577 196.856L59.9658 197.366L60.0214 197.553C60.2049 198.116 60.432 198.663 60.7005 199.19L60.7908 199.358L58.3877 202.484L58.8474 203.092C59.6869 204.203 60.6768 205.193 61.7875 206.034L62.3956 206.494L65.5218 204.091L65.6893 204.182C66.2163 204.451 66.7638 204.679 67.3278 204.862L67.5148 204.919L68.0258 208.827L68.7811 208.932C70.1908 209.127 71.5308 209.127 72.9382 208.933L73.6942 208.829L74.2058 204.922L74.3926 204.866C74.9575 204.682 75.5058 204.455 76.0338 204.186L76.2038 204.094L79.3297 206.498L79.9378 206.038C81.0449 205.201 82.0496 204.193 82.8777 203.099L83.3379 202.491L80.9368 199.365L81.0271 199.196C81.2967 198.668 81.5247 198.119 81.7088 197.554L81.7668 197.364L85.6729 196.854L85.7774 196.099C85.9689 194.713 85.9654 193.303 85.7774 191.943L85.673 191.187L81.7668 190.675L81.7088 190.487C81.5247 189.922 81.2967 189.373 81.0271 188.845L80.9368 188.674L83.338 185.55L82.8777 184.942C82.0379 183.832 81.0296 182.829 79.9377 182.003L79.3297 181.543L76.2038 183.945L76.0338 183.855C75.5058 183.586 74.9575 183.359 74.3926 183.175L74.2058 183.117L73.6942 179.212ZM69.8088 181.008L69.9652 180.994C70.5655 180.952 71.1567 180.952 71.7566 180.994L71.9128 181.007L72.3976 184.717L73.0665 184.877C74.0228 185.107 74.9304 185.484 75.7657 185.995L76.3521 186.354L79.3208 184.073L79.427 184.164C79.8804 184.559 80.3115 184.989 80.7103 185.445L80.8078 185.559L78.527 188.528L78.8867 189.114C79.399 189.95 79.7771 190.858 80.0074 191.815L80.1681 192.484L83.8768 192.968L83.8884 193.109C83.9297 193.709 83.9303 194.315 83.8893 194.92L83.8768 195.071L80.1682 195.558L80.0074 196.226C79.7771 197.183 79.399 198.091 78.8867 198.927L78.527 199.514L80.8078 202.48L80.7164 202.589C80.3207 203.043 79.8902 203.473 79.434 203.871L79.3208 203.966L76.3521 201.687L75.7657 202.046C74.9304 202.557 74.0228 202.934 73.0665 203.164L72.3976 203.324L71.9128 207.033L71.7566 207.047C71.1567 207.089 70.5655 207.089 69.9652 207.047L69.8088 207.032L69.3225 203.322L68.6546 203.161C67.6998 202.931 66.7935 202.553 65.9598 202.042L65.3733 201.683L62.4058 203.963L62.2915 203.868C61.8365 203.471 61.4094 203.044 61.0133 202.589L60.9178 202.474L63.1989 199.506L62.8398 198.92C62.3298 198.087 61.9531 197.181 61.7235 196.227L61.5627 195.559L57.8538 195.072L57.8391 194.92C57.7966 194.321 57.7963 193.73 57.8387 193.128L57.8528 192.967L61.5627 192.482L61.7235 191.814C61.953 190.86 62.3296 189.955 62.8398 189.121L63.1985 188.534L60.9168 185.566L61.0132 185.452C61.4094 184.997 61.8365 184.57 62.2914 184.173L62.4058 184.076L65.3731 186.358L65.9596 185.999C66.7933 185.488 67.6996 185.11 68.6544 184.88L69.3223 184.719L69.8088 181.008Z" fill="#009639"/>
<path fill-rule="evenodd" clip-rule="evenodd" d="M251.648 177.719L251.648 163.323H249.648L249.648 177.719L243.453 177.719L241.536 175H236.261L236.106 175.006C234.929 175.086 234 176.07 234 177.268V202.68L234.005 202.835C234.085 204.013 235.064 204.947 236.261 204.947H264.38L264.535 204.942C265.711 204.862 266.641 203.878 266.641 202.681V179.988L266.635 179.833L266.62 179.681C266.47 178.575 265.525 177.72 264.38 177.72L251.648 177.719ZM235.999 186.014H264.64L264.641 202.681L264.634 202.742C264.606 202.859 264.502 202.947 264.38 202.947H236.261L236.202 202.94C236.087 202.912 236 202.807 236 202.68L235.999 186.014ZM236.261 177L240.498 176.999L242.416 179.72H264.38L264.439 179.727C264.553 179.755 264.641 179.861 264.641 179.988L264.64 184.014H235.999L236 177.268L236.007 177.207C236.034 177.088 236.139 177 236.261 177Z" fill="#009639"/>
<path fill-rule="evenodd" clip-rule="evenodd" d="M55.6126 174.23C55.6126 171.809 53.6505 169.847 51.2302 169.847C48.8099 169.847 46.8479 171.809 46.8479 174.23C46.8479 176.65 48.8099 178.612 51.2302 178.612C53.6505 178.612 55.6126 176.65 55.6126 174.23ZM48.8479 174.23C48.8479 172.914 49.9145 171.847 51.2302 171.847C52.546 171.847 53.6126 172.914 53.6126 174.23C53.6126 175.545 52.546 176.612 51.2302 176.612C49.9145 176.612 48.8479 175.545 48.8479 174.23Z" fill="#009639"/>
<path fill-rule="evenodd" clip-rule="evenodd" d="M50.6342 165.741L49.2069 163.242L48.4678 163.432C47.4499 163.694 46.531 164.07 45.6207 164.599L44.9614 164.982L45.6982 167.764L45.6505 167.804C45.3641 168.053 45.0952 168.32 44.8453 168.605L44.8092 168.648L42.0303 167.889L41.6419 168.546C41.1169 169.433 40.7165 170.389 40.4529 171.385L40.2579 172.122L42.7482 173.569L42.7423 173.628C42.7152 174.005 42.7134 174.384 42.7371 174.762L42.7422 174.821L40.2417 176.249L40.4313 176.988C40.6939 178.011 41.0717 178.93 41.5973 179.836L41.9802 180.496L44.7642 179.759L44.8018 179.806C45.0501 180.092 45.317 180.361 45.6007 180.611L45.6452 180.647L44.8854 183.427L45.5414 183.815C46.4279 184.34 47.3838 184.741 48.38 185.006L49.1173 185.201L50.5662 182.711L50.6224 182.717C50.9998 182.745 51.3789 182.747 51.7575 182.723L51.8192 182.717L53.2461 185.219L53.9848 185.03C55.0046 184.768 55.9236 184.392 56.8324 183.865L57.4926 183.482L56.7572 180.698L56.8039 180.66C57.0908 180.412 57.3602 180.144 57.6107 179.86L57.6492 179.814L60.4276 180.573L60.8161 179.918C61.3409 179.031 61.7459 178.06 62.0058 177.08L62.2013 176.343L59.7122 174.894L59.7179 174.836C59.7452 174.458 59.7472 174.078 59.7235 173.698L59.7192 173.635L62.2185 172.209L62.0288 171.47C61.7714 170.467 61.3737 169.503 60.8636 168.624L60.4806 167.964L57.6982 168.699L57.6578 168.652C57.4087 168.365 57.1408 168.095 56.856 167.845L56.8112 167.806L57.5698 165.029L56.9134 164.641C56.0256 164.115 55.054 163.711 54.0756 163.452L53.3387 163.257L51.8912 165.746L51.8313 165.741C51.4532 165.714 51.0737 165.713 50.6946 165.737L50.6342 165.741ZM47.9284 165.7L48.2422 165.585L49.5631 167.9L50.243 167.795C50.9153 167.692 51.5954 167.695 52.2647 167.804L52.9433 167.914L54.2842 165.609L54.5887 165.723C54.7013 165.768 54.8132 165.815 54.9243 165.864L55.2302 166.005L54.5272 168.577L55.0824 168.983C55.6297 169.384 56.11 169.866 56.5081 170.419L56.9101 170.977L59.4852 170.295L59.6201 170.592C59.6681 170.703 59.714 170.815 59.7578 170.928L59.8742 171.244L57.5605 172.565L57.6649 173.245C57.7684 173.918 57.7644 174.599 57.6554 175.269L57.5449 175.948L59.8482 177.287L59.734 177.593C59.6894 177.706 59.6426 177.818 59.5935 177.929L59.4522 178.232L56.8804 177.531L56.4738 178.085C56.0725 178.632 55.5901 179.112 55.0382 179.509L54.48 179.911L55.1612 182.486L54.8578 182.626C54.7483 182.674 54.638 182.719 54.5267 182.762L54.2122 182.875L52.8901 180.561L52.2109 180.665C51.5388 180.768 50.8595 180.764 50.1917 180.655L49.5126 180.544L48.1722 182.848L47.8606 182.732C47.7484 182.688 47.637 182.641 47.5266 182.592L47.2262 182.45L47.9279 179.88L47.3738 179.473C46.8285 179.073 46.3498 178.591 45.9529 178.041L45.5508 177.483L42.9742 178.163L42.8359 177.863L42.7002 177.531L42.5852 177.213L44.8998 175.893L44.7954 175.213C44.6923 174.542 44.6961 173.864 44.8043 173.196L44.9142 172.517L42.6092 171.175L42.7258 170.865C42.7703 170.753 42.8169 170.641 42.8657 170.531L43.0072 170.229L45.5778 170.932L45.9843 170.377C46.3842 169.831 46.8657 169.352 47.4168 168.954L47.9741 168.552L47.2932 165.974L47.5974 165.835C47.7068 165.788 47.8171 165.743 47.9284 165.7Z" fill="#009639"/>
<path d="M221.177 139V137H142.248V149.066H144.248L144.248 139H221.177Z" fill="#009639"/>
<path d="M254.972 244.652C254.972 244.1 254.524 243.652 253.972 243.652H252.275C251.723 243.652 251.275 244.1 251.275 244.652C251.275 245.205 251.723 245.652 252.275 245.652H253.972C254.524 245.652 254.972 245.205 254.972 244.652Z" fill="#009639"/>
</svg>
