<svg width="208" height="208" viewBox="0 0 208 208" fill="none" xmlns="http://www.w3.org/2000/svg">
<g filter="url(#filter0_d)">
<rect width="200" height="200" transform="translate(4)" fill="white"/>
<path d="M154.667 126.334V128.334H118.667V126.334H154.667ZM161.333 115.667V117.667H118.667V115.667H161.333ZM158.667 105.001V107.001H118.667V105.001H158.667ZM154.667 94.334V96.334H118.667V94.334H154.667Z" fill="#339C63"/>
<path d="M75.0552 157.824H78.3532" stroke="white" stroke-width="2" stroke-linecap="round"/>
<path d="M119.138 76.4336H35.8818V90.8526H119.138V76.4336Z" fill="#339C63"/>
<path d="M174.952 65.2715H91.6958V79.6905H174.952V65.2715Z" fill="#339C63"/>
<path d="M113.092 72.447L164.72 72.248" stroke="white" stroke-width="2" stroke-linecap="round"/>
<path d="M98.2081 74.5735C99.2354 74.5735 100.068 73.7408 100.068 72.7135C100.068 71.6863 99.2354 70.8535 98.2081 70.8535C97.1809 70.8535 96.3481 71.6863 96.3481 72.7135C96.3481 73.7408 97.1809 74.5735 98.2081 74.5735Z" fill="#339C63"/>
<path d="M104.72 74.5735C105.747 74.5735 106.58 73.7408 106.58 72.7135C106.58 71.6863 105.747 70.8535 104.72 70.8535C103.693 70.8535 102.86 71.6863 102.86 72.7135C102.86 73.7408 103.693 74.5735 104.72 74.5735Z" fill="#339C63"/>
<path d="M101.94 111.559V113.559L78.3002 113.559V142.809H107.55L107.551 123.005H109.551V144.809H76.3005V111.559H101.94ZM102.962 134.631V136.631H94.9896V134.631H102.962ZM89.3992 129.298V131.298H81.4273V129.298H89.3992ZM102.962 129.145V131.145H94.9896V129.145H102.962ZM88.3467 97.7617L88.4798 109.553L86.4799 109.575L86.3682 99.7617H57.1072V129.012L74.2977 129.012V131.012H55.1079V97.7617H88.3467ZM101.63 122.327V124.327H81.4285V122.327H101.63ZM67.6184 115.425C68.5107 115.425 69.243 116.11 69.3176 116.983L69.3239 117.13V122.513C69.3239 123.405 68.6385 124.138 67.7656 124.212L67.6184 124.218H62.2359C61.3436 124.218 60.6112 123.533 60.5366 122.66L60.5304 122.513V117.13C60.5304 116.238 61.2158 115.506 62.0888 115.431L62.2359 115.425H67.6184ZM67.3232 117.425H62.5302V122.218H67.3232V117.425ZM74.8232 116.784V118.784H72.4564V116.784H74.8232ZM67.6183 103.196C68.5106 103.196 69.243 103.881 69.3176 104.754L69.3239 104.901V110.284C69.3239 111.176 68.6385 111.908 67.7656 111.983L67.6184 111.989H62.2359C61.3436 111.989 60.6112 111.304 60.5366 110.431L60.5304 110.284V104.901C60.5304 104.009 61.2157 103.277 62.0888 103.202L62.2359 103.196H67.6183ZM67.3232 105.196H62.5302V109.989H67.3232V105.196ZM81.8264 104.554V106.554H72.4564V104.554H81.8264Z" fill="#339C63"/>
<path d="M114.966 114.142L104.775 106.322L106.557 119.241L109.172 116.974L111.116 120.559L114.321 118.412L111.938 115.345L114.966 114.142ZM111.65 118.395L109.895 115.16L112.149 118.061L111.65 118.395ZM106.761 109.735L111.957 113.724L109.62 114.653L109.601 114.618L107.665 116.295L106.761 109.735Z" fill="#339C63"/>
<path d="M57.2778 83.6092L108.906 83.4102" stroke="white" stroke-width="2" stroke-linecap="round"/>
<path d="M42.3942 85.7356C43.4214 85.7356 44.2542 84.9029 44.2542 83.8756C44.2542 82.8484 43.4214 82.0156 42.3942 82.0156C41.3669 82.0156 40.5342 82.8484 40.5342 83.8756C40.5342 84.9029 41.3669 85.7356 42.3942 85.7356Z" fill="#339C63"/>
<path d="M48.9059 85.7356C49.9331 85.7356 50.7659 84.9029 50.7659 83.8756C50.7659 82.8484 49.9331 82.0156 48.9059 82.0156C47.8786 82.0156 47.0459 82.8484 47.0459 83.8756C47.0459 84.9029 47.8786 85.7356 48.9059 85.7356Z" fill="#339C63"/>
<path d="M61.8462 52V65.333" stroke="#7FCB9C" stroke-width="2" stroke-linecap="round"/>
<path d="M68.5132 58.668H55.1802" stroke="#7FCB9C" stroke-width="2" stroke-linecap="round"/>
<path d="M152 37.332V46.932" stroke="#CCEAD8" stroke-width="2" stroke-linecap="round"/>
<path d="M156.8 42.1328H147.2" stroke="#CCEAD8" stroke-width="2" stroke-linecap="round"/>
<path d="M39.333 33.334C41.1738 33.334 42.666 31.8417 42.666 30.001C42.666 28.1602 41.1738 26.668 39.333 26.668C37.4922 26.668 36 28.1602 36 30.001C36 31.8417 37.4922 33.334 39.333 33.334Z" stroke="#E5F5EB" stroke-width="2"/>
<path d="M112.667 26.666C116.717 26.666 120 23.3829 120 19.333C120 15.2831 116.717 12 112.667 12C108.617 12 105.334 15.2831 105.334 19.333C105.334 23.3829 108.617 26.666 112.667 26.666Z" stroke="#E5F5EB" stroke-width="2"/>
<path fill-rule="evenodd" clip-rule="evenodd" d="M171.632 85.8624C180.818 85.8624 188.265 78.5059 188.265 69.4312C188.265 60.3565 180.818 53 171.632 53C162.447 53 155 60.3565 155 69.4312C155 72.0885 155.638 74.5984 156.772 76.8195C157.042 77.3477 157.74 78.3241 158.868 79.7485C159.138 80.2237 159.483 80.6678 159.903 81.0809C162.91 84.0361 167.055 85.8624 171.632 85.8624Z" fill="#339C63"/>
<path d="M36.4121 157C36.9644 157 37.4121 157.448 37.4121 158C37.4121 158.513 37.0261 158.936 36.5287 158.993L36.4121 159H34.5466C33.9943 159 33.5466 158.552 33.5466 158C33.5466 157.487 33.9326 157.065 34.43 157.007L34.5466 157H36.4121ZM30.6716 157C31.2239 157 31.6716 157.448 31.6716 158C31.6716 158.513 31.2855 158.936 30.7882 158.993L30.6716 159H29.3823C28.83 159 28.3823 158.552 28.3823 158C28.3823 157.487 28.7684 157.065 29.2657 157.007L29.3823 157H30.6716ZM43.0702 135.783C49.108 136.424 54.0731 140.659 55.6362 146.296C57.3477 144.916 59.536 144.093 61.9074 144.093C66.6589 144.093 70.6687 147.398 71.599 151.847C74.4079 152.084 76.6127 154.454 76.6127 157.341C76.6127 157.893 76.1649 158.341 75.6127 158.341C75.0604 158.341 74.6127 157.893 74.6127 157.341C74.6127 155.399 73.0544 153.828 71.1363 153.828C70.5988 153.828 70.0806 153.951 69.6098 154.184C69.1148 154.429 68.515 154.226 68.27 153.731C68.0251 153.236 68.2278 152.636 68.7228 152.391C69.003 152.253 69.294 152.139 69.5931 152.05C68.7772 148.625 65.6321 146.093 61.9074 146.093C58.1548 146.093 54.9854 148.665 54.1996 152.138C54.7617 152.303 55.301 152.536 55.8087 152.831C56.2862 153.109 56.4484 153.721 56.1709 154.198C55.8933 154.676 55.2813 154.838 54.8038 154.561C53.9824 154.083 53.0495 153.828 52.0771 153.828C49.8517 153.828 47.9383 155.166 47.0956 157.082C47.453 157.233 47.7027 157.588 47.7027 158C47.7027 158.513 47.3167 158.936 46.8193 158.993L46.7027 159H41.6575C41.1052 159 40.6575 158.552 40.6575 158C40.6575 157.487 41.0436 157.065 41.5409 157.007L41.6575 157L44.9904 157C45.951 154 48.7605 151.828 52.0771 151.828C52.1249 151.828 52.1726 151.829 52.2203 151.83C52.5177 150.416 53.1269 149.119 53.9717 148.007L53.974 148.023L53.9451 147.853C52.9702 142.601 48.6051 138.518 43.168 137.809L42.8591 137.772L43.0702 135.783ZM78.2265 158.83V156.83L118.138 156.829L118.137 91.6196H36.8823L36.8824 95.2408H34.8824V75.4342H120.138L120.137 78.9216L156.055 78.9221C154.589 76.4352 153.727 73.5567 153.67 70.4834L153.667 70.1558C153.667 68.8205 153.819 67.5203 154.106 66.2713L92.696 66.2711L92.6963 75.1825H90.6963V64.2714L154.697 64.2711C157.139 57.5385 163.652 52.7246 171.299 52.7246C181.034 52.7246 188.931 60.5261 188.931 70.1558C188.931 78.1926 183.431 84.9559 175.952 86.9736L175.951 124.541C177.444 122.022 180.188 120.333 183.326 120.333C184.855 120.333 186.329 120.736 187.624 121.488C188.101 121.766 188.263 122.378 187.986 122.856C187.708 123.333 187.096 123.495 186.619 123.218C185.627 122.641 184.5 122.333 183.326 122.333C179.941 122.333 177.153 124.897 176.796 128.192L176.797 130.184C176.42 130.199 176.082 130.227 175.809 130.269C169.479 131.24 164.459 136.06 163.332 142.192L163.278 142.499L163.297 142.394C164.34 143.738 165.082 145.322 165.423 147.052L165.734 147.046C170.194 147.046 173.857 150.455 174.265 154.811L177.965 154.811L178.081 154.817C178.579 154.875 178.965 155.298 178.965 155.811C178.965 156.324 178.579 156.746 178.081 156.804L177.965 156.811H172.036L171.919 156.804C171.422 156.746 171.036 156.324 171.036 155.811C171.036 155.298 171.422 154.875 171.919 154.817L172.036 154.811L172.254 154.811C171.855 151.561 169.088 149.046 165.734 149.046C164.56 149.046 163.434 149.353 162.442 149.93C161.964 150.207 161.352 150.045 161.075 149.568C160.797 149.09 160.959 148.478 161.437 148.201C162.068 147.834 162.742 147.55 163.444 147.355C162.566 143.115 158.731 139.955 154.18 139.955C149.663 139.955 145.857 143.067 144.938 147.254C145.338 147.36 145.725 147.506 146.095 147.689C146.59 147.934 146.793 148.534 146.548 149.029C146.303 149.524 145.703 149.727 145.208 149.482C144.631 149.196 143.995 149.046 143.336 149.046C141.095 149.046 139.254 150.795 139.088 153.02C139.419 153.183 139.646 153.523 139.646 153.917C139.646 154.43 139.26 154.852 138.762 154.91L138.646 154.917H134.769L134.652 154.91C134.155 154.852 133.769 154.43 133.769 153.917C133.769 153.404 134.155 152.981 134.652 152.923L134.769 152.917L137.09 152.917C137.246 150.6 138.646 148.625 140.623 147.666L120.137 147.667L120.138 156.829L124.487 156.83C125.039 156.83 125.487 157.277 125.487 157.83C125.487 158.342 125.101 158.765 124.604 158.823L124.487 158.83H78.2265ZM187.152 154.811L187.268 154.817C187.766 154.875 188.152 155.298 188.152 155.811C188.152 156.324 187.766 156.746 187.268 156.804L187.152 156.811H184.959L184.843 156.804C184.345 156.746 183.959 156.324 183.959 155.811C183.959 155.298 184.345 154.875 184.843 154.817L184.959 154.811H187.152ZM120.137 80.9216V145.667L143.306 145.667C144.821 141.167 149.14 137.955 154.18 137.955C157.012 137.955 159.618 138.969 161.626 140.657C163.167 134.749 167.919 130.105 173.951 128.604L173.952 87.391C173.087 87.5201 172.201 87.587 171.299 87.587C165.672 87.587 160.66 84.981 157.431 80.9221L120.137 80.9216ZM38.3051 99.1638L39.061 99.268L39.6406 103.688L39.8277 103.745C40.5354 103.968 41.2205 104.252 41.8769 104.594L42.0476 104.685L45.5845 101.967L46.1926 102.427C47.423 103.357 48.5594 104.488 49.5057 105.738L49.966 106.346L47.2486 109.883L47.3399 110.053C47.6824 110.71 47.9673 111.395 48.1912 112.104L48.2476 112.292L52.6688 112.872L52.7733 113.627C52.9852 115.161 52.9891 116.75 52.7733 118.311L52.6688 119.066L48.2476 119.645L48.1912 119.834C47.9673 120.542 47.6824 121.228 47.3399 121.885L47.2486 122.054L49.9659 125.591L49.5058 126.199C48.5726 127.433 47.4401 128.568 46.1926 129.511L45.5845 129.971L42.0476 127.252L41.8769 127.344C41.2205 127.686 40.5354 127.97 39.8277 128.193L39.6406 128.248L39.061 132.67L38.3051 132.774C36.7187 132.993 35.2091 132.993 33.6202 132.772L32.8648 132.668L32.2866 128.245L32.0986 128.189C31.392 127.966 30.7081 127.681 30.0528 127.339L29.8846 127.247L26.3475 129.967L25.7394 129.506C24.4877 128.559 23.3721 127.443 22.426 126.192L21.9663 125.584L24.6866 122.045L24.5945 121.878C24.2534 121.223 23.9696 120.539 23.7465 119.833L23.6916 119.646L19.2692 119.068L19.1647 118.312C18.9461 116.733 18.9441 115.221 19.1647 113.626L19.2691 112.87L23.6916 112.29L23.7464 112.105C23.9694 111.399 24.2531 110.716 24.5941 110.061L24.6856 109.891L21.9661 106.354L22.4258 105.746C23.3722 104.494 24.4878 103.378 25.7392 102.431L26.3474 101.971L29.8846 104.689L30.0525 104.598C30.7079 104.257 31.3918 103.972 32.0984 103.749L32.2866 103.692L32.8649 99.2701L33.6202 99.1654C35.2091 98.9452 36.7187 98.9452 38.3051 99.1638ZM34.8224 101.045L34.6476 101.061L34.0936 105.293L33.4257 105.454C32.3272 105.719 31.2845 106.153 30.3255 106.741L29.739 107.1L26.3556 104.499L26.2277 104.605C25.6444 105.106 25.1001 105.65 24.5999 106.234L24.4946 106.361L27.0954 109.746L26.7367 110.332C26.1499 111.291 25.7165 112.333 25.4526 113.43L25.2918 114.099L21.0626 114.652L21.0448 114.83C20.9848 115.599 20.9852 116.351 21.0453 117.115L21.0616 117.285L25.2918 117.839L25.4526 118.507C25.7167 119.605 26.15 120.647 26.7368 121.605L27.0958 122.192L24.4946 125.576L24.6 125.704C25.1001 126.287 25.6444 126.832 26.2278 127.332L26.3556 127.438L29.7392 124.837L30.3257 125.197C31.2848 125.785 32.3275 126.219 33.4259 126.484L34.0939 126.645L34.6476 130.876L34.8224 130.892C35.5884 130.953 36.3401 130.953 37.1054 130.893L37.2796 130.877L37.8322 126.648L38.5011 126.487C39.6013 126.223 40.6455 125.789 41.6064 125.201L42.1928 124.842L45.5776 127.442L45.7042 127.337C46.2889 126.835 46.8377 126.285 47.3368 125.704L47.4376 125.583L44.8368 122.2L45.1965 121.613C45.7859 120.652 46.2209 119.607 46.4858 118.506L46.6466 117.837L50.8746 117.284L50.8988 117C50.9458 116.306 50.9451 115.611 50.8978 114.924L50.8746 114.653L46.6466 114.1L46.4858 113.432C46.2209 112.331 45.7859 111.286 45.1965 110.325L44.8368 109.738L47.4376 106.354L47.3304 106.226C46.8271 105.641 46.2773 105.093 45.6968 104.595L45.5786 104.495L42.1928 107.096L41.6064 106.737C40.6455 106.149 39.6013 105.715 38.5011 105.451L37.8322 105.29L37.2796 101.06L37.1054 101.045C36.3401 100.985 35.5884 100.985 34.8224 101.045ZM35.969 109.055C39.7877 109.055 42.8834 112.15 42.8834 115.969C42.8834 119.788 39.7877 122.883 35.969 122.883C32.1503 122.883 29.0546 119.788 29.0546 115.969C29.0546 112.15 32.1503 109.055 35.969 109.055ZM35.969 111.055C33.2549 111.055 31.0546 113.255 31.0546 115.969C31.0546 118.683 33.2549 120.883 35.969 120.883C38.6831 120.883 40.8834 118.683 40.8834 115.969C40.8834 113.255 38.6831 111.055 35.969 111.055ZM118.138 77.4341H36.882L36.8823 89.6196H118.137L118.138 77.4341ZM171.299 54.7246C162.663 54.7246 155.667 61.6361 155.667 70.1558C155.667 78.6755 162.663 85.587 171.299 85.587C179.935 85.587 186.931 78.6755 186.931 70.1558C186.931 61.6361 179.935 54.7246 171.299 54.7246ZM172.635 63.0001L172.635 68.5241L178.271 68.5248V70.5248L172.635 70.5241L172.635 76.0496H170.635L170.635 70.5241L165 70.5248V68.5248L170.635 68.5241L170.635 63.0001H172.635Z" fill="white"/>
</g>
<defs>
<filter id="filter0_d" x="0" y="0" width="208" height="208" filterUnits="userSpaceOnUse" color-interpolation-filters="sRGB">
<feFlood flood-opacity="0" result="BackgroundImageFix"/>
<feColorMatrix in="SourceAlpha" type="matrix" values="0 0 0 0 0 0 0 0 0 0 0 0 0 0 0 0 0 0 127 0" result="hardAlpha"/>
<feOffset dy="4"/>
<feGaussianBlur stdDeviation="2"/>
<feColorMatrix type="matrix" values="0 0 0 0 0 0 0 0 0 0 0 0 0 0 0 0 0 0 0.25 0"/>
<feBlend mode="normal" in2="BackgroundImageFix" result="effect1_dropShadow"/>
<feBlend mode="normal" in="SourceGraphic" in2="effect1_dropShadow" result="shape"/>
</filter>
</defs>
</svg>
