<svg width="200" height="200" viewBox="0 0 200 200" fill="none" xmlns="http://www.w3.org/2000/svg">
<rect width="200" height="200" fill="white"/>
<path fill-rule="evenodd" clip-rule="evenodd" d="M134 26C141.18 26 147 31.8203 147 39V45.4684H63.959V39C63.959 31.8203 69.7793 26 76.959 26H134ZM122 35.1787H104C102.895 35.1787 102 36.0742 102 37.1787C102 38.2833 102.895 39.1787 104 39.1787H122C123.105 39.1787 124 38.2833 124 37.1787C124 36.0742 123.105 35.1787 122 35.1787ZM95 35.1787C93.8954 35.1787 93 36.0742 93 37.1787C93 38.2833 93.8954 39.1787 95 39.1787C96.1045 39.1787 97 38.2833 97 37.1787C97 36.0742 96.1045 35.1787 95 35.1787Z" fill="#B3D4F1"/>
<path d="M44.5 167.18C46.433 167.18 48 165.613 48 163.68C48 161.747 46.433 160.18 44.5 160.18C42.567 160.18 41 161.747 41 163.68C41 165.613 42.567 167.18 44.5 167.18ZM44.5 165.18C43.6716 165.18 43 164.508 43 163.68C43 162.851 43.6716 162.18 44.5 162.18C45.3284 162.18 46 162.851 46 163.68C46 164.508 45.3284 165.18 44.5 165.18ZM170.5 158.18C175.194 158.18 179 154.374 179 149.68C179 144.985 175.194 141.18 170.5 141.18C165.806 141.18 162 144.985 162 149.68C162 154.374 165.806 158.18 170.5 158.18ZM170.5 156.18C166.91 156.18 164 153.27 164 149.68C164 146.09 166.91 143.18 170.5 143.18C174.09 143.18 177 146.09 177 149.68C177 153.27 174.09 156.18 170.5 156.18Z" fill="#B3D4F1"/>
<path d="M162.727 31.4512C163.28 31.4512 163.727 31.8989 163.727 32.4512L163.727 34.1782L165.455 34.1784C165.967 34.1784 166.39 34.5645 166.448 35.0618L166.455 35.1784C166.455 35.7307 166.007 36.1784 165.455 36.1784L163.727 36.1782L163.727 37.9057C163.727 38.4186 163.341 38.8412 162.844 38.899L162.727 38.9057C162.175 38.9057 161.727 38.458 161.727 37.9057L161.727 36.1782L160 36.1784C159.487 36.1784 159.064 35.7924 159.007 35.2951L159 35.1784C159 34.6262 159.448 34.1784 160 34.1784L161.727 34.1782L161.727 32.4512C161.727 31.9383 162.113 31.5157 162.611 31.4579L162.727 31.4512Z" fill="#B3D4F1"/>
<path fill-rule="evenodd" clip-rule="evenodd" d="M147.5 144.045V161.191C147.5 168.371 141.68 174.191 134.5 174.191H76.959C69.7793 174.191 63.959 168.371 63.959 161.191V144.045H147.5ZM108 154.18C105.239 154.18 103 156.418 103 159.18C103 161.941 105.239 164.18 108 164.18C110.761 164.18 113 161.941 113 159.18C113 156.418 110.761 154.18 108 154.18Z" fill="#B3D4F1"/>
<path d="M86 68.6797H102.229" stroke="#B3D4F1" stroke-width="2"/>
<path d="M86 81.6869L124.767 81.6719" stroke="#B3D4F1" stroke-width="2"/>
<path d="M43.3477 77.1797H63.3477" stroke="#B3D4F1" stroke-width="2"/>
<path d="M43.3477 83.6857L63.3477 83.6797" stroke="#B3D4F1" stroke-width="2"/>
<path d="M43.3477 90.6857L63.3477 90.6797" stroke="#B3D4F1" stroke-width="2"/>
<path d="M86 93.6855L124 94.1796" stroke="#B3D4F1" stroke-width="2"/>
<path d="M86 104.684L111.138 104.674" stroke="#B3D4F1" stroke-width="2"/>
<path d="M146.9 115.98C157.89 115.98 166.8 107.07 166.8 96.0797C166.8 85.0892 157.89 76.1797 146.9 76.1797C135.91 76.1797 127 85.0892 127 96.0797C127 107.07 135.91 115.98 146.9 115.98Z" fill="#B3D4F1"/>
<path d="M63.5 135.18C69.8513 135.18 75 130.031 75 123.68C75 117.328 69.8513 112.18 63.5 112.18C57.1487 112.18 52 117.328 52 123.68C52 130.031 57.1487 135.18 63.5 135.18Z" fill="#B3D4F1"/>
<path d="M134.462 25C142.097 25 148.361 31.1603 148.529 38.7544L148.532 39.0673L148.533 75.2415C154.539 75.7056 159.834 78.7085 163.346 83.1785L170.5 83.1787C171.052 83.1787 171.5 83.6264 171.5 84.1787C171.5 84.6916 171.114 85.1142 170.617 85.172L170.5 85.1787L164.737 85.1789C165.684 86.7251 166.435 88.4038 166.957 90.1809L167 90.1787H174.5C175.052 90.1787 175.5 90.6264 175.5 91.1787C175.5 91.6916 175.114 92.1142 174.617 92.172L174.5 92.1787L167.438 92.1789C167.676 93.4425 167.801 94.7463 167.801 96.0792C167.801 107.073 159.313 116.084 148.533 116.917L148.532 161.124C148.532 168.76 142.374 175.019 134.775 175.187L134.462 175.19H76.9742C69.3366 175.19 63.075 169.034 62.9072 161.437L62.9037 161.124L62.903 151.678L60 151.679C59.4477 151.679 59 151.231 59 150.679C59 150.166 59.386 149.743 59.8834 149.685L60 149.679L62.903 149.678V145.178L55 145.179C54.4477 145.179 54 144.731 54 144.179C54 143.666 54.386 143.243 54.8834 143.185L55 143.179L62.903 143.178L62.9032 135.393C57.6215 135.038 53.299 131.204 52.2456 126.179L27 126.179C24.3112 126.179 22.1182 124.056 22.0046 121.396L22 121.179V90.1787C22 87.49 24.1223 85.2969 26.7831 85.1833L27 85.1787L34.999 85.178L35 66.1787L62.903 66.178L62.9037 39.0679C62.9037 31.4347 69.0637 25.1713 76.6612 25.0035L76.9742 25H134.462ZM146.532 145.043H64.903L64.9042 150.322C64.9465 150.433 64.9696 150.553 64.9696 150.679C64.9696 150.804 64.9465 150.925 64.9042 151.035L64.9037 161.124C64.9037 167.659 70.173 173.026 76.6733 173.187L76.9742 173.19H134.462C140.999 173.19 146.367 167.923 146.529 161.425L146.532 161.124L146.532 145.043ZM108 153.179C111.314 153.179 114 155.865 114 159.179C114 162.492 111.314 165.179 108 165.179C104.686 165.179 102 162.492 102 159.179C102 155.865 104.686 153.179 108 153.179ZM108 155.179C105.791 155.179 104 156.97 104 159.179C104 161.388 105.791 163.179 108 163.179C110.209 163.179 112 161.388 112 159.179C112 156.97 110.209 155.179 108 155.179ZM51 143.179C51.5523 143.179 52 143.626 52 144.179C52 144.692 51.614 145.114 51.1166 145.172L51 145.179H47.4159C46.8636 145.179 46.4159 144.731 46.4159 144.179C46.4159 143.666 46.802 143.243 47.2993 143.185L47.4159 143.179H51ZM43 143.179C43.5523 143.179 44 143.626 44 144.179C44 144.692 43.614 145.114 43.1166 145.172L43 145.179H42.4159C41.8636 145.179 41.4159 144.731 41.4159 144.179C41.4159 143.666 41.802 143.243 42.2993 143.185L42.4159 143.179H43ZM146.532 46.468H64.903V66.178L72.7627 66.1787L72.912 85.21L78.9844 85.1912C81.6731 85.1829 83.8728 87.2983 83.9947 89.9587L84 90.1756V121.214C84 123.884 81.8927 126.061 79.2508 126.174L79.0354 126.179H76.5288V124.179H79.0354C80.6142 124.179 81.9048 122.945 81.995 121.388L82 121.214L81.999 119.777L64.846 102.544L56.7408 108.667C54.695 110.212 51.4958 110.259 49.3715 108.811L49.1557 108.655L42.705 103.767L24.1383 122.082C24.5047 123.244 25.5591 124.1 26.8237 124.174L27 124.179L52.0061 124.179C52.0021 124.053 52 123.926 52 123.799C52 117.38 57.2427 112.179 63.7059 112.179C69.673 112.179 74.668 116.633 75.3383 122.496C75.713 126.39 73.5361 129.684 70.0955 129.684C68.7438 129.684 67.7601 129.138 67.1599 128.235L67.0519 128.062L66.8302 128.24C65.9951 128.88 64.9235 129.357 63.8012 129.57C61.0909 130.085 58.8619 128.891 58.5539 126.075C58.2319 123.132 60.3241 121.881 63.5155 121.917C64.4363 121.927 65.4082 122.04 66.3799 122.223C66.4119 122.229 66.4437 122.235 66.4754 122.241C66.4435 121.911 66.3568 121.525 66.1868 121.159C65.5666 119.824 64.0888 119.334 60.9909 120.371L60.7048 120.47L60.0381 118.584C64.2336 117.101 66.8872 117.919 68.0006 120.316C68.3433 121.054 68.4741 121.789 68.4861 122.411L68.4853 122.638L68.4848 125.56L68.48 125.56L68.4778 125.83C68.4812 126.063 68.5131 126.328 68.5851 126.583L68.6468 126.771C68.8729 127.375 69.2744 127.684 70.0955 127.684C72.1925 127.684 73.6204 125.524 73.3494 122.705C72.7965 117.871 68.6565 114.179 63.7059 114.179C58.3437 114.179 54 118.488 54 123.799C54 129.111 58.3437 133.42 63.7059 133.42C65.8 133.42 67.7909 132.762 69.4421 131.561C69.8887 131.236 70.5142 131.335 70.8391 131.781C71.164 132.228 71.0654 132.853 70.6188 133.178C68.9462 134.395 66.9832 135.15 64.9037 135.36L64.903 143.043H146.532L146.532 116.977C135.159 116.78 126 107.499 126 96.0792C126 84.6592 135.159 75.3783 146.532 75.1819L146.532 46.468ZM63.4934 123.917C61.3321 123.893 60.3887 124.457 60.542 125.858C60.7065 127.362 61.7543 127.923 63.4281 127.605C64.9469 127.317 66.2926 126.337 66.4722 125.568L66.484 125.495V124.283L66.4238 124.271L66.0108 124.189C65.1447 124.026 64.2837 123.925 63.4934 123.917ZM24.0502 89.6291C24.0282 89.7479 24.0132 89.8691 24.0057 89.9924L24 90.1787V119.407L41.095 102.546L24.0502 89.6291ZM81.9472 89.6282L66.457 101.327L81.999 116.942L82 90.1912L81.9943 90.0056C81.9865 89.8775 81.9706 89.7515 81.9472 89.6282ZM146.9 77.1787C136.462 77.1787 128 85.6408 128 96.0792C128 106.518 136.462 114.98 146.9 114.98C157.339 114.98 165.801 106.518 165.801 96.0792C165.801 85.6408 157.339 77.1787 146.9 77.1787ZM70.7785 68.1787H37V96.8413L36.877 96.841L50.3636 107.061C51.7103 108.082 53.9383 108.128 55.3553 107.198L55.5353 107.071L70.994 95.394L70.7785 68.1787ZM147.5 102.097C148.438 102.097 149.129 102.765 149.129 103.632C149.129 104.511 148.438 105.179 147.5 105.179C146.562 105.179 145.871 104.511 145.871 103.632C145.871 102.765 146.562 102.097 147.5 102.097ZM148.754 87.0967V99.8584H146.246V87.0967H148.754ZM34.999 87.178L27 87.1787C26.2615 87.1787 25.5854 87.4456 25.0627 87.8881L34.999 95.418V87.178ZM78.9906 87.1913L72.928 87.21L72.981 93.893L80.9271 87.892C80.4035 87.4527 79.7277 87.189 78.9906 87.1913ZM176.795 83.1787C177.347 83.1787 177.795 83.6264 177.795 84.1787C177.795 84.6916 177.408 85.1142 176.911 85.172L176.795 85.1787H174C173.448 85.1787 173 84.731 173 84.1787C173 83.6659 173.386 83.2432 173.883 83.1855L174 83.1787H176.795ZM134.462 27H76.9742C70.4387 27 65.0687 32.2712 64.9074 38.7672L64.9037 39.0679L64.903 44.468H146.532L146.532 39.0673C146.532 32.5353 141.261 27.165 134.763 27.0037L134.462 27ZM122 34.1787C123.657 34.1787 125 35.5219 125 37.1787C125 38.8356 123.657 40.1787 122 40.1787H104C102.343 40.1787 101 38.8356 101 37.1787C101 35.5219 102.343 34.1787 104 34.1787H122ZM95 34.1787C96.6569 34.1787 98 35.5219 98 37.1787C98 38.8356 96.6569 40.1787 95 40.1787C93.3431 40.1787 92 38.8356 92 37.1787C92 35.5219 93.3431 34.1787 95 34.1787ZM122 36.1787H104C103.448 36.1787 103 36.6264 103 37.1787C103 37.731 103.448 38.1787 104 38.1787H122C122.552 38.1787 123 37.731 123 37.1787C123 36.6264 122.552 36.1787 122 36.1787ZM95 36.1787C94.4477 36.1787 94 36.6264 94 37.1787C94 37.731 94.4477 38.1787 95 38.1787C95.5523 38.1787 96 37.731 96 37.1787C96 36.6264 95.5523 36.1787 95 36.1787Z" fill="#006FCF"/>
</svg>
