<svg width="200" height="200" viewBox="0 0 200 200" fill="none" xmlns="http://www.w3.org/2000/svg">
<rect width="200" height="200" fill="white"/>
<path fill-rule="evenodd" clip-rule="evenodd" d="M51.5093 150.342C50.3415 146.734 49.3148 144.252 48.4293 142.896C47.6354 141.681 47 140.894 47 139.926C47 133.677 47 124.305 47 111.808C47 106.391 51.7253 102 57.5543 102L63.4457 102C69.2747 102 74.5 105.891 74.5 111.308V161.941L74 162.225C74 163.714 73.5181 162.515 72.8789 163.78C72.5205 164.489 71.6036 163.486 70.1283 160.772C64.5474 159.478 61.1338 158.32 59.8872 157.299C59.3729 156.878 60.9324 154.546 58.5 152.524C57.7553 151.905 55.4251 151.177 51.5093 150.342Z" fill="#B3D4F1"/>
<path d="M157.139 59.6574C165.466 59.6574 172.218 52.8749 172.218 44.5084C172.218 36.1418 165.466 29.3594 157.139 29.3594C148.811 29.3594 142.06 36.1418 142.06 44.5084C142.06 52.8749 148.811 59.6574 157.139 59.6574Z" fill="#B3D4F1"/>
<path fill-rule="evenodd" clip-rule="evenodd" d="M143.101 44.5645C143.473 52.7204 150.203 59.2187 158.451 59.2187C161.388 59.2187 164.133 58.3944 166.467 56.9645C168.565 60.5583 169.781 64.6897 169.781 69.0181C169.781 81.458 160.503 91.1834 151.267 93.3056L150.962 93.3728V109.904L129.194 93.3254H121.671C116.346 93.3254 111.433 91.4251 107.484 88.2907C107.07 87.9619 108.779 80.6566 108.49 79.9617L108.464 79.9222L107.484 76.3325C107.113 75.0411 105.106 71.74 101.667 71.74C98.2272 71.74 98.0732 69.8594 98.0732 68.9453C98.0732 55.943 108.428 44.7896 121.281 44.5678L121.671 44.5645L143.101 44.5645ZM122.51 60.2302C122.457 60.2132 122.401 60.2421 122.384 60.2947L120.364 66.5666L113.774 66.5498C113.742 66.5497 113.712 66.5651 113.693 66.5912C113.661 66.636 113.671 66.6985 113.716 66.7308L119.056 70.5902L117.004 76.8517C116.994 76.8823 116.999 76.9159 117.018 76.9419C117.051 76.9865 117.114 76.9962 117.158 76.9636L122.479 73.077L127.8 76.9636C127.826 76.9826 127.859 76.9879 127.89 76.9779C127.942 76.9607 127.971 76.9042 127.954 76.8517L125.902 70.5902L131.242 66.7308C131.268 66.712 131.284 66.6817 131.284 66.6495C131.284 66.5943 131.239 66.5496 131.184 66.5498L124.594 66.5666L122.574 60.2947C122.564 60.2641 122.54 60.24 122.51 60.2302ZM145.776 60.2302C145.724 60.2132 145.667 60.2421 145.65 60.2947L143.63 66.5666L137.041 66.5498C137.009 66.5497 136.978 66.5651 136.96 66.5912C136.927 66.636 136.937 66.6985 136.982 66.7308L142.323 70.5902L140.271 76.8517C140.261 76.8823 140.266 76.9159 140.285 76.9419C140.317 76.9865 140.38 76.9962 140.425 76.9636L145.745 73.077L151.066 76.9636C151.092 76.9826 151.126 76.9879 151.156 76.9779C151.209 76.9607 151.238 76.9042 151.22 76.8517L149.168 70.5902L154.509 66.7308C154.535 66.712 154.55 66.6817 154.55 66.6495C154.55 66.5943 154.505 66.5496 154.45 66.5498L147.861 66.5666L145.841 60.2947C145.831 60.2641 145.807 60.24 145.776 60.2302Z" fill="#B3D4F1"/>
<path d="M50.8464 62C51.3592 62 51.7819 62.386 51.8396 62.8834L51.8464 63L51.8457 68.666L57.513 68.6667C58.0653 68.6667 58.513 69.1144 58.513 69.6667C58.513 70.1795 58.127 70.6022 57.6296 70.6599L57.513 70.6667L51.8457 70.666L51.8464 76.3333C51.8464 76.8856 51.3986 77.3333 50.8464 77.3333C50.3335 77.3333 49.9108 76.9473 49.8531 76.45L49.8464 76.3333L49.8457 70.666L44.1797 70.6667C43.6274 70.6667 43.1797 70.2189 43.1797 69.6667C43.1797 69.1538 43.5657 68.7312 44.0631 68.6734L44.1797 68.6667L49.8457 68.666L49.8464 63C49.8464 62.4477 50.2941 62 50.8464 62Z" fill="#B3D4F1"/>
<path d="M55.3333 25C52.9401 25 51 26.9401 51 29.3333C51 31.7266 52.9401 33.6667 55.3333 33.6667C57.7266 33.6667 59.6667 31.7266 59.6667 29.3333C59.6667 26.9401 57.7266 25 55.3333 25ZM55.3333 27C56.622 27 57.6667 28.0447 57.6667 29.3333C57.6667 30.622 56.622 31.6667 55.3333 31.6667C54.0447 31.6667 53 30.622 53 29.3333C53 28.0447 54.0447 27 55.3333 27Z" fill="#E5F5EB" fill-opacity="0.1"/>
<path d="M101.666 22C97.064 22 93.333 25.731 93.333 30.3333C93.333 34.9357 97.064 38.6667 101.666 38.6667C106.269 38.6667 110 34.9357 110 30.3333C110 25.731 106.269 22 101.666 22ZM101.666 24C105.164 24 108 26.8355 108 30.3333C108 33.8311 105.164 36.6667 101.666 36.6667C98.1685 36.6667 95.333 33.8311 95.333 30.3333C95.333 26.8355 98.1685 24 101.666 24Z" fill="#E5F5EB"/>
<path d="M172.326 131.334C173.855 131.334 175.328 131.736 176.623 132.489C177.101 132.767 177.263 133.379 176.985 133.856C176.708 134.334 176.096 134.496 175.618 134.218C174.627 133.642 173.5 133.334 172.326 133.334C169.014 133.334 166.274 135.788 165.822 138.979L165.797 139.183V141.185C165.42 141.199 165.082 141.228 164.809 141.27C158.365 142.258 153.28 147.234 152.275 153.522L152.297 153.395C153.339 154.739 154.082 156.322 154.423 158.053L154.734 158.046C159.194 158.046 162.857 161.455 163.265 165.811L166.964 165.811L167.081 165.818C167.578 165.876 167.964 166.298 167.964 166.811C167.964 167.364 167.517 167.811 166.964 167.811H161.035L160.919 167.805C160.421 167.747 160.035 167.324 160.035 166.811C160.035 166.259 160.483 165.811 161.035 165.811L161.253 165.811C160.854 162.562 158.088 160.046 154.734 160.046C153.56 160.046 152.434 160.354 151.442 160.93C150.964 161.208 150.352 161.046 150.075 160.568C149.797 160.091 149.959 159.479 150.437 159.201C151.068 158.834 151.742 158.551 152.443 158.356C151.566 154.115 147.731 150.955 143.18 150.955C138.663 150.955 134.857 154.067 133.938 158.254C134.338 158.361 134.725 158.506 135.095 158.69C135.59 158.935 135.793 159.534 135.548 160.029C135.303 160.524 134.703 160.727 134.208 160.482C133.631 160.197 132.995 160.046 132.336 160.046C130.094 160.046 128.254 161.796 128.088 164.02C128.419 164.185 128.645 164.524 128.645 164.917C128.645 165.47 128.198 165.917 127.645 165.917H123.769L123.652 165.911C123.155 165.853 122.769 165.43 122.769 164.917C122.769 164.365 123.216 163.917 123.769 163.917L126.09 163.917C126.302 160.772 128.806 158.257 131.937 158.059C132.961 152.845 137.634 148.955 143.18 148.955C146.012 148.955 148.618 149.97 150.626 151.658C152.236 145.485 157.352 140.691 163.771 139.422C164.023 134.913 167.757 131.334 172.326 131.334ZM176.151 165.811L176.268 165.818C176.765 165.876 177.151 166.298 177.151 166.811C177.151 167.364 176.704 167.811 176.151 167.811H173.959L173.842 167.805C173.345 167.747 172.959 167.324 172.959 166.811C172.959 166.259 173.407 165.811 173.959 165.811H176.151Z" fill="white"/>
<path opacity="0.23" d="M167.8 108C168.313 108 168.736 108.386 168.793 108.883L168.8 109L168.799 112.8H172.6C173.152 112.8 173.6 113.248 173.6 113.8C173.6 114.313 173.214 114.736 172.717 114.793L172.6 114.8H168.799L168.8 118.6C168.8 119.152 168.352 119.6 167.8 119.6C167.287 119.6 166.864 119.214 166.807 118.717L166.8 118.6L166.799 114.8H163C162.448 114.8 162 114.352 162 113.8C162 113.287 162.386 112.864 162.883 112.807L163 112.8H166.799L166.8 109C166.8 108.448 167.248 108 167.8 108Z" fill="#006FCF"/>
<path d="M157.139 28.3613C166.02 28.3613 173.218 35.5924 173.218 44.5101C173.218 49.5743 170.897 54.0945 167.264 57.0555C169.206 60.5924 170.285 64.5023 170.372 68.4979L170.377 69.0196L170.374 69.4137C170.192 80.9582 162.031 91.1983 152.13 94.0143L151.788 94.1084L151.559 94.1676L151.559 111.924L128.454 94.3266L121.268 94.3269L120.772 94.3216C116.247 94.2254 111.904 92.8131 108.132 90.2948L106.577 97.1554C105.844 100.387 107.869 103.601 111.101 104.334C111.284 104.375 111.468 104.408 111.654 104.432L111.934 104.462L131.171 106.053C134.999 106.37 137.845 109.729 137.529 113.557C137.495 113.967 137.424 114.374 137.319 114.771L137.233 115.068L136.326 117.954C135.738 119.824 134.469 121.351 132.832 122.28L132.649 122.38L132.711 122.437C133.418 123.123 133.888 124.054 133.98 125.101L133.993 125.312C134.007 125.657 133.978 126.003 133.907 126.341L133.846 126.593L132.299 132.24C131.86 133.844 130.798 135.146 129.419 135.916L129.315 135.972L129.408 136.076C129.966 136.731 130.313 137.57 130.348 138.487L130.351 138.685C130.348 138.958 130.317 139.23 130.258 139.496L130.19 139.761L129.13 143.362C128.522 145.426 127.125 147.108 125.312 148.1L125.114 148.204L125.223 148.303C126.034 149.079 126.556 150.155 126.611 151.352L126.616 151.564C126.616 151.917 126.575 152.268 126.493 152.611L126.424 152.866L125.641 155.468C124.268 160.028 120.127 163.179 115.388 163.305L115.091 163.309H94.7693C88.0877 163.309 81.5098 161.729 75.5693 158.708L75.5694 158.696C75.5694 160.098 75.2879 161.461 74.75 162.723L74.5969 163.064L74.5862 163.06C76.7905 165.51 78.3378 168.55 78.9457 171.925L78.958 172L82.5083 172.001C83.0606 172.001 83.5083 172.448 83.5083 173.001C83.5083 173.513 83.1222 173.936 82.6249 173.994L82.5083 174.001H76C75.4477 174.001 75 173.553 75 173.001C75 172.488 75.386 172.065 75.8834 172.007L76 172.001L76.9244 172C75.5666 165.167 69.8516 159.921 62.7994 159.005L62.8018 159.127C62.8018 159.679 62.3541 160.127 61.8018 160.127C61.2495 160.127 60.8018 159.679 60.8018 159.127C60.8018 155.086 57.5297 151.811 53.4938 151.811C52.1878 151.811 50.9341 152.154 49.8306 152.795C49.3531 153.073 48.7411 152.91 48.4635 152.433C48.186 151.955 48.3482 151.343 48.8257 151.066C49.56 150.639 50.3471 150.316 51.168 150.105C50.7129 146.992 48.9518 144.335 46.4877 142.709L46.3232 142.709L46.3242 142.603C44.7187 141.586 42.8274 141.001 40.8113 141.001C35.7572 141.001 31.4952 144.676 30.538 149.608C31.016 149.733 31.4778 149.914 31.9176 150.147C32.4056 150.405 32.5914 151.011 32.3327 151.499C32.074 151.987 31.4687 152.172 30.9808 151.914C30.3395 151.574 29.636 151.395 28.9079 151.395C26.5318 151.395 24.537 153.312 24.1876 155.84L24.5083 155.84C25.0606 155.84 25.5083 156.288 25.5083 156.84C25.5083 157.353 25.1222 157.776 24.6249 157.833L24.5083 157.84H18C17.4477 157.84 17 157.392 17 156.84C17 156.327 17.386 155.905 17.8834 155.847L18 155.84L22.1736 155.84C22.5294 152.355 25.2037 149.595 28.5412 149.406C29.6071 143.462 34.7195 139.001 40.8113 139.001C42.7856 139.001 44.658 139.47 46.3231 140.306L46.3232 111.012C46.3232 105.431 50.7719 100.889 56.3166 100.739L56.5995 100.735H65.2931C70.5753 100.735 74.9267 104.721 75.5043 109.849C79.0421 108.665 81.941 106.05 83.4747 102.621L83.6162 102.293L91.3246 83.7476C92.2978 81.4064 93.0755 78.9892 93.6501 76.5208L93.8341 75.6961L94.1194 74.3596C94.5701 72.2486 96.1567 70.6721 98.1024 70.1335L98.0939 69.9655C98.0801 69.6263 98.0732 69.2866 98.0732 68.9467C98.0732 55.2935 108.965 43.7979 122.267 43.5694L122.671 43.5659L141.088 43.5653C141.575 35.0872 148.574 28.3613 157.139 28.3613ZM65.2931 102.735H56.5995C52.1133 102.735 48.4607 106.305 48.327 110.759L48.3232 111.012L48.3238 141.563C50.8659 143.518 52.6553 146.444 53.1485 149.818L53.4938 149.811C57.8899 149.811 61.5739 152.861 62.5491 156.962C66.5577 157.373 70.2071 159.034 73.0636 161.553C73.3546 160.761 73.5237 159.924 73.5613 159.064L73.5694 158.696V111.012C73.5694 106.526 69.9999 102.873 65.5461 102.739L65.2931 102.735ZM96.1217 74.5854L96.0753 74.7772L95.79 76.1137C95.2376 78.701 94.4724 81.2377 93.5024 83.698L93.1714 84.5152L85.463 103.06C83.6709 107.372 80.0249 110.623 75.5702 111.924L75.5699 156.45C81.2727 159.534 87.6353 161.2 94.1186 161.304L94.7693 161.309H115.091C118.98 161.309 122.419 158.819 123.644 155.149L123.726 154.891L124.509 152.289C124.58 152.054 124.616 151.81 124.616 151.564C124.616 150.231 123.578 149.14 122.267 149.055L122.101 149.05L122.099 149L112 149.001C111.448 149.001 111 148.553 111 148.001C111 147.488 111.386 147.065 111.883 147.007L112 147.001L122.43 147.002C124.609 146.655 126.426 145.128 127.137 143.03L127.211 142.797L128.272 139.196C128.322 139.023 128.349 138.844 128.351 138.663C128.362 137.63 127.572 136.774 126.558 136.688L126.412 136.681L126.413 136.5L117.018 136.501C116.466 136.501 116.018 136.053 116.018 135.501C116.018 134.988 116.404 134.565 116.901 134.507L117.018 134.501H127.543L127.651 134.508C128.888 134.132 129.896 133.174 130.312 131.906L130.37 131.712L131.917 126.064C131.978 125.844 132.004 125.617 131.995 125.389C131.954 124.338 131.194 123.485 130.206 123.287L120.462 123.288C119.91 123.288 119.462 122.84 119.462 122.288C119.462 121.775 119.848 121.352 120.346 121.294L120.462 121.288L129.558 121.287L129.556 121.249C131.736 121.065 133.6 119.627 134.34 117.584L134.418 117.355L135.325 114.468C135.434 114.118 135.505 113.757 135.535 113.392C135.755 110.737 133.838 108.398 131.22 108.068L131.006 108.046L111.769 106.455C111.395 106.424 111.024 106.367 110.659 106.284C106.431 105.326 103.751 101.182 104.575 96.9568L104.626 96.713L107.789 82.7684C108.666 78.9017 106.761 74.9543 103.22 73.2243L102.976 73.1098L101.067 72.2501C100.834 72.1453 100.591 72.0656 100.341 72.0123C98.4645 71.6116 96.6172 72.755 96.1217 74.5854ZM141.094 45.5661L122.671 45.5659L122.301 45.5691C110.106 45.7796 100.073 56.3689 100.073 68.9467C100.073 69.2594 100.08 69.5719 100.092 69.884L100.096 69.9653L100.097 69.9555C100.317 69.9757 100.538 70.0092 100.759 70.0564C101.05 70.1186 101.336 70.2039 101.613 70.3115L101.888 70.4265L103.797 71.2862C108.274 73.3022 110.751 78.1377 109.8 82.929L109.74 83.2108L108.609 88.1923L108.679 88.2427C112.26 90.7905 116.431 92.2224 120.783 92.3214L121.268 92.3269H129.128L149.559 107.887L149.559 92.5637L150.352 92.3959L150.678 92.3237C160.241 90.1164 168.377 80.1713 168.377 69.0196C168.377 65.2646 167.419 61.5741 165.625 58.2283C163.162 59.7693 160.254 60.6589 157.139 60.6589C148.611 60.6589 141.636 53.9917 141.094 45.5661ZM146.083 59.2798C146.378 59.3748 146.617 59.5889 146.745 59.8667L146.792 59.9896L148.588 65.5656L154.447 65.5512C154.974 65.5499 155.415 65.9187 155.524 66.4125L155.543 66.5286L155.55 66.6484C155.551 66.9582 155.421 67.2518 155.197 67.4593L155.095 67.5428L150.345 70.9736L152.171 76.5417C152.335 77.0421 152.12 77.5755 151.684 77.832L151.58 77.8862L151.468 77.9296C151.173 78.0261 150.854 77.9934 150.587 77.8438L150.476 77.7726L145.745 74.3166L141.014 77.7726C140.594 78.0797 140.028 78.0449 139.65 77.7197L139.559 77.6324L139.477 77.5331C139.295 77.283 139.227 76.9692 139.287 76.6692L139.32 76.5417L141.144 70.9736L136.396 67.5428C135.974 67.2378 135.833 66.689 136.025 66.2284L136.08 66.1152L136.149 66.0069C136.331 65.7558 136.608 65.5946 136.912 65.5588L137.043 65.5512L142.902 65.5656L144.698 59.9896C144.885 59.4113 145.504 59.0935 146.083 59.2798ZM122.816 59.2798C123.111 59.3748 123.35 59.5889 123.478 59.8667L123.526 59.9896L125.322 65.5656L131.181 65.5512C131.707 65.5499 132.149 65.9187 132.258 66.4125L132.277 66.5286L132.284 66.6484C132.285 66.9582 132.155 67.2518 131.93 67.4593L131.828 67.5428L127.079 70.9736L128.904 76.5417C129.068 77.0421 128.854 77.5755 128.418 77.832L128.313 77.8862L128.201 77.9296C127.907 78.0261 127.588 77.9934 127.321 77.8438L127.21 77.7726L122.478 74.3166L117.748 77.7726C117.327 78.0797 116.762 78.0449 116.383 77.7197L116.292 77.6324L116.211 77.5331C116.028 77.283 115.96 76.9692 116.02 76.6692L116.054 76.5417L117.878 70.9736L113.13 67.5428C112.708 67.2378 112.566 66.689 112.758 66.2284L112.813 66.1152L112.883 66.0069C113.064 65.7558 113.342 65.5946 113.645 65.5588L113.777 65.5512L119.635 65.5656L121.432 59.9896C121.618 59.4113 122.238 59.0935 122.816 59.2798ZM145.745 63.2626L144.358 67.5699L139.832 67.5576L143.5 70.209L142.09 74.5086L145.745 71.8401L149.399 74.5086L147.99 70.209L151.658 67.5576L147.133 67.5699L145.745 63.2626ZM122.478 63.2623L121.091 67.5699L116.565 67.5576L120.234 70.209L118.824 74.5086L122.479 71.8401L126.133 74.5086L124.724 70.209L128.391 67.5576L123.866 67.5699L122.478 63.2623ZM157.139 30.3613C149.68 30.3613 143.575 36.1913 143.091 43.5662L143.163 43.5659V45.5659L143.099 45.5661C143.637 52.8879 149.718 58.6589 157.139 58.6589C164.914 58.6589 171.218 52.3253 171.218 44.5101C171.218 36.6949 164.914 30.3613 157.139 30.3613ZM162.352 39.0003L163.766 40.4145L152.582 51.5986L148.254 47.2697L149.668 45.8555L152.582 48.7703L162.352 39.0003Z" fill="#006FCF"/>
</svg>
