<svg width="200" height="200" viewBox="0 0 200 200" fill="none" xmlns="http://www.w3.org/2000/svg">
<rect width="200" height="200" fill="white"/>
<path d="M41.5 151C43.433 151 45 149.433 45 147.5C45 145.567 43.433 144 41.5 144C39.567 144 38 145.567 38 147.5C38 149.433 39.567 151 41.5 151ZM41.5 149C40.6716 149 40 148.328 40 147.5C40 146.672 40.6716 146 41.5 146C42.3284 146 43 146.672 43 147.5C43 148.328 42.3284 149 41.5 149ZM173 148C176.866 148 180 144.866 180 141C180 137.134 176.866 134 173 134C169.134 134 166 137.134 166 141C166 144.866 169.134 148 173 148ZM173 146C170.239 146 168 143.761 168 141C168 138.239 170.239 136 173 136C175.761 136 178 138.239 178 141C178 143.761 175.761 146 173 146Z" fill="#B3D4F1"/>
<path d="M161.727 12.2734C162.28 12.2734 162.727 12.7212 162.727 13.2734L162.727 15.0004L164.455 15.0007C164.967 15.0007 165.39 15.3868 165.448 15.8841L165.455 16.0007C165.455 16.553 165.007 17.0007 164.455 17.0007L162.727 17.0004L162.727 18.728C162.727 19.2408 162.341 19.6635 161.844 19.7213L161.727 19.728C161.175 19.728 160.727 19.2803 160.727 18.728L160.727 17.0004L159 17.0007C158.487 17.0007 158.064 16.6147 158.007 16.1173L158 16.0007C158 15.4484 158.448 15.0007 159 15.0007L160.727 15.0004L160.727 13.2734C160.727 12.7606 161.113 12.3379 161.611 12.2802L161.727 12.2734ZM28.7273 50.2734C29.2796 50.2734 29.7273 50.7212 29.7273 51.2734L29.727 53.0004L31.4545 53.0007C31.9674 53.0007 32.3901 53.3867 32.4478 53.8841L32.4545 54.0007C32.4545 54.553 32.0068 55.0007 31.4545 55.0007L29.727 55.0004L29.7273 56.728C29.7273 57.2408 29.3412 57.6635 28.8439 57.7213L28.7273 57.728C28.175 57.728 27.7273 57.2803 27.7273 56.728L27.727 55.0004L26 55.0007C25.4872 55.0007 25.0645 54.6147 25.0067 54.1173L25 54.0007C25 53.4484 25.4477 53.0007 26 53.0007L27.727 53.0004L27.7273 51.2734C27.7273 50.7606 28.1133 50.3379 28.6107 50.2802L28.7273 50.2734Z" fill="#B3D4F1"/>
<path fill-rule="evenodd" clip-rule="evenodd" d="M131 25.8203C138.18 25.8203 144 31.6406 144 38.8203V45.2887H60.959V38.8203C60.959 31.6406 66.7793 25.8203 73.959 25.8203H131ZM119 34.999H101C99.8954 34.999 99 35.8945 99 36.999C99 38.1036 99.8954 38.999 101 38.999H119C120.105 38.999 121 38.1036 121 36.999C121 35.8945 120.105 34.999 119 34.999ZM92 34.999C90.8954 34.999 90 35.8945 90 36.999C90 38.1036 90.8954 38.999 92 38.999C93.1045 38.999 94 38.1036 94 36.999C94 35.8945 93.1045 34.999 92 34.999ZM144.5 143.864V161.011C144.5 168.19 138.68 174.011 131.5 174.011H73.959C66.7793 174.011 60.959 168.19 60.959 161.011V143.864H144.5ZM105 153.999C102.239 153.999 100 156.238 100 158.999C100 161.76 102.239 163.999 105 163.999C107.761 163.999 110 161.76 110 158.999C110 156.238 107.761 153.999 105 153.999Z" fill="#B3D4F1"/>
<path d="M86.7948 115.555L121.013 116L120.987 118L86.7688 117.555L86.7948 115.555ZM108.138 103.704L108.139 105.704L98.0619 105.712L98.0612 103.712L108.138 103.704ZM97.7948 91.4165L121.013 91.8613L120.987 93.8611L97.7688 93.4164L97.7948 91.4165ZM121.767 79.5619L121.768 81.5619L83.0008 81.5769L83 79.5769L121.767 79.5619ZM99.2293 67.5V69.5H83.0004V67.5H99.2293Z" fill="#B3D4F1"/>
<path d="M98 87H26V108H98V87Z" fill="#B3D4F1"/>
<path d="M143.9 115.8C154.89 115.8 163.8 106.89 163.8 95.9C163.8 84.9095 154.89 76 143.9 76C132.91 76 124 84.9095 124 95.9C124 106.89 132.91 115.8 143.9 115.8Z" fill="#B3D4F1"/>
<path fill-rule="evenodd" clip-rule="evenodd" d="M111 158.999C111 155.685 108.314 152.999 105 152.999C101.686 152.999 99 155.685 99 158.999C99 162.313 101.686 164.999 105 164.999C108.314 164.999 111 162.313 111 158.999ZM101 158.999C101 156.79 102.791 154.999 105 154.999C107.209 154.999 109 156.79 109 158.999C109 161.208 107.209 162.999 105 162.999C102.791 162.999 101 161.208 101 158.999Z" fill="#006FCF"/>
<path d="M153.039 89.656L151.625 88.2418L144.082 95.7838L136.857 88.5591L135.443 89.9733L142.668 97.1978L135.76 104.106L137.175 105.521L144.082 98.6118L151.308 105.838L152.722 104.424L145.496 97.1978L153.039 89.656Z" fill="#006FCF"/>
<path fill-rule="evenodd" clip-rule="evenodd" d="M122 36.999C122 35.3422 120.657 33.999 119 33.999H101C99.3431 33.999 98 35.3422 98 36.999C98 38.6559 99.3431 39.999 101 39.999H119C120.657 39.999 122 38.6559 122 36.999ZM101 35.999H119C119.552 35.999 120 36.4468 120 36.999C120 37.5513 119.552 37.999 119 37.999H101C100.448 37.999 100 37.5513 100 36.999C100 36.4468 100.448 35.999 101 35.999Z" fill="#006FCF"/>
<path fill-rule="evenodd" clip-rule="evenodd" d="M95 36.999C95 35.3422 93.6569 33.999 92 33.999C90.3431 33.999 89 35.3422 89 36.999C89 38.6559 90.3431 39.999 92 39.999C93.6569 39.999 95 38.6559 95 36.999ZM91 36.999C91 36.4468 91.4477 35.999 92 35.999C92.5523 35.999 93 36.4468 93 36.999C93 37.5513 92.5523 37.999 92 37.999C91.4477 37.999 91 37.5513 91 36.999Z" fill="#006FCF"/>
<path d="M40 97.999C40 95.7899 38.2091 93.999 36 93.999C33.7909 93.999 32 95.7899 32 97.999C32 100.208 33.7909 101.999 36 101.999C38.2091 101.999 40 100.208 40 97.999Z" fill="#006FCF"/>
<path d="M53 97.999C53 95.7899 51.2091 93.999 49 93.999C46.7909 93.999 45 95.7899 45 97.999C45 100.208 46.7909 101.999 49 101.999C51.2091 101.999 53 100.208 53 97.999Z" fill="#006FCF"/>
<path d="M66 97.999C66 95.7899 64.2091 93.999 62 93.999C59.7909 93.999 58 95.7899 58 97.999C58 100.208 59.7909 101.999 62 101.999C64.2091 101.999 66 100.208 66 97.999Z" fill="#006FCF"/>
<path d="M79 97.999C79 95.7899 77.2091 93.999 75 93.999C72.7909 93.999 71 95.7899 71 97.999C71 100.208 72.7909 101.999 75 101.999C77.2091 101.999 79 100.208 79 97.999Z" fill="#006FCF"/>
<path d="M92 97.999C92 95.7899 90.2091 93.999 88 93.999C85.7909 93.999 84 95.7899 84 97.999C84 100.208 85.7909 101.999 88 101.999C90.2091 101.999 92 100.208 92 97.999Z" fill="#006FCF"/>
<path fill-rule="evenodd" clip-rule="evenodd" d="M145.529 38.5747C145.361 30.9806 139.097 24.8203 131.462 24.8203H73.9742L73.6612 24.8238C66.0637 24.9917 59.9037 31.255 59.9037 38.8882V86H25V109H59.9037V160.945L59.9072 161.258C60.075 168.855 66.3366 175.011 73.9742 175.011H131.462L131.775 175.007C139.374 174.84 145.532 168.58 145.532 160.945L145.533 116.737C156.313 115.904 164.801 106.893 164.801 95.8995C164.801 94.8844 164.729 93.8862 164.588 92.9104C164.713 92.9673 164.853 92.999 165 92.999H168.153L168.269 92.9923C168.767 92.9345 169.153 92.5119 169.153 91.999C169.153 91.4468 168.705 90.999 168.153 90.999H165L164.864 91.0082C164.641 91.0385 164.442 91.1421 164.292 91.2935C163.955 89.7947 163.457 88.3569 162.817 86.9991L169.5 86.999L169.617 86.9923C170.114 86.9345 170.5 86.5119 170.5 85.999C170.5 85.4468 170.052 84.999 169.5 84.999H162L161.875 85.0067L161.755 85.0294C158.352 79.4514 152.409 75.5929 145.533 75.0618L145.532 38.8876L145.529 38.5747ZM61.9037 109V142.863H143.532L143.532 116.797C132.159 116.6 123 107.32 123 95.8995C123 84.4795 132.159 75.1986 143.532 75.0022L143.532 46.2883H61.9037V86H99V109H61.9037ZM61.9037 144.863H143.532L143.532 160.945L143.529 161.246C143.367 167.743 137.999 173.011 131.462 173.011H73.9742L73.6733 173.007C67.173 172.846 61.9037 167.48 61.9037 160.945V144.863ZM125 95.8995C125 85.4611 133.462 76.999 143.9 76.999C154.339 76.999 162.801 85.4611 162.801 95.8995C162.801 106.338 154.339 114.8 143.9 114.8C133.462 114.8 125 106.338 125 95.8995ZM73.9742 26.8203H131.462L131.763 26.824C138.261 26.9853 143.532 32.3556 143.532 38.8876L143.532 44.2883H61.9037V38.8882L61.9074 38.5875C62.0687 32.0915 67.4387 26.8203 73.9742 26.8203ZM27 107V88H97V107H27Z" fill="#006FCF"/>
<path d="M176.188 85.999C176.188 85.4468 175.74 84.999 175.188 84.999H173L172.883 85.0058C172.386 85.0635 172 85.4862 172 85.999C172 86.5513 172.448 86.999 173 86.999H175.188L175.305 86.9923C175.802 86.9345 176.188 86.5119 176.188 85.999Z" fill="#006FCF"/>
</svg>
