<svg width="300" height="300" viewBox="0 0 300 300" fill="none" xmlns="http://www.w3.org/2000/svg">
<rect width="300" height="300" fill="white"/>
<g clip-path="url(#clip0)">
<path d="M108.248 245.137C109.29 245.137 110.134 244.293 110.134 243.251C110.134 242.21 109.29 241.365 108.248 241.365C107.207 241.365 106.362 242.21 106.362 243.251C106.362 244.293 107.207 245.137 108.248 245.137Z" stroke="#D8D8D8" stroke-width="2"/>
<path d="M120.413 55.7043C122.912 55.7043 124.939 53.678 124.939 51.1783C124.939 48.6787 122.912 46.6523 120.413 46.6523C117.913 46.6523 115.887 48.6787 115.887 51.1783C115.887 53.678 117.913 55.7043 120.413 55.7043Z" stroke="#D8D8D8" stroke-width="2"/>
<path d="M151.249 240.61C153.124 240.61 154.644 239.09 154.644 237.215C154.644 235.34 153.124 233.82 151.249 233.82C149.373 233.82 147.854 235.34 147.854 237.215C147.854 239.09 149.373 240.61 151.249 240.61Z" stroke="#D8D8D8" stroke-width="2"/>
<path d="M58.1481 123.473C58.7022 123.473 59.1514 123.922 59.1514 124.476L59.1513 127.888L62.3866 127.888C62.9011 127.888 63.3252 128.275 63.3832 128.774L63.3899 128.891C63.3899 129.446 62.9407 129.895 62.3866 129.895L59.1513 129.894L59.1514 133.307C59.1514 133.821 58.7641 134.245 58.2651 134.303L58.1481 134.31C57.594 134.31 57.1448 133.861 57.1448 133.307L57.1443 129.894L53.9096 129.895C53.395 129.895 52.971 129.507 52.913 129.008L52.9062 128.891C52.9062 128.337 53.3555 127.888 53.9096 127.888L57.1443 127.888L57.1448 124.476C57.1448 123.962 57.5321 123.538 58.0311 123.48L58.1481 123.473ZM196.118 49.5801C196.672 49.5801 197.121 50.0293 197.121 50.5834L197.121 52.1551L198.59 52.1556C199.105 52.1556 199.529 52.5429 199.587 53.0419L199.594 53.1589C199.594 53.713 199.145 54.1622 198.59 54.1622L197.121 54.1621L197.121 55.7344C197.121 56.2489 196.734 56.673 196.235 56.731L196.118 56.7377C195.564 56.7377 195.115 56.2885 195.115 55.7344L195.114 54.1621L193.646 54.1622C193.131 54.1622 192.707 53.7749 192.649 53.2759L192.642 53.1589C192.642 52.6048 193.091 52.1556 193.646 52.1556L195.114 52.1551L195.115 50.5834C195.115 50.0689 195.502 49.6448 196.001 49.5868L196.118 49.5801Z" fill="#D8D8D8"/>
<path fill-rule="evenodd" clip-rule="evenodd" d="M55.8357 198.127C52.6735 201.98 53.424 206.064 58.0873 210.379C60.6414 212.742 63.3754 213.478 65.1227 213.697C68.254 214.089 70.7619 213.12 72.6464 210.79C67.8469 211.137 63.8452 209.793 60.6414 206.758C57.4376 203.724 55.8357 200.847 55.8357 198.127Z" fill="#D8D8D8"/>
<path d="M61.6777 207.753C56.9644 204.202 55.2931 198.47 57.9447 194.951C60.5964 191.432 66.5669 191.459 71.2802 195.01C75.9936 198.562 77.6648 204.294 75.0132 207.813C72.3615 211.332 66.391 211.305 61.6777 207.753Z" fill="white"/>
<path d="M63.5513 205.266C60.4995 202.966 59.3872 199.295 61.0671 197.066C62.7469 194.837 66.5826 194.894 69.6344 197.193C72.6862 199.493 73.7984 203.165 72.1186 205.394C70.4388 207.623 66.603 207.566 63.5513 205.266Z" fill="#D8D8D8"/>
<path fill-rule="evenodd" clip-rule="evenodd" d="M74.9482 201.705C75.5577 203.795 75.307 205.762 74.2142 207.212L74.1878 207.247L73.888 207.602C72.7768 208.802 71.0957 209.444 69.1227 209.436C66.9454 209.426 64.4806 208.615 62.2792 206.956C60.0778 205.297 58.6185 203.151 58.0091 201.061C57.3996 198.971 57.6503 197.004 58.7431 195.554C59.8358 194.104 61.6575 193.32 63.8346 193.33C66.0119 193.34 68.4767 194.151 70.6781 195.81C72.8795 197.469 74.3388 199.615 74.9482 201.705ZM73.0456 211.703L75.3834 208.931C75.5329 208.768 75.6757 208.596 75.8115 208.416C77.3704 206.347 77.6099 203.689 76.8683 201.145C76.1267 198.602 74.3936 196.106 71.8817 194.213C69.3698 192.32 66.4927 191.342 63.8435 191.33C61.3153 191.319 58.9326 192.195 57.3653 194.073L57.3122 194.03L55.9326 195.721C55.9065 195.719 55.8801 195.718 55.8535 195.718H52.3115C51.7592 195.718 51.3115 196.166 51.3115 196.718C51.3115 197.271 51.7592 197.718 52.3115 197.718H54.328C53.6 198.783 53.1996 199.99 53.0838 201.251H48.7524C48.2002 201.251 47.7524 201.699 47.7524 202.251C47.7524 202.804 48.2002 203.251 48.7524 203.251H53.1279C53.1954 203.769 53.3049 204.288 53.4536 204.802C53.6698 205.549 53.97 206.293 54.3489 207.019H46.7444C46.1921 207.019 45.7444 207.467 45.7444 208.019C45.7444 208.571 46.1921 209.019 46.7444 209.019H55.6299C56.4026 210.024 57.3365 210.962 58.4146 211.787C60.9122 213.699 63.7731 214.691 66.4085 214.709C69.0347 214.726 71.4997 213.766 73.0456 211.703ZM68.0724 212.551C69.0763 212.342 69.959 211.928 70.6696 211.326C70.1614 211.402 69.6407 211.438 69.1138 211.436C69.0634 211.435 69.013 211.435 68.9624 211.434L68.0724 212.551ZM65.4375 212.648L66.6286 211.154C65.7847 210.968 64.9364 210.693 64.1012 210.328L62.7832 211.981C63.678 212.328 64.5734 212.549 65.4375 212.648ZM61.0756 208.553C61.4739 208.853 61.8813 209.13 62.2957 209.384L60.9406 211.084C60.4967 210.822 60.0585 210.527 59.6302 210.199C59.4315 210.047 59.2388 209.891 59.0522 209.731L60.5149 208.11C60.6972 208.261 60.8841 208.409 61.0756 208.553ZM57.6347 208.316C56.9479 207.515 56.3914 206.663 55.9731 205.797L57.2806 204.349C57.7705 205.181 58.3671 205.984 59.0617 206.735L57.6347 208.316ZM56.089 201.621C56.1648 201.881 56.2509 202.14 56.3472 202.398L55.223 203.644C54.8796 202.043 55.0402 200.54 55.6954 199.315C55.7318 200.081 55.8661 200.856 56.089 201.621ZM71.3196 204.791C71.9207 203.993 72.0756 202.87 71.6935 201.609C71.3117 200.349 70.4069 199.027 69.0323 197.991C67.6576 196.955 66.1378 196.45 64.821 196.43C63.5033 196.411 62.4665 196.869 61.8654 197.667C61.2643 198.464 61.1095 199.587 61.4915 200.849C61.8734 202.109 62.7781 203.431 64.1528 204.466C65.5274 205.502 67.0472 206.008 68.364 206.027C69.6817 206.047 70.7186 205.589 71.3196 204.791ZM70.2359 196.394C71.913 197.658 73.0903 199.322 73.6076 201.029C74.1246 202.736 73.9956 204.563 72.9169 205.995C71.8382 207.426 70.1173 208.054 68.3342 208.027C66.5502 208.001 64.6263 207.328 62.9491 206.064C61.272 204.8 60.0947 203.136 59.5775 201.428C59.0604 199.722 59.1894 197.895 60.2681 196.463C61.3469 195.032 63.0678 194.404 64.8508 194.43C66.6348 194.457 68.5588 195.13 70.2359 196.394ZM43.3984 202.22C43.3984 201.668 43.8462 201.22 44.3984 201.22H45.2154C45.7677 201.22 46.2154 201.668 46.2154 202.22C46.2154 202.772 45.7677 203.22 45.2154 203.22H44.3984C43.8462 203.22 43.3984 202.772 43.3984 202.22Z" fill="#979797"/>
<path fill-rule="evenodd" clip-rule="evenodd" d="M252.357 83.7461C255.519 87.5995 254.768 91.6835 250.105 95.998C247.551 98.361 244.817 99.0971 243.07 99.3158C239.938 99.7077 237.43 98.7387 235.546 96.4087C240.346 96.7559 244.347 95.4122 247.551 92.3776C250.755 89.3429 252.357 86.4658 252.357 83.7461Z" fill="#D8D8D8"/>
<path d="M246.516 93.3726C251.229 89.8208 252.9 84.089 250.249 80.5701C247.597 77.0512 241.626 77.0778 236.913 80.6296C232.2 84.1813 230.529 89.9132 233.18 93.4321C235.832 96.951 241.802 96.9243 246.516 93.3726Z" fill="white"/>
<path d="M244.642 90.8852C247.694 88.5855 248.806 84.9141 247.126 82.6849C245.446 80.4558 241.611 80.5129 238.559 82.8126C235.507 85.1123 234.395 88.7837 236.075 91.0129C237.755 93.2421 241.59 93.1849 244.642 90.8852Z" fill="#D8D8D8"/>
<path fill-rule="evenodd" clip-rule="evenodd" d="M233.245 87.324C232.635 89.4142 232.886 91.3811 233.979 92.8312L234 92.8597L234.31 93.2272C235.422 94.4233 237.1 95.0636 239.07 95.0548C241.248 95.0451 243.712 94.2338 245.914 92.5749C248.115 90.916 249.574 88.7704 250.184 86.6801C250.793 84.5899 250.543 82.623 249.45 81.1729C248.357 79.7227 246.535 78.9396 244.358 78.9493C242.181 78.959 239.716 79.7703 237.515 81.4292C235.313 83.0881 233.854 85.2337 233.245 87.324ZM232.381 94.0349C232.519 94.2176 232.664 94.3917 232.816 94.5573L235.148 97.3217C236.694 99.3856 239.159 100.345 241.785 100.328C244.42 100.31 247.281 99.3177 249.779 97.4061C250.857 96.5809 251.791 95.6432 252.564 94.6382H261.448C262.001 94.6382 262.448 94.1904 262.448 93.6382C262.448 93.0859 262.001 92.6382 261.448 92.6382H253.845C254.223 91.912 254.524 91.1682 254.74 90.4208C254.889 89.9068 254.998 89.3881 255.066 88.8706H259.44C259.993 88.8706 260.44 88.4229 260.44 87.8706C260.44 87.3183 259.993 86.8706 259.44 86.8706H255.11C254.994 85.6094 254.593 84.4018 253.865 83.3374H255.881C256.433 83.3374 256.881 82.8897 256.881 82.3374C256.881 81.7851 256.433 81.3374 255.881 81.3374H252.339C252.313 81.3374 252.287 81.3384 252.261 81.3404L250.881 79.6492L250.828 79.6927C249.261 77.8146 246.878 76.938 244.349 76.9493C241.7 76.9611 238.823 77.9391 236.311 79.8319C233.799 81.7248 232.066 84.2209 231.325 86.7642C230.583 89.3077 230.823 91.9661 232.381 94.0349ZM239.231 97.0531L240.121 98.17C239.117 97.9608 238.234 97.5469 237.524 96.9452C238.032 97.021 238.552 97.0571 239.079 97.0548C239.13 97.0546 239.181 97.054 239.231 97.0531ZM241.565 96.7726L242.756 98.2675C243.62 98.1682 244.515 97.9468 245.41 97.6005L244.092 95.9466C243.257 96.3115 242.409 96.5874 241.565 96.7726ZM247.253 96.7034C247.697 96.4407 248.135 96.1457 248.563 95.8179C248.762 95.6659 248.954 95.51 249.141 95.3503L247.677 93.7297C247.495 93.8805 247.309 94.0281 247.117 94.1722C246.719 94.4722 246.312 94.7493 245.898 95.0031L247.253 96.7034ZM250.558 93.9359L249.131 92.3548C249.826 91.6031 250.422 90.8 250.913 89.9678L252.22 91.4167C251.802 92.2824 251.245 93.1348 250.558 93.9359ZM252.97 89.2629C253.314 87.6623 253.153 86.1588 252.498 84.9334C252.461 85.6998 252.327 86.4751 252.104 87.2399C252.028 87.4996 251.942 87.7588 251.846 88.017L252.97 89.2629ZM236.873 90.4101C236.272 89.6124 236.117 88.4894 236.499 87.2281C236.881 85.9678 237.786 84.6462 239.16 83.6103C240.535 82.5744 242.055 82.069 243.372 82.0494C244.689 82.0297 245.726 82.4881 246.327 83.2858C246.928 84.0835 247.083 85.2065 246.701 86.4678C246.319 87.7281 245.415 89.0497 244.04 90.0856C242.665 91.1215 241.145 91.6269 239.829 91.6465C238.511 91.6662 237.474 91.2078 236.873 90.4101ZM237.957 82.013C236.28 83.2768 235.102 84.9407 234.585 86.6483C234.068 88.3549 234.197 90.1822 235.276 91.6137C236.355 93.0452 238.075 93.6729 239.859 93.6463C241.643 93.6197 243.566 92.9467 245.244 91.6829C246.921 90.4191 248.098 88.7552 248.615 87.0476C249.132 85.341 249.003 83.5137 247.925 82.0822C246.846 80.6507 245.125 80.023 243.342 80.0496C241.558 80.0762 239.634 80.7492 237.957 82.013ZM263.794 86.8374C264.347 86.8374 264.794 87.2851 264.794 87.8374C264.794 88.3897 264.347 88.8374 263.794 88.8374H262.977C262.425 88.8374 261.977 88.3897 261.977 87.8374C261.977 87.2851 262.425 86.8374 262.977 86.8374H263.794Z" fill="#979797"/>
<path d="M197.356 238.098C197.91 238.098 198.359 238.547 198.359 239.101L198.359 242.513L201.595 242.513C202.109 242.513 202.533 242.9 202.591 243.399L202.598 243.516C202.598 244.07 202.149 244.519 201.595 244.519L198.359 244.519L198.359 247.931C198.359 248.446 197.972 248.87 197.473 248.928L197.356 248.935C196.802 248.935 196.353 248.485 196.353 247.931L196.352 244.519L193.118 244.519C192.603 244.519 192.179 244.132 192.121 243.633L192.114 243.516C192.114 242.962 192.563 242.513 193.118 242.513L196.352 242.513L196.353 239.101C196.353 238.586 196.74 238.162 197.239 238.104L197.356 238.098Z" fill="#D8D8D8"/>
<path d="M68.4679 75.1914C73.4183 75.1914 77.5947 78.7252 78.5668 83.4829L78.6659 83.4809C82.6627 83.4809 85.9296 86.6292 86.2209 90.6145L90.597 90.6154C91.1512 90.6154 91.6004 91.0646 91.6004 91.6187C91.6004 92.1729 91.1512 92.6221 90.597 92.6221H85.1452C84.5911 92.6221 84.1419 92.1729 84.1419 91.6187C84.1419 91.4682 84.175 91.3253 84.2345 91.1972C84.2353 88.0381 81.7371 85.4875 78.6659 85.4875C77.6736 85.4875 76.7212 85.7529 75.8819 86.2505C75.4052 86.5331 74.7897 86.3757 74.5072 85.899C74.2246 85.4224 74.382 84.8069 74.8586 84.5243C75.4001 84.2033 75.9769 83.9528 76.5777 83.7778C75.7542 79.9942 72.4135 77.1981 68.4679 77.1981C64.5359 77.1981 61.21 79.9733 60.3682 83.7308C60.6592 83.8198 60.9411 83.9329 61.213 84.0686C61.7089 84.316 61.9102 84.9185 61.6628 85.4144C61.4154 85.9102 60.8129 86.1116 60.3171 85.8642C59.8225 85.6174 59.2785 85.4875 58.7143 85.4875C56.9689 85.4875 55.5045 86.7382 55.1433 88.4148L55.392 88.4151C55.9461 88.4151 56.3953 88.8643 56.3953 89.4184C56.3953 89.9725 55.9461 90.4217 55.392 90.4217H49.9402C49.386 90.4217 48.9368 89.9725 48.9368 89.4184C48.9368 88.8643 49.386 88.4151 49.9402 88.4151L53.1066 88.4149C53.4774 85.7423 55.6648 83.6566 58.368 83.4914C59.3354 78.7338 63.5101 75.1914 68.4679 75.1914ZM45.2559 88.3933C45.8101 88.3933 46.2593 88.8425 46.2593 89.3967C46.2593 89.9508 45.8101 90.4 45.2559 90.4H39.8041C39.25 90.4 38.8008 89.9508 38.8008 89.3967C38.8008 88.8425 39.25 88.3933 39.8041 88.3933H45.2559ZM238.081 196.151C241.553 196.151 244.488 198.575 245.266 201.865C247.069 202.079 248.519 203.448 248.882 205.218L250.778 205.219C251.332 205.219 251.781 205.668 251.781 206.222C251.781 206.776 251.332 207.225 250.778 207.225H247.04C246.485 207.225 246.036 206.776 246.036 206.222C246.036 205.749 246.363 205.353 246.803 205.247C246.479 204.422 245.689 203.842 244.771 203.842C244.433 203.842 244.108 203.919 243.813 204.067C243.317 204.314 242.714 204.113 242.467 203.617C242.22 203.121 242.421 202.519 242.917 202.271C243.029 202.216 243.143 202.165 243.259 202.12C242.621 199.824 240.532 198.158 238.081 198.158C235.624 198.158 233.528 199.834 232.896 202.145C233.232 202.262 233.554 202.413 233.861 202.595C234.338 202.877 234.495 203.493 234.213 203.97C233.93 204.446 233.314 204.604 232.838 204.321C232.311 204.008 231.713 203.842 231.09 203.842C229.17 203.842 227.603 205.431 227.586 207.408C227.622 207.509 227.641 207.618 227.641 207.731C227.641 208.285 227.191 208.734 226.637 208.734H222.899C222.345 208.734 221.896 208.285 221.896 207.731C221.896 207.177 222.345 206.727 222.899 206.727L225.623 206.727C225.96 204.033 228.178 201.93 230.904 201.838C231.691 198.559 234.622 196.151 238.081 196.151ZM257.728 205.204C258.283 205.204 258.732 205.653 258.732 206.207C258.732 206.761 258.283 207.21 257.728 207.21H253.99C253.436 207.21 252.987 206.761 252.987 206.207C252.987 205.653 253.436 205.204 253.99 205.204H257.728Z" fill="#D8D8D8"/>
<path d="M139.344 69.2368C140.386 69.2368 141.23 68.3925 141.23 67.3508C141.23 66.3092 140.386 65.4648 139.344 65.4648C138.302 65.4648 137.458 66.3092 137.458 67.3508C137.458 68.3925 138.302 69.2368 139.344 69.2368Z" fill="#D8D8D8"/>
<path d="M233.464 159.913C235.339 159.913 236.859 158.393 236.859 156.518C236.859 154.643 235.339 153.123 233.464 153.123C231.589 153.123 230.069 154.643 230.069 156.518C230.069 158.393 231.589 159.913 233.464 159.913Z" fill="#D8D8D8"/>
<path d="M30.334 253.273V261.24" stroke="white" stroke-width="2" stroke-linecap="round"/>
<path d="M34.4834 257.258H26.1844" stroke="white" stroke-width="2" stroke-linecap="round"/>
<path fill-rule="evenodd" clip-rule="evenodd" d="M178.233 183.087C186.038 175.284 186.357 161.902 178.301 153.846L148.991 183.157C157.046 191.212 170.43 190.892 178.233 183.087Z" fill="#D8D8D8"/>
<path fill-rule="evenodd" clip-rule="evenodd" d="M111.035 115.889C118.838 108.084 132.441 107.985 140.769 116.314L111.458 145.624C103.13 137.296 103.23 123.692 111.035 115.889Z" fill="#D8D8D8"/>
<path d="M185.164 139.456C198.918 139.456 210.069 128.306 210.069 114.551C210.069 100.797 198.918 89.6465 185.164 89.6465C171.409 89.6465 160.259 100.797 160.259 114.551C160.259 128.306 171.409 139.456 185.164 139.456Z" fill="#D8D8D8"/>
<path d="M185.033 87.7891C199.742 87.7891 211.666 99.713 211.666 114.422C211.666 115.824 211.558 117.201 211.349 118.545L216.319 118.544C216.873 118.544 217.322 118.994 217.322 119.548C217.322 120.062 216.935 120.486 216.436 120.544L216.319 120.551L210.958 120.551C210.635 121.919 210.207 123.247 209.683 124.525L212.69 124.525C213.244 124.525 213.693 124.974 213.693 125.528C213.693 126.042 213.306 126.467 212.807 126.525L212.69 126.531L208.76 126.532C207.906 128.202 206.881 129.769 205.708 131.212C214.403 154.333 208.985 180.71 191.157 198.537C190.765 198.929 190.13 198.929 189.738 198.537C189.346 198.145 189.346 197.51 189.738 197.118C206.747 180.11 212.092 155.067 204.196 132.918C199.352 137.935 192.557 141.055 185.033 141.055C170.325 141.055 158.401 129.131 158.401 114.422C158.401 107.398 161.12 101.009 165.563 96.2503L162.625 95.3315C157.063 93.7026 151.246 92.8639 145.315 92.8639C129.403 92.8639 114.901 98.9035 103.978 108.816L110.332 115.171L110.6 114.908C118.934 106.883 132.956 107.082 141.478 115.603L148.003 122.129L139.585 130.546L143.046 134.027L141.623 135.442L138.165 131.966L126.021 144.11L129.31 147.4L127.89 148.819L124.602 145.529L117.274 152.858L110.748 146.333C102.625 138.21 102.066 125.087 108.983 116.659L102.513 110.189C90.9603 121.375 83.7792 137.049 83.7792 154.4C83.7792 188.385 111.33 215.936 145.315 215.936C156.482 215.936 165.289 214.096 175.571 208.202C176.754 207.525 177.837 206.688 178.791 205.715C184.544 199.853 184.455 190.436 178.593 184.683L178.342 184.438L178.311 184.403C170.049 192.004 156.732 192.01 148.561 184.14L148.281 183.866L141.529 177.113L172.258 146.384L179.01 153.136C187.095 161.22 187.235 174.609 179.717 182.979C179.728 182.986 179.738 182.996 179.748 183.006L179.998 183.251C186.652 189.78 186.753 200.467 180.223 207.121C179.14 208.225 177.911 209.174 176.569 209.943C165.945 216.033 156.804 217.943 145.315 217.943C110.222 217.943 81.7725 189.494 81.7725 154.4C81.7725 119.306 110.222 90.8572 145.315 90.8572C151.437 90.8572 157.444 91.7233 163.207 93.411L167.12 94.6346L167.182 94.6574C171.905 90.3886 178.166 87.7891 185.033 87.7891ZM177.741 154.708L149.901 182.644C157.486 190.007 170.075 189.827 177.523 182.378C184.952 174.951 185.151 162.414 177.852 154.821L177.741 154.708ZM128.712 177.184C129.266 177.184 129.715 177.633 129.715 178.188V185.936C129.715 186.49 129.266 186.939 128.712 186.939C128.158 186.939 127.709 186.49 127.709 185.936V178.188C127.709 177.633 128.158 177.184 128.712 177.184ZM172.258 149.222L166.349 155.13L168.121 156.901L166.702 158.32L164.93 156.549L151.693 169.785L153.307 171.399L151.888 172.818L150.275 171.204L144.367 177.113L148.479 181.226L176.324 153.287L172.258 149.222ZM123.141 172.972C123.48 173.41 123.4 174.041 122.962 174.38L116.838 179.126C116.4 179.466 115.77 179.386 115.43 178.948C115.091 178.51 115.171 177.88 115.609 177.54L121.733 172.794C122.171 172.455 122.801 172.534 123.141 172.972ZM118.996 164.652C119.55 164.652 119.999 165.102 119.999 165.656C119.999 166.21 119.55 166.659 118.996 166.659H111.247C110.693 166.659 110.244 166.21 110.244 165.656C110.244 165.102 110.693 164.652 111.247 164.652H118.996ZM141.322 118.285L113.478 146.224L117.274 150.021L145.166 122.129L141.322 118.285ZM111.744 116.598C104.268 124.072 104.329 136.958 112.059 144.805L139.902 116.868L139.784 116.752C131.921 109.184 119.165 109.175 111.744 116.598ZM185.033 89.7958C171.433 89.7958 160.407 100.821 160.407 114.422C160.407 128.022 171.433 139.048 185.033 139.048C198.634 139.048 209.66 128.022 209.66 114.422C209.66 100.821 198.634 89.7958 185.033 89.7958ZM185.78 123.366C186.542 123.366 187.139 123.946 187.139 124.708C187.139 125.471 186.542 126.084 185.78 126.084C185.018 126.084 184.437 125.471 184.437 124.708C184.437 123.946 185.018 123.366 185.78 123.366ZM222.058 118.544C222.613 118.544 223.062 118.994 223.062 119.548C223.062 120.062 222.674 120.486 222.175 120.544L222.058 120.551H220.246C219.692 120.551 219.243 120.102 219.243 119.548C219.243 119.033 219.63 118.609 220.129 118.551L220.246 118.544H222.058ZM186.725 103.509V119.106H184.835V103.509H186.725Z" fill="#979797"/>
</g>
<defs>
<clipPath id="clip0">
<rect width="300" height="300" fill="white"/>
</clipPath>
</defs>
</svg>
