<svg width="200" height="200" viewBox="0 0 200 200" fill="none" xmlns="http://www.w3.org/2000/svg">
<g id="nhi-200-windows-settings-add">
<rect width="200" height="200" fill="white"/>
<g id="Dashboard 1">
<g id="Group">
<path id="Vector" d="M150.667 126.334V128.334H114.667V126.334H150.667ZM157.333 115.667V117.667H114.667V115.667H157.333ZM154.667 105.001V107.001H114.667V105.001H154.667ZM150.667 94.334V96.334H114.667V94.334H150.667Z" fill="#BBDE8F"/>
<path id="Vector_2" d="M71.0549 157.824H74.3529" stroke="#009639" stroke-width="2" stroke-linecap="round"/>
<path id="Vector_3" d="M115.138 76.4336H31.8821V90.8526H115.138V76.4336Z" fill="#BBDE8F"/>
<path id="Vector_4" d="M170.952 65.2715H87.696V79.6905H170.952V65.2715Z" fill="#BBDE8F"/>
<path id="Vector_5" d="M109.092 72.447L160.72 72.248" stroke="white" stroke-width="2" stroke-linecap="round"/>
<path id="Vector_6" d="M94.2079 74.5735C95.2352 74.5735 96.0679 73.7408 96.0679 72.7135C96.0679 71.6863 95.2352 70.8535 94.2079 70.8535C93.1807 70.8535 92.3479 71.6863 92.3479 72.7135C92.3479 73.7408 93.1807 74.5735 94.2079 74.5735Z" fill="#78BE20"/>
<path id="Vector_7" d="M100.72 74.5735C101.747 74.5735 102.58 73.7408 102.58 72.7135C102.58 71.6863 101.747 70.8535 100.72 70.8535C99.6929 70.8535 98.8601 71.6863 98.8601 72.7135C98.8601 73.7408 99.6929 74.5735 100.72 74.5735Z" fill="#E4F2D2"/>
<path id="Vector_8" d="M97.9395 111.559V113.559L74.3 113.559V142.809H103.55L103.55 123.005H105.55V144.809H72.3003V111.559H97.9395ZM98.9613 134.631V136.631H90.9894V134.631H98.9613ZM85.399 129.298V131.298H77.427V129.298H85.399ZM98.9613 129.145V131.145H90.9894V129.145H98.9613ZM84.3465 97.7617L84.4795 109.553L82.4797 109.575L82.368 99.7617H53.107V129.012L70.2975 129.012V131.012H51.1077V97.7617H84.3465ZM97.6293 122.327V124.327H77.4283V122.327H97.6293ZM63.6182 115.425C64.5105 115.425 65.2428 116.11 65.3174 116.983L65.3236 117.13V122.513C65.3236 123.405 64.6383 124.138 63.7653 124.212L63.6182 124.218H58.2357C57.3433 124.218 56.611 123.533 56.5364 122.66L56.5301 122.513V117.13C56.5301 116.238 57.2155 115.506 58.0885 115.431L58.2357 115.425H63.6182ZM63.323 117.425H58.53V122.218H63.323V117.425ZM70.8229 116.784V118.784H68.4561V116.784H70.8229ZM63.6181 103.196C64.5104 103.196 65.2428 103.881 65.3174 104.754L65.3236 104.901V110.284C65.3236 111.176 64.6383 111.908 63.7653 111.983L63.6182 111.989H58.2357C57.3434 111.989 56.611 111.304 56.5364 110.431L56.5301 110.284V104.901C56.5301 104.009 57.2155 103.277 58.0885 103.202L58.2357 103.196H63.6181ZM63.323 105.196H58.53V109.989H63.323V105.196ZM77.8262 104.554V106.554H68.4561V104.554H77.8262Z" fill="#BBDE8F"/>
<path id="Vector_9" d="M110.966 114.142L100.776 106.322L102.557 119.241L105.172 116.974L107.116 120.559L110.321 118.412L107.938 115.345L110.966 114.142ZM107.65 118.395L105.895 115.16L108.149 118.061L107.65 118.395ZM102.761 109.735L107.957 113.724L105.62 114.653L105.602 114.618L103.665 116.295L102.761 109.735Z" fill="#BBDE8F"/>
<path id="Vector_10" d="M53.2781 83.6092L104.906 83.4102" stroke="white" stroke-width="2" stroke-linecap="round"/>
<path id="Vector_11" d="M38.3939 85.7356C39.4212 85.7356 40.2539 84.9029 40.2539 83.8756C40.2539 82.8484 39.4212 82.0156 38.3939 82.0156C37.3667 82.0156 36.5339 82.8484 36.5339 83.8756C36.5339 84.9029 37.3667 85.7356 38.3939 85.7356Z" fill="#78BE20"/>
<path id="Vector_12" d="M44.9059 85.7356C45.9331 85.7356 46.7659 84.9029 46.7659 83.8756C46.7659 82.8484 45.9331 82.0156 44.9059 82.0156C43.8786 82.0156 43.0459 82.8484 43.0459 83.8756C43.0459 84.9029 43.8786 85.7356 44.9059 85.7356Z" fill="#E4F2D2"/>
<path id="Vector_13" d="M57.8459 52V65.333" stroke="#7FCB9C" stroke-width="2" stroke-linecap="round"/>
<path id="Vector_14" d="M64.5129 58.668H51.1799" stroke="#7FCB9C" stroke-width="2" stroke-linecap="round"/>
<path id="Vector_15" d="M148 37.332V46.932" stroke="#CCEAD8" stroke-width="2" stroke-linecap="round"/>
<path id="Vector_16" d="M152.8 42.1328H143.2" stroke="#CCEAD8" stroke-width="2" stroke-linecap="round"/>
<path id="Vector_17" d="M35.333 33.334C37.1738 33.334 38.666 31.8417 38.666 30.001C38.666 28.1602 37.1738 26.668 35.333 26.668C33.4922 26.668 32 28.1602 32 30.001C32 31.8417 33.4922 33.334 35.333 33.334Z" stroke="#E5F5EB" stroke-width="2"/>
<path id="Vector_18" d="M108.667 26.666C112.717 26.666 116 23.3829 116 19.333C116 15.2831 112.717 12 108.667 12C104.617 12 101.334 15.2831 101.334 19.333C101.334 23.3829 104.617 26.666 108.667 26.666Z" stroke="#E5F5EB" stroke-width="2"/>
<path id="Vector_19" fill-rule="evenodd" clip-rule="evenodd" d="M167.632 85.8624C176.818 85.8624 184.265 78.5059 184.265 69.4312C184.265 60.3565 176.818 53 167.632 53C158.447 53 151 60.3565 151 69.4312C151 72.0885 151.638 74.5984 152.772 76.8195C153.042 77.3477 153.74 78.3241 154.868 79.7485C155.138 80.2237 155.483 80.6678 155.903 81.0809C158.91 84.0361 163.055 85.8624 167.632 85.8624Z" fill="#E4F2D2"/>
<path id="Vector_20" d="M32.4121 157C32.9644 157 33.4121 157.448 33.4121 158C33.4121 158.513 33.0261 158.936 32.5287 158.993L32.4121 159H30.5466C29.9943 159 29.5466 158.552 29.5466 158C29.5466 157.487 29.9326 157.065 30.43 157.007L30.5466 157H32.4121ZM26.6716 157C27.2239 157 27.6716 157.448 27.6716 158C27.6716 158.513 27.2855 158.936 26.7882 158.993L26.6716 159H25.3823C24.83 159 24.3823 158.552 24.3823 158C24.3823 157.487 24.7684 157.065 25.2657 157.007L25.3823 157H26.6716ZM39.0702 135.783C45.108 136.424 50.0731 140.659 51.6362 146.296C53.3477 144.916 55.536 144.093 57.9074 144.093C62.6589 144.093 66.6687 147.398 67.599 151.847C70.4079 152.084 72.6127 154.454 72.6127 157.341C72.6127 157.893 72.1649 158.341 71.6127 158.341C71.0604 158.341 70.6127 157.893 70.6127 157.341C70.6127 155.399 69.0544 153.828 67.1363 153.828C66.5988 153.828 66.0806 153.951 65.6098 154.184C65.1148 154.429 64.515 154.226 64.27 153.731C64.0251 153.236 64.2278 152.636 64.7228 152.391C65.003 152.253 65.294 152.139 65.5931 152.05C64.7772 148.625 61.6321 146.093 57.9074 146.093C54.1548 146.093 50.9854 148.665 50.1996 152.138C50.7617 152.303 51.301 152.536 51.8087 152.831C52.2862 153.109 52.4484 153.721 52.1709 154.198C51.8933 154.676 51.2813 154.838 50.8038 154.561C49.9824 154.083 49.0495 153.828 48.0771 153.828C45.8517 153.828 43.9383 155.166 43.0956 157.082C43.453 157.233 43.7027 157.588 43.7027 158C43.7027 158.513 43.3167 158.936 42.8193 158.993L42.7027 159H37.6575C37.1052 159 36.6575 158.552 36.6575 158C36.6575 157.487 37.0436 157.065 37.5409 157.007L37.6575 157L40.9904 157C41.951 154 44.7605 151.828 48.0771 151.828C48.1249 151.828 48.1726 151.829 48.2203 151.83C48.5177 150.416 49.1269 149.119 49.9717 148.007L49.974 148.023L49.9451 147.853C48.9702 142.601 44.6051 138.518 39.168 137.809L38.8591 137.772L39.0702 135.783ZM74.2265 158.83V156.83L114.138 156.829L114.137 91.6196H32.8823L32.8824 95.2408H30.8824V75.4342H116.138L116.137 78.9216L152.055 78.9221C150.589 76.4352 149.727 73.5567 149.67 70.4834L149.667 70.1558C149.667 68.8205 149.819 67.5203 150.106 66.2713L88.696 66.2711L88.6963 75.1825H86.6963V64.2714L150.697 64.2711C153.139 57.5385 159.652 52.7246 167.299 52.7246C177.034 52.7246 184.931 60.5261 184.931 70.1558C184.931 78.1926 179.431 84.9559 171.952 86.9736L171.951 124.541C173.444 122.022 176.188 120.333 179.326 120.333C180.855 120.333 182.329 120.736 183.624 121.488C184.101 121.766 184.263 122.378 183.986 122.856C183.708 123.333 183.096 123.495 182.619 123.218C181.627 122.641 180.5 122.333 179.326 122.333C175.941 122.333 173.153 124.897 172.796 128.192L172.797 130.184C172.42 130.199 172.082 130.227 171.809 130.269C165.479 131.24 160.459 136.06 159.332 142.192L159.278 142.499L159.297 142.394C160.34 143.738 161.082 145.322 161.423 147.052L161.734 147.046C166.194 147.046 169.857 150.455 170.265 154.811L173.965 154.811L174.081 154.817C174.579 154.875 174.965 155.298 174.965 155.811C174.965 156.324 174.579 156.746 174.081 156.804L173.965 156.811H168.036L167.919 156.804C167.422 156.746 167.036 156.324 167.036 155.811C167.036 155.298 167.422 154.875 167.919 154.817L168.036 154.811L168.254 154.811C167.855 151.561 165.088 149.046 161.734 149.046C160.56 149.046 159.434 149.353 158.442 149.93C157.964 150.207 157.352 150.045 157.075 149.568C156.797 149.09 156.959 148.478 157.437 148.201C158.068 147.834 158.742 147.55 159.444 147.355C158.566 143.115 154.731 139.955 150.18 139.955C145.663 139.955 141.857 143.067 140.938 147.254C141.338 147.36 141.725 147.506 142.095 147.689C142.59 147.934 142.793 148.534 142.548 149.029C142.303 149.524 141.703 149.727 141.208 149.482C140.631 149.196 139.995 149.046 139.336 149.046C137.095 149.046 135.254 150.795 135.088 153.02C135.419 153.183 135.646 153.523 135.646 153.917C135.646 154.43 135.26 154.852 134.762 154.91L134.646 154.917H130.769L130.652 154.91C130.155 154.852 129.769 154.43 129.769 153.917C129.769 153.404 130.155 152.981 130.652 152.923L130.769 152.917L133.09 152.917C133.246 150.6 134.646 148.625 136.623 147.666L116.137 147.667L116.138 156.829L120.487 156.83C121.039 156.83 121.487 157.277 121.487 157.83C121.487 158.342 121.101 158.765 120.604 158.823L120.487 158.83H74.2265ZM183.152 154.811L183.268 154.817C183.766 154.875 184.152 155.298 184.152 155.811C184.152 156.324 183.766 156.746 183.268 156.804L183.152 156.811H180.959L180.843 156.804C180.345 156.746 179.959 156.324 179.959 155.811C179.959 155.298 180.345 154.875 180.843 154.817L180.959 154.811H183.152ZM116.137 80.9216V145.667L139.306 145.667C140.821 141.167 145.14 137.955 150.18 137.955C153.012 137.955 155.618 138.969 157.626 140.657C159.167 134.749 163.919 130.105 169.951 128.604L169.952 87.391C169.087 87.5201 168.201 87.587 167.299 87.587C161.672 87.587 156.66 84.981 153.431 80.9221L116.137 80.9216ZM34.3051 99.1638L35.061 99.268L35.6406 103.688L35.8277 103.745C36.5354 103.968 37.2205 104.252 37.8769 104.594L38.0476 104.685L41.5845 101.967L42.1926 102.427C43.423 103.357 44.5594 104.488 45.5057 105.738L45.966 106.346L43.2486 109.883L43.3399 110.053C43.6824 110.71 43.9673 111.395 44.1912 112.104L44.2476 112.292L48.6688 112.872L48.7733 113.627C48.9852 115.161 48.9891 116.75 48.7733 118.311L48.6688 119.066L44.2476 119.645L44.1912 119.834C43.9673 120.542 43.6824 121.228 43.3399 121.885L43.2486 122.054L45.9659 125.591L45.5058 126.199C44.5726 127.433 43.4401 128.568 42.1926 129.511L41.5845 129.971L38.0476 127.252L37.8769 127.344C37.2205 127.686 36.5354 127.97 35.8277 128.193L35.6406 128.248L35.061 132.67L34.3051 132.774C32.7187 132.993 31.2091 132.993 29.6202 132.772L28.8648 132.668L28.2866 128.245L28.0986 128.189C27.392 127.966 26.7081 127.681 26.0528 127.339L25.8846 127.247L22.3475 129.967L21.7394 129.506C20.4877 128.559 19.3721 127.443 18.426 126.192L17.9663 125.584L20.6866 122.045L20.5945 121.878C20.2534 121.223 19.9696 120.539 19.7465 119.833L19.6916 119.646L15.2692 119.068L15.1647 118.312C14.9461 116.733 14.9441 115.221 15.1647 113.626L15.2691 112.87L19.6916 112.29L19.7464 112.105C19.9694 111.399 20.2531 110.716 20.5941 110.061L20.6856 109.891L17.9661 106.354L18.4258 105.746C19.3722 104.494 20.4878 103.378 21.7392 102.431L22.3474 101.971L25.8846 104.689L26.0525 104.598C26.7079 104.257 27.3918 103.972 28.0984 103.749L28.2866 103.692L28.8649 99.2701L29.6202 99.1654C31.2091 98.9452 32.7187 98.9452 34.3051 99.1638ZM30.8224 101.045L30.6476 101.061L30.0936 105.293L29.4257 105.454C28.3272 105.719 27.2845 106.153 26.3255 106.741L25.739 107.1L22.3556 104.499L22.2277 104.605C21.6444 105.106 21.1001 105.65 20.5999 106.234L20.4946 106.361L23.0954 109.746L22.7367 110.332C22.1499 111.291 21.7165 112.333 21.4526 113.43L21.2918 114.099L17.0626 114.652L17.0448 114.83C16.9848 115.599 16.9852 116.351 17.0453 117.115L17.0616 117.285L21.2918 117.839L21.4526 118.507C21.7167 119.605 22.15 120.647 22.7368 121.605L23.0958 122.192L20.4946 125.576L20.6 125.704C21.1001 126.287 21.6444 126.832 22.2278 127.332L22.3556 127.438L25.7392 124.837L26.3257 125.197C27.2848 125.785 28.3275 126.219 29.4259 126.484L30.0939 126.645L30.6476 130.876L30.8224 130.892C31.5884 130.953 32.3401 130.953 33.1054 130.893L33.2796 130.877L33.8322 126.648L34.5011 126.487C35.6013 126.223 36.6455 125.789 37.6064 125.201L38.1928 124.842L41.5776 127.442L41.7042 127.337C42.2889 126.835 42.8377 126.285 43.3368 125.704L43.4376 125.583L40.8368 122.2L41.1965 121.613C41.7859 120.652 42.2209 119.607 42.4858 118.506L42.6466 117.837L46.8746 117.284L46.8988 117C46.9458 116.306 46.9451 115.611 46.8978 114.924L46.8746 114.653L42.6466 114.1L42.4858 113.432C42.2209 112.331 41.7859 111.286 41.1965 110.325L40.8368 109.738L43.4376 106.354L43.3304 106.226C42.8271 105.641 42.2773 105.093 41.6968 104.595L41.5786 104.495L38.1928 107.096L37.6064 106.737C36.6455 106.149 35.6013 105.715 34.5011 105.451L33.8322 105.29L33.2796 101.06L33.1054 101.045C32.3401 100.985 31.5884 100.985 30.8224 101.045ZM31.969 109.055C35.7877 109.055 38.8834 112.15 38.8834 115.969C38.8834 119.788 35.7877 122.883 31.969 122.883C28.1503 122.883 25.0546 119.788 25.0546 115.969C25.0546 112.15 28.1503 109.055 31.969 109.055ZM31.969 111.055C29.2549 111.055 27.0546 113.255 27.0546 115.969C27.0546 118.683 29.2549 120.883 31.969 120.883C34.6831 120.883 36.8834 118.683 36.8834 115.969C36.8834 113.255 34.6831 111.055 31.969 111.055ZM114.138 77.4341H32.882L32.8823 89.6196H114.137L114.138 77.4341ZM167.299 54.7246C158.663 54.7246 151.667 61.6361 151.667 70.1558C151.667 78.6755 158.663 85.587 167.299 85.587C175.935 85.587 182.931 78.6755 182.931 70.1558C182.931 61.6361 175.935 54.7246 167.299 54.7246ZM168.635 63.0001L168.635 68.5241L174.271 68.5248V70.5248L168.635 70.5241L168.635 76.0496H166.635L166.635 70.5241L161 70.5248V68.5248L166.635 68.5241L166.635 63.0001H168.635Z" fill="#009639"/>
</g>
</g>
</g>
</svg>
