<svg width="300" height="300" viewBox="0 0 300 300" fill="none" xmlns="http://www.w3.org/2000/svg">
<rect width="300" height="300" fill="white"/>
<g clip-path="url(#clip0)">
<path fill-rule="evenodd" clip-rule="evenodd" d="M108.794 62.282V49.2754C108.794 43.7525 113.256 39.2754 118.76 39.2754H201.599C207.103 39.2754 211.566 43.7525 211.566 49.2754V62.282H108.794ZM194.324 181.344C195.9 182.225 197.442 182.906 198.949 183.387C200.456 183.869 202.02 184.18 203.64 184.321L193.524 191.055C190.941 194.141 189.931 196.997 190.493 199.623C191.336 203.561 194.258 209.331 198.949 210.154C202.076 210.703 206.224 209.766 211.392 207.344C210.694 211.564 208.891 214.912 205.983 217.388C203.074 219.864 198.299 221.102 191.657 221.102H123.871C113.774 218.45 108.726 212.531 108.726 203.345V181.344H194.324ZM160.146 194.652C156.417 194.652 153.395 197.684 153.395 201.425C153.395 205.165 156.417 208.198 160.146 208.198C163.874 208.198 166.896 205.165 166.896 201.425C166.896 197.684 163.874 194.652 160.146 194.652Z" fill="#B3D4F1"/>
<path d="M160.146 208.196C163.874 208.196 166.896 205.164 166.896 201.423C166.896 197.683 163.874 194.65 160.146 194.65C156.418 194.65 153.396 197.683 153.396 201.423C153.396 205.164 156.418 208.196 160.146 208.196Z" stroke="#006FCF" stroke-width="2.5"/>
<path d="M66.7778 78C70.9062 78 74.2529 74.6421 74.2529 70.5C74.2529 66.3579 70.9062 63 66.7778 63C62.6494 63 59.3027 66.3579 59.3027 70.5C59.3027 74.6421 62.6494 78 66.7778 78Z" stroke="#B3D4F1" stroke-opacity="0.5" stroke-width="2"/>
<path d="M232.724 238.5C235.201 238.5 237.209 236.485 237.209 234C237.209 231.515 235.201 229.5 232.724 229.5C230.247 229.5 228.239 231.515 228.239 234C228.239 236.485 230.247 238.5 232.724 238.5Z" stroke="#B3D4F1" stroke-opacity="0.5" stroke-width="2"/>
<path d="M50.7022 189.308C51.2134 189.308 51.6346 189.694 51.6922 190.191L51.6989 190.308L51.6983 195.806L57.1792 195.806C57.7297 195.806 58.1759 196.254 58.1759 196.806C58.1759 197.319 57.7912 197.742 57.2955 197.8L57.1792 197.806L51.6983 197.806L51.6989 203.305C51.6989 203.857 51.2527 204.305 50.7022 204.305C50.1911 204.305 49.7698 203.919 49.7122 203.422L49.7055 203.305L49.7049 197.806L44.2252 197.806C43.6747 197.806 43.2285 197.359 43.2285 196.806C43.2285 196.294 43.6133 195.871 44.109 195.813L44.2252 195.806L49.7049 195.806L49.7055 190.308C49.7055 189.756 50.1518 189.308 50.7022 189.308ZM244.685 108.5C245.196 108.5 245.617 108.886 245.675 109.383L245.682 109.5L245.681 112.832L249.003 112.832C249.553 112.832 250 113.28 250 113.832C250 114.345 249.615 114.768 249.119 114.826L249.003 114.832L245.681 114.832L245.682 118.165C245.682 118.717 245.235 119.165 244.685 119.165C244.174 119.165 243.753 118.779 243.695 118.281L243.688 118.165L243.688 114.832L240.367 114.832C239.816 114.832 239.37 114.385 239.37 113.832C239.37 113.32 239.755 112.897 240.251 112.839L240.367 112.832L243.688 112.832L243.688 109.5C243.688 108.948 244.134 108.5 244.685 108.5Z" fill="#B3D4F1"/>
<path d="M108.639 121.258H191.88" stroke="#006FCF" stroke-width="2.5" stroke-dasharray="3 3"/>
<path opacity="0.3" fill-rule="evenodd" clip-rule="evenodd" d="M108.895 121.15H190.82C193.133 125.609 195.388 128.129 197.585 128.711C199.783 129.294 204.439 128.605 211.552 126.646C195.395 133.738 188.484 140.737 190.82 147.642C192.081 151.369 193.659 155.34 197.585 156.455C199.818 157.089 204.473 156.574 211.552 154.91C197.731 160.303 190.664 166.023 190.352 172.068C190.04 178.113 197.107 180.474 211.552 179.15H108.895V121.15Z" fill="#B3D4F1"/>
<path d="M195.492 37.0117C204.912 37.0117 212.634 44.6518 212.808 54.0593L212.811 54.3844L212.811 60.2507L218.232 60.2509C218.92 60.2509 219.478 60.8106 219.478 61.5009C219.478 62.1481 218.987 62.6805 218.359 62.7445L218.232 62.7509L212.811 62.7507V69.2507L222.259 69.2509C222.947 69.2509 223.505 69.8106 223.505 70.5009C223.505 71.1481 223.015 71.6805 222.386 71.7445L222.259 71.7509L212.811 71.7507L212.811 98.0036C217.725 97.1898 222.87 99.3318 225.674 103.834C229.339 109.719 227.639 117.441 221.9 121.242L221.628 121.418L216.28 124.77C220.014 125.185 223.529 127.248 225.674 130.692C229.339 136.577 227.639 144.299 221.9 148.1L221.628 148.276L216.28 151.628C220.014 152.043 223.529 154.106 225.674 157.55C229.339 163.435 227.639 171.157 221.9 174.958L221.628 175.134L216.28 178.486C220.014 178.901 223.529 180.964 225.674 184.408C229.339 190.292 227.639 198.015 221.9 201.816L221.628 201.991L212.604 207.648L212.568 207.885C211.323 215.235 205.486 220.949 198.261 222.128L198.496 222.347C194.827 226.296 191.085 229.758 187.269 232.733C183.109 235.977 178.433 238.976 173.244 241.729L172.584 242.075L161.003 261.639L158.86 260.363L170.804 240.186L171.121 240.022C176.571 237.197 181.444 234.109 185.74 230.759C188.889 228.304 191.992 225.502 195.049 222.354L124.799 222.352C115.377 222.352 107.657 214.716 107.483 205.306L107.48 204.981V136.351C107.485 133.888 106.994 131.45 106.036 129.183C102.159 120.006 91.6768 115.666 82.4995 119.371L82.1836 119.502L78.4345 121.096L82.4376 134.816C85.6937 145.977 86.253 157.752 84.0742 169.167L83.9214 169.945C81.7008 180.933 82.192 192.295 85.3468 203.043L85.5713 203.792L91.5073 223.197L77.9621 243.445L75.8933 242.051L88.776 222.792L83.1892 204.525C79.8418 193.582 79.1723 181.997 81.2286 170.751L75.9031 170.751C75.2151 170.751 74.6573 170.191 74.6573 169.501C74.6573 168.854 75.1475 168.321 75.7758 168.257L75.9031 168.251L81.7104 168.252C82.1078 166.095 82.4042 163.926 82.5999 161.751L72.9131 161.751C72.2251 161.751 71.6673 161.191 71.6673 160.501C71.6673 159.854 72.1575 159.321 72.7857 159.257L72.9131 159.251L82.7804 159.252C83.2012 151.526 82.3571 143.762 80.2613 136.271L80.0462 135.519L75.4205 119.663L81.211 117.2C91.1201 112.985 102.47 117.115 107.48 126.431L107.48 54.3852C107.48 44.9377 115.095 37.1896 124.474 37.0147L124.799 37.0117H195.492ZM192.709 181.251L109.971 181.251L109.971 204.981C109.971 213.054 116.475 219.68 124.486 219.849L124.799 219.852H195.492C202.01 219.852 207.668 215.548 209.607 209.528L208.656 210.124C202.699 213.859 194.853 212.041 191.131 206.065C187.466 200.18 189.165 192.458 194.905 188.657L195.177 188.481L200.524 185.129C197.601 184.804 194.812 183.469 192.709 181.251ZM211.485 181.492L208.656 183.266C207.934 183.719 207.185 184.09 206.419 184.382L196.497 190.601C191.707 193.604 190.251 199.934 193.244 204.74C196.184 209.461 202.325 210.955 207.082 208.158L207.335 208.004L220.307 199.871C225.097 196.868 226.554 190.538 223.561 185.733C220.973 181.577 215.906 179.922 211.485 181.492ZM211.485 154.634L208.656 156.409C207.934 156.861 207.185 157.232 206.419 157.524L196.497 163.743C191.707 166.746 190.251 173.076 193.244 177.882C193.433 178.186 193.635 178.476 193.849 178.752L194.324 179.321C197.089 182.402 201.454 183.497 205.322 182.122L208.149 180.348C208.87 179.896 209.619 179.525 210.385 179.234L220.307 173.013C225.097 170.011 226.554 163.68 223.561 158.875C220.973 154.72 215.906 153.065 211.485 154.634ZM184.065 123.457H179.877V121.352H184.065L184.065 119.255H181.967V117.15H184.065V119.247H186.163V117.15H188.254V119.247L189.206 119.247C189.15 117.822 189.332 116.401 189.74 115.044L188.254 115.044V110.842H190.352L190.351 113.416C191.31 111.311 192.848 109.445 194.905 108.083L195.177 107.908L208.149 99.7747C208.849 99.3354 209.576 98.973 210.319 98.6851L210.319 62.7507H109.971V178.751L190.86 178.751C187.555 172.929 189.312 165.502 194.905 161.799L195.177 161.623L200.524 158.271C196.791 157.856 193.276 155.793 191.131 152.349C189.61 149.907 189.013 147.149 189.245 144.485L188.254 144.485V142.38L189.606 142.38C189.793 141.659 190.042 140.954 190.351 140.275L186.163 140.275V138.177H188.254V136.072H190.352L190.351 140.274C191.31 138.169 192.848 136.303 194.905 134.941L195.177 134.765L200.524 131.413C196.791 130.998 193.276 128.935 191.131 125.491C190.721 124.833 190.378 124.153 190.101 123.457L188.254 123.457V121.352H184.065V123.457ZM120.847 156.751V165.501H129.568V168.001H118.355V156.751H120.847ZM66.7773 159.251C67.4654 159.251 68.0232 159.811 68.0232 160.501C68.0232 161.148 67.5329 161.68 66.9047 161.744L66.7773 161.751H63.9499C63.2619 161.751 62.7041 161.191 62.7041 160.501C62.7041 159.854 63.1943 159.321 63.8226 159.257L63.9499 159.251H66.7773ZM211.482 127.777L208.656 129.551C207.934 130.003 207.185 130.374 206.419 130.666L196.497 136.886C191.707 139.888 190.251 146.219 193.244 151.024C195.832 155.18 200.899 156.835 205.319 155.265L208.149 153.49C208.87 153.038 209.619 152.667 210.385 152.376L220.307 146.156C225.097 143.153 226.554 136.823 223.561 132.017C220.972 127.861 215.904 126.206 211.482 127.777ZM186.163 152.89V154.995H184.065V152.89H186.163ZM144.255 140.26V154.995H129.568V140.275H140.059V140.26H144.255ZM169.394 150.793V154.995H165.205V152.89H167.296V150.793H169.394ZM152.632 136.072L150.534 136.072L150.534 131.87H152.632L152.632 125.555H154.722V121.352H152.632V123.457H148.436V121.352H150.534V119.247H152.632V117.15L154.722 117.15L154.722 119.247H156.82V125.555H163.107V129.765H165.205L165.204 131.862L167.28 131.862V127.652H169.378V129.757H171.476V127.652H173.575V129.757H177.771V136.072H179.869V133.967H184.065V136.049H186.163V138.154H184.065V140.26H181.967V142.365H184.065V144.47H186.163V146.575H184.065V152.89H181.967V154.995H179.869V148.703L177.778 148.703L177.779 154.995H175.68V150.793H173.59V148.687L177.77 148.687L177.771 146.598L171.491 146.597L171.492 150.793L169.394 150.793V148.688H167.296V150.793L163.108 150.793V154.995H161.009V152.89H156.821V150.793H158.919L158.918 148.688H156.82V146.583H154.722V140.275H156.82V144.485H161.009V146.583L163.083 146.582L163.084 142.388H165.182V140.283L163.106 140.282L163.107 142.38H158.919V138.177H161.009V140.275L163.083 140.274L163.084 138.177H165.182V136.072H163.107V133.967H165.182L165.181 131.87L161.009 131.87V133.967H156.821V131.87H152.632V136.072ZM150.534 136.072V140.275L152.632 140.275V144.485H150.534L150.534 140.275H148.436V148.687H150.534V146.582H152.632V148.687H154.723V154.995H150.534V152.89H152.632V150.793H148.436V152.89H146.345V138.177H148.436L148.436 136.072H150.534ZM142.149 142.38H131.658V152.905H142.149V142.38ZM173.59 150.793V152.898H171.492V150.793H173.59ZM188.254 148.687V152.89L186.163 152.89L186.163 148.687H188.254ZM140.059 144.485V150.793H133.764V144.485H140.059ZM181.967 146.598H179.869V148.703H181.967V146.598ZM171.476 144.493H165.182V146.598L163.107 146.597L163.107 148.687L167.296 148.688V146.583L171.476 146.582L171.476 144.493ZM161.009 146.583L158.918 146.583V148.688L161.009 148.687L161.009 146.583ZM179.877 138.17H173.582V144.485H179.877V138.17ZM169.378 133.967H165.205V136.072H167.28V142.388H169.378V140.283H171.476V138.177H169.378V133.967ZM177.779 140.275V142.38H175.68V140.275H177.779ZM135.862 131.87V136.073H133.764V138.178H131.674V131.87L135.862 131.87ZM137.96 125.554V127.659L144.247 127.66V129.765H142.149V131.87H144.247V133.967H142.149V136.072H144.247V138.177H140.059V131.87L135.862 131.87V129.765H131.674V127.659H129.576V125.554H137.96ZM137.96 136.072V138.177H135.862V136.073L137.96 136.072ZM156.821 133.967L156.82 136.072H158.919V138.177H154.722V133.967H156.821ZM175.688 131.87H173.59V136.08H175.688V131.87ZM171.476 131.862H169.378V133.967H171.476V131.862ZM161.009 127.66H158.919V131.87H161.009V127.66ZM146.345 110.842V112.939H140.059L140.059 119.247H144.248V117.149H146.346V115.044H148.436V112.939H158.919V115.044H161.009V119.247L156.82 119.247V117.15L154.722 117.15L154.722 115.044H150.534V117.15H148.435V119.247H146.345L146.346 127.659H148.436V125.554H150.534V127.659H148.443V129.765L150.534 129.765L150.534 131.87H148.436V129.765L146.345 129.765L146.346 127.659L144.247 127.66L144.248 125.554H142.149V123.457H144.248V121.352H140.059V119.247L135.862 119.247V121.352H131.674V119.247H133.764V117.15H135.862V115.044H133.764V112.939H131.674V110.842H146.345ZM184.065 125.554V127.659H190.352V131.87H184.065V129.765L181.975 129.765V131.87H179.877V129.765L181.967 129.765V125.554H184.065ZM209.723 101.741L209.469 101.895L196.497 110.028C191.707 113.031 190.251 119.361 193.244 124.166C195.832 128.322 200.899 129.977 205.319 128.407L208.149 126.633C208.87 126.18 209.619 125.81 210.385 125.518L220.307 119.298C225.097 116.295 226.554 109.965 223.561 105.159C220.62 100.438 214.479 98.9442 209.723 101.741ZM167.296 119.247V121.352H173.59V119.247H175.681V121.352H177.779V125.555H171.492V123.457H167.296V125.555H165.205V123.457H158.919V121.352H161.009V119.247H167.296ZM140.059 121.352L140.059 125.554H137.96V123.457H135.862L135.862 121.352L140.059 121.352ZM165.205 117.149H163.107V112.939H165.205L165.205 110.842H167.296V104.534H169.394V112.939H177.779V110.842H181.967V112.939H184.065V115.044H177.779V117.15H179.877V119.247H175.681V115.044H167.296V112.939H165.205V117.149ZM131.674 115.044L131.674 119.247H129.576V115.044H131.674ZM144.247 115.044L144.248 117.149H142.149V115.044H144.247ZM137.96 112.939H135.862V115.044H137.96V112.939ZM161.009 106.632V108.737H163.107V110.842H158.919V106.632H161.009ZM152.632 106.632V108.737H154.723V106.632H156.821V110.842H148.436V108.737H150.534V106.632H152.632ZM173.59 106.632V110.842H171.492V106.632H173.59ZM190.352 94.0165V108.752H175.665V94.0165H190.352ZM144.255 94.0009V108.737H129.568V94.0009H144.255ZM165.205 104.534V108.737H163.107V104.534H165.205ZM148.443 94.0165V96.1216H150.534V94.0165H152.632V96.1216H154.722V94.0165H163.107V96.1216H165.205V100.324H167.296V104.534L165.205 104.534V102.429H163.107V98.2186H161.009V96.1213H156.82V98.2186H158.919V104.534H156.82V102.429H154.722L154.723 106.632H152.632V104.534H150.534V106.632H148.436V108.737H146.345V102.429H148.436V100.324H150.534V102.429H152.632V98.2189H148.436V96.1216H146.345V94.0165H148.443ZM188.254 96.1138H177.763V106.639H188.254V96.1138ZM142.164 96.1138H131.674V106.639H142.164V96.1138ZM140.059 98.2189V104.534H133.764V98.2189H140.059ZM186.164 98.2189V104.534H179.877V98.2189H186.164ZM173.59 100.324V104.534H169.394V100.324H173.59ZM169.394 100.324H167.296V96.1216H169.394V94.0162H173.59V98.2189H171.492V96.1213L169.394 96.1216V100.324ZM129.568 76.7509V79.2509H120.847V88.0009H118.355V76.7509H129.568ZM200.332 76.7509V88.0009H197.84V79.2509H189.12V76.7509H200.332ZM238.86 69.2509C239.548 69.2509 240.106 69.8106 240.106 70.5009C240.106 71.1481 239.616 71.6805 238.987 71.7445L238.86 71.7509H237.365C236.677 71.7509 236.119 71.1913 236.119 70.5009C236.119 69.8537 236.609 69.3214 237.238 69.2574L237.365 69.2509H238.86ZM231.711 69.2509C232.399 69.2509 232.957 69.8106 232.957 70.5009C232.957 71.1481 232.466 71.6805 231.838 71.7445L231.711 71.7509H228.395C227.707 71.7509 227.149 71.1913 227.149 70.5009C227.149 69.8537 227.639 69.3214 228.267 69.2574L228.395 69.2509H231.711ZM195.492 39.5117H124.799C116.751 39.5117 110.143 46.0392 109.975 54.0715L109.971 54.3852L109.971 60.2507H210.319L210.32 54.3844C210.32 46.314 203.814 39.6837 195.805 39.515L195.492 39.5117Z" fill="#006FCF"/>
</g>
<defs>
<clipPath id="clip0">
<rect width="300" height="300" fill="white"/>
</clipPath>
</defs>
</svg>
