<svg width="400" height="400" viewBox="0 0 400 400" fill="none" xmlns="http://www.w3.org/2000/svg">
<rect width="400" height="400" fill="white"/>
<path fill-rule="evenodd" clip-rule="evenodd" d="M113.388 282.075C113.388 284.878 110.839 287.15 107.694 287.15C104.549 287.15 102 284.878 102 282.075C102 279.272 104.549 277 107.694 277C110.839 277 113.388 279.272 113.388 282.075ZM103.963 282.075C103.963 283.911 105.634 285.4 107.694 285.4C109.754 285.4 111.424 283.911 111.424 282.075C111.424 280.239 109.754 278.75 107.694 278.75C105.634 278.75 103.963 280.239 103.963 282.075Z" fill="#D8D8D8"/>
<path fill-rule="evenodd" clip-rule="evenodd" d="M296.421 175.834V172.875C296.421 172.392 296.861 172 297.403 172C297.945 172 298.384 172.392 298.384 172.875V175.834H301.344C301.827 175.834 302.219 176.274 302.219 176.816C302.219 177.358 301.827 177.798 301.344 177.798H298.384V180.757C298.384 181.24 297.945 181.632 297.403 181.632C296.861 181.632 296.421 181.24 296.421 180.757V177.798H293.462C292.979 177.798 292.587 177.358 292.587 176.816C292.587 176.274 292.979 175.834 293.462 175.834H296.421Z" fill="#D8D8D8"/>
<rect x="250.2" y="250" width="26" height="12" fill="#D8D8D8"/>
<path fill-rule="evenodd" clip-rule="evenodd" d="M60.5518 145.214L60.5518 88H342.446V145.214H251.25V130.571L277.391 130.907C283.553 130.986 288.591 126.013 288.591 119.85C288.591 113.743 283.64 108.793 277.533 108.793H121.415C115.402 108.793 110.526 113.668 110.526 119.682C110.526 125.696 115.402 130.571 121.415 130.571H149.75V145.214H60.5518Z" fill="#D8D8D8"/>
<path fill-rule="evenodd" clip-rule="evenodd" d="M311.5 276.25C311.5 280.254 308.254 283.5 304.25 283.5C300.246 283.5 297 280.254 297 276.25C297 272.246 300.246 269 304.25 269C308.254 269 311.5 272.246 311.5 276.25ZM299.5 276.25C299.5 278.873 301.627 281 304.25 281C306.873 281 309 278.873 309 276.25C309 273.627 306.873 271.5 304.25 271.5C301.627 271.5 299.5 273.627 299.5 276.25Z" fill="#D8D8D8"/>
<path fill-rule="evenodd" clip-rule="evenodd" d="M102.406 188.915C102.87 189.073 103.316 189.279 103.74 189.53C104.334 189.883 104.53 190.649 104.178 191.243C103.826 191.837 103.059 192.033 102.465 191.681C101.754 191.259 100.948 191.035 100.107 191.035C97.5153 191.035 95.4014 193.181 95.383 195.849C95.4299 195.981 95.4555 196.122 95.4555 196.27C95.4555 196.96 94.8958 197.52 94.2055 197.52H89.25C88.5596 197.52 88 196.96 88 196.27C88 195.579 88.5596 195.02 89.25 195.02H92.9324C93.3458 191.433 96.2998 188.629 99.924 188.537C100.939 184.195 104.807 181 109.376 181C113.959 181 117.83 184.213 118.834 188.567C121.237 188.827 123.171 190.658 123.627 193.02H126.205C126.896 193.02 127.455 193.579 127.455 194.27C127.455 194.96 126.896 195.52 126.205 195.52H121.25C120.56 195.52 120 194.96 120 194.27C120 193.649 120.453 193.134 121.046 193.036C120.626 191.866 119.527 191.035 118.243 191.035C117.783 191.035 117.34 191.14 116.937 191.342C116.319 191.65 115.569 191.399 115.26 190.781C114.952 190.163 115.203 189.413 115.821 189.105C115.989 189.021 116.161 188.946 116.336 188.88C115.501 185.766 112.685 183.5 109.376 183.5C106.056 183.5 103.229 185.781 102.406 188.915ZM83.2055 197.52H78.25C77.5596 197.52 77 196.96 77 196.27C77 195.579 77.5596 195.02 78.25 195.02H83.2055C83.8958 195.02 84.4555 195.579 84.4555 196.27C84.4555 196.96 83.8958 197.52 83.2055 197.52Z" fill="#D8D8D8"/>
<path fill-rule="evenodd" clip-rule="evenodd" d="M320.63 229.63V225.25C320.63 224.56 321.189 224 321.88 224C322.57 224 323.13 224.56 323.13 225.25V229.63H327.509C328.2 229.63 328.759 230.189 328.759 230.88C328.759 231.57 328.2 232.13 327.509 232.13H323.13V236.509C323.13 237.2 322.57 237.759 321.88 237.759C321.189 237.759 320.63 237.2 320.63 236.509V232.13H316.25C315.56 232.13 315 231.57 315 230.88C315 230.189 315.56 229.63 316.25 229.63H320.63Z" fill="#D8D8D8"/>
<path fill-rule="evenodd" clip-rule="evenodd" d="M201.63 65.6297V61.25C201.63 60.5596 202.189 60 202.88 60C203.57 60 204.13 60.5596 204.13 61.25V65.6297H208.509C209.2 65.6297 209.759 66.1894 209.759 66.8797C209.759 67.5701 209.2 68.1297 208.509 68.1297H204.13V72.5095C204.13 73.1998 203.57 73.7595 202.88 73.7595C202.189 73.7595 201.63 73.1998 201.63 72.5095V68.1297H197.25C196.56 68.1297 196 67.5701 196 66.8797C196 66.1894 196.56 65.6297 197.25 65.6297H201.63Z" fill="#D8D8D8"/>
<path fill-rule="evenodd" clip-rule="evenodd" d="M343.696 147.274V88H58V147.274L149.749 147.274L149.75 277.822H175.886V276.572L175.89 276.183C176.097 263.38 186.54 253.066 199.392 253.066H201.985L202.374 253.069C215.176 253.277 225.491 263.72 225.491 276.572V277.822H251.496L251.496 263.582L261.449 263.582L261.45 266.363L261.456 266.491C261.52 267.121 262.053 267.613 262.7 267.613C263.39 267.613 263.95 267.053 263.95 266.363L263.949 263.582H269.449L269.45 268.363L269.456 268.491C269.52 269.121 270.053 269.613 270.7 269.613C271.39 269.613 271.95 269.053 271.95 268.363L271.949 263.582L278.45 263.583V247.683L278.445 247.682L278.446 216.522L278.441 216.203C278.352 213.34 276.944 210.639 274.767 208.761L251.25 189.741V147.274L343.696 147.274ZM211.699 300.626L201.449 290.377L191.2 300.626L192.968 302.394L200.334 295.029L200.333 310.667H202.833L202.834 295.297L209.931 302.394L211.699 300.626ZM270.7 272.083C271.347 272.083 271.88 272.575 271.944 273.205L271.95 273.333V275.363C271.95 276.053 271.39 276.613 270.7 276.613C270.053 276.613 269.52 276.121 269.456 275.491L269.45 275.363V273.333C269.45 272.642 270.01 272.083 270.7 272.083ZM152.25 119.983H248.75V209.929L246.826 208.19L246.615 208.006C243.486 205.37 238.851 205.502 235.877 208.355C232.988 211.126 232.893 215.713 235.664 218.602L235.862 218.801L247.116 229.38L246.987 229.627C243.307 236.788 243.954 243.435 248.94 249.325L248.949 249.336L248.95 263.583L248.996 263.582V275.321H227.96L227.936 274.874C227.062 261.303 215.777 250.566 201.985 250.566H199.392L198.962 250.57C185.227 250.792 174.081 261.663 173.418 275.287L173.416 275.321H152.25V119.983ZM275.95 250.182H251.45V261.082H275.95V250.182ZM251.25 212.186V192.97L273.134 210.654L273.353 210.85C274.924 212.313 275.946 214.366 275.946 216.522L275.945 247.682L250.826 247.683C246.298 242.318 245.939 236.435 249.763 229.754L250.253 228.897L237.642 217.044L237.468 216.871C235.653 214.979 235.715 211.974 237.608 210.159C239.703 208.149 242.995 208.1 245.15 210.046L268.28 230.935L269.956 229.08L251.25 212.186ZM233.335 223.03V225.53H171.189V223.03H233.335ZM227.353 207.586V205.086H171.189V207.586H227.353ZM219.877 187.142V189.642H171.189V187.142H219.877ZM208.728 159.736V157.236H171.189V159.736H208.728ZM341.196 90.5H60.5V144.774H149.75V131.887H121.337C114.672 131.887 109.276 126.413 109.276 119.669C109.276 113.028 114.51 107.618 121.035 107.455L121.337 107.451H277.78C284.445 107.451 289.841 112.926 289.841 119.669C289.841 126.311 284.607 131.721 278.082 131.883L277.78 131.887H251.25V144.774L341.196 144.774V90.5ZM121.337 109.951H277.78L278.052 109.955C283.203 110.102 287.341 114.391 287.341 119.669C287.341 125.04 283.056 129.387 277.78 129.387H251.25V117.484H149.75V129.387H121.337L121.065 129.383C115.914 129.237 111.776 124.948 111.776 119.669C111.776 114.298 116.061 109.951 121.337 109.951Z" fill="#979797"/>
</svg>
