<svg width="400" height="400" viewBox="0 0 400 400" fill="none" xmlns="http://www.w3.org/2000/svg">
<rect width="400" height="400" fill="white"/>
<path opacity="0.5" d="M181.522 296.646V121.646H142.522V296.646H181.522Z" fill="#D8D8D8"/>
<path fill-rule="evenodd" clip-rule="evenodd" d="M250 289.6H277V303H250V289.6Z" fill="#D8D8D8"/>
<path d="M246.25 73.5C250.254 73.5 253.5 70.2541 253.5 66.25C253.5 62.2459 250.254 59 246.25 59C242.246 59 239 62.2459 239 66.25C239 70.2541 242.246 73.5 246.25 73.5ZM246.25 71C243.627 71 241.5 68.8734 241.5 66.25C241.5 63.6266 243.627 61.5 246.25 61.5C248.873 61.5 251 63.6266 251 66.25C251 68.8734 248.873 71 246.25 71ZM82 242.75C75.7868 242.75 70.75 247.787 70.75 254C70.75 260.213 75.7868 265.25 82 265.25C88.2132 265.25 93.25 260.213 93.25 254C93.25 247.787 88.2132 242.75 82 242.75ZM82 245.25C86.8325 245.25 90.75 249.168 90.75 254C90.75 258.832 86.8325 262.75 82 262.75C77.1675 262.75 73.25 258.832 73.25 254C73.25 249.168 77.1675 245.25 82 245.25Z" fill="#D8D8D8"/>
<path d="M204.75 325.5C207.373 325.5 209.5 323.373 209.5 320.75C209.5 318.127 207.373 316 204.75 316C202.127 316 200 318.127 200 320.75C200 323.373 202.127 325.5 204.75 325.5ZM204.75 323C203.507 323 202.5 321.993 202.5 320.75C202.5 319.507 203.507 318.5 204.75 318.5C205.993 318.5 207 319.507 207 320.75C207 321.993 205.993 323 204.75 323Z" fill="#D8D8D8"/>
<path d="M291.091 183C295.66 183 299.528 186.195 300.543 190.538C304.167 190.628 307.122 193.432 307.535 197.019L311.205 197.02C311.896 197.02 312.455 197.579 312.455 198.27C312.455 198.96 311.896 199.52 311.205 199.52H306.25C305.56 199.52 305 198.96 305 198.27C305 198.113 305.029 197.962 305.082 197.824C305.053 195.168 302.944 193.035 300.361 193.035C299.52 193.035 298.714 193.259 298.002 193.681C297.409 194.033 296.642 193.837 296.29 193.243C295.938 192.649 296.134 191.883 296.728 191.53C297.151 191.279 297.598 191.073 298.061 190.915C297.239 187.782 294.411 185.5 291.091 185.5C287.781 185.5 284.965 187.766 284.131 190.88C284.307 190.946 284.479 191.021 284.647 191.105C285.265 191.413 285.516 192.163 285.208 192.781C284.9 193.399 284.149 193.65 283.531 193.342C283.128 193.14 282.685 193.035 282.225 193.035C280.94 193.035 279.841 193.867 279.421 195.039C280.009 195.141 280.455 195.653 280.455 196.27C280.455 196.96 279.896 197.52 279.205 197.52H274.25C273.56 197.52 273 196.96 273 196.27C273 195.579 273.56 195.02 274.25 195.02L276.842 195.02C277.297 192.658 279.231 190.828 281.633 190.567C282.636 186.213 286.508 183 291.091 183ZM322.205 197.02C322.896 197.02 323.455 197.579 323.455 198.27C323.455 198.96 322.896 199.52 322.205 199.52H317.25C316.56 199.52 316 198.96 316 198.27C316 197.579 316.56 197.02 317.25 197.02H322.205ZM143.376 58C147.959 58 151.83 61.2132 152.834 65.567C155.237 65.8269 157.171 67.6574 157.627 70.0197L160.205 70.0198C160.896 70.0198 161.455 70.5794 161.455 71.2698C161.455 71.9601 160.896 72.5198 160.205 72.5198H155.25C154.56 72.5198 154 71.9601 154 71.2698C154 70.6494 154.452 70.1345 155.045 70.0366C154.627 68.8669 153.527 68.0348 152.243 68.0348C151.783 68.0348 151.34 68.1405 150.937 68.3415C150.319 68.6498 149.569 68.3989 149.26 67.7812C148.952 67.1635 149.203 66.4128 149.821 66.1046C149.989 66.0207 150.161 65.9458 150.336 65.88C149.502 62.7664 146.685 60.5 143.376 60.5C140.056 60.5 137.228 62.7812 136.406 65.9161C136.87 66.0733 137.317 66.2793 137.74 66.5305C138.334 66.8825 138.53 67.6493 138.178 68.2432C137.826 68.837 137.059 69.0331 136.465 68.681C135.754 68.2594 134.948 68.0348 134.107 68.0348C131.514 68.0348 129.399 70.1836 129.383 72.8533C129.43 72.983 129.455 73.1234 129.455 73.2698C129.455 73.9601 128.896 74.5198 128.205 74.5198H123.25C122.56 74.5198 122 73.9601 122 73.2698C122 72.5794 122.56 72.0198 123.25 72.0198L126.932 72.0192C127.346 68.4324 130.3 65.6287 133.924 65.5371C134.939 61.1949 138.807 58 143.376 58ZM117.205 72.0198C117.896 72.0198 118.455 72.5794 118.455 73.2698C118.455 73.9601 117.896 74.5198 117.205 74.5198H112.25C111.56 74.5198 111 73.9601 111 73.2698C111 72.5794 111.56 72.0198 112.25 72.0198H117.205Z" fill="#D8D8D8"/>
<path d="M87.9293 182C88.6196 182 89.1793 182.56 89.1793 183.25L89.179 189.333L95.2626 189.333C95.9098 189.333 96.4421 189.825 96.5062 190.456L96.5126 190.583C96.5126 191.274 95.953 191.833 95.2626 191.833L89.179 191.833L89.1793 198.263C89.1793 198.91 88.6874 199.442 88.0571 199.506L87.9293 199.513C87.2389 199.513 86.6793 198.953 86.6793 198.263L86.679 191.833L80.25 191.833C79.6028 191.833 79.0705 191.341 79.0065 190.711L79 190.583C79 189.893 79.5596 189.333 80.25 189.333L86.679 189.333L86.6793 183.25C86.6793 182.603 87.1712 182.07 87.8015 182.006L87.9293 182Z" fill="#D8D8D8"/>
<path d="M87.8797 302C88.5701 302 89.1297 302.56 89.1297 303.25L89.129 307.629L93.5095 307.63C94.1567 307.63 94.689 308.122 94.753 308.752L94.7595 308.88C94.7595 309.57 94.1998 310.13 93.5095 310.13L89.129 310.129L89.1297 314.509C89.1297 315.157 88.6379 315.689 88.0075 315.753L87.8797 315.759C87.1894 315.759 86.6297 315.2 86.6297 314.509L86.629 310.129L82.25 310.13C81.6028 310.13 81.0705 309.638 81.0065 309.008L81 308.88C81 308.189 81.5596 307.63 82.25 307.63L86.629 307.629L86.6297 303.25C86.6297 302.603 87.1216 302.07 87.7519 302.006L87.8797 302Z" fill="#D8D8D8"/>
<path d="M318.09 252C318.78 252 319.34 252.56 319.34 253.25L319.339 255.666L321.756 255.667C322.404 255.667 322.936 256.159 323 256.789L323.006 256.917C323.006 257.607 322.447 258.167 321.756 258.167L319.339 258.166L319.34 260.756C319.34 261.404 318.848 261.936 318.217 262L318.09 262.006C317.399 262.006 316.84 261.447 316.84 260.756L316.839 258.166L314.25 258.167C313.603 258.167 313.07 257.675 313.006 257.044L313 256.917C313 256.226 313.56 255.667 314.25 255.667L316.839 255.666L316.84 253.25C316.84 252.603 317.332 252.07 317.962 252.006L318.09 252Z" fill="#D8D8D8"/>
<path fill-rule="evenodd" clip-rule="evenodd" d="M59.5518 145.214V88H341.446V145.214H258.314V130.571L276.463 130.869C282.509 130.968 287.49 126.147 287.589 120.101C287.59 120.042 287.591 119.982 287.591 119.922C287.591 113.776 282.608 108.793 276.462 108.793H120.415C114.402 108.793 109.526 113.668 109.526 119.682C109.526 125.696 114.402 130.571 120.415 130.571H141.75V145.214H59.5518Z" fill="#D8D8D8"/>
<path d="M271.5 313.75C272.147 313.75 272.68 314.242 272.744 314.872L272.75 315V317.03C272.75 317.721 272.19 318.28 271.5 318.28C270.853 318.28 270.32 317.788 270.256 317.158L270.25 317.03V315C270.25 314.31 270.81 313.75 271.5 313.75ZM342.696 88V147.274L259.563 147.274V236.62L275.567 250.428C277.743 252.306 279.028 255.007 279.117 257.87L279.122 258.189L279.121 289.349L279.25 289.35V305.25L272.749 305.249L272.75 310.03C272.75 310.721 272.19 311.28 271.5 311.28C270.853 311.28 270.32 310.788 270.256 310.158L270.25 310.03L270.249 305.249H264.749L264.75 308.03C264.75 308.721 264.19 309.28 263.5 309.28C262.853 309.28 262.32 308.788 262.256 308.158L262.25 308.03L262.249 305.249L249.75 305.25L249.749 298.168L140.064 298.168L140.063 147.274L57 147.274V88H342.696ZM276.75 291.849H252.25V302.749H276.75V291.849ZM180.478 121.878L142.564 121.879V295.669L180.478 295.668V121.878ZM182.978 121.878V295.668L249.749 295.668L249.749 291.16C245.699 285.593 245.387 279.389 248.803 272.743L248.932 272.495L237.678 261.917L237.48 261.717C234.709 258.829 234.804 254.241 237.693 251.47C240.667 248.617 245.302 248.485 248.43 251.122L248.641 251.306L257.063 258.911L257.064 121.879L182.978 121.878ZM259.563 239.922V261.169L271.772 272.195L270.096 274.051L246.966 253.161C244.811 251.215 241.519 251.264 239.423 253.274C237.531 255.089 237.469 258.095 239.284 259.987L239.37 260.074L252.069 272.013L251.579 272.869C248.096 278.955 248.083 284.377 251.53 289.35L276.621 289.349L276.622 258.189C276.622 256.033 275.724 253.98 274.153 252.517L273.934 252.321L259.563 239.922ZM197.741 223.515C198.863 223.515 199.881 224.18 200.296 225.21L200.789 226.425C203.562 233.186 205.946 237.803 207.097 238.563L207.166 238.603H208.55L208.752 238.431C210.168 237.27 211.959 236.355 213.98 235.758L214.024 235.745L214.172 235.588C215.641 234.107 217.999 233.781 219.857 234.839L220.061 234.961L224.363 234.962C230.054 234.962 233.652 238.403 233.774 244.431L233.777 244.75C233.777 250.969 230.333 254.416 224.663 254.533L224.363 254.536L220.063 254.535C218.168 255.74 215.691 255.446 214.17 253.909L214.022 253.751L213.979 253.739C211.958 253.142 210.168 252.227 208.752 251.067L208.549 250.894H207.166C206.059 251.505 203.706 256.004 200.952 262.678L200.297 264.288C199.907 265.261 198.975 265.909 197.927 265.978L197.741 265.984H195.531V263.484H197.741C197.858 263.484 197.949 263.424 197.976 263.357L198.361 262.403C201.791 253.959 204.248 249.289 206.446 248.488L206.568 248.448L206.744 248.395H209.521L209.882 248.734C211.072 249.855 212.73 250.761 214.672 251.337L215.064 251.448L215.49 251.563L215.749 251.919C216.417 252.834 217.771 253.06 218.759 252.401L218.897 252.301L219.237 252.036H224.363C228.847 252.036 231.277 249.679 231.277 244.75C231.277 240.014 228.883 237.563 224.631 237.465L224.363 237.462H219.235L218.896 237.196C217.947 236.455 216.581 236.606 215.85 237.454L215.75 237.58L215.49 237.935L215.065 238.049C213.086 238.581 211.379 239.451 210.126 240.543L209.882 240.764L209.521 241.104H206.745L206.569 241.051C204.26 240.359 201.679 235.357 197.977 226.143C197.955 226.088 197.892 226.039 197.808 226.021L197.741 226.015H195.531V223.515H197.741ZM167.252 136.192V245.742H164.752V136.192H167.252ZM159.819 136.192V245.742H157.319V136.192H159.819ZM219.724 136.209V197.948H217.224V136.209H219.724ZM230.129 136.209V175.651H227.629V136.209H230.129ZM204.859 136.209V175.651H202.359V136.209H204.859ZM197.427 136.209V175.651H194.927V136.209H197.427ZM237.562 136.209V160.786H235.062V136.209H237.562ZM340.196 90.5H59.5V144.774L140.063 144.774V131.886L120.337 131.887C113.672 131.887 108.276 126.413 108.276 119.669C108.276 113.028 113.51 107.618 120.035 107.455L120.337 107.451H276.78C283.445 107.451 288.841 112.926 288.841 119.669C288.841 126.311 283.607 131.721 277.082 131.883L276.78 131.887L259.563 131.886V144.774L340.196 144.774V90.5ZM276.78 109.951H120.337C115.061 109.951 110.776 114.298 110.776 119.669C110.776 124.948 114.914 129.237 120.065 129.383L120.337 129.387L140.063 129.386L140.064 119.378H259.564L259.563 129.386L276.78 129.387C282.056 129.387 286.341 125.04 286.341 119.669C286.341 114.391 282.203 110.102 277.052 109.955L276.78 109.951Z" fill="#979797"/>
</svg>
