<svg width="500" height="500" viewBox="0 0 500 500" fill="none" xmlns="http://www.w3.org/2000/svg">
<rect width="500" height="500" fill="white"/>
<path fill-rule="evenodd" clip-rule="evenodd" d="M261.5 140C281.203 140 299.811 144.69 316.268 153.014C312.945 157.845 311 163.695 311 170C311 186.569 324.431 200 341 200C348.809 200 355.922 197.016 361.259 192.126C368.869 203.047 374.73 215.276 378.439 228.409C368.266 231.692 361 240.343 361 250.5C361 261.114 368.935 270.084 379.831 273.001L401.5 273C403.985 273 406 275.015 406 277.5C406 279.985 403.985 282 401.5 282L381.277 282.001C380.527 286.42 379.537 290.758 378.323 295.001L385.5 295C387.985 295 390 297.015 390 299.5C390 301.985 387.985 304 385.5 304L375.359 304.001C374.189 307.135 372.892 310.209 371.476 313.215C370.342 315.623 367.143 317.264 365.858 319.583C364.482 322.066 365.009 325.22 363.468 327.592C362.761 328.681 360.863 327.701 359.665 328.091C357.253 328.879 355.14 330.481 353.516 332.522C352.661 333.597 351.175 334.923 350.547 336.689C349.961 338.335 350.22 340.402 349.774 341.959C349.652 342.384 349.496 340.63 348.27 340.299C346.581 339.842 343.671 340.691 343.341 341.04C342.067 342.386 339.952 342.081 338.476 342.877C334.866 344.825 331.592 347.073 328.433 350.426C327.261 351.67 326.438 353.906 325.633 356.203L325.331 357.065C324.423 359.648 323.484 362.16 322.04 363.274C320.662 364.338 320.194 361.875 318.735 361.426C314.208 360.033 308.394 356.117 303.572 358.336C300.553 359.724 294.996 361.722 291.881 365.556C289.918 367.972 290.441 371.986 288.408 374.305C286.575 376.396 283.651 375.163 281.743 376.536C281.094 377.003 280.609 377.91 280.154 378.845L279.928 379.313C279.328 380.558 278.739 381.733 277.838 381.863C272.605 382.619 267.163 383 261.5 383C252.088 383 242.926 381.93 234.13 379.905L233.032 379.647H248.792C253.849 378.65 257.184 377.613 258.797 376.536C262.461 374.088 263.791 369.93 264.747 367.321C264.883 366.949 265.05 366.471 265.247 365.885L265.423 365.357C265.698 364.527 266.023 363.519 266.397 362.336C266.719 361.32 265.573 359.437 262.96 356.689C267.197 354.154 269.552 352.104 270.026 350.538C270.763 348.099 271.572 345.408 272.452 342.465C272.785 341.349 272.011 339.423 270.128 336.689C273.359 334.891 275.142 333.428 275.477 332.301C276.525 328.763 277.648 324.965 278.844 320.906C279.076 320.118 277.926 318.145 275.393 314.989L275.152 314.689L281.743 311.051C283.565 302.02 283.784 296.375 282.398 294.117C280.023 290.247 273.009 290.132 267.739 290.129L267.128 290.129C261.804 290.129 256.868 288.944 251.204 288.481C249.02 288.303 245.883 288.029 241.791 287.66L240.702 287.562C239.777 287.478 238.806 287.39 237.79 287.297C233.766 284.449 232.18 281.363 233.032 278.04C233.884 274.718 235.873 265.436 239 250.197C238.505 240.898 235.298 235.29 229.378 233.374C220.499 230.5 217.357 234.588 217.357 237C217.357 239.412 211.183 254.989 210.215 258.244C209.57 260.415 206.08 268.96 199.747 283.88C197.253 288.48 195.086 291.546 193.247 293.077C191.476 294.551 188.537 295.827 184.431 296.906L183.952 297.029L183.951 318.04L183.942 317.548C183.693 304.649 182.954 292.332 181.081 287.607L180.952 287.297C178.821 282.454 168.646 281.811 158.584 281.77L157.734 281.768L156.886 281.768C154.486 281.772 152.119 281.798 149.897 281.798C148.47 281.798 142.996 288.46 142.744 287.297C141.596 281.986 140.795 276.545 140.366 271L117.5 271C115.015 271 113 268.985 113 266.5C113 264.015 115.015 262 117.5 262L140.001 262.001C140 261.834 140 261.667 140 261.5C140 258.643 140.099 255.808 140.293 253L130.5 253C128.015 253 126 250.985 126 248.5C126 246.015 128.015 244 130.5 244L141.251 244.001C141.995 238.843 143.063 233.791 144.433 228.864L173.979 228.865V192.609C177.836 189.965 180.474 186.794 181.891 183.095C183.308 179.396 183.76 174.99 183.247 169.876L182.52 169.17C203.759 150.984 231.347 140 261.5 140ZM183.951 344.33L183.952 348.797C183.897 355.042 183.86 357.091 183.84 354.945C183.839 354.835 183.838 354.717 183.838 354.591L183.838 354.187C183.84 352.262 183.895 348.87 183.949 344.591L183.951 344.33ZM183.951 318.04L183.959 318.428C184.119 327.531 184.043 336.844 183.957 343.914L183.951 344.33V318.04ZM417.5 273C419.985 273 422 275.015 422 277.5C422 279.985 419.985 282 417.5 282C415.015 282 413 279.985 413 277.5C413 275.015 415.015 273 417.5 273ZM101.5 262C103.985 262 106 264.015 106 266.5C106 268.985 103.985 271 101.5 271H97.5C95.0147 271 93 268.985 93 266.5C93 264.015 95.0147 262 97.5 262H101.5Z" fill="#D8D8D8"/>
<path fill-rule="evenodd" clip-rule="evenodd" d="M335.439 200.152C351.698 200.152 364.879 186.911 364.879 170.576C364.879 154.242 351.698 141 335.439 141C319.18 141 306 154.242 306 170.576C306 175.359 307.13 179.877 309.137 183.875C309.614 184.826 310.851 186.583 312.846 189.147C313.324 190.003 313.934 190.802 314.678 191.546C320.001 196.865 327.338 200.152 335.439 200.152Z" fill="#D8D8D8"/>
<path fill-rule="evenodd" clip-rule="evenodd" d="M335 201.999C340.736 201.999 346.096 200.39 350.652 197.598C354.746 204.614 357.12 212.68 357.12 221.131C357.12 245.44 338.976 264.44 320.926 268.561L320.379 268.681V300.957L277.88 268.589H263.192C251.678 268.589 244.833 265.728 237.518 259.198C240.527 245.869 238.382 237.488 231.083 234.053C223.784 230.618 219.746 230.618 218.969 234.053C217.766 229.867 217.12 225.478 217.12 220.989C217.12 195.604 237.338 173.828 262.43 173.395L263.192 173.389L305.032 173.389C305.758 189.312 318.898 201.999 335 201.999ZM138.559 361.639C137.449 362.645 136.895 362.796 136.895 362.092C136.895 348.249 136.895 327.484 136.895 299.797C136.895 291.513 143.61 284.797 151.895 284.797H165.952C174.236 284.797 180.952 291.513 180.952 299.797V376.47V376.903C180.952 377.917 180.852 378.908 180.66 379.866C180.421 381.059 175.299 380.291 172.5 381.199C170.88 381.724 167.946 385.066 164.358 387.074C163.747 387.416 163.484 386.511 163.57 384.358C163.121 379.897 160.963 375.814 157.098 372.109C153.232 368.405 147.053 364.914 138.559 361.639Z" fill="#D8D8D8"/>
<path fill-rule="evenodd" clip-rule="evenodd" d="M341 199.999C346.736 199.999 352.096 198.39 356.652 195.598C360.746 202.614 363.12 210.68 363.12 219.131C363.12 243.44 344.975 262.44 326.926 266.561L326.379 266.681V298.957L283.88 266.589H269.192C257.88 266.589 247.52 262.196 239.501 255.087L239.074 254.703L224.969 232.053C223.765 227.867 223.12 223.478 223.12 218.989C223.12 193.604 243.337 171.828 268.43 171.395L269.192 171.389L311.032 171.389C311.758 187.312 324.897 199.999 341 199.999Z" fill="white"/>
<path d="M224.845 230.542C225.234 230.625 225.615 230.741 225.984 230.889L226.258 231.005L230.96 233.123C237.966 236.278 241.829 243.863 240.296 251.36L240.221 251.706L234.007 279.105C233.274 282.337 235.299 285.551 238.531 286.283C238.714 286.325 238.898 286.358 239.084 286.382L239.364 286.412L275.427 289.394C281.277 289.878 285.627 295.012 285.143 300.862C285.092 301.489 284.984 302.11 284.822 302.718L284.691 303.171L283.225 307.839C282.208 311.076 279.859 313.643 276.872 314.982L276.72 315.046L276.859 315.145C278.294 316.186 279.271 317.828 279.412 319.717L279.425 319.945C279.446 320.474 279.398 321.004 279.285 321.521L279.209 321.829L276.707 330.961C275.951 333.723 273.977 335.894 271.463 336.962L271.4 336.986L271.507 337.075C272.712 338.106 273.488 339.622 273.533 341.317L273.535 341.539C273.531 341.965 273.479 342.388 273.382 342.802L273.3 343.111L270.958 351.066C270.1 353.979 267.851 356.218 265.035 357.107L264.958 357.129L264.968 357.137C266.451 358.316 267.422 360.112 267.491 362.137L267.495 362.372C267.495 362.916 267.429 363.457 267.298 363.984L267.212 364.299L265.945 368.506C263.792 375.657 257.277 380.588 249.837 380.743L249.477 380.747H210.085C202.91 380.747 195.852 378.951 189.553 375.528L188.965 375.203L184.951 372.939L184.952 373.903C184.952 375.819 184.615 377.688 183.966 379.444C191.605 381.385 197.524 387.626 198.789 395.447C204.643 395.464 209.38 400.251 209.38 406.149L209.378 406.187L214.273 406.188C214.826 406.188 215.273 406.636 215.273 407.188C215.273 407.701 214.887 408.124 214.39 408.181L214.273 408.188H207.181C206.629 408.188 206.181 407.74 206.181 407.188C206.181 406.675 206.567 406.253 207.064 406.195L207.181 406.188L207.381 406.188C207.381 406.175 207.38 406.162 207.38 406.149C207.38 401.341 203.517 397.447 198.756 397.447C197.423 397.447 196.134 397.752 194.964 398.331C194.469 398.576 193.869 398.373 193.625 397.878C193.38 397.383 193.582 396.783 194.077 396.538C194.936 396.113 195.848 395.807 196.791 395.63C195.357 387.188 187.861 380.815 178.916 380.815C169.919 380.815 162.376 387.266 161.012 395.801C162.495 396.13 163.912 396.685 165.225 397.448C165.702 397.725 165.864 398.337 165.587 398.815C165.309 399.292 164.697 399.454 164.22 399.177C162.279 398.049 160.075 397.447 157.779 397.447C150.904 397.447 145.289 402.854 144.949 409.652L146.224 409.653C146.777 409.653 147.224 410.101 147.224 410.653C147.224 411.166 146.838 411.588 146.341 411.646L146.224 411.653H135.377C134.825 411.653 134.377 411.205 134.377 410.653C134.377 410.14 134.763 409.717 135.261 409.66L135.377 409.653L142.947 409.652C143.289 401.749 149.799 395.447 157.779 395.447C158.201 395.447 158.619 395.464 159.035 395.499C159.592 391.994 161.083 388.805 163.244 386.177L163.042 386.21C161.058 373.796 150.711 364.228 137.973 362.921C137.993 363.238 138.003 363.556 138.003 363.877C138.003 364.429 137.555 364.877 137.003 364.877C136.451 364.877 136.003 364.429 136.003 363.877C136.003 356.774 130.251 351.017 123.156 351.017C120.861 351.017 118.656 351.619 116.716 352.747C116.239 353.025 115.626 352.862 115.349 352.385C115.071 351.907 115.234 351.295 115.711 351.018C117.622 349.907 119.756 349.237 121.985 349.063C120.809 339.941 113.158 332.999 104.019 332.999C95.0549 332.999 87.5355 339.673 86.1306 348.517C87.0894 348.707 88.0137 349.037 88.8837 349.499C89.3717 349.757 89.5575 350.363 89.2988 350.851C89.0401 351.338 88.4348 351.524 87.9469 351.266C86.7829 350.648 85.5033 350.324 84.1799 350.324C79.6353 350.324 75.885 354.167 75.5762 359.065L76.8471 359.065C77.3994 359.065 77.8471 359.513 77.8471 360.065C77.8471 360.578 77.4611 361.001 76.9637 361.059L76.8471 361.065H66C65.4477 361.065 65 360.618 65 360.065C65 359.552 65.386 359.13 65.8834 359.072L66 359.065L73.5729 359.065C73.8878 353.105 78.4774 348.348 84.1377 348.324C85.6424 338.466 94.0137 330.999 104.019 330.999C114.255 330.999 122.795 338.819 123.998 349.04C130.797 349.42 136.374 354.379 137.702 360.886C138.102 360.921 138.499 360.964 138.894 361.013L138.894 296.798C138.894 288.066 145.888 280.968 154.579 280.801L154.894 280.798H168.952C177.432 280.798 184.371 287.395 184.917 295.737C191.195 293.878 196.354 289.339 198.989 283.314L199.151 282.936L212.64 250.482C213.613 248.141 214.391 245.724 214.965 243.256L215.149 242.431L216.538 235.927C217.345 232.146 221.064 229.735 224.845 230.542ZM130.766 409.653C131.318 409.653 131.766 410.101 131.766 410.653C131.766 411.166 131.38 411.588 130.883 411.646L130.766 411.653H126.755C126.203 411.653 125.755 411.205 125.755 410.653C125.755 410.14 126.141 409.717 126.639 409.66L126.755 409.653H130.766ZM121.757 409.653C122.31 409.653 122.757 410.101 122.757 410.653C122.757 411.166 122.371 411.588 121.874 411.646L121.757 411.653H118.985C118.433 411.653 117.985 411.205 117.985 410.653C117.985 410.14 118.372 409.717 118.869 409.66L118.985 409.653H121.757ZM168.952 282.798H154.894C147.267 282.798 141.064 288.897 140.898 296.485L140.894 296.798L140.895 361.333C152.802 363.635 162.305 372.762 164.765 384.527C168.41 380.988 173.42 378.815 178.916 378.815C179.956 378.815 180.979 378.893 181.978 379.043C182.565 377.559 182.894 375.977 182.945 374.349L182.952 373.903V296.798C182.952 289.17 176.852 282.967 169.265 282.801L168.952 282.798ZM218.544 236.133L218.494 236.344L217.105 242.849C216.553 245.436 215.788 247.973 214.818 250.433L214.487 251.25L200.997 283.703C198.112 290.646 192.178 295.844 184.951 297.806L184.951 370.644L189.947 373.46C195.901 376.818 202.597 378.631 209.424 378.741L210.085 378.747H249.477C256.069 378.747 261.896 374.499 263.928 368.254L264.03 367.929L265.297 363.722C265.428 363.284 265.495 362.829 265.495 362.372C265.495 359.857 263.514 357.805 261.026 357.693L260.812 357.689H248.792C248.239 357.689 247.792 357.241 247.792 356.689C247.792 356.176 248.178 355.753 248.675 355.695L248.792 355.689L260.769 355.688L262.938 355.497C265.719 355.253 268.079 353.381 268.961 350.75L269.039 350.501L271.381 342.546C271.48 342.212 271.531 341.866 271.535 341.517C271.557 339.491 269.984 337.819 267.984 337.696L267.789 337.689L255.792 337.689C255.239 337.689 254.792 337.241 254.792 336.689C254.792 336.176 255.178 335.753 255.675 335.695L255.792 335.689L267.811 335.689C270.97 335.723 273.765 333.68 274.704 330.685L274.778 330.433L277.28 321.301C277.394 320.884 277.443 320.453 277.427 320.022C277.344 317.863 275.655 316.145 273.555 315.973L273.453 315.993L273.336 315.999H261C260.448 315.999 260 315.552 260 314.999C260 314.487 260.386 314.064 260.883 314.006L261 313.999L272.921 313.999L272.919 313.967C276.727 313.644 279.976 311.109 281.225 307.518L281.317 307.239L282.783 302.572C282.974 301.962 283.098 301.334 283.15 300.697C283.536 296.034 280.139 291.932 275.52 291.412L275.263 291.387L239.199 288.405C238.825 288.374 238.454 288.317 238.089 288.234C233.861 287.275 231.182 283.132 232.005 278.906L232.056 278.663L238.271 251.264C239.761 244.693 236.496 237.983 230.444 235.088L230.139 234.947L225.437 232.829C225.113 232.683 224.775 232.572 224.428 232.498C221.798 231.937 219.21 233.555 218.544 236.133Z" fill="#979797"/>
<path fill-rule="evenodd" clip-rule="evenodd" d="M255 224.797L249.372 228.907C249.328 228.94 249.265 228.93 249.233 228.885C249.214 228.859 249.208 228.826 249.218 228.795L251.389 222.173L245.741 218.092C245.696 218.059 245.686 217.997 245.718 217.952C245.737 217.926 245.767 217.911 245.799 217.911L252.768 217.928L254.904 211.296C254.921 211.243 254.978 211.214 255.03 211.231C255.061 211.241 255.085 211.265 255.095 211.296L257.231 217.928L264.2 217.911C264.255 217.91 264.3 217.955 264.3 218.01C264.3 218.043 264.285 218.073 264.259 218.092L258.61 222.173L260.781 228.795C260.798 228.848 260.769 228.904 260.717 228.921C260.686 228.931 260.653 228.926 260.627 228.907L255 224.797ZM304.091 224.797L298.463 228.907C298.419 228.94 298.356 228.93 298.324 228.885C298.305 228.859 298.299 228.826 298.309 228.795L300.48 222.173L294.832 218.092C294.787 218.059 294.777 217.997 294.809 217.952C294.828 217.926 294.858 217.911 294.89 217.911L301.859 217.928L303.995 211.296C304.012 211.243 304.069 211.214 304.121 211.231C304.152 211.241 304.176 211.265 304.186 211.296L306.322 217.928L313.291 217.911C313.346 217.91 313.391 217.955 313.391 218.01C313.391 218.043 313.376 218.073 313.349 218.092L307.701 222.173L309.872 228.795C309.889 228.848 309.86 228.904 309.808 228.921C309.777 228.931 309.744 228.926 309.718 228.907L304.091 224.797ZM279.545 224.797L273.918 228.907C273.873 228.94 273.811 228.93 273.778 228.885C273.759 228.859 273.754 228.826 273.764 228.795L275.934 222.173L270.286 218.092C270.241 218.059 270.231 217.997 270.264 217.952C270.282 217.926 270.313 217.911 270.345 217.911L277.313 217.928L279.45 211.296C279.467 211.243 279.523 211.214 279.576 211.231C279.606 211.241 279.63 211.265 279.64 211.296L281.777 217.928L288.745 217.911C288.8 217.91 288.845 217.955 288.845 218.01C288.846 218.043 288.83 218.073 288.804 218.092L283.156 222.173L285.326 228.795C285.343 228.848 285.315 228.904 285.262 228.921C285.232 228.931 285.198 228.926 285.172 228.907L279.545 224.797ZM328.091 224.797L322.463 228.907C322.419 228.94 322.356 228.93 322.324 228.885C322.305 228.859 322.299 228.826 322.309 228.795L324.48 222.173L318.832 218.092C318.787 218.059 318.777 217.997 318.809 217.952C318.828 217.926 318.858 217.911 318.89 217.911L325.859 217.928L327.995 211.296C328.012 211.243 328.069 211.214 328.121 211.231C328.152 211.241 328.176 211.265 328.186 211.296L330.322 217.928L337.291 217.911C337.346 217.91 337.391 217.955 337.391 218.01C337.391 218.043 337.376 218.073 337.349 218.092L331.701 222.173L333.872 228.795C333.889 228.848 333.86 228.904 333.808 228.921C333.777 228.931 333.744 228.926 333.718 228.907L328.091 224.797ZM338.439 200.152C354.698 200.152 367.878 186.911 367.878 170.576C367.878 154.242 354.698 141 338.439 141C322.18 141 309 154.242 309 170.576C309 175.359 310.13 179.877 312.136 183.875C312.614 184.826 313.85 186.583 315.846 189.147C316.323 190.003 316.934 190.802 317.678 191.546C323.001 196.865 330.338 200.152 338.439 200.152Z" fill="#D8D8D8"/>
<path d="M193.747 224V237" stroke="white" stroke-width="2" stroke-linecap="round"/>
<path d="M199.747 230.5H186.747" stroke="white" stroke-width="2" stroke-linecap="round"/>
<path d="M176.747 108C177.26 108 177.683 108.386 177.74 108.883L177.747 109V114.499L183.247 114.5C183.799 114.5 184.247 114.948 184.247 115.5C184.247 116.013 183.861 116.436 183.364 116.493L183.247 116.5H177.747V122C177.747 122.552 177.299 123 176.747 123C176.234 123 175.812 122.614 175.754 122.117L175.747 122V116.5H170.247C169.695 116.5 169.247 116.052 169.247 115.5C169.247 114.987 169.633 114.564 170.13 114.507L170.247 114.5H175.747V109C175.747 108.448 176.195 108 176.747 108Z" fill="#D8D8D8"/>
<path d="M299.846 95C300.359 95 300.781 95.386 300.839 95.8834L300.846 96L300.845 99.5H304.346C304.898 99.5 305.346 99.9477 305.346 100.5C305.346 101.013 304.96 101.436 304.462 101.493L304.346 101.5H300.845L300.846 105C300.846 105.552 300.398 106 299.846 106C299.333 106 298.91 105.614 298.852 105.117L298.846 105L298.845 101.5H295.346C294.793 101.5 294.346 101.052 294.346 100.5C294.346 99.9872 294.732 99.5645 295.229 99.5067L295.346 99.5H298.845L298.846 96C298.846 95.4477 299.293 95 299.846 95Z" fill="#D8D8D8"/>
<path d="M382.256 309C372.02 309 363.479 316.819 362.276 327.041C355.478 327.421 349.9 332.38 348.572 338.887C335.198 340.052 324.185 349.729 321.51 362.527C317.864 358.988 312.854 356.816 307.359 356.816C297.382 356.816 289.018 363.972 287.486 373.448C281.631 373.465 276.894 378.251 276.894 384.149C276.894 384.701 277.342 385.149 277.894 385.149C278.446 385.149 278.894 384.701 278.894 384.149C278.894 379.341 282.757 375.447 287.518 375.447C288.852 375.447 290.14 375.752 291.31 376.331C291.805 376.576 292.405 376.373 292.65 375.878C292.895 375.383 292.692 374.784 292.197 374.539C291.338 374.114 290.427 373.808 289.483 373.63C290.917 365.189 298.413 358.816 307.359 358.816C316.356 358.816 323.899 365.266 325.263 373.802C323.78 374.131 322.362 374.686 321.05 375.448C320.572 375.726 320.41 376.338 320.688 376.815C320.965 377.293 321.577 377.455 322.055 377.177C323.995 376.05 326.2 375.447 328.495 375.447C335.371 375.447 340.985 380.854 341.325 387.653L340.05 387.654C339.498 387.654 339.05 388.101 339.05 388.654C339.05 389.166 339.436 389.589 339.933 389.647L340.05 389.654H350.897C351.45 389.654 351.897 389.206 351.897 388.654C351.897 388.141 351.511 387.718 351.014 387.66L350.897 387.654L343.328 387.653C342.986 379.75 336.476 373.447 328.495 373.447C328.074 373.447 327.655 373.465 327.24 373.5C326.683 369.995 325.192 366.806 323.031 364.177L323.233 364.21C325.216 351.796 335.564 342.228 348.302 340.922C348.282 341.238 348.271 341.556 348.271 341.877C348.271 342.429 348.719 342.877 349.271 342.877C349.824 342.877 350.271 342.429 350.271 341.877C350.271 334.775 356.023 329.018 363.118 329.018C365.413 329.018 367.618 329.62 369.558 330.748C370.036 331.025 370.648 330.863 370.925 330.385C371.203 329.908 371.041 329.296 370.563 329.018C368.652 327.908 366.518 327.237 364.289 327.063C365.466 317.941 373.116 311 382.256 311C391.219 311 398.739 317.674 400.144 326.518C399.185 326.707 398.261 327.038 397.391 327.499C396.903 327.758 396.717 328.363 396.976 328.851C397.234 329.339 397.84 329.525 398.328 329.266C399.491 328.649 400.771 328.325 402.095 328.325C406.639 328.325 410.389 332.168 410.698 337.065L409.427 337.066C408.875 337.066 408.427 337.514 408.427 338.066C408.427 338.579 408.813 339.001 409.311 339.059L409.427 339.066H420.274C420.827 339.066 421.274 338.618 421.274 338.066C421.274 337.553 420.888 337.13 420.391 337.073L420.274 337.066L412.702 337.065C412.387 331.106 407.797 326.348 402.137 326.325C400.632 316.466 392.261 309 382.256 309ZM354.517 387.654C353.965 387.654 353.517 388.101 353.517 388.654C353.517 389.166 353.903 389.589 354.4 389.647L354.517 389.654H357.289C357.841 389.654 358.289 389.206 358.289 388.654C358.289 388.141 357.903 387.718 357.406 387.66L357.289 387.654H354.517Z" fill="#979797"/>
<path fill-rule="evenodd" clip-rule="evenodd" d="M396.455 240C402.678 247.46 402.026 254.698 394.499 261.714C390.377 265.556 385.964 266.753 383.144 267.109C378.09 267.746 374.042 266.17 371 262.382C378.747 262.946 385.206 260.761 390.377 255.827C395.548 250.892 397.574 245.617 396.455 240Z" fill="#D8D8D8"/>
<path fill-rule="evenodd" clip-rule="evenodd" d="M386.88 252.948C391.888 249.154 393.722 243.112 390.978 239.451C388.234 235.79 381.95 235.897 376.942 239.69C371.935 243.483 370.1 249.526 372.845 253.187C375.589 256.848 381.873 256.741 386.88 252.948Z" fill="#D8D8D8"/>
<path d="M403 190C404.657 190 406 188.657 406 187C406 185.343 404.657 184 403 184C401.343 184 400 185.343 400 187C400 188.657 401.343 190 403 190Z" fill="#D8D8D8"/>
<path fill-rule="evenodd" clip-rule="evenodd" d="M242.031 152.943C239.091 152.044 235.944 151.803 233.754 152.297C230.895 152.943 228.18 154.761 222.91 155.927C219.397 156.705 215.11 156.524 210.312 154.747V139.781C210.882 139.843 212.04 139.843 213.789 139.781V150.085C217.658 151.262 221.561 150.954 225.499 149.159C229.436 147.365 234.947 146.389 242.031 146.231V152.943Z" fill="#D8D8D8"/>
<path fill-rule="evenodd" clip-rule="evenodd" d="M213.225 133.648C216.971 134.183 220.494 133.754 223.794 132.362C228.743 130.272 231.127 128.555 236.035 128.062C239.306 127.733 242.276 128.721 244.943 131.025V147.775C242.082 146.594 239.208 146.142 236.323 146.42C231.994 146.837 227.495 149.641 223.088 150.983C220.15 151.878 216.862 151.736 213.225 150.557V133.648Z" fill="white"/>
<path fill-rule="evenodd" clip-rule="evenodd" d="M207 138.431C211.929 139.135 216.564 138.571 220.905 136.738C227.417 133.989 230.554 131.73 237.01 131.081C241.314 130.649 244.69 131.948 247.139 134.98V158C243.742 155.987 240.145 155.163 236.349 155.528C230.654 156.077 228.918 157.814 223.12 159.579C219.254 160.757 213.881 160.23 207 158V138.431Z" fill="white"/>
<path d="M249.505 49C241.414 49 234.615 54.9172 233.28 62.7923L232.964 62.7764L232.566 62.7697C225.979 62.7697 220.647 68.2126 220.647 74.9166L220.652 74.62L212.747 74.6209C212.234 74.6209 211.811 75.007 211.753 75.5043L211.747 75.6209C211.747 76.1732 212.194 76.6209 212.747 76.6209H221.803C222.355 76.6209 222.803 76.1732 222.803 75.6209C222.803 75.4157 222.741 75.2249 222.635 75.0662C222.644 75.0179 222.647 74.9677 222.647 74.9166C222.647 69.308 227.093 64.7697 232.566 64.7697C234.334 64.7697 236.034 65.2432 237.53 66.1302C238.005 66.4118 238.619 66.255 238.9 65.7799C239.182 65.3049 239.025 64.6914 238.55 64.4098C237.524 63.8014 236.417 63.3541 235.26 63.0817C236.452 56.1784 242.417 51 249.505 51C256.571 51 262.511 56.1426 263.737 62.9983C263.084 63.149 262.454 63.3768 261.854 63.6759C261.36 63.9224 261.159 64.523 261.406 65.0171C261.653 65.5113 262.253 65.712 262.747 65.4654C263.661 65.0097 264.666 64.7697 265.707 64.7697C269.204 64.7697 272.084 67.4849 272.416 70.9653L271.226 70.966C270.674 70.966 270.226 71.4137 270.226 71.966C270.226 72.5182 270.674 72.966 271.226 72.966H280.282C280.834 72.966 281.282 72.5182 281.282 71.966C281.282 71.4137 280.834 70.966 280.282 70.966L274.423 70.9655C274.084 66.3849 270.315 62.7697 265.707 62.7697L265.727 62.7697C264.384 54.9134 257.597 49 249.505 49ZM286.063 70.9298C285.511 70.9298 285.063 71.3775 285.063 71.9298C285.063 72.4821 285.511 72.9298 286.063 72.9298H290.467C291.019 72.9298 291.467 72.4821 291.467 71.9298C291.467 71.3775 291.019 70.9298 290.467 70.9298H286.063Z" fill="#D8D8D8"/>
<path d="M398.968 123C404.584 123 409.307 127.04 410.355 132.449C413.457 132.583 415.974 134.989 416.341 138.062L420.057 138.062C420.609 138.062 421.057 138.51 421.057 139.062C421.057 139.615 420.609 140.062 420.057 140.062H413.847C413.295 140.062 412.847 139.615 412.847 139.062C412.847 138.51 413.295 138.062 413.847 138.062L414.32 138.062C413.961 136.002 412.196 134.442 410.079 134.442C409.414 134.442 408.772 134.595 408.19 134.886C407.695 135.133 407.095 134.932 406.848 134.438C406.602 133.944 406.802 133.343 407.297 133.097C407.639 132.926 407.995 132.787 408.361 132.682C407.438 128.274 403.56 125 398.968 125C394.36 125 390.466 128.297 389.562 132.74C390.282 132.935 390.972 133.228 391.617 133.611C392.092 133.892 392.248 134.506 391.967 134.981C391.685 135.456 391.072 135.613 390.597 135.331C389.619 134.751 388.509 134.442 387.353 134.442C383.775 134.442 380.866 137.412 380.866 141.086L380.863 141.145C380.923 141.274 380.957 141.417 380.957 141.569C380.957 142.121 380.509 142.569 379.957 142.569H373.747C373.195 142.569 372.747 142.121 372.747 141.569C372.747 141.016 373.195 140.569 373.747 140.569L378.881 140.568C379.144 136.039 382.832 132.442 387.353 132.442L387.581 132.447C388.63 127.034 393.357 123 398.968 123ZM431.603 138.038C432.155 138.038 432.603 138.485 432.603 139.038C432.603 139.59 432.155 140.038 431.603 140.038H425.393C424.84 140.038 424.393 139.59 424.393 139.038C424.393 138.485 424.84 138.038 425.393 138.038H431.603Z" fill="#D8D8D8"/>
<path d="M87.6358 112C82.0198 112 77.2963 116.04 76.2489 121.449C73.147 121.583 70.6294 123.989 70.2628 127.062L66.5463 127.062C65.994 127.062 65.5463 127.51 65.5463 128.062C65.5463 128.615 65.994 129.062 66.5463 129.062H72.7562C73.3085 129.062 73.7562 128.615 73.7562 128.062C73.7562 127.51 73.3085 127.062 72.7562 127.062L72.2836 127.062C72.6428 125.002 74.4078 123.442 76.5246 123.442C77.1895 123.442 77.831 123.595 78.414 123.886C78.9082 124.133 79.5087 123.932 79.7553 123.438C80.0019 122.944 79.8011 122.343 79.307 122.097C78.965 121.926 78.609 121.787 78.2426 121.682C79.166 117.274 83.0431 114 87.6358 114C92.2436 114 96.1374 117.297 97.0413 121.74C96.3213 121.935 95.6317 122.228 94.987 122.611C94.5119 122.892 94.3551 123.506 94.6367 123.981C94.9183 124.456 95.5317 124.613 96.0068 124.331C96.9847 123.751 98.0947 123.442 99.2507 123.442C102.829 123.442 105.737 126.412 105.737 130.086L105.74 130.145C105.68 130.274 105.647 130.417 105.647 130.569C105.647 131.121 106.094 131.569 106.647 131.569H112.856C113.409 131.569 113.856 131.121 113.856 130.569C113.856 130.016 113.409 129.569 112.856 129.569L107.722 129.568C107.46 125.039 103.772 121.442 99.2507 121.442L99.0222 121.447C97.9732 116.034 93.246 112 87.6358 112ZM55.0009 127.038C54.4486 127.038 54.0009 127.485 54.0009 128.038C54.0009 128.59 54.4486 129.038 55.0009 129.038H61.2108C61.763 129.038 62.2108 128.59 62.2108 128.038C62.2108 127.485 61.763 127.038 61.2108 127.038H55.0009Z" fill="#D8D8D8"/>
<path fill-rule="evenodd" clip-rule="evenodd" d="M169.176 194.498V224.999H108.823V215.999L159.891 215.624L160.253 194.498H169.176Z" fill="#D8D8D8"/>
<path d="M170.176 194.499V226H107.823V219.271H109.823L109.823 223.999H168.176L168.176 194.499H170.176ZM137.894 179V181H100.538L100.538 194.045C100.538 194.051 100.538 194.057 100.538 194.062L100.537 194.079L100.538 202.014C100.538 202.02 100.538 202.026 100.538 202.031L100.537 202.048L100.538 214.625H158.891V196.783H160.891V216.625H98.538L98.5379 203.031L92.1099 203.031C91.5577 203.031 91.1099 202.584 91.1099 202.031C91.1099 201.518 91.496 201.096 91.9933 201.038L92.1099 201.031L98.5379 201.031V195.062L90.2529 195.062C89.7006 195.062 89.2529 194.615 89.2529 194.062C89.2529 193.55 89.639 193.127 90.1363 193.069L90.2529 193.062L98.5379 193.062L98.538 179H137.894ZM118.108 205.719V207.719H106.966V205.719H118.108ZM125.536 205.719V207.719H121.822V205.719H125.536ZM112.537 198.688V200.688H106.966V198.688H112.537Z" fill="#979797"/>
<path fill-rule="evenodd" clip-rule="evenodd" d="M145.367 164.754C139.143 172.214 139.795 179.452 147.322 186.468C151.444 190.31 155.857 191.507 158.677 191.863C163.732 192.5 167.779 190.924 170.821 187.136C163.074 187.7 156.615 185.515 151.444 180.581C146.273 175.646 144.247 170.371 145.367 164.754Z" fill="#D8D8D8"/>
<path fill-rule="evenodd" clip-rule="evenodd" d="M156.306 177.948C151.299 174.154 149.464 168.112 152.209 164.451C154.953 160.79 161.237 160.897 166.244 164.69C171.252 168.483 173.086 174.526 170.342 178.187C167.598 181.848 161.314 181.741 156.306 177.948Z" fill="#D8D8D8"/>
<path d="M351 92C352.657 92 354 90.6569 354 89C354 87.3431 352.657 86 351 86C349.343 86 348 87.3431 348 89C348 90.6569 349.343 92 351 92Z" stroke="#D8D8D8" stroke-width="2"/>
<path d="M169.651 160.583C177.691 166.652 180.605 176.529 175.991 182.741L176.058 182.796L171.632 187.99L171.448 188.228C166.727 194.178 156.558 194.034 148.591 187.996C144.155 184.635 141.402 180.066 140.658 175.584L130.57 175.584L130.454 175.577C129.956 175.52 129.57 175.097 129.57 174.584C129.57 174.071 129.956 173.649 130.454 173.591L130.57 173.584L140.459 173.584C140.423 172.404 140.533 171.244 140.795 170.129L136.616 170.129L136.5 170.122C136.002 170.064 135.616 169.642 135.616 169.129C135.616 168.616 136.002 168.193 136.5 168.135L136.616 168.129H141.389L141.451 168.132C141.744 167.45 142.103 166.793 142.529 166.168L139.798 166.168L139.681 166.162C139.184 166.104 138.798 165.681 138.798 165.168C138.798 164.656 139.184 164.233 139.681 164.175L139.798 164.168H143.491L143.608 164.175C143.726 164.189 143.838 164.223 143.94 164.275L145.932 161.635C146.134 161.293 146.356 160.961 146.599 160.638C146.849 160.306 147.116 159.991 147.397 159.694L147.484 159.579L147.498 159.59C152.499 154.459 162.072 154.861 169.651 160.583ZM159.197 186.264L156.719 189.917C157.996 190.284 159.264 190.503 160.493 190.576L162.753 187.186C161.576 186.992 160.384 186.685 159.197 186.264ZM169.999 186.833C168.446 187.295 166.756 187.489 165.002 187.418L162.933 190.52C165.759 190.212 168.222 189.035 169.869 187.001L169.999 186.833ZM154.063 183.675L151.288 187.44C152.423 188.165 153.589 188.765 154.761 189.24L157.303 185.493C156.203 184.986 155.118 184.38 154.063 183.675ZM149.241 179.444L146.27 183.009C147.152 184.093 148.182 185.119 149.353 186.055L149.651 186.288L152.445 182.498C151.256 181.556 150.185 180.529 149.241 179.444ZM148.914 161.003L147.606 162.737C144.578 168.004 147.24 176.071 154.104 181.252C161.37 186.737 170.438 186.797 174.354 181.591C178.27 176.384 175.713 167.665 168.446 162.179C161.594 157.006 153.139 156.659 148.914 161.003ZM166.848 163.892C172.25 167.984 174.265 174.621 171.142 178.786C168.017 182.956 161.107 182.838 155.703 178.744C150.301 174.652 148.286 168.016 151.409 163.85C154.534 159.68 161.444 159.798 166.848 163.892ZM146.274 175.069L143.513 178.379C143.916 179.384 144.431 180.378 145.055 181.342L147.971 177.843C147.321 176.943 146.754 176.014 146.274 175.069ZM153.009 165.05C150.643 168.206 152.297 173.655 156.91 177.15C161.521 180.643 167.179 180.739 169.542 177.587C171.908 174.43 170.253 168.981 165.64 165.486C161.03 161.994 155.372 161.897 153.009 165.05ZM144.377 167.02L144.259 167.182C142.499 169.688 142.056 172.881 142.8 176.116L145.378 173.021C144.637 171.009 144.291 168.969 144.377 167.02ZM133.23 168.129L133.347 168.135C133.844 168.193 134.23 168.616 134.23 169.129C134.23 169.642 133.844 170.064 133.347 170.122L133.23 170.129H132.037L131.92 170.122C131.423 170.064 131.037 169.642 131.037 169.129C131.037 168.616 131.423 168.193 131.92 168.135L132.037 168.129H133.23ZM211.312 139.781L211.312 154.041L211.619 154.146C215.442 155.406 219.064 155.667 222.292 155.035L222.694 154.951C224.107 154.638 225.395 154.266 226.702 153.808L227.386 153.56C227.778 153.401 231.912 151.747 233.035 151.445C233.203 151.4 233.369 151.359 233.534 151.322C235.481 150.882 238.058 150.975 240.623 151.54L241.031 151.634L241.031 149.159H243.031V154.295L241.738 153.899C238.961 153.05 235.985 152.819 233.974 153.273C233.837 153.304 233.697 153.338 233.554 153.377L233.327 153.444C232.274 153.776 229.656 154.809 228.553 155.248L228.319 155.341C228.151 155.408 228.053 155.448 228.05 155.449C226.433 156.046 224.869 156.518 223.126 156.904C219.29 157.752 214.974 157.446 210.467 155.866L209.965 155.685L209.312 155.443L209.312 150.749L200.537 150.75C199.984 150.75 199.537 150.302 199.537 149.75C199.537 149.237 199.923 148.814 200.42 148.757L200.537 148.75L209.312 148.749V145.312L205.045 145.312C204.493 145.312 204.045 144.865 204.045 144.312C204.045 143.8 204.431 143.377 204.928 143.319L205.045 143.312L209.312 143.312L209.312 139.781H211.312ZM244.943 131.025V147.775C242.081 146.594 239.208 146.142 236.322 146.42C233.797 146.663 231.214 147.719 228.625 148.823L227.515 149.296C226.036 149.926 224.556 150.536 223.087 150.983C220.149 151.878 216.861 151.736 213.224 150.557V133.648C216.971 134.183 220.494 133.754 223.793 132.362C228.743 130.272 231.127 128.555 236.034 128.062C239.306 127.733 242.275 128.721 244.943 131.025ZM195.959 148.75C196.512 148.75 196.959 149.198 196.959 149.75C196.959 150.263 196.573 150.686 196.076 150.743L195.959 150.75H194.193C193.641 150.75 193.193 150.302 193.193 149.75C193.193 149.237 193.579 148.814 194.076 148.757L194.193 148.75H195.959ZM236.234 130.052C234.207 130.255 232.605 130.678 230.733 131.445L230.342 131.613C229.032 132.188 225.746 133.708 224.571 134.204C221.69 135.42 218.652 135.97 215.477 135.856L215.224 135.844V149.052L215.51 149.123C217.962 149.698 220.176 149.705 222.174 149.165L222.505 149.07L222.935 148.935C223.869 148.632 224.832 148.257 226.258 147.657L228.542 146.688C232.061 145.215 233.857 144.648 236.13 144.429C238.331 144.217 240.525 144.386 242.702 144.931L242.943 144.994V131.982L242.815 131.885C240.789 130.408 238.622 129.812 236.234 130.052ZM228.63 135.156C231.185 135.156 233.255 137.227 233.255 139.781C233.255 142.336 231.185 144.406 228.63 144.406C226.076 144.406 224.005 142.336 224.005 139.781C224.005 137.227 226.076 135.156 228.63 135.156ZM228.63 137.156C227.181 137.156 226.005 138.332 226.005 139.781C226.005 141.231 227.181 142.406 228.63 142.406C230.08 142.406 231.255 141.231 231.255 139.781C231.255 138.332 230.08 137.156 228.63 137.156ZM373.535 235.584C381.129 229.851 390.724 229.457 395.717 234.619L395.768 234.58L396.211 235.166C396.34 235.319 396.466 235.477 396.588 235.639C396.702 235.792 396.813 235.947 396.919 236.104L399.243 239.183C399.26 239.18 399.277 239.178 399.294 239.176L399.411 239.169H403.104C403.657 239.169 404.104 239.616 404.104 240.169C404.104 240.682 403.718 241.104 403.221 241.162L403.104 241.169L400.723 241.168C401.149 241.792 401.507 242.448 401.8 243.129H406.57C407.122 243.129 407.57 243.577 407.57 244.129C407.57 244.642 407.184 245.065 406.687 245.122L406.57 245.129L402.457 245.13C402.72 246.245 402.829 247.405 402.793 248.584L412.252 248.584C412.805 248.584 413.252 249.032 413.252 249.584C413.252 250.097 412.866 250.52 412.369 250.578L412.252 250.584L402.595 250.585C401.85 255.066 399.097 259.636 394.662 262.997C386.694 269.034 376.526 269.179 371.804 263.229L371.621 262.991L367.195 257.796L367.221 257.775C362.571 251.565 365.481 241.664 373.535 235.584ZM384.676 261.008C383.264 261.562 381.838 261.955 380.433 262.186L382.695 265.58C384.154 265.5 385.671 265.212 387.191 264.716L384.676 261.008ZM373.271 261.857L373.182 261.743C374.812 263.918 377.334 265.179 380.247 265.513L378.184 262.418C376.462 262.488 374.802 262.302 373.271 261.857ZM389.695 258.283C388.668 259.011 387.609 259.644 386.532 260.181L389.107 263.979C390.255 263.469 391.394 262.839 392.498 262.089L389.695 258.283ZM394.378 253.932C393.471 255.038 392.435 256.09 391.278 257.061L394.102 260.892C395.361 259.859 396.453 258.721 397.369 257.52L394.378 253.932ZM394.654 236.422C390.575 231.643 381.805 231.846 374.74 237.18C367.474 242.665 364.916 251.384 368.833 256.591C372.749 261.797 381.817 261.738 389.082 256.253C396.164 250.906 398.773 242.489 395.275 237.244L394.654 236.422ZM376.338 238.893C381.743 234.799 388.652 234.681 391.778 238.85C394.9 243.016 392.885 249.653 387.484 253.744C382.08 257.838 375.17 257.956 372.044 253.787C368.922 249.621 370.937 242.985 376.338 238.893ZM397.139 249.608C396.707 250.516 396.195 251.411 395.607 252.283L398.536 255.797C399.097 254.862 399.556 253.901 399.91 252.934L397.139 249.608ZM390.178 240.05C387.815 236.898 382.157 236.994 377.546 240.487C372.933 243.981 371.279 249.431 373.645 252.587C376.008 255.739 381.666 255.643 386.276 252.15C390.889 248.656 392.544 243.206 390.178 240.05ZM398.805 241.923C398.899 243.735 398.617 245.628 397.99 247.505L400.562 250.593C401.145 247.538 400.658 244.553 398.993 242.183L398.821 241.945L398.805 241.923ZM411.15 243.129C411.702 243.129 412.15 243.577 412.15 244.129C412.15 244.642 411.764 245.065 411.266 245.122L411.15 245.129H409.957C409.404 245.129 408.957 244.681 408.957 244.129C408.957 243.616 409.343 243.194 409.84 243.136L409.957 243.129H411.15Z" fill="#979797"/>
<path d="M271 151V161" stroke="white" stroke-width="2" stroke-linecap="round"/>
<path d="M276 156H266" stroke="white" stroke-width="2" stroke-linecap="round"/>
<path d="M338.439 140.705C350.517 140.705 360.951 147.77 365.87 158.01L365.884 158.008L366 158.001H377.852C378.404 158.001 378.852 158.449 378.852 159.001C378.852 159.514 378.466 159.936 377.969 159.994L377.852 160.001L366.74 160C367.496 161.913 368.066 163.921 368.426 166.001L373.094 166.001C373.646 166.001 374.094 166.449 374.094 167.001C374.094 167.514 373.708 167.936 373.211 167.994L373.094 168.001L368.706 168C368.82 169.078 368.879 170.173 368.879 171.281C368.879 180.91 364.447 189.5 357.521 195.105C361.696 202.263 363.994 210.269 364.115 218.451L364.12 219.133L364.115 219.835C363.785 242.281 347.69 262.18 328.386 267.235L327.8 267.384L327.38 267.483L327.379 300.977L283.543 267.59L269.192 267.59L268.592 267.586C257.607 267.438 247.179 263.226 238.854 255.85L238.402 255.445L239.746 253.964L240.187 254.36C248.157 261.418 258.12 265.442 268.609 265.586L269.192 265.59H284.217L325.38 296.939L325.379 265.872L326.172 265.704L326.753 265.577C345.883 261.202 362.12 241.382 362.12 219.133C362.12 211.296 360.028 203.602 356.128 196.693L355.913 196.32L355.474 196.625C350.613 199.928 344.751 201.857 338.439 201.857C321.997 201.857 308.601 188.763 308.02 172.391L269.192 172.39L268.453 172.397C244.118 172.816 224.12 193.922 224.12 218.991C224.12 223.051 224.66 227.082 225.712 230.997L225.93 231.778L224.008 232.331L223.794 231.564C222.688 227.466 222.12 223.244 222.12 218.991C222.12 192.847 242.977 170.835 268.42 170.397L269.192 170.39L308.013 170.391C308.482 153.917 321.924 140.705 338.439 140.705ZM255.337 210.28C255.632 210.375 255.871 210.589 255.999 210.867L256.047 210.99L257.959 216.927L264.198 216.912C264.724 216.91 265.165 217.279 265.275 217.773L265.294 217.889L265.301 218.009C265.301 218.319 265.172 218.612 264.947 218.82L264.845 218.903L259.788 222.556L261.732 228.485C261.896 228.985 261.681 229.518 261.245 229.775L261.141 229.829L261.029 229.872C260.734 229.969 260.415 229.936 260.148 229.787L260.038 229.715L255 226.036L249.963 229.715C249.542 230.023 248.977 229.988 248.598 229.663L248.507 229.575L248.426 229.476C248.243 229.226 248.175 228.912 248.235 228.612L248.269 228.485L250.211 222.556L245.156 218.903C244.733 218.598 244.592 218.049 244.784 217.589L244.839 217.476L244.908 217.367C245.09 217.116 245.367 216.955 245.671 216.919L245.803 216.912L252.04 216.927L253.953 210.99C254.139 210.412 254.759 210.094 255.337 210.28ZM279.883 210.28C280.178 210.375 280.417 210.589 280.545 210.867L280.593 210.99L282.504 216.927L288.743 216.912C289.27 216.91 289.711 217.279 289.82 217.773L289.839 217.889L289.846 218.009C289.847 218.319 289.717 218.612 289.492 218.82L289.39 218.903L284.334 222.557L286.277 228.485C286.441 228.985 286.227 229.518 285.791 229.775L285.686 229.829L285.574 229.872C285.28 229.969 284.961 229.936 284.694 229.787L284.583 229.715L279.545 226.036L274.508 229.715C274.088 230.023 273.522 229.988 273.143 229.663L273.053 229.575L272.971 229.476C272.788 229.226 272.721 228.912 272.781 228.612L272.814 228.485L274.756 222.557L269.701 218.903C269.279 218.598 269.137 218.049 269.33 217.589L269.385 217.476L269.454 217.367C269.635 217.116 269.913 216.955 270.217 216.919L270.348 216.912L276.585 216.927L278.499 210.99C278.685 210.412 279.305 210.094 279.883 210.28ZM304.428 210.28C304.723 210.375 304.962 210.589 305.09 210.867L305.138 210.99L307.05 216.927L313.289 216.912C313.815 216.91 314.256 217.279 314.365 217.773L314.385 217.889L314.391 218.009C314.392 218.319 314.263 218.612 314.038 218.82L313.936 218.903L308.879 222.556L310.823 228.485C310.987 228.985 310.772 229.518 310.336 229.775L310.232 229.829L310.12 229.872C309.825 229.969 309.506 229.936 309.239 229.787L309.128 229.715L304.091 226.036L299.054 229.715C298.633 230.023 298.068 229.988 297.689 229.663L297.598 229.575L297.517 229.476C297.334 229.226 297.266 228.912 297.326 228.612L297.36 228.485L299.302 222.556L294.246 218.903C293.824 218.598 293.683 218.049 293.875 217.589L293.93 217.476L293.999 217.367C294.181 217.116 294.458 216.955 294.762 216.919L294.894 216.912L301.131 216.927L303.044 210.99C303.23 210.412 303.85 210.094 304.428 210.28ZM328.428 210.28C328.723 210.375 328.962 210.589 329.09 210.867L329.138 210.99L331.05 216.927L337.289 216.912C337.815 216.91 338.256 217.279 338.365 217.773L338.385 217.889L338.391 218.009C338.392 218.319 338.263 218.612 338.038 218.82L337.936 218.903L332.879 222.556L334.823 228.485C334.987 228.985 334.772 229.518 334.336 229.775L334.232 229.829L334.12 229.872C333.825 229.969 333.506 229.936 333.239 229.787L333.128 229.715L328.091 226.036L323.054 229.715C322.633 230.023 322.068 229.988 321.689 229.663L321.598 229.575L321.517 229.476C321.334 229.226 321.266 228.912 321.326 228.612L321.36 228.485L323.302 222.556L318.246 218.903C317.824 218.598 317.683 218.049 317.875 217.589L317.93 217.476L317.999 217.367C318.181 217.116 318.458 216.955 318.762 216.919L318.894 216.912L325.131 216.927L327.044 210.99C327.23 210.412 327.85 210.094 328.428 210.28ZM279.545 214.263L278.042 218.931L273.136 218.918L277.113 221.791L275.584 226.452L279.546 223.559L283.506 226.452L281.979 221.791L285.954 218.918L281.049 218.931L279.545 214.263ZM328.091 214.262L326.587 218.931L321.681 218.918L325.658 221.791L324.13 226.452L328.091 223.559L332.051 226.452L330.524 221.791L334.5 218.918L329.595 218.931L328.091 214.262ZM304.091 214.262L302.587 218.931L297.681 218.918L301.658 221.791L300.13 226.452L304.091 223.559L308.051 226.452L306.524 221.791L310.5 218.918L305.595 218.931L304.091 214.262ZM255 214.262L253.496 218.931L248.59 218.918L252.567 221.791L251.039 226.452L255 223.559L258.96 226.452L257.433 221.791L261.409 218.918L256.504 218.931L255 214.262ZM338.439 142.705C322.734 142.705 310 155.498 310 171.281C310 187.064 322.734 199.857 338.439 199.857C354.145 199.857 366.879 187.064 366.879 171.281C366.879 155.498 354.145 142.705 338.439 142.705ZM351.767 161.395L353.181 162.809L332.019 183.971L324.241 176.193L325.655 174.779L332.019 181.143L351.767 161.395ZM383.384 158.001C383.936 158.001 384.384 158.449 384.384 159.001C384.384 159.514 383.998 159.936 383.5 159.994L383.384 160.001H382C381.448 160.001 381 159.553 381 159.001C381 158.488 381.386 158.065 381.884 158.008L382 158.001H383.384Z" fill="#979797"/>
</svg>
