<svg width="300" height="300" viewBox="0 0 300 300" fill="none" xmlns="http://www.w3.org/2000/svg">
<g clip-path="url(#clip0)">
<rect width="300" height="300" fill="white"/>
<path fill-rule="evenodd" clip-rule="evenodd" d="M9.9873 117H230.106C230.106 117 237.64 135 250.5 135C263.36 135 270.163 117 270.163 117H293V175H9.9873V117Z" fill="#D8D8D8"/>
<path d="M270.125 117H292V173.77H9V173.77V117H229.932" stroke="#979797" stroke-width="2.5"/>
<path fill-rule="evenodd" clip-rule="evenodd" d="M226.47 146V160.754H224.877L221.396 157.931L217.915 160.754L214.434 157.931L210.953 160.754L207.472 157.931L203.992 160.754L200.511 157.931L197.03 160.754L193.549 157.931L190.068 160.754L186.587 157.931L183.106 160.754L179.625 157.931L176.144 160.754L172.663 157.931L169.182 160.754L165.701 157.931L162.22 160.754L158.739 157.931L155.258 160.754L151.777 157.931L148.296 160.754L144.815 157.931L141.334 160.754L137.853 157.931L134.372 160.754L130.892 157.931L127.411 160.754L123.93 157.931L120.449 160.754L116.968 157.931L113.487 160.754L110.006 157.931L106.525 160.754L103.044 157.931L99.563 160.754L96.082 157.931L92.6011 160.754L89.1201 157.931L85.6392 160.754L82.1582 157.931L78.6773 160.754H77.4697V146" fill="white"/>
<path d="M221.396 156.322L217.915 159.144L214.434 156.322L210.953 159.144L207.472 156.322L203.992 159.144L200.511 156.322L197.03 159.144L193.549 156.322L190.068 159.144L186.587 156.322L183.106 159.144L179.625 156.322L176.144 159.144L172.663 156.322L169.182 159.144L165.701 156.322L162.22 159.144L158.739 156.322L155.258 159.144L151.777 156.322L148.296 159.144L144.815 156.322L141.334 159.144L137.853 156.322L134.372 159.144L130.892 156.322L127.411 159.144L123.93 156.322L120.449 159.144L116.968 156.322L113.487 159.144L110.006 156.322L106.525 159.144L103.044 156.322L99.563 159.144L96.082 156.322L92.6011 159.144L89.1201 156.322L85.6392 159.144L82.1582 156.322L78.7197 159.11V146H76.2197V162.004H79.1204L82.1582 159.54L85.6392 162.363L89.1201 159.54L92.6011 162.363L96.082 159.54L99.563 162.363L103.044 159.54L106.525 162.363L110.006 159.54L113.487 162.363L116.968 159.54L120.449 162.363L123.93 159.54L127.411 162.363L130.892 159.54L134.372 162.363L137.853 159.54L141.334 162.363L144.815 159.54L148.296 162.363L151.777 159.54L155.258 162.363L158.739 159.54L162.22 162.363L165.701 159.54L169.182 162.363L172.663 159.54L176.144 162.363L179.625 159.54L183.106 162.363L186.587 159.54L190.068 162.363L193.549 159.54L197.03 162.363L200.511 159.54L203.992 162.363L207.472 159.54L210.953 162.363L214.434 159.54L217.915 162.363L221.396 159.54L224.434 162.004H227.72V146H225.22V159.422L221.396 156.322Z" fill="#979797"/>
<path d="M69.3252 147.25H230.629C231.319 147.25 231.879 146.69 231.879 146C231.879 145.31 231.319 144.75 230.629 144.75H69.3252C68.6348 144.75 68.0752 145.31 68.0752 146C68.0752 146.69 68.6348 147.25 69.3252 147.25Z" fill="#979797"/>
<path fill-rule="evenodd" clip-rule="evenodd" d="M250 136.25C261.736 136.25 271.25 126.736 271.25 115C271.25 103.264 261.736 93.75 250 93.75C238.264 93.75 228.75 103.264 228.75 115C228.75 126.736 238.264 136.25 250 136.25ZM250 133.75C239.645 133.75 231.25 125.355 231.25 115C231.25 104.645 239.645 96.25 250 96.25C260.355 96.25 268.75 104.645 268.75 115C268.75 125.355 260.355 133.75 250 133.75ZM250.484 125C251.563 125 252.408 124.155 252.408 123.076C252.408 121.997 251.563 121.178 250.484 121.178C249.405 121.178 248.586 121.997 248.586 123.076C248.586 124.155 249.405 125 250.484 125ZM251.862 118.773V106.319H249.132V118.773H251.862Z" fill="#979797"/>
<path fill-rule="evenodd" clip-rule="evenodd" d="M100.5 208.25C100.5 212.254 97.2541 215.5 93.25 215.5C89.2459 215.5 86 212.254 86 208.25C86 204.246 89.2459 201 93.25 201C97.2541 201 100.5 204.246 100.5 208.25ZM88.5 208.25C88.5 210.873 90.6266 213 93.25 213C95.8734 213 98 210.873 98 208.25C98 205.627 95.8734 203.5 93.25 203.5C90.6266 203.5 88.5 205.627 88.5 208.25Z" fill="#D8D8D8"/>
<path fill-rule="evenodd" clip-rule="evenodd" d="M86.406 81.9149C86.8695 82.0731 87.3163 82.2792 87.7403 82.5305C88.3341 82.8825 88.5302 83.6493 88.1781 84.2432C87.8261 84.837 87.0593 85.0331 86.4654 84.681C85.7543 84.2594 84.9481 84.0348 84.1073 84.0348C81.5153 84.0348 79.4014 86.1814 79.383 88.8493C79.4299 88.9807 79.4555 89.1222 79.4555 89.2698C79.4555 89.9601 78.8958 90.5198 78.2055 90.5198H73.25C72.5596 90.5198 72 89.9601 72 89.2698C72 88.5794 72.5596 88.0198 73.25 88.0198H76.9324C77.3458 84.4328 80.2998 81.6288 83.924 81.5371C84.9392 77.1946 88.8069 74 93.3756 74C97.9586 74 101.83 77.213 102.834 81.5666C105.237 81.8271 107.171 83.6575 107.627 86.0198H110.205C110.896 86.0198 111.455 86.5794 111.455 87.2698C111.455 87.9601 110.896 88.5198 110.205 88.5198H105.25C104.56 88.5198 104 87.9601 104 87.2698C104 86.6488 104.453 86.1336 105.046 86.0363C104.626 84.8662 103.527 84.0348 102.243 84.0348C101.783 84.0348 101.34 84.1405 100.937 84.3415C100.319 84.6498 99.5686 84.3989 99.2604 83.7812C98.9522 83.1635 99.203 82.4128 99.8208 82.1046C99.9887 82.0208 100.161 81.9458 100.336 81.88C99.5015 78.7663 96.6853 76.5 93.3756 76.5C90.0563 76.5 87.2291 78.7807 86.406 81.9149ZM67.2055 90.5198H62.25C61.5596 90.5198 61 89.9601 61 89.2698C61 88.5794 61.5596 88.0198 62.25 88.0198H67.2055C67.8958 88.0198 68.4555 88.5794 68.4555 89.2698C68.4555 89.9601 67.8958 90.5198 67.2055 90.5198Z" fill="#D8D8D8"/>
<path fill-rule="evenodd" clip-rule="evenodd" d="M221.63 229.63V225.25C221.63 224.56 222.189 224 222.88 224C223.57 224 224.13 224.56 224.13 225.25V229.63H228.509C229.2 229.63 229.759 230.189 229.759 230.88C229.759 231.57 229.2 232.13 228.509 232.13H224.13V236.509C224.13 237.2 223.57 237.759 222.88 237.759C222.189 237.759 221.63 237.2 221.63 236.509V232.13H217.25C216.56 232.13 216 231.57 216 230.88C216 230.189 216.56 229.63 217.25 229.63H221.63Z" fill="#D8D8D8"/>
<path fill-rule="evenodd" clip-rule="evenodd" d="M187.63 41.6297V37.25C187.63 36.5596 188.189 36 188.88 36C189.57 36 190.13 36.5596 190.13 37.25V41.6297H194.509C195.2 41.6297 195.759 42.1894 195.759 42.8797C195.759 43.5701 195.2 44.1297 194.509 44.1297H190.13V48.5095C190.13 49.1998 189.57 49.7595 188.88 49.7595C188.189 49.7595 187.63 49.1998 187.63 48.5095V44.1297H183.25C182.56 44.1297 182 43.5701 182 42.8797C182 42.1894 182.56 41.6297 183.25 41.6297H187.63Z" fill="#D8D8D8"/>
<path fill-rule="evenodd" clip-rule="evenodd" d="M269 100.25H261.898C261.208 100.25 260.648 99.6904 260.648 99C260.648 98.3096 261.208 97.75 261.898 97.75H269C269.69 97.75 270.25 98.3096 270.25 99C270.25 99.6904 269.69 100.25 269 100.25ZM275 107.25H267.898C267.208 107.25 266.648 106.69 266.648 106C266.648 105.31 267.208 104.75 267.898 104.75H275C275.69 104.75 276.25 105.31 276.25 106C276.25 106.69 275.69 107.25 275 107.25ZM273.898 100.25H278C278.69 100.25 279.25 99.6904 279.25 99C279.25 98.3096 278.69 97.75 278 97.75H273.898C273.208 97.75 272.648 98.3096 272.648 99C272.648 99.6904 273.208 100.25 273.898 100.25ZM283.898 100.25H282.898C282.208 100.25 281.648 99.6904 281.648 99C281.648 98.3096 282.208 97.75 282.898 97.75H283.898C284.589 97.75 285.148 98.3096 285.148 99C285.148 99.6904 284.589 100.25 283.898 100.25Z" fill="#979797"/>
</g>
<defs>
<clipPath id="clip0">
<rect width="300" height="300" fill="white"/>
</clipPath>
</defs>
</svg>
