<svg width="208" height="208" viewBox="0 0 208 208" fill="none" xmlns="http://www.w3.org/2000/svg">
<g filter="url(#filter0_d)">
<rect width="200" height="200" transform="translate(4)" fill="white"/>
<path d="M24.5 76C27.5376 76 30 73.5376 30 70.5C30 67.4624 27.5376 65 24.5 65C21.4624 65 19 67.4624 19 70.5C19 73.5376 21.4624 76 24.5 76ZM24.5 74C22.567 74 21 72.433 21 70.5C21 68.567 22.567 67 24.5 67C26.433 67 28 68.567 28 70.5C28 72.433 26.433 74 24.5 74ZM181.5 128C186.194 128 190 124.194 190 119.5C190 114.806 186.194 111 181.5 111C176.806 111 173 114.806 173 119.5C173 124.194 176.806 128 181.5 128ZM181.5 126C177.91 126 175 123.09 175 119.5C175 115.91 177.91 113 181.5 113C185.09 113 188 115.91 188 119.5C188 123.09 185.09 126 181.5 126Z" fill="#B2E0C4"/>
<path d="M40.7273 105.272C41.2796 105.272 41.7273 105.72 41.7273 106.272L41.727 107.999L43.4545 108C43.9674 108 44.3901 108.386 44.4478 108.883L44.4545 109C44.4545 109.552 44.0068 110 43.4545 110L41.727 109.999L41.7273 111.727C41.7273 112.24 41.3412 112.662 40.8439 112.72L40.7273 112.727C40.175 112.727 39.7273 112.279 39.7273 111.727L39.727 109.999L38 110C37.4872 110 37.0645 109.614 37.0067 109.116L37 109C37 108.447 37.4477 108 38 108L39.727 107.999L39.7273 106.272C39.7273 105.76 40.1133 105.337 40.6107 105.279L40.7273 105.272ZM174.636 47.3633C175.189 47.3633 175.636 47.811 175.636 48.3633L175.636 50.9993L178.273 50.9996C178.786 50.9996 179.208 51.3857 179.266 51.883L179.273 51.9996C179.273 52.5519 178.825 52.9996 178.273 52.9996L175.636 52.9993L175.636 55.636C175.636 56.1488 175.25 56.5715 174.753 56.6293L174.636 56.636C174.084 56.636 173.636 56.1883 173.636 55.636L173.636 52.9993L171 52.9996C170.487 52.9996 170.064 52.6136 170.007 52.1163L170 51.9996C170 51.4474 170.448 50.9996 171 50.9996L173.636 50.9993L173.636 48.3633C173.636 47.8504 174.022 47.4278 174.52 47.37L174.636 47.3633Z" fill="#7FCB9C"/>
<path d="M155.825 9C158.919 9 161.539 11.1415 162.265 14.0605C163.841 14.2805 165.106 15.4712 165.461 17.0131L167.045 17.0132C167.597 17.0132 168.045 17.4609 168.045 18.0132C168.045 18.5655 167.597 19.0132 167.045 19.0132H163.741C163.189 19.0132 162.741 18.5655 162.741 18.0132C162.741 17.5888 163.005 17.2262 163.378 17.081C163.084 16.454 162.458 16.0232 161.736 16.0232C161.512 16.0232 161.294 16.0644 161.09 16.1436L160.94 16.2102C160.446 16.4567 159.845 16.256 159.599 15.7619C159.352 15.2677 159.553 14.6672 160.047 14.4206L160.263 14.3206C159.68 12.3899 157.903 11 155.825 11C153.741 11 151.958 12.3972 151.38 14.3391C151.648 14.4398 151.906 14.5639 152.153 14.7103C152.628 14.9919 152.785 15.6054 152.503 16.0804C152.222 16.5555 151.608 16.7123 151.133 16.4307C150.685 16.1648 150.176 16.0232 149.646 16.0232C148.017 16.0232 146.685 17.3689 146.663 19.0474C146.695 19.1413 146.711 19.242 146.711 19.3465C146.711 19.8988 146.264 20.3465 145.711 20.3465H142.408C141.855 20.3465 141.408 19.8988 141.408 19.3465C141.408 18.7942 141.855 18.3465 142.408 18.3465L144.716 18.3463C145.058 15.9867 147 14.1515 149.392 14.0296C150.129 11.1238 152.744 9 155.825 9ZM173.187 17C173.739 17 174.187 17.4477 174.187 18C174.187 18.5523 173.739 19 173.187 19H169.883C169.331 19 168.883 18.5523 168.883 18C168.883 17.4477 169.331 17 169.883 17H173.187Z" fill="#B2E0C4"/>
<path fill-rule="evenodd" clip-rule="evenodd" d="M117.608 21.3653C124.604 19.7502 131.584 24.1121 133.199 31.1078L134.654 37.4103L53.7417 56.0905L52.2867 49.7879C50.6716 42.7922 55.0334 35.8118 62.0291 34.1967L117.608 21.3653ZM107.98 33.0082L90.4418 37.0573C89.3655 37.3058 88.6945 38.3797 88.943 39.456C89.1914 40.5322 90.2653 41.2033 91.3416 40.9548L108.88 36.9057C109.957 36.6572 110.628 35.5833 110.379 34.507C110.131 33.4308 109.057 32.7597 107.98 33.0082ZM81.6725 39.0819C80.5962 39.3303 79.9251 40.4043 80.1736 41.4805C80.4221 42.5568 81.496 43.2278 82.5723 42.9794C83.6485 42.7309 84.3196 41.657 84.0711 40.5807C83.8226 39.5045 82.7487 38.8334 81.6725 39.0819Z" fill="#339C63"/>
<path fill-rule="evenodd" clip-rule="evenodd" d="M157.316 133.347L161.173 150.054C162.789 157.049 158.427 164.03 151.431 165.645L93.1837 179.092C87.4677 180.412 81.7542 176.964 80.233 171.333L80.1616 171.055C90.3506 171.055 97.6626 168.277 102.098 162.72C106.532 157.164 108.276 151.22 107.328 144.887L157.316 133.347ZM121.109 152.107C118.418 152.728 116.74 155.413 117.361 158.104C117.983 160.794 120.667 162.472 123.358 161.851C126.049 161.23 127.726 158.545 127.105 155.854C126.484 153.164 123.799 151.486 121.109 152.107Z" fill="#339C63"/>
<path d="M145.9 111.8C156.89 111.8 165.8 102.89 165.8 91.9C165.8 80.9095 156.89 72 145.9 72C134.91 72 126 80.9095 126 91.9C126 102.89 134.91 111.8 145.9 111.8Z" fill="#339C63"/>
<path d="M121.77 97.329L122.221 99.2775L83.6144 108.208L83.1637 106.259L121.77 97.329ZM119.296 86.6109L119.746 88.5594L81.1399 97.4894L80.6892 95.5409L119.296 86.6109ZM116.596 74.9184L117.047 76.867L78.4405 85.797L77.9898 83.8485L116.596 74.9184ZM90.8788 67.5308L91.3287 69.4796L75.5157 73.1303L75.0658 71.1815L90.8788 67.5308Z" fill="#7FCB9C"/>
<path d="M134.634 30.5233L134.708 30.8274L144.002 71.0843C144.627 71.028 145.261 70.9992 145.9 70.9992C153.462 70.9992 160.086 75.0147 163.755 81.0295C163.797 81.0189 163.84 81.011 163.883 81.0059L164 80.9992H169.982C170.534 80.9992 170.982 81.4469 170.982 81.9992C170.982 82.5121 170.596 82.9347 170.098 82.9925L169.982 82.9992L164.817 82.9993C165.415 84.2678 165.889 85.6062 166.223 86.999L169.153 86.9992C169.705 86.9992 170.153 87.4469 170.153 87.9992C170.153 88.512 169.767 88.9347 169.269 88.9925L169.153 88.9992L166.601 88.9989C166.733 89.947 166.801 90.9154 166.801 91.8997C166.801 100.83 161.201 108.452 153.32 111.445L162.164 149.756C163.882 157.196 159.289 164.68 151.923 166.553L151.619 166.627L95.6044 179.559C89.9409 180.866 84.0938 178.522 80.8215 173.778L80.6391 173.507L80.0285 172.474L60.2422 189.158V171.872C53.1923 169.856 47.1034 163.097 44.8336 154.73C44.6857 154.869 44.4945 154.963 44.2824 154.991L44.1527 154.999H41C40.4477 154.999 40 154.551 40 153.999C40 153.486 40.386 153.064 40.8834 153.006L41 152.999H44.1527C44.2502 152.999 44.3445 153.013 44.4336 153.039C44.1573 151.693 43.9813 150.312 43.9156 148.908C43.8211 148.952 43.7182 148.981 43.6099 148.993L43.5 148.999H38C37.4477 148.999 37 148.551 37 147.999C37 147.486 37.386 147.064 37.8834 147.006L38 146.999H43.5C43.6402 146.999 43.7736 147.028 43.8947 147.08C44.1871 134.157 54.2191 123.134 65.9425 123.134L68.1044 123.134L51.2736 50.0903C49.5565 42.6527 54.1496 35.1642 61.5147 33.2916L61.8189 33.2178L117.833 20.2859C125.273 18.5683 132.762 23.1616 134.634 30.5233ZM86.6999 125.134H65.9425C55.2006 125.134 45.8864 135.549 45.8864 147.664C45.8864 158.523 53.1027 168.165 61.4703 170.126L62.2422 170.307V184.856L79.7961 170.054H86.6999C97.3049 170.054 106.209 159.734 106.209 147.594C106.209 135.369 97.3446 125.134 86.6999 125.134ZM156.598 134.538L108.145 145.724C108.188 146.342 108.209 146.966 108.209 147.594C108.209 160.778 98.4804 172.054 86.6999 172.054L82.1024 172.054L82.336 172.449C85.0333 176.556 89.9995 178.665 94.8514 177.676L95.1545 177.61L151.169 164.678C157.538 163.208 161.584 156.868 160.28 150.5L160.216 150.206L156.598 134.538ZM128.079 155.629C128.825 158.857 126.812 162.079 123.583 162.824C120.354 163.57 117.132 161.557 116.387 158.328C115.642 155.099 117.655 151.877 120.883 151.132C124.112 150.387 127.334 152.4 128.079 155.629ZM121.333 153.081C119.181 153.578 117.839 155.726 118.336 157.878C118.833 160.031 120.98 161.373 123.133 160.876C125.285 160.379 126.628 158.231 126.131 156.078C125.634 153.926 123.486 152.584 121.333 153.081ZM90 152.499V154.499H63V152.499H90ZM34 146.999C34.5523 146.999 35 147.447 35 147.999C35 148.512 34.6139 148.935 34.1166 148.992L34 148.999H31.9604C31.4082 148.999 30.9604 148.551 30.9604 147.999C30.9604 147.486 31.3465 147.064 31.8438 147.006L31.9604 146.999H34ZM90 142.499V144.499H63V142.499H90ZM134.424 38.4878L54.8827 56.8508L70.1564 123.134L86.6999 123.134C97.3477 123.134 106.269 132.217 107.932 143.721L156.148 132.589L151.411 112.066C149.763 112.516 148.033 112.768 146.25 112.797L145.9 112.8C134.357 112.8 125 103.443 125 91.8997C125 81.685 132.328 73.1818 142.013 71.36L134.424 38.4878ZM145.9 72.9992C135.462 72.9992 127 81.4613 127 91.8997C127 102.338 135.462 110.8 145.9 110.8C156.339 110.8 164.801 102.338 164.801 91.8997C164.801 81.4613 156.339 72.9992 145.9 72.9992ZM153.625 84.242L155.039 85.6562L147.496 93.1982L154.722 100.424L153.308 101.838L146.082 94.6124L139.175 101.521L137.76 100.107L144.668 93.1982L137.443 85.9735L138.857 84.5592L146.082 91.7839L153.625 84.242ZM176.188 80.9992C176.74 80.9992 177.188 81.4469 177.188 81.9992C177.188 82.5121 176.802 82.9347 176.304 82.9925L176.188 82.9992H174C173.448 82.9992 173 82.5515 173 81.9992C173 81.4864 173.386 81.0637 173.883 81.0059L174 80.9992H176.188ZM118.577 22.1706L118.283 22.2346L62.2688 35.1665C55.9008 36.6367 51.8542 42.9808 53.1584 49.347L53.2225 49.6408L54.4347 54.9028L133.974 36.5388L132.759 31.2773C131.289 24.9127 124.945 20.8659 118.577 22.1706ZM85.0454 40.3546C85.4181 41.969 84.4116 43.5799 82.7972 43.9526C81.1828 44.3253 79.5719 43.3187 79.1992 41.7043C78.8265 40.0899 79.8331 38.4791 81.4475 38.1063C83.0619 37.7336 84.6727 38.7402 85.0454 40.3546ZM81.8974 40.0551C81.3592 40.1793 81.0237 40.7163 81.1479 41.2544C81.2722 41.7925 81.8091 42.1281 82.3473 42.0038C82.8854 41.8796 83.2209 41.3426 83.0967 40.8045C82.9725 40.2664 82.4355 39.9308 81.8974 40.0551ZM111.353 34.2809C111.726 35.8953 110.72 37.5062 109.105 37.8789L91.5665 41.928C89.9521 42.3007 88.3412 41.2941 87.9685 39.6797C87.5958 38.0654 88.6024 36.4545 90.2168 36.0818L107.755 32.0327C109.37 31.66 110.981 32.6665 111.353 34.2809ZM108.205 33.9814L90.6667 38.0305C90.1286 38.1548 89.793 38.6917 89.9173 39.2298C90.0415 39.768 90.5785 40.1035 91.1166 39.9793L108.655 35.9301C109.193 35.8059 109.529 35.269 109.405 34.7308C109.28 34.1927 108.743 33.8572 108.205 33.9814Z" fill="white"/>
</g>
<defs>
<filter id="filter0_d" x="0" y="0" width="208" height="208" filterUnits="userSpaceOnUse" color-interpolation-filters="sRGB">
<feFlood flood-opacity="0" result="BackgroundImageFix"/>
<feColorMatrix in="SourceAlpha" type="matrix" values="0 0 0 0 0 0 0 0 0 0 0 0 0 0 0 0 0 0 127 0" result="hardAlpha"/>
<feOffset dy="4"/>
<feGaussianBlur stdDeviation="2"/>
<feColorMatrix type="matrix" values="0 0 0 0 0 0 0 0 0 0 0 0 0 0 0 0 0 0 0.25 0"/>
<feBlend mode="normal" in2="BackgroundImageFix" result="effect1_dropShadow"/>
<feBlend mode="normal" in="SourceGraphic" in2="effect1_dropShadow" result="shape"/>
</filter>
</defs>
</svg>
