<svg width="208" height="208" viewBox="0 0 208 208" fill="none" xmlns="http://www.w3.org/2000/svg">
<g filter="url(#filter0_d)">
<rect width="200" height="200" transform="translate(4)" fill="white"/>
<path d="M26.5 160.727C28.433 160.727 30 159.16 30 157.227C30 155.294 28.433 153.727 26.5 153.727C24.567 153.727 23 155.294 23 157.227C23 159.16 24.567 160.727 26.5 160.727ZM26.5 158.727C25.6716 158.727 25 158.055 25 157.227C25 156.398 25.6716 155.727 26.5 155.727C27.3284 155.727 28 156.398 28 157.227C28 158.055 27.3284 158.727 26.5 158.727ZM183 51.7266C186.866 51.7266 190 48.5926 190 44.7266C190 40.8606 186.866 37.7266 183 37.7266C179.134 37.7266 176 40.8606 176 44.7266C176 48.5926 179.134 51.7266 183 51.7266ZM183 49.7266C180.239 49.7266 178 47.488 178 44.7266C178 41.9651 180.239 39.7266 183 39.7266C185.761 39.7266 188 41.9651 188 44.7266C188 47.488 185.761 49.7266 183 49.7266Z" fill="#B2E0C4"/>
<path d="M144.727 11C145.28 11 145.727 11.4477 145.727 12L145.727 13.727L147.455 13.7273C147.967 13.7273 148.39 14.1133 148.448 14.6107L148.455 14.7273C148.455 15.2796 148.007 15.7273 147.455 15.7273L145.727 15.727L145.727 17.4545C145.727 17.9674 145.341 18.3901 144.844 18.4478L144.727 18.4545C144.175 18.4545 143.727 18.0068 143.727 17.4545L143.727 15.727L142 15.7273C141.487 15.7273 141.064 15.3412 141.007 14.8439L141 14.7273C141 14.175 141.448 13.7273 142 13.7273L143.727 13.727L143.727 12C143.727 11.4872 144.113 11.0645 144.611 11.0067L144.727 11ZM31.7273 50C32.2796 50 32.7273 50.4477 32.7273 51L32.727 52.727L34.4545 52.7273C34.9674 52.7273 35.3901 53.1133 35.4478 53.6107L35.4545 53.7273C35.4545 54.2796 35.0068 54.7273 34.4545 54.7273L32.727 54.727L32.7273 56.4545C32.7273 56.9674 32.3412 57.3901 31.8439 57.4478L31.7273 57.4545C31.175 57.4545 30.7273 57.0068 30.7273 56.4545L30.727 54.727L29 54.7273C28.4872 54.7273 28.0645 54.3412 28.0067 53.8439L28 53.7273C28 53.175 28.4477 52.7273 29 52.7273L30.727 52.727L30.7273 51C30.7273 50.4872 31.1133 50.0645 31.6107 50.0067L31.7273 50Z" fill="#7FCB9C"/>
<path d="M67.8868 99.6816H43.1958C42.6435 99.6816 42.1958 100.129 42.1958 100.682V121.221C42.1958 121.773 42.6435 122.221 43.1958 122.221H67.8868C68.4391 122.221 68.8868 121.773 68.8868 121.221V100.682C68.8868 100.129 68.4391 99.6816 67.8868 99.6816Z" fill="#339C63"/>
<path fill-rule="evenodd" clip-rule="evenodd" d="M122 25.5488C129.18 25.5488 135 31.3691 135 38.5488V45.0172H51.9591V38.5488C51.9591 31.3691 57.7794 25.5488 64.9591 25.5488H122ZM110 34.7276H92.0001C90.8955 34.7276 90.0001 35.623 90.0001 36.7276C90.0001 37.8321 90.8955 38.7276 92.0001 38.7276H110C111.105 38.7276 112 37.8321 112 36.7276C112 35.623 111.105 34.7276 110 34.7276ZM83.0001 34.7276C81.8955 34.7276 81.0001 35.623 81.0001 36.7276C81.0001 37.8321 81.8955 38.7276 83.0001 38.7276C84.1047 38.7276 85.0001 37.8321 85.0001 36.7276C85.0001 35.623 84.1047 34.7276 83.0001 34.7276ZM50.8818 143.593H89.484V173.739H63.9259C56.7592 173.739 50.9443 167.939 50.9259 160.773L50.8818 143.593Z" fill="#339C63"/>
<path d="M135.9 98.5285C146.89 98.5285 155.8 89.619 155.8 78.6285C155.8 67.638 146.89 58.7285 135.9 58.7285C124.91 58.7285 116 67.638 116 78.6285C116 89.619 124.91 98.5285 135.9 98.5285Z" fill="#339C63"/>
<path d="M34.5 107.727C35.0523 107.727 35.5 108.174 35.5 108.727C35.5 109.279 35.0523 109.727 34.5 109.727H30.4325C29.8802 109.727 29.4325 109.279 29.4325 108.727C29.4325 108.174 29.8802 107.727 30.4325 107.727H34.5ZM34.5 99.7266C35.0523 99.7266 35.5 100.174 35.5 100.727C35.5 101.279 35.0523 101.727 34.5 101.727H27C26.4477 101.727 26 101.279 26 100.727C26 100.174 26.4477 99.7266 27 99.7266H34.5ZM22.7945 99.7266C23.3468 99.7266 23.7945 100.174 23.7945 100.727C23.7945 101.279 23.3468 101.727 22.7945 101.727H20C19.4477 101.727 19 101.279 19 100.727C19 100.174 19.4477 99.7266 20 99.7266H22.7945Z" fill="white"/>
<path d="M176.442 115.727H90.0859V153.105H176.442V115.727Z" fill="#339C63"/>
<path d="M90.8301 153.105H175.043" stroke="white" stroke-width="2" stroke-linecap="square"/>
<path d="M122.462 24.5488C130.097 24.5488 136.361 30.7091 136.529 38.3032L136.532 38.6161L136.532 58.7369C141.515 58.8849 146.059 60.7764 149.576 63.8223C149.672 63.7766 149.777 63.7461 149.888 63.7338L150 63.7276H157.5C158.052 63.7276 158.5 64.1753 158.5 64.7276C158.5 65.2404 158.114 65.6631 157.617 65.7208L157.5 65.7276L151.509 65.7275C152.841 67.2229 153.962 68.911 154.825 70.7449L154.883 70.7343L155 70.7276H162.5C163.052 70.7276 163.5 71.1753 163.5 71.7276C163.5 72.2404 163.114 72.6631 162.617 72.7208L162.5 72.7276L155.635 72.7268C156.39 74.8873 156.801 77.2097 156.801 79.6281C156.801 90.9597 147.783 100.185 136.532 100.519L136.532 114.727L177.356 114.728V174.384L110.268 174.384L110.269 174.739H64.9742C57.3366 174.739 51.075 168.583 50.9072 160.986L50.9037 160.673V151.556L50.959 130.417L40 130.417C36.6863 130.417 34 127.731 34 124.417V79.7276C34 76.4138 36.6863 73.7276 40 73.7276L50.959 73.7268L50.9037 67.0623V38.6167C50.9037 30.9835 57.0637 24.7202 64.6612 24.5523L64.9742 24.5488H122.462ZM88.999 144.592H52.921L52.9037 151.559V160.673C52.9037 167.208 58.173 172.574 64.6733 172.736L64.9742 172.739L88.9997 172.739L88.999 144.592ZM175.356 116.728H91V172.384H175.356V116.728ZM155.464 162.013V163.797H98.0119V162.013H155.464ZM109.742 124.394C113.378 124.394 115.442 126.436 115.536 129.744L115.539 129.983V132.315C116.246 133.499 116.037 135.027 115.063 135.957C114.746 137.008 114.28 137.951 113.693 138.728L113.493 138.981V139.457L113.568 139.52L113.755 139.663L113.988 139.825C114.273 140.014 114.628 140.227 115.044 140.459L115.301 140.6L116.024 140.983L116.913 141.43C117.559 141.748 118.24 142.07 118.931 142.386L119.624 142.7L120.854 143.241L120.069 145.08L118.805 144.525C117.86 144.101 116.915 143.66 116.03 143.225L115.838 143.13L115.65 143.036L114.933 142.67C112.912 141.616 111.87 140.935 111.571 140.174L111.535 140.069L111.493 139.928V138.206L111.765 137.918C112.343 137.303 112.818 136.447 113.131 135.438L113.219 135.131L113.311 134.791L113.596 134.583C113.968 134.312 114.07 133.759 113.821 133.34L113.752 133.238L113.539 132.966V129.983C113.539 127.625 112.346 126.394 109.742 126.394C107.272 126.394 106.025 127.582 105.947 129.762L105.943 129.983V132.967L105.731 133.238C105.424 133.632 105.474 134.194 105.801 134.51L105.888 134.583L106.172 134.791L106.263 135.131C106.542 136.169 106.99 137.063 107.548 137.726L107.719 137.917L107.99 138.206V139.928L107.948 140.069C107.762 140.691 107.095 141.248 105.824 141.978L105.579 142.117L105.076 142.392L104.549 142.67C104.205 142.85 103.839 143.035 103.454 143.224C102.79 143.551 102.092 143.88 101.386 144.204L100.678 144.524L100.201 144.737L99.4147 145.08L98.6297 143.241L99.3922 142.908L100.552 142.386C101.243 142.07 101.925 141.748 102.57 141.43C102.942 141.247 103.295 141.069 103.624 140.897C104.404 140.49 105.039 140.128 105.495 139.824C105.666 139.711 105.807 139.608 105.915 139.52L105.99 139.457V138.981C105.308 138.16 104.771 137.124 104.419 135.956C103.493 135.07 103.26 133.643 103.849 132.487L103.943 132.316V129.983C103.943 126.565 106.078 124.394 109.742 124.394ZM158.367 142.794V144.579H130.012V142.794H158.367ZM134.532 46.0168H52.9037L52.9037 67.054L52.959 73.7193L52.017 73.7268L64.9652 73.7276L77.0294 85.8547V124.417C77.0294 127.731 74.3431 130.417 71.0294 130.417L52.159 130.417L52.959 130.42L52.927 142.592H88.999L89 114.728L134.532 114.727L134.532 100.484C123.627 99.7799 115 90.7115 115 79.6281C115 68.5447 123.627 59.4762 134.532 58.7716L134.532 46.0168ZM163.523 133.772V135.557H130.012V133.772H163.523ZM64.1337 75.7276H40C37.7909 75.7276 36 77.5184 36 79.7276V124.417C36 126.626 37.7909 128.417 40 128.417H71.0294C73.2386 128.417 75.0294 126.626 75.0294 124.417V86.68L64.1337 75.7276ZM142.901 124.75V126.534H130.012V124.75H142.901ZM68.8873 99.6818V122.221H42.1961V99.6818H68.8873ZM63.0531 101.681V120.221L66.8873 120.221V101.682L63.0531 101.681ZM48.3131 114.027H44.1951L44.1961 120.221L48.3131 120.221V114.027ZM54.8381 114.026L50.3131 114.027V120.221H54.8381V114.026ZM56.8381 114.026V120.221L61.0531 120.22L61.0535 114.027L56.8381 114.026ZM61.0531 101.681H56.5411L56.5417 108.03L44.1951 108.03V112.027L61.0535 112.027L61.0531 101.681ZM54.5411 101.681L44.1961 101.682L44.1951 106.03L54.5417 106.03L54.5411 101.681ZM135.9 60.7276C125.462 60.7276 117 69.1896 117 79.6281C117 90.0665 125.462 98.5285 135.9 98.5285C146.339 98.5285 154.801 90.0665 154.801 79.6281C154.801 69.1896 146.339 60.7276 135.9 60.7276ZM59.2467 90.4857V92.4857H42.0612V90.4857H59.2467ZM136.5 85.6455C137.438 85.6455 138.129 86.3135 138.129 87.1807C138.129 88.0596 137.438 88.7276 136.5 88.7276C135.562 88.7276 134.871 88.0596 134.871 87.1807C134.871 86.3135 135.562 85.6455 136.5 85.6455ZM50.0261 84.3387V86.3387H42.0612V84.3387H50.0261ZM137.754 70.6455V83.4072H135.246V70.6455H137.754ZM163.795 63.7276C164.347 63.7276 164.795 64.1753 164.795 64.7276C164.795 65.2404 164.408 65.6631 163.911 65.7208L163.795 65.7276H161C160.448 65.7276 160 65.2798 160 64.7276C160 64.2147 160.386 63.792 160.883 63.7343L161 63.7276H163.795ZM122.462 26.5488H64.9742C58.4387 26.5488 53.0687 31.82 52.9074 38.3161L52.9037 38.6167V44.0168H134.532L134.532 38.6161C134.532 32.0841 129.261 26.7138 122.763 26.5526L122.462 26.5488ZM110 33.7276C111.657 33.7276 113 35.0707 113 36.7276C113 38.3844 111.657 39.7276 110 39.7276H92C90.3431 39.7276 89 38.3844 89 36.7276C89 35.0707 90.3431 33.7276 92 33.7276H110ZM83 33.7276C84.6569 33.7276 86 35.0707 86 36.7276C86 38.3844 84.6569 39.7276 83 39.7276C81.3431 39.7276 80 38.3844 80 36.7276C80 35.0707 81.3431 33.7276 83 33.7276ZM110 35.7276H92C91.4477 35.7276 91 36.1753 91 36.7276C91 37.2798 91.4477 37.7276 92 37.7276H110C110.552 37.7276 111 37.2798 111 36.7276C111 36.1753 110.552 35.7276 110 35.7276ZM83 35.7276C82.4477 35.7276 82 36.1753 82 36.7276C82 37.2798 82.4477 37.7276 83 37.7276C83.5523 37.7276 84 37.2798 84 36.7276C84 36.1753 83.5523 35.7276 83 35.7276Z" fill="white"/>
</g>
<defs>
<filter id="filter0_d" x="0" y="0" width="208" height="208" filterUnits="userSpaceOnUse" color-interpolation-filters="sRGB">
<feFlood flood-opacity="0" result="BackgroundImageFix"/>
<feColorMatrix in="SourceAlpha" type="matrix" values="0 0 0 0 0 0 0 0 0 0 0 0 0 0 0 0 0 0 127 0" result="hardAlpha"/>
<feOffset dy="4"/>
<feGaussianBlur stdDeviation="2"/>
<feColorMatrix type="matrix" values="0 0 0 0 0 0 0 0 0 0 0 0 0 0 0 0 0 0 0.25 0"/>
<feBlend mode="normal" in2="BackgroundImageFix" result="effect1_dropShadow"/>
<feBlend mode="normal" in="SourceGraphic" in2="effect1_dropShadow" result="shape"/>
</filter>
</defs>
</svg>
