<svg width="120" height="210" viewBox="0 0 120 210" fill="none" xmlns="http://www.w3.org/2000/svg">
<g id="nhi-200-profile-close_up">
<rect width="120" height="210" fill="white"/>
<g id="Group + Path 2 + Path 2 + Path 2 + Path 2 + Oval Mask + Rectangle Mask">
<mask id="mask0" mask-type="alpha" maskUnits="userSpaceOnUse" x="0" y="0" width="120" height="210">
<rect id="Mask" width="120" height="210" fill="white"/>
</mask>
<g mask="url(#mask0)">
<g id="Group + Path 2 + Path 2 + Path 2 + Path 2 + Oval Mask">
<mask id="mask1" mask-type="alpha" maskUnits="userSpaceOnUse" x="0" y="0" width="120" height="210">
<rect id="Mask_2" width="120" height="210" fill="white"/>
</mask>
<g mask="url(#mask1)">
<g id="Group">
<path id="Path 10" fill-rule="evenodd" clip-rule="evenodd" d="M8.94141 61.9023V35C8.94141 14.5655 25.5069 -2 45.9414 -2H71.0979C91.5325 -2 108.098 14.5655 108.098 35V61.6455C108.098 61.6455 77.1833 64.5895 59.5 57.0796C41.8167 49.5697 39.8827 40.6349 39.8827 40.6349C39.8827 40.6349 40.0611 41.4391 30.9293 51.5C21.7975 61.5609 8.94141 61.9023 8.94141 61.9023Z" fill="#E4F2D2" fill-opacity="0.4"/>
<g id="Group 2">
<path id="Path 15" opacity="0.3" fill-rule="evenodd" clip-rule="evenodd" d="M58.234 59.5807C58.234 59.5807 69.6143 83.2401 58.8956 111.798C48.177 140.356 61.8779 174 61.8779 174C61.8779 174 73.6717 171.654 80.4077 167.112C87.1437 162.569 91.7176 153.877 91.7176 153.877L86.6112 147.889V134.963C86.6112 134.963 94.0774 125.089 97.6515 117.895C101.226 110.701 102.939 102.099 102.939 102.099C102.939 102.099 110.181 95.8449 111.142 89.1079C112.103 82.371 106.979 73.7817 106.979 73.7817V63.7552C106.979 63.7552 66.6222 63.5096 52.7815 53.7556C38.9408 44.0016 58.234 59.5807 58.234 59.5807Z" fill="#BBDE8F"/>
<g id="Group 2_2">
<circle id="Oval" cx="38.805" cy="85.8482" r="3.78378" fill="#009639"/>
<circle id="Oval_2" cx="79.4808" cy="85.8482" r="3.78378" fill="#009639"/>
<path id="Path" d="M47.2973 82.3243C45.2453 79.6978 41.9859 78 38.3158 78C35.0205 78 32.0564 79.3687 30 81.5493" stroke="#009639" stroke-width="2" stroke-linecap="round"/>
<path id="Path_2" d="M89.0541 82.3243C87.0022 79.6978 83.7428 78 80.0726 78C76.7773 78 73.8132 79.3687 71.7568 81.5493" stroke="#009639" stroke-width="2" stroke-linecap="round"/>
<g id="Group 4">
<path id="Path_3" d="M72.01 119.185L48.9131 119.191" stroke="#009639" stroke-width="2" stroke-linecap="round"/>
<path id="Path 13" d="M59.3139 89.4707L57.4441 106.805L66.8876 104.958" stroke="#009639" stroke-width="2"/>
</g>
</g>
<path id="Path 9" fill-rule="evenodd" clip-rule="evenodd" d="M10.4862 162.83L-11 174.71V208H128V173.834L103.153 160C103.153 160 88.5209 187.55 57.7278 187.55C26.9348 187.55 10.4862 162.83 10.4862 162.83Z" fill="#E4F2D2"/>
<path id="Path 12" opacity="0.6" fill-rule="evenodd" clip-rule="evenodd" d="M88.2747 149C88.2747 149 85.7846 155.586 78.1703 163.332C70.5559 171.079 61.5176 173.619 61.5176 173.619C61.5176 173.619 71.9093 172.232 79.5455 167C87.1817 161.768 92 152.266 92 152.266L88.2747 149Z" fill="#78BE20"/>
<path id="Path 19" opacity="0.6" fill-rule="evenodd" clip-rule="evenodd" d="M45 186.117C45 186.117 50.8785 184.78 54.7108 181.967C58.5431 179.154 61.4883 174.547 61.4883 174.547C61.4883 174.547 71.3977 172.711 79.5455 167C87.6933 161.289 92.2308 153 92.2308 153L103 160.01C103 160.01 90.4414 177.077 77.6109 182.98C64.7805 188.884 45 186.117 45 186.117Z" fill="#78BE20"/>
<path id="Path 14" fill-rule="evenodd" clip-rule="evenodd" d="M53 52.7919C53 52.7919 56.8456 39.4373 68.1776 28.5883C79.5096 17.7394 59.1286 0 59.1286 0C59.1286 0 104.867 7.47416 106.852 35.8199C108.837 64.1657 107.389 61.8209 107.389 61.8209C107.389 61.8209 85.4042 62.7778 73.2041 60.4043C61.0041 58.0308 53 52.7919 53 52.7919Z" fill="#BBDE8F" fill-opacity="0.4"/>
<path id="Path 18" opacity="0.6" fill-rule="evenodd" clip-rule="evenodd" d="M57 187.55C57 187.55 67.176 190.535 72.5098 194.968C77.8436 199.401 81.6049 208 81.6049 208H128V173.775L103.667 160C103.667 160 94.4273 174.337 84.4437 180.231C74.4601 186.125 57 187.55 57 187.55Z" fill="#78BE20"/>
<path id="Path 17" fill-rule="evenodd" clip-rule="evenodd" d="M67.5592 58.8136C67.5592 58.8136 83.2941 63.2219 91.989 62.6964C100.684 62.1708 107.404 61.6786 107.404 61.6786C107.404 61.6786 107.888 54.5687 107.404 46.9132C106.92 39.2578 99.3416 31.3481 99.3416 31.3481C99.3416 31.3481 100.271 49.413 88.764 54.6366C77.2572 59.8602 67.5592 58.8136 67.5592 58.8136Z" fill="#78BE20" fill-opacity="0.4"/>
<path id="Path_4" d="M128 174.121C128 174.121 88.9323 153.865 86.7505 146.586V134.576C94.3801 126.452 100.398 115.12 103.96 101.854C112.517 95.5992 114.644 82.7065 107.562 73.6371V46.7521C107.562 18.9986 92.7151 0 58.7734 0C25.7071 0 9.96726 18.9986 9.96726 46.7521V73.6456C2.90025 82.7016 5.02289 95.5859 13.569 101.848C17.1297 115.119 23.1522 126.45 30.7867 134.575V146.585C28.6345 153.776 -12 175 -12 175" stroke="#009639" stroke-width="2"/>
<path id="Path_5" d="M22 155.907C29.0988 167.372 41.7201 175 56.1073 175C71.3905 175 84.6811 166.393 91.4758 153.721L92 153" stroke="#009639" stroke-width="2"/>
<path id="Path_6" d="M11 162.877C20.4003 177.963 37.1134 188 56.1649 188C76.4031 188 94.0024 176.674 103 160" stroke="#009639" stroke-width="2"/>
<path id="Path 8" d="M10.0522 62.6228C10.0522 62.6228 19.8776 61.1565 25.8731 56.5016C30.6203 52.8159 36.7935 44.6211 39.1582 41.3687C39.6053 40.7537 40.5816 40.7982 41.0071 41.4283C44.6459 46.8176 60.687 65.4707 107 62.6228" stroke="#009639" stroke-width="2"/>
</g>
</g>
<path id="Path 2" fill-rule="evenodd" clip-rule="evenodd" d="M0 85C0 85 6.17928 50.3013 20.4883 28.3705C34.7974 6.43979 55.792 0.000366211 55.792 0.000366211H0V85Z" fill="white"/>
<path id="Path 2_2" fill-rule="evenodd" clip-rule="evenodd" d="M0 125C0 125 6.17928 159.699 20.4883 181.629C34.7974 203.56 55.792 210 55.792 210H0V125Z" fill="white"/>
<path id="Path 2_3" fill-rule="evenodd" clip-rule="evenodd" d="M120 114.426C120 114.426 113.613 159.7 99.3037 181.631C84.9946 203.562 64 210.001 64 210.001H120V114.426Z" fill="white"/>
<path id="Path 2_4" fill-rule="evenodd" clip-rule="evenodd" d="M120 99.334C120 99.334 113.613 50.3007 99.3037 28.3699C84.9946 6.43917 64 -0.000244141 64 -0.000244141H120V99.334Z" fill="white"/>
<path id="Oval_3" d="M119 105C119 133.852 112.26 159.923 101.413 178.747C90.552 197.598 75.6971 209 59.5 209C43.3029 209 28.448 197.598 17.5865 178.747C6.74038 159.923 0 133.852 0 105C0 76.1482 6.74038 50.0769 17.5865 31.253C28.448 12.4024 43.3029 1 59.5 1C75.6971 1 90.552 12.4024 101.413 31.253C112.26 50.0769 119 76.1482 119 105Z" stroke="#009639" stroke-width="2"/>
</g>
</g>
<rect id="Rectangle" x="1" y="1" width="118" height="208" stroke="#009639" stroke-width="2"/>
</g>
</g>
</g>
</svg>
