<svg width="500" height="500" viewBox="0 0 500 500" fill="none" xmlns="http://www.w3.org/2000/svg">
<rect width="500" height="500" fill="white"/>
<path fill-rule="evenodd" clip-rule="evenodd" d="M202.361 372.169C215.433 372.169 226.03 382.745 226.03 395.791C226.03 408.838 215.433 419.414 202.361 419.414C189.288 419.414 178.691 408.838 178.691 395.791C178.691 382.745 189.288 372.169 202.361 372.169ZM202.361 383.378C195.491 383.378 189.923 388.936 189.923 395.791C189.923 402.647 195.491 408.204 202.361 408.204C209.23 408.204 214.798 402.647 214.798 395.791C214.798 388.936 209.23 383.378 202.361 383.378ZM139.303 175.443L89.4528 161.243C85.8791 160.225 83.5432 156.799 83.9014 153.101C84.1875 150.146 86.8143 147.983 89.7686 148.27C90.0828 148.3 90.3938 148.358 90.6979 148.443L135.884 161.079L139.303 175.443Z" fill="#B3D4F1"/>
<path fill-rule="evenodd" clip-rule="evenodd" d="M164.772 200.164L155.301 184.432L235.26 136.483L281.007 212.464" fill="#B3D4F1"/>
<path d="M107.587 340.114C109.857 340.114 111.696 338.278 111.696 336.013C111.696 333.748 109.857 331.912 107.587 331.912C105.317 331.912 103.478 333.748 103.478 336.013C103.478 338.278 105.317 340.114 107.587 340.114ZM107.587 338.118C106.422 338.118 105.478 337.176 105.478 336.013C105.478 334.85 106.422 333.908 107.587 333.908C108.752 333.908 109.696 334.85 109.696 336.013C109.696 337.176 108.752 338.118 107.587 338.118ZM301.99 127.793C307.982 127.793 312.84 122.944 312.84 116.964C312.84 110.983 307.982 106.135 301.99 106.135C295.997 106.135 291.139 110.983 291.139 116.964C291.139 122.944 295.997 127.793 301.99 127.793ZM301.99 125.797C297.102 125.797 293.139 121.842 293.139 116.964C293.139 112.085 297.102 108.131 301.99 108.131C306.878 108.131 310.84 112.085 310.84 116.964C310.84 121.842 306.878 125.797 301.99 125.797Z" fill="#B3D4F1"/>
<path d="M151.027 405.675C152.841 405.675 154.311 404.208 154.311 402.398C154.311 400.588 152.841 399.121 151.027 399.121C149.213 399.121 147.743 400.588 147.743 402.398C147.743 404.208 149.213 405.675 151.027 405.675Z" fill="white"/>
<path d="M167.436 118.41C167.988 118.41 168.436 118.857 168.436 119.408L168.436 125.672L174.41 125.673C174.922 125.673 175.344 126.059 175.401 126.556L175.408 126.673C175.408 127.225 174.961 127.673 174.41 127.673L168.436 127.672L168.436 133.938C168.436 134.449 168.05 134.871 167.553 134.929L167.436 134.936C166.884 134.936 166.436 134.489 166.436 133.938L166.436 127.672L160.462 127.673C159.95 127.673 159.528 127.287 159.471 126.789L159.464 126.673C159.464 126.121 159.911 125.673 160.462 125.673L166.436 125.672L166.436 119.408C166.436 118.896 166.822 118.475 167.319 118.417L167.436 118.41Z" fill="#B3D4F1"/>
<path d="M362.793 88.8633C363.346 88.8633 363.793 89.3101 363.793 89.8613L363.793 96.1253L369.768 96.126C370.279 96.126 370.701 96.512 370.759 97.0094L370.766 97.126C370.766 97.6783 370.319 98.126 369.768 98.126L363.793 98.1253L363.793 104.391C363.793 104.903 363.407 105.324 362.91 105.382L362.793 105.389C362.241 105.389 361.793 104.942 361.793 104.391L361.793 98.1253L355.819 98.126C355.307 98.126 354.886 97.74 354.828 97.2426L354.821 97.126C354.821 96.5737 355.268 96.126 355.819 96.126L361.793 96.1253L361.793 89.8613C361.793 89.3495 362.179 88.9276 362.677 88.87L362.793 88.8633Z" fill="#B3D4F1"/>
<path d="M56.9326 434.395V447.503" stroke="white" stroke-width="2" stroke-linecap="round"/>
<path d="M63.7744 440.949H50.0934" stroke="white" stroke-width="2" stroke-linecap="round"/>
<path fill-rule="evenodd" clip-rule="evenodd" d="M64.5002 260C59.2866 266.341 59.6564 273.812 67.3449 280.911C71.5559 284.8 76.0634 286.011 78.9442 286.371C84.1069 287.016 88.2417 285.421 91.3487 281.587C83.4356 282.159 76.838 279.948 71.5559 274.954C66.2737 269.961 64.5002 264.475 64.5002 260Z" fill="#B3D4F1"/>
<path d="M73.2756 276.6C65.5105 270.748 62.755 261.308 67.1211 255.514C71.4871 249.72 81.3214 249.767 89.0865 255.618C96.8516 261.469 99.6071 270.91 95.241 276.704C90.875 282.498 81.0407 282.451 73.2756 276.6Z" fill="white"/>
<path d="M76.3595 272.503C71.3317 268.714 69.4978 262.668 72.2635 258.998C75.0292 255.327 81.3471 255.423 86.3749 259.212C91.4027 263.001 93.2365 269.048 90.4708 272.718C87.7051 276.388 81.3873 276.292 76.3595 272.503Z" fill="#B3D4F1"/>
<path d="M89.6094 254.775C97.7142 260.978 100.652 271.058 96.0017 277.379L91.7664 282.832C87.1087 289.113 76.7104 289.034 68.583 282.814C66.7185 281.387 65.1274 279.755 63.8392 278.011L63.7793 278.021L63.6627 278.028H48.6449C48.0926 278.028 47.6449 277.581 47.6449 277.03C47.6449 276.479 48.0926 276.032 48.6449 276.032L62.5346 276.032C61.0878 273.554 60.2259 270.932 60.0239 268.401C59.8764 268.49 60.7025 268.54 60.5168 268.54H51.9551C51.4028 268.54 50.9551 268.094 50.9551 267.542C50.9551 266.991 51.4028 266.544 51.9551 266.544H60.5168C60.6881 266.544 59.8494 266.587 59.9904 266.663C60.0928 264.3 60.8131 262.068 62.2168 260.176L62.8204 259.434L57.8224 259.434C57.3096 259.434 56.8869 259.049 56.8292 258.552L56.8224 258.436C56.8224 257.885 57.2702 257.438 57.8224 257.438H64.5005C64.7323 257.438 64.4263 257.5 64.2775 257.649L65.6022 256.023C65.8348 255.604 66.0961 255.198 66.3868 254.806C71.0838 248.476 81.482 248.555 89.6094 254.775ZM84.8724 282.117L82.1781 285.491C85.4931 285.333 88.3914 284.028 90.1989 281.591L90.3517 281.412C88.6638 281.973 86.8061 282.207 84.8724 282.117ZM77.0355 280.073L74.0602 283.8C75.9409 284.657 77.8507 285.191 79.6899 285.403L82.5246 281.853C80.7032 281.533 78.8492 280.938 77.0355 280.073ZM71.3115 276.253L68.1041 279.8C68.6362 280.296 69.2005 280.773 69.7962 281.229C70.5949 281.841 71.4151 282.386 72.2477 282.866L75.24 279.119C74.3939 278.622 73.5624 278.064 72.7534 277.445C72.2529 277.061 71.7721 276.664 71.3115 276.253ZM68.2626 255.652L67.2738 257.138C64.4182 262.528 67.1337 270.63 73.9666 275.86C81.2932 281.467 90.4265 281.536 94.3698 276.222C98.321 270.895 95.7305 261.973 88.3962 256.36C81.2319 250.877 72.34 250.689 68.2626 255.652ZM66.225 269.794L63.2614 273.071C64.059 274.905 65.2159 276.711 66.7021 278.371L69.8748 274.861C68.3783 273.287 67.1528 271.57 66.225 269.794ZM86.929 258.388C92.3225 262.516 94.3375 269.198 91.23 273.388C88.1129 277.588 81.2081 277.463 75.807 273.329C70.4135 269.201 68.3985 262.519 71.506 258.33C74.6231 254.129 81.528 254.255 86.929 258.388ZM73.1122 259.522C70.7478 262.709 72.4078 268.214 77.0202 271.744C81.625 275.268 87.2678 275.371 89.6238 272.196C91.9882 269.008 90.3282 263.503 85.7158 259.973C81.1111 256.449 75.4682 256.346 73.1122 259.522ZM64.1817 260.928L63.7949 261.404C61.8805 263.985 61.5169 267.431 62.4986 270.935L65.3231 267.814C64.4232 265.506 64.0243 263.153 64.1817 260.928ZM46.1241 266.49C46.6764 266.49 47.1241 266.937 47.1241 267.488C47.1241 268.039 46.6764 268.486 46.1241 268.486H44.7764C44.2241 268.486 43.7764 268.039 43.7764 267.488C43.7764 266.937 44.2241 266.49 44.7764 266.49H46.1241Z" fill="#006FCF"/>
<path d="M403.394 355.498C403.946 355.498 404.394 355.945 404.394 356.496L404.394 362.76L410.368 362.761C410.88 362.761 411.302 363.147 411.359 363.644L411.366 363.761C411.366 364.313 410.919 364.761 410.368 364.761L404.394 364.76L404.394 371.025C404.394 371.537 404.008 371.959 403.511 372.017L403.394 372.023C402.842 372.023 402.394 371.577 402.394 371.025L402.394 364.76L396.42 364.761C395.908 364.761 395.486 364.375 395.429 363.877L395.422 363.761C395.422 363.208 395.869 362.761 396.42 362.761L402.394 362.76L402.394 356.496C402.394 355.984 402.78 355.562 403.277 355.505L403.394 355.498Z" fill="#B3D4F1"/>
<path d="M177.922 52.5508C187.075 52.5508 194.759 59.2612 196.214 68.1722C196.52 68.1497 196.828 68.139 197.137 68.139C204.534 68.139 210.522 74.2401 210.522 81.756L210.519 81.5548L219.618 81.5553C220.131 81.5553 220.554 81.9406 220.612 82.4369L220.618 82.5533C220.618 83.1045 220.171 83.5513 219.618 83.5513H209.346C208.794 83.5513 208.346 83.1045 208.346 82.5533C208.346 82.3304 208.419 82.1245 208.543 81.9584C208.529 81.8937 208.522 81.8257 208.522 81.756C208.522 75.3333 203.42 70.135 197.137 70.135C195.106 70.135 193.155 70.6776 191.437 71.6939C190.962 71.975 190.349 71.8185 190.067 71.3443C189.786 70.8702 189.942 70.258 190.418 69.9769C191.606 69.2737 192.891 68.7626 194.233 68.4605C192.921 60.5191 186.071 54.5468 177.922 54.5468C169.798 54.5468 162.976 60.4785 161.625 68.3648C162.399 68.5339 163.146 68.7979 163.854 69.1507C164.348 69.3968 164.549 69.9961 164.302 70.4893C164.056 70.9825 163.455 71.1828 162.961 70.9367C161.907 70.4116 160.745 70.135 159.544 70.135C155.458 70.135 152.102 73.339 151.787 77.417L153.283 77.4177C153.836 77.4177 154.283 77.8645 154.283 78.4157C154.283 78.9668 153.836 79.4137 153.283 79.4137H143.011C142.459 79.4137 142.011 78.9668 142.011 78.4157C142.011 77.8645 142.459 77.4177 143.011 77.4177L149.783 77.417C150.102 72.2418 154.347 68.139 159.544 68.139C159.574 68.139 159.604 68.1391 159.635 68.1394C161.101 59.2544 168.771 52.5508 177.922 52.5508ZM139.185 77.3768C139.737 77.3768 140.185 77.8236 140.185 78.3748C140.185 78.9259 139.737 79.3728 139.185 79.3728H128.912C128.36 79.3728 127.912 78.9259 127.912 78.3748C127.912 77.8236 128.36 77.3768 128.912 77.3768H139.185ZM406.391 279.778C411.966 279.778 416.656 283.78 417.699 289.138C420.777 289.274 423.274 291.655 423.641 294.698L427.323 294.698C427.875 294.698 428.323 295.145 428.323 295.696C428.323 296.247 427.875 296.694 427.323 296.694H421.159C420.607 296.694 420.159 296.247 420.159 295.696C420.159 295.145 420.607 294.698 421.159 294.698L421.62 294.698C421.26 292.665 419.513 291.127 417.419 291.127C416.76 291.127 416.125 291.278 415.547 291.566C415.053 291.812 414.452 291.612 414.206 291.119C413.959 290.625 414.16 290.026 414.654 289.78C414.992 289.612 415.343 289.475 415.704 289.372C414.787 285.011 410.943 281.774 406.391 281.774C401.823 281.774 397.963 285.034 397.064 289.428C397.777 289.622 398.46 289.912 399.098 290.289C399.573 290.571 399.73 291.183 399.449 291.657C399.167 292.131 398.553 292.288 398.078 292.007C397.109 291.433 396.009 291.127 394.862 291.127C391.316 291.127 388.432 294.065 388.432 297.7L388.43 297.759C388.489 297.887 388.522 298.029 388.522 298.179C388.522 298.73 388.074 299.177 387.522 299.177H381.358C380.806 299.177 380.358 298.73 380.358 298.179C380.358 297.628 380.806 297.181 381.358 297.181L386.447 297.18C386.711 292.694 390.374 289.131 394.862 289.131L395.083 289.136C396.128 283.774 400.821 279.778 406.391 279.778ZM438.782 294.674C439.334 294.674 439.782 295.12 439.782 295.672C439.782 296.223 439.334 296.67 438.782 296.67H432.619C432.066 296.67 431.619 296.223 431.619 295.672C431.619 295.12 432.066 294.674 432.619 294.674H438.782Z" fill="#B3D4F1"/>
<path d="M372.512 140.509C374.229 140.509 375.621 139.119 375.621 137.406C375.621 135.692 374.229 134.303 372.512 134.303C370.795 134.303 369.403 135.692 369.403 137.406C369.403 139.119 370.795 140.509 372.512 140.509Z" fill="#B3D4F1"/>
<path d="M129.353 305.601C132.787 305.601 135.572 302.823 135.572 299.395C135.572 295.968 132.787 293.189 129.353 293.189C125.918 293.189 123.134 295.968 123.134 299.395C123.134 302.823 125.918 305.601 129.353 305.601Z" fill="#B3D4F1"/>
<path fill-rule="evenodd" clip-rule="evenodd" d="M288.181 372.17C301.254 372.17 311.851 382.746 311.851 395.792C311.851 408.839 301.254 419.415 288.181 419.415C275.109 419.415 264.512 408.839 264.512 395.792C264.512 382.746 275.109 372.17 288.181 372.17ZM288.181 383.379C281.312 383.379 275.744 388.937 275.744 395.792C275.744 402.648 281.312 408.205 288.181 408.205C295.051 408.205 300.619 402.648 300.619 395.792C300.619 388.937 295.051 383.379 288.181 383.379Z" fill="#B3D4F1"/>
<path d="M339.792 255.073C357.35 255.073 371.584 240.868 371.584 223.344C371.584 205.821 357.35 191.615 339.792 191.615C322.234 191.615 308 205.821 308 223.344C308 240.868 322.234 255.073 339.792 255.073Z" fill="#B3D4F1"/>
<path fill-rule="evenodd" clip-rule="evenodd" d="M425.144 175.652C430.357 181.993 429.12 188.713 421.431 195.812C417.22 199.7 412.713 200.911 409.832 201.271C404.669 201.916 400.534 200.321 397.427 196.488C405.341 197.059 411.938 194.848 417.22 189.855C422.502 184.862 425.144 180.127 425.144 175.652Z" fill="#B3D4F1"/>
<path d="M415.501 191.5C423.266 185.649 426.021 176.208 421.655 170.414C417.289 164.62 407.455 164.667 399.69 170.518C391.925 176.37 389.169 185.81 393.535 191.604C397.901 197.398 407.736 197.352 415.501 191.5Z" fill="white"/>
<path d="M412.417 187.403C417.445 183.615 419.279 177.568 416.513 173.898C413.747 170.228 407.429 170.324 402.401 174.113C397.374 177.901 395.54 183.948 398.306 187.618C401.071 191.288 407.389 191.192 412.417 187.403Z" fill="#B3D4F1"/>
<path d="M399.167 169.675C391.062 175.878 388.124 185.958 392.775 192.279L397.01 197.732C401.668 204.014 412.066 203.935 420.193 197.715C422.058 196.288 423.649 194.655 424.937 192.911L424.997 192.922L425.114 192.928H440.131C440.684 192.928 441.131 192.481 441.131 191.93C441.131 191.379 440.684 190.932 440.131 190.932L426.242 190.932C427.689 188.455 428.55 185.832 428.752 183.302C428.5 183.302 428.074 183.441 428.26 183.441H436.821C437.374 183.441 437.821 182.994 437.821 182.443C437.821 181.892 437.374 181.445 436.821 181.445H428.26C428.088 181.445 428.672 181.445 428.786 181.564C428.684 179.2 427.963 176.968 426.56 175.076L425.956 174.334L430.954 174.334C431.467 174.334 431.889 173.949 431.947 173.453L431.954 173.336C431.954 172.785 431.506 172.338 430.954 172.338H424.114C423.882 172.338 424.5 172.5 424.499 172.549L423.174 170.923C422.942 170.504 422.68 170.098 422.39 169.706C417.693 163.376 407.294 163.455 399.167 169.675ZM403.904 197.017L406.598 200.392C403.283 200.233 400.385 198.928 398.577 196.492L398.425 196.312C400.113 196.874 401.97 197.107 403.904 197.017ZM411.741 194.974L414.716 198.7C412.835 199.557 410.926 200.091 409.086 200.303L406.252 196.754C408.073 196.433 409.927 195.839 411.741 194.974ZM417.465 191.153L420.672 194.7C420.14 195.196 419.576 195.674 418.98 196.13C418.181 196.741 417.361 197.286 416.529 197.766L413.536 194.02C414.382 193.522 415.214 192.964 416.023 192.345C416.523 191.962 417.004 191.564 417.465 191.153ZM420.514 170.553L421.503 172.038C424.358 177.429 421.643 185.53 414.81 190.76C407.483 196.367 398.35 196.437 394.407 191.122C390.455 185.796 393.046 176.874 400.38 171.26C407.544 165.777 416.436 165.589 420.514 170.553ZM422.551 184.694L425.515 187.971C424.717 189.806 423.561 191.611 422.074 193.271L418.902 189.762C420.398 188.188 421.624 186.471 422.551 184.694ZM401.847 173.289C396.454 177.416 394.439 184.099 397.546 188.288C400.663 192.489 407.568 192.363 412.969 188.23C418.363 184.102 420.378 177.419 417.27 173.23C414.153 169.029 407.248 169.155 401.847 173.289ZM415.664 174.422C418.029 177.609 416.369 183.115 411.756 186.645C407.151 190.169 401.509 190.271 399.153 187.096C396.788 183.909 398.448 178.404 403.061 174.874C407.665 171.349 413.308 171.247 415.664 174.422ZM424.595 175.829L424.982 176.304C426.896 178.885 427.259 182.331 426.278 185.836L423.453 182.714C424.353 180.406 424.752 178.053 424.595 175.829ZM442.652 181.39C442.1 181.39 441.652 181.837 441.652 182.388C441.652 182.94 442.1 183.386 442.652 183.386H444C444.552 183.386 445 182.94 445 182.388C445 181.837 444.552 181.39 444 181.39H442.652Z" fill="#006FCF"/>
<path d="M235.906 134.994L281.717 211.236L304.839 213.655C305.389 213.713 305.787 214.204 305.73 214.752C305.672 215.3 305.18 215.698 304.631 215.64L258.589 210.824L258.589 243.872L309.564 243.873C310.116 243.873 310.564 244.32 310.564 244.871C310.564 245.383 310.178 245.805 309.681 245.862L309.564 245.869L258.589 245.868V284.744H303.201L310.266 255.715C310.387 255.218 310.862 254.899 311.359 254.96L311.474 254.981C311.972 255.102 312.292 255.576 312.23 256.072L312.209 256.187L305.259 284.744H345.359L354.067 257.342C354.234 256.816 354.796 256.525 355.323 256.692C355.849 256.859 356.141 257.42 355.974 257.945L346.99 286.213L346.991 286.74L346.822 286.74L334.789 324.611L171.717 324.61L175.85 344.094C176.323 346.326 178.249 347.943 180.514 348.045L180.742 348.05H337.804C338.357 348.05 338.804 348.497 338.804 349.048C338.804 349.56 338.418 349.982 337.921 350.04L337.804 350.046L306.877 350.046L294.789 372.065C305.205 374.948 312.851 384.479 312.851 395.793C312.851 407.398 304.805 417.129 293.976 419.73L323.339 419.73C323.892 419.73 324.339 420.176 324.339 420.728C324.339 421.239 323.953 421.661 323.456 421.719L323.339 421.726H168.171C167.619 421.726 167.171 421.279 167.171 420.728C167.171 420.216 167.557 419.794 168.054 419.736L168.171 419.73L196.566 419.73C185.737 417.129 177.691 407.398 177.691 395.793C177.691 395.377 177.701 394.965 177.721 394.554L172.703 394.555C172.151 394.555 171.703 394.108 171.703 393.557C171.703 393.045 172.089 392.623 172.587 392.565L172.703 392.559L177.902 392.558C178.273 389.735 179.124 387.062 180.369 384.624H167.728C167.176 384.624 166.728 384.177 166.728 383.626C166.728 383.114 167.114 382.692 167.611 382.635L167.728 382.628L181.509 382.629C184.853 377.364 190.144 373.453 196.371 371.903L200.41 350.046L180.742 350.046C177.519 350.046 174.725 347.853 173.95 344.754L173.893 344.507L149.249 228.339C149.177 228.365 149.101 228.383 149.022 228.392L148.905 228.399H140.303C139.751 228.399 139.303 227.952 139.303 227.401C139.303 226.889 139.689 226.468 140.187 226.41L140.303 226.403L148.838 226.403L146.282 214.352C146.121 214.562 145.879 214.706 145.603 214.738L145.486 214.745H136.884C136.332 214.745 135.884 214.298 135.884 213.747C135.884 213.235 136.27 212.813 136.768 212.756L136.884 212.749H145.486C145.661 212.749 145.825 212.794 145.968 212.872L135.021 161.271L90.4114 149.446C90.0515 149.35 89.6808 149.302 89.3084 149.302C86.9354 149.302 85.0117 151.222 85.0117 153.59C85.0117 157.103 87.321 160.188 90.6711 161.197L90.9243 161.268L136.129 173.284C136.663 173.426 136.98 173.973 136.838 174.505C136.706 175 136.224 175.308 135.729 175.236L135.614 175.213L90.4096 163.197C86.0474 162.038 83.0117 158.095 83.0117 153.59C83.0117 150.12 85.8309 147.306 89.3084 147.306C89.745 147.306 90.18 147.351 90.6066 147.441L90.9248 147.517L136.723 159.657L144.622 196.895L163.1 198.827L154.232 184.069L171.84 173.489L193.777 135.569L214.796 147.679L235.906 134.994ZM357.529 419.73C358.081 419.73 358.529 420.176 358.529 420.728C358.529 421.239 358.143 421.661 357.646 421.719L357.529 421.726H332.544C331.992 421.726 331.544 421.279 331.544 420.728C331.544 420.216 331.93 419.794 332.428 419.736L332.544 419.73H357.529ZM158.966 419.73C159.518 419.73 159.966 420.176 159.966 420.728C159.966 421.239 159.58 421.661 159.083 421.719L158.966 421.726H143.186C142.634 421.726 142.186 421.279 142.186 420.728C142.186 420.216 142.572 419.794 143.07 419.736L143.186 419.73H158.966ZM132.666 419.73C133.219 419.73 133.666 420.176 133.666 420.728C133.666 421.239 133.28 421.661 132.783 421.719L132.666 421.726H126.091C125.539 421.726 125.091 421.279 125.091 420.728C125.091 420.216 125.477 419.794 125.975 419.736L126.091 419.73H132.666ZM373.309 419.73C373.861 419.73 374.309 420.176 374.309 420.728C374.309 421.239 373.923 421.661 373.426 421.719L373.309 421.726H369.364C368.812 421.726 368.364 421.279 368.364 420.728C368.364 420.216 368.75 419.794 369.247 419.736L369.364 419.73H373.309ZM286.41 350.046H220.877L208.813 372.023C219.308 374.853 227.03 384.423 227.03 395.793C227.03 407.398 218.984 417.129 208.155 419.73H282.387C271.558 417.129 263.512 407.398 263.512 395.793C263.512 384.19 271.554 374.462 282.379 371.857L286.41 350.046ZM202.361 373.168C189.84 373.168 179.691 383.298 179.691 395.793C179.691 408.288 189.84 418.417 202.361 418.417C214.881 418.417 225.03 408.288 225.03 395.793C225.03 383.298 214.881 373.168 202.361 373.168ZM288.181 373.168C275.661 373.168 265.512 383.298 265.512 395.793C265.512 408.288 275.661 418.417 288.181 418.417C300.702 418.417 310.851 408.288 310.851 395.793C310.851 383.298 300.702 373.168 288.181 373.168ZM202.361 382.382C209.782 382.382 215.798 388.386 215.798 395.793C215.798 403.199 209.782 409.204 202.361 409.204C194.939 409.204 188.923 403.199 188.923 395.793C188.923 388.386 194.939 382.382 202.361 382.382ZM288.181 382.382C295.603 382.382 301.619 388.386 301.619 395.793C301.619 403.199 295.603 409.204 288.181 409.204C280.76 409.204 274.744 403.199 274.744 395.793C274.744 388.386 280.76 382.382 288.181 382.382ZM288.181 384.378C281.865 384.378 276.744 389.488 276.744 395.793C276.744 402.097 281.865 407.208 288.181 407.208C294.498 407.208 299.619 402.097 299.619 395.793C299.619 389.488 294.498 384.378 288.181 384.378ZM202.361 384.378C196.044 384.378 190.923 389.488 190.923 395.793C190.923 402.097 196.044 407.208 202.361 407.208C208.677 407.208 213.798 402.097 213.798 395.793C213.798 389.488 208.677 384.378 202.361 384.378ZM202.361 389.829C205.661 389.829 208.336 392.499 208.336 395.793C208.336 399.086 205.661 401.756 202.361 401.756C199.061 401.756 196.385 399.086 196.385 395.793C196.385 392.499 199.061 389.829 202.361 389.829ZM287.975 389.829C291.275 389.829 293.95 392.499 293.95 395.793C293.95 399.086 291.275 401.756 287.975 401.756C284.675 401.756 282 399.086 282 395.793C282 392.499 284.675 389.829 287.975 389.829ZM202.361 391.826C200.165 391.826 198.385 393.602 198.385 395.793C198.385 397.984 200.165 399.76 202.361 399.76C204.556 399.76 206.336 397.984 206.336 395.793C206.336 393.602 204.556 391.826 202.361 391.826ZM287.975 391.826C285.78 391.826 284 393.602 284 395.793C284 397.984 285.78 399.76 287.975 399.76C290.171 399.76 291.95 397.984 291.95 395.793C291.95 393.602 290.171 391.826 287.975 391.826ZM162.413 382.628C162.965 382.628 163.413 383.075 163.413 383.626C163.413 384.138 163.026 384.56 162.529 384.617L162.413 384.624H159.783C159.23 384.624 158.783 384.177 158.783 383.626C158.783 383.114 159.169 382.692 159.666 382.635L159.783 382.628H162.413ZM304.597 350.046H288.444L284.488 371.446C285.693 371.266 286.926 371.172 288.181 371.172C289.748 371.172 291.281 371.318 292.766 371.597L304.597 350.046ZM218.597 350.046H202.444L198.483 371.475C199.746 371.276 201.041 371.172 202.361 371.172C203.87 371.172 205.348 371.308 206.783 371.567L218.597 350.046ZM344.724 286.74H304.773L296.043 322.614L333.325 322.615L344.724 286.74ZM208.691 286.74H163.683L171.293 322.614L215.627 322.614L208.691 286.74ZM302.715 286.74H258.589L258.589 322.614H293.984L302.715 286.74ZM256.589 286.74H210.728L217.664 322.614H256.589L256.589 286.74ZM154.993 245.778L163.259 284.744H208.305L200.78 245.828L154.993 245.778ZM202.817 245.83L210.342 284.744H256.589V245.868L236.767 245.869C236.76 245.869 236.752 245.868 236.745 245.868L202.817 245.83ZM332.221 180.701L342.946 191.426L332.242 202.13L330.828 200.716L338.84 192.702C322.459 193.617 309.458 207.163 309.458 223.74C309.458 240.909 323.404 254.828 340.607 254.828C357.811 254.828 371.757 240.909 371.757 223.74C371.757 212.793 366.041 202.836 356.877 197.225L356.471 196.98L357.491 195.264C367.493 201.182 373.757 211.92 373.757 223.74C373.757 242.012 358.915 256.824 340.607 256.824C322.299 256.824 307.458 242.012 307.458 223.74C307.458 205.88 321.639 191.325 339.377 190.679L330.809 182.113L332.221 180.701ZM194.757 204.147L202.431 243.833L239.181 243.873L256.589 243.872L256.589 210.615L194.757 204.147ZM145.058 198.948L154.569 243.781L200.394 243.83L192.678 203.929L145.058 198.948ZM341.66 237.085C342.603 237.085 343.341 237.801 343.341 238.742C343.341 239.683 342.603 240.44 341.66 240.44C340.717 240.44 340 239.683 340 238.742C340 237.801 340.717 237.085 341.66 237.085ZM342.829 212.575V231.827H340.492V212.575H342.829ZM135.224 226.403C135.776 226.403 136.224 226.85 136.224 227.401C136.224 227.913 135.838 228.335 135.34 228.392L135.224 228.399H131.909C131.357 228.399 130.909 227.952 130.909 227.401C130.909 226.889 131.296 226.468 131.793 226.41L131.909 226.403H135.224ZM126.517 226.403C127.07 226.403 127.517 226.85 127.517 227.401C127.517 227.913 127.131 228.335 126.634 228.392L126.517 228.399H125.062C124.51 228.399 124.062 227.952 124.062 227.401C124.062 226.889 124.448 226.468 124.946 226.41L125.062 226.403H126.517ZM235.22 137.735L156.975 184.75L165.59 199.088L279.228 210.976L235.22 137.735ZM194.509 138.295L175.379 171.362L212.837 148.856L194.509 138.295Z" fill="#006FCF"/>
</svg>
