<svg width="200" height="200" viewBox="0 0 200 200" fill="none" xmlns="http://www.w3.org/2000/svg">
<rect width="200" height="200" fill="white"/>
<path d="M20.5 75C22.9853 75 25 72.9853 25 70.5C25 68.0147 22.9853 66 20.5 66C18.0147 66 16 68.0147 16 70.5C16 72.9853 18.0147 75 20.5 75Z" stroke="#B3D4F1" stroke-width="2"/>
<path d="M177.5 127C181.642 127 185 123.642 185 119.5C185 115.358 181.642 112 177.5 112C173.358 112 170 115.358 170 119.5C170 123.642 173.358 127 177.5 127Z" stroke="#B3D4F1" stroke-width="2"/>
<path d="M34 109H39.455" stroke="#B3D4F1" stroke-width="2" stroke-linecap="round"/>
<path d="M36.7266 106.273V111.728" stroke="#B3D4F1" stroke-width="2" stroke-linecap="round"/>
<path d="M167 52H174.273" stroke="#B3D4F1" stroke-width="2" stroke-linecap="round"/>
<path d="M170.636 48.3633V55.6363" stroke="#B3D4F1" stroke-width="2" stroke-linecap="round"/>
<path d="M146.208 15.1806C146.467 12.2761 148.883 10 151.826 10C154.796 10 157.23 12.319 157.45 15.2624" stroke="#B3D4F1" stroke-width="2"/>
<path d="M156.493 15.3156C156.868 15.1285 157.29 15.0234 157.736 15.0234C159.295 15.0234 160.56 16.3086 160.56 17.8938" stroke="#B3D4F1" stroke-width="2" stroke-linecap="round"/>
<path d="M163.054 18.0137H159.75" stroke="#B3D4F1" stroke-width="2" stroke-linecap="round"/>
<path d="M141.72 19.3477H138.417" stroke="#B3D4F1" stroke-width="2" stroke-linecap="round"/>
<path d="M169.195 18H165.891" stroke="#B3D4F1" stroke-width="2" stroke-linecap="round"/>
<path d="M141.664 19.0898C141.664 16.844 143.447 15.0234 145.647 15.0234C146.374 15.0234 147.056 15.2227 147.644 15.5707" stroke="#B3D4F1" stroke-width="2" stroke-linecap="round"/>
<path fill-rule="evenodd" clip-rule="evenodd" d="M113.608 21.3653C120.604 19.7502 127.584 24.1121 129.199 31.1078L130.654 37.4103L49.7417 56.0905L48.2867 49.7879C46.6716 42.7922 51.0334 35.8118 58.0291 34.1967L113.608 21.3653ZM103.98 33.0082L86.4418 37.0573C85.3655 37.3058 84.6945 38.3797 84.943 39.456C85.1914 40.5322 86.2653 41.2033 87.3416 40.9548L104.88 36.9057C105.957 36.6572 106.628 35.5833 106.379 34.507C106.131 33.4308 105.057 32.7597 103.98 33.0082ZM77.6725 39.0819C76.5962 39.3303 75.9251 40.4043 76.1736 41.4805C76.4221 42.5568 77.496 43.2278 78.5723 42.9794C79.6485 42.7309 80.3196 41.657 80.0711 40.5807C79.8226 39.5045 78.7487 38.8334 77.6725 39.0819Z" fill="#B3D4F1"/>
<path fill-rule="evenodd" clip-rule="evenodd" d="M153.316 133.347L157.173 150.054C158.788 157.05 154.426 164.03 147.431 165.645L91.3413 178.595C84.3547 180.208 77.3813 175.859 75.7555 168.876L71.8623 152.152L153.316 133.347ZM117.108 152.108C114.418 152.729 112.74 155.414 113.361 158.104C113.982 160.795 116.667 162.473 119.358 161.852C122.048 161.23 123.726 158.546 123.105 155.855C122.484 153.164 119.799 151.487 117.108 152.108Z" fill="#B3D4F1"/>
<path d="M119.358 161.851C122.048 161.23 123.726 158.545 123.105 155.855C122.484 153.164 119.799 151.486 117.108 152.108C114.418 152.729 112.74 155.414 113.361 158.104C113.982 160.795 116.667 162.473 119.358 161.851Z" stroke="#006FCF" stroke-width="2"/>
<path d="M141.9 111.8C152.89 111.8 161.8 102.89 161.8 91.9C161.8 80.9095 152.89 72 141.9 72C130.91 72 122 80.9095 122 91.9C122 102.89 130.91 111.8 141.9 111.8Z" fill="#B3D4F1"/>
<path fill-rule="evenodd" clip-rule="evenodd" d="M77.2415 138.75C80.18 138.75 82.5728 141.028 82.5728 143.967L80.2145 168.457C80.2145 171.399 77.8218 173.75 74.8833 173.75H47.5418C44.6035 173.75 42.2118 171.447 42.2118 168.505L39.8535 143.987C39.8535 141.048 42.245 138.75 45.1835 138.75H77.2415ZM61.2098 151.377C59.0933 151.377 57.3743 153.025 57.3743 155.107L58.4243 163.75H64.003L65.05 155.086C65.05 153.003 63.3298 151.377 61.2098 151.377Z" fill="#B3D4F1"/>
<path d="M99.1264 116.249L99.5763 118.198L83.7633 121.849L83.3134 119.9L99.1264 116.249ZM118.77 97.329L119.221 99.2775L80.6144 108.208L80.1637 106.259L118.77 97.329ZM116.296 86.6109L116.746 88.5594L78.1399 97.4894L77.6892 95.5409L116.296 86.6109ZM113.596 74.9184L114.047 76.867L75.4405 85.797L74.9898 83.8485L113.596 74.9184ZM87.8788 67.5308L88.3287 69.4796L72.5157 73.1303L72.0658 71.1815L87.8788 67.5308Z" fill="#B3D4F1"/>
<path fill-rule="evenodd" clip-rule="evenodd" d="M61.2105 150.376C63.8863 150.376 66.0507 152.453 66.0507 155.085L66.0435 155.205L64.8902 164.749H57.5391L56.3823 155.227L56.375 155.107C56.375 152.473 58.5402 150.376 61.2105 150.376ZM61.2105 152.376C59.6501 152.376 58.406 153.562 58.3755 155.051L59.3108 162.749H63.1173L64.0502 155.03C64.0199 153.547 62.7802 152.376 61.2105 152.376Z" fill="#006FCF"/>
<path d="M142.5 97.9172C143.438 97.9172 144.129 98.5852 144.129 99.4523C144.129 100.331 143.438 100.999 142.5 100.999C141.563 100.999 140.872 100.331 140.872 99.4523C140.872 98.5852 141.563 97.9172 142.5 97.9172Z" fill="#006FCF"/>
<path d="M143.754 82.9172V95.6789H141.247V82.9172H143.754Z" fill="#006FCF"/>
<path fill-rule="evenodd" clip-rule="evenodd" d="M81.0459 40.3546C81.4186 41.969 80.412 43.5798 78.7977 43.9526C77.1833 44.3253 75.5724 43.3187 75.1997 41.7043C74.827 40.0899 75.8336 38.479 77.448 38.1063C79.0623 37.7336 80.6732 38.7402 81.0459 40.3546ZM77.8979 40.0551C77.3597 40.1793 77.0242 40.7163 77.1484 41.2544C77.2727 41.7925 77.8096 42.1281 78.3478 42.0038C78.8859 41.8796 79.2214 41.3426 79.0972 40.8045C78.9729 40.2664 78.436 39.9308 77.8979 40.0551Z" fill="#006FCF"/>
<path fill-rule="evenodd" clip-rule="evenodd" d="M107.354 34.2809C107.727 35.8953 106.72 37.5062 105.106 37.8789L87.567 41.928C85.9526 42.3007 84.3417 41.2941 83.969 39.6797C83.5963 38.0654 84.6029 36.4545 86.2173 36.0818L103.756 32.0327C105.37 31.66 106.981 32.6665 107.354 34.2809ZM104.206 33.9814L86.6672 38.0305C86.1291 38.1548 85.7935 38.6917 85.9178 39.2298C86.042 39.768 86.579 40.1035 87.1171 39.9793L104.656 35.9301C105.194 35.8059 105.529 35.269 105.405 34.7308C105.281 34.1927 104.744 33.8572 104.206 33.9814Z" fill="#006FCF"/>
<path fill-rule="evenodd" clip-rule="evenodd" d="M130.634 30.5233L130.708 30.8274L140.003 71.0843C140.628 71.028 141.261 70.9992 141.901 70.9992C149.45 70.9992 156.064 75.0013 159.737 80.9994L166.5 80.9992C167.053 80.9992 167.5 81.4469 167.5 81.9992C167.5 82.5121 167.114 82.9347 166.617 82.9925L166.5 82.9992L160.817 82.9993C161.415 84.268 161.889 85.6066 162.224 86.9995L166.153 86.9992C166.705 86.9992 167.153 87.4469 167.153 87.9992C167.153 88.512 166.767 88.9347 166.27 88.9925L166.153 88.9992L162.602 88.9999C162.733 89.9476 162.801 90.9157 162.801 91.8997C162.801 100.83 157.201 108.452 149.32 111.445L158.165 149.756C159.882 157.196 155.29 164.68 147.923 166.553L147.619 166.627L91.6049 179.559C86.1447 180.819 80.5139 178.686 77.2057 174.314C76.5556 174.568 75.8519 174.719 75.1161 174.745L74.884 174.749H47.5425C44.117 174.749 41.3384 172.107 41.2209 168.824L41.2171 168.599L39.9109 154.999L37.0005 154.999C36.4482 154.999 36.0005 154.551 36.0005 153.999C36.0005 153.486 36.3865 153.064 36.8839 153.006L37.0005 152.999L39.7189 152.999L39.3349 148.999L34.0005 148.999C33.4482 148.999 33.0005 148.551 33.0005 147.999C33.0005 147.486 33.3865 147.064 33.8839 147.006L34.0005 146.999L39.1429 146.999L38.8542 143.986C38.8542 140.585 41.5564 137.872 44.9517 137.753L45.1842 137.749L48.9659 137.749L48.9665 127.591C48.9665 121.408 54.4825 116.246 60.915 116.088L61.2172 116.085C61.6582 116.085 62.0951 116.108 62.5267 116.154L47.2741 50.0903C45.557 42.6527 50.1501 35.1642 57.5152 33.2916L57.8194 33.2178L113.834 20.2859C121.273 18.5683 128.762 23.1616 130.634 30.5233ZM152.598 134.538L82.9349 150.621L81.2152 168.456C81.2152 170.404 80.3321 172.138 78.9436 173.29C81.7362 176.839 86.3434 178.595 90.8519 177.676L91.155 177.61L147.169 164.678C153.539 163.208 157.585 156.868 156.28 150.5L156.216 150.206L152.598 134.538ZM77.2422 139.749H45.1842C42.8475 139.749 40.9711 141.511 40.8553 143.685L40.8496 143.89L43.2125 168.504C43.2125 170.801 45.0224 172.638 47.3312 172.744L47.5425 172.749H74.884C77.2106 172.749 79.101 170.946 79.2144 168.577L79.2198 168.361L81.5735 143.966C81.5735 141.608 79.6576 139.749 77.2422 139.749ZM130.424 38.4878L50.8872 56.8498L64.6755 116.576C69.5634 117.989 73.3229 122.284 73.4625 127.302L73.4665 127.591L73.4659 137.749L77.2422 137.749C80.6709 137.749 83.4476 140.369 83.565 143.825L83.5689 144.062L83.1379 148.521L152.148 132.589L147.411 112.066C145.656 112.545 143.808 112.8 141.901 112.8C130.358 112.8 121 103.443 121 91.8997C121 81.685 128.328 73.1818 138.014 71.36L130.424 38.4878ZM61.2172 118.085C55.8177 118.085 51.128 122.309 50.9706 127.33L50.9665 127.591L50.9659 137.749H71.4659L71.4665 127.591C71.4665 122.541 66.8714 118.233 61.4959 118.088L61.2172 118.085ZM141.901 72.9992C131.463 72.9992 123 81.4613 123 91.8997C123 102.338 131.463 110.8 141.901 110.8C152.339 110.8 160.801 102.338 160.801 91.8997C160.801 81.4613 152.339 72.9992 141.901 72.9992ZM114.577 22.1706L114.284 22.2346L58.2693 35.1665C51.9013 36.6367 47.8546 42.9808 49.1588 49.3466L49.2228 49.6404L50.4372 54.9028L129.974 36.5388L128.759 31.2773C127.29 24.9127 120.945 20.8659 114.577 22.1706Z" fill="#006FCF"/>
<path d="M30.0005 146.999C30.5528 146.999 31.0005 147.447 31.0005 147.999C31.0005 148.512 30.6144 148.935 30.1171 148.992L30.0005 148.999H27.9609C27.4087 148.999 26.9609 148.551 26.9609 147.999C26.9609 147.486 27.347 147.064 27.8443 147.006L27.9609 146.999H30.0005Z" fill="#006FCF"/>
<path d="M173.188 80.9992C173.741 80.9992 174.188 81.4469 174.188 81.9992C174.188 82.5121 173.802 82.9347 173.305 82.9925L173.188 82.9992H171C170.448 82.9992 170 82.5515 170 81.9992C170 81.4864 170.387 81.0637 170.884 81.0059L171 80.9992H173.188Z" fill="#006FCF"/>
<path d="M47.117 29.3717L47.5017 29.4605C48.0398 29.5847 48.3753 30.1217 48.2511 30.6598C48.1268 31.1979 47.5899 31.5335 47.0518 31.4092L46.6671 31.3204C43.1721 30.5135 39.6699 32.7335 38.8496 36.2865C38.375 38.3426 38.8944 40.455 40.2077 42.0291C40.5615 42.4532 40.5046 43.0838 40.0805 43.4376C39.6564 43.7914 39.0258 43.7344 38.672 43.3104C36.961 41.2595 36.2843 38.5076 36.9009 35.8366C37.9684 31.2129 42.5401 28.315 47.117 29.3717Z" fill="#006FCF"/>
<path d="M46.2383 33.1489C46.7764 33.2731 47.1119 33.8101 46.9877 34.3482C46.8635 34.8864 46.3265 35.2219 45.7884 35.0977C44.5269 34.8064 43.2682 35.593 42.9769 36.8544C42.8497 37.4057 42.9251 37.9691 43.1783 38.4579L43.2693 38.618C43.5605 39.0872 43.4162 39.7037 42.947 39.995C42.4778 40.2862 41.8613 40.142 41.57 39.6727C40.9692 38.7047 40.7667 37.5371 41.0282 36.4045C41.5679 34.0668 43.9005 32.6092 46.2383 33.1489Z" fill="#006FCF"/>
<path d="M158.973 171.54L159.358 171.628C163.935 172.685 168.507 169.787 169.574 165.163C170.191 162.492 169.514 159.741 167.803 157.69C167.449 157.266 166.819 157.209 166.395 157.562C165.971 157.916 165.914 158.547 166.267 158.971C167.581 160.545 168.1 162.657 167.625 164.713C166.805 168.266 163.303 170.486 159.808 169.68L159.423 169.591C158.885 169.467 158.348 169.802 158.224 170.34C158.1 170.878 158.435 171.415 158.973 171.54Z" fill="#006FCF"/>
<path d="M159.487 166.652C159.363 167.19 159.699 167.727 160.237 167.851C162.575 168.391 164.907 166.933 165.447 164.595C165.708 163.463 165.506 162.295 164.905 161.327C164.614 160.858 163.997 160.714 163.528 161.005C163.059 161.296 162.915 161.913 163.206 162.382L163.297 162.542C163.55 163.031 163.625 163.594 163.498 164.146C163.207 165.407 161.948 166.194 160.687 165.902C160.149 165.778 159.612 166.114 159.487 166.652Z" fill="#006FCF"/>
</svg>
