<svg width="120" height="210" viewBox="0 0 120 210" fill="none" xmlns="http://www.w3.org/2000/svg">
<g id="nhi-200-profile">
<rect width="120" height="210" fill="white"/>
<g id="Group">
<mask id="mask0" mask-type="alpha" maskUnits="userSpaceOnUse" x="0" y="0" width="120" height="210">
<rect id="Mask" width="120" height="210" fill="white"/>
</mask>
<g mask="url(#mask0)">
<path id="Path 15" fill-rule="evenodd" clip-rule="evenodd" d="M55.2174 76.5439C55.2174 76.5439 69.7589 99.3897 60.6361 125.915C51.5134 152.441 63.2258 180.185 63.2258 180.185C63.2258 180.185 73.4672 178.138 79.3165 174.175C85.1659 170.212 89.1378 162.628 89.1378 162.628L84.7035 157.404V146.126C84.7035 146.126 91.1869 137.512 94.2906 131.235C97.3942 124.958 98.882 117.453 98.882 117.453C98.882 117.453 104.909 110.877 105.743 104.999C106.578 99.1215 102.39 92.7472 102.39 92.7472V83.9993C102.39 83.9993 67.3456 83.785 55.3268 75.2749C48.2494 70.2637 42.4453 64.6775 50.3333 71.1624C58.2213 77.6472 55.2174 76.5439 55.2174 76.5439Z" fill="#BBDE8F"/>
<g id="Group 2">
<circle id="Oval" cx="43.5" cy="107.5" r="3.5" fill="#009639"/>
<circle id="Oval_2" cx="76.5" cy="107.5" r="3.5" fill="#009639"/>
<path id="Path" d="M51.3552 103.391C49.4572 100.961 46.4422 99.3906 43.0473 99.3906C39.9992 99.3906 37.2574 100.657 35.3552 102.674" stroke="#009639" stroke-width="2" stroke-linecap="round"/>
<path id="Path_2" d="M85.3552 103.391C83.4572 100.961 80.4422 99.3906 77.0473 99.3906C73.9992 99.3906 71.2574 100.657 69.3552 102.674" stroke="#009639" stroke-width="2" stroke-linecap="round"/>
<path id="Path_3" d="M70.9863 135.712L51 135.717" stroke="#009639" stroke-width="2" stroke-linecap="round"/>
<path id="Path 13" d="M59.9998 110L58.3818 125L66.5536 123.402" stroke="#009639" stroke-width="2"/>
</g>
<path id="Path 9" fill-rule="evenodd" clip-rule="evenodd" d="M18.882 170.651L0.332764 181V210H120.333V180.236L98.882 168.186C98.882 168.186 86.2501 192.186 59.6661 192.186C33.0822 192.186 18.882 170.651 18.882 170.651Z" fill="#E4F2D2"/>
<path id="Path 19" fill-rule="evenodd" clip-rule="evenodd" d="M48.8611 191.198C48.8611 191.198 53.9309 190.019 57.236 187.54C60.541 185.061 63.0811 180.999 63.0811 180.999C63.0811 180.999 71.6272 179.381 78.6542 174.347C85.6811 169.313 89.5944 162.006 89.5944 162.006L98.882 168.185C98.882 168.185 88.0511 183.229 76.9857 188.433C65.9204 193.637 48.8611 191.198 48.8611 191.198Z" fill="#78BE20"/>
<path id="Path 10" fill-rule="evenodd" clip-rule="evenodd" d="M17.7329 83.5581V66C17.7329 45.5655 34.2984 29 54.7329 29H65.3902C85.8247 29 102.39 45.5655 102.39 66V83.3388C102.39 83.3388 71.4991 83.2761 58.8819 77.0445C46.2647 70.813 44.2288 64 44.2288 64C44.2288 64 42.6324 67.2227 36.6785 73.7269C30.7247 80.231 17.7329 83.5581 17.7329 83.5581Z" fill="#E4F2D2"/>
<path id="Path 14" fill-rule="evenodd" clip-rule="evenodd" d="M55.2173 74.4841C55.2173 74.4841 58.3431 63.5844 68.2186 54.0704C78.094 44.5565 60.3326 29 60.3326 29C60.3326 29 98.8819 32.1229 102.39 61.0289C105.898 89.9349 102.39 83.2136 102.39 83.2136C102.39 83.2136 83.809 83.3442 73.177 81.2628C62.5451 79.1814 55.2173 74.4841 55.2173 74.4841Z" fill="#BBDE8F"/>
<path id="Path 18" fill-rule="evenodd" clip-rule="evenodd" d="M58.3821 192.186C58.3821 192.186 67.2134 194.785 71.8424 198.647C76.4714 202.509 79.7357 210 79.7357 210H120V180.186L98.8821 168.186C98.8821 168.186 90.8637 180.675 82.1994 185.81C73.535 190.944 58.3821 192.186 58.3821 192.186Z" fill="#78BE20"/>
<path id="Path 17" fill-rule="evenodd" clip-rule="evenodd" d="M67.9167 79.9605C67.9167 79.9605 81.5137 84.0148 89.0425 83.5575C96.5712 83.1001 102.39 82.6718 102.39 82.6718C102.39 82.6718 102.809 76.4848 102.39 69.8231C101.971 63.1614 100.76 56.7402 100.76 56.7402C100.76 56.7402 99.0433 71.9984 86.8407 76.5439C74.6382 81.0895 67.9167 79.9605 67.9167 79.9605Z" fill="#78BE20"/>
<path id="Path_4" d="M120.332 180.236C120.332 180.236 86.4739 162.642 84.5829 156.32V145.889C91.1953 138.832 96.4106 128.99 99.4975 117.467C106.914 112.035 108.757 100.836 102.619 92.9591V69.6076C102.619 45.5017 89.7523 29 60.3364 29C31.6792 29 18.0381 45.5017 18.0381 69.6076V92.9665C11.9134 100.832 13.753 112.023 21.1596 117.462C24.2455 128.989 29.465 138.831 36.0815 145.888V156.319C34.2163 162.566 -1 181 -1 181" stroke="#009639" stroke-width="2"/>
<path id="Path_5" d="M28.6262 164.516C34.8091 174.414 45.8019 180.999 58.3327 180.999C71.644 180.999 83.2197 173.568 89.1377 162.628L89.5943 162.006" stroke="#009639" stroke-width="2"/>
<path id="Path_6" d="M18.8821 170.651C27.0562 183.583 41.5894 192.186 58.1559 192.186C75.7543 192.186 91.0581 182.478 98.8821 168.186" stroke="#009639" stroke-width="2"/>
<path id="Path 8" d="M18.8821 83.339C18.8821 83.339 26.6044 82.0718 31.8198 78.0492C35.8659 74.9285 41.1029 68.0669 43.2476 65.1473C43.6962 64.5366 44.6801 64.5886 45.1132 65.2104C48.5165 70.0959 62.6266 85.7681 102.39 83.339" stroke="#009639" stroke-width="2"/>
<path id="Path 12" fill-rule="evenodd" clip-rule="evenodd" d="M85.3957 159.334C85.3957 159.334 83.5746 164.386 77.0753 170.27C70.5759 176.155 63.0811 179.635 63.0811 179.635C63.0811 179.635 71.5877 178.17 78.0942 173.68C84.6007 169.189 88.5698 162.136 88.5698 162.136L85.3957 159.334Z" fill="#78BE20"/>
<rect id="Rectangle" x="1" y="1" width="118" height="208" stroke="#009639" stroke-width="2"/>
<path id="Combined Shape" opacity="0.3" fill-rule="evenodd" clip-rule="evenodd" d="M118 100.043L2 37V63.7785L118 125V100.043ZM118 133.09L2 70V80.7329L118 142V133.09Z" fill="white"/>
</g>
</g>
</g>
</svg>
