<svg width="60" height="60" viewBox="0 0 60 60" fill="none" xmlns="http://www.w3.org/2000/svg">
<rect width="60" height="60" fill="white"/>
<path fill-rule="evenodd" clip-rule="evenodd" d="M15.8477 49L16.4847 52.5L35.4007 49H15.8477Z" fill="#B3D4F1"/>
<path d="M8.74854 13.917L15.7101 53.3979L15.2749 12.7662L8.74854 13.917Z" fill="#B3D4F1"/>
<path d="M46.001 14.446V8H16.001V48.089H46.001V31.505" fill="white"/>
<path d="M45.4719 36.142C51.8624 36.142 57.0429 30.9615 57.0429 24.571C57.0429 18.1805 51.8624 13 45.4719 13C39.0814 13 33.9009 18.1805 33.9009 24.571C33.9009 30.9615 39.0814 36.142 45.4719 36.142Z" fill="#B3D4F1"/>
<path d="M47.0004 7L47.0006 13.1001C52.6688 13.8482 57.0433 18.699 57.0433 24.5714C57.0433 30.4439 52.6688 35.2946 47.0006 36.0428L47.0004 49.0892L45.9018 49.089L14.8986 54.5558L7.58984 13.1061L14.9998 11.799L15.0004 7H47.0004ZM34.3798 49.089H15.9658L16.5209 52.2389L34.3798 49.089ZM45.0004 9H17.0004V47.0892H45.0004L45.0004 36.1334C38.8283 35.8861 33.9004 30.8042 33.9004 24.5714C33.9004 18.3386 38.8283 13.2568 45.0004 13.0094L45.0004 9ZM14.9998 13.83L9.90676 14.7284L14.9998 43.613V13.83ZM38.6477 39.0002V41.0002H20.0004V39.0002H38.6477ZM38.0004 35V37H20.0004V35H38.0004ZM45.4719 15C40.1857 15 35.9004 19.2853 35.9004 24.5714C35.9004 29.6995 39.9333 33.8857 45.0004 34.1315V34.1174L46.1566 34.1187C51.1232 33.7677 55.0433 29.6273 55.0433 24.5714C55.0433 19.2853 50.758 15 45.4719 15ZM34.0004 31V33H20.0004V31H34.0004ZM47.2391 19.2403L52.5943 24.5953L47.2391 29.9505L45.8249 28.5363L48.8612 25.4993L40.2162 25.5V23.5L48.6692 23.4993L45.8249 20.6545L47.2391 19.2403ZM24.0455 16C24.6026 16 25.0888 16.0818 25.5044 16.2454C25.92 16.4089 26.2626 16.6322 26.5323 16.9151C26.8019 17.1981 27.0053 17.5252 27.1423 17.8966C27.2794 18.2679 27.3479 18.6658 27.3479 19.0902C27.3479 19.8506 27.1644 20.4673 26.7975 20.9403C26.4306 21.4134 25.889 21.7339 25.1728 21.9019L28.3161 26H25.08L22.5999 22.1538V26H20.0004V16H24.0455ZM32.0004 24V26H29.0004V24H32.0004ZM33.0004 20V22H29.0004V20H33.0004ZM23.0906 18.0027H22.5999V20.4695H23.0906C23.6034 20.4695 23.9969 20.3634 24.271 20.1512C24.5451 19.939 24.6821 19.634 24.6821 19.2361C24.6821 18.8382 24.5451 18.5332 24.271 18.321C23.9969 18.1088 23.6034 18.0027 23.0906 18.0027ZM35.0004 16V18H29.0004V16H35.0004Z" fill="#006FCF"/>
</svg>
