<svg width="60" height="60" viewBox="0 0 60 60" fill="none" xmlns="http://www.w3.org/2000/svg">
<rect width="60" height="60" fill="white"/>
<circle cx="29.8034" cy="29.8034" r="20.9508" fill="#B3D4F1"/>
<path d="M41.1133 29.0985C41.8025 29.4787 41.8025 30.4694 41.1133 30.8496L29.4313 37.2949C28.7648 37.6626 27.9482 37.1805 27.9482 36.4193V23.5288C27.9482 22.7676 28.7648 22.2855 29.4313 22.6532L41.1133 29.0985Z" fill="white"/>
<path fill-rule="evenodd" clip-rule="evenodd" d="M7.86914 29.8031C7.86914 41.9171 17.6895 51.7375 29.8036 51.7375C41.9176 51.7375 51.738 41.9171 51.738 29.8031C51.738 17.689 41.9176 7.86865 29.8036 7.86865C17.6895 7.86865 7.86914 17.689 7.86914 29.8031ZM49.7708 29.8031C49.7708 40.8307 40.8312 49.7703 29.8036 49.7703C18.776 49.7703 9.83635 40.8307 9.83635 29.8031C9.83635 18.7755 18.776 9.83587 29.8036 9.83587C40.8312 9.83587 49.7708 18.7755 49.7708 29.8031ZM22.4436 22.6717C22.4436 22.1285 22.884 21.6881 23.4272 21.6881C23.9705 21.6881 24.4108 22.1285 24.4108 22.6717V37.4813C24.4108 38.0245 23.9705 38.4649 23.4272 38.4649C22.884 38.4649 22.4436 38.0245 22.4436 37.4813V22.6717ZM29.8823 38.1693C28.9311 38.6942 27.7344 38.3485 27.2096 37.3972C27.049 37.1062 26.9648 36.7792 26.9648 36.4469V23.5009C26.9648 22.4144 27.8456 21.5337 28.932 21.5337C29.2644 21.5337 29.5913 21.6179 29.8823 21.7784L41.6147 28.2514C42.5659 28.7763 42.9116 29.9729 42.3868 30.9242C42.2074 31.2493 41.9398 31.517 41.6147 31.6963L29.8823 38.1693ZM28.932 36.4469L40.6644 29.9739L28.932 23.5009V36.4469Z" fill="#006FCF"/>
</svg>
