<svg width="60" height="60" viewBox="0 0 60 60" fill="none" xmlns="http://www.w3.org/2000/svg">
<rect width="60" height="60" fill="white"/>
<path fill-rule="evenodd" clip-rule="evenodd" d="M33.9538 32.5213L8.61133 32.5209V25.175L29.6318 25.1743C30.237 28.0834 31.7902 30.645 33.9538 32.5213Z" fill="#339C63"/>
<path d="M43.1543 32.1978C48.6093 32.1978 53.0313 27.7758 53.0313 22.3208C53.0313 16.8659 48.6093 12.4438 43.1543 12.4438C37.6994 12.4438 33.2773 16.8659 33.2773 22.3208C33.2773 27.7758 37.6994 32.1978 43.1543 32.1978Z" fill="#339C63"/>
<path d="M30.7657 16.4627C30.4101 17.1699 30.1156 17.913 29.8891 18.6853L11.5741 18.6852C10.5513 18.6852 9.72222 19.5143 9.72222 20.5371L9.722 23.462L29.3901 23.4626C29.4476 24.2232 29.5688 24.9661 29.7486 25.6858L9.77325 25.6852V30.9074L32.3818 30.9078C33.065 31.7386 33.8468 32.4854 34.7092 33.1301L9.722 33.129L9.72222 43.4496C9.72222 44.4723 10.5513 45.3014 11.5741 45.3014H48.3816C49.4043 45.3014 50.2334 44.4723 50.2334 43.4496L50.2337 33.4368C51.0436 32.8796 51.7888 32.2351 52.4559 31.5171L52.4557 43.4496C52.4557 45.6996 50.6316 47.5237 48.3816 47.5237H11.5741C9.32402 47.5237 7.5 45.6996 7.5 43.4496V20.5371C7.5 18.287 9.32402 16.463 11.5741 16.463L30.7657 16.4627ZM44.2918 38.3148V40.5371H35.4029V38.3148H44.2918ZM53.1259 21.6054C53.4898 25.9926 50.9269 30.1463 46.7589 31.7462C43.2871 33.0789 39.3967 32.3729 36.627 29.9974C36.3738 29.7803 36.1319 29.5506 35.9047 29.3123L35.8963 31.7335L33.921 31.7257L33.9443 25.8097L39.6874 25.8321L39.6797 27.8073L37.1941 27.7974C37.4184 28.0458 37.6585 28.2798 37.913 28.498C40.1366 30.4051 43.2627 30.9725 46.051 29.9021C49.3934 28.6191 51.4492 25.2872 51.1574 21.7686L53.1259 21.6054ZM39.7222 21.3334C40.3359 21.3334 40.8333 21.8308 40.8333 22.4445C40.8333 23.0581 40.3359 23.5556 39.7222 23.5556C39.1086 23.5556 38.6111 23.0581 38.6111 22.4445C38.6111 21.8308 39.1086 21.3334 39.7222 21.3334ZM43.2778 21.3334C43.8914 21.3334 44.3889 21.8308 44.3889 22.4445C44.3889 23.0581 43.8914 23.5556 43.2778 23.5556C42.6641 23.5556 42.1667 23.0581 42.1667 22.4445C42.1667 21.8308 42.6641 21.3334 43.2778 21.3334ZM47.1296 21.3334C47.7433 21.3334 48.2407 21.8308 48.2407 22.4445C48.2407 23.0581 47.7433 23.5556 47.1296 23.5556C46.516 23.5556 46.0185 23.0581 46.0185 22.4445C46.0185 21.8308 46.516 21.3334 47.1296 21.3334ZM50.4586 15.636L50.468 13.1283L52.4433 13.136L52.4202 19.052L46.6771 19.0297L46.6848 17.0544L49.0871 17.0626C46.9007 14.6541 43.3802 13.7735 40.2466 14.9764C36.9042 16.2594 34.8484 19.5913 35.1402 23.1099L33.1717 23.2731C32.8078 18.886 35.3707 14.7322 39.5387 13.1323C43.398 11.6509 47.725 12.7056 50.4586 15.636Z" fill="white"/>
</svg>
