<svg width="60" height="60" viewBox="0 0 60 60" fill="none" xmlns="http://www.w3.org/2000/svg">
<rect width="60" height="60" fill="white"/>
<path fill-rule="evenodd" clip-rule="evenodd" d="M41.3664 10C37.1591 10 33.7484 13.4107 33.7484 17.618C33.7484 18.7947 33.7484 19.9503 33.7484 21.0847C33.7484 26.3261 29.9238 26.3261 29.9238 28.7133C29.9238 29.7787 30.7876 30.6425 31.8531 30.6425H51.131C52.1974 30.6425 53.0619 29.778 53.0619 28.7116C53.0619 28.2879 52.9225 27.876 52.6653 27.5394C51.8195 26.4325 51.2069 26.6267 50.3348 25.2935C49.7535 24.4047 49.3606 23.3651 49.1562 22.1746V17.7898C49.1562 13.4876 45.6686 10 41.3664 10Z" fill="#D8D8D8"/>
<path d="M27.1774 9.50775L27.2795 9.50925L27.2796 9.50775L27.4325 9.51225L27.8598 9.51902C29.2215 9.56403 30.5634 9.7437 31.8712 10.0533L32.83 10.2594C32.0066 11.2339 31.3357 12.3413 30.8542 13.545C30.7403 13.4235 30.6436 13.3218 30.6131 13.2928C29.8634 12.5804 29.087 12.1146 28.3018 11.8982L28.301 20.9303L31.1899 20.9308C31.1968 21.4426 31.1481 21.8866 31.0439 22.2628C30.9396 22.6389 30.7989 22.945 30.6218 23.1808L28.301 23.1803V37.9808L34.8 37.9825C34.9642 37.3126 35.1096 36.6162 35.2342 35.896L35.4427 34.463C35.7868 34.9524 36.1425 35.333 36.5099 35.6047C36.8772 35.8764 37.1894 36.0989 37.4464 36.2723C37.4332 36.3775 37.4059 36.5407 37.3644 36.762C37.2869 37.1756 37.2027 37.5825 37.1121 37.9825L43.2805 37.9823C43.4551 37.6384 43.6192 37.2877 43.7723 36.9307C44.1291 36.8979 44.5778 36.7554 45.1184 36.5033C45.659 36.2512 46.1955 35.8904 46.7279 35.4209C46.6588 35.6356 46.3659 36.4629 46.2901 36.6741C43.4553 44.5736 35.9776 50.0056 27.431 50.1111L27.2796 50.113L27.1774 50.1126L27.1205 50.1113L27.1219 50.113L26.9915 50.1098L26.7115 50.1074C15.714 49.8597 6.875 40.8672 6.875 29.8102C6.875 18.6326 15.9078 9.56479 27.072 9.50802L27.1219 9.50775H27.1774ZM28.301 40.2308L28.3019 47.7206C30.5993 47.0816 32.7513 44.3293 34.1455 40.2332L28.301 40.2308ZM26.051 40.2308L20.2572 40.232C21.6237 44.253 23.7324 47.0436 26.0521 47.7097L26.051 40.2308ZM17.888 40.232L12.4358 40.2326C14.5856 43.2678 17.6492 45.6101 21.2259 46.8586C19.8523 45.1683 18.7132 42.8957 17.888 40.232ZM36.5126 40.2325C35.6898 42.8938 34.5593 45.1481 33.2037 46.8285L33.5456 46.7046C36.9215 45.4316 39.8431 43.171 41.9228 40.2326L36.5126 40.2325ZM16.4529 31.7063L9.22334 31.7059C9.45703 33.9453 10.1001 36.063 11.0765 37.9827L17.2875 37.9825C16.8444 36.0287 16.5577 33.9165 16.4529 31.7063ZM26.051 31.7048L18.7061 31.7066C18.82 33.9506 19.1334 36.0664 19.6033 37.9817L26.051 37.9808V31.7048ZM41.3662 8.875C46.1778 8.875 50.0991 12.6869 50.2749 17.4556L50.281 17.7898L50.2806 22.0665L50.3513 22.4223C50.4796 22.9944 50.6596 23.5183 50.8909 23.9959L51.0739 24.3454L51.2761 24.6777C51.5295 25.065 51.7029 25.2496 52.0308 25.4906L52.2088 25.6171L52.4782 25.8071C52.854 26.08 53.1136 26.3123 53.4109 26.673L53.595 26.9062L53.7469 27.1322C54.0343 27.6083 54.1867 28.1544 54.1867 28.7116C54.1867 30.3226 52.9401 31.6425 51.3589 31.7591L51.1309 31.7675L46.6192 31.768C46.1477 34.0895 44.0951 35.8367 41.6345 35.8367C39.1738 35.8367 37.1212 34.0895 36.6497 31.768L31.8529 31.7675C30.2427 31.7675 28.9236 30.5215 28.8082 28.8933L28.8 28.6582L28.8146 28.3908C28.9021 27.5149 29.2989 26.8608 30.0183 26.1433C30.1595 26.0025 30.7057 25.4959 30.9549 25.257L31.0415 25.1728L31.2497 24.9571C32.1188 24.02 32.5581 23.0349 32.6165 21.4591L32.6232 21.0847V17.6179C32.6232 12.7893 36.5376 8.875 41.3662 8.875ZM44.283 31.768L38.986 31.7683C39.3952 32.8319 40.4267 33.5867 41.6345 33.5867C42.8423 33.5867 43.8739 32.8317 44.283 31.768ZM41.3662 11.125C37.8857 11.125 35.0448 13.8635 34.8807 17.3034L34.8732 17.618V21.0847C34.8732 23.6448 34.1124 25.2878 32.6304 26.7659L32.5909 26.8049L32.5436 26.8507L31.6072 27.7364C31.2699 28.0728 31.1187 28.2946 31.0716 28.4801L31.0576 28.5577L31.0487 28.7133C31.0487 29.113 31.3403 29.4446 31.7224 29.507L31.8529 29.5175H51.1308C51.5759 29.5175 51.9367 29.1567 51.9367 28.7116C51.9367 28.6014 51.9141 28.4929 51.8848 28.4143L51.8539 28.3469L51.7712 28.2224C51.5732 27.9632 51.4341 27.8287 51.1487 27.6221L50.9584 27.488L50.6897 27.2971C50.1599 26.9064 49.8096 26.5459 49.3932 25.9093C48.8081 25.0149 48.3923 23.9961 48.1436 22.8593L48.0472 22.3649L48.031 22.1746V17.7898C48.031 14.1089 45.0471 11.125 41.3662 11.125ZM16.9763 23.1804L10.3812 23.1806C9.61147 25.1292 9.17102 27.2437 9.12841 29.4557L16.409 29.4548L16.4117 29.2731C16.4399 27.1486 16.6353 25.1007 16.9763 23.1804ZM26.051 23.1803L19.2676 23.1806C18.8961 25.1248 18.6806 27.2381 18.6598 29.4554L26.051 29.4548V23.1803ZM21.2253 12.7607L21.1468 12.7896C17.0204 14.2517 13.5838 17.1718 11.4562 20.9306L17.4567 20.9299C18.2935 17.5991 19.5944 14.7701 21.2253 12.7607ZM26.0521 11.9111C23.4465 12.6592 21.1071 16.0876 19.7868 20.9295L26.051 20.9303L26.0521 11.9111Z" fill="#979797"/>
</svg>
