<svg width="60" height="60" viewBox="0 0 60 60" fill="none" xmlns="http://www.w3.org/2000/svg">
<rect width="60" height="60" fill="white"/>
<path fill-rule="evenodd" clip-rule="evenodd" d="M38.2277 30.9469H7.70801V23.6011H51.9998V28.7093C51.9998 28.7093 48.4095 27.0054 44.6795 28.0002C40.9495 28.9949 38.2277 30.9469 38.2277 30.9469Z" fill="#B3D4F1"/>
<path fill-rule="evenodd" clip-rule="evenodd" d="M41.3758 45H41.5111V45.1104C45.0316 47.8151 50.1135 47.5567 53.3353 44.335C56.5993 41.071 56.8215 35.8977 54.0025 32.3733L41.3758 45ZM38.5297 45C35.4347 41.2795 35.1797 35.9806 37.7647 32H9.5V43C9.5 44.1145 10.3462 45 11.3667 45H38.5297ZM9.5 30H39.3995V30.0318L39.441 29.9915C42.478 27.1228 46.7624 26.3173 50.5 27.575V24H9.5V30ZM9.5 22V18C9.5 16.8855 10.3462 16 11.3667 16H48.6333C49.6538 16 50.5 16.8855 50.5 18V22H9.5ZM52.5 28.4809V18C52.5 15.8008 50.7793 14 48.6333 14H11.3667C9.22074 14 7.5 15.8008 7.5 18V43C7.5 45.1992 9.22074 47 11.3667 47H40.707C44.9884 49.9818 50.9337 49.565 54.7495 45.7492C59.0335 41.4652 59.033 34.4969 54.7488 30.213C54.061 29.5252 53.304 28.9478 52.5 28.4809ZM40.6273 31.6272L40.4253 31.8358C37.3552 35.1082 37.1999 40.1379 39.9592 43.5882L52.5883 30.9591C49.0637 28.1406 43.891 28.3632 40.6273 31.6272Z" fill="#006FCF"/>
<path d="M14 38H24" stroke="#006FCF" stroke-width="2"/>
</svg>
