<svg width="60" height="60" viewBox="0 0 60 60" fill="none" xmlns="http://www.w3.org/2000/svg">
<rect width="60" height="60" fill="white"/>
<path fill-rule="evenodd" clip-rule="evenodd" d="M9 22C5.68629 22 3 19.3137 3 16C3 12.6863 5.68629 10 9 10H50C53.3137 10 56 12.6863 56 16C56 19.3137 53.3137 22 50 22V17H9.09948L9 22Z" fill="#B3D4F1"/>
<circle cx="44.5261" cy="40.1052" r="10.8947" fill="#B3D4F1"/>
<path fill-rule="evenodd" clip-rule="evenodd" d="M50 9C53.866 9 57 12.134 57 16C57 19.2854 54.7367 22.0421 51.6842 22.7961V30.6045C54.5613 32.7755 56.4211 36.2232 56.4211 40.1053C56.4211 46.6745 51.0956 52 44.5263 52C41.4954 52 38.7293 50.8664 36.6288 49H8V45V43.5871V40V39.5871V22.9291C4.60771 22.4439 2 19.5265 2 16C2 12.2145 5.00478 9.1309 8.75935 9.00406L9 9H50ZM55 16C55 18.1705 53.617 20.0179 51.6842 20.7093V16H8V20.9C5.71776 20.4367 4 18.419 4 16C4 13.2386 6.23858 11 9 11H50L50.2169 11.0046C52.8777 11.1182 55 13.3112 55 16ZM49.684 29.3839V18H9.999V38H32.8173C33.8112 32.4349 38.6754 28.2105 44.5263 28.2105C46.3743 28.2105 48.1238 28.6319 49.684 29.3839ZM32.632 40H9.99988L9.999 43H32.9863C32.7546 42.0734 32.6316 41.1037 32.6316 40.1053C32.6316 40.0701 32.6317 40.0351 32.632 40ZM33.6821 45H9.99959L9.999 47H34.8325C34.3875 46.3755 34.0014 45.7061 33.6821 45ZM16.0745 28.6646V32.8421H13.982V22.3421H18.422C20.927 22.3421 22.2695 23.5271 22.2695 25.5371C22.2695 27.2621 21.0695 28.4396 19.052 28.6346L22.2845 32.8421H19.7495L16.6895 28.6646H16.0745ZM16.0745 26.8421H18.3845C19.5245 26.8421 20.117 26.4221 20.117 25.5371C20.117 24.6671 19.4945 24.2696 18.3845 24.2696H16.0745V26.8421ZM44.5263 30.2105C49.991 30.2105 54.4211 34.6406 54.4211 40.1053C54.4211 45.57 49.991 50 44.5263 50C39.0616 50 34.6316 45.57 34.6316 40.1053C34.6316 34.6406 39.0616 30.2105 44.5263 30.2105ZM45.8 34.505V43.0995L49.8137 39.0858L51.2279 40.5L44.864 46.864L38.5 40.5L39.9142 39.0858L43.8 42.9715V34.505H45.8Z" fill="#006FCF"/>
</svg>
