<svg width="60" height="60" viewBox="0 0 60 60" fill="none" xmlns="http://www.w3.org/2000/svg">
<g clip-path="url(#clip0)">
<rect width="60" height="60" fill="white"/>
<circle cx="45.5" cy="37.5" r="11" fill="#D8D8D8"/>
<path fill-rule="evenodd" clip-rule="evenodd" d="M49.729 17.0566V24.8829H47.729V17.0565C47.729 16.7069 47.6699 16.3713 47.5604 16.059L33.928 28.3168L34.9717 29.3402L33.5715 30.7683L32.4378 29.6567L31.0731 30.8838C29.418 32.3721 26.8243 32.3721 25.1692 30.8838L23.7736 29.6289L11.1919 41.9655C11.492 42.0557 11.8129 42.1042 12.1478 42.1042H33.9405V44.1042H12.1478C9.28068 44.1042 7 41.8613 7 39.053V17.0566C7 14.2474 9.28122 12 12.1478 12H44.5684C47.4363 12 49.7292 14.2491 49.729 17.0566ZM9.54206 40.7822C9.19868 40.292 9 39.6971 9 39.053V17.0566C9 16.8335 9.02382 16.6162 9.06922 16.4071L22.2835 28.289L9.54206 40.7822ZM10.1453 14.685L26.5064 29.3966C27.4011 30.2011 28.8412 30.2011 29.7359 29.3966L46.3081 14.4953C45.8121 14.1819 45.2158 14 44.5684 14H12.1478C11.3799 14 10.6854 14.2562 10.1453 14.685ZM50.1937 39.1331C50.1937 39.1594 50.192 39.1869 50.1895 39.2284L50.1882 39.2411L50.1879 39.2491C50.1865 39.313 50.1882 39.3949 50.1946 39.4863C50.2131 39.7538 50.2645 40.0258 50.3539 40.2694C50.5788 40.8826 50.9689 41.1944 51.7523 41.1944C53.7938 41.1944 55.1855 39.0885 54.921 36.3376C54.3804 31.6104 50.332 28 45.491 28C40.2475 28 36 32.2136 36 37.4074C36 42.6013 40.2475 46.8149 45.491 46.8149C47.5386 46.8149 49.4855 46.1717 51.1003 44.9969L52.2769 46.6142C50.3228 48.0358 47.9647 48.8149 45.491 48.8149C39.1465 48.8149 34 43.7094 34 37.4074C34 31.1054 39.1465 26 45.491 26C51.3485 26 56.252 30.3729 56.9099 36.1282C57.2782 39.9551 55.1374 43.1944 51.7523 43.1944C50.3569 43.1944 49.3618 42.5872 48.7796 41.6026C47.9321 42.3184 46.7895 42.8537 45.5881 43.0819C42.9217 43.5883 40.7255 42.4127 40.4223 39.6398C40.1052 36.7404 42.1669 35.5077 45.3046 35.5425C46.2082 35.5525 47.1617 35.6639 48.115 35.8429L48.1808 35.8554C48.149 35.5394 48.0646 35.1743 47.9039 34.8283C47.2824 33.4907 45.7753 33.0258 42.5567 34.1636L41.8901 32.278C46.0104 30.8213 48.6219 31.6269 49.7177 33.9857C50.097 34.8022 50.2124 35.6158 50.194 36.2659V39.1331H50.1937ZM48.194 39.0789C48.1914 39.1193 48.1907 39.1307 48.1896 39.166C48.0813 39.8262 46.7376 40.8278 45.2149 41.117C43.5851 41.4266 42.5702 40.8832 42.4104 39.4223C42.2619 38.0648 43.1749 37.519 45.2824 37.5424C46.0556 37.551 46.8983 37.6494 47.7459 37.8086C47.9012 37.8377 48.0511 37.8679 48.1946 37.8986L48.194 39.0789Z" fill="#979797"/>
</g>
<defs>
<clipPath id="clip0">
<rect width="60" height="60" fill="white"/>
</clipPath>
</defs>
</svg>
