<svg width="60" height="60" viewBox="0 0 60 60" fill="none" xmlns="http://www.w3.org/2000/svg">
<rect width="60" height="60" fill="white"/>
<path fill-rule="evenodd" clip-rule="evenodd" d="M32.6816 9.11475C37.4628 9.78291 41.4893 11.7691 44.7612 15.0732C48.0331 18.3774 50.2465 22.6927 51.4014 28.0191C50.0305 24.9837 48.0812 23.4659 45.5534 23.4659C43.0257 23.4659 41.1985 24.8388 40.0716 27.5846C40.2627 24.226 39.732 20.9814 38.4794 17.8508C37.2268 14.7202 35.2942 11.8082 32.6816 9.11475ZM29.8968 9.11475C29.2939 9.19684 28.8861 9.29645 28.6736 9.41358C26.072 10.8473 24.2783 13.2062 22.8096 16.0994C21.161 19.3471 20.3981 23.1755 20.5211 27.5846C21.7769 25.3537 23.1844 23.9808 24.7434 23.4659C26.3024 22.9511 28.0202 23.2918 29.8968 24.4883V9.11475Z" fill="#B3D4F1"/>
<path d="M30.1637 7.96436C41.5975 7.96436 51.1389 16.5822 52.3888 27.8293C52.4503 28.107 52.4949 28.3907 52.522 28.6798L50.2818 28.8897C50.267 28.7319 50.2445 28.5765 50.2147 28.4237L50.1882 28.4256L50.1663 28.2035C49.6556 26.1192 47.7723 24.591 45.5539 24.591C43.0865 24.591 41.0353 26.4812 40.8232 28.922L39.2399 28.7834L38.1129 28.8897C38.0888 28.6322 38.0442 28.3809 37.9808 28.1375L37.8963 28.1276L37.9193 27.9224C37.3145 25.9832 35.5024 24.591 33.3851 24.591C32.6414 24.591 31.9254 24.7618 31.2807 25.0811L31.2815 46.192C31.2815 49.4642 28.6288 52.1168 25.3566 52.1168H25.2302C22.0278 52.1168 19.4318 49.5208 19.4318 46.3184C19.4318 45.6971 19.9355 45.1934 20.5568 45.1934C21.1781 45.1934 21.6818 45.6971 21.6818 46.3184C21.6818 48.2781 23.2704 49.8668 25.2302 49.8668H25.3566C27.3862 49.8668 29.0315 48.2215 29.0315 46.192L29.0319 25.4072C28.2549 24.8795 27.3351 24.591 26.3688 24.591C24.0092 24.591 22.0286 26.3202 21.6758 28.6084C21.6772 28.6109 21.6774 28.6129 21.6776 28.6149C21.661 28.7054 21.6497 28.7971 21.641 28.8897L20.1919 28.7534L19.4374 28.8249L19.4199 28.6814L19.4008 28.6798C19.4035 28.6513 19.4063 28.623 19.4093 28.5947C19.0828 26.3179 17.1211 24.591 14.7808 24.591C12.3506 24.591 10.3304 26.4527 10.1214 28.8566L7.87988 28.6618C7.88844 28.5633 7.89905 28.4654 7.91166 28.3682L7.88528 28.3671C8.88476 16.8666 18.5385 7.96845 30.1556 7.96436L30.1555 7.96436L30.1637 7.96436ZM34.3453 10.6508L34.3567 10.6632C37.9017 14.5116 40.0095 19.5067 40.2565 24.7669C41.5429 23.2773 43.4451 22.341 45.5539 22.341C46.8016 22.341 47.9773 22.6688 48.996 23.2451C46.6023 16.876 41.0768 12.0768 34.3453 10.6508ZM29.0051 10.2473L28.8426 10.3791L28.4656 10.7021C24.5331 14.1567 22.1127 18.988 21.6806 24.1442C22.9244 23.021 24.5719 22.341 26.3688 22.341C27.2972 22.341 28.1987 22.5228 29.0314 22.8655L29.0311 10.2458C29.0224 10.2463 29.0138 10.2468 29.0051 10.2473ZM25.1153 10.8541L25.0586 10.8694C18.7392 12.5249 13.6031 17.1815 11.3235 23.2653C12.3427 22.6766 13.5247 22.341 14.7808 22.341C16.561 22.341 18.1931 23.0153 19.4253 24.1286C19.7992 19.1981 21.808 14.5265 25.1153 10.8541ZM31.2818 10.7914L31.281 22.6631C31.9528 22.4517 32.6607 22.341 33.3851 22.341C35.124 22.341 36.7229 22.9778 37.9523 24.0365C37.4992 18.9546 35.1151 14.2046 31.2818 10.7914Z" fill="#006FCF"/>
</svg>
