<svg width="60" height="60" viewBox="0 0 60 60" fill="none" xmlns="http://www.w3.org/2000/svg">
<rect width="60" height="60" fill="white"/>
<path d="M33.6717 34.7658L42.2896 43.3836" stroke="#006FCF" stroke-width="2"/>
<rect x="30.7993" y="26.1479" width="3.25" height="8.125" transform="rotate(45 30.7993 26.1479)" fill="#B3D4F1"/>
<rect x="47.4604" y="42.8091" width="3.25" height="8.125" transform="rotate(45 47.4604 42.8091)" fill="#B3D4F1"/>
<rect x="34.8208" y="26.7222" width="4.0625" height="13" transform="rotate(45 34.8208 26.7222)" fill="#B3D4F1"/>
<rect x="46.3115" y="38.2129" width="4.0625" height="13" transform="rotate(45 46.3115 38.2129)" fill="#B3D4F1"/>
<path fill-rule="evenodd" clip-rule="evenodd" d="M11.0326 14.8199C15.7716 10.0803 23.4554 10.0803 28.1948 14.8198L30.1126 16.7371L32.0307 14.8193C36.7696 10.0798 44.4531 10.0798 49.1926 14.8193C53.9322 19.5589 53.9321 27.2427 49.1747 31.9992L46.705 34.351L45.3258 32.9026L47.778 30.5679C51.7368 26.6095 51.7369 20.192 47.7784 16.2335C43.8199 12.275 37.4029 12.275 33.4449 16.2336L30.1127 19.5653L26.7807 16.2341C22.8222 12.2756 16.4048 12.2756 12.4469 16.2341C8.48842 20.1925 8.48842 26.6096 12.4469 30.5679L30.1126 48.2324L31.8059 46.5392L33.2201 47.9535L30.1126 51.0607L11.0327 31.9821C6.29315 27.2428 6.29315 19.5594 11.0326 14.8199ZM27.9267 35.0308L33.9371 29.0203L34.821 28.1365L36.2794 29.5949L28.5012 37.373L27.0428 35.9146L27.9267 35.0308ZM26.5125 33.6165L24.2144 31.3184L30.2248 25.308L32.5229 27.6061L34.821 25.308L39.1078 29.5949L28.5012 40.2015L24.2144 35.9146L26.5125 33.6165ZM27.9267 32.2023L27.0428 31.3184L30.2248 28.1365L31.1086 29.0203L27.9267 32.2023ZM44.5879 51.692L50.5983 45.6815L48.3002 43.3834L50.5983 41.0854L46.3114 36.7985L35.7048 47.4051L39.9917 51.692L42.2898 49.3939L44.5879 51.692ZM39.9917 48.8635L40.8756 47.9796L46.886 41.9692L47.7699 41.0854L46.3114 39.6269L38.5333 47.4051L39.9917 48.8635ZM44.5879 48.8635L43.704 47.9796L46.886 44.7977L47.7698 45.6815L44.5879 48.8635Z" fill="#006FCF"/>
</svg>
