<svg width="60" height="60" viewBox="0 0 60 60" fill="none" xmlns="http://www.w3.org/2000/svg">
<rect width="60" height="60" fill="white"/>
<path fill-rule="evenodd" clip-rule="evenodd" d="M28.0483 28.6702C29.5832 29.9039 31.4455 30.6418 33.453 30.6418H36.4853L45.2594 38V30.6628C49.0226 29.7858 52.8447 25.4353 52.8447 19.8534C52.8447 14.0242 48.3326 9 43.0796 9H33.453C28.2 9 23.9413 13.9919 23.9413 19.821C23.9413 20.7445 24.0505 21.6497 24.2554 22.5187C24.2554 22.5187 27.1715 21.5374 28.0483 22.5187C28.9251 23.5 28.0483 28.6702 28.0483 28.6702Z" fill="#339C63"/>
<rect x="8.5" y="32.9316" width="7.81818" height="18.5682" rx="1" fill="#339C63"/>
<path fill-rule="evenodd" clip-rule="evenodd" d="M23.07 18C23.2188 16.952 23.4933 15.9448 23.876 15H20.6749C20.1226 15 19.6749 14.5523 19.6749 14C19.6749 13.4872 20.061 13.0645 20.5583 13.0067L20.6749 13H24.5335C24.6509 13 24.7637 13.0202 24.8683 13.0574C26.7742 10.0228 29.9127 8 33.4534 8H43.08L43.3525 8.004C49.0606 8.17181 53.8451 13.5905 53.8451 19.8534L53.8414 20.1621C53.7167 25.2969 50.498 29.866 46.4683 31.3429L46.2608 31.415L46.2598 40.1437L36.1218 31.641L33.4534 31.6418L33.1094 31.6353C31.5257 31.5759 29.9988 31.1068 28.6203 30.284L28.0912 32.909H33.749C35.9582 32.909 37.749 34.6998 37.749 36.909C37.749 37.229 37.7106 37.5475 37.6349 37.8578L37.5711 38.0888L33.993 49.6798C33.4961 51.2894 32.0479 52.4077 30.3805 52.4946L30.1709 52.5H23.2981C22.3101 52.5 21.3346 52.2909 20.4352 51.8878L20.1383 51.7463L17.3182 50.3196V50.5C17.3182 51.6046 16.4228 52.5 15.3182 52.5H9.5C8.39543 52.5 7.5 51.6046 7.5 50.5V33.9318C7.5 32.8272 8.39543 31.9318 9.5 31.9318H15.3182C16.4228 31.9318 17.3182 32.8272 17.3182 33.9318V34.2493C18.127 33.9817 18.8079 33.3956 19.1871 32.6078L19.2656 32.4314L23.2628 22.6582L23.1926 22.337C23.0382 21.5697 22.954 20.7874 22.943 20H20.6749C20.1226 20 19.6749 19.5523 19.6749 19C19.6749 18.4872 20.061 18.0645 20.5583 18.0067L20.6749 18H23.07ZM24.9955 20.8943C25.6671 20.6399 26.4329 20.6294 27.15 20.9227C27.2542 20.9653 27.3557 21.0138 27.4542 21.068L27.5996 21.1535L27.7979 21.2779C29.1484 22.1251 29.8613 23.6886 29.629 25.2527L29.5933 25.4567L29.0458 28.1728C30.373 29.1278 31.8867 29.6418 33.4534 29.6418H36.8495L44.2608 35.856L44.2598 29.869L45.0329 29.6889L45.2547 29.6329C48.7936 28.6697 51.8451 24.5191 51.8451 19.8534C51.8451 14.551 47.7528 10 43.08 10H33.4534L33.2107 10.0041C28.6947 10.1569 24.9417 14.559 24.9417 19.821C24.9417 20.1803 24.9598 20.5385 24.9955 20.8943ZM17.3418 48.0902L17.3182 48.1369V36.3132C19.0074 35.9814 20.4485 34.8224 21.1167 33.1885L25.1658 23.2886L25.2172 23.1821C25.4466 22.7746 25.9489 22.5923 26.3929 22.7739C26.4429 22.7943 26.491 22.819 26.5368 22.8477L26.735 22.9721L26.8713 23.0656C27.485 23.525 27.7862 24.3005 27.6328 25.0615L26.1306 32.5138L26.1065 32.6612C25.9768 33.6907 26.6624 34.6612 27.696 34.8695C27.8261 34.8958 27.9584 34.909 28.0912 34.909H33.749L33.8983 34.9145C34.9332 34.9908 35.749 35.8546 35.749 36.909C35.749 37.109 35.719 37.3078 35.66 37.4989L32.082 49.0899L32.0275 49.2439C31.7259 49.9975 30.9934 50.5 30.1709 50.5H23.2981L23.0047 50.4914C22.3219 50.4512 21.6534 50.2713 21.0411 49.9616L17.3418 48.0902ZM15.3182 33.9318H9.5V50.5H15.3182V33.9318ZM43.0255 15.2929L44.4398 16.7071L35.7037 25.4431L32.2929 22.0323L33.7071 20.6181L35.703 22.614L43.0255 15.2929ZM18.5335 14C18.5335 13.4477 18.0858 13 17.5335 13H16.0734L15.9568 13.0067C15.4595 13.0645 15.0734 13.4872 15.0734 14C15.0734 14.5523 15.5211 15 16.0734 15H17.5335L17.6501 14.9933C18.1475 14.9355 18.5335 14.5128 18.5335 14Z" fill="white"/>
</svg>
