<svg width="60" height="60" viewBox="0 0 60 60" fill="none" xmlns="http://www.w3.org/2000/svg">
<rect width="60" height="60" fill="white"/>
<path d="M35.4814 17.748C41.7135 17.748 46.7656 22.8002 46.7656 29.0322L34.1814 29.032L36.7243 22.0475L29.5444 19.4343C31.269 18.3652 33.3032 17.748 35.4814 17.748Z" fill="#B3D4F1"/>
<path d="M23.4156 26.8317C27.8795 24.2545 29.409 18.5465 26.8317 14.0826C24.2545 9.61872 18.5465 8.08927 14.0826 10.6665C9.61871 13.2437 8.08926 18.9517 10.6665 23.4156C13.2437 27.8795 18.9517 29.409 23.4156 26.8317Z" fill="#B3D4F1"/>
<path d="M10.9041 53.7821C9.70849 53.7821 8.73929 52.8129 8.73929 51.6174V38.9469C8.73929 37.8519 9.55233 36.9468 10.6077 36.8023L13.9144 27.8837C12.2522 27.0059 10.8094 25.6643 9.80019 23.9163C6.94672 18.9739 8.6401 12.6542 13.5825 9.80068C18.5248 6.94721 24.8446 8.64059 27.698 13.5829C28.6028 15.15 29.0504 16.8556 29.0823 18.5452C30.7527 17.5228 32.6865 16.8892 34.7581 16.7689L34.7587 13.7521C34.7587 13.1998 35.2064 12.7521 35.7587 12.7521C36.311 12.7521 36.7587 13.1998 36.7587 13.7521L36.7581 16.8135C42.5473 17.4113 47.1435 22.0295 47.7074 27.8287L48.7569 27.8284C49.3092 27.8284 49.7569 28.2761 49.7569 28.8284C49.7569 29.3806 49.3092 29.8284 48.7569 29.8284L33.8915 29.8281L34.4831 28.2026L27.5797 47.1213L23.5511 45.6186L23.5513 46.0901L24.1251 46.0911C24.6774 46.0911 25.1251 46.5389 25.1251 47.0911V49.4207C25.1251 49.973 24.6774 50.4207 24.1251 50.4207L23.5513 50.4201L23.5511 51.7816L27.6215 51.7821V47.0551L29.6069 41.6062C29.6171 41.6633 29.6224 41.7221 29.6224 41.7821L29.6215 51.7821H34.7585V39.5811H30.3415L31.0695 37.5811H34.7585L34.7587 33.8357L34.7615 33.7821H32.4525L33.1805 31.7821L50.7482 31.7821C51.3005 31.7821 51.7482 32.2299 51.7482 32.7821C51.7482 33.3344 51.3005 33.7821 50.7482 33.7821L47.6932 33.782L47.6946 33.8357L47.6945 37.5811L52.0758 37.5818C52.6281 37.5818 53.0758 38.0295 53.0758 38.5818C53.0758 39.1341 52.6281 39.5818 52.0758 39.5818L50.2175 39.5811V51.7821L53.2393 51.7821C53.7916 51.7821 54.2393 52.2299 54.2393 52.7821C54.2393 53.3344 53.7916 53.7821 53.2393 53.7821H10.9041ZM48.2175 39.5811H43.4875V51.7821H48.2175V39.5811ZM41.4875 39.5811H36.7585V51.7821H41.4875V39.5811ZM21.5517 44.7821H10.7393V51.6174C10.7393 51.7084 10.8131 51.7821 10.9041 51.7821H21.5517L21.5518 50.4071C20.471 50.286 19.6308 49.3691 19.6308 48.2559C19.6308 47.1428 20.471 46.2258 21.5518 46.1047L21.5517 44.7821ZM23.1251 48.0911H21.7955C21.7046 48.0911 21.6308 48.1649 21.6308 48.2559C21.6308 48.3469 21.7046 48.4207 21.7955 48.4207H23.1251V48.0911ZM28.7694 21.2737C28.1787 23.618 26.7709 25.7541 24.6699 27.2192L29.1479 28.842L28.4665 30.7223L22.2557 28.4716C20.1238 29.2434 17.8482 29.2705 15.7659 28.643L12.7471 36.7816L22.5517 36.7821C23.104 36.7821 23.5517 37.2299 23.5517 37.7821C23.5517 38.3344 23.104 38.7821 22.5517 38.7821H10.9041C10.8131 38.7821 10.7393 38.8559 10.7393 38.9469V39.7821H22.5517C23.104 39.7821 23.5517 40.2299 23.5517 40.7821C23.5517 41.3344 23.104 41.7821 22.5517 41.7821H10.7393V42.6941L10.7343 42.7821H23.5517L23.5511 43.4986L23.5564 43.4862L26.3914 44.5435L34.1673 23.2354L28.7694 21.2737ZM40.6495 33.7821L36.7573 33.782L36.7587 33.8357L36.7585 37.5811H40.6465L40.6473 33.8357L40.6495 33.7821ZM45.6975 33.7821L42.6459 33.782L42.6469 33.8088L42.6465 37.5811H45.6945L45.6946 33.8357L45.6975 33.7821ZM18.494 29.4821L27.3834 32.8221L26.6799 34.6944L17.7906 31.3544L18.494 29.4821ZM35.4814 18.748C33.7906 18.748 32.1951 19.156 30.788 19.8789L36.7327 22.0397L34.6201 27.8276L45.6959 27.8284C45.0998 22.7158 40.754 18.748 35.4814 18.748ZM14.5825 11.5327C10.5967 13.8339 9.23106 18.9305 11.5322 22.9163C13.8334 26.902 18.93 28.2677 22.9158 25.9665C26.9016 23.6653 28.2672 18.5687 25.966 14.5829C23.6648 10.5972 18.5682 9.23154 14.5825 11.5327ZM22.9101 14.851L24.2484 16.3373L16.8902 22.9627L14.1393 19.9075L15.6256 18.5693L17.0382 20.1381L22.9101 14.851Z" fill="#006FCF"/>
</svg>
