<svg width="60" height="60" viewBox="0 0 60 60" fill="none" xmlns="http://www.w3.org/2000/svg">
<rect width="60" height="60" fill="white"/>
<path fill-rule="evenodd" clip-rule="evenodd" d="M35.872 24.0674C35.8679 24.0686 35.4981 24.1729 34.9309 24.1729C33.7314 24.1729 31.9944 23.7308 30.5306 21.624C30.3605 21.3792 29.9534 21.3792 29.7833 21.624C28.0162 24.1674 25.5248 24.4345 24.4437 24.068C24.1544 23.982 23.8594 24.1984 23.8594 24.5042V28.7884C23.8594 34.768 29.9754 36.505 30.037 36.5222C30.0761 36.5329 30.1164 36.5382 30.1567 36.5382C30.197 36.5382 30.2373 36.5329 30.2764 36.5222C30.3386 36.505 36.4546 34.768 36.4546 28.7884V24.5042C36.4546 24.2078 36.1684 23.9832 35.872 24.0674Z" fill="#B3D4F1"/>
<path d="M18.0835 13C18.0835 10.7909 19.8744 9 22.0835 9H38.0677C40.2769 9 42.0677 10.7909 42.0677 13V16H18.0835V13Z" fill="#B3D4F1"/>
<path d="M18.0835 47C18.0835 49.2091 19.8744 51 22.0835 51H38.0677C40.2769 51 42.0677 49.2091 42.0677 47V43H18.0835V47Z" fill="#B3D4F1"/>
<path fill-rule="evenodd" clip-rule="evenodd" d="M21.8184 7.86865H38.3164C40.9301 7.86865 43.0674 9.99097 43.0674 12.5925V47.376C43.0674 49.9783 40.9304 52.0995 38.3164 52.0995H21.8184C19.2043 52.0995 17.0674 49.9783 17.0674 47.376V12.5927C17.0674 9.99114 19.2047 7.86865 21.8184 7.86865ZM38.3164 9.86865H21.8184C20.3062 9.86865 19.0674 11.0988 19.0674 12.5927V15H41.0674V12.5925C41.0674 11.0987 39.8286 9.86865 38.3164 9.86865ZM41.0674 17H19.0674V41H41.0674V17ZM19.0674 47.376V43H41.0674V47.376C41.0674 48.8704 39.8292 50.0995 38.3164 50.0995H21.8184C20.3056 50.0995 19.0674 48.8704 19.0674 47.376ZM27.4191 46.5547C27.4191 45.1384 28.5672 43.9903 29.9835 43.9903C31.3998 43.9903 32.5479 45.1384 32.5479 46.5547C32.5479 47.9709 31.3998 49.119 29.9835 49.119C28.5672 49.119 27.4191 47.9709 27.4191 46.5547ZM30.5479 46.5547C30.5479 46.243 30.2952 45.9903 29.9835 45.9903C29.6718 45.9903 29.4191 46.243 29.4191 46.5547C29.4191 46.8664 29.6718 47.119 29.9835 47.119C30.2952 47.119 30.5479 46.8664 30.5479 46.5547ZM28.9617 21.0532C27.7179 22.8435 25.852 23.4894 24.7644 23.1207C23.7978 22.8327 22.859 23.5294 22.859 24.504V28.7882C22.859 31.7421 24.1673 34.029 26.3144 35.6832C27.5874 36.6639 28.8735 37.2355 29.7677 37.4852C29.8985 37.5209 30.0272 37.538 30.1563 37.538C30.2854 37.538 30.4142 37.5209 30.5391 37.4868C31.4262 37.2415 32.7254 36.6641 33.9988 35.6832C36.146 34.0291 37.4543 31.7421 37.4543 28.7882V24.504C37.4543 23.5859 36.6136 22.9043 35.7253 23.0751L35.5982 23.1054C35.5015 23.1334 35.256 23.1727 34.9305 23.1727C33.6337 23.1727 32.4096 22.5761 31.3515 21.0532C30.8119 20.2768 29.6532 20.2379 29.0518 20.9368L28.9617 21.0532ZM30.1528 22.78L30.269 22.9194C31.6162 24.4843 33.24 25.1727 34.9305 25.1727L35.1235 25.1696L35.3065 25.1607L35.4538 25.148L35.4543 28.7882C35.4543 31.0702 34.4652 32.7993 32.7782 34.0988C32.1725 34.5654 31.5177 34.9418 30.8616 35.2334L30.4584 35.4021C30.3783 35.4334 30.3053 35.4605 30.2405 35.4835L30.1558 35.512L29.9032 35.421C29.7722 35.3707 29.6198 35.3082 29.4515 35.2334C28.7955 34.9418 28.1407 34.5654 27.535 34.0988L27.319 33.9269C25.764 32.6479 24.859 30.971 24.859 28.7882L24.8588 25.185L24.9641 25.1994C26.5811 25.3666 28.5669 24.5905 30.051 22.9017L30.1528 22.78Z" fill="#006FCF"/>
</svg>
