<svg width="60" height="60" viewBox="0 0 60 60" fill="none" xmlns="http://www.w3.org/2000/svg">
<rect width="60" height="60" fill="white"/>
<circle cx="43.6786" cy="43.6786" r="8.67857" fill="#B3D4F1"/>
<path fill-rule="evenodd" clip-rule="evenodd" d="M18.2916 17.3085C18.2916 17.3085 14.487 18.2477 13.8268 19.558C13.2389 20.7246 13.9944 22.778 18.7502 23.7273C23.3786 24.6512 30.6897 23.3117 34.3402 23.0116C37.5019 22.7518 39.0443 22.8862 40.5901 21.6162C42.6632 19.913 44.5166 19.8225 42.5761 18.9379C42.4781 18.8932 41.6699 18.0993 39.135 17.488C38.3536 17.2996 37.5217 16.9277 37.5217 16.9277L34.0359 8.12484C34.0359 8.12484 31.9173 7.54946 30.6783 8.12484C29.4393 8.70022 28.1312 9.20757 28.1312 9.20757L24.2522 7.59433C24.2522 7.59433 22.1018 7.15601 21.1347 8.75446C20.1676 10.3529 18.2916 17.3085 18.2916 17.3085Z" fill="#B3D4F1"/>
<path fill-rule="evenodd" clip-rule="evenodd" d="M19.5 25.0747C19.5 27.3201 23.545 27.9002 28.5348 27.9002C33.5246 27.9002 37.5697 27.3201 37.5697 25.0747V23.5151L19.5 24.0002V25.0747Z" fill="#B3D4F1"/>
<path fill-rule="evenodd" clip-rule="evenodd" d="M24.5427 5.97155C22.9719 5.44456 21.2713 6.29074 20.7443 7.86155L17.8019 16.6318L17.7712 16.7445C17.6678 17.2344 17.9457 17.7348 18.4319 17.8979C18.9555 18.0736 19.5224 17.7915 19.6981 17.2679L22.6404 8.49769L22.6839 8.38926C22.8968 7.93613 23.4203 7.70457 23.9065 7.86769C23.9505 7.88243 23.9933 7.9002 24.0348 7.92088L28.4461 10.121L32.5765 7.99355L32.6833 7.94613C33.1518 7.76975 33.6886 7.96874 33.9234 8.42466C33.9519 8.47994 33.9751 8.53776 33.9929 8.59737L36.563 17.2351L36.6027 17.3449C36.7999 17.8051 37.3151 18.0546 37.8066 17.9083C38.336 17.7508 38.6374 17.194 38.4799 16.6647L35.9098 8.02699L35.8511 7.85005C35.8084 7.73338 35.7584 7.61943 35.7014 7.50886L35.6129 7.3489C34.8092 5.99485 33.0791 5.48497 31.6607 6.21554L28.43 7.87787L24.9274 6.13112L24.7378 6.04465L24.5427 5.97155ZM52.3571 43.6784C52.3571 38.8854 48.4716 34.9999 43.6786 34.9999C38.8855 34.9999 35 38.8854 35 43.6784C35 48.4715 38.8855 52.357 43.6786 52.357C48.4716 52.357 52.3571 48.4715 52.3571 43.6784ZM37 43.6784C37 39.99 39.9901 36.9999 43.6786 36.9999C47.367 36.9999 50.3571 39.99 50.3571 43.6784C50.3571 47.3669 47.367 50.357 43.6786 50.357C39.9901 50.357 37 47.3669 37 43.6784ZM45.074 46.3779C45.074 45.7454 44.5845 45.2559 43.952 45.2559C43.3195 45.2559 42.83 45.7454 42.83 46.3779C42.83 47.0104 43.3195 47.4999 43.952 47.4999C44.5845 47.4999 45.074 47.0104 45.074 46.3779ZM44.9365 44.7829V39.3324H42.9785V44.7829H44.9365ZM18.2077 23.9711C14.2679 23.0452 11.75 21.5342 11.75 19.6023C11.75 18.1807 12.9752 17.0805 15.0562 16.2201C15.5666 16.0091 16.1514 16.2518 16.3624 16.7621C16.5734 17.2725 16.3307 17.8573 15.8203 18.0684C14.4159 18.649 13.75 19.247 13.75 19.6023C13.75 20.1471 15.1091 21.0443 17.632 21.7487C20.4723 22.5417 24.3516 22.9999 28.5 22.9999C32.6484 22.9999 36.5277 22.5417 39.368 21.7487C41.8909 21.0443 43.25 20.1471 43.25 19.6023C43.25 19.1902 42.3926 18.4974 40.6608 17.8673C40.1418 17.6784 39.8741 17.1046 40.063 16.5856C40.2518 16.0666 40.8256 15.799 41.3446 15.9878C43.8007 16.8815 45.25 18.0525 45.25 19.6023C45.25 21.5346 42.7311 23.0458 38.7901 23.9716L38.79 25.5539L38.8335 25.6156C40.1181 27.537 39.7483 30.0934 38.0266 31.5627L37.972 31.6059L37.9351 31.7304C37.2955 33.7981 36.3189 35.6262 35.0849 37.0671L34.827 37.3579L34.8277 38.1629H32.8277V36.5497L33.1149 36.2578C34.3697 34.9826 35.3783 33.219 36.0186 31.1582L36.1418 30.7421L36.2387 30.3975L36.5322 30.1928C37.6739 29.3963 37.946 27.814 37.1246 26.6605L37.0162 26.5187L36.7902 26.2424V24.371C34.4636 24.7619 31.7835 24.9793 28.9157 24.9985L28.5 24.9999C25.4747 24.9999 22.647 24.7806 20.208 24.3707V26.2437L19.9822 26.5199C19.0715 27.6337 19.2613 29.2279 20.3289 30.0886L20.4669 30.1923L20.7597 30.3971L20.8565 30.7412C21.4467 32.8408 22.4143 34.656 23.6368 35.9958L23.8847 36.2574L24.1721 36.5493V39.2945L24.1263 39.4406C23.4171 41.7022 17.9539 44.397 8.10155 48.1818C7.92082 48.2515 7.79163 48.4126 7.75841 48.6031L7.75 48.7005V50.9996H5.75V48.7005C5.75 47.6434 6.39829 46.695 7.38316 46.3152L9.11079 45.643C16.5536 42.7082 21.4685 40.2457 22.158 38.9803L22.172 38.9499V37.3569L21.9146 37.067C20.6795 35.6257 19.7023 33.7972 19.0629 31.7292L19.026 31.6049L18.9712 31.5608C17.2522 30.0907 16.8828 27.5364 18.165 25.617L18.207 25.5559L18.2077 23.9711Z" fill="#006FCF"/>
</svg>
