<svg width="60" height="60" viewBox="0 0 60 60" fill="none" xmlns="http://www.w3.org/2000/svg">
<rect width="60" height="60" fill="white"/>
<rect x="27" y="16.5" width="6" height="34.5" fill="#D8D8D8"/>
<path fill-rule="evenodd" clip-rule="evenodd" d="M21.8097 7.81543C19.0844 7.81543 16.875 10.0248 16.875 12.7502C16.875 13.7167 17.1562 14.6175 17.6414 15.3752H7.875V26.6252H12.375V52.432H47.862V26.6252H52.125V15.3752H42.6976C43.1827 14.6175 43.4639 13.7167 43.4639 12.7502C43.4639 10.0248 41.2546 7.81543 38.5292 7.81543L38.2389 7.82398L37.9498 7.84959C36.1135 8.06669 34.5965 8.60861 33.415 9.49241C32.0501 10.5135 30.9694 11.8976 30.1695 13.6308C29.3695 11.8976 28.2888 10.5135 26.9239 9.49241C25.7424 8.60861 24.2254 8.06669 22.3891 7.84959L22.1001 7.82398L21.8097 7.81543ZM38.5889 15.3752C40.0387 15.3752 41.2139 14.1999 41.2139 12.7502C41.2139 11.2674 40.0119 10.0654 38.5292 10.0654C38.4238 10.0654 38.3187 10.0716 38.2142 10.084C36.7467 10.2575 35.6017 10.6665 34.7628 11.2941L34.4586 11.5347C33.3646 12.4494 32.5042 13.7196 31.8779 15.3752H38.5889ZM28.461 15.3752C27.8347 13.7196 26.9743 12.4494 25.8803 11.5347L25.5761 11.2941C24.7372 10.6665 23.5922 10.2575 22.1247 10.084C22.0203 10.0716 21.9151 10.0654 21.8097 10.0654C20.327 10.0654 19.125 11.2674 19.125 12.7502C19.125 14.1999 20.3003 15.3752 21.75 15.3752H28.461ZM32.625 26.6252H27.375V50.1812H32.625V26.6252ZM34.875 26.6252V50.1812H45.6105L45.612 26.6252H34.875ZM14.625 26.6252H25.125V50.1812H14.625V26.6252ZM21.75 17.6252H10.125V24.3752H25.125V17.6252H21.75ZM27.375 17.6252H28.875H31.4639H32.625V24.3752H27.375V17.6252ZM49.875 24.3752H34.875V17.6252H38.5889H49.875V24.3752Z" fill="#979797"/>
</svg>
