<svg width="60" height="60" viewBox="0 0 60 60" fill="none" xmlns="http://www.w3.org/2000/svg">
<g id="npi-clock-pending">
<rect width="60" height="60" fill="white"/>
<g id="Group">
<circle id="Oval" cx="29.4132" cy="29.5109" r="20.9244" fill="#E4F2D2"/>
<path id="Combined Shape" fill-rule="evenodd" clip-rule="evenodd" d="M29.6089 7C42.0955 7 52.2178 17.1223 52.2178 29.6089C52.2178 42.0954 42.0955 52.2178 29.6089 52.2178C17.2473 52.2178 7.20273 42.2969 7.00308 29.9828L7.00005 29.6089H9.00005C9.00005 40.9909 18.227 50.2178 29.6089 50.2178C40.9909 50.2178 50.2178 40.9909 50.2178 29.6089C50.2178 18.3431 41.1783 9.18853 29.9567 9.00287L29.6089 9V7ZM29.6086 7.00029C28.9078 7.00029 28.2107 7.03221 27.5189 7.09565L27.7015 9.0873C28.3327 9.02942 28.9688 9.00029 29.6086 9.00029V7.00029ZM25.4428 7.38346C24.7552 7.51158 24.0755 7.67137 23.4054 7.86215L23.9531 9.7857C24.5635 9.61192 25.1827 9.46635 25.8091 9.34963L25.4428 7.38346ZM19.4694 9.39604C20.093 9.08266 20.7311 8.79828 21.3818 8.54397L22.1098 10.4068C21.517 10.6384 20.9357 10.8975 20.3675 11.1831L19.4694 9.39604ZM17.6534 10.4163C17.0613 10.7859 16.4866 11.1827 15.9311 11.6053L17.1421 13.197C17.6486 12.8117 18.1726 12.4499 18.7124 12.113L17.6534 10.4163ZM12.8148 14.4719C13.2821 13.9538 13.773 13.4574 14.2859 12.9844L15.6418 14.4547C15.174 14.8861 14.7262 15.3388 14.3 15.8114L12.8148 14.4719ZM11.5181 16.0463C11.0991 16.6043 10.706 17.1814 10.3403 17.7758L12.0436 18.824C12.377 18.2822 12.7354 17.756 13.1174 17.2472L11.5181 16.0463ZM8.47639 21.556C8.72526 20.9033 9.00428 20.263 9.31241 19.637L11.1068 20.5203C10.8261 21.0906 10.5719 21.674 10.3452 22.2686L8.47639 21.556ZM7.8103 23.5891C7.69524 24.0067 7.59216 24.4279 7.50124 24.8524C7.44284 25.1261 7.39218 25.3855 7.34575 25.6482L9.31521 25.9963C9.35752 25.757 9.40368 25.5206 9.45705 25.2705C9.53972 24.8845 9.63361 24.5008 9.73843 24.1205L7.8103 23.5891ZM6.99976 29.6085C6.99977 28.9769 7.02572 28.3482 7.07732 27.7237L9.07053 27.8883C9.02345 28.4581 8.99977 29.0319 8.99976 29.6086L6.99976 29.6085ZM29.9933 15.8027C29.9356 15.3054 29.5129 14.9194 29 14.9194C28.4478 14.9194 28 15.3671 28 15.9194V30.4842L38.8497 40.6491L38.9465 40.7292C39.3486 41.0213 39.9146 40.9751 40.2631 40.6031L40.3432 40.5062C40.6353 40.1042 40.5891 39.5382 40.2171 39.1896L30 29.617V15.9194L29.9933 15.8027Z" fill="#009639"/>
</g>
</g>
</svg>
