<svg width="60" height="60" viewBox="0 0 60 60" fill="none" xmlns="http://www.w3.org/2000/svg">
<rect width="60" height="60" fill="white"/>
<path fill-rule="evenodd" clip-rule="evenodd" d="M16.288 36.0669H44.4591L45.1563 37.3771V46.5613H15.5273V37.3771L16.288 36.0669ZM20.1499 40.2865C19.5804 40.2865 19.1187 40.7482 19.1187 41.3178C19.1187 41.8873 19.5804 42.349 20.1499 42.349C20.7195 42.349 21.1812 41.8873 21.1812 41.3178C21.1812 40.7482 20.7195 40.2865 20.1499 40.2865ZM17.1187 41.3178C17.1187 39.6436 18.4758 38.2865 20.1499 38.2865C21.824 38.2865 23.1812 39.6436 23.1812 41.3178C23.1812 42.9919 21.824 44.349 20.1499 44.349C18.4758 44.349 17.1187 42.9919 17.1187 41.3178ZM38.8624 41.3178C38.8624 40.7482 39.3241 40.2865 39.8937 40.2865C40.4632 40.2865 40.9249 40.7482 40.9249 41.3178C40.9249 41.8873 40.4632 42.349 39.8937 42.349C39.3241 42.349 38.8624 41.8873 38.8624 41.3178ZM39.8937 38.2865C38.2195 38.2865 36.8624 39.6436 36.8624 41.3178C36.8624 42.9919 38.2195 44.349 39.8937 44.349C41.5678 44.349 42.9249 42.9919 42.9249 41.3178C42.9249 39.6436 41.5678 38.2865 39.8937 38.2865Z" fill="#339C63"/>
<path fill-rule="evenodd" clip-rule="evenodd" d="M16.1425 36.1583H14.95C13.873 36.1583 13 35.2853 13 34.2083C13 33.1313 13.873 32.2583 14.95 32.2583H17.875L16.1425 36.1583Z" fill="#339C63"/>
<path fill-rule="evenodd" clip-rule="evenodd" d="M44.6065 36.1583H45.6623C46.7393 36.1583 47.6123 35.2853 47.6123 34.2083C47.6123 33.1313 46.7393 32.2583 45.6623 32.2583H42.8372L44.6065 36.1583Z" fill="#339C63"/>
<path d="M43.9311 49.9303C43.9311 50.1246 43.6217 50.3928 43.3061 50.3928H40.8686C40.564 50.3928 40.2754 50.136 40.2754 49.9303V46.6149H38.2754V49.9303C38.2754 51.2958 39.5079 52.3928 40.8686 52.3928H43.3061C44.6679 52.3928 45.9311 51.2977 45.9311 49.9303V37.176L42.7582 29.6108L40.9138 30.3844L43.9311 37.5784V49.9303Z" fill="white"/>
<path fill-rule="evenodd" clip-rule="evenodd" d="M50.0269 16.3522C43.9772 22.344 45.222 21.1112 41.4444 24.8525C41.2062 25.0884 40.9009 25.0334 40.5453 25.0321L34.0508 25.0013C33.6874 24.9959 33.4252 24.703 33.4268 24.3705L33.4603 17.4205C33.461 17.2552 33.5284 17.096 33.6459 16.9781L42.2282 8.47867C42.4785 8.23129 42.8823 8.24818 43.1147 8.48298L50.0304 15.4651C50.2753 15.7114 50.2731 16.1092 50.0269 16.3522Z" fill="#339C63"/>
<path fill-rule="evenodd" clip-rule="evenodd" d="M45.7518 22.4947L42.1482 26.0638C41.817 26.3918 41.5295 26.5056 41.1076 26.5322C41.5182 26.9978 41.8604 27.5317 42.115 28.1213L42.7542 29.6014L40.9181 30.3943L40.2789 28.9143C39.6934 27.5586 38.4141 26.645 36.962 26.5159L34.0461 26.5021C34.0263 26.5018 34.0065 26.5011 33.9869 26.5002H24.1565C22.6487 26.5002 21.2777 27.3749 20.6482 28.7295L17.8792 34.9149H44.4591V36.9149H16.9839L16.6812 37.5911V45.5617H45.1564V47.5617H22.3341V49.9306C22.3341 51.2958 21.1043 52.3931 19.7437 52.3931H17.3062C15.9445 52.3931 14.6813 51.298 14.6813 49.9306V37.1638L14.7945 36.9108C13.2292 36.8277 12 35.4959 12 33.8837C12 32.2185 13.3114 30.8524 14.95 30.8524H17.5067L18.8286 27.8996C19.7919 25.8263 21.8704 24.5002 24.1565 24.5002H32.4286L32.4604 17.9165C32.4621 17.4879 32.6349 17.0771 32.9373 16.7734L34.9561 14.774L29.9977 11.2279L9.5 25.7709V52.5002H7.5V24.7376L30.0023 8.77241L36.3978 13.3463L41.5246 8.26895C42.1667 7.63441 43.2029 7.65144 43.8254 8.28023L50.741 15.2622C51.3744 15.8993 51.37 16.9317 50.7302 17.5641L47.1934 21.0669L52.3295 24.74V52.5002H50.3295V25.7685L45.7518 22.4947ZM34.4286 24.5002L34.4596 18.0805L42.6668 9.95256L49.0581 16.4052L40.8455 24.5391L40.6628 24.5346L37.0545 24.5168C36.9063 24.5058 36.757 24.5002 36.6067 24.5002H34.4286ZM40.3301 20.4323V18.7062H40.9795L41.8237 20.4323H43.2319L42.2476 18.5217C42.7876 18.2858 43.0884 17.7321 43.0884 17.1271C43.0884 16.1086 42.3979 15.5002 41.2461 15.5002H39.0757V20.4323H40.3301ZM41.0684 16.447H40.3301V17.821H41.0718C41.5332 17.821 41.8066 17.5646 41.8066 17.1374C41.8066 16.717 41.5161 16.447 41.0684 16.447ZM16.6113 32.8524H14.95C14.4347 32.8524 14 33.3052 14 33.8837C14 34.4622 14.4347 34.9149 14.95 34.9149H15.688L16.6113 32.8524ZM16.6812 49.9306V47.5617H20.3341V49.9306C20.3341 50.1372 20.0474 50.3931 19.7437 50.3931H17.3062C16.9906 50.3931 16.6812 50.1249 16.6812 49.9306ZM44.47 34.9149H45.6625C46.1778 34.9149 46.6125 34.4622 46.6125 33.8837C46.6125 33.3052 46.1778 32.8524 45.6625 32.8524H42.7375V30.8524H45.6625C47.3011 30.8524 48.6125 32.2185 48.6125 33.8837C48.6125 35.5489 47.3011 36.9149 45.6625 36.9149H44.47V34.9149ZM35.1812 40.9774H24.6187C24.0665 40.9774 23.6187 40.5297 23.6187 39.9774C23.6187 39.4252 24.0665 38.9774 24.6187 38.9774H35.1812C35.7335 38.9774 36.1812 39.4252 36.1812 39.9774C36.1812 40.5297 35.7335 40.9774 35.1812 40.9774ZM26.2437 44.2274H33.5562C34.1085 44.2274 34.5562 43.7797 34.5562 43.2274C34.5562 42.6752 34.1085 42.2274 33.5562 42.2274H26.2437C25.6915 42.2274 25.2437 42.6752 25.2437 43.2274C25.2437 43.7797 25.6915 44.2274 26.2437 44.2274ZM20.15 43.7806C21.5997 43.7806 22.775 42.6053 22.775 41.1556C22.775 39.7058 21.5997 38.5306 20.15 38.5306C18.7003 38.5306 17.525 39.7058 17.525 41.1556C17.525 42.6053 18.7003 43.7806 20.15 43.7806ZM20.15 41.7806C19.8048 41.7806 19.525 41.5008 19.525 41.1556C19.525 40.8104 19.8048 40.5306 20.15 40.5306C20.4952 40.5306 20.775 40.8104 20.775 41.1556C20.775 41.5008 20.4952 41.7806 20.15 41.7806ZM42.5187 41.1556C42.5187 42.6053 41.3435 43.7806 39.8937 43.7806C38.444 43.7806 37.2687 42.6053 37.2687 41.1556C37.2687 39.7058 38.444 38.5306 39.8937 38.5306C41.3435 38.5306 42.5187 39.7058 42.5187 41.1556ZM39.2687 41.1556C39.2687 41.5008 39.5486 41.7806 39.8937 41.7806C40.2389 41.7806 40.5187 41.5008 40.5187 41.1556C40.5187 40.8104 40.2389 40.5306 39.8937 40.5306C39.5486 40.5306 39.2687 40.8104 39.2687 41.1556Z" fill="white"/>
</svg>
