<svg width="60" height="60" viewBox="0 0 60 60" fill="none" xmlns="http://www.w3.org/2000/svg">
<rect width="60" height="60" fill="white"/>
<path fill-rule="evenodd" clip-rule="evenodd" d="M6.00293 25.7378C6.00293 28.956 8.61182 31.5649 11.8301 31.5649C15.0483 31.5649 17.6572 28.956 17.6572 25.7378" fill="#D8D8D8"/>
<path fill-rule="evenodd" clip-rule="evenodd" d="M30.0029 25.7378C30.0029 28.956 32.6118 31.5649 35.8301 31.5649C36.1287 31.5649 36.7087 31.4991 36.7087 31.4991C36.7087 31.4991 35.0319 29.6013 34.2268 28.3666C33.4218 27.132 32.9521 25.7378 32.9521 25.7378H30.0029Z" fill="#D8D8D8"/>
<path d="M41.5371 25.7378C41.5371 28.956 44.146 31.5649 47.3642 31.5649V31.5649C50.5825 31.5649 53.1914 28.956 53.1914 25.7378" stroke="#979797" stroke-width="2"/>
<path fill-rule="evenodd" clip-rule="evenodd" d="M34.2266 51.001V36.001H44.2266V51.001H34.2266Z" fill="#D8D8D8"/>
<path fill-rule="evenodd" clip-rule="evenodd" d="M22.7157 11.001H29.4991V23.74V25.7541H16.2266L22.7157 11.001Z" fill="#D8D8D8"/>
<circle cx="45.8516" cy="21.626" r="10.5" fill="#D8D8D8"/>
<path fill-rule="evenodd" clip-rule="evenodd" d="M57.4766 21.626C57.4766 28.0463 52.2719 33.251 45.8516 33.251C39.4313 33.251 34.2266 28.0463 34.2266 21.626C34.2266 15.2057 39.4313 10.001 45.8516 10.001C52.2719 10.001 57.4766 15.2057 57.4766 21.626ZM36.4766 21.626C36.4766 26.8036 40.6739 31.001 45.8516 31.001C51.0292 31.001 55.2266 26.8036 55.2266 21.626C55.2266 16.4483 51.0292 12.251 45.8516 12.251C40.6739 12.251 36.4766 16.4483 36.4766 21.626Z" fill="#979797"/>
<path d="M43.0706 17.726V26.126H45.0746V22.982H45.3686L47.5826 26.126H49.9706L47.5586 22.922C49.0646 22.682 49.9046 21.746 49.9046 20.414C49.9046 18.758 48.8006 17.726 46.7246 17.726H43.0706ZM46.7006 19.544C47.4086 19.544 47.8646 19.82 47.8646 20.414C47.8646 21.014 47.4206 21.296 46.7006 21.296H45.0746V19.544H46.7006Z" fill="#979797"/>
<path fill-rule="evenodd" clip-rule="evenodd" d="M38.652 10.001H12.7542L3 27.001H5.11946C5.39724 28.4856 6.15551 29.8009 7.22669 30.7794V52.001H33.2267H35.2267H43.2267H45.2267H51.2117V33.8633C51.2117 33.8633 50.6862 34.1157 50.134 34.303C49.6993 34.4504 49.3774 34.5136 49.2602 34.5338C49.244 34.5382 49.2279 34.5425 49.2117 34.5468L49.2117 50.001H45.2267V35.001H33.2267V50.001H9.22569L9.22659 32.0508C10.0289 32.382 10.9081 32.5647 11.8299 32.5647C14.4198 32.5647 16.6729 31.1226 17.8299 28.9975C18.987 31.1226 21.24 32.5647 23.8299 32.5647C26.2963 32.5647 28.4573 31.2568 29.657 29.2967C30.8568 31.2568 33.0177 32.5647 35.4842 32.5647C36.0955 32.5647 37.6994 32.4168 37.6994 32.4168C37.6994 32.4168 37.4651 32.2184 37.1768 31.949C36.6581 31.524 36.1716 31.0612 35.7216 30.5647H35.4842C33.2554 30.5647 31.3794 29.0542 30.8241 27.001H33.3942C33.1075 26.3592 32.8695 25.691 32.6848 25.001H30.2267V12.001H36.135C36.8897 11.2391 37.7344 10.5667 38.652 10.001ZM28.2267 12.001V25.001H17.6963L23.3596 12.0421L23.2656 12.001H28.2267ZM21.1949 12.001H13.9107L6.45269 25.001H15.5136L21.1949 12.001ZM7.16981 27.001C7.72511 29.0542 9.60111 30.5647 11.8299 30.5647C14.0587 30.5647 15.9347 29.0542 16.49 27.001H7.16981ZM19.1698 27.001C19.7251 29.0542 21.6011 30.5647 23.8299 30.5647C26.0587 30.5647 27.9347 29.0542 28.49 27.001H19.1698ZM43.2267 37.001V50.001H35.2267V37.001H43.2267ZM25.2267 35.001V45.001H15.2267V35.001H25.2267ZM23.2267 37.001H17.2267V43.001H23.2267V37.001Z" fill="#979797"/>
</svg>
