<svg width="60" height="60" viewBox="0 0 60 60" fill="none" xmlns="http://www.w3.org/2000/svg">
<g id="npi-currency-conversion-caution">
<rect width="60" height="60" fill="white"/>
<g id="currency-conversion-caution">
<circle id="Oval" cx="19.5683" cy="19.144" r="9.728" fill="#E4F2D2"/>
<circle id="Oval_2" cx="19.5683" cy="19.144" r="9.728" stroke="#009639" stroke-width="2"/>
<circle id="Oval_3" cx="40.2561" cy="40.7954" r="9.728" fill="#E4F2D2"/>
<circle id="Oval Copy" cx="40.2561" cy="40.7954" r="9.728" stroke="#009639" stroke-width="2"/>
<path id="Combined Shape" fill-rule="evenodd" clip-rule="evenodd" d="M31.3914 12.231H30.888C30.888 12.231 30.5037 11.6762 30.0647 11.1531C29.6258 10.63 29.1548 10.231 29.1548 10.231H31.3914C41.2436 10.231 49.3661 17.6361 50.4969 27.184L52.9463 24.7538L54.355 26.1736L49.3376 31.1517L44.5094 26.2856L45.9291 24.8769L48.5185 27.4866C47.5344 18.8999 40.2417 12.231 31.3914 12.231Z" fill="#009639"/>
<path id="Combined Shape_2" fill-rule="evenodd" clip-rule="evenodd" d="M28.9634 48.9209H29.4668C29.4668 48.9209 29.8588 49.4236 30.3411 49.8968C30.8234 50.3699 31.5056 50.9209 31.5056 50.9209H28.9634C19.1113 50.9209 10.9887 43.5158 9.85793 33.9678L7.40855 36.398L5.99991 34.9783L11.0173 30.0002L15.8455 34.8662L14.4258 36.2749L11.8364 33.6652C12.8204 42.252 20.1131 48.9209 28.9634 48.9209Z" fill="#009639"/>
<path id="Combined Shape_3" fill-rule="evenodd" clip-rule="evenodd" d="M20.5684 12.7998V14.5759C21.4679 14.6639 22.3381 14.9187 23.3901 15.4993L22.4216 17.2803C21.7716 16.8903 20.8811 16.5133 19.8151 16.5133C18.9896 16.5133 18.3851 16.7928 18.3851 17.3323C18.3851 17.8034 18.9714 17.9791 19.741 18.1244L20.6341 18.2813C22.4021 18.5868 23.5136 19.4123 23.5136 20.9008C23.5136 22.7389 22.1683 23.6676 20.5684 23.9059V25.6998H18.5684V23.8941C17.468 23.7463 16.4482 23.381 15.6941 22.8118L16.7796 21.0438C17.4751 21.5183 18.4371 21.9993 19.7176 21.9993C20.5366 21.9993 21.1606 21.7198 21.1606 21.1543C21.1606 20.6404 20.6194 20.472 19.564 20.3022L18.9051 20.1988C17.0331 19.9063 16.0191 19.0613 16.0516 17.4233C16.0779 15.9945 17.0677 14.9902 18.5684 14.6575V12.7998H20.5684Z" fill="#009639"/>
<path id="i" fill-rule="evenodd" clip-rule="evenodd" d="M42.0179 44.4838C42.0179 45.2258 41.4439 45.7998 40.7089 45.7998C39.9669 45.7998 39.3999 45.2258 39.3999 44.4838C39.3999 43.7488 39.9669 43.1818 40.7089 43.1818C41.4439 43.1818 42.0179 43.7488 42.0179 44.4838ZM39.6239 42.3698H41.8149V35.5028H39.6239V42.3698Z" fill="#009639"/>
</g>
</g>
</svg>
