<svg width="60" height="60" viewBox="0 0 60 60" fill="none" xmlns="http://www.w3.org/2000/svg">
<rect width="60" height="60" fill="white"/>
<path d="M18 40H9V51H18V40Z" fill="#339C63"/>
<path d="M34 30H25V51H34V30Z" fill="#339C63"/>
<path d="M51 19H42V51H51V19Z" fill="#339C63"/>
<path d="M19.0003 39V52H8.00026V39H19.0003ZM35.0003 29V52H24.0003V29H35.0003ZM52.0003 18V52H41.0003V18H52.0003ZM17.0003 41H10.0003V50H17.0003V41ZM33.0003 31H26.0003V50H33.0003V31ZM50.0003 20H43.0003V50H50.0003V20ZM35.0003 8V17H33.0003L32.9996 11.322L23.6516 20.6709L19.9533 16.973L8.76443 28.1408L7.35156 26.7253L19.9549 14.1458L23.6513 17.842L31.4936 10H26.0003V8H35.0003Z" fill="white"/>
</svg>
