<svg width="60" height="60" viewBox="0 0 60 60" fill="none" xmlns="http://www.w3.org/2000/svg">
<rect width="60" height="60" fill="white"/>
<path d="M11.5542 10.979L4.94824 12.143L11.9582 51.601L11.5542 10.979Z" fill="#339C63"/>
<path fill-rule="evenodd" clip-rule="evenodd" d="M41.6269 16.001C42.7592 15.845 43.8366 15.844 44.9782 16.0022L45.4082 19.2886C46.3307 19.511 47.1956 19.8749 47.9826 20.3573L50.6114 18.3367C51.5063 19.014 52.3043 19.8122 52.9811 20.7074L50.9601 23.337C51.4414 24.1236 51.8046 24.9879 52.0263 25.9096L55.3122 26.3396C55.4724 27.4984 55.4664 28.5769 55.3122 29.6921L52.0263 30.122C51.8046 31.0437 51.4414 31.9081 50.9601 32.6946L52.9811 35.3242C52.3043 36.2195 51.5063 37.0177 50.6114 37.695L47.9825 35.6744C47.1955 36.1569 46.3306 36.5207 45.4082 36.7432L44.9782 40.0296C43.8364 40.1878 42.7589 40.1867 41.6269 40.0307L41.197 36.7456C40.273 36.5239 39.4068 36.1601 38.6184 35.6776L35.989 37.6985C35.0746 37.0073 34.2688 36.1881 33.6194 35.3301L35.6398 32.7012C35.1562 31.9126 34.7917 31.0457 34.5693 30.121L31.2836 29.691C31.1252 28.5452 31.1363 27.4069 31.2836 26.3409L34.5693 25.9109C34.7917 24.9862 35.1562 24.1193 35.6398 23.3306L33.6194 20.7018C34.3112 19.7878 35.1305 18.9823 35.989 18.3333L38.6184 20.3542C39.4067 19.8716 40.273 19.5079 41.197 19.2861L41.6269 16.001ZM43.298 23.5224C40.8163 23.5224 38.8046 25.5342 38.8046 28.0158C38.8046 30.4975 40.8163 32.5093 43.298 32.5093C45.7797 32.5093 47.7915 30.4975 47.7915 28.0158C47.7915 25.5342 45.7797 23.5224 43.298 23.5224Z" fill="#339C63"/>
<path d="M44.5269 7.5V13.5334C44.1876 13.5113 43.8451 13.5 43.5 13.5C43.0883 13.5 42.6805 13.516 42.2772 13.5475L42.2768 9.75H12.75L12.7494 49.017L12.9684 50.25H42.2768L42.2772 42.4525C42.6805 42.484 43.0883 42.5 43.5 42.5C43.8451 42.5 44.1876 42.4887 44.5269 42.4665V52.5H10.5L10.4994 49.214L3.73242 11.1248L10.4994 9.931L10.5 7.5H44.5269ZM33 42V44H16V42H33ZM44.6571 14.9556L45.1153 15.0114L45.8707 15.1161L46.3134 18.504L46.3933 18.5288C46.7635 18.6495 47.1255 18.7917 47.4779 18.9546L47.8271 19.1244L47.8964 19.161L50.6066 17.0788L51.2148 17.5391C52.0622 18.1804 52.8291 18.9218 53.4981 19.746L53.7787 20.1042L54.2383 20.7122L52.1544 23.423L52.1923 23.4926C52.3685 23.8383 52.5244 24.194 52.659 24.5583L52.7865 24.9254L52.8104 25.003L56.1982 25.4468L56.3027 26.2024C56.452 27.2822 56.4694 28.3132 56.3582 29.3728L56.3027 29.8289L56.1981 30.5844L52.8104 31.027L52.7865 31.1059C52.6661 31.4757 52.5242 31.8375 52.3617 32.1897L52.1923 32.5387L52.1544 32.608L54.2383 35.319L53.7787 35.927C53.1381 36.7744 52.3971 37.5416 51.573 38.2112L51.2148 38.4921L50.6066 38.9524L47.8954 36.869L47.8271 36.9069C47.4812 37.0835 47.1252 37.2397 46.7607 37.3746L46.3933 37.5025L46.3134 37.526L45.8707 40.9152L45.1154 41.0199C44.0403 41.1689 43.0104 41.1876 41.9479 41.0766L41.4903 41.0212L40.7342 40.917L40.2904 37.529L40.2117 37.5057C39.841 37.3852 39.4784 37.2431 39.1254 37.0803L38.7756 36.9105L38.7044 36.872L35.9939 38.9557L35.3858 38.496C34.5391 37.8558 33.7628 37.1028 33.0993 36.2868L32.8219 35.9333L32.3617 35.3252L34.4434 32.615L34.4062 32.5443C34.2292 32.1976 34.0728 31.8408 33.9376 31.4754L33.8096 31.1071L33.7844 31.026L30.3974 30.5833L30.293 29.8277C30.1468 28.7706 30.1309 27.6972 30.239 26.6505L30.2929 26.2037L30.3974 25.4481L33.7844 25.005L33.8096 24.9243C33.9304 24.5533 34.0729 24.1904 34.2361 23.8372L34.4062 23.4872L34.4434 23.415L32.3616 20.7062L32.822 20.0981C33.4628 19.2514 34.2161 18.4756 35.0323 17.8125L35.3858 17.5354L35.9938 17.0757L38.7034 19.158L38.7754 19.1208C39.1219 18.9442 39.4785 18.7881 39.8437 18.6533L40.2116 18.5256L40.2904 18.501L40.7342 15.1143L41.4903 15.0101C42.4103 14.8836 43.2982 14.8517 44.203 14.9156L44.6571 14.9556ZM30.9365 38V40H16V38H30.9365ZM43.0838 16.8857L42.6474 16.9033L42.5154 16.913L42.0992 20.0977L41.4303 20.2583C40.7351 20.4251 40.07 20.6841 39.4479 21.0279L39.1404 21.2068L38.5541 21.5658L36.0054 19.606C35.7108 19.8634 35.4303 20.1341 35.165 20.4176L34.8934 20.718L36.8519 23.2666L36.4922 23.8531C36.1196 24.4608 35.8307 25.1137 35.6328 25.7992L35.5414 26.1445L35.3807 26.813L32.1974 27.229L32.1885 27.3483C32.1712 27.6408 32.1653 27.935 32.1708 28.2297L32.1878 28.6719L32.1974 28.802L35.3807 29.2184L35.5414 29.8869C35.7088 30.5828 35.9684 31.2483 36.3129 31.8707L36.4922 32.1783L36.8519 32.7648L34.8934 35.313C35.1502 35.6075 35.4208 35.8878 35.7043 36.1529L36.0054 36.424L38.554 34.4656L39.1404 34.8244C39.748 35.1964 40.4006 35.4846 41.0853 35.682L41.4303 35.773L42.0992 35.9336L42.5154 39.117L42.6474 39.1281C42.9392 39.1457 43.2288 39.1515 43.5192 39.1455L43.9557 39.1277L44.0884 39.116L44.5058 35.9319L45.1737 35.7708C45.8679 35.6034 46.5319 35.3442 47.1529 35.0005L47.4597 34.8217L48.0463 34.4621L50.5934 36.419L50.6898 36.3376C50.9095 36.1423 51.1215 35.9385 51.325 35.7267L51.6241 35.4029L51.7054 35.306L49.7482 32.7587L50.1071 32.1724C50.4779 31.5664 50.7657 30.9153 50.9629 30.2321L51.054 29.8879L51.2148 29.2195L54.3994 28.802L54.4099 28.6731C54.4277 28.3818 54.4337 28.0922 54.4279 27.8015L54.4103 27.3643L54.3984 27.228L51.2148 26.8117L51.054 26.1433C50.8871 25.4499 50.6285 24.7863 50.2855 24.1655L50.107 23.8587L49.7483 23.2724L51.7054 20.724L51.6241 20.6283C51.429 20.4085 51.2253 20.1965 51.0135 19.9929L50.6898 19.6936L50.5934 19.611L48.0464 21.5692L47.4598 21.2096C46.8536 20.838 46.2021 20.5496 45.5183 20.3518L45.1738 20.2605L44.5058 20.0995L44.0884 16.914L43.9557 16.9037C43.6638 16.8859 43.3741 16.8799 43.0838 16.8857ZM10.4994 12.216L6.34184 12.9494L10.4994 36.353V12.216ZM31.1688 32V34H16V32H31.1688ZM43.2979 22.5222C46.3319 22.5222 48.7914 24.9817 48.7914 28.0156C48.7914 31.0495 46.3319 33.5091 43.2979 33.5091C40.264 33.5091 37.8045 31.0495 37.8045 28.0156C37.8045 24.9817 40.264 22.5222 43.2979 22.5222ZM43.2979 24.5222C41.3685 24.5222 39.8045 26.0862 39.8045 28.0156C39.8045 29.945 41.3685 31.5091 43.2979 31.5091C45.2273 31.5091 46.7914 29.945 46.7914 28.0156C46.7914 26.0862 45.2273 24.5222 43.2979 24.5222ZM29.0736 28V30H16V28H29.0736ZM30.0074 21V23H16V21H30.0074ZM31.514 17V19H16V17H31.514Z" fill="white"/>
</svg>
