<svg width="60" height="60" viewBox="0 0 60 60" fill="none" xmlns="http://www.w3.org/2000/svg">
<rect width="60" height="60" fill="white"/>
<path fill-rule="evenodd" clip-rule="evenodd" d="M7.99999 22.6494L3.30664 23.9784L7.99999 37.0671V22.6494Z" fill="#D8D8D8"/>
<path fill-rule="evenodd" clip-rule="evenodd" d="M27.5459 16.6935L45.3844 11.1138L47.274 16.6935H27.5459Z" fill="#D8D8D8"/>
<path fill-rule="evenodd" clip-rule="evenodd" d="M8.85449 42.1245H29.4556L10.6159 47.8859L8.85449 42.1245Z" fill="#D8D8D8"/>
<circle cx="42.5" cy="37.5" r="11.5" fill="#D8D8D8"/>
<path fill-rule="evenodd" clip-rule="evenodd" d="M47.6666 16L45.768 9.79004L25.5 15.9866L25.5041 16H7.00001V21.6507L2.03613 23.1683L7.00001 39.4044V43H8.09931L9.93017 48.9885L29.5176 43H31.2719C33.3066 47.146 37.57 50 42.5 50C49.4036 50 55 44.4036 55 37.5C55 34.9988 54.2653 32.6691 53 30.715V16H47.6666ZM30 37.5C30 38.715 30.1733 39.8894 30.4966 41H9.00001V39.2403L9.0377 39.2288L9.00001 39.1055V18H51V28.3348C48.7696 26.2653 45.7826 25 42.5 25C35.5964 25 30 30.5965 30 37.5ZM42.5 27C45.9952 27 49.0915 28.7078 51 31.3344V31.4991H51.1173C52.304 33.2 53 35.2688 53 37.5C53 43.299 48.299 48 42.5 48C36.701 48 32 43.299 32 37.5C32 31.701 36.701 27 42.5 27ZM45.5752 16L44.4398 12.2866L32.2956 16H45.5752ZM7.00001 32.5652V23.742L4.53256 24.4962L7.00001 32.5652ZM22.6767 43H10.1904L11.2571 46.4912L22.6767 43ZM44 31.5886V36.2943H48.7057V38.2943H44V43H42V38.2943H37.2943V36.2943H42V31.5886H44ZM15.285 35V30.8225H15.9L18.96 35H21.495L18.2625 30.7925C20.28 30.5975 21.48 29.42 21.48 27.695C21.48 25.685 20.1375 24.5 17.6325 24.5H13.1925V35H15.285ZM17.595 29H15.285V26.4275H17.595C18.705 26.4275 19.3275 26.825 19.3275 27.695C19.3275 28.58 18.735 29 17.595 29Z" fill="#979797"/>
</svg>
