<svg width="60" height="60" viewBox="0 0 60 60" fill="none" xmlns="http://www.w3.org/2000/svg">
<g id="npi-money-coins-arrow-up" clip-path="url(#clip0)">
<rect width="60" height="60" fill="white"/>
<g id="Structured Saver 1">
<g id="Group">
<path id="Vector" fill-rule="evenodd" clip-rule="evenodd" d="M36.5011 21.598H32.6001L40.4021 8L49.2251 21.598H44.3021V30.651H36.5011V21.598Z" fill="#E4F2D2"/>
<path id="Vector_2" d="M16.5498 50.7998C21.1062 50.7998 24.7998 47.1062 24.7998 42.5498C24.7998 37.9935 21.1062 34.2998 16.5498 34.2998C11.9935 34.2998 8.2998 37.9935 8.2998 42.5498C8.2998 47.1062 11.9935 50.7998 16.5498 50.7998Z" fill="#E4F2D2"/>
<path id="Vector_3" d="M39.9759 6.08203L50.2709 21.9475L44.9998 21.947V31.5L37.2998 31.499V35H52.2998V52H20.2998L20.3003 51.0081C19.154 51.5172 17.8849 51.8 16.5498 51.8C11.4412 51.8 7.2998 47.6586 7.2998 42.55C7.2998 37.4414 11.4412 33.3 16.5498 33.3C17.8849 33.3 19.154 33.5829 20.3003 34.0919L20.2998 20L31.9908 19.999L39.9759 6.08203ZM35.2998 47L24.6608 47.0004C24.0488 48.1133 23.2145 49.0867 22.2176 49.8607L22.2998 49.8607V50H35.2998V47ZM50.2998 47H37.2998V50H50.2998V47ZM16.5498 35.3C12.5457 35.3 9.2998 38.5459 9.2998 42.55C9.2998 46.5541 12.5457 49.8 16.5498 49.8C20.5539 49.8 23.7998 46.5541 23.7998 42.55C23.7998 38.5459 20.5539 35.3 16.5498 35.3ZM17.1798 39.35C18.9098 39.35 19.8298 40.21 19.8298 41.59C19.8298 42.6416 19.2016 43.397 18.0683 43.6436L17.8748 43.68L19.8848 46.35H17.8948L16.0498 43.73H15.8048V46.35H14.1348V39.35H17.1798ZM35.2988 42L25.7838 42.0009C25.7944 42.1826 25.7998 42.3657 25.7998 42.55C25.7998 43.3984 25.6856 44.22 25.4717 45.0005L35.2988 45V42ZM50.2998 42H37.2998V45H50.2998V42ZM17.1598 40.865H15.8048V42.325H17.1598C17.7598 42.325 18.1298 42.09 18.1298 41.59C18.1298 41.095 17.7498 40.865 17.1598 40.865ZM35.2998 37L23.9508 37.0004C24.6187 37.8898 25.1301 38.9035 25.444 40.0006L35.2998 40V37ZM50.2998 37H37.2998V40H50.2998V37ZM35.2998 32H22.2998V35H35.2998V32ZM35.2998 27H22.2998V30H35.2998V27ZM40.0798 9.91701L34.3258 19.947L37.3141 19.9475L37.3138 29.499H42.9998V19.9475L46.5888 19.947L40.0798 9.91701ZM35.3128 24.999V21.999L22.2998 22V25L35.3128 24.999Z" fill="#009639"/>
</g>
</g>
</g>
<defs>
<clipPath id="clip0">
<rect width="60" height="60" fill="white"/>
</clipPath>
</defs>
</svg>
