<svg width="60" height="60" viewBox="0 0 60 60" fill="none" xmlns="http://www.w3.org/2000/svg">
<rect width="60" height="60" fill="white"/>
<path fill-rule="evenodd" clip-rule="evenodd" d="M20.9998 19.7251H12.0059V33.6049H16.3387C16.3387 33.6049 17.4512 30.927 18.6325 29.1694C19.8137 27.4118 21.0993 26.5214 21.0993 26.5214L20.9998 19.7251Z" fill="#339C63"/>
<path fill-rule="evenodd" clip-rule="evenodd" d="M34.7725 12.4121H27.207L26.3338 8.61699L30.8493 9.67807L35.5678 8.59899L34.7725 12.4121ZM37.1877 12.4121H36.8158L38.1644 5.95477L30.8538 7.62499L23.6653 5.93652L25.259 12.865C24.7837 13.1128 24.3573 13.4565 24.0099 13.8819L20.5318 18.1407H11.0059V34.605H15.5642C15.4153 35.4687 15.3387 36.3523 15.3387 37.248C15.3387 45.7887 22.2623 52.7123 30.803 52.7123C39.3436 52.7123 46.2672 45.7887 46.2672 37.248C46.2672 37.1043 46.2568 36.9546 46.2362 36.7982C46.4397 36.3459 46.553 35.8442 46.553 35.3161C46.553 34.2954 46.1301 33.3735 45.45 32.7161C46.1301 32.0586 46.553 31.1367 46.553 30.1161C46.553 29.1044 46.1375 28.1897 45.4679 27.5334C46.1364 26.896 46.553 25.9966 46.553 25C46.553 24.0206 46.1507 23.1352 45.5024 22.5C46.1507 21.8647 46.553 20.9793 46.553 20C46.553 18.067 44.986 16.5 43.053 16.5H40.1463C40.2471 16.1936 40.3016 15.8661 40.3016 15.526C40.3016 13.8062 38.9075 12.4121 37.1877 12.4121ZM44.1888 38.7095C43.7987 38.8535 43.377 38.9321 42.9369 38.9321H38.1155C36.2803 38.9321 34.7645 37.5651 34.5307 35.7938C33.976 36.18 33.2571 36.4291 32.3998 36.512L35.8478 41H33.1438L29.8798 36.544H29.2238V41H26.9918V29.8H31.7278C32.9044 29.8 33.8405 30.045 34.5198 30.5024C34.5063 30.3755 34.4994 30.2466 34.4994 30.1161C34.4994 29.1044 34.9149 28.1897 35.5845 27.5334C34.916 26.896 34.4994 25.9966 34.4994 25C34.4994 24.0206 34.9016 23.1352 35.5499 22.5C34.9016 21.8647 34.4994 20.9793 34.4994 20C34.4994 19.5175 34.597 19.0578 34.7736 18.6395L30.9858 18.639L30.9379 18.7832C29.8958 21.7556 27.6853 23.6449 24.4074 24.3891C23.8218 25.2818 22.9037 26.237 21.7704 27.2629C18.967 29.8006 17.3387 33.3921 17.3387 37.248C17.3387 44.6842 23.3668 50.7123 30.803 50.7123C37.7453 50.7123 43.4604 45.4582 44.1888 38.7095ZM24.0346 22.4232C26.774 21.7848 28.4556 20.2239 29.1949 17.6696L29.2705 17.3919L29.463 16.6399H37.0165C37.2381 16.5752 37.4688 16.5318 37.7062 16.5121C38.0603 16.3256 38.3016 15.9539 38.3016 15.526C38.3016 14.9518 37.8672 14.4791 37.3091 14.4186L37.1877 14.4121H27.108C26.5675 14.4121 26.0528 14.6306 25.6784 15.0134L25.5589 15.147L22.0058 19.496L22.0061 24.1921C22.6286 23.4833 23.0505 22.8627 23.1082 22.5025L23.115 22.4232H24.0346ZM20.0062 26.1766V20.1406L13.0058 20.14V32.605L16.0484 32.605C16.8115 30.1761 18.1674 27.9694 20.0062 26.1766ZM42.9369 31.7C43.0274 31.7 43.1171 31.7033 43.2059 31.7098C43.9704 31.5818 44.553 30.9169 44.553 30.1161C44.553 29.2731 43.9076 28.5809 43.084 28.5066L42.9369 28.5H38.1155C37.2229 28.5 36.4994 29.2235 36.4994 30.1161C36.4994 30.9169 37.082 31.5818 37.8465 31.7098C37.9353 31.7033 38.025 31.7 38.1155 31.7H42.9369ZM36.4994 35.3161C36.4994 34.5152 37.082 33.8504 37.8465 33.7223C37.9353 33.7288 38.025 33.7321 38.1155 33.7321H42.9369C43.0274 33.7321 43.1171 33.7288 43.2059 33.7223C43.9704 33.8504 44.553 34.5152 44.553 35.3161C44.553 36.2086 43.8294 36.9321 42.9369 36.9321H38.1155L37.9684 36.9255C37.1448 36.8512 36.4994 36.159 36.4994 35.3161ZM42.9369 26.5H43.053C43.8814 26.5 44.553 25.8284 44.553 25C44.553 24.2203 43.9581 23.5795 43.1974 23.5069L43.053 23.5H37.9994C37.171 23.5 36.4994 24.1716 36.4994 25C36.4994 25.7797 37.0943 26.4204 37.8549 26.4931L37.9994 26.5H38.1155H42.9369ZM44.553 20C44.553 20.8284 43.8814 21.5 43.053 21.5H37.9994L37.8549 21.4931C37.0943 21.4204 36.4994 20.7797 36.4994 20C36.4994 19.393 36.8599 18.8702 37.3785 18.6341C37.6329 18.6188 37.8791 18.5728 38.1134 18.5H43.053L43.1974 18.5069C43.9581 18.5795 44.553 19.2203 44.553 20ZM29.2238 34.6H31.6878C32.9038 34.6 33.5358 34.152 33.5358 33.208C33.5358 32.28 32.8718 31.856 31.6878 31.856H29.2238V34.6Z" fill="white"/>
</svg>
