<svg width="60" height="60" viewBox="0 0 60 60" fill="none" xmlns="http://www.w3.org/2000/svg">
<g id="npi-save">
<rect width="60" height="60" fill="white"/>
<g id="Save">
<g id="Group">
<path id="Path Copy 2" d="M32.885 9.56117V18.7012H25.3932V9.56117" fill="#E4F2D2"/>
<path id="Combined Shape" fill-rule="evenodd" clip-rule="evenodd" d="M40.4658 7.6001H9.63121C8.50946 7.6001 7.6001 8.50946 7.6001 9.63121V50.5198C7.6001 51.6416 8.50946 52.5509 9.63121 52.5509H50.5198C51.6416 52.5509 52.5509 51.6416 52.5509 50.5198V19.7728C52.5509 19.2372 52.3393 18.7232 51.9622 18.3428L41.9082 8.20124C41.5268 7.81651 41.0075 7.6001 40.4658 7.6001ZM9.63121 50.5198V9.63121H14.0763V19.4287C14.0763 21.6722 15.8951 23.4909 18.1386 23.4909H35.4571C37.7006 23.4909 39.5193 21.6722 39.5193 19.4287V9.63121H40.4658L50.5198 19.7728V50.5198H45.4894V36.7099V34.6788V32.1066C45.4894 30.424 44.1253 29.06 42.4427 29.06H17.6205C15.9379 29.06 14.5738 30.424 14.5738 32.1066V34.6788V36.7099V50.5198H9.63121ZM16.605 36.7099V50.5198H43.4583V36.7099H16.605ZM43.4583 34.6788V32.1066C43.4583 31.5457 43.0036 31.0911 42.4427 31.0911H17.6205C17.0596 31.0911 16.605 31.5457 16.605 32.1066V34.6788H43.4583ZM37.4882 9.63121H33.5176V18.7799H24.3776V9.63121H16.1075V19.4287C16.1075 20.5504 17.0168 21.4598 18.1386 21.4598H35.4571C36.5789 21.4598 37.4882 20.5504 37.4882 19.4287V9.63121ZM26.4087 9.63121H31.4865V16.7488H26.4087V9.63121ZM20.7108 42.3288C20.1499 42.3288 19.6952 41.8741 19.6952 41.3132C19.6952 40.7523 20.1499 40.2977 20.7108 40.2977H39.0077C39.5686 40.2977 40.0232 40.7523 40.0232 41.3132C40.0232 41.8741 39.5686 42.3288 39.0077 42.3288H20.7108ZM22.3876 45.9956C22.3876 46.5565 22.8422 47.0111 23.4031 47.0111H36.6171C37.178 47.0111 37.6326 46.5565 37.6326 45.9956C37.6326 45.4347 37.178 44.98 36.6171 44.98H23.4031C22.8422 44.98 22.3876 45.4347 22.3876 45.9956Z" fill="#009639"/>
</g>
</g>
</g>
</svg>
