<svg width="60" height="60" viewBox="0 0 60 60" fill="none" xmlns="http://www.w3.org/2000/svg">
<rect width="60" height="60" fill="white"/>
<path fill-rule="evenodd" clip-rule="evenodd" d="M6.00293 24.7368C6.00293 27.955 8.61182 30.5639 11.8301 30.5639C15.0483 30.5639 17.6572 27.955 17.6572 24.7368" fill="#339C63"/>
<path fill-rule="evenodd" clip-rule="evenodd" d="M30.0029 24.7368C30.0029 27.955 32.6118 30.5639 35.8301 30.5639C36.1287 30.5639 36.7087 30.4981 36.7087 30.4981C36.7087 30.4981 35.0319 28.6003 34.2268 27.3657C33.4218 26.131 32.9521 24.7368 32.9521 24.7368H30.0029Z" fill="#339C63"/>
<path d="M41.5371 24.7368C41.5371 27.955 44.146 30.5639 47.3642 30.5639V30.5639C50.5825 30.5639 53.1914 27.955 53.1914 24.7368" stroke="white" stroke-width="2"/>
<path fill-rule="evenodd" clip-rule="evenodd" d="M34.2266 50V35H44.2266V50H34.2266Z" fill="#339C63"/>
<path fill-rule="evenodd" clip-rule="evenodd" d="M22.7157 10H29.4991V22.739V24.7531H16.2266L22.7157 10Z" fill="#339C63"/>
<circle cx="45.8516" cy="20.625" r="10.5" fill="#339C63"/>
<path fill-rule="evenodd" clip-rule="evenodd" d="M57.4766 20.625C57.4766 27.0453 52.2719 32.25 45.8516 32.25C39.4313 32.25 34.2266 27.0453 34.2266 20.625C34.2266 14.2047 39.4313 9 45.8516 9C52.2719 9 57.4766 14.2047 57.4766 20.625ZM36.4766 20.625C36.4766 25.8027 40.6739 30 45.8516 30C51.0292 30 55.2266 25.8027 55.2266 20.625C55.2266 15.4473 51.0292 11.25 45.8516 11.25C40.6739 11.25 36.4766 15.4473 36.4766 20.625Z" fill="white"/>
<path d="M43.0706 16.725V25.125H45.0746V21.981H45.3686L47.5826 25.125H49.9706L47.5586 21.921C49.0646 21.681 49.9046 20.745 49.9046 19.413C49.9046 17.757 48.8006 16.725 46.7246 16.725H43.0706ZM46.7006 18.543C47.4086 18.543 47.8646 18.819 47.8646 19.413C47.8646 20.013 47.4206 20.295 46.7006 20.295H45.0746V18.543H46.7006Z" fill="white"/>
<path fill-rule="evenodd" clip-rule="evenodd" d="M38.652 9H12.7542L3 26H5.11946C5.39724 27.4846 6.15551 28.7999 7.22669 29.7785V51H33.2267H35.2267H43.2267H45.2267H51.2117V32.8623C51.2117 32.8623 50.6862 33.1147 50.134 33.302C49.6993 33.4494 49.3774 33.5126 49.2602 33.5329C49.244 33.5372 49.2279 33.5416 49.2117 33.5459L49.2117 49H45.2267V34H33.2267V49H9.22569L9.22659 31.0498C10.0289 31.381 10.9081 31.5637 11.8299 31.5637C14.4198 31.5637 16.6729 30.1216 17.8299 27.9966C18.987 30.1216 21.24 31.5637 23.8299 31.5637C26.2963 31.5637 28.4573 30.2558 29.657 28.2957C30.8568 30.2558 33.0177 31.5637 35.4842 31.5637C36.0955 31.5637 37.6994 31.4158 37.6994 31.4158C37.6994 31.4158 37.4651 31.2174 37.1768 30.948C36.6581 30.523 36.1716 30.0602 35.7216 29.5637H35.4842C33.2554 29.5637 31.3794 28.0532 30.8241 26H33.3942C33.1075 25.3582 32.8695 24.69 32.6848 24H30.2267V11H36.135C36.8897 10.2381 37.7344 9.56569 38.652 9ZM28.2267 11V24H17.6963L23.3596 11.0411L23.2656 11H28.2267ZM21.1949 11H13.9107L6.45269 24H15.5136L21.1949 11ZM7.16981 26C7.72511 28.0532 9.60111 29.5637 11.8299 29.5637C14.0587 29.5637 15.9347 28.0532 16.49 26H7.16981ZM19.1698 26C19.7251 28.0532 21.6011 29.5637 23.8299 29.5637C26.0587 29.5637 27.9347 28.0532 28.49 26H19.1698ZM43.2267 36V49H35.2267V36H43.2267ZM25.2267 34V44H15.2267V34H25.2267ZM23.2267 36H17.2267V42H23.2267V36Z" fill="white"/>
</svg>
