<svg width="60" height="60" viewBox="0 0 60 60" fill="none" xmlns="http://www.w3.org/2000/svg">
<g id="npi-document-checklist-tick">
<rect width="60" height="60" fill="white"/>
<g id="Group">
<path id="Path" d="M12.8218 10.9787L6.21582 12.1436L13.2263 51.6008L12.8218 10.9787Z" fill="#E4F2D2"/>
<path id="Combined Shape" fill-rule="evenodd" clip-rule="evenodd" d="M18.8586 18.0528L17.2676 19.6438L20.1844 22.5606L25.2634 17.4816L23.6724 15.8906L20.1844 19.3786L18.8586 18.0528ZM18.8586 29.5528L17.2676 31.1438L20.1844 34.0606L25.2634 28.9816L23.6724 27.3906L20.1844 30.8786L18.8586 29.5528ZM17.2676 42.6438L18.8586 41.0528L20.1844 42.3786L23.6724 38.8906L25.2634 40.4816L20.1844 45.5606L17.2676 42.6438Z" fill="#009639"/>
<circle id="Oval" cx="43.8926" cy="29.625" r="10.5" fill="#E4F2D2"/>
<path id="Combined Shape_2" fill-rule="evenodd" clip-rule="evenodd" d="M45.9982 15.7823V7.61035H11.9982V9.67959L4.70068 10.8354L11.7022 55.0413L28.5853 52.3673H45.9982V43.4677C45.3452 43.5662 44.6774 43.6196 43.9982 43.6246L43.998 50.367H29.0353L29.0205 50.2734L28.4294 50.367H13.998V9.61H43.998L43.9982 15.6254C44.6774 15.6304 45.3452 15.6838 45.9982 15.7823ZM40.6602 16H28V18H36.0887C37.4599 17.0777 39.0031 16.3916 40.6602 16ZM33.7259 20H28V22H32.1492C32.614 21.2856 33.1422 20.6163 33.7259 20ZM29.9858 28H28V30H29.8975C29.8942 29.8754 29.8925 29.7504 29.8925 29.625C29.8925 29.0754 29.9242 28.5331 29.9858 28ZM30.0932 32H28V34H30.5897C30.377 33.3529 30.2102 32.6849 30.0932 32ZM34.4924 40H28V42H37.3398C36.3072 41.452 35.3512 40.7786 34.4924 40ZM11.9982 44.1287V11.7044L6.98826 12.4974L11.9982 44.1287ZM13.3641 52.7526L13.303 52.3673H15.7974L13.3641 52.7526ZM41.125 44V46H28V44H41.125ZM39.8837 28.9481L38.3014 30.5477L42.1524 34.3572L49.7683 26.8249L48.1861 25.2251L42.1525 31.1925L39.8837 28.9481ZM43.8925 41.25C50.3128 41.25 55.5175 36.0453 55.5175 29.625C55.5175 23.2047 50.3128 18 43.8925 18C37.4722 18 32.2675 23.2047 32.2675 29.625C32.2675 36.0453 37.4722 41.25 43.8925 41.25ZM43.8925 39C38.7149 39 34.5175 34.8027 34.5175 29.625C34.5175 24.4473 38.7149 20.25 43.8925 20.25C49.0702 20.25 53.2675 24.4473 53.2675 29.625C53.2675 34.8027 49.0702 39 43.8925 39Z" fill="#009639"/>
</g>
</g>
</svg>
