<svg width="60" height="60" viewBox="0 0 60 60" fill="none" xmlns="http://www.w3.org/2000/svg">
<rect width="60" height="60" fill="white"/>
<circle cx="30.0637" cy="29.7942" r="22.2942" fill="#D8D8D8"/>
<path fill-rule="evenodd" clip-rule="evenodd" d="M16.6473 47.6012C20.3802 50.4181 25.0269 52.0884 30.0637 52.0884C34.9978 52.0884 39.5575 50.4856 43.2505 47.7722L46.7132 52.366L49.4426 52.3501L44.9513 46.3894C49.498 42.3079 52.3579 36.385 52.3579 29.7942C52.3579 17.4815 42.3765 7.5 30.0637 7.5C17.751 7.5 7.76953 17.4815 7.76953 29.7942C7.76953 36.28 10.5391 42.1189 14.96 46.1928L10.3133 52.3575L13.0678 52.3501L16.6473 47.6012ZM17.9687 45.8482C21.334 48.3876 25.523 49.8933 30.0637 49.8933C34.5017 49.8933 38.6037 48.4549 41.929 46.019L29.8845 30.0399L17.9687 45.8482ZM16.2885 44.4304L29.8845 26.393L43.6249 44.629C47.6428 40.954 50.1628 35.6684 50.1628 29.7942C50.1628 18.6938 41.1642 9.69512 30.0637 9.69512C18.9633 9.69512 9.96465 18.6938 9.96465 29.7942C9.96465 35.5634 12.3953 40.7649 16.2885 44.4304ZM22.9187 18.0295L23.887 19.9995C20.1819 21.8208 17.7848 25.5921 17.7848 29.7942C17.7848 31.6069 18.2266 33.3534 19.0597 34.9165L17.1226 35.9491C16.1211 34.0701 15.5897 31.9692 15.5897 29.7942C15.5897 24.7473 18.4695 20.2166 22.9187 18.0295ZM44.1262 32.1951C45.2628 32.1951 46.1842 31.2738 46.1842 30.1372C46.1842 29.0006 45.2628 28.0793 44.1262 28.0793C42.9897 28.0793 42.0683 29.0006 42.0683 30.1372C42.0683 31.2738 42.9897 32.1951 44.1262 32.1951ZM44.4692 36.997C44.4692 38.1335 43.5479 39.0549 42.4113 39.0549C41.2747 39.0549 40.3534 38.1335 40.3534 36.997C40.3534 35.8604 41.2747 34.939 42.4113 34.939C43.5479 34.939 44.4692 35.8604 44.4692 36.997ZM37.2665 33.9101C38.403 33.9101 39.3244 32.9887 39.3244 31.8521C39.3244 30.7156 38.403 29.7942 37.2665 29.7942C36.1299 29.7942 35.2086 30.7156 35.2086 31.8521C35.2086 32.9887 36.1299 33.9101 37.2665 33.9101ZM44.4692 23.2774C44.4692 24.414 43.5479 25.3354 42.4113 25.3354C41.2747 25.3354 40.3534 24.414 40.3534 23.2774C40.3534 22.1409 41.2747 21.2195 42.4113 21.2195C43.5479 21.2195 44.4692 22.1409 44.4692 23.2774ZM32.1217 45.9146C33.2582 45.9146 34.1796 44.9933 34.1796 43.8567C34.1796 42.7201 33.2582 41.7988 32.1217 41.7988C30.9851 41.7988 30.0637 42.7201 30.0637 43.8567C30.0637 44.9933 30.9851 45.9146 32.1217 45.9146ZM37.6095 26.7073C37.6095 27.8439 36.6881 28.7652 35.5515 28.7652C34.415 28.7652 33.4936 27.8439 33.4936 26.7073C33.4936 25.5708 34.415 24.6494 35.5515 24.6494C36.6881 24.6494 37.6095 25.5708 37.6095 26.7073Z" fill="#979797"/>
</svg>
