<svg width="60" height="60" viewBox="0 0 60 60" fill="none" xmlns="http://www.w3.org/2000/svg">
<g id="npi-mobile-shield">
<rect width="60" height="60" fill="white"/>
<g id="Mobile 2 1">
<g id="Group">
<g id="Group_2">
<path id="Vector" d="M13.5 40.5H40.5V45C40.5 48.3137 37.8137 51 34.5 51H19.5C16.1863 51 13.5 48.3137 13.5 45V40.5Z" fill="#E4F2D2"/>
<path id="Vector_2" d="M40.5 16.5L13.5 16.5V13.5C13.5 10.1863 16.1863 7.5 19.5 7.5L34.5 7.5C37.8137 7.5 40.5 10.1863 40.5 13.5V16.5Z" fill="#E4F2D2"/>
<path id="Vector_3" fill-rule="evenodd" clip-rule="evenodd" d="M45.7643 22.9505C45.7596 22.9518 45.3436 23.0691 44.7055 23.0691C43.3561 23.0691 41.402 22.5718 39.7552 20.2017C39.5638 19.9263 39.1057 19.9263 38.9144 20.2017C36.9264 23.063 34.1236 23.3634 32.9074 22.9512C32.5819 22.8544 32.25 23.0978 32.25 23.4419V28.2615C32.25 34.9887 39.1305 36.9428 39.1998 36.9621C39.2438 36.9741 39.2891 36.9801 39.3345 36.9801C39.3798 36.9801 39.4252 36.9741 39.4692 36.9621C39.5392 36.9428 46.4197 34.9887 46.4197 28.2615V23.4418C46.4197 23.1084 46.0976 22.8557 45.7643 22.9505Z" fill="#E4F2D2"/>
<path id="Vector_4" d="M33.5081 7.125C37.3338 7.125 40.4553 10.1402 40.6257 13.9239L40.6331 14.25L40.632 19.5L40.6791 19.5599C41.795 21.1661 43.0751 21.8563 44.4329 21.9363L44.7055 21.9443C44.9495 21.9443 45.1536 21.9246 45.2931 21.9027L45.4565 21.8685C46.5067 21.5699 47.5447 22.3599 47.5447 23.4419V28.2617C47.5447 31.5848 46.0729 34.1577 43.6572 36.0186C42.5986 36.8341 41.524 37.4017 40.6324 37.7538L40.6331 45.75C40.6331 49.5757 37.6179 52.6972 33.8342 52.8677L33.5081 52.875H20.25C16.4243 52.875 13.3028 49.8598 13.1323 46.0761L13.125 45.75V14.25C13.125 10.4243 16.1402 7.3028 19.9239 7.13233L20.25 7.125H33.5081ZM38.382 42.75H15.375V45.75C15.375 48.3495 17.4097 50.4739 19.9734 50.6173L20.25 50.625H33.5081C36.1076 50.625 38.2319 48.5903 38.3753 46.0266L38.3831 45.75L38.382 42.75ZM38.382 17.25H15.375V40.5H38.382L38.3828 37.8829C37.4291 37.5475 36.2155 36.9455 35.0123 36.0186C32.5968 34.1576 31.125 31.5848 31.125 28.2617V23.442C31.125 22.3455 32.1812 21.5618 33.2685 21.8858C34.4922 22.3006 36.5912 21.5739 37.9905 19.5599C38.1009 19.401 38.2344 19.2695 38.3829 19.1655L38.382 17.25ZM39.3315 21.5053C37.6147 23.5405 35.2567 24.4554 33.375 24.2105V28.2617C33.375 30.829 34.4877 32.7742 36.3855 34.2362C37.0669 34.7611 37.8035 35.1845 38.5416 35.5126C38.6074 35.5418 38.6711 35.5694 38.7324 35.5954L39.0688 35.7309L39.3345 35.8266C39.3723 35.8139 39.4137 35.7995 39.4583 35.7835L39.7619 35.6676L40.1279 35.5126C40.866 35.1845 41.6027 34.7611 42.2841 34.2361C44.1819 32.7742 45.2947 30.829 45.2947 28.2617V24.1678L45.1089 24.182C44.9813 24.1899 44.8465 24.1943 44.7055 24.1943C42.7491 24.1943 40.8721 23.3748 39.3315 21.5053ZM33.5081 9.375H20.25C17.6505 9.375 15.5261 11.4097 15.3827 13.9734L15.375 14.25V15H38.382L38.3831 14.25C38.3831 11.6505 36.3484 9.52613 33.7847 9.38272L33.5081 9.375Z" fill="#009639"/>
</g>
</g>
</g>
</g>
</svg>
