<svg width="60" height="60" viewBox="0 0 60 60" fill="none" xmlns="http://www.w3.org/2000/svg">
<rect width="60" height="60" fill="white"/>
<path fill-rule="evenodd" clip-rule="evenodd" d="M37.4998 38.5001H23.1942V44.364L9.2666 34.221L23.1942 23.478V30.0009L37.4998 30.0001V38.5001Z" fill="#B3D4F1"/>
<path d="M37.3234 21.0807V13.5938L53.8892 26.0072L37.3234 38.4207V31.126H21.9342V25.5036L10.6655 33.9557L21.9342 42.4077V36.981H34.2768C34.8291 36.981 35.2768 37.4287 35.2768 37.981C35.2768 38.5332 34.8291 38.981 34.2768 38.981H23.9342V46.4079L7.33231 33.9557L23.9342 21.5035V29.126H39.3234V34.4228L50.554 26.0072L39.3234 17.5917V23.0807H26.6707C26.1184 23.0807 25.6707 22.633 25.6707 22.0807C25.6707 21.5284 26.1184 21.0807 26.6707 21.0807H37.3234Z" fill="#006FCF"/>
</svg>
