<svg width="60" height="60" viewBox="0 0 60 60" fill="none" xmlns="http://www.w3.org/2000/svg">
<rect width="60" height="60" fill="white"/>
<circle cx="43" cy="17" r="9" fill="#B3D4F1"/>
<path fill-rule="evenodd" clip-rule="evenodd" d="M53.0001 17C53.0001 19.4937 52.0874 21.7742 50.5777 23.5256L53.8894 26.0072L37.3236 38.4207V31.126H21.9344V25.5036L10.6657 33.9556L21.9344 42.4077V36.9809H34.277C34.8293 36.9809 35.277 37.4286 35.277 37.9809C35.277 38.5332 34.8293 38.9809 34.277 38.9809H23.9344V46.4078L7.33252 33.9556L23.9344 21.5034V29.126H39.3236V34.4228L50.5542 26.0072L49.1047 24.9211C47.4159 26.2246 45.2985 27 43.0001 27C39.7648 27 36.8884 25.4636 35.0606 23.0806H26.6709C26.1186 23.0806 25.6709 22.6329 25.6709 22.0806C25.6709 21.5283 26.1186 21.0806 26.6709 21.0806H33.8679C33.3102 19.8345 33.0001 18.4535 33.0001 17C33.0001 11.4772 37.4773 7 43.0001 7C48.523 7 53.0001 11.4772 53.0001 17ZM35.0001 17C35.0001 21.4183 38.5818 25 43.0001 25C47.4184 25 51.0001 21.4183 51.0001 17C51.0001 12.5817 47.4184 9 43.0001 9C38.5818 9 35.0001 12.5817 35.0001 17ZM41.3178 17.3697L40.0322 15.8376L38.5001 17.1231L41.0713 20.1873L47.7727 14.5642L46.4871 13.0321L41.3178 17.3697Z" fill="#006FCF"/>
</svg>
