<svg width="60" height="60" viewBox="0 0 60 60" fill="none" xmlns="http://www.w3.org/2000/svg">
<rect width="60" height="60" fill="white"/>
<circle cx="22.8098" cy="21.4764" r="8.64286" fill="#D8D8D8" stroke="#979797" stroke-width="2"/>
<circle cx="40.1429" cy="17.6429" r="9.64286" fill="#D8D8D8"/>
<path d="M13.4452 32.8736C13.8358 32.4831 14.4689 32.4831 14.8595 32.8736L27.0823 45.0965C27.4728 45.487 27.4728 46.1201 27.0823 46.5107L20.9709 52.6221L7.33381 38.985L13.4452 32.8736Z" fill="#D8D8D8"/>
<path fill-rule="evenodd" clip-rule="evenodd" d="M40.0592 8C45.3848 8 49.7021 12.3173 49.7021 17.6429C49.7021 22.9685 45.3848 27.2857 40.0592 27.2857C36.8618 27.2857 34.0278 25.7295 32.2734 23.3331C31.6216 26.6747 29.244 29.399 26.1064 30.5406C26.2879 30.6525 26.4649 30.7724 26.6369 30.9001L26.8267 31.047L34.4167 31.0476H34.4375C36.6523 31.0476 38.468 32.756 38.6387 34.9269L47.5966 25.08C48.83 23.724 50.929 23.6247 52.2849 24.858C52.3308 24.8998 52.3756 24.9428 52.4191 24.9871C53.7078 26.2987 53.78 28.3647 52.6172 29.7608L52.4829 29.9131L40.0112 43.281C39.2773 44.0148 38.3006 44.4501 37.27 44.5085L37.0312 44.5153H26.5002L27.0815 45.0966C27.472 45.4871 27.472 46.1203 27.0815 46.5108L20.9701 52.6223L7.33301 38.9852L13.4444 32.8738C13.835 32.4832 14.4681 32.4832 14.8586 32.8738L15.5848 33.6C15.7213 33.2789 15.8984 32.9548 16.1154 32.6264C16.819 31.6167 17.751 30.8084 18.8217 30.2586C15.4858 28.7416 13.1663 25.3797 13.1663 21.4762C13.1663 16.1506 17.4836 11.8333 22.8092 11.8333C26.0066 11.8333 28.8406 13.3896 30.595 15.7859C31.4605 11.3488 35.3688 8 40.0592 8ZM40.0592 10C35.8382 10 32.4163 13.4218 32.4163 17.6429C32.4163 21.8639 35.8382 25.2857 40.0592 25.2857C44.2802 25.2857 47.7021 21.8639 47.7021 17.6429C47.7021 13.4218 44.2802 10 40.0592 10ZM22.8092 13.8333C18.5882 13.8333 15.1663 17.2552 15.1663 21.4762C15.1663 25.6972 18.5882 29.119 22.8092 29.119C27.0302 29.119 30.4521 25.6972 30.4521 21.4762C30.4521 17.2552 27.0302 13.8333 22.8092 13.8333ZM34.4375 39.4762H34.4167H27.0354C26.4831 39.4762 26.0354 39.0285 26.0354 38.4762C26.0354 37.9634 26.4214 37.5407 26.9188 37.4829L27.0354 37.4762L34.4167 37.4762L34.4187 37.4762C35.6407 37.4751 36.6309 36.4841 36.6309 35.2619C36.6309 34.0922 35.7239 33.1343 34.5748 33.0532L34.4167 33.0476H30.2497H26.088L25.8044 32.7974C24.8192 31.9278 23.5557 31.4405 22.214 31.4405C20.415 31.4405 18.7661 32.3208 17.7703 33.7493C17.4734 34.1988 17.3078 34.6017 17.2585 34.9587L17.2444 35.1089C17.2423 35.1548 17.237 35.2 17.2289 35.244L24.5038 42.519L24.5676 42.5153H37.0312C37.5533 42.5153 38.0563 42.331 38.4363 42.0159L38.5729 41.8917L51.0205 28.5488C51.5908 27.9374 51.5785 26.9852 50.9925 26.3888L50.9392 26.3375C50.4363 25.8801 49.6761 25.884 49.1786 26.3246L49.0761 26.4257L38.3268 38.2419C37.5929 38.9757 36.6162 39.411 35.5856 39.4694L35.3468 39.4762H34.4375ZM14.1514 34.9949L24.9595 45.803L20.97 49.7925L10.1619 38.9844L14.1514 34.9949ZM43.5579 14.2929L44.9721 15.7071L38.9 21.7792L35.5926 18.4718L37.0068 17.0575L38.8997 18.95L43.5579 14.2929ZM22.2473 21.0743H22.6267C23.0231 21.0743 23.3273 20.9923 23.5392 20.8282C23.7511 20.6642 23.857 20.4283 23.857 20.1208C23.857 19.8132 23.7511 19.5774 23.5392 19.4133C23.3273 19.2493 23.0231 19.1672 22.6267 19.1672H22.2473V21.0743ZM26.6663 25.3497H24.1646L22.2473 22.3764V25.3497H20.2378V17.619H23.3649C23.7955 17.619 24.1715 17.6823 24.4927 17.8087C24.814 17.9352 25.0788 18.1078 25.2873 18.3265C25.4958 18.5452 25.653 18.7981 25.759 19.0852C25.8649 19.3723 25.9179 19.6799 25.9179 20.008C25.9179 20.5958 25.776 21.0726 25.4924 21.4383C25.2087 21.8039 24.7901 22.0517 24.2364 22.1816L26.6663 25.3497Z" fill="#979797"/>
</svg>
