<svg width="60" height="60" viewBox="0 0 60 60" fill="none" xmlns="http://www.w3.org/2000/svg">
<rect width="60" height="60" fill="white"/>
<path d="M41.8984 17.6641V19.868" stroke="#979797" stroke-width="2"/>
<path fill-rule="evenodd" clip-rule="evenodd" d="M42.0186 22.3027C42.0186 22.3027 48.2652 22.437 51.5371 25.7411C54.809 29.0453 55.9639 34.3717 55.9639 34.3717C55.9639 34.3717 54.593 31.3362 52.0653 31.3362C49.5375 31.3362 48.4107 34.082 48.4107 34.082C48.4107 34.082 48.0261 30.8228 46.7735 27.6922C45.5209 24.5616 42.0186 22.3027 42.0186 22.3027Z" fill="#D8D8D8"/>
<path fill-rule="evenodd" clip-rule="evenodd" d="M42.6282 21.769C42.6282 21.769 42.0252 21.8511 41.8127 21.9683C40.0783 22.9241 38.8824 24.4967 37.9033 26.4255C36.2547 29.6732 36.3777 34.0823 36.3777 34.0823C36.3777 34.0823 37.6335 31.8514 39.1925 31.3365C40.7516 30.8216 42.6282 32.0181 42.6282 32.0181V21.769Z" fill="#D8D8D8"/>
<path fill-rule="evenodd" clip-rule="evenodd" d="M32.9039 9C35.2235 9 37.1351 10.7545 37.2456 12.9815L37.2506 13.1852V16.6642H47.2854C49.9696 16.6642 52.1562 18.795 52.2695 21.4633L52.2741 21.6808V22.7725H50.2741V21.6808C50.2741 20.0728 49.0284 18.761 47.4608 18.6693L47.2854 18.6642H18.3757V48.7667H35.5051C35.1644 48.203 34.9554 47.5506 34.9211 46.8524L34.9161 46.6477V46.0047C34.9161 45.4524 35.3638 45.0047 35.9161 45.0047C36.4289 45.0047 36.8516 45.3908 36.9094 45.8881L36.9161 46.0047V46.6477C36.9161 47.8084 37.857 48.7493 39.0178 48.7493C40.128 48.7493 41.0372 47.8884 41.1142 46.7977L41.1195 46.6477V33.47C40.7165 33.2155 40.2479 33.0772 39.7564 33.0772C38.4645 33.0772 37.3869 34.0383 37.2203 35.2951L37.2038 35.4607L35.2083 35.3268C35.2166 35.2041 35.2296 35.0829 35.2473 34.9632L35.0991 34.9765C34.7577 31.1639 35.9535 27.4315 38.3017 24.5478C33.6549 26.0535 30.182 30.2122 29.7187 35.2727L29.6945 35.5776L27.699 35.4437C28.1819 28.2491 33.8945 22.5453 41.0042 21.9871L41.0205 21.975L41.0279 21.9852C41.3987 21.9567 41.7733 21.9422 42.1511 21.9422C42.5347 21.9422 42.9149 21.9572 43.2912 21.9865L43.2972 21.9783L43.3103 21.988C50.1936 22.5343 55.7615 27.903 56.5425 34.7716C56.581 34.9434 56.6101 35.1188 56.6294 35.2973L56.6479 35.5154L56.608 35.5179L56.608 35.5189L54.6119 35.6426C54.6009 35.4662 54.5864 35.2909 54.5682 35.1166C54.2603 33.9396 53.1879 33.0772 51.9227 33.0772C50.5395 33.0772 49.3861 34.108 49.2112 35.4548L49.1945 35.6248L48.9519 35.6085L48.952 35.6102L46.9565 35.7442L46.9399 35.573C46.7598 34.1598 45.5508 33.0772 44.1005 33.0772C43.7599 33.0772 43.4291 33.1366 43.1195 33.2494V46.6477C43.1195 47.4231 42.9043 48.1482 42.5304 48.7667H47.2854C48.8756 48.7667 50.178 47.5123 50.269 45.9275L50.2741 45.7501V37.8226H52.2741V45.7501C52.2741 48.4463 50.1581 50.648 47.5019 50.762L47.2854 50.7667H11.9887C9.30445 50.7667 7.11783 48.6359 7.00461 45.9676L7 45.7501V21.6808C7 18.9846 9.11598 16.7829 11.7722 16.6689L11.9887 16.6642H22.0238V13.1852C22.0238 10.9307 23.8672 9.10995 26.1608 9.0048L26.3705 9H32.9039ZM43.1195 24.4027V31.1764C43.4388 31.111 43.7672 31.0772 44.1005 31.0772C45.2676 31.0772 46.3425 31.4896 47.1832 32.1792C46.814 29.1856 45.3622 26.4148 43.1195 24.4027ZM49.1711 31.9586C48.8395 29.2304 47.7338 26.6623 46.017 24.5531C49.3908 25.6515 52.1431 28.1488 53.5717 31.3726C53.0575 31.1815 52.5018 31.0772 51.9227 31.0772C50.8989 31.0772 49.9481 31.4031 49.1711 31.9586ZM37.1754 31.878C37.9105 31.3723 38.8005 31.0772 39.7564 31.0772C40.2254 31.0772 40.6841 31.1485 41.1195 31.2848V24.4704C38.9884 26.4147 37.5953 29.0407 37.1754 31.878ZM35.2506 13.1852V16.6642H24.0238V13.1852L24.0292 13.0369C24.1109 11.909 25.1181 11 26.3705 11H32.9039L33.0658 11.0051C34.2956 11.0828 35.2506 12.0395 35.2506 13.1852ZM16.3757 18.6642H11.9887C10.3985 18.6642 9.09608 19.9186 9.00508 21.5034L9 21.6808V45.7501C9 47.3581 10.2456 48.6699 11.8132 48.7615L11.9887 48.7667H16.3757V18.6642Z" fill="#979797"/>
<path d="M36.1494 35.5771C36.0284 33.6239 34.4059 32.0771 32.4222 32.0771C30.4451 32.0771 28.8268 33.6137 28.6963 35.5577" stroke="#979797" stroke-width="2"/>
</svg>
