<svg width="60" height="60" viewBox="0 0 60 60" fill="none" xmlns="http://www.w3.org/2000/svg">
<rect width="60" height="60" fill="white"/>
<path d="M32.8848 9.56117V18.7012H25.393V9.56117" fill="#D8D8D8"/>
<path fill-rule="evenodd" clip-rule="evenodd" d="M40.4653 7.6001H9.63072C8.50897 7.6001 7.59961 8.50946 7.59961 9.63121V50.5198C7.59961 51.6416 8.50897 52.5509 9.63072 52.5509H50.5193C51.6411 52.5509 52.5504 51.6416 52.5504 50.5198V19.7728C52.5504 19.2372 52.3388 18.7232 51.9617 18.3428L41.9077 8.20124C41.5263 7.81651 41.007 7.6001 40.4653 7.6001ZM9.63072 50.5198V9.63121H14.0759V19.4287C14.0759 21.6722 15.8946 23.4909 18.1381 23.4909H35.4566C37.7001 23.4909 39.5189 21.6722 39.5189 19.4287V9.63121H40.4653L50.5193 19.7728V50.5198H45.4889V36.7099V34.6788V32.1066C45.4889 30.424 44.1248 29.06 42.4422 29.06H17.62C15.9374 29.06 14.5734 30.424 14.5734 32.1066V34.6788V36.7099V50.5198H9.63072ZM16.6045 36.7099V50.5198H43.4578V36.7099H16.6045ZM43.4578 34.6788V32.1066C43.4578 31.5457 43.0031 31.0911 42.4422 31.0911H17.62C17.0592 31.0911 16.6045 31.5457 16.6045 32.1066V34.6788H43.4578ZM37.4877 9.63121H33.5171V18.7799H24.3771V9.63121H16.107V19.4287C16.107 20.5504 17.0163 21.4598 18.1381 21.4598H35.4566C36.5784 21.4598 37.4877 20.5504 37.4877 19.4287V9.63121ZM26.4082 9.63121H31.486V16.7488H26.4082V9.63121ZM20.7103 42.3288C20.1494 42.3288 19.6947 41.8741 19.6947 41.3132C19.6947 40.7523 20.1494 40.2977 20.7103 40.2977H39.0072C39.5681 40.2977 40.0228 40.7523 40.0228 41.3132C40.0228 41.8741 39.5681 42.3288 39.0072 42.3288H20.7103ZM22.3871 45.9956C22.3871 46.5565 22.8418 47.0111 23.4026 47.0111H36.6166C37.1775 47.0111 37.6322 46.5565 37.6322 45.9956C37.6322 45.4347 37.1775 44.98 36.6166 44.98H23.4026C22.8418 44.98 22.3871 45.4347 22.3871 45.9956Z" fill="#979797"/>
</svg>
