<svg width="60" height="60" viewBox="0 0 60 60" fill="none" xmlns="http://www.w3.org/2000/svg">
<rect width="60" height="60" fill="white"/>
<path d="M51.3648 27.582V36.4875L47.8543 36.5885C46.5429 36.6263 45.4993 37.7003 45.4993 39.0122C45.4993 40.3907 46.4523 41.586 47.7961 41.893L51.3648 42.7083V50.7613H22.6411C20.432 50.7613 18.6411 48.9705 18.6411 46.7613V27.582H51.3648Z" fill="#B3D4F1"/>
<path d="M28.6061 13.1684C29.9407 14.4423 31.0702 15.9873 31.9377 17.7252L51.5223 17.725C52.0746 17.725 52.5223 18.1727 52.5223 18.725C52.5223 19.2773 52.0746 19.725 51.5223 19.725H31.5223C31.4804 19.725 31.4391 19.7224 31.3986 19.7174C30.876 20.6165 30.2834 21.4473 29.6317 22.2018L51.5223 22.2012C52.0746 22.2012 52.5223 22.6489 52.5223 23.2012C52.5223 23.7535 52.0746 24.2012 51.5223 24.2012L27.5436 24.2016C26.0435 25.3812 24.352 26.229 22.549 26.6783L52.5223 26.6773L52.5221 35.444L54.1133 35.4449C54.6656 35.4449 55.1133 35.8927 55.1133 36.4449V42.4132C55.1133 42.9655 54.6656 43.4132 54.1133 43.4132L52.5221 43.413L52.5223 52.4433H21.6812C19.4704 52.4433 17.6971 50.7578 17.6971 48.5661L17.6964 46.7165C17.6926 41.7635 17.6745 35.1579 17.6419 26.9001C16.941 26.7914 16.251 26.6227 15.5759 26.3957L16.2132 24.5C17.2892 24.8617 18.4074 25.0469 19.5472 25.0469C23.7925 25.0469 27.6855 22.4449 29.9439 18.2234C29.2092 16.851 28.2893 15.6309 27.2252 14.6152L28.6061 13.1684ZM50.5223 28.6773L19.6491 28.677L19.6503 29.0605C19.6776 36.3164 19.6929 42.2013 19.6964 46.7154L19.6971 48.5661C19.6971 49.6298 20.5529 50.4433 21.6812 50.4433H50.5223L50.5221 43.413L48.1451 43.4132C45.9447 43.4132 44.1609 41.6294 44.1609 39.4291C44.1609 37.2287 45.9447 35.4449 48.1451 35.4449L50.5221 35.444L50.5223 28.6773ZM53.1133 37.4449H48.1451C47.0493 37.4449 46.1609 38.3333 46.1609 39.4291C46.1609 40.5249 47.0493 41.4132 48.1451 41.4132H53.1133V37.4449ZM29.7263 6.3418L31.1573 7.73907L9.01626 30.4137L7.58531 29.0165L11.9743 24.5212C9.97662 23.0656 8.30974 21.0517 7.12961 18.6668L6.91016 18.2233L7.1296 17.7798C9.66885 12.648 14.3519 9.39962 19.5472 9.39962C21.5731 9.39962 23.5389 9.8915 25.3463 10.8269L29.7263 6.3418ZM19.5472 11.3996C15.3017 11.3996 11.4087 14.0016 9.15045 18.2232C10.2207 20.2224 11.6786 21.8887 13.3894 23.0734L15.4343 20.9783C14.2283 19.4564 14.36 17.2186 15.7892 15.7894C17.1953 14.3833 19.3841 14.2331 20.9038 15.3771L23.8736 12.3357C22.5038 11.7197 21.0447 11.3996 19.5472 11.3996ZM17.2034 17.2036C16.5588 17.8482 16.4449 18.8054 16.8571 19.5218L19.4806 16.8344C18.769 16.4496 17.8357 16.5713 17.2034 17.2036Z" fill="#006FCF"/>
</svg>
