<svg width="60" height="60" viewBox="0 0 60 60" fill="none" xmlns="http://www.w3.org/2000/svg">
<rect width="60" height="60" fill="white"/>
<path d="M41.5 30C48.1274 30 53.5 24.6274 53.5 18C53.5 11.3726 48.1274 6 41.5 6C34.8726 6 29.5 11.3726 29.5 18C29.5 24.6274 34.8726 30 41.5 30Z" fill="#DADADA"/>
<path d="M8 46V52.5H14.5V54.5H6V46H8ZM51 46V54.5H42.5V52.5H49V46H51ZM41.5 5C48.6797 5 54.5 10.8203 54.5 18C54.5 21.6653 52.9831 24.9763 50.5429 27.3395L50.5968 27.6064C50.9226 29.2222 51.0688 30.8514 51.0377 32.4738C51.0271 33.026 50.5709 33.465 50.0187 33.4545C49.4665 33.4439 49.0275 32.9877 49.038 32.4355C49.0614 31.2164 48.9748 29.9927 48.7769 28.7745C47.8204 29.4212 46.7741 29.9441 45.6601 30.3201C46.5762 36.0413 46.2691 41.8072 44.8003 47.3174C44.658 47.851 44.1101 48.1683 43.5764 48.0261C43.0428 47.8838 42.7255 47.3359 42.8677 46.8023C44.2496 41.6181 44.5504 36.197 43.7141 30.8112C42.9937 30.9357 42.2544 31 41.5 31C41.1139 31 40.7318 30.9832 40.3543 30.9502C40.7357 33.2411 40.8876 35.5545 40.8181 37.8697C40.8016 38.4217 40.3406 38.8558 39.7886 38.8392C39.2365 38.8227 38.8025 38.3617 38.819 37.8097C38.8916 35.3929 38.7088 32.9794 38.2637 30.5933C36.7412 30.2035 35.3286 29.5458 34.0766 28.6735C34.4658 29.2994 34.7516 30.0043 34.9059 30.7693L35.0724 31.5953L35.0555 31.6018C36.4197 39.4759 34.6341 47.4291 30.1902 53.9237C29.8783 54.3795 29.256 54.4961 28.8002 54.1842C28.3444 53.8724 28.2277 53.25 28.5396 52.7942C32.838 46.5124 34.4736 38.7753 32.9394 31.1669L32.8926 30.9347C32.3195 28.7122 30.1001 27.3026 27.8235 27.7616C25.6011 28.2097 24.119 30.2784 24.3596 32.4892L24.438 32.8829C24.452 32.9586 24.452 32.9586 24.4594 33.0075L24.46 33.0109C24.465 33.0432 24.465 33.0432 24.4664 33.051C24.5706 33.5933 24.2154 34.1175 23.6731 34.2217C23.4668 34.2614 23.2632 34.2346 23.0844 34.1563C22.9211 34.0143 22.7878 33.8757 22.6843 33.7406C22.5809 33.6054 22.5062 33.4515 22.4602 33.2789C21.767 29.8419 23.9913 26.494 27.4282 25.801C28.879 25.5085 30.3138 25.7358 31.5399 26.3547C30.5549 25.182 29.773 23.8319 29.249 22.3594C28.4267 22.3106 27.5951 22.3688 26.7698 22.5352C21.6934 23.5588 18.3519 28.3804 19.1075 33.4447L19.2064 33.9354C20.2686 39.2031 18.3048 44.543 14.2208 47.8886C13.7935 48.2386 13.1635 48.176 12.8135 47.7487C12.4635 47.3215 12.5261 46.6914 12.9534 46.3414C16.327 43.5778 18.0195 39.2367 17.3447 34.885L17.2335 34.3332C15.9582 28.0095 20.0508 21.8498 26.3745 20.5747C27.1508 20.4181 27.9328 20.341 28.7114 20.3422C28.5723 19.5836 28.5 18.8002 28.5 18C28.5 17.6705 28.5123 17.3438 28.5363 17.0205C27.5897 17.0257 26.6475 17.121 25.7158 17.3088C19.8777 18.4861 15.3639 22.9737 14.0563 28.6894C13.9331 29.2278 13.3968 29.5644 12.8585 29.4412C12.3201 29.3181 11.9835 28.7818 12.1066 28.2434C13.5878 21.7687 18.7037 16.6825 25.3205 15.3483C26.4842 15.1137 27.6617 15.0062 28.843 15.0217C29.1158 13.8563 29.5464 12.7499 30.1106 11.7275C28.305 11.5998 26.4761 11.7167 24.662 12.0825C21.7897 12.6615 19.125 13.8358 16.7898 15.5207C16.3419 15.8438 15.7169 15.7427 15.3937 15.2949C15.0706 14.847 15.1717 14.222 15.6195 13.8988C18.1843 12.0483 21.1129 10.7577 24.2667 10.1219C26.6354 9.64432 29.0299 9.55327 31.3802 9.83866C33.7634 6.88763 37.4112 5 41.5 5ZM29.6686 31.8263C31.2328 39.5842 29.0492 47.474 23.9236 53.3079C23.559 53.7228 22.9272 53.7636 22.5123 53.3991C22.0974 53.0346 22.0566 52.4027 22.4211 51.9878C27.1391 46.618 29.1475 39.3609 27.708 32.2216C27.5989 31.6802 27.9493 31.1528 28.4906 31.0437C29.032 30.9345 29.5594 31.2849 29.6686 31.8263ZM39.685 40.2045C40.2328 40.2749 40.6198 40.7761 40.5494 41.3239C40.0542 45.1753 38.9332 48.9101 37.2394 52.387C36.9975 52.8835 36.3989 53.0899 35.9024 52.848C35.4059 52.6062 35.1995 52.0076 35.4414 51.5111C37.0403 48.2291 38.0984 44.7039 38.5657 41.0689C38.6361 40.5211 39.1373 40.1341 39.685 40.2045ZM23.8131 35.5931C24.3654 35.5873 24.8178 36.0302 24.8237 36.5824C24.8829 42.1194 22.591 47.4106 18.5747 51.1684C18.1715 51.5457 17.5386 51.5246 17.1613 51.1214C16.784 50.7181 16.805 50.0853 17.2083 49.7079C20.8174 46.3311 22.877 41.5763 22.8239 36.6038C22.818 36.0515 23.2609 35.5991 23.8131 35.5931ZM12.6879 30.8131C13.2402 30.82 13.6824 31.2731 13.6756 31.8254C13.6646 32.7306 13.7308 33.6246 13.8775 34.5054L13.9753 34.9904C14.6321 38.2481 13.4481 41.5523 10.9581 43.6621C10.5368 44.0191 9.90575 43.9669 9.54873 43.5456C9.1917 43.1242 9.24386 42.4932 9.66523 42.1362C11.5179 40.5664 12.4414 38.1504 12.0749 35.7267L12.0065 35.3873C11.7691 34.2095 11.661 33.0122 11.6758 31.8009C11.6825 31.2487 12.1357 30.8064 12.6879 30.8131ZM14.3451 16.183C14.7348 16.5743 14.7335 17.2075 14.3422 17.5972C9.69221 22.2279 7.52087 28.8122 8.61514 35.3668L8.75175 36.0435C8.81089 36.3365 8.87579 36.6258 8.9466 36.9121C9.07918 37.4483 8.75204 37.9904 8.2159 38.123C7.68685 38.2538 7.15199 37.937 7.01055 37.4134L6.97712 37.4201L6.77976 36.4414C5.27909 28.9996 7.64962 21.4394 12.9309 16.18C13.3222 15.7903 13.9554 15.7916 14.3451 16.183ZM41.5 7C35.4249 7 30.5 11.9249 30.5 18C30.5 24.0751 35.4249 29 41.5 29C42.3826 29 43.2409 28.8961 44.0633 28.6998C44.1478 28.6537 44.2415 28.6212 44.3414 28.6029C44.3907 28.5939 44.4399 28.5887 44.4886 28.587C49.1117 27.2867 52.5 23.039 52.5 18C52.5 11.9249 47.5751 7 41.5 7ZM41.903 21.994C42.749 21.994 43.397 22.642 43.397 23.488C43.397 24.334 42.749 25 41.903 25C41.057 25 40.4 24.334 40.4 23.488C40.4 22.642 41.057 21.994 41.903 21.994ZM43.064 11.914V20.635H40.715V11.914H43.064ZM14.5 9.5V11.5H8V18H6V9.5H14.5Z" fill="#979797"/>
<path d="M7 18V10.5H14.5" stroke="#979797" stroke-width="2"/>
</svg>
