<svg width="60" height="60" viewBox="0 0 60 60" fill="none" xmlns="http://www.w3.org/2000/svg">
<rect width="60" height="60" fill="white"/>
<circle cx="41.965" cy="31.128" r="9.36047" fill="#339C63"/>
<path fill-rule="evenodd" clip-rule="evenodd" d="M9.48828 24.2093H32.1162C32.1162 24.2093 33.8723 21.8507 36.3641 20.4842C38.8559 19.1177 41.2325 19.128 41.2325 19.128C41.2325 16.9895 39.4989 15.2559 37.3604 15.2559H13.4883C11.2791 15.2559 9.48828 17.0467 9.48828 19.2559V24.2093Z" fill="#339C63"/>
<path fill-rule="evenodd" clip-rule="evenodd" d="M16.5116 16.2558V18.5116H14.5116V16.2558H12.2558C11.0619 16.2558 10.0846 17.1834 10.0052 18.3572L10 18.5116V23.2093H32.9485C32.4086 23.8236 31.9305 24.4935 31.5238 25.2093H10V43.7442C10 44.9381 10.9276 45.9154 12.1014 45.9948L12.2558 46H38.3023C39.4963 46 40.4736 45.0724 40.5529 43.8986L40.5581 43.7442V43.0463C41.0196 43.1002 41.4891 43.1279 41.9651 43.1279C42.164 43.1279 42.3617 43.1231 42.5581 43.1135V43.7442C42.5581 46.0255 40.7632 47.8875 38.5085 47.9951L38.3023 48H12.2558C9.97452 48 8.11247 46.205 8.00491 43.9504L8 43.7442V18.5116C8 16.2303 9.79496 14.3683 12.0496 14.2607L12.2558 14.2558H14.5116V12H16.5116V14.2558H21.0233V12H23.0233V14.2558H27.5349V12H29.5349V14.2558H34.0465V12H36.0465V14.2558H38.3023C40.5836 14.2558 42.4457 16.0508 42.5532 18.3054L42.5581 18.5116V19.1423C42.3617 19.1327 42.164 19.1279 41.9651 19.1279C41.4891 19.1279 41.0196 19.1556 40.5581 19.2095V18.5116C40.5581 17.3177 39.6306 16.3404 38.4568 16.261L38.3023 16.2558H36.0465V18.5116H34.0465V16.2558H29.5349V18.5116H27.5349V16.2558H23.0233V18.5116H21.0233V16.2558H16.5116ZM31.6047 31.1279C31.6047 25.406 36.2432 20.7674 41.9651 20.7674C47.687 20.7674 52.3256 25.406 52.3256 31.1279C52.3256 36.8498 47.687 41.4884 41.9651 41.4884C36.2432 41.4884 31.6047 36.8498 31.6047 31.1279ZM50.3256 31.1279C50.3256 26.5105 46.5825 22.7674 41.9651 22.7674C37.3478 22.7674 33.6047 26.5105 33.6047 31.1279C33.6047 35.7453 37.3478 39.4884 41.9651 39.4884C46.5825 39.4884 50.3256 35.7453 50.3256 31.1279ZM45.0052 34.0785C46.4052 34.0785 47.5163 32.9715 47.5163 31.1279C47.5163 29.2802 46.4052 28.1773 45.0052 28.1773C43.6093 28.1773 42.4983 29.2802 42.4983 31.1279C42.4983 32.9715 43.6093 34.0785 45.0052 34.0785ZM38.5506 31.8442V33.9767H37.1913V28.2791H39.6698C41.0779 28.2791 41.8267 28.9791 41.8267 30.1023C41.8267 31.0058 41.257 31.6407 40.2355 31.8035L41.8715 33.9767H40.2517L38.75 31.8442H38.5506ZM38.5506 30.7006H39.6535C40.1419 30.7006 40.443 30.5093 40.443 30.1023C40.443 29.6994 40.1337 29.5122 39.6535 29.5122H38.5506V30.7006ZM43.8698 31.1279C43.8698 32.2349 44.3663 32.8169 45.0052 32.8169C45.6483 32.8169 46.1448 32.2349 46.1448 31.1279C46.1448 30.0209 45.6483 29.439 45.0052 29.439C44.3663 29.439 43.8698 30.0209 43.8698 31.1279ZM14.2907 29.907H16.7326V32.3488H14.2907V29.907ZM19.1744 29.907H21.6163V32.3488H19.1744V29.907ZM26.5 29.907H24.0581V32.3488H26.5V29.907ZM14.2907 34.7907H16.7326V37.2326H14.2907V34.7907ZM21.6163 34.7907H19.1744V37.2326H21.6163V34.7907ZM24.0581 34.7907H26.5V37.2326H24.0581V34.7907ZM16.7326 39.6744H14.2907V42.1163H16.7326V39.6744ZM19.1744 39.6744H21.6163V42.1163H19.1744V39.6744ZM26.5 39.6744H24.0581V42.1163H26.5V39.6744ZM28.9419 39.6744H31.3837V42.1163H28.9419V39.6744ZM31.3837 34.7907H28.9419V37.2326H31.3837V34.7907Z" fill="white"/>
</svg>
