<svg width="60" height="60" viewBox="0 0 60 60" fill="none" xmlns="http://www.w3.org/2000/svg">
<rect width="60" height="60" fill="white"/>
<path d="M16.8271 41.6309H39.9996V47.5619C39.9996 49.771 38.2087 51.5619 35.9996 51.5619H20.8271C18.618 51.5619 16.8271 49.771 16.8271 47.5619V41.6309Z" fill="#D8D8D8"/>
<circle cx="43" cy="16" r="9" fill="#D8D8D8"/>
<path fill-rule="evenodd" clip-rule="evenodd" d="M26.9996 8.52734H20.8271C18.618 8.52734 16.8271 10.3182 16.8271 12.5273V17.6308H26.9996V8.52734Z" fill="#D8D8D8"/>
<path fill-rule="evenodd" clip-rule="evenodd" d="M38.7312 8.07502C38.3017 7.83621 37.8075 7.7002 37.2814 7.7002H36.8276H25.8621H20C17.7909 7.7002 16 9.49106 16 11.7002V48.3899C16 50.599 17.7909 52.3899 20 52.3899H36.8276C39.0367 52.3899 40.8276 50.599 40.8276 48.3899V24.7363C39.914 24.5098 39.0554 24.1438 38.2759 23.6621V29.1407L37.1922 30.1419L35.1305 28.2375L33.0693 30.1418L31.0075 28.2374L28.9428 30.1453L27.8621 29.1579V9.70019H36.5727C37.2039 9.0563 37.9311 8.50686 38.7312 8.07502ZM20 9.7002H25.8621V15.8036H18V11.7002C18 10.5956 18.8954 9.7002 20 9.7002ZM18 17.8036H25.8621V30.0398L28.9506 32.8612L31.0078 30.9603L33.0696 32.8646L35.1307 30.9603L37.1924 32.8646L38.8276 31.3539V40.6312H18V17.8036ZM38.8276 42.6312H18V48.3899C18 49.4944 18.8954 50.3899 20 50.3899H36.8276C37.9322 50.3899 38.8276 49.4944 38.8276 48.3899V42.6312ZM29.3448 14.0002H33.3793V16.0002H29.3448V14.0002ZM28.6983 48.2002C29.7695 48.2002 30.6379 47.3318 30.6379 46.2605C30.6379 45.1893 29.7695 44.3209 28.6983 44.3209C27.627 44.3209 26.7586 45.1893 26.7586 46.2605C26.7586 47.3318 27.627 48.2002 28.6983 48.2002Z" fill="#979797"/>
<path fill-rule="evenodd" clip-rule="evenodd" d="M31.9015 19.9431V22.0976H33.0646C33.7881 22.0976 34.2169 21.6957 34.2169 21.0257C34.2169 20.3665 33.7613 19.9431 33.0592 19.9431H31.9015ZM31.9015 23.4858V26.1924H29.9346V18.4585H33.3379C35.1441 18.4585 36.2267 19.4125 36.2267 21.0097C36.2267 21.9583 35.7551 22.8265 34.9083 23.1964L36.4518 26.1924H34.2437L32.9199 23.4858H31.9015Z" fill="#979797"/>
<path fill-rule="evenodd" clip-rule="evenodd" d="M53 16C53 21.5228 48.5228 26 43 26C37.4772 26 33 21.5228 33 16C33 10.4772 37.4772 6 43 6C48.5228 6 53 10.4772 53 16ZM35 16C35 20.4183 38.5817 24 43 24C47.4183 24 51 20.4183 51 16C51 11.5817 47.4183 8 43 8C38.5817 8 35 11.5817 35 16Z" fill="#979797"/>
<path d="M40.0321 15.8375L38.5 17.123L41.0712 20.1872L47.7726 14.5641L46.487 13.032L41.3177 17.3696L40.0321 15.8375Z" fill="#979797"/>
</svg>
