<svg width="60" height="60" viewBox="0 0 60 60" fill="none" xmlns="http://www.w3.org/2000/svg">
<rect width="60" height="60" fill="white"/>
<path d="M35.643 25.286C40.9687 25.286 45.286 20.9687 45.286 15.643C45.286 10.3173 40.9687 6 35.643 6C30.3173 6 26 10.3173 26 15.643C26 20.9687 30.3173 25.286 35.643 25.286Z" fill="#B3D4F1"/>
<path d="M46.468 13.6776C50.7404 17.9493 53.2007 23.7449 53.2007 29.9344C53.2007 42.5047 43.1123 52.7188 30.5904 52.9218L30.4947 52.9218L30.3273 52.9252L30.3267 52.9238L30.0543 52.9246C19.4379 52.8537 10.5304 45.5877 7.96404 35.7591C8.81583 36.6368 9.78295 37.4026 10.8402 38.0331C11.062 38.5655 11.3058 39.086 11.5697 39.5943L14.6428 39.5949C15.7184 39.8596 16.8429 40 18.0002 40C19.1567 40 20.2805 39.8598 21.3555 39.5953L29.2097 39.5938L29.2101 34.3881C30.225 33.0339 31.0003 31.4898 31.473 29.8187L40.3207 29.8178L40.3162 29.1864C40.2959 28.0023 40.2275 26.8355 40.1135 25.6952C40.7807 25.3995 41.4143 25.037 42.0047 24.6177C42.2104 26.3011 42.3179 28.0441 42.3224 29.818L51.1987 29.8178L51.1936 29.3842C51.1274 26.8222 50.5999 24.3425 49.6666 22.0417L44.5916 22.0414C45.0366 21.4202 45.4185 20.7508 45.7279 20.0425L48.7293 20.042C48.1178 18.8989 47.3998 17.8126 46.5833 16.7969C46.6227 16.4178 46.643 16.0327 46.643 15.6429C46.643 14.9721 46.583 14.3153 46.468 13.6776ZM31.2097 41.5938L31.2104 50.8398C34.2175 50.2571 36.932 46.736 38.6007 41.5945L31.2097 41.5938ZM29.2097 41.5938L21.873 41.5946C23.5319 46.7059 26.2243 50.2156 29.2103 50.8292L29.2097 41.5938ZM19.7736 41.5947L12.7536 41.5946C15.4556 45.6316 19.5207 48.6792 24.2906 50.0786C22.4022 48.0823 20.8464 45.1404 19.7736 41.5947ZM47.6668 41.5946H40.7002C39.6313 45.1272 38.083 48.0606 36.2034 50.057C40.9417 48.6476 44.9788 45.6108 47.6668 41.5946ZM31.2097 31.8178V39.5938L39.1755 39.5949C39.7719 37.2342 40.1601 34.6078 40.2817 31.8185L31.2097 31.8178ZM51.1173 31.8183L42.2838 31.8188C42.17 34.5726 41.8085 37.1943 41.2385 39.5948L48.8507 39.5943C50.0785 37.2299 50.8696 34.6023 51.1173 31.8183ZM15.4479 15.8562C16.3496 15.7319 17.2159 15.7142 18.1085 15.8037L18.5573 15.8573L19.3127 15.9619L19.6902 18.848L19.7562 18.8699C19.9982 18.9518 20.2361 19.0445 20.4692 19.1475L20.8154 19.3098L20.8732 19.34L23.182 17.5655L23.7901 18.0258C24.5023 18.5647 25.1481 19.186 25.7135 19.8757L25.9895 20.2262L26.4491 20.8342L24.6742 23.143L24.7045 23.2016C24.8176 23.4298 24.9205 23.6629 25.0128 23.9004L25.1434 24.2599L25.1632 24.324L28.0504 24.7023L28.1548 25.4579C28.2802 26.3649 28.2972 27.2325 28.2082 28.1218L28.1548 28.5686L28.0503 29.3241L25.1632 29.701L25.1434 29.7665C25.0616 30.0083 24.9692 30.246 24.8664 30.479L24.7044 30.825L24.6742 30.882L26.4491 33.1922L25.9895 33.8002C25.4512 34.5123 24.8302 35.1584 24.1406 35.7244L23.7901 36.0006L23.182 36.4609L20.8722 34.686L20.8153 34.7166C20.587 34.83 20.3537 34.9331 20.116 35.0257L19.7562 35.1566L19.6902 35.177L19.3127 38.0645L18.5574 38.1692C17.6543 38.2944 16.7877 38.3123 15.8961 38.2236L15.4479 38.1703L14.6918 38.0661L14.3132 35.179L14.2484 35.1594C14.006 35.0776 13.7678 34.9851 13.5343 34.8821L13.1875 34.7198L13.1282 34.688L10.8188 36.4637L10.2108 36.004C9.48435 35.4547 8.81859 34.8089 8.24938 34.1089L8.01145 33.8056L7.5512 33.1975L9.32517 30.888L9.29453 30.8295C9.18092 30.6006 9.0776 30.3668 8.98489 30.1285L8.85381 29.7679L8.83217 29.701L5.94628 29.3232L5.84183 28.5676C5.71903 27.6793 5.7034 26.7777 5.79002 25.8973L5.84182 25.459L5.94626 24.7034L8.83217 24.325L8.85381 24.2587C8.93584 24.0161 9.02864 23.7777 9.13187 23.544L9.29453 23.1971L9.32517 23.138L7.55117 20.8291L8.01148 20.2209C8.56126 19.4946 9.2073 18.8291 9.90749 18.2604L10.2108 18.0226L10.8188 17.5629L13.1272 19.337L13.1874 19.3068C13.4162 19.1934 13.6498 19.0903 13.8879 18.9978L14.2483 18.8671L14.3132 18.847L14.6918 15.9603L15.4479 15.8562ZM17.0014 17.7476L16.8202 17.7494L16.4722 17.763L16.1229 20.4384L15.454 20.5989C14.8953 20.733 14.36 20.9391 13.858 21.2117L13.5609 21.3831L12.9745 21.7421L10.8342 20.097L10.585 20.3286L10.3243 20.5889L10.0862 20.845L11.7306 22.985L11.3709 23.5715C11.0714 24.06 10.8373 24.5838 10.6742 25.1333L10.5848 25.466L10.4241 26.1344L7.75017 26.484L7.73726 26.8239L7.73536 27.0075L7.73703 27.1914L7.75017 27.542L10.4241 27.8921L10.5848 28.5606C10.7194 29.12 10.926 29.6556 11.1991 30.1578L11.3709 30.455L11.7306 31.0416L10.0862 33.18L10.3173 33.4304L10.5778 33.691L10.8342 33.928L12.9745 32.2844L13.5608 32.6433C14.0493 32.9423 14.5728 33.1759 15.1217 33.3385L15.454 33.4276L16.1229 33.5881L16.4722 36.263L16.8202 36.2771H17.1826L17.5312 36.263L17.8816 33.5868L18.5496 33.4257C19.1076 33.2912 19.6419 33.0849 20.143 32.8124L20.4395 32.641L21.0261 32.2815L23.1652 33.925L23.4203 33.6908L23.5513 33.5623L23.6797 33.4313L23.9142 33.176L22.27 31.0365L22.6288 30.4502C22.9269 29.963 23.1601 29.4407 23.3226 28.893L23.4117 28.5615L23.5725 27.893L26.2482 27.543L26.2622 27.1975L26.2641 27.0163L26.2623 26.835L26.2472 26.483L23.5725 26.1334L23.4117 25.4649C23.2776 24.9076 23.0718 24.3736 22.7998 23.8727L22.6287 23.5761L22.27 22.9898L23.9142 20.849L23.6797 20.5951L23.5513 20.4641L23.4203 20.3356L23.1652 20.1L21.0262 21.7451L20.4396 21.3855C19.9523 21.0867 19.4297 20.8531 18.8815 20.6901L18.5496 20.6008L17.8816 20.4397L17.5312 17.763L17.1826 17.7495L17.0014 17.7476ZM16.9984 22.2111C19.6506 22.2111 21.8006 24.361 21.8006 27.0132C21.8006 29.6654 19.6506 31.8153 16.9984 31.8153C14.3463 31.8153 12.1963 29.6654 12.1963 27.0132C12.1963 24.361 14.3463 22.2111 16.9984 22.2111ZM16.9984 24.2111C15.4508 24.2111 14.1963 25.4656 14.1963 27.0132C14.1963 28.5608 15.4508 29.8153 16.9984 29.8153C18.546 29.8153 19.8006 28.5608 19.8006 27.0132C19.8006 25.4656 18.546 24.2111 16.9984 24.2111ZM35.643 6C40.9686 6 45.2859 10.3173 45.2859 15.6429C45.2859 20.9685 40.9686 25.2857 35.643 25.2857C30.3174 25.2857 26.0002 20.9685 26.0002 15.6429C26.0002 15.4266 26.0073 15.2119 26.0213 14.9992L22.1488 15C21.5966 15 21.1488 14.5523 21.1488 14C21.1488 13.4872 21.5349 13.0645 22.0322 13.0067L22.1488 13L26.3671 12.9991C26.567 12.2964 26.8445 11.6265 27.1899 10.9991L24.1488 11C23.5966 11 23.1488 10.5523 23.1488 10C23.1488 9.48716 23.5349 9.06449 24.0322 9.00673L24.1488 9H28.5927L28.6512 9.00214C30.4081 7.15293 32.8909 6 35.643 6ZM35.643 8C31.422 8 28.0002 11.4218 28.0002 15.6429C28.0002 19.8639 31.422 23.2857 35.643 23.2857C39.8641 23.2857 43.2859 19.8639 43.2859 15.6429C43.2859 11.4218 39.8641 8 35.643 8ZM36.1987 11.7857C36.6294 11.7857 37.0053 11.8489 37.3266 11.9754C37.6478 12.1018 37.9127 12.2744 38.1212 12.4932C38.3296 12.7119 38.4868 12.9648 38.5928 13.2519C38.6987 13.539 38.7517 13.8465 38.7517 14.1746C38.7517 14.7625 38.6099 15.2392 38.3262 15.6049C38.0425 15.9706 37.6239 16.2184 37.0702 16.3483L39.5002 19.5164H36.9985L35.0812 16.5431V19.5164H33.0716V11.7857H36.1987ZM35.4605 13.3339H35.0812V15.2409H35.4605C35.857 15.2409 36.1611 15.1589 36.373 14.9949C36.5849 14.8308 36.6909 14.595 36.6909 14.2874C36.6909 13.9798 36.5849 13.744 36.373 13.58C36.1611 13.4159 35.857 13.3339 35.4605 13.3339ZM20.5927 9C21.1449 9 21.5927 9.44772 21.5927 10C21.5927 10.5128 21.2066 10.9355 20.7093 10.9933L20.5927 11H18.9742C18.4219 11 17.9742 10.5523 17.9742 10C17.9742 9.48716 18.3602 9.06449 18.8576 9.00673L18.9742 9H20.5927Z" fill="#006FCF"/>
</svg>
