<svg width="60" height="60" viewBox="0 0 60 60" fill="none" xmlns="http://www.w3.org/2000/svg">
<g id="npi-document-money-quick">
<rect width="60" height="60" fill="white"/>
<g id="Group">
<path id="Combined Shape" fill-rule="evenodd" clip-rule="evenodd" d="M14.7092 52.3975L7.7478 12.9173L37.3826 7.69189L38.1342 11.9544C35.0379 14.031 32.9999 17.5632 32.9999 21.5715C32.9999 27.0113 36.7536 31.5744 41.812 32.8119L43.8257 44.2322L44.3441 47.172L14.7092 52.3975Z" fill="#E4F2D2"/>
<path id="Combined Shape_2" fill-rule="evenodd" clip-rule="evenodd" d="M45 33.1351C44.8578 33.1402 44.7149 33.1429 44.5714 33.1429C38.1807 33.1429 33 27.9622 33 21.5714C33 15.1807 38.1807 10 44.5714 10C44.7149 10 44.8578 10.0026 45 10.0078V7H22.0924H15V13.9782V47.0892H45V33.1351Z" fill="white"/>
<circle id="Oval 7" cx="44.5714" cy="21.5714" r="11.5714" fill="#E4F2D2"/>
<path id="Combined Shape_3" fill-rule="evenodd" clip-rule="evenodd" d="M16 46.0892V8H44V10.0139C40.2859 10.1945 37.0316 12.1262 35.045 15.001C35.0301 15.0003 35.0151 15 35 15H32C31.4477 15 31 15.4477 31 16C31 16.5523 31.4477 17 32 17H33.938C33.663 17.639 33.4438 18.3077 33.2867 19H27C26.4477 19 26 19.4477 26 20C26 20.5523 26.4477 21 27 21H33.0138C33.0046 21.1893 33 21.3798 33 21.5714C33 22.0551 33.0296 22.5319 33.0873 23H32C31.4477 23 31 23.4477 31 24C31 24.5523 31.4477 25 32 25H33.5163C34.9237 29.5429 39.0542 32.8885 44 33.129V46.0892H16ZM46 6V10.0873C51.7167 10.7912 56.1428 15.6644 56.1428 21.5714C56.1428 27.4785 51.7167 32.3517 46 33.0555V48.0892H44.401L13.8905 53.469L6.58179 12.0192L14 10.7112V6H46ZM14 12.7421V42.5723L8.8987 13.6416L14 12.7421ZM14.9727 48.0892L15.5128 51.1521L32.8834 48.0892H14.9727ZM35 21.5714C35 26.8576 39.2852 31.1429 44.5714 31.1429C49.8575 31.1429 54.1428 26.8576 54.1428 21.5714C54.1428 16.2853 49.8575 12 44.5714 12C39.2852 12 35 16.2853 35 21.5714ZM32 30.0002V32.0002H22V30.0002H32ZM38 36.0002V34.0002H22V36.0002H38ZM36 40.0002V38.0002H22V40.0002H36ZM24 20C24 19.4477 23.5522 19 23 19H22C21.4477 19 21 19.4477 21 20C21 20.5523 21.4477 21 22 21H23C23.5522 21 24 20.5523 24 20ZM28 15C28.5522 15 29 15.4477 29 16C29 16.5523 28.5522 17 28 17H27C26.4477 17 26 16.5523 26 16C26 15.4477 26.4477 15 27 15H28ZM43.8667 21.1463H43.4114V18.8578H43.8667C44.3424 18.8578 44.7074 18.9563 44.9617 19.1531C45.216 19.35 45.3431 19.6329 45.3431 20.0021C45.3431 20.3712 45.216 20.6541 44.9617 20.851C44.7074 21.0478 44.3424 21.1463 43.8667 21.1463ZM45.7122 26.2768H48.7143L45.7983 22.4751C46.4627 22.3192 46.9651 22.0219 47.3055 21.583C47.6459 21.1442 47.8161 20.5721 47.8161 19.8667C47.8161 19.473 47.7525 19.1039 47.6254 18.7594C47.4983 18.4149 47.3096 18.1114 47.0594 17.8489C46.8093 17.5865 46.4914 17.3794 46.1059 17.2276C45.7204 17.0759 45.2693 17 44.7525 17H41V26.2768H43.4114V22.7088L45.7122 26.2768Z" fill="#009639"/>
</g>
</g>
</svg>
