<svg width="60" height="60" viewBox="0 0 60 60" fill="none" xmlns="http://www.w3.org/2000/svg">
<rect width="60" height="60" fill="white"/>
<path fill-rule="evenodd" clip-rule="evenodd" d="M19.1577 42.5H13C10.7909 42.5 9 40.7091 9 38.5V21.5C9 19.2909 10.7909 17.5 13 17.5H47C49.2091 17.5 51 19.2909 51 21.5V38.5C51 40.7091 49.2091 42.5 47 42.5H41.0453V31.5H19.1577V42.5Z" fill="#D8D8D8"/>
<path fill-rule="evenodd" clip-rule="evenodd" d="M41.9949 12.3237C41.9037 10.7489 40.5977 9.5 39 9.5H21L20.8237 9.50509C19.2489 9.59634 18 10.9023 18 12.5V16.5H13L12.7831 16.5046C10.1223 16.6182 8 18.8112 8 21.5V38.5L8.00462 38.7169C8.11818 41.3777 10.3112 43.5 13 43.5H18V48C18 49.5977 19.2489 50.9037 20.8237 50.9949L21 51H39C40.5977 51 41.9037 49.7511 41.9949 48.1763L42 48V43.5H47L47.2169 43.4954C49.8777 43.3818 52 41.1888 52 38.5V21.5L51.9954 21.2831C51.8818 18.6223 49.6888 16.5 47 16.5H42V12.5L41.9949 12.3237ZM40 16.5V12.5C40 11.9872 39.614 11.5645 39.1166 11.5067L39 11.5H21C20.4872 11.5 20.0645 11.886 20.0067 12.3834L20 12.5V16.5H40ZM18 33V41.5H13L12.8237 41.4949C11.2489 41.4037 10 40.0977 10 38.5V21.5L10.0051 21.3237C10.0963 19.7489 11.4023 18.5 13 18.5H47L47.1763 18.5051C48.7511 18.5963 50 19.9023 50 21.5V38.5L49.9949 38.6763C49.9037 40.2511 48.5977 41.5 47 41.5H42V33H44.0783L44.1949 32.9933C44.6923 32.9355 45.0783 32.5128 45.0783 32C45.0783 31.4477 44.6306 31 44.0783 31H15.7255L15.6088 31.0067C15.1115 31.0645 14.7255 31.4872 14.7255 32C14.7255 32.5523 15.1732 33 15.7255 33H18ZM20 33H40V48C40 48.5128 39.614 48.9355 39.1166 48.9933L39 49H21C20.4872 49 20.0645 48.614 20.0067 48.1166L20 48V33ZM45.0783 24.5753C45.0783 24.023 44.6306 23.5753 44.0783 23.5753H40.155L40.0384 23.582C39.541 23.6398 39.155 24.0624 39.155 24.5753C39.155 25.1276 39.6027 25.5753 40.155 25.5753H44.0783L44.1949 25.5686C44.6923 25.5108 45.0783 25.0881 45.0783 24.5753ZM35 36.5C35.5523 36.5 36 36.9477 36 37.5C36 38.0128 35.614 38.4355 35.1166 38.4933L35 38.5H26C25.4477 38.5 25 38.0523 25 37.5C25 36.9872 25.386 36.5645 25.8834 36.5067L26 36.5H35ZM32 42.5C32.5523 42.5 33 42.9477 33 43.5C33 44.0128 32.614 44.4355 32.1166 44.4933L32 44.5H26C25.4477 44.5 25 44.0523 25 43.5C25 42.9872 25.386 42.5645 25.8834 42.5067L26 42.5H32Z" fill="#979797"/>
</svg>
