<svg width="60" height="60" viewBox="0 0 60 60" fill="none" xmlns="http://www.w3.org/2000/svg">
<rect width="60" height="60" fill="white"/>
<path fill-rule="evenodd" clip-rule="evenodd" d="M48.2108 53.0142V51.7002C48.2108 51.3318 47.995 51.0012 47.6689 50.8705C43.8424 49.334 39.5946 47.4261 39.2376 46.2373V44.99C40.0314 44.1463 40.6575 42.9695 41.028 41.5918C41.9183 40.9422 42.1396 39.6033 41.4027 38.6614V35.8694C41.4027 32.9872 39.8582 31.0142 36.327 31.0142C32.8869 31.0142 31.2494 32.9872 31.2494 35.8694V38.6623C30.5142 39.6028 30.735 40.9408 31.6241 41.5912C31.9946 42.9694 32.6211 44.1462 33.4154 44.9899V46.2371C33.0594 47.4246 28.8106 49.333 24.9843 50.8704C24.6582 51.0019 24.4424 51.3316 24.4424 51.7001V53.014" fill="url(#paint0_linear)" fill-opacity="0.3"/>
<path fill-rule="evenodd" clip-rule="evenodd" d="M26.1478 48.1252C24.8575 47.4189 23.9519 46.7588 23.7953 46.2373V44.99C24.589 44.1463 25.2151 42.9695 25.5856 41.5918C26.4759 40.9422 26.6972 39.6033 25.9603 38.6614V35.8694C25.9603 32.9872 24.4158 31.0142 20.8846 31.0142C17.4446 31.0142 15.8071 32.9872 15.8071 35.8694V38.6623C15.0718 39.6028 15.2927 40.9408 16.1818 41.5912C16.5522 42.9694 17.1788 44.1462 17.973 44.9899V46.2371C17.617 47.4246 13.3682 49.333 9.5419 50.8704C9.21581 51.0019 9 51.3316 9 51.7001V53.014" fill="url(#paint1_linear)" fill-opacity="0.3"/>
<path d="M37.5 12.889V9H45.5V13.24" fill="#339C63"/>
<path d="M34.4854 16.889V13H48.4854V17.24" fill="#339C63"/>
<path d="M36.3275 30.0143C40.2338 30.0143 42.4032 32.2519 42.4032 35.8695V38.3533C43.1498 39.5895 42.9305 41.1911 41.9066 42.1596C41.5339 43.401 40.9635 44.5007 40.2381 45.3688V46.033C40.6576 46.6482 43.7379 48.2144 48.0412 49.9424C48.7528 50.2275 49.2113 50.9295 49.2113 51.7004V53.0143H47.2113V51.7643C41.649 49.5273 38.7274 48.0137 38.2804 46.525L38.2381 46.3843V44.5937L38.5098 44.305C39.1899 43.582 39.7356 42.5488 40.0628 41.3322L40.1544 40.9918L40.4391 40.7841C40.8918 40.4537 40.9893 39.7555 40.6156 39.2778L40.4032 39.0063V35.8695C40.4032 33.3428 39.1151 32.0143 36.3275 32.0143C33.5949 32.0143 32.2499 33.3819 32.2499 35.8695V39.0069L32.0377 39.2783C31.6651 39.7551 31.7625 40.4532 32.215 40.7841L32.499 40.9919L32.5903 41.3317C32.9173 42.5483 33.4633 43.5815 34.144 44.3046L34.4159 44.5934V46.3839L34.3738 46.5244C33.9277 48.0123 31.0089 49.5244 25.4429 51.7642V53.0143H23.4429V51.7002C23.4429 50.9298 23.9006 50.2296 24.6119 49.9426C28.9172 48.2128 31.9972 46.6467 32.4159 46.033V45.3689C31.6897 44.5004 31.1189 43.4002 30.7463 42.1584C29.7239 41.1896 29.5048 39.5895 30.2499 38.3545V35.8695C30.2499 32.2848 32.4828 30.0143 36.3275 30.0143ZM20.8846 30.0143C24.7909 30.0143 26.9603 32.2519 26.9603 35.8695V38.3533C27.7069 39.5895 27.4877 41.1911 26.4637 42.1596C26.091 43.401 25.5206 44.5007 24.7953 45.3688V45.9977C24.8547 46.0603 24.9769 46.1793 25.1624 46.3243C25.5065 46.5934 26.0005 46.9047 26.628 47.2481L25.6677 49.0025C24.0257 48.1037 23.0924 47.3738 22.8375 46.525L22.7953 46.3843V44.5937L23.0669 44.305C23.747 43.582 24.2927 42.5488 24.62 41.3322L24.7115 40.9918L24.9962 40.7841C25.449 40.4537 25.5465 39.7555 25.1727 39.2778L24.9603 39.0063V35.8695C24.9603 33.3428 23.6723 32.0143 20.8846 32.0143C18.152 32.0143 16.8071 33.3819 16.8071 35.8695V39.0069L16.5949 39.2783C16.2222 39.7551 16.3197 40.4532 16.7721 40.7841L17.0561 40.9919L17.1475 41.3317C17.4745 42.5483 18.0204 43.5815 18.7012 44.3046L18.973 44.5934V46.3839L18.9309 46.5244C18.4848 48.0123 15.566 49.5244 10 51.7642V53.0142H8V51.7002C8 50.9298 8.45769 50.2296 9.16908 49.9426C13.4743 48.2128 16.5543 46.6467 16.973 46.033V45.3689C16.2469 44.5004 15.676 43.4002 15.3035 42.1584C14.2811 41.1896 14.062 39.5895 14.8071 38.3545V35.8695C14.8071 32.2848 17.0399 30.0143 20.8846 30.0143ZM46.5 8L46.4997 12H49.4847L49.4837 16H52.9502V53H50.9502V18H32.5V28.9333H30.5L30.4997 21.999L18.4847 22V28.9875H16.4847V20L30.4997 19.999L30.5 16H33.4837L33.4847 12H36.4997L36.5 8H46.5ZM48.5217 44.0517V46.0517H46.5217V44.0517H48.5217ZM48.5217 38.0517V40.0517H46.5217V38.0517H48.5217ZM48.5217 32.0369V34.0369H46.5217V32.0369H48.5217ZM43 26.0222V28.0222H41V26.0222H43ZM48.5217 26.0222V28.0222H46.5217V26.0222H48.5217ZM37 26V28H35V26H37ZM23 24.0074V26.0074H21V24.0074H23ZM28 24.0074V26.0074H26V24.0074H28ZM43 20.0074V22.0074H41V20.0074H43ZM48.5217 20.0074V22.0074H46.5217V20.0074H48.5217ZM37 20V22H35V20H37ZM47.4847 14H35.4847L35.4837 16H47.4837L47.4847 14ZM44.5 10H38.5L38.4997 12H44.4997L44.5 10Z" fill="white"/>
<defs>
<linearGradient id="paint0_linear" x1="20.9836" y1="31.0142" x2="20.9836" y2="59.417" gradientUnits="userSpaceOnUse">
<stop stop-color="#339C63" stop-opacity="0.96"/>
<stop offset="0.328125" stop-color="white" stop-opacity="0.4"/>
<stop offset="0.75" stop-color="white" stop-opacity="0.01"/>
<stop offset="1" stop-color="white" stop-opacity="0.01"/>
</linearGradient>
<linearGradient id="paint1_linear" x1="6.46749" y1="31.0142" x2="6.46749" y2="59.4168" gradientUnits="userSpaceOnUse">
<stop stop-color="#339C63" stop-opacity="0.96"/>
<stop offset="0.328125" stop-color="white" stop-opacity="0.4"/>
<stop offset="0.75" stop-color="white" stop-opacity="0.01"/>
<stop offset="1" stop-color="white" stop-opacity="0.01"/>
</linearGradient>
</defs>
</svg>
