<svg width="60" height="60" viewBox="0 0 60 60" fill="none" xmlns="http://www.w3.org/2000/svg">
<rect width="60" height="60" fill="white"/>
<circle cx="29.8024" cy="29.8034" r="20.9508" fill="#339C63"/>
<path d="M41.1128 29.0985C41.802 29.4787 41.802 30.4694 41.1128 30.8496L29.4308 37.2949C28.7643 37.6626 27.9477 37.1805 27.9477 36.4193V23.5288C27.9477 22.7676 28.7643 22.2855 29.4308 22.6532L41.1128 29.0985Z" fill="white"/>
<path fill-rule="evenodd" clip-rule="evenodd" d="M7.86816 29.8031C7.86816 41.9171 17.6885 51.7375 29.8026 51.7375C41.9166 51.7375 51.737 41.9171 51.737 29.8031C51.737 17.689 41.9166 7.86865 29.8026 7.86865C17.6885 7.86865 7.86816 17.689 7.86816 29.8031ZM49.7698 29.8031C49.7698 40.8307 40.8302 49.7703 29.8026 49.7703C18.775 49.7703 9.83538 40.8307 9.83538 29.8031C9.83538 18.7755 18.775 9.83587 29.8026 9.83587C40.8302 9.83587 49.7698 18.7755 49.7698 29.8031ZM22.4426 22.6717C22.4426 22.1285 22.883 21.6881 23.4263 21.6881C23.9695 21.6881 24.4099 22.1285 24.4099 22.6717V37.4813C24.4099 38.0245 23.9695 38.4649 23.4263 38.4649C22.883 38.4649 22.4426 38.0245 22.4426 37.4813V22.6717ZM29.8814 38.1693C28.9301 38.6942 27.7335 38.3485 27.2086 37.3972C27.048 37.1062 26.9638 36.7792 26.9638 36.4469V23.5009C26.9638 22.4144 27.8446 21.5337 28.9311 21.5337C29.2634 21.5337 29.5904 21.6179 29.8814 21.7784L41.6137 28.2514C42.565 28.7763 42.9107 29.9729 42.3858 30.9242C42.2065 31.2493 41.9388 31.517 41.6137 31.6963L29.8814 38.1693ZM28.9311 36.4469L40.6634 29.9739L28.9311 23.5009V36.4469Z" fill="white"/>
</svg>
