<svg width="60" height="60" viewBox="0 0 60 60" fill="none" xmlns="http://www.w3.org/2000/svg">
<rect width="60" height="60" fill="white"/>
<circle cx="29.4132" cy="29.5109" r="20.9244" fill="#B3D4F1"/>
<path fill-rule="evenodd" clip-rule="evenodd" d="M29.6087 7C42.0952 7 52.2176 17.1223 52.2176 29.6089C52.2176 42.0954 42.0952 52.2178 29.6087 52.2178C17.247 52.2178 7.20249 42.2969 7.00283 29.9828L6.9998 29.6089H8.9998C8.9998 40.9909 18.2267 50.2178 29.6087 50.2178C40.9907 50.2178 50.2176 40.9909 50.2176 29.6089C50.2176 18.3431 41.178 9.18853 29.9564 9.00287L29.6087 9V7ZM29.6084 7.00029C28.9076 7.00029 28.2105 7.03221 27.5186 7.09565L27.7013 9.0873C28.3324 9.02942 28.9686 9.00029 29.6084 9.00029V7.00029ZM25.4426 7.38346C24.7549 7.51158 24.0752 7.67137 23.4052 7.86215L23.9529 9.7857C24.5632 9.61192 25.1824 9.46635 25.8089 9.34963L25.4426 7.38346ZM19.4692 9.39604C20.0928 9.08266 20.7308 8.79828 21.3816 8.54397L22.1096 10.4068C21.5168 10.6384 20.9354 10.8975 20.3673 11.1831L19.4692 9.39604ZM17.6531 10.4163C17.0611 10.7859 16.4863 11.1827 15.9309 11.6053L17.1419 13.197C17.6484 12.8117 18.1723 12.4499 18.7121 12.113L17.6531 10.4163ZM12.8146 14.4719C13.2819 13.9538 13.7728 13.4574 14.2857 12.9844L15.6415 14.4547C15.1737 14.8861 14.7259 15.3388 14.2998 15.8114L12.8146 14.4719ZM11.5179 16.0463C11.0989 16.6043 10.7058 17.1814 10.34 17.7758L12.0434 18.824C12.3768 18.2822 12.7352 17.756 13.1172 17.2472L11.5179 16.0463ZM8.47614 21.556C8.72502 20.9033 9.00404 20.263 9.31217 19.637L11.1066 20.5203C10.8258 21.0906 10.5716 21.674 10.3449 22.2686L8.47614 21.556ZM7.81006 23.5891C7.695 24.0067 7.59192 24.4279 7.501 24.8524C7.4426 25.1261 7.39193 25.3855 7.3455 25.6482L9.31497 25.9963C9.35727 25.757 9.40343 25.5206 9.45681 25.2705C9.53947 24.8845 9.63337 24.5008 9.73818 24.1205L7.81006 23.5891ZM6.99951 29.6085C6.99953 28.9769 7.02547 28.3482 7.07707 27.7237L9.07028 27.8883C9.02321 28.4581 8.99953 29.0319 8.99951 29.6086L6.99951 29.6085ZM29.9931 15.8027C29.9353 15.3054 29.5126 14.9194 28.9998 14.9194C28.4475 14.9194 27.9998 15.3671 27.9998 15.9194V30.4842L38.8494 40.6491L38.9463 40.7292C39.3483 41.0213 39.9143 40.9751 40.2629 40.6031L40.343 40.5062C40.6351 40.1042 40.5889 39.5382 40.2168 39.1896L29.9998 29.617V15.9194L29.9931 15.8027Z" fill="#006FCF"/>
</svg>
