<svg width="60" height="60" viewBox="0 0 60 60" fill="none" xmlns="http://www.w3.org/2000/svg">
<rect width="60" height="60" fill="white"/>
<path fill-rule="evenodd" clip-rule="evenodd" d="M8.91895 33H51.0836V37.0833C51.0836 38.7402 49.7404 40.0833 48.0836 40.0833H11.9189C10.2621 40.0833 8.91895 38.7402 8.91895 37.0833L8.91895 33Z" fill="#D8D8D8"/>
<path fill-rule="evenodd" clip-rule="evenodd" d="M48.1023 7.9165H11.8927C9.67599 7.9165 7.91699 9.68777 7.91699 11.9067V37.0802C7.91699 39.301 9.67678 41.0832 11.8927 41.0832H22.8941L21.3722 48.9816L21.3445 49.1508C21.125 50.7772 22.299 52.1349 23.9707 52.1349H35.9884L36.1595 52.1301C37.796 52.038 38.9058 50.6297 38.5954 48.9853L37.104 41.0832H48.1023C50.3199 41.0832 52.0837 39.3011 52.0837 37.0804V11.9067C52.0837 9.68774 50.3208 7.9165 48.1023 7.9165ZM35.0687 41.0832H24.9309L23.3361 49.36C23.2529 49.7919 23.4619 50.0867 23.8658 50.1295L23.9707 50.1349H35.9884C36.4272 50.1349 36.6783 49.8722 36.6445 49.4618L36.6301 49.3562L35.0687 41.0832ZM11.8927 9.9165H48.1023C49.2141 9.9165 50.0837 10.7902 50.0837 11.9067V31.9998H9.91699V11.9067C9.91699 10.7892 10.7837 9.9165 11.8927 9.9165ZM9.91699 33.9998H50.0837V37.0804C50.0837 38.2011 49.2107 39.0832 48.1023 39.0832H11.8927C10.787 39.0832 9.91699 38.2021 9.91699 37.0802V33.9998ZM30.9936 15.1718C30.9358 14.6745 30.5132 14.2885 30.0003 14.2885C29.448 14.2885 29.0003 14.7362 29.0003 15.2885V25.3006L25.2085 21.498L25.1144 21.4146C24.7226 21.109 24.1553 21.1359 23.7943 21.4958C23.4032 21.8858 23.4022 22.5189 23.7921 22.91L29.2922 28.4267L29.3 28.4336C29.3245 28.4577 29.3502 28.4805 29.3771 28.5019L29.3864 28.5102C29.7791 28.8163 30.3478 28.7885 30.7085 28.4267L36.2085 22.91L36.2915 22.8157C36.596 22.423 36.5674 21.8558 36.2064 21.4958L36.112 21.4128C35.7193 21.1084 35.1521 21.1369 34.7922 21.498L31.0003 25.3006V15.2885L30.9936 15.1718Z" fill="#979797"/>
</svg>
