<svg width="60" height="60" viewBox="0 0 60 60" fill="none" xmlns="http://www.w3.org/2000/svg">
<rect width="60" height="60" fill="white"/>
<path d="M30.375 50.25C41.3517 50.25 50.25 41.3517 50.25 30.375C50.25 19.3983 41.3517 10.5 30.375 10.5C19.3983 10.5 10.5 19.3983 10.5 30.375C10.5 41.3517 19.3983 50.25 30.375 50.25Z" fill="#D8D8D8"/>
<path d="M50.5832 26.227L56.5944 32.851L54.9282 34.363L51.5159 30.6023C51.5045 39.412 46.0344 47.5539 37.5636 50.8055C28.5386 54.2699 18.3957 51.2991 12.6246 43.7121L14.4153 42.3499C19.5854 49.1467 28.6727 51.8083 36.7572 48.7049C44.3946 45.7732 49.3124 38.4035 49.2655 30.4615L45.6744 33.72L44.1623 32.0538L50.5832 26.227ZM47.5695 16.6299L45.7787 17.9921C40.6086 11.1954 31.5213 8.53374 23.4368 11.6371C15.7994 14.5688 10.8816 21.9386 10.9285 29.8806L14.5196 26.6221L16.0317 28.2883L9.61085 34.1151L3.59961 27.4911L5.2658 25.979L8.67817 29.7397C8.68952 20.9301 14.1596 12.7882 22.6305 9.53656C31.6555 6.07217 41.7983 9.04298 47.5695 16.6299Z" fill="#979797"/>
</svg>
