<svg width="60" height="60" viewBox="0 0 60 60" fill="none" xmlns="http://www.w3.org/2000/svg">
<rect width="60" height="60" fill="white"/>
<path d="M41.7153 13.8841L46.635 9.46143L51.8875 14.2072L47.0175 19.4429L41.7153 13.8841Z" fill="#B3D4F1"/>
<path fill-rule="evenodd" clip-rule="evenodd" d="M23.07 29.0921L19.9972 25.9859C19.9972 25.9859 13.509 26.1467 11.4349 24.0732C9.39649 22.0342 8.51429 19.1257 9.07439 16.2937C9.1405 15.9622 9.54896 15.8392 9.78765 16.0765L13.4795 19.7679L17.0499 20.507L20.065 17.4925L19.3253 13.9221L15.6339 10.2307C15.3961 9.99255 15.5195 9.58282 15.8511 9.51713C18.5911 8.97546 21.5156 9.763 23.6297 11.878C26.1049 14.3521 25.8911 18.5163 25.5522 20.1747L28.6846 23.4256L49.7436 44.1669C51.4033 45.8015 51.424 48.472 49.7898 50.1322C48.1369 51.8115 45.429 51.8113 43.7762 50.1319L23.07 29.0921Z" fill="#B3D4F1"/>
<path d="M11.1816 45.1229L41.1059 14.2759L47.3273 19.8009L16.8635 50.6395L11.1816 45.1229Z" fill="white"/>
<path d="M41.7153 13.8841L46.635 9.46143L51.8875 14.2072L47.0175 19.4429L41.7153 13.8841Z" fill="#B3D4F1"/>
<path fill-rule="evenodd" clip-rule="evenodd" d="M30.4751 23.7859L29.4048 22.7319L26.6273 19.8493C27.1024 16.8532 26.5171 13.3501 24.337 11.1712C22.0361 8.86921 18.7952 7.91585 15.6568 8.53628C14.5413 8.7573 14.1238 10.1338 14.9269 10.9379L18.4068 14.4178L18.9764 17.167L16.7244 19.4185L13.9751 18.8494L10.4928 15.3674C9.68861 14.568 8.31593 14.9842 8.09348 16.0997C7.46866 19.259 8.4536 22.5054 10.728 24.7806C11.6678 25.7201 13.2162 26.2946 15.2337 26.6378C16.1828 26.7993 17.19 26.8993 18.2086 26.9506C18.726 26.9766 19.1914 26.9878 19.5829 26.9889L22.3583 29.7946L23.4337 30.8873L9.302 45.1394L9.302 52.295L16.5972 52.295L31.9558 36.6955L30.5538 38.1221L43.0877 50.858C43.1164 50.887 43.1167 50.8873 43.1452 50.9154L43.1454 50.9157L43.146 50.9162C45.1868 52.9251 48.4696 52.8991 50.4785 50.8583C52.5133 48.7911 52.4875 45.4658 50.4209 43.4304L37.6798 30.8818L47.1113 21.3024L47.1457 21.3368L48.5599 19.9226L48.5145 19.8772L51.0536 17.2983C52.5949 15.7327 52.5851 13.217 51.0316 11.6635L49.5857 10.2176L49.5737 10.2056C48.005 8.65014 45.4723 8.66088 43.9169 10.2296L30.4751 23.7859ZM36.2767 32.3068L49.0175 44.8553C50.2973 46.1158 50.3133 48.1751 49.0531 49.4553C47.8192 50.7089 45.8026 50.7249 44.549 49.4909L44.532 49.474L44.5132 49.4551L31.9558 36.6955L36.2767 32.3068ZM29.0671 25.2059L24.842 29.467L23.7828 28.3908L20.4044 24.9755L19.9725 24.9862L19.8997 24.9875C19.4893 24.9929 18.942 24.985 18.3091 24.9531C17.3638 24.9056 16.4327 24.813 15.5691 24.6661C13.9281 24.387 12.7117 23.9356 12.1422 23.3663C10.6109 21.8345 9.81767 19.7486 9.91744 17.6204L12.984 20.6866L17.3755 21.5957L21.1538 17.8182L20.2439 13.4265L20.0325 13.215L17.1772 10.3598C19.2936 10.2586 21.3742 11.0361 22.9228 12.5854C24.6546 14.3163 25.0859 17.4621 24.5726 19.9746L24.4673 20.4899L24.8322 20.8686L27.983 24.1382L29.0671 25.2059ZM47.1002 18.4629L49.6284 15.8951C50.3991 15.1123 50.3942 13.8545 49.6174 13.0777L48.1715 11.6318L48.1655 11.6258C47.3811 10.8481 46.1148 10.8534 45.3371 11.6378L42.8168 14.1795L44.41 15.7727L45.8242 17.1869L47.1002 18.4629ZM45.697 19.8881L44.41 18.6012L15.3248 47.6864L16.838 49.1996L45.697 19.8881ZM15.105 50.295L11.302 46.492L11.302 50.295H15.105ZM12.4468 44.8083L41.4086 15.5997L42.9958 17.1869L13.9106 46.2722L12.4468 44.8083ZM46.788 49.0168C45.8014 49.0168 45.0016 48.217 45.0016 47.2304C45.0016 46.2438 45.8014 45.4441 46.788 45.4441C47.7746 45.4441 48.5743 46.2438 48.5743 47.2304C48.5743 48.217 47.7746 49.0168 46.788 49.0168ZM46.788 47.7168C47.0566 47.7168 47.2743 47.499 47.2743 47.2304C47.2743 46.9618 47.0566 46.7441 46.788 46.7441C46.5194 46.7441 46.3016 46.9618 46.3016 47.2304C46.3016 47.499 46.5194 47.7168 46.788 47.7168Z" fill="#006FCF"/>
</svg>
