<svg width="60" height="60" viewBox="0 0 60 60" fill="none" xmlns="http://www.w3.org/2000/svg">
<rect width="60" height="60" fill="white"/>
<path fill-rule="evenodd" clip-rule="evenodd" d="M27.7742 8.85419C29.7805 8.62176 31.7914 8.68675 33.6388 8.98501L34.2651 14.7578C35.8297 15.171 37.3388 15.8266 38.7376 16.7272L43.4141 13.2943C44.9824 14.5383 46.2874 15.8996 47.4693 17.5356L43.8322 22.0577C44.6674 23.494 45.2542 25.0284 45.5962 26.608L51.3348 27.488C51.561 29.4402 51.5171 31.4156 51.2038 33.3557L45.4306 33.9819C45.0181 35.5431 44.3641 37.0486 43.4666 38.4448L46.9003 43.1224C45.628 44.7282 44.256 46.026 42.6588 47.1807L38.1376 43.5444C36.703 44.3791 35.1701 44.9662 33.5925 45.3092L32.7124 51.0488C30.7605 51.2761 28.7847 51.2331 26.8446 50.9206L26.2185 45.1491C24.6557 44.7374 23.1485 44.0839 21.7504 43.186L17.0722 46.6201C15.4899 45.3675 14.1875 44.0038 13.0141 42.3819L16.6496 37.8615C15.8113 36.4242 15.2231 34.8876 14.8793 33.3064L9.13965 32.4263C8.90746 30.4329 8.96821 28.4217 9.2677 26.5617L15.0392 25.9356C15.4517 24.3691 16.107 22.8587 17.0078 21.458L13.5743 16.7808C14.8319 15.1936 16.2855 13.8295 17.8125 12.7255L22.3342 16.3616C23.7733 15.5237 25.3112 14.9353 26.8944 14.5924L27.7742 8.85419ZM30.265 22.3233C25.7542 22.3233 22.0974 25.9801 22.0974 30.491C22.0974 35.0018 25.7542 38.6586 30.265 38.6586C34.7759 38.6586 38.4327 35.0018 38.4327 30.491C38.4327 25.9801 34.7759 22.3233 30.265 22.3233Z" fill="#339C63"/>
<path d="M33.516 8.08912L34.2686 8.21062L34.9046 14.0731C36.126 14.4503 37.2996 14.966 38.4057 15.6145L43.1554 12.1279L43.7533 12.6022C45.3987 13.9073 46.766 15.3364 47.9977 17.0413L48.4442 17.6594L44.7502 22.2523C45.3473 23.3853 45.8091 24.5787 46.1305 25.8129L51.9581 26.7065L52.0459 27.4642C52.2828 29.5081 52.2367 31.5758 51.9088 33.6064L51.7872 34.359L45.9244 34.9949C45.5482 36.2123 45.0342 37.3826 44.3882 38.4861L47.8755 43.2369L47.4019 43.8347C46.0907 45.4897 44.658 46.8567 42.9625 48.0824L42.3443 48.5293L37.7522 44.836C36.621 45.4327 35.4292 45.8945 34.1968 46.2164L33.303 52.0453L32.5458 52.1335C30.5021 52.3714 28.4338 52.3262 26.4034 51.9992L25.6505 51.8779L25.0147 46.0169C23.7955 45.6412 22.6236 45.1273 21.5185 44.4809L16.7671 47.9688L16.1693 47.4955C14.5202 46.19 13.1528 44.7611 11.9217 43.0594L11.4743 42.4412L15.1666 37.8502C14.5676 36.7167 14.1041 35.5214 13.7811 34.2843L7.95234 33.3905L7.86415 32.6333C7.62643 30.5925 7.67683 28.4899 7.9982 26.494L8.11943 25.7411L13.9804 25.1053C14.3571 23.8825 14.8728 22.7073 15.5217 21.5992L12.0346 16.849L12.5083 16.2512C13.7912 14.632 15.3001 13.1952 16.9443 12.0064L17.5625 11.5595L22.155 15.2525C23.2908 14.653 24.4877 14.1896 25.7257 13.8672L26.6192 8.03996L27.3769 7.95217C29.4221 7.71522 31.5237 7.76747 33.516 8.08912ZM28.3626 9.86598L27.4963 15.5154L26.8238 15.6611C25.3246 15.9858 23.8875 16.5414 22.5552 17.3171L21.9611 17.663L17.5096 14.0834C16.444 14.9166 15.4491 15.866 14.5584 16.9073L17.9385 21.5118L17.5667 22.0901C16.7331 23.3865 16.1148 24.7975 15.7241 26.2815L15.5489 26.9469L9.86656 27.5633C9.70307 28.9032 9.67132 30.2855 9.77743 31.647L15.4282 32.5135L15.5743 33.1853C15.9002 34.6843 16.456 36.1199 17.2312 37.449L17.5778 38.0434L13.9979 42.4947C14.847 43.5859 15.7694 44.5496 16.8239 45.4461L21.4304 42.0645L22.0086 42.4359C23.3023 43.2668 24.7104 43.8834 26.191 44.2734L26.8563 44.4486L27.4727 50.1313C28.828 50.298 30.1977 50.3279 31.5595 50.2205L32.426 44.5693L33.0978 44.4233C34.5917 44.0985 36.0242 43.5443 37.3524 42.7714L37.9465 42.4257L42.3983 46.0062C43.4871 45.1596 44.4526 44.2371 45.3525 43.1796L41.9715 38.5737L42.3432 37.9954C43.1739 36.7031 43.7908 35.2967 44.1816 33.8177L44.3572 33.1531L50.0413 32.5366C50.2086 31.1813 50.2392 29.8118 50.1325 28.4499L44.4823 27.5835L44.3367 26.911C44.0128 25.4155 43.4589 23.9817 42.6855 22.6517L42.3401 22.0577L45.9214 17.605C45.0721 16.5121 44.15 15.548 43.0974 14.6514L38.4925 18.0318L37.914 17.6594C36.6201 16.8262 35.2104 16.2076 33.7276 15.816L33.0629 15.6405L32.4463 9.95707C31.1081 9.79319 29.7262 9.76047 28.3626 9.86598ZM30.2648 21.3235C35.3279 21.3235 39.4324 25.4279 39.4324 30.4911C39.4324 35.5542 35.3279 39.6587 30.2648 39.6587C25.2017 39.6587 21.0972 35.5542 21.0972 30.4911C21.0972 25.4279 25.2017 21.3235 30.2648 21.3235ZM30.2648 23.3235C26.3062 23.3235 23.0972 26.5325 23.0972 30.4911C23.0972 34.4496 26.3062 37.6587 30.2648 37.6587C34.2234 37.6587 37.4324 34.4496 37.4324 30.4911C37.4324 26.5325 34.2234 23.3235 30.2648 23.3235Z" fill="white"/>
</svg>
