<svg width="60" height="60" viewBox="0 0 60 60" fill="none" xmlns="http://www.w3.org/2000/svg">
<g id="npi-profile-one_plus">
<rect width="60" height="60" fill="white"/>
<g id="Group">
<path id="Vector" fill-rule="evenodd" clip-rule="evenodd" d="M35.9988 36.366C35.9988 36.366 35.2638 35.179 35.1123 34.6784V32.4107C36.5668 30.8766 37.7141 28.737 38.3932 26.232C40.0245 25.051 40.4301 22.6166 39.0798 20.9042V15.8277C39.0798 10.5873 36.2494 7 29.7786 7C23.4746 7 20.4739 10.5873 20.4739 15.8277V20.9058C19.1266 22.6157 19.5313 25.0485 21.1606 26.2309C21.8394 28.7368 22.9876 30.8764 24.443 32.4104V34.6781C23.7907 36.8371 16.0048 40.307 8.99303 43.1023C8.39546 43.3414 8 43.9407 8 44.6108V46.9998H35.9988V36.366Z" fill="url(#paint0_linear)" fill-opacity="0.3"/>
<path id="Vector_2" d="M45 52C49.9706 52 54 47.9706 54 43C54 38.0294 49.9706 34 45 34C40.0294 34 36 38.0294 36 43C36 47.9706 40.0294 52 45 52Z" fill="#E4F2D2"/>
<path id="Vector_3" d="M45 33C50.5228 33 55 37.4772 55 43C55 48.5228 50.5228 53 45 53C39.4772 53 35 48.5228 35 43C35 37.4772 39.4772 33 45 33ZM45 35C40.5817 35 37 38.5817 37 43C37 47.4183 40.5817 51 45 51C49.4183 51 53 47.4183 53 43C53 38.5817 49.4183 35 45 35ZM44.074 38.468V47H42.13V41.15L40.252 41.864V39.95L44.074 38.468ZM29.7786 6C36.3579 6 39.9586 9.57261 40.0768 15.5231L40.0798 15.8277V20.5795C41.4282 22.5835 41.0531 25.2901 39.2683 26.8148C38.629 29.0215 37.6342 30.9711 36.3689 32.4991L36.1123 32.7991V34.4873L36.159 34.5642C36.3027 34.7802 36.5992 35.0822 37.0439 35.4333L37.2176 35.5672L36.0144 37.1648C35.0876 36.4668 34.4788 35.8174 34.2141 35.1384L34.1552 34.968L34.1123 34.8264V32.012L34.3866 31.7226C35.6519 30.3882 36.6686 28.5396 37.3118 26.3791L37.428 25.9704L37.5205 25.6293L37.8067 25.422C38.9669 24.5821 39.2449 22.8916 38.4012 21.6679L38.2946 21.5233L38.0798 21.251V15.8277C38.0798 10.7891 35.3544 8 29.7786 8C24.4077 8 21.5797 10.7528 21.4768 15.5538L21.4739 15.8277V21.2524L21.2594 21.5246C20.3278 22.707 20.5251 24.4099 21.6131 25.3167L21.7479 25.4216L22.0335 25.6288L22.1258 25.9694C22.7214 28.1681 23.6992 30.0676 24.934 31.4659L25.1685 31.7222L25.443 32.0116V34.8259L25.4003 34.9674C25.1496 35.797 24.2925 36.6873 22.8483 37.6671L22.4197 37.9495C22.3456 37.997 22.2702 38.0446 22.1934 38.0925L21.7171 38.3825C21.635 38.4313 21.5517 38.4803 21.467 38.5295L20.9431 38.8274C20.8532 38.8774 20.7619 38.9278 20.6694 38.9783L20.0982 39.2845L19.4956 39.5963L18.5331 40.0751L17.8524 40.4018L17.1407 40.7347L16.0151 41.246L15.2262 41.5951L13.9852 42.1314L12.6755 42.6834L12.2323 42.8673L10.8324 43.4406L9.36455 44.0307C9.17754 44.1056 9.03869 44.2902 9.0069 44.5131L9 44.6108V46.9998H7V44.6108C7 43.5373 7.63918 42.567 8.62272 42.1734L9.94164 41.6425L11.2112 41.1212L12.4294 40.6102L13.5946 40.1104L14.7048 39.6225L15.7582 39.1474L16.428 38.8382L17.0712 38.5352L17.9849 38.0931L18.8356 37.6663L19.3668 37.3908L19.8688 37.1228L20.3408 36.8624L20.7824 36.61L21.1929 36.3658C21.2587 36.3258 21.3233 36.2861 21.3864 36.2468L21.7495 36.0153L22.0802 35.7925C22.1326 35.7561 22.1836 35.7201 22.2332 35.6845L22.5144 35.4753C22.955 35.1344 23.2551 34.8325 23.4032 34.5746L23.443 34.4986V32.799C22.0539 31.2292 20.9669 29.1674 20.2852 26.8131C18.5606 25.3368 18.1539 22.7564 19.349 20.7772L19.4739 20.5813V15.8277C19.4739 9.75709 23.1978 6 29.7786 6ZM48.612 40V42.058H50.652V43.6H48.612V45.658H47.04V43.6H45V42.058H47.04V40H48.612Z" fill="#009639"/>
</g>
</g>
<defs>
<linearGradient id="paint0_linear" x1="23.9459" y1="7" x2="23.9459" y2="58.6413" gradientUnits="userSpaceOnUse">
<stop stop-color="#78BE20" stop-opacity="0.954"/>
<stop offset="0.72104" stop-color="white" stop-opacity="0.4"/>
<stop offset="0.85275" stop-color="white" stop-opacity="0"/>
<stop offset="1" stop-color="white" stop-opacity="0"/>
</linearGradient>
</defs>
</svg>
