<svg width="60" height="60" viewBox="0 0 60 60" fill="none" xmlns="http://www.w3.org/2000/svg">
<rect width="60" height="60" fill="white"/>
<rect x="14" y="29" width="13" height="13" fill="#B3D4F1"/>
<path fill-rule="evenodd" clip-rule="evenodd" d="M35 35.4274L38.3288 34L43.2841 37.5273L39.8177 40.5273L35 35.4274Z" fill="#B3D4F1"/>
<rect x="19" y="9" width="3" height="7" fill="#B3D4F1"/>
<path fill-rule="evenodd" clip-rule="evenodd" d="M21.4714 7.5415H19.4149C18.3104 7.5415 17.4149 8.43693 17.4149 9.5415V18.169C17.4149 19.5736 16.8172 20.9072 15.7789 21.8409L15.5791 22.0112C13.9479 23.3285 12.9998 25.3127 12.9998 27.4094V50.5977C12.9998 51.7022 13.8952 52.5977 14.9998 52.5977H26.2423C26.2896 52.5977 26.3364 52.596 26.3828 52.5928C26.4154 52.596 26.4485 52.5977 26.4819 52.5977H31.9404L32.057 52.5909C32.5543 52.5332 32.9404 52.1105 32.9404 51.5977C32.9404 51.0454 32.4927 50.5977 31.9404 50.5977H28.2423V27.5499C28.2423 25.4515 27.2937 23.471 25.671 22.1559L25.4555 21.9882C24.2068 21.055 23.4714 19.5874 23.4714 18.0285V9.5415C23.4714 8.43693 22.576 7.5415 21.4714 7.5415ZM19.4149 9.5415H21.4714V15H19.4149V9.5415ZM19.4149 17V18.169C19.4149 20.2657 18.4668 22.2499 16.8356 23.5672L16.6358 23.7375C15.5976 24.6712 14.9998 26.0049 14.9998 27.4094V28H26.2423V27.5499C26.2423 25.991 25.507 24.5234 24.2582 23.5902L24.0428 23.4225C22.42 22.1075 21.4714 20.1269 21.4714 18.0285V17H19.4149ZM14.9998 41V30H26.2423V41H14.9998ZM14.9998 43V50.5977H26.2423V43H14.9998ZM22.2038 37C22.7561 37 23.2038 37.4477 23.2038 38C23.2038 38.5129 22.8177 38.9355 22.3204 38.9933L22.2038 39H19.037C18.4847 39 18.037 38.5523 18.037 38C18.037 37.4872 18.423 37.0645 18.9204 37.0067L19.037 37H22.2038ZM35.5257 50.5977H38.9991V41.4486L35.7176 38.5265C33.9321 36.9366 33.0816 34.5454 33.4619 32.1851L34.5192 25.6242C34.6363 24.8973 35.2637 24.3628 36.0001 24.3628H44.0099C44.7468 24.3628 45.3745 24.898 45.491 25.6256L46.5409 32.1818C46.7385 33.4162 46.5997 34.6588 46.1665 35.7907L46.1911 35.8031C46.1549 35.8749 46.1166 35.9455 46.0762 36.0148C45.6788 36.9548 45.0749 37.8107 44.2897 38.5114L40.9991 41.4479V50.5977H44.6546C45.2069 50.5977 45.6546 51.0454 45.6546 51.5977C45.6546 52.1105 45.2685 52.5332 44.7712 52.5909L44.6546 52.5977H35.5257C34.9734 52.5977 34.5257 52.15 34.5257 51.5977C34.5257 51.0848 34.9118 50.6622 35.4091 50.6044L35.5257 50.5977ZM41.8683 37.9913L39.9978 39.66L37.0477 37.0329L36.87 36.8668C36.7049 36.7047 36.5524 36.5325 36.413 36.3517C36.7744 35.8122 37.4358 35.5127 38.1133 35.6446C38.4688 35.7139 38.792 35.8973 39.0338 36.167L39.5016 36.6888L39.6557 36.8517C40.2766 37.4734 41.0546 37.8554 41.8683 37.9913ZM44.2859 35.1086C44.1874 35.2582 44.0699 35.3948 43.936 35.5148C43.0783 36.2837 41.7597 36.2116 40.9908 35.3539L40.523 34.832L40.358 34.6596C39.8474 34.1597 39.2003 33.8188 38.4956 33.6815C37.3941 33.467 36.3119 33.7703 35.5005 34.4218C35.3574 33.8015 35.3321 33.1508 35.4364 32.5033L36.4248 26.362H43.5828L44.566 32.498L44.5986 32.7385C44.6888 33.5524 44.5766 34.3647 44.2859 35.1086ZM10.9404 50.5977C11.4927 50.5977 11.9404 51.0454 11.9404 51.5977C11.9404 52.1105 11.5543 52.5332 11.057 52.5909L10.9404 52.5977H8.48193C7.92965 52.5977 7.48193 52.15 7.48193 51.5977C7.48193 51.0848 7.86797 50.6622 8.36531 50.6044L8.48193 50.5977H10.9404ZM51.3549 51.5977C51.3549 51.0454 50.9072 50.5977 50.3549 50.5977H48.5649L48.4483 50.6044C47.951 50.6622 47.5649 51.0848 47.5649 51.5977C47.5649 52.15 48.0127 52.5977 48.5649 52.5977H50.3549L50.4715 52.5909C50.9689 52.5332 51.3549 52.1105 51.3549 51.5977ZM24.8311 34C24.8311 33.4477 24.3834 33 23.8311 33H17.2249L17.1082 33.0067C16.6109 33.0645 16.2249 33.4872 16.2249 34C16.2249 34.5523 16.6726 35 17.2249 35H23.8311L23.9477 34.9933C24.4451 34.9355 24.8311 34.5129 24.8311 34Z" fill="#006FCF"/>
</svg>
