<svg width="60" height="60" viewBox="0 0 60 60" fill="none" xmlns="http://www.w3.org/2000/svg">
<g id="npi-screen-share">
<rect width="60" height="60" fill="white"/>
<g id="Screen Sharing">
<path id="Path 221" fill-rule="evenodd" clip-rule="evenodd" d="M8.64233 27.2002L18.7015 27.2002L18.6838 32.0002H11.6423C9.98548 32.0002 8.64233 30.6571 8.64233 29.0002V27.2002Z" fill="#E4F2D2"/>
<path id="Path 221_2" fill-rule="evenodd" clip-rule="evenodd" d="M19.6423 41.3999L52.6423 41.3999C52.6423 44.0509 50.4933 46.1999 47.8423 46.1999H22.6423C20.9855 46.1999 19.6423 44.8568 19.6423 43.1999V41.3999Z" fill="#E4F2D2"/>
<path id="Path 223" fill-rule="evenodd" clip-rule="evenodd" d="M40.5474 36.4552L40.4744 28.0269L47.2681 33.0308L44.5129 33.6651L46.3749 36.5643L43.931 37.8095L42.68 34.599L40.5474 36.4552Z" fill="#E4F2D2"/>
<path id="Combined Shape" fill-rule="evenodd" clip-rule="evenodd" d="M42 10.3026V21H49.6668C51.5196 21 53 22.4635 53 24.3026V43.6877C53 45.5278 51.5191 47 49.6668 47H40.3122L41.1453 51H42.7697C43.322 51 43.7697 51.4477 43.7697 52C43.7697 52.5523 43.322 53 42.7697 53H29.2788C28.7265 53 28.2788 52.5523 28.2788 52C28.2788 51.4477 28.7265 51 29.2788 51H31.0165L31.8497 47H21.3288C19.4776 47 18 45.5277 18 43.6877V33H10.3288C8.4776 33 7 31.5277 7 29.6877V10.3027C7 8.46368 8.47718 7 10.3288 7H38.6668C40.5196 7 42 8.46351 42 10.3026ZM40 10.3026V21H36H21.3288H13V23H18.2643C18.094 23.3987 18 23.8388 18 24.3027V26H9V10.3027C9 9.57238 9.57766 9 10.3288 9H38.6668C39.4202 9 40 9.57324 40 10.3026ZM21.3288 23H36H49.6668C50.4202 23 51 23.5732 51 24.3026V40H20V24.3027C20 23.5724 20.5777 23 21.3288 23ZM9 28H18V31H10.3288C9.58057 31 9 30.4215 9 29.6877V28ZM33.0594 51H39.1024L38.2692 47H33.8926L33.0594 51ZM20 43.6877V42H51V43.6877C51 44.4206 50.4172 45 49.6668 45H21.3288C20.5806 45 20 44.4215 20 43.6877ZM14.3425 41.1415L15.7568 39.7273L12.0284 35.9989L8.3 39.7273L9.71421 41.1415L11 39.8557V42C11 43.6569 12.3431 45 14 45H17.0359V43H14C13.4477 43 13 42.5523 13 42V39.7989L14.3425 41.1415ZM45.2791 16.2727L46.6933 14.8585L48.0359 16.2011V14C48.0359 13.4477 47.5882 13 47.0359 13H44V11H47.0359C48.6927 11 50.0359 12.3431 50.0359 14V16.1443L51.3217 14.8585L52.7359 16.2727L49.0075 20.0011L45.2791 16.2727ZM36 17H13V15H36V17ZM24 30H36V28H24V30ZM36 36H24V34H36V36ZM39.8751 38.0436L39.775 26.487L49.0913 33.349L45.7837 34.1104L47.5174 36.8099L43.5967 38.8076L42.4318 35.8182L39.8751 38.0436ZM43.0553 33.2869L44.3926 36.7186L45.3596 36.2259L43.3693 33.1269L45.5721 32.6199L41.3009 29.4739L41.3469 34.774L43.0553 33.2869Z" fill="#009639"/>
</g>
</g>
</svg>
