<svg width="60" height="60" viewBox="0 0 60 60" fill="none" xmlns="http://www.w3.org/2000/svg">
<g id="npi-building-blocks">
<rect width="60" height="60" fill="white"/>
<g id="Group">
<path id="Vector" d="M35.5 12.889V9H43.5V13.24" fill="#E4F2D2"/>
<path id="Vector_2" d="M32.4851 16.889V13H46.4851V17.24" fill="#E4F2D2"/>
<path id="Vector_3" fill-rule="evenodd" clip-rule="evenodd" d="M20.7999 30.9482L25.7999 33.0002L20.7999 35.0672L16.0039 33.0002L20.7999 30.9482Z" fill="#E4F2D2"/>
<path id="Vector_4" fill-rule="evenodd" clip-rule="evenodd" d="M15.3609 40.4111L20.3609 42.4631L15.3609 44.5301L10.5649 42.4631L15.3609 40.4111Z" fill="#E4F2D2"/>
<path id="Vector_5" fill-rule="evenodd" clip-rule="evenodd" d="M26.3609 40.4111L31.3609 42.4631L26.3609 44.5301L21.5649 42.4631L26.3609 40.4111Z" fill="#E4F2D2"/>
<path id="Vector_6" d="M44.5 8L44.4997 12H47.4847L47.4837 16H50.9502V52.5H48.9502V18H30.5V39L28.5 38.1197L28.4997 21.999L16.4847 22V29.4645L14.4847 30.2707V20L28.4997 19.999L28.5 16H31.4837L31.4847 12H34.4997L34.5 8H44.5ZM20.6655 30L26.8 32.4899V38.765L26.8044 38.7632L26.804 39.461L31.8 41.4899V47.765L31.8044 47.7632V48.9831L31.8364 49.8897L31.5151 50.0323L25.647 52.387L25.6247 52.4433L25.566 52.419L25.5054 52.445L24.7705 52.1053L24.77 52.093L20.621 50.391L15.647 52.387L15.6247 52.4433L15.566 52.419L15.5054 52.445L14.7705 52.1053L14.77 52.093L10.819 50.472L9.5 49.9408V41.4899L14.5 39.471V32.4899L20.6655 30ZM11.5 44.069V48.59L14.77 49.931V45.411L11.5 44.069ZM21.8 44.192V47.765L21.8044 47.7632L21.804 48.715L24.77 49.931V45.411L21.8 44.192ZM29.8 44.231L26.7704 45.4037V49.6761L29.8 48.541V44.231ZM19.8 44.23L16.7704 45.4037V49.6761L19.8 48.54V44.23ZM46.5217 44.0517V46.0517H44.5217V44.0517H46.5217ZM41 44.0222V46.0222H39V44.0222H41ZM35 44V46H33V44H35ZM25.925 41.269L22.9 42.482L25.807 43.675L28.851 42.47L25.925 41.269ZM15.352 41.284L12.644 42.377L15.806 43.674L18.544 42.59L15.753 41.445L15.352 41.284ZM16.5 35.069V39.338L19.77 40.665V36.411L16.5 35.069ZM24.8 35.231L21.7704 36.4037L21.77 40.573L24.8 39.35V35.231ZM46.5217 38.0517V40.0517H44.5217V38.0517H46.5217ZM41 38.0222V40.0222H39V38.0222H41ZM35 38V40H33V38H35ZM20.658 32.16L17.644 33.377L20.807 34.675L23.851 33.47L20.658 32.16ZM46.5217 32.0369V34.0369H44.5217V32.0369H46.5217ZM41 32.0222V34.0222H39V32.0222H41ZM35 32V34H33V32H35ZM46.5217 26.0222V28.0222H44.5217V26.0222H46.5217ZM41 26.0222V28.0222H39V26.0222H41ZM35 26V28H33V26H35ZM26 24.0074V26.0074H24V24.0074H26ZM21 24.0074V26.0074H19V24.0074H21ZM46.5217 20.0074V22.0074H44.5217V20.0074H46.5217ZM41 20.0074V22.0074H39V20.0074H41ZM35 20V22H33V20H35ZM45.4847 14H33.4847L33.4837 16H45.4837L45.4847 14ZM42.5 10H36.5L36.4997 12H42.4997L42.5 10Z" fill="#009639"/>
</g>
</g>
</svg>
