<svg width="60" height="60" viewBox="0 0 60 60" fill="none" xmlns="http://www.w3.org/2000/svg">
<rect width="60" height="60" fill="white"/>
<path fill-rule="evenodd" clip-rule="evenodd" d="M15.8477 49L16.4844 52.5L35.4002 49H15.8477Z" fill="#339C63"/>
<path d="M8.74805 13.917L15.7095 53.3971L15.2746 12.7662L8.74805 13.917Z" fill="#339C63"/>
<circle cx="45.4004" cy="23.8999" r="10" fill="#339C63"/>
<path fill-rule="evenodd" clip-rule="evenodd" d="M45.0004 33.955C41.0416 33.7425 37.5882 31.2381 36.1339 27.6413L35.215 30.0077L33.3506 29.2837L35.519 23.6999L40.9396 25.805L40.2156 27.6693L37.9473 26.7884C39.1397 29.8592 42.1483 31.9696 45.5473 31.9696C49.1722 31.9696 52.3245 29.5661 53.3253 26.1343L55.2453 26.6942C54.1333 30.5072 50.8918 33.3018 47.0004 33.8652V49.0892H45.9014L14.8986 54.5558L7.58984 13.1061L15.0004 11.7994V7H47.0004V13.8696C50.1474 14.3463 52.9034 16.279 54.4191 19.0844C54.5793 19.381 54.7244 19.6853 54.8526 19.9925L55.7397 17.7085L57.604 18.4325L55.4354 24.0162L50.0149 21.9112L50.7389 20.0469L53.0847 20.9578C52.9628 20.6418 52.8208 20.3336 52.6595 20.035C51.2496 17.4255 48.5005 15.755 45.4765 15.755C41.8515 15.755 38.6993 18.1585 37.6984 21.5903L35.7784 21.0303C36.9824 16.9023 40.6822 13.9679 45.0004 13.7661V9H17.0004V47.0892H45.0004V33.955ZM15.0004 13.8302L9.90676 14.7284L15.0004 43.616V13.8302ZM15.9655 49.0892L16.5209 52.2389L34.3839 49.0892H15.9655ZM35.0004 16V18H29.0004V16H35.0004ZM34.0004 22V20H29.0004V22H34.0004ZM33.3199 31.0002V33.0002H20.0004V31.0002H33.3199ZM41.3116 37.0002V35.0002H20.0004V37.0002H41.3116ZM38.6477 41.0002V39.0002H20.0004V41.0002H38.6477ZM23.0906 20.4695H22.5999V18.0027H23.0906C23.6034 18.0027 23.9969 18.1088 24.271 18.321C24.5451 18.5332 24.6821 18.8382 24.6821 19.2361C24.6821 19.634 24.5451 19.939 24.271 20.1512C23.9969 20.3634 23.6034 20.4695 23.0906 20.4695ZM25.08 26H28.3161L25.1728 21.9019C25.889 21.7339 26.4306 21.4134 26.7975 20.9403C27.1644 20.4673 27.3479 19.8506 27.3479 19.0902C27.3479 18.6658 27.2794 18.2679 27.1423 17.8966C27.0053 17.5252 26.8019 17.1981 26.5323 16.9151C26.2626 16.6322 25.92 16.4089 25.5044 16.2454C25.0888 16.0818 24.6026 16 24.0455 16H20.0004V26H22.5999V22.1538L25.08 26ZM32.0004 24V26H29.0004V24H32.0004Z" fill="white"/>
</svg>
