<svg width="60" height="60" viewBox="0 0 60 60" fill="none" xmlns="http://www.w3.org/2000/svg">
<g id="npi-globe-plane">
<rect width="60" height="60" fill="white"/>
<g id="Group">
<path id="Shape" fill-rule="evenodd" clip-rule="evenodd" d="M32.1335 18.8765L32.4751 25.2596L30.931 26.172L26.584 22.0848L32.1335 18.8765Z" fill="#E4F2D2"/>
<path id="Shape_2" fill-rule="evenodd" clip-rule="evenodd" d="M22.7577 18.1775L15.8313 22.1764C13.4715 23.5387 11.9142 22.6766 4.40563 21.0534L3 21.8648L9.09465 26.0656L7.86485 26.7757C7.56311 26.95 7.72133 27.4138 8.06679 27.3682C17.1178 26.1724 21.4085 24.4766 21.4085 24.4766L41.3242 12.9782C41.3242 12.9782 48.1928 9.01282 45.462 8.01513C42.426 6.90603 36.1549 10.4424 36.1549 10.4424L28.4846 14.8709L16.3746 10.4424L15.6053 10.8865L23.0431 18.1989L24.1262 19.2736" fill="#E4F2D2"/>
<path id="Combined Shape" fill-rule="evenodd" clip-rule="evenodd" d="M21.2852 17.8731L15.3313 21.3105C15.0921 21.4486 14.8721 21.5547 14.6598 21.6348C13.9527 21.9016 13.2133 21.9241 11.897 21.6965L11.6259 21.6477C11.1269 21.5544 9.29065 21.1354 7.56935 20.7427L7.56924 20.7426L7.56904 20.7426C6.36098 20.4669 5.20959 20.2042 4.61694 20.0761L4.23983 19.9946L1.12939 21.7901L7.23172 25.9962C6.16489 26.7732 6.82192 28.5415 8.1978 28.3597C10.16 28.1005 11.994 27.8058 13.7012 27.4821C16.0662 27.0337 18.0772 26.5522 19.7409 26.0693C20.3277 25.8989 20.8301 25.7401 21.2491 25.5967L21.7761 25.4068L21.9085 25.3428L26.2819 22.8175L30.7619 27.4337L33.4826 25.8261L33.391 18.7124L41.9878 13.7483L42.6037 13.3702C43.1825 13.0059 43.7617 12.6172 44.3055 12.2182C44.8177 11.8424 45.2737 11.4754 45.6601 11.1206C46.3564 10.4812 46.8191 9.89766 47.0101 9.30038C47.3236 8.32021 46.8418 7.45474 45.8052 7.076C44.6236 6.64435 43.1251 6.73551 41.355 7.20839C40.447 7.45095 39.4924 7.78928 38.5152 8.19906C37.9807 8.4232 37.4624 8.659 36.9698 8.89781L36.4863 9.13732C36.1047 9.3303 35.8227 9.48188 35.6637 9.57153L28.3893 13.7714L16.2793 9.34294L13.9667 10.678L21.2852 17.8731ZM31.1003 24.9106L28.068 21.7861L31.4056 19.8589L31.4678 24.6935L31.1003 24.9106ZM23.4218 19.9836L24.8305 18.5639L23.7474 17.4892L18.4261 12.2576L28.58 15.9707L36.6549 11.3086L37.1109 11.0644L37.389 10.922C37.9812 10.6225 38.6228 10.3227 39.2887 10.0435C40.1879 9.66639 41.0594 9.3575 41.8712 9.14063C43.1944 8.78714 44.2715 8.70503 44.985 8.91099C44.8523 9.10214 44.6218 9.35867 44.3074 9.64743C43.9807 9.94746 43.5798 10.2701 43.1224 10.6057C42.6208 10.9737 42.0797 11.3368 41.5383 11.6776L40.8242 12.1124L20.9768 23.5714L20.7211 23.6632L20.6016 23.7045C20.2123 23.8377 19.7399 23.987 19.1834 24.1485L18.3531 24.3811C16.921 24.7685 15.2475 25.1533 13.3286 25.5171C12.491 25.6759 11.6216 25.8277 10.7201 25.9716L5.3902 22.2979L10.4118 23.4353L11.1645 23.5955L11.2583 23.6136C13.0741 23.9531 14.2061 23.9436 15.3657 23.506C15.6844 23.3858 16.0017 23.2328 16.3313 23.0426L22.7627 19.3295L23.4218 19.9836ZM7.21958 29.9343C7.21958 29.7108 7.22277 29.4876 7.22915 29.2648L9.22833 29.322C9.2236 29.4872 9.22079 29.6527 9.21989 29.8185H18.1512C18.1528 29.2117 18.1664 28.6079 18.1934 28.0078H20.1936C20.167 28.6074 20.1528 29.2114 20.1512 29.8185H29.21V28.0311H31.21V29.8185H40.3222C40.3151 27.109 40.0566 24.4806 39.5745 22.0425H35.003V20.0425H39.1178C38.8242 18.9151 38.4797 17.8397 38.0876 16.8288L39.9523 16.1055C40.4307 17.3389 40.8416 18.6576 41.1805 20.0425H48.7294C47.5979 17.9271 46.1017 16.0063 44.2913 14.3675L45.6334 12.8848C50.4183 17.2158 53.2005 23.3523 53.2005 29.9343C53.2005 42.536 43.0617 52.7697 30.4964 52.9231C30.4401 52.9245 30.3837 52.9252 30.3272 52.9252V52.9245L30.21 52.9248L30.1463 52.9247V52.9252C30.1051 52.9252 30.064 52.9248 30.0229 52.9241C17.4118 52.8235 7.21958 42.5692 7.21958 29.9343ZM40.2815 31.8185H31.21V39.5946H39.1754C39.7717 37.234 40.16 34.6077 40.2815 31.8185ZM29.21 31.8185H20.1919C20.3135 34.6078 20.7017 37.2341 21.298 39.5946H29.21V31.8185ZM18.1898 31.8185H9.303C9.55066 34.6025 10.3419 37.2302 11.5697 39.5946H19.2351C18.6651 37.1941 18.3036 34.5724 18.1898 31.8185ZM42.2836 31.8185H51.1171C50.8694 34.6025 50.0782 37.2302 48.8503 39.5946H41.2383C41.8084 37.1941 42.1698 34.5723 42.2836 31.8185ZM51.2002 29.8185H42.3223C42.3154 27.1237 42.0709 24.5002 41.6111 22.0425H49.6668C50.6525 24.4729 51.1855 27.1028 51.2002 29.8185ZM31.21 41.5946H38.6005C36.9317 46.7362 34.2172 50.2572 31.21 50.8398V41.5946ZM40.7 41.5946C39.6311 45.1271 38.0829 48.0603 36.2034 50.0567C40.9414 48.6476 44.9786 45.6108 47.6666 41.5946H40.7ZM24.2906 50.0785C19.5207 48.6792 15.4555 45.6317 12.7535 41.5946H19.7734C20.8462 45.14 22.4017 48.0817 24.2906 50.0785ZM29.21 50.8292C26.2241 50.2155 23.5318 46.7058 21.8729 41.5946H29.21V50.8292Z" fill="#009639"/>
</g>
</g>
</svg>
