<svg width="60" height="60" viewBox="0 0 60 60" fill="none" xmlns="http://www.w3.org/2000/svg">
<rect width="60" height="60" fill="white"/>
<path fill-rule="evenodd" clip-rule="evenodd" d="M33.489 33.6992L31.3098 34.633C29.7862 35.2859 28.5534 37.1592 28.5534 38.8184V47.3057H8.40039V45.0776C8.40039 44.4526 8.76634 43.8937 9.3193 43.6707C15.8077 41.0637 23.0125 37.8275 23.6161 35.8139V33.699C22.2693 32.2682 21.2068 30.2728 20.5787 27.9356C19.071 26.8329 18.6965 24.5639 19.9433 22.9692V18.2332C19.9433 13.3457 22.72 10 28.5534 10C34.5413 10 37.1604 13.3457 37.1604 18.2332V22.9677C38.4099 24.5648 38.0346 26.8352 36.525 27.9367C35.8966 30.273 34.835 32.2684 33.489 33.6992Z" fill="url(#paint0_linear)" fill-opacity="0.3"/>
<path fill-rule="evenodd" clip-rule="evenodd" d="M31.2715 42H51.5814V49.5558C51.5814 50.6603 50.686 51.5558 49.5814 51.5558H33.2715C32.1669 51.5558 31.2715 50.6603 31.2715 49.5558V42Z" fill="#339C63"/>
<path fill-rule="evenodd" clip-rule="evenodd" d="M38.1574 16.9375C38.0433 11.3592 34.6808 8 28.5534 8C22.4207 8 18.9433 11.5361 18.9433 17.2332V21.6481L18.8239 21.8388C17.7214 23.7022 18.1003 26.1189 19.7017 27.5138C20.3326 29.7014 21.3352 31.6192 22.6161 33.0846V34.6335L22.5774 34.7056C21.7984 36.0282 16.6249 38.6577 8.94648 41.7428C8.00805 42.1213 7.40039 43.051 7.40039 44.0776V47.3057H9.40039V44.0776L9.40772 43.9846C9.43658 43.8038 9.54799 43.6567 9.69334 43.5981C18.8404 39.9229 23.913 37.3058 24.574 35.1011L24.6161 34.9606V32.3023L24.3443 32.0135L24.1154 31.7609C22.9863 30.4664 22.0909 28.7096 21.5444 26.6761L21.453 26.3362L21.169 26.1285L21.038 26.0251C20.0677 25.2003 19.8934 23.6566 20.7311 22.5851L20.9433 22.3137V17.2332L20.9464 16.9595C21.0478 12.5289 23.6332 10 28.5534 10C33.6696 10 36.1604 12.569 36.1604 17.2332V22.3124L36.3728 22.5838L36.4766 22.7264C37.2285 23.8385 36.9758 25.3699 35.9356 26.1289L35.6509 26.3366L35.5593 26.677L35.4453 27.0799C34.8525 29.0757 33.9193 30.7823 32.7607 32.014L32.489 32.3027V34.0037H34.489V33.0847L34.7412 32.7857C35.9006 31.3629 36.8126 29.5567 37.4018 27.5155C39.0609 26.0732 39.4095 23.5346 38.1604 21.6464V17.2332L38.1574 16.9375ZM39.7547 31.2018H43.0878C44.8258 31.2018 46.2667 32.507 46.364 34.1778L46.3692 34.3582L46.3684 35.593L49.7095 35.5937C51.2957 35.5937 52.5815 36.8795 52.5815 38.4657V49.6838C52.5815 51.2699 51.2957 52.5558 49.7095 52.5558H33.1436C31.5574 52.5558 30.2716 51.2699 30.2716 49.6838V38.4657C30.2716 36.8795 31.5574 35.5937 33.1436 35.5937L36.4724 35.593L36.4732 34.3582C36.4732 32.6625 37.8541 31.2987 39.5696 31.2067L39.7547 31.2018ZM50.5814 42.903L32.2714 42.998L32.2716 49.6838C32.2716 50.1654 32.6619 50.5558 33.1436 50.5558H49.7095C50.1911 50.5558 50.5815 50.1654 50.5815 49.6838L50.5814 42.903ZM49.7095 37.5937H33.1436C32.6619 37.5937 32.2716 37.9841 32.2716 38.4657L32.2714 40.999L50.5814 40.904L50.5815 38.4657C50.5815 37.9841 50.1911 37.5937 49.7095 37.5937ZM39.7547 33.2018H43.0877L43.2208 33.2079C43.8757 33.2685 44.3692 33.7716 44.3692 34.3582L44.3684 35.593H38.4724L38.4732 34.3582L38.4797 34.2421C38.544 33.6682 39.0797 33.2018 39.7547 33.2018Z" fill="white"/>
<defs>
<linearGradient id="paint0_linear" x1="4.10596" y1="10" x2="4.10596" y2="58.163" gradientUnits="userSpaceOnUse">
<stop stop-color="#339C63" stop-opacity="0.96"/>
<stop offset="0.328125" stop-color="white" stop-opacity="0.4"/>
<stop offset="0.75" stop-color="white" stop-opacity="0.01"/>
<stop offset="1" stop-color="white" stop-opacity="0.01"/>
</linearGradient>
</defs>
</svg>
