<svg width="60" height="60" viewBox="0 0 60 60" fill="none" xmlns="http://www.w3.org/2000/svg">
<g id="npi-wallet">
<rect width="60" height="60" fill="white"/>
<g id="Account">
<g id="Group">
<path id="Rectangle" d="M8.6416 20.2666H51.2816V31.8707L47.0097 31.9936C45.1325 32.0476 43.6386 33.585 43.6386 35.4631C43.6386 37.0822 44.7581 38.4862 46.3365 38.8468L51.2816 39.9766V50.4699H12.6416C10.4325 50.4699 8.6416 48.6791 8.6416 46.4699V20.2666Z" fill="#E4F2D2"/>
<path id="Combined Shape" fill-rule="evenodd" clip-rule="evenodd" d="M7.7146 14.5579V12.6137C7.7146 9.91395 9.90321 7.72534 12.603 7.72534H51.4869C52.0391 7.72534 52.4869 8.17306 52.4869 8.72534C52.4869 9.27763 52.0391 9.72534 51.4869 9.72534H12.603C11.0078 9.72534 9.7146 11.0185 9.7146 12.6137V13.5579H51.4869C52.0391 13.5579 52.4869 14.0056 52.4869 14.5579C52.4869 15.1102 52.0391 15.5579 51.4869 15.5579H9.7146V19.3905H52.4869V30.815H54.863C55.4152 30.815 55.863 31.2627 55.863 31.815V39.5917C55.863 40.144 55.4152 40.5917 54.863 40.5917H52.4869V52.3583H12.603C9.88628 52.3583 7.7146 50.2941 7.7146 47.6092V20.223V19.3905V14.5579ZM50.4869 21.3905V30.815H47.0862C44.3864 30.815 42.1978 33.0036 42.1978 35.7033C42.1978 38.4031 44.3864 40.5917 47.0862 40.5917H50.4869V50.3583H12.603C10.9688 50.3583 9.7146 49.1662 9.7146 47.6092V21.3905H50.4869ZM44.1978 35.7033C44.1978 34.1081 45.491 32.815 47.0862 32.815H53.863V38.5917H47.0862C45.491 38.5917 44.1978 37.2986 44.1978 35.7033Z" fill="#009639"/>
</g>
</g>
</g>
</svg>
