<svg width="60" height="60" viewBox="0 0 60 60" fill="none" xmlns="http://www.w3.org/2000/svg">
<rect width="60" height="60" fill="white"/>
<path d="M43 26C47.9706 26 52 21.9706 52 17C52 12.0294 47.9706 8 43 8C38.0294 8 34 12.0294 34 17C34 21.9706 38.0294 26 43 26Z" fill="#D8D8D8"/>
<path d="M14.8585 32.8736L27.0813 45.0965C27.4718 45.487 27.4718 46.1201 27.0813 46.5107L20.9699 52.6221L7.33284 38.985L13.4443 32.8736C13.8348 32.4831 14.4679 32.4831 14.8585 32.8736Z" fill="#D8D8D8"/>
<path d="M42.9997 7C48.5225 7 52.9997 11.4772 52.9997 17C52.9997 19.7238 51.9107 22.1932 50.1444 23.9967C50.9109 24.0167 51.6735 24.3018 52.2849 24.858C52.3308 24.8998 52.3756 24.9428 52.4191 24.9871C53.7078 26.2987 53.78 28.3647 52.6172 29.7608L52.4829 29.9131L40.0112 43.281C39.2773 44.0148 38.3006 44.4501 37.27 44.5085L37.0312 44.5153L26.5 44.5153L27.0815 45.0966C27.472 45.4871 27.472 46.1203 27.0815 46.5108L20.9701 52.6223L7.33301 38.9852L13.4444 32.8738C13.835 32.4832 14.4681 32.4832 14.8586 32.8738L15.5849 33.5997C15.7214 33.2787 15.8984 32.9547 16.1154 32.6264C17.4952 30.6462 19.7539 29.4405 22.214 29.4405C23.8086 29.4405 25.3269 29.9458 26.5817 30.8595L26.829 31.0476H34.4167C36.5696 31.0476 38.3454 32.662 38.5997 34.7462L38.6195 34.9494L46.3849 26.4125C45.3276 26.7928 44.1879 27 42.9997 27C42.7434 27 42.4894 26.9904 42.238 26.9714C42.1616 26.9901 42.0818 27 41.9997 27H30.9997C30.4474 27 29.9997 26.5523 29.9997 26C29.9997 25.4477 30.4474 25 30.9997 25H36.9987C35.6261 23.9688 34.5276 22.5925 33.8318 21H25.9997C25.4474 21 24.9997 20.5523 24.9997 20C24.9997 19.4477 25.4474 19 25.9997 19H33.1997C33.0685 18.3538 32.9997 17.6849 32.9997 17C32.9997 16.3151 33.0685 15.6462 33.1997 15H29.9997C29.4474 15 28.9997 14.5523 28.9997 14C28.9997 13.4477 29.4474 13 29.9997 13H33.8318C35.3749 9.46819 38.899 7 42.9997 7ZM14.1515 34.9951L10.1614 38.9852L20.9701 49.7938L24.9602 45.8037L14.1515 34.9951ZM49.1786 26.3246L49.0761 26.4257L38.3268 38.2419C37.5929 38.9757 36.6162 39.411 35.5856 39.4694L35.3468 39.4762H27.0354C26.4831 39.4762 26.0354 39.0285 26.0354 38.4762C26.0354 37.9634 26.4214 37.5407 26.9188 37.4829L27.0354 37.4762H34.4167L34.5748 37.4706C35.7239 37.3895 36.6309 36.4317 36.6309 35.2619C36.6309 34.0922 35.7239 33.1343 34.5748 33.0532L34.4167 33.0476H26.088L25.8044 32.7974C24.8192 31.9278 23.5557 31.4405 22.214 31.4405C20.415 31.4405 18.7661 32.3208 17.7703 33.7493C17.4309 34.263 17.2631 34.7159 17.2444 35.1089C17.2422 35.155 17.237 35.2002 17.2288 35.2443L24.503 42.5183L24.5676 42.5153H37.0312C37.5533 42.5153 38.0563 42.331 38.4363 42.0159L38.5729 41.8917L51.0205 28.5488C51.5908 27.9374 51.5785 26.9852 50.9925 26.3888C50.9752 26.3712 50.9574 26.3541 50.9392 26.3375C50.4363 25.8801 49.6761 25.884 49.1786 26.3246ZM42.9997 9C38.5814 9 34.9997 12.5817 34.9997 17C34.9997 21.4183 38.5814 25 42.9997 25C47.418 25 50.9997 21.4183 50.9997 17C50.9997 12.5817 47.418 9 42.9997 9ZM46.4867 13.0321L47.7722 14.5642L41.0708 20.1873L38.4997 17.1231L40.0318 15.8376L41.3173 17.3697L46.4867 13.0321Z" fill="#979797"/>
</svg>
