<svg width="60" height="60" viewBox="0 0 60 60" fill="none" xmlns="http://www.w3.org/2000/svg">
<g id="npi-mobile-download">
<rect width="60" height="60" fill="white"/>
<g id="Group">
<g id="Group_2">
<path id="Vector" d="M14.333 42H39.6073V46.5C39.6073 49.8137 36.921 52.5 33.6073 52.5H20.333C17.0193 52.5 14.333 49.8137 14.333 46.5V42Z" fill="#E4F2D2"/>
<path id="Vector_2" d="M39.6069 16.5L14.3327 16.5V15C14.3327 11.6863 17.019 9 20.3327 9L33.6069 9C36.9206 9 39.6069 11.6863 39.6069 15V16.5Z" fill="#E4F2D2"/>
<path id="Vector_3" d="M39 37.5C43.1421 37.5 46.5 34.1421 46.5 30C46.5 25.8579 43.1421 22.5 39 22.5C34.8579 22.5 31.5 25.8579 31.5 30C31.5 34.1421 34.8579 37.5 39 37.5Z" fill="#E4F2D2"/>
<path id="Vector_4" d="M33.5081 7.125C37.3338 7.125 40.4553 10.1402 40.6257 13.9239L40.6331 14.25L40.6325 21.5293C44.6154 22.2923 47.625 25.7947 47.625 30C47.625 34.2053 44.6154 37.7077 40.6325 38.4707L40.6331 45.75C40.6331 49.5757 37.6179 52.6972 33.8342 52.8677L33.5081 52.875H20.25C16.4243 52.875 13.3028 49.8598 13.1323 46.0761L13.125 45.75V14.25C13.125 10.4243 16.1402 7.3028 19.9239 7.13233L20.25 7.125H33.5081ZM38.382 42.75H15.375V45.75C15.375 48.3495 17.4097 50.4739 19.9734 50.6173L20.25 50.625H33.5081C36.1076 50.625 38.2319 48.5903 38.3753 46.0266L38.3831 45.75L38.382 42.75ZM38.382 17.25H15.375V40.5H38.382L38.3832 38.6033C33.9076 38.287 30.375 34.5561 30.375 30C30.375 25.4439 33.9076 21.713 38.3832 21.3967L38.382 17.25ZM39 23.625C35.4792 23.625 32.625 26.4792 32.625 30C32.625 33.5208 35.4792 36.375 39 36.375C42.5208 36.375 45.375 33.5208 45.375 30C45.375 26.4792 42.5208 23.625 39 23.625ZM39.1974 25.9603C39.7669 25.9603 40.2376 26.3836 40.3121 26.9327L40.3224 27.0853L40.3215 30.7063L41.1794 29.851C41.5788 29.4516 42.2038 29.4152 42.6442 29.742L42.7704 29.851C43.1698 30.2504 43.2061 30.8753 42.8793 31.3158L42.7704 31.4419L39.9419 34.2704C39.7822 34.4301 39.5863 34.5318 39.3806 34.5754L39.2249 34.5972H39.068C38.859 34.5826 38.6533 34.51 38.4771 34.3793L38.351 34.2704L35.5225 31.4419C35.0832 31.0026 35.0832 30.2903 35.5225 29.851C35.9219 29.4516 36.5469 29.4152 36.9873 29.742L37.1135 29.851L38.0715 30.8083L38.0724 27.0853C38.0724 26.5158 38.4956 26.0451 39.0447 25.9706L39.1974 25.9603ZM33.5081 9.375H20.25C17.6505 9.375 15.5261 11.4097 15.3827 13.9734L15.375 14.25V15H38.382L38.3831 14.25C38.3831 11.6505 36.3484 9.52613 33.7847 9.38272L33.5081 9.375Z" fill="#009639"/>
</g>
</g>
</g>
</svg>
