<svg width="60" height="60" viewBox="0 0 60 60" fill="none" xmlns="http://www.w3.org/2000/svg">
<g id="npi-document-block">
<rect width="60" height="60" fill="white"/>
<g id="No Documents">
<path id="Path" d="M15.0275 13.2632L6.49683 15.4731L16.1249 51.4056L33.598 46.1433L16.1249 46.5L15.0275 13.2632Z" fill="#E4F2D2"/>
<circle id="Oval" cx="45.5" cy="26.5" r="11.5" fill="#E4F2D2"/>
<path id="Combined Shape" fill-rule="evenodd" clip-rule="evenodd" d="M43 45H16V13.862L16.0081 13.8599L16 13.8299V9H43V11.2006C43.6539 11.0945 44.3215 11.0294 45 11.0079V7H14V12.3274L5.26196 14.6687L15.4079 52.5339L35.9847 47H45V41.9921C44.3215 41.9706 43.6539 41.9055 43 41.7994V45ZM20 18H32.5365C32.1188 18.6357 31.7467 19.3039 31.4247 20H20V18ZM20 23H30.3968C30.2464 23.6519 30.137 24.3195 30.0717 25H20V23ZM20 28H30.0717C30.137 28.6805 30.2464 29.3481 30.3968 30H20V28ZM20 34H31.9321C32.2531 34.5794 32.6101 35.136 33 35.6669V36H20V34ZM7.71145 16.0829L14 14.3979V39.5523L7.71145 16.0829ZM16.8216 50.0826L15.9957 47H28.2838L16.8216 50.0826ZM20 13H25V15H20V13ZM25 38H20V40H25V38ZM33 26.5C33 19.5964 38.5965 14 45.5 14C52.4036 14 58 19.5964 58 26.5C58 33.4036 52.4036 39 45.5 39C38.5965 39 33 33.4036 33 26.5ZM56 26.5C56 23.9884 55.1182 21.6828 53.6473 19.8758L38.8759 34.6472C40.6828 36.1182 42.9885 37 45.5 37C51.299 37 56 32.299 56 26.5ZM37.4513 33.2434L52.2434 18.4513C50.4192 16.9213 48.0672 16 45.5 16C39.7011 16 35 20.701 35 26.5C35 29.0672 35.9213 31.4192 37.4513 33.2434Z" fill="#009639"/>
</g>
</g>
</svg>
