<svg width="60" height="60" viewBox="0 0 60 60" fill="none" xmlns="http://www.w3.org/2000/svg">
<rect width="60" height="60" fill="white"/>
<path d="M45 43.5C49.9706 43.5 54 39.4706 54 34.5C54 29.5294 49.9706 25.5 45 25.5C40.0294 25.5 36 29.5294 36 34.5C36 39.4706 40.0294 43.5 45 43.5Z" fill="#D8D8D8"/>
<path d="M42.7054 8L39.7963 16.999L43 17V19L39.9214 18.998C40.0845 19.2488 40.2652 19.5226 40.4673 19.8261C40.5918 20.0132 40.7221 20.2081 40.8972 20.4693C41.1185 20.7993 41.2437 20.9861 41.3447 21.1369C41.7182 21.6946 41.9965 22.1135 42.2709 22.5324C42.4548 22.8133 42.6285 23.0815 42.7954 23.3425C42.8473 23.4238 42.9172 23.5305 43.0007 23.6566L43.1848 23.9329C43.3847 24.2315 43.6282 24.5917 43.8819 24.9654L44.266 25.53L44.4712 25.5153C44.6462 25.5051 44.8225 25.5 45 25.5C49.9706 25.5 54 29.5294 54 34.5C54 37.7841 52.241 40.6574 49.6137 42.2291L49.43 42.336C48.3955 46.1277 45.931 49.0014 42.4184 50.8491C40.0348 52.1029 38.1593 52.3908 33.7268 52.4071L33.3037 52.4078C29.6289 52.4078 27.6262 52.2622 25.5622 51.71C25.2815 51.6349 24.9601 51.5314 24.5956 51.3994C24.4086 51.5126 24.2173 51.6205 24.0214 51.7235C22.2936 52.6323 21.3849 52.7844 18.5093 52.7844C15.6243 52.7844 14.1108 52.638 12.5102 52.0511C8.73765 50.6677 6.5 47.5298 6.5 43.0519C6.5 41.2589 6.9761 39.8094 8.03288 37.9875C8.32808 37.4786 8.69483 36.9101 9.14709 36.2508C9.27642 36.0622 9.41257 35.8665 9.55901 35.6583C9.80381 35.3102 10.5843 34.2193 10.6889 34.0736L10.6957 34.0642C11.1894 33.3709 11.6027 32.7705 12.0184 32.148C12.1693 31.9221 12.5449 31.3522 12.7785 30.9983L11.4122 31V29L13.666 28.999L11.393 22L23.959 21.999L26.7463 17.659L23.6478 8H42.7054ZM15.1944 30.9989C15.0521 31.2007 14.9112 31.4057 14.7642 31.624C14.6937 31.7289 14.6937 31.7289 14.6232 31.8345C14.5143 31.998 13.8918 32.944 13.6816 33.2588C13.2551 33.8974 12.8305 34.5142 12.3249 35.2243C12.3141 35.2391 12.095 35.545 11.847 35.8924L11.6583 36.1567C11.4697 36.421 11.2901 36.6735 11.1949 36.8089C11.0527 37.011 10.921 37.2003 10.7964 37.382C10.3703 38.0033 10.029 38.5323 9.76292 38.991C8.86888 40.5323 8.5 41.6553 8.5 43.0519C8.5 46.6828 10.2067 49.0762 13.1988 50.1734C14.5127 50.6552 15.8489 50.7844 18.5093 50.7844C21.0895 50.7844 21.7071 50.6811 23.0903 49.9535C25.6615 48.601 27.1565 46.305 27.1565 43.0519C27.1565 42.382 26.9937 41.6376 26.6745 40.8135C26.2396 39.6907 25.5672 38.5165 24.5272 36.9676C24.4919 36.915 24.0999 36.3441 23.6822 35.7308L23.4727 35.4228C23.2989 35.1669 23.1302 34.9174 22.9906 34.7087L22.831 34.4689C22.7842 34.3979 22.7443 34.3369 22.7133 34.2883C22.1932 33.4747 21.4483 32.3777 20.48 30.9998L15.1944 30.9989ZM37.5563 18.9989L28.2623 19L25.157 23.835L21.75 29.313L21.7519 29.3328C22.8344 30.8638 23.6733 32.0891 24.2701 33.0117L24.3984 33.2111C24.7189 33.7124 26.1027 35.7262 26.1876 35.8527C27.3035 37.5145 28.039 38.799 28.5395 40.0911C28.9419 41.1301 29.1565 42.1113 29.1565 43.0519C29.1565 45.8806 28.2033 48.1844 26.5228 49.8894C28.159 50.2751 29.9149 50.3973 32.8904 50.4072L33.3037 50.4078C37.7373 50.4078 39.3989 50.1775 41.4873 49.079C43.9288 47.7948 45.7665 45.9668 46.8516 43.6032L46.994 43.278L46.6287 43.353C46.1005 43.4496 45.5561 43.5 45 43.5C40.0294 43.5 36 39.4706 36 34.5C36 30.5106 38.5956 27.1275 42.1902 25.9473L42.1411 25.9636C41.7008 25.3126 41.2981 24.7135 41.1102 24.4197C40.9476 24.1652 40.7778 23.9031 40.5977 23.6282C40.3278 23.216 40.0529 22.8022 39.6829 22.2497C39.5823 22.0996 39.4575 21.9134 39.2358 21.5828C39.0597 21.3201 38.9284 21.1236 38.8025 20.9345C38.2685 20.1325 37.8767 19.5267 37.5563 18.9989ZM45 27.5C41.134 27.5 38 30.634 38 34.5C38 38.366 41.134 41.5 45 41.5C48.866 41.5 52 38.366 52 34.5C52 30.634 48.866 27.5 45 27.5ZM46.3 30.5V33.5H49.3V35.5H46.3V38.5H44.3V35.5H41.3V33.5H44.3V30.5H46.3ZM22.7002 24H14.1458L15.77 28.999H19.589L22.7002 24ZM39.9571 10H26.3897L28.6343 16.999H37.6943L39.9571 10Z" fill="#979797"/>
</svg>
