<svg width="60" height="60" viewBox="0 0 60 60" fill="none" xmlns="http://www.w3.org/2000/svg">
<rect width="60" height="60" fill="white"/>
<path fill-rule="evenodd" clip-rule="evenodd" d="M26.2406 42.8791C25.9454 42.5805 25.5507 42.5454 25.0501 43.036C24.5617 43.5139 23.1594 44.8859 23.0225 45.0127C22.9887 45.0462 22.9512 45.0728 22.9086 45.0943C20.7563 46.1845 12.9876 37.8671 14.4697 36.3031L16.6842 34.133C16.9709 33.8507 16.9723 33.3894 16.6942 33.108L9.44608 25.7173C9.17147 25.4357 8.7156 25.4226 8.42094 25.7084C4.82687 29.2347 -1.07286 32.8074 12.5655 46.7182C17.9629 52.2226 25.5277 58.8231 31.1058 53.5914L31.2427 53.4646C31.337 53.3776 33.4718 51.2933 33.5286 51.2322C33.7947 50.9474 33.7875 50.5047 33.5158 50.2274L26.2406 42.8791Z" fill="#B3D4F1"/>
<path fill-rule="evenodd" clip-rule="evenodd" d="M40.1529 26.7548L33.779 26.7553L33.7788 20.4164C33.7788 20.1622 33.5718 19.9547 33.3176 19.9552L28.7361 19.955C28.4918 19.955 28.2753 20.1714 28.2751 20.4159L28.2754 26.7553L21.9355 26.7555C21.6907 26.756 21.4745 26.9722 21.474 27.217L21.475 31.8686C21.4755 32.1229 21.6817 32.3292 21.9362 32.3298L28.2751 32.3296L28.2759 38.6333C28.2751 38.8883 28.4817 39.0948 28.7366 39.0941L33.3172 39.0943C33.5717 39.0941 33.7777 38.8881 33.778 38.6336L33.7784 32.3296L40.1535 32.3293C40.4065 32.3302 40.6149 32.1224 40.6144 31.8683L40.6142 27.216C40.6151 26.9641 40.4093 26.7549 40.1529 26.7548Z" fill="#B3D4F1"/>
<path fill-rule="evenodd" clip-rule="evenodd" d="M36.5843 51.452C35.6361 51.7436 34.8819 51.9466 34.3134 52.0619C34.2377 52.0773 34.1623 52.0836 34.0882 52.0817L31.922 54.1982L31.5749 54.5164C28.698 57.0586 25.1968 57.0764 21.3088 55.0697C18.3767 53.5563 15.4519 51.0908 11.851 47.4184L11.2034 46.7516C1.74269 36.9126 1.0803 31.7977 5.86739 26.7862L6.19834 26.4485L6.54174 26.1144L7.28519 25.4129L7.72426 24.9907C8.41165 24.324 9.49914 24.3402 10.1596 25.0173L17.405 32.4053C18.0731 33.0813 18.0648 34.1768 17.3836 34.8474L15.2718 36.916C15.2836 36.9142 15.2895 36.9329 15.2987 36.9792L15.3258 37.0914C15.3916 37.3283 15.5282 37.6388 15.7312 37.9992C16.2278 38.8809 17.0659 39.9658 18.0517 41.0065C19.9198 42.9784 21.918 44.2972 22.4073 44.2175L24.3497 42.322C25.183 41.5054 26.2101 41.4264 26.9513 42.1763L34.2296 49.5277C34.3569 49.6576 34.4596 49.8027 34.5378 49.9571C34.6594 49.926 34.7882 49.8918 34.9242 49.8544L35.4304 49.7105L35.9944 49.5409C44.4525 46.9204 50.3313 39.0682 50.3313 30.0752C50.3313 18.8224 41.2091 9.7002 29.9563 9.7002C21.4438 9.7002 13.9193 14.9689 10.9236 22.7862C10.7259 23.3019 10.1476 23.5598 9.63193 23.3622C9.11622 23.1645 8.85836 22.5863 9.05599 22.0705C12.3458 13.4859 20.6085 7.7002 29.9563 7.7002C42.3137 7.7002 52.3313 17.7178 52.3313 30.0752C52.3313 39.9509 45.876 48.5732 36.5843 51.452ZM33.3155 18.9554C34.1231 18.954 34.7784 19.6098 34.7784 20.4166L34.7786 25.7555L40.1524 25.7551L40.3023 25.7626C41.041 25.8379 41.6165 26.4635 41.6138 27.2162L41.614 31.8667C41.6156 32.6748 40.9573 33.3324 40.1531 33.3295L34.778 33.3297L34.7776 38.6348C34.7767 39.4408 34.1237 40.0938 33.3168 40.0945L28.7392 40.0943C27.9296 40.0967 27.2731 39.4402 27.2755 38.6337L27.2749 33.3299L21.9331 33.33C21.1283 33.3279 20.4761 32.6757 20.4746 31.869L20.4736 27.2152C20.4752 26.4197 21.1376 25.7573 21.935 25.7557L27.2749 25.7556L27.2747 20.4153C27.2754 19.619 27.9392 18.9552 28.7357 18.9552L33.3155 18.9554ZM32.7781 31.3298L39.614 31.3295L39.6138 27.7551L32.7787 27.7556L32.7784 20.9554L29.2747 20.9552L29.275 27.7555L22.4737 27.7557L22.4745 31.33L29.2746 31.3298L29.2754 38.0943L32.7776 38.0945L32.7781 31.3298ZM30.5645 52.7294L32.6099 50.7344L25.7221 43.7773L23.7708 45.6808L23.6126 45.8242C23.5342 45.8871 23.4498 45.9412 23.36 45.9866C20.3224 47.5253 11.3912 38.0975 13.7693 35.589L15.787 33.6118L8.92392 26.6137L7.67871 27.7958C5.63445 29.7866 4.86868 31.1773 5.03323 33.2584C5.27401 36.3037 7.79092 40.4205 13.2791 46.0182L13.9195 46.6649C21.2747 54.0162 26.491 56.5484 30.4256 52.8582L30.5645 52.7294Z" fill="#006FCF"/>
</svg>
