<svg width="60" height="60" viewBox="0 0 60 60" fill="none" xmlns="http://www.w3.org/2000/svg">
<g id="npi-house-magnifying_glass">
<rect width="60" height="60" fill="white"/>
<g id="Group">
<path id="Vector" fill-rule="evenodd" clip-rule="evenodd" d="M49.0869 29.5869C52.9285 25.7452 52.9285 19.5168 49.0869 15.6752C45.2452 11.8335 39.0168 11.8335 35.1752 15.6752C31.3335 19.5168 31.3335 25.7452 35.1752 29.5869C39.0168 33.4285 45.2452 33.4285 49.0869 29.5869Z" fill="#E4F2D2"/>
<path id="Vector_2" d="M28.8918 8.02832L35.2655 14.0841C39.5701 10.6174 45.8857 10.8826 49.8826 14.8795C53.9319 18.9288 54.151 25.3577 50.5401 29.6646L56.6964 35.8208C57.1357 36.2601 57.1357 36.9724 56.6964 37.4118C56.297 37.8112 55.672 37.8475 55.2315 37.5207L55.1054 37.4118L48.927 31.2336C48.5107 31.5633 48.076 31.8585 47.6267 32.1191L47.6251 52.4923H10.8751V29.2533L8.14618 31.9888C7.70716 32.4285 6.99485 32.429 6.55519 31.99C6.15549 31.5909 6.11873 30.9659 6.44518 30.5253L6.55402 30.399L28.8918 8.02832ZM28.9333 11.1711L13.1251 27.0003V50.2423L28.8751 50.2413V31.8747L36.2355 31.8752C35.5776 31.4547 34.9548 30.9571 34.3799 30.3822C30.3528 26.3551 30.114 19.9743 33.6636 15.668L28.9333 11.1711ZM40.1255 33.4089L40.1251 50.2413L45.3751 50.2423L45.3754 33.1042C43.673 33.63 41.8677 33.7315 40.1255 33.4089ZM37.8751 34.1247H31.1251V50.2413H37.8751V34.1247ZM25.1251 31.8747V40.1247H16.8751V31.8747H25.1251ZM22.8751 34.1247H19.1251V37.8747H22.8751V34.1247ZM35.9709 16.4705C32.5686 19.8728 32.5686 25.389 35.9709 28.7912C39.3732 32.1935 44.8894 32.1935 48.2916 28.7912C51.6939 25.389 51.6939 19.8728 48.2916 16.4705C44.8894 13.0683 39.3732 13.0683 35.9709 16.4705Z" fill="#009639"/>
</g>
</g>
</svg>
