<svg width="60" height="60" viewBox="0 0 60 60" fill="none" xmlns="http://www.w3.org/2000/svg">
<rect width="60" height="60" fill="white"/>
<path fill-rule="evenodd" clip-rule="evenodd" d="M36.0004 36.2309C36.0004 36.2309 33.7516 34.6885 33.489 33.8141V31.6992C34.835 30.2684 35.8966 28.273 36.525 25.9367C38.0346 24.8352 38.4099 22.5648 37.1604 20.9677V16.2332C37.1604 11.3457 34.5413 8 28.5534 8C22.72 8 19.9433 11.3457 19.9433 16.2332V20.9692C18.6965 22.5639 19.071 24.8329 20.5787 25.9356C21.2068 28.2728 22.2693 30.2682 23.6161 31.699V33.8139C23.0125 35.8275 15.8077 39.0637 9.3193 41.6707C8.76634 41.8937 8.40039 42.4526 8.40039 43.0776V45.3057H37.1604C37.1604 45.3057 36.0004 42.3396 36.0004 40.938C36.0004 39.5364 36.0004 36.2309 36.0004 36.2309Z" fill="url(#paint0_linear)" fill-opacity="0.3"/>
<rect x="35" y="42" width="3" height="9" fill="#D8D8D8"/>
<rect x="46" y="42" width="3" height="9" fill="#D8D8D8"/>
<path fill-rule="evenodd" clip-rule="evenodd" d="M32.3516 38.9998L41.9999 32.6309L51.7502 38.9998V41.1248H32.3516V38.9998Z" fill="#D8D8D8"/>
<path fill-rule="evenodd" clip-rule="evenodd" d="M34.489 32.0847V33.6228C34.6396 33.8943 35.1093 34.3395 35.867 34.8684C35.9028 34.8934 36.0127 34.9726 36.142 35.0659C36.2205 35.1225 36.3062 35.1844 36.3869 35.2423L42.0004 31.5L52.5004 38.5V42H49.8754V50.75H52.5004V52.5H31.5004V50.75H34.1254V42H31.5004V38.5L34.6076 36.4285C33.4645 35.6185 32.7649 34.8796 32.5313 34.1017L32.489 33.961V31.3027L32.7607 31.014C33.9966 29.7002 34.9759 27.8461 35.5593 25.677L35.6509 25.3366L35.9356 25.1289C37.021 24.3369 37.249 22.7039 36.3728 21.5838L36.1604 21.3124V16.2332C36.1604 11.569 33.6696 9 28.5534 9C23.5328 9 20.9433 11.6332 20.9433 16.2332V21.3137L20.7311 21.5851C19.857 22.7032 20.0848 24.3355 21.169 25.1285L21.453 25.3362L21.5444 25.6761C22.1274 27.8451 23.1072 29.6994 24.3443 31.0135L24.6161 31.3023V33.9606L24.574 34.1011C23.913 36.3058 18.8404 38.9229 9.69334 42.5981C9.52376 42.6665 9.40039 42.8553 9.40039 43.0776V47.0514H7.40039V43.0776C7.40039 42.051 8.00805 41.1213 8.94648 40.7428C16.7671 37.6005 21.9892 34.9309 22.6161 33.6335V32.0846C21.3352 30.6192 20.3326 28.7014 19.7017 26.5138C18.0451 25.0708 17.6967 22.5343 18.9433 20.6481V16.2332C18.9433 10.5361 22.4207 7 28.5534 7C34.7883 7 38.1604 10.4781 38.1604 16.2332V20.6464C39.4095 22.5346 39.0609 25.0732 37.4018 26.5155C36.7706 28.7025 35.7687 30.6198 34.489 32.0847ZM37.6254 50.75H35.8754V42H37.6254V50.75ZM44.6254 42V50.75H39.3754V42H44.6254ZM48.1254 50.75H46.3754V42H48.1254V50.75ZM33.2504 39.4366L42.0004 33.6032L50.7504 39.4366V40.25H33.2504V39.4366ZM39.8129 37.1875C39.8129 38.3956 40.7923 39.375 42.0004 39.375C43.2085 39.375 44.1879 38.3956 44.1879 37.1875C44.1879 35.9794 43.2085 35 42.0004 35C40.7923 35 39.8129 35.9794 39.8129 37.1875ZM42.0004 37.625C42.242 37.625 42.4379 37.4291 42.4379 37.1875C42.4379 36.9459 42.242 36.75 42.0004 36.75C41.7588 36.75 41.5629 36.9459 41.5629 37.1875C41.5629 37.4291 41.7588 37.625 42.0004 37.625Z" fill="#979797"/>
<defs>
<linearGradient id="paint0_linear" x1="4.10596" y1="8" x2="4.10596" y2="56.163" gradientUnits="userSpaceOnUse">
<stop stop-color="#979797"/>
<stop offset="0.721043" stop-color="white" stop-opacity="0.4"/>
<stop offset="0.852745" stop-color="white" stop-opacity="0.01"/>
<stop offset="1" stop-color="white" stop-opacity="0.01"/>
</linearGradient>
</defs>
</svg>
