<svg width="60" height="60" viewBox="0 0 60 60" fill="none" xmlns="http://www.w3.org/2000/svg">
<rect width="60" height="60" fill="white"/>
<path fill-rule="evenodd" clip-rule="evenodd" d="M13.6279 19.9888V24.9888H20.6279V19.9888H13.6279Z" fill="#D8D8D8"/>
<path fill-rule="evenodd" clip-rule="evenodd" d="M25.8398 20.9888V23.9888H30.6246V20.9888H25.8398Z" fill="#D8D8D8"/>
<path fill-rule="evenodd" clip-rule="evenodd" d="M39.04 20.9888V23.9888H47.04V20.9888H39.04Z" fill="#D8D8D8"/>
<path fill-rule="evenodd" clip-rule="evenodd" d="M13.6279 40.5576V43.3888H20.6279V40.5576H13.6279Z" fill="#D8D8D8"/>
<path fill-rule="evenodd" clip-rule="evenodd" d="M25.8398 40.3892V43.3892H33.8398V40.3892H25.8398Z" fill="#D8D8D8"/>
<path fill-rule="evenodd" clip-rule="evenodd" d="M38.8271 40.5576V44.5576H46.8271V40.5576H38.8271Z" fill="#D8D8D8"/>
<circle cx="44.625" cy="20.625" r="10.5" fill="#D8D8D8"/>
<path fill-rule="evenodd" clip-rule="evenodd" d="M30.0112 6.8916L35.8754 9.6952C35.3158 10.1437 34.7915 10.6343 34.3071 11.1622L30.0108 9.10821L9.30012 18.9999H30.7183C30.6567 19.533 30.625 20.0753 30.625 20.6249C30.625 20.7503 30.6266 20.8753 30.6299 20.9999H27V22.9999H30.8256C31.1645 24.983 31.9205 26.8238 33 28.4287V38.9999H35V42.9999H38.0402V38.9999H40V33.8429C40.6463 34.0691 41.3143 34.2491 42 34.3792V38.9999H44V34.6112C44.2072 34.6203 44.4156 34.6249 44.625 34.6249C45.089 34.6249 45.5476 34.6023 46 34.5582V38.9999H48.0402V42.9999H51V46.9999H53V52.9999H7V46.9999H9V42.9999H12V38.9999H14V24.9999H12V20.9999H7V17.8821L30.0112 6.8916ZM16 38.9999H18V24.9999H16V38.9999ZM20 38.9999H22V42.9999H25V38.9999H27V24.9999H25V20.9999H22V24.9999H20V38.9999ZM33 42.9999V40.9999H27V42.9999H33ZM49 46.9999V44.9999H11V46.9999H49ZM46.0402 42.9999V40.9999H40.0402V42.9999H46.0402ZM30.5 12.2799C31.3863 12.2799 32.1649 12.7411 32.6088 13.4366C31.9119 14.5992 31.3788 15.8714 31.0417 17.2211C30.8673 17.2596 30.686 17.2799 30.5 17.2799C29.1193 17.2799 28 16.1606 28 14.7799C28 13.3992 29.1193 12.2799 30.5 12.2799ZM31 38.9999V24.9999H29V38.9999H31ZM20 20.9999H14V22.9999H20V20.9999ZM9 50.9999V48.9999H51V50.9999H9ZM30.5 15.2799C30.2239 15.2799 30 15.0561 30 14.7799C30 14.5038 30.2239 14.2799 30.5 14.2799C30.7761 14.2799 31 14.5038 31 14.7799C31 15.0561 30.7761 15.2799 30.5 15.2799ZM20 40.9999H14V42.9999H20V40.9999ZM56.25 20.6249C56.25 27.0452 51.0453 32.2499 44.625 32.2499C38.2047 32.2499 33 27.0452 33 20.6249C33 14.2046 38.2047 8.99991 44.625 8.99991C51.0453 8.99991 56.25 14.2046 56.25 20.6249ZM35.25 20.6249C35.25 25.8026 39.4473 29.9999 44.625 29.9999C49.8027 29.9999 54 25.8026 54 20.6249C54 15.4472 49.8027 11.2499 44.625 11.2499C39.4473 11.2499 35.25 15.4472 35.25 20.6249ZM42.5582 23.0161L39.864 20.5283L38.5075 21.998L42.6645 25.835L50.2823 17.6659L48.8196 16.3019L42.5582 23.0161Z" fill="#979797"/>
</svg>
