<svg width="60" height="60" viewBox="0 0 60 60" fill="none" xmlns="http://www.w3.org/2000/svg">
<rect width="60" height="60" fill="white"/>
<path d="M15 26C19.9706 26 24 21.9706 24 17C24 12.0294 19.9706 8 15 8C10.0294 8 6 12.0294 6 17C6 21.9706 10.0294 26 15 26Z" fill="#339C63"/>
<path fill-rule="evenodd" clip-rule="evenodd" d="M52.2948 21.5088V33.0172H49.0401C47.0216 33.0172 45.3854 34.6535 45.3854 36.672C45.3854 38.6904 47.0216 40.3267 49.0401 40.3267H52.2948V51.8377L18.7764 52.2021C14.9106 52.2442 11.7427 49.1444 11.7007 45.2787L11.7002 25.3757C12.722 25.7786 13.8353 26 15.0003 26C18.239 26 21.0781 24.2893 22.6634 21.7222L52.2948 21.5088Z" fill="#339C63"/>
<path d="M15 7C17.7975 7 20.3268 8.14876 22.1417 10.0003L52 10C52.5523 10 53 10.4477 53 11C53 11.5128 52.614 11.9355 52.1166 11.9933L52 12L23.6622 12C24.1957 12.9223 24.5862 13.9378 24.8032 15.016L24.8612 15.0067L24.9778 15H52C52.5523 15 53 15.4477 53 16C53 16.5128 52.614 16.9355 52.1166 16.9933L52 17H25C25 18.0455 24.8395 19.0536 24.5419 20.0009L53.1491 20L53.149 31H55.0722V41H53.594L53.5945 53H18C14.2145 53 11.1309 49.9952 11.0041 46.2407L11 46L10.9996 26.1677C7.468 24.6245 5 21.1005 5 17C5 11.4772 9.47715 7 15 7ZM15 27C14.3147 27 13.6455 26.9311 12.999 26.7998L13 46C13 48.6888 15.1223 50.8818 17.7831 50.9954L18 51H51.5945L51.594 41H49C46.2386 41 44 38.7614 44 36C44 33.2386 46.2386 31 49 31H51.149L51.1491 22L23.6616 22.001C21.9324 24.9894 18.701 27 15 27ZM53.0722 33H49C47.3431 33 46 34.3431 46 36C46 37.6569 47.3431 39 49 39H53.0722V33ZM15 9C10.5817 9 7 12.5817 7 17C7 21.4183 10.5817 25 15 25C18.0206 25 20.6502 23.3259 22.0116 20.855C22.0424 20.6363 22.1444 20.4414 22.2929 20.2929L22.3008 20.2756C22.7501 19.2758 23 18.1671 23 17C23 12.5817 19.4183 9 15 9ZM15.9474 12.2526L15.947 15.9996L19.6947 16V18L15.947 17.9996L15.9474 21.7474H13.9474L13.947 17.9996L10.2 18V16L13.947 15.9996L13.9474 12.2526H15.9474Z" fill="white"/>
</svg>
