<svg width="60" height="60" viewBox="0 0 60 60" fill="none" xmlns="http://www.w3.org/2000/svg">
<rect width="60" height="60" fill="white"/>
<path d="M8.75781 14.3291L15.2704 51.2635L42.9943 46.3751L42.5094 43.6248L36.4818 9.44062L8.75781 14.3291Z" fill="#B3D4F1"/>
<path d="M43.6076 14.5299V8.5H15.542V46.0042H43.6076V30.4898" fill="white"/>
<circle cx="41.4953" cy="22.4748" r="9.35519" fill="#B3D4F1"/>
<path fill-rule="evenodd" clip-rule="evenodd" d="M41.9045 32.5543C42.1403 32.5543 42.3748 32.546 42.6077 32.5296V45.0042H16.5421V9.5H42.6077V12.7699C42.3754 12.7536 42.1409 12.7454 41.9045 12.7454C36.4344 12.7454 32 17.1797 32 22.6498C32 28.1199 36.4344 32.5543 41.9045 32.5543ZM44.6077 32.1805V47.0042H44.1204L44.1525 47.1862L14.459 52.422L7.59912 13.518L14.5421 12.2937V7.5H44.6077V13.1187C48.7638 14.2952 51.8089 18.1169 51.8089 22.6498C51.8089 24.9682 51.0077 27.1617 49.5819 28.908L56.2469 35.5731L54.7365 36.9011L48.1627 30.3272C47.1153 31.1823 45.9071 31.8128 44.6077 32.1805ZM15.5345 47.0042H33.6673L16.0813 50.1051L15.5345 47.0042ZM9.91603 15.1403L14.5421 41.3759V14.3246L9.91603 15.1403ZM49.541 22.5683C49.541 24.644 48.7191 26.5871 47.2804 28.0258C45.8417 29.4645 43.8986 30.2863 41.823 30.2863C37.5604 30.2863 34.1049 26.8309 34.1049 22.5683C34.1049 18.3058 37.5604 14.8503 41.823 14.8503C46.0855 14.8503 49.541 18.3058 49.541 22.5683ZM40 34V36H19.2842V34H40ZM22.106 20.6563H21.6473V18.3503H22.106C22.5854 18.3503 22.9532 18.4495 23.2094 18.6478C23.4657 18.8462 23.5938 19.1314 23.5938 19.5033C23.5938 19.8752 23.4657 20.1604 23.2094 20.3587C22.9532 20.5571 22.5854 20.6563 22.106 20.6563ZM23.9657 25.8261H26.9907L24.0525 21.9952C24.722 21.8382 25.2282 21.5386 25.5712 21.0964C25.9142 20.6542 26.0857 20.0777 26.0857 19.3669C26.0857 18.9702 26.0216 18.5983 25.8935 18.2511C25.7654 17.904 25.5753 17.5982 25.3232 17.3337C25.0711 17.0692 24.7509 16.8605 24.3624 16.7076C23.974 16.5547 23.5194 16.4783 22.9987 16.4783H19.2174V25.8261H21.6473V22.2308L23.9657 25.8261ZM31.7448 31.9526V29.9526H19.2842V31.9526H31.7448ZM31.7448 39.9526V37.9526H19.2842V39.9526H31.7448Z" fill="#006FCF"/>
</svg>
