<svg width="60" height="60" viewBox="0 0 60 60" fill="none" xmlns="http://www.w3.org/2000/svg">
<rect width="60" height="60" fill="white"/>
<path fill-rule="evenodd" clip-rule="evenodd" d="M33.4885 33.6992L31.3093 34.633C29.7857 35.2859 28.5529 37.1592 28.5529 38.8184V47.3057H8.3999V45.0776C8.3999 44.4526 8.76585 43.8937 9.31882 43.6707C15.8072 41.0637 23.012 37.8275 23.6157 35.8139V33.699C22.2688 32.2682 21.2063 30.2728 20.5782 27.9356C19.0705 26.8329 18.696 24.5639 19.9428 22.9692V18.2332C19.9428 13.3457 22.7195 10 28.5529 10C34.5408 10 37.1599 13.3457 37.1599 18.2332V22.9677C38.4094 24.5648 38.0341 26.8352 36.5245 27.9367C35.8962 30.273 34.8345 32.2684 33.4885 33.6992Z" fill="url(#paint0_linear)" fill-opacity="0.3"/>
<path fill-rule="evenodd" clip-rule="evenodd" d="M31.271 42H51.581V49.5558C51.581 50.6603 50.6855 51.5558 49.581 51.5558H33.271C32.1664 51.5558 31.271 50.6603 31.271 49.5558V42Z" fill="#B3D4F1"/>
<path fill-rule="evenodd" clip-rule="evenodd" d="M38.1569 16.9375C38.0428 11.3592 34.6803 8 28.5529 8C22.4202 8 18.9428 11.5361 18.9428 17.2332V21.6481L18.8234 21.8388C17.7209 23.7022 18.0998 26.1189 19.7012 27.5138C20.3321 29.7014 21.3347 31.6192 22.6157 33.0846V34.6335L22.5769 34.7056C21.7979 36.0282 16.6244 38.6577 8.94599 41.7428C8.00756 42.1213 7.3999 43.051 7.3999 44.0776V47.3057H9.3999V44.0776L9.40723 43.9846C9.43609 43.8038 9.5475 43.6567 9.69285 43.5981C18.8399 39.9229 23.9125 37.3058 24.5735 35.1011L24.6157 34.9606V32.3023L24.3438 32.0135L24.1149 31.7609C22.9858 30.4664 22.0904 28.7096 21.5439 26.6761L21.4526 26.3362L21.1685 26.1285L21.0375 26.0251C20.0672 25.2003 19.8929 23.6566 20.7306 22.5851L20.9428 22.3137V17.2332L20.9459 16.9595C21.0473 12.5289 23.6327 10 28.5529 10C33.6691 10 36.1599 12.569 36.1599 17.2332V22.3124L36.3723 22.5838L36.4761 22.7264C37.2281 23.8385 36.9753 25.3699 35.9351 26.1289L35.6504 26.3366L35.5588 26.677L35.4449 27.0799C34.852 29.0757 33.9189 30.7823 32.7602 32.014L32.4885 32.3027V34.0037H34.4885V33.0847L34.7407 32.7857C35.9001 31.3629 36.8122 29.5567 37.4013 27.5155C39.0604 26.0732 39.409 23.5346 38.1599 21.6464V17.2332L38.1569 16.9375ZM39.7542 31.2018H43.0873C44.8253 31.2018 46.2662 32.507 46.3635 34.1778L46.3688 34.3582L46.3679 35.593L49.709 35.5937C51.2952 35.5937 52.581 36.8795 52.581 38.4657V49.6838C52.581 51.2699 51.2952 52.5558 49.709 52.5558H33.1431C31.5569 52.5558 30.2711 51.2699 30.2711 49.6838V38.4657C30.2711 36.8795 31.5569 35.5937 33.1431 35.5937L36.4719 35.593L36.4727 34.3582C36.4727 32.6625 37.8536 31.2987 39.5691 31.2067L39.7542 31.2018ZM50.5809 42.903L32.2709 42.998L32.2711 49.6838C32.2711 50.1654 32.6615 50.5558 33.1431 50.5558H49.709C50.1906 50.5558 50.581 50.1654 50.581 49.6838L50.5809 42.903ZM49.709 37.5937H33.1431C32.6615 37.5937 32.2711 37.9841 32.2711 38.4657L32.2709 40.999L50.5809 40.904L50.581 38.4657C50.581 37.9841 50.1906 37.5937 49.709 37.5937ZM39.7542 33.2018H43.0873L43.2203 33.2079C43.8752 33.2685 44.3688 33.7716 44.3688 34.3582L44.3679 35.593H38.4719L38.4727 34.3582L38.4792 34.2421C38.5435 33.6682 39.0792 33.2018 39.7542 33.2018Z" fill="#006FCF"/>
<defs>
<linearGradient id="paint0_linear" x1="4.10547" y1="10" x2="4.10547" y2="58.163" gradientUnits="userSpaceOnUse">
<stop stop-color="#006FCF"/>
<stop offset="0.721043" stop-color="white" stop-opacity="0.4"/>
<stop offset="0.852745" stop-color="white" stop-opacity="0.01"/>
<stop offset="1" stop-color="white" stop-opacity="0.01"/>
</linearGradient>
</defs>
</svg>
