<svg width="60" height="60" viewBox="0 0 60 60" fill="none" xmlns="http://www.w3.org/2000/svg">
<rect width="60" height="60" fill="white"/>
<circle cx="29.5" cy="30.5" r="4.5" fill="#D8D8D8"/>
<path fill-rule="evenodd" clip-rule="evenodd" d="M51.8489 27.8795C50.5639 16.8061 41.3024 8.31878 30.1331 8.00878C30.0895 8.00299 30.0451 8 30 8C29.9707 8 29.9417 8.00126 29.913 8.00373C29.7756 8.00125 29.6379 8 29.5 8C17.0736 8 7 18.0736 7 30.5C7 30.6379 7.00125 30.7755 7.00374 30.9129C7.00126 30.9416 7 30.9707 7 31C7 31.0451 7.00299 31.0896 7.00879 31.1332C7.1929 37.7596 10.2603 43.8639 15.3311 47.9793L16.031 48.5473L21.5017 43.0766L21.5849 42.9824C21.8899 42.5901 21.8622 42.0229 21.5017 41.6624L21.4075 41.5792C21.0152 41.2742 20.448 41.3019 20.0875 41.6624L15.905 45.844L15.6639 45.627C11.8209 42.1125 9.43649 37.2681 9.05426 32H15.1118L15.2284 31.9933C15.7258 31.9355 16.1118 31.5128 16.1118 31C16.1118 30.4477 15.6641 30 15.1118 30H9.00598C9.12853 24.8803 11.128 20.2255 14.3427 16.6974L18.7913 20.854L18.8811 20.9287C19.2839 21.2261 19.8545 21.1808 20.2047 20.8061C20.5817 20.4025 20.5603 19.7697 20.1567 19.3927L15.7608 15.2852C19.2812 12.1042 23.9109 10.1278 29 10.006V16.1229L29.0067 16.2395C29.0645 16.7369 29.4872 17.1229 30 17.1229C30.5523 17.1229 31 16.6752 31 16.1229V10.0543C40.7593 10.7629 48.7274 18.3306 49.8623 28.1101C49.9259 28.6587 50.4223 29.0518 50.9709 28.9882C51.5195 28.9245 51.9126 28.4282 51.8489 27.8795ZM28.4049 25.109C25.892 25.6167 24 27.8374 24 30.5C24 33.5376 26.4624 36 29.5 36C31.8451 36 33.8474 34.5323 34.6385 32.4653L39.1884 24.0555L39.2702 23.8857C39.4903 23.3676 39.4828 22.7772 39.2433 22.2614C38.7781 21.2596 37.5888 20.8246 36.587 21.2898L28.3974 25.093L28.4049 25.109ZM32.026 25.6131C33.168 26.2046 34.0762 27.1846 34.5758 28.3782L37.4294 23.1038L32.026 25.6131ZM32.8086 31.6446C32.9326 31.2859 33 30.9008 33 30.5C33 28.567 31.433 27 29.5 27C27.567 27 26 28.567 26 30.5C26 32.433 27.567 34 29.5 34C30.8785 34 32.0708 33.2031 32.6415 32.0449L32.6032 32.0242L32.8086 31.6446ZM50 35.6841V39L50.0067 39.1166C50.0645 39.614 50.4872 40 51 40C51.5523 40 52 39.5523 52 39V32H45L44.8834 32.0067C44.386 32.0645 44 32.4872 44 33L44.0067 33.1166C44.0645 33.614 44.4872 34 45 34H48.8556L38.02 44.835L31.7699 38.5858L19.651 50.7047L19.5678 50.7989C19.2628 51.1912 19.2905 51.7585 19.651 52.1189L19.7452 52.2021C20.1375 52.5072 20.7047 52.4794 21.0652 52.1189L31.769 41.414L38.0199 47.6642L50 35.6841Z" fill="#979797"/>
</svg>
