<svg width="60" height="60" viewBox="0 0 60 60" fill="none" xmlns="http://www.w3.org/2000/svg">
<rect width="60" height="60" fill="white"/>
<path d="M41.7 31.9C48.1617 31.9 53.4 26.6617 53.4 20.2C53.4 13.7383 48.1617 8.5 41.7 8.5C35.2383 8.5 30 13.7383 30 20.2C30 26.6617 35.2383 31.9 41.7 31.9Z" fill="#DADADA"/>
<path d="M51.922 14.0125L53.0514 10.9099L54.9308 11.5939L52.5867 18.0343L46.1463 15.6902L46.8304 13.8108L50.2044 15.038C47.3403 10.4394 41.4043 8.65952 36.4282 11.0865C33.6978 12.4182 31.7875 14.7575 30.9268 17.4382L30.9273 17.4976L30.908 17.4974C30.1141 20.02 30.2475 22.8394 31.4983 25.404C34.0906 30.719 40.5007 32.9262 45.8157 30.3339C49.519 28.5277 51.8141 24.7963 51.8318 20.7483L53.8318 20.7571C53.8187 23.7448 52.7594 26.5879 50.9026 28.826L50.9024 45.7659C50.9024 49.551 47.834 52.6195 44.0488 52.6195H11.8537C8.06849 52.6195 5 49.551 5 45.7659V28.482C5 24.8989 7.90469 21.9942 11.4878 21.9942H14.907C15.7233 21.9942 16.4509 21.4799 16.7234 20.7105L17.6428 18.1137C18.198 16.5457 19.681 15.4976 21.3445 15.4976L29.5327 15.4974C30.708 12.8806 32.7715 10.6448 35.5514 9.28893C41.4692 6.40263 48.531 8.52975 51.922 14.0125ZM28.8272 17.4974L21.3445 17.4976C20.5282 17.4976 19.8006 18.0119 19.5281 18.7813L18.6087 21.378C18.0535 22.9461 16.5705 23.9942 14.907 23.9942H11.4878C9.00926 23.9942 7 26.0035 7 28.482V45.7659C7 48.4465 9.17306 50.6195 11.8537 50.6195H44.0488C46.7294 50.6195 48.9024 48.4465 48.9024 45.7659L48.9031 30.7584C48.2247 31.2831 47.4858 31.7445 46.6925 32.1315C44.1371 33.3778 41.3685 33.6893 38.7742 33.1995C39.0522 34.1829 39.1951 35.2085 39.1951 36.2537C39.1951 42.4635 34.1611 47.4976 27.9512 47.4976C21.7414 47.4976 16.7073 42.4635 16.7073 36.2537C16.7073 30.0438 21.7414 25.0098 27.9512 25.0098C28.3666 25.0098 28.7791 25.0323 29.1875 25.077C28.2695 22.5781 28.1883 19.938 28.8272 17.4974ZM27.9512 27.0098C22.846 27.0098 18.7073 31.1484 18.7073 36.2537C18.7073 41.3589 22.846 45.4976 27.9512 45.4976C33.0565 45.4976 37.1951 41.3589 37.1951 36.2537C37.1951 34.9445 36.9234 33.6757 36.405 32.5078C33.9127 31.5141 31.7273 29.7315 30.2573 27.3023L30.3869 27.3337C29.6002 27.1195 28.7834 27.0098 27.9512 27.0098ZM27.9512 29.7659C31.5343 29.7659 34.439 32.6705 34.439 36.2537C34.439 39.8368 31.5343 42.7415 27.9512 42.7415C24.3681 42.7415 21.4634 39.8368 21.4634 36.2537C21.4634 32.6705 24.3681 29.7659 27.9512 29.7659ZM27.9512 31.7659C25.4727 31.7659 23.4634 33.7751 23.4634 36.2537C23.4634 38.7322 25.4727 40.7415 27.9512 40.7415C30.4298 40.7415 32.439 38.7322 32.439 36.2537C32.439 33.7751 30.4298 31.7659 27.9512 31.7659ZM41.1161 24.4293C41.9415 24.4293 42.5824 25.0615 42.5824 25.8868C42.5824 26.7122 41.9415 27.362 41.1161 27.362C40.2907 27.362 39.6585 26.7122 39.6585 25.8868C39.6585 25.0615 40.2907 24.4293 41.1161 24.4293ZM42.2751 14.5951V23.1034H39.9834V14.5951H42.2751Z" fill="#979797"/>
</svg>
