<svg width="60" height="60" viewBox="0 0 60 60" fill="none" xmlns="http://www.w3.org/2000/svg">
<rect width="60" height="60" fill="white"/>
<path fill-rule="evenodd" clip-rule="evenodd" d="M13.6391 30L7.69458 39.1602C7.69458 39.1602 6.13589 42.0787 6.7552 44.8233C7.37452 47.5679 9.67254 50.6771 13.2502 51.5424C16.8279 52.4078 20.9355 51.5762 23.0025 50.5858C25.0695 49.5954 26.487 47.3405 26.9347 45.6474C27.3824 43.9542 27.0394 40.6765 25.2995 38.1224C23.5596 35.5684 19.9521 30 19.9521 30H13.6391Z" fill="#D8D8D8"/>
<path fill-rule="evenodd" clip-rule="evenodd" d="M14.1144 30H19.2887L23.4717 23H11.5547L14.1144 30Z" fill="#D8D8D8"/>
<path fill-rule="evenodd" clip-rule="evenodd" d="M38.2963 16.999L41.2054 8H22.1478L25.2463 17.659L22.459 21.999L9.89302 22L12.166 28.999L9.91217 29V31L11.2785 30.9983L11.1395 31.2088L11.1389 31.2098C10.9155 31.5484 10.6418 31.9632 10.5184 32.148L10.0154 32.8918C9.7592 33.2657 9.49194 33.6482 9.19574 34.0642L7.77882 36.0596L7.22281 36.881C6.95828 37.2825 6.72968 37.6482 6.53288 37.9875C5.4761 39.8094 5 41.2589 5 43.0519C5 47.5298 7.23765 50.6677 11.0102 52.0511C12.4653 52.5847 13.8484 52.7542 16.2554 52.7806L17.0093 52.7844C19.8849 52.7844 20.7936 52.6323 22.5214 51.7235C22.7173 51.6205 22.9086 51.5126 23.0956 51.3994C23.4601 51.5314 23.7815 51.6349 24.0622 51.71C26.1262 52.2622 28.1289 52.4078 31.8037 52.4078L32.2268 52.4071C36.6593 52.3908 38.5348 52.1029 40.9184 50.8491C43.8547 49.3045 46.0587 47.043 47.3073 44.1248C46.4337 44.5563 45.5 44.8846 44.5221 45.0938C43.4234 46.7493 41.8884 48.079 39.9873 49.079C37.8988 50.1775 36.2373 50.4078 31.8037 50.4078L31.3904 50.4072C28.4149 50.3973 26.659 50.2751 25.0228 49.8894C26.7033 48.1844 27.6565 45.8806 27.6565 43.0519C27.6565 42.1113 27.4419 41.1301 27.0395 40.0911C26.539 38.799 25.8035 37.5146 24.6876 35.8527C24.6697 35.8261 24.5942 35.7158 24.4832 35.5535L24.4832 35.5535L24.4819 35.5516L24.4817 35.5514L24.4814 35.5508C24.1399 35.0518 23.4658 34.0663 23.094 33.5086L22.7701 33.0117C22.311 32.302 21.7087 31.4132 20.9624 30.3439L20.2519 29.3328L20.25 29.313L23.657 23.835L26.7623 19L36.0563 18.9989C36.3767 19.5267 36.7685 20.1325 37.3025 20.9345L38.0351 22.0297C38.6969 21.7982 39.3851 21.6229 40.094 21.5098L39.122 20.0581L38.4214 18.998L41.5 19V17L38.2963 16.999ZM13.4811 31.3052L13.6944 30.9989L18.98 30.9998C19.7062 32.0332 20.3068 32.9086 20.7811 33.625L21.331 34.4689L23.2607 37.3185C24.1692 38.6968 24.7731 39.7771 25.1745 40.8135C25.4937 41.6376 25.6565 42.382 25.6565 43.0519C25.6565 46.305 24.1615 48.601 21.5903 49.9535C20.3177 50.6229 19.6932 50.7639 17.5923 50.7822L17.0093 50.7844C14.3489 50.7844 13.0127 50.6552 11.6988 50.1734C8.70671 49.0762 7 46.6828 7 43.0519C7 41.6553 7.36888 40.5323 8.26292 38.991C8.52897 38.5323 8.87026 38.0033 9.2964 37.382L9.69489 36.8089L11.1192 34.8085C11.5004 34.2666 11.8404 33.7697 12.1816 33.2588C12.3096 33.0671 12.5904 32.6415 12.8151 32.3009L12.8154 32.3004L12.9597 32.0817L13.4811 31.3052ZM20.055 40.288C20.055 38.632 18.951 37.6 16.875 37.6H13.221V46H15.225V42.856H15.519L17.733 46H20.121L17.709 42.796L17.9016 42.7608C19.2865 42.4739 20.055 41.5621 20.055 40.288ZM15.225 39.418H16.851C17.559 39.418 18.015 39.694 18.015 40.288C18.015 40.888 17.571 41.17 16.851 41.17H15.225V39.418ZM21.2002 24H12.6458L14.27 28.999H18.089L21.2002 24ZM24.8897 10H38.4571L36.1943 16.999H27.1343L24.8897 10ZM40.8204 22.8834L41.5764 22.7792C42.541 22.6463 43.4619 22.6463 44.4281 22.7802L45.1834 22.8849L45.528 25.52C45.8685 25.6359 46.1938 25.7711 46.511 25.928L48.6194 24.3088L49.2276 24.7691C49.9895 25.3458 50.6687 26.0252 51.2446 26.7871L51.7043 27.3952L50.084 29.503C50.2414 29.8213 50.3763 30.1464 50.491 30.485L53.1262 30.83L53.2307 31.5856C53.3648 32.556 53.3636 33.4775 53.2306 34.4384L53.1261 35.194L50.491 35.538C50.3763 35.8777 50.2414 36.2028 50.084 36.52L51.7043 38.6288L51.2446 39.2369C50.6687 39.9988 49.9895 40.6782 49.2276 41.2549L48.6194 41.7151L46.511 40.095C46.1937 40.253 45.8685 40.3882 45.528 40.503L45.1834 43.1392L44.4281 43.2439C43.462 43.3778 42.5411 43.3778 41.5764 43.2449L40.8204 43.1407L40.475 40.505C40.135 40.3909 39.8092 40.2558 39.489 40.097L37.3811 41.7177L36.773 41.2579C36.0115 40.6822 35.3229 39.991 34.756 39.2418L34.2957 38.6337L35.915 36.525C35.7567 36.206 35.6213 35.88 35.506 35.537L32.8705 35.1931L32.766 34.4375C32.6346 33.487 32.637 32.5201 32.766 31.5867L32.8704 30.831L35.506 30.486C35.6213 30.1441 35.7567 29.8181 35.915 29.498L34.2957 27.3905L34.756 26.7823C35.3323 26.021 36.0237 25.3327 36.773 24.7662L37.381 24.3065L39.489 25.926C39.8091 25.7683 40.1349 25.6332 40.475 25.518L40.8204 22.8834ZM43.7193 27.1098L43.402 24.69L43.1278 24.6807C42.9588 24.678 42.79 24.6806 42.6206 24.6886L42.6 24.689L42.2845 27.1087L41.6156 27.2692C41.0154 27.4133 40.4455 27.6502 39.9208 27.9713L39.3345 28.3302L37.4 26.843L37.231 27.0007C37.1515 27.0771 37.0732 27.1552 36.9965 27.2348L36.833 27.41L38.3197 29.3442L37.96 29.9307C37.6382 30.4555 37.4008 31.0258 37.2563 31.6267L37.0955 32.2952L34.678 32.611L34.6694 32.8784C34.6667 33.0496 34.6692 33.2213 34.6769 33.393L34.677 33.412L37.0955 33.729L37.2563 34.3975C37.4008 34.9984 37.6382 35.5686 37.96 36.0934L38.3197 36.68L36.833 38.613L36.9903 38.7829C37.0667 38.8624 37.1448 38.9406 37.2245 39.0172L37.4 39.18L39.3344 37.6939L39.9208 38.0527C40.4456 38.374 41.0154 38.6108 41.6156 38.7549L42.2845 38.9154L42.6 41.334L42.8744 41.3435C43.0434 41.3461 43.2121 41.3434 43.3817 41.3353L43.402 41.333L43.7193 38.9143L44.3873 38.7532C44.9867 38.6087 45.5556 38.3716 46.0792 38.0507L46.6657 37.6911L48.6 39.177L48.7999 38.9916C48.9226 38.8724 49.0418 38.7495 49.157 38.6231L49.168 38.611L47.6806 36.6754L48.0394 36.0891C48.3597 35.5657 48.5962 34.9971 48.7402 34.3982L48.9011 33.7298L51.32 33.412L51.3298 33.1416C51.3325 32.9726 51.3299 32.8037 51.3219 32.6338L51.319 32.61L48.9011 32.2942L48.7402 31.6258C48.5962 31.027 48.3597 30.4584 48.0393 29.9349L47.6806 29.3485L49.168 27.412L48.9813 27.2139C48.8622 27.0911 48.7394 26.9719 48.613 26.8566L48.6 26.846L46.6658 28.333L46.0793 27.9734C45.5557 27.6524 44.9867 27.4154 44.3873 27.2709L43.7193 27.1098ZM38.5419 33.012C38.5419 30.5507 40.5372 28.5555 42.9984 28.5555C45.4597 28.5555 47.4549 30.5507 47.4549 33.012C47.4549 35.4733 45.4597 37.4685 42.9984 37.4685C40.5372 37.4685 38.5419 35.4733 38.5419 33.012ZM45.4549 33.012C45.4549 31.6553 44.3551 30.5555 42.9984 30.5555C41.6417 30.5555 40.5419 31.6553 40.5419 33.012C40.5419 34.3687 41.6417 35.4685 42.9984 35.4685C44.3551 35.4685 45.4549 34.3687 45.4549 33.012Z" fill="#979797"/>
</svg>
