<svg width="60" height="60" viewBox="0 0 60 60" fill="none" xmlns="http://www.w3.org/2000/svg">
<rect width="60" height="60" fill="white"/>
<path fill-rule="evenodd" clip-rule="evenodd" d="M37.9466 30.076C38.2599 30.2718 38.2599 30.7282 37.9466 30.924L26.39 38.1469C26.057 38.355 25.625 38.1156 25.625 37.7229V23.2771C25.625 22.8844 26.057 22.645 26.39 22.8531L37.9466 30.076Z" fill="#339C63"/>
<path fill-rule="evenodd" clip-rule="evenodd" d="M26.9031 7.78022C28.8128 7.51712 30.6379 7.49329 32.5347 7.71015L33.1061 7.78243L33.8614 7.88709L34.6339 13.7932L34.983 13.8951C35.9908 14.2063 36.964 14.611 37.8931 15.1038L38.2059 15.2762L42.9306 11.6455L43.5388 12.1058C45.0452 13.2459 46.4029 14.5708 47.5784 16.0472L47.9255 16.4946L48.3852 17.1026L44.7529 21.8282L44.926 22.1416C45.4177 23.0703 45.8215 24.0429 46.1319 25.0497L46.2319 25.3962L52.2521 26.1845V29.2381H50.2521L50.2519 27.9392L44.6272 27.2038L44.4664 26.5354C44.1435 25.1932 43.6364 23.9111 42.9606 22.7159L42.6993 22.2719L42.3405 21.6856L45.8599 17.1052L45.6209 16.8145C44.8878 15.9486 44.0839 15.1444 43.218 14.4106L42.9259 14.1702L38.3482 17.6903L37.7617 17.3307C36.5886 16.6116 35.3244 16.0594 33.9963 15.6896L33.4953 15.5595L32.8274 15.3985L32.0779 9.67324L31.6896 9.63564C30.5571 9.5397 29.4481 9.53948 28.3167 9.63461L27.9299 9.67124L27.1814 15.3948L26.5125 15.5553C25.1669 15.8783 23.8817 16.3862 22.6841 17.0636L22.2391 17.3255L21.6528 17.6844L17.0729 14.1642L16.7922 14.3964C15.9315 15.1257 15.1189 15.9361 14.3814 16.8044L14.1399 17.0962L17.6593 21.6748L17.2996 22.2614C16.5787 23.4371 16.0255 24.7042 15.6555 26.0354L15.5254 26.5376L15.3646 27.2061L9.6419 27.9542L9.60746 28.3188C9.51463 29.4429 9.51316 30.5847 9.6061 31.721L9.6419 32.1002L15.3646 32.85L15.5254 33.5185C15.8493 34.8654 16.3584 36.1514 17.0372 37.3496L17.2996 37.7947L17.6593 38.3813L14.1399 42.9592L14.372 43.2406C15.1019 44.1011 15.9127 44.9134 16.7811 45.6503L17.0729 45.8902L21.6527 42.3715L22.2391 42.7304C23.4147 43.4499 24.6809 44.0019 26.0108 44.3708L26.5125 44.5005L27.1814 44.6611L27.9299 50.3832L28.2095 50.412C28.5508 50.4425 28.8893 50.4643 29.2264 50.4774L29.731 50.4907L29.704 52.4905C28.9655 52.4805 28.2245 52.4329 27.4709 52.3471L26.9031 52.2757L26.1471 52.1715L25.3739 46.2672L25.0254 46.1662C24.0163 45.8555 23.0414 45.451 22.1107 44.9582L21.7939 44.7842L17.0699 48.4162L16.4618 47.9565C14.9571 46.8189 13.5814 45.4718 12.4178 44.0128L12.0752 43.5719L11.6149 42.9637L15.2449 38.2392L15.0716 37.9242C14.5777 36.9931 14.1723 36.0176 13.8608 35.0074L13.7579 34.6562L7.85392 33.8841L7.74946 33.1285C7.49231 31.2683 7.47079 29.3778 7.67358 27.5386L7.74946 26.9276L7.8539 26.1719L13.7589 25.3982L13.8608 25.0486C14.1723 24.0385 14.5777 23.063 15.0716 22.1319L15.2449 21.8152L11.6149 17.0923L12.0752 16.4841C13.214 14.9796 14.5616 13.6046 16.0208 12.4419L16.4618 12.0996L17.0699 11.6399L21.7939 15.2702L22.1105 15.0977C23.0412 14.6049 24.0161 14.2004 25.0253 13.8897L25.3739 13.7882L26.1471 7.88438L26.9031 7.78022ZM54.6185 37.1329C56.2373 35.6296 56.331 33.0987 54.8277 31.4799L54.4386 31.0608C52.9411 29.4483 50.4224 29.3482 48.8017 30.8368L31.611 46.626C30.7863 47.3835 30.3168 48.4521 30.3168 49.5719V52.8859C30.3168 53.4382 30.7645 53.8859 31.3168 53.8859H34.8464C35.8496 53.8859 36.8161 53.5089 37.5544 52.8298L54.6046 37.1457L54.6185 37.1329ZM36.2004 51.3578C35.8313 51.6974 35.348 51.8859 34.8464 51.8859H32.3168V49.5719C32.3168 49.012 32.5515 48.4777 32.9639 48.099L50.1546 32.3097C50.9649 31.5655 52.2243 31.6155 52.973 32.4218L53.3622 32.8408C54.1138 33.6502 54.0669 34.9157 53.2506 35.6737L36.2004 51.3578ZM38.6982 29.4497L27.1416 22.2269C26.9032 22.0779 26.6277 21.9989 26.3466 21.9989C25.5182 21.9989 24.8466 22.6704 24.8466 23.4989V37.9446C24.8466 38.2257 24.9256 38.5012 25.0746 38.7396C25.5137 39.4421 26.4391 39.6557 27.1416 39.2166L38.6982 31.9937C38.8914 31.873 39.0545 31.7099 39.1752 31.5167C39.6143 30.8142 39.4007 29.8888 38.6982 29.4497ZM36.9606 30.7217L26.8466 37.0427V24.3997L36.9606 30.7217Z" fill="white"/>
</svg>
