<svg width="60" height="60" viewBox="0 0 60 60" fill="none" xmlns="http://www.w3.org/2000/svg">
<rect width="60" height="60" fill="white"/>
<path fill-rule="evenodd" clip-rule="evenodd" d="M52.4922 35.0835C53.8635 35.0835 54.9795 36.156 54.9795 37.5273L53.879 48.9689C53.879 50.3419 52.7628 51.4168 51.3916 51.4168H38.6323C37.261 51.4168 36.1444 50.3198 36.1444 48.9469L35.0438 37.5179C35.0438 36.1466 36.1605 35.0835 37.5318 35.0835H52.4922Z" fill="#D8D8D8"/>
<path fill-rule="evenodd" clip-rule="evenodd" d="M27.6162 5.49587C28.5773 4.11239 30.7728 4.11239 31.7343 5.49582C35.6862 11.1837 40.4587 13.5095 45.4889 13.5095C46.2565 13.5095 46.9626 13.4491 47.5891 13.3489L47.8785 13.2988C47.9659 13.2824 48.0437 13.2667 48.1106 13.2522L48.3329 13.1983C49.8905 12.7554 51.4301 13.873 51.531 15.4429L51.5363 15.6069V29.4159C51.5493 29.5679 51.5559 29.7213 51.5559 29.8761H49.5559L49.5537 29.7983H49.5363V29.5146C49.3256 27.5804 47.4515 25.9733 45.3056 25.9733C43.0265 25.9733 41.0559 27.7842 41.0559 29.8761V34.0834H52.5433C54.47 34.0834 56.0307 35.6064 56.0307 37.5272L54.9255 49.0646C54.9301 50.8911 53.3696 52.4167 51.4428 52.4167H38.7083C36.8197 53.6368 34.893 54.6272 33.0192 55.4089L32.4853 55.6267C31.5393 56.0038 30.7808 56.2579 30.334 56.3815C30.1189 56.4401 29.8969 56.4697 29.6744 56.4697C29.4517 56.4697 29.2299 56.4401 29.0088 56.3799C28.3029 56.1827 27.0909 55.757 25.5881 55.089C23.1192 53.9917 20.6571 52.5764 18.3593 50.8062C11.8987 45.829 7.95948 39.0577 7.81838 30.2876L7.81445 29.7983V15.6071C7.81445 13.9281 9.43257 12.7273 11.0711 13.2151C15.6637 14.7718 22.9157 12.2612 27.6162 5.49587ZM36.3444 51.523C35.6389 50.8891 35.1955 49.9715 35.1955 48.9468L34.0996 37.6136C34.0974 36.6414 34.4591 35.7859 35.0505 35.1607C35.0437 35.1163 35.0408 35.0708 35.0422 35.0244C35.0821 33.6959 34.9722 32.3696 34.7082 31.0601C34.1825 28.449 31.6398 26.7593 29.0289 27.2857C26.5593 27.7837 24.9139 30.0862 25.1888 32.5435L25.2136 32.7301L25.2615 32.9647C25.8135 35.7024 24.8453 38.4764 22.7969 40.283L22.5812 40.4664C22.2608 40.7288 21.7882 40.6819 21.5257 40.3615C21.2632 40.041 21.3102 39.5685 21.6306 39.306C23.2697 37.9633 24.1202 35.8812 23.8719 33.7685L23.8386 33.5311L23.7846 33.2625C23.1097 29.9157 25.2125 26.6537 28.5061 25.8652L28.7325 25.8153C32.1555 25.1251 35.4894 27.3406 36.1786 30.7638C36.4101 31.9121 36.5326 33.0723 36.5484 34.2355C36.8752 34.1363 37.2227 34.0834 37.5829 34.0834H39.0559V29.8761L39.0604 29.6564C39.087 29.0031 39.2316 28.3753 39.4734 27.7909C37.5253 23.3957 32.7421 20.8617 27.9292 21.8321C26.4628 22.1277 25.1026 22.7271 23.9104 23.5873C23.5745 23.8296 23.1058 23.7538 22.8634 23.4179C22.621 23.082 22.6969 22.6132 23.0328 22.3709C24.3971 21.3865 25.9551 20.6999 27.6328 20.3617C32.8003 19.3197 37.9371 21.8073 40.3942 26.2738C41.5563 24.8784 43.3553 23.9733 45.3056 23.9733C46.9072 23.9733 48.4073 24.5842 49.5363 25.5758V15.6069C49.5363 15.2759 49.2106 15.028 48.8852 15.1205C48.2126 15.3158 47.0017 15.5095 45.4889 15.5095C39.8236 15.5095 34.4302 12.8811 30.0919 6.63711C29.9261 6.39864 29.4243 6.39864 29.2587 6.637C24.0564 14.1246 15.8776 16.9561 10.4651 15.1207C10.1694 15.0328 9.86909 15.23 9.82109 15.5245L9.81445 15.6071V29.7983C9.81445 38.1344 13.4599 44.507 19.5799 49.2218C21.7425 50.8879 24.0686 52.225 26.4004 53.2614C27.2211 53.6262 27.9847 53.9273 28.6713 54.1685L29.0903 54.3115C29.2947 54.379 29.4492 54.4263 29.5407 54.4519C29.5841 54.4637 29.629 54.4697 29.6744 54.4697C29.7196 54.4697 29.7648 54.4637 29.8045 54.4529L30.2198 54.3241L30.4744 54.239C31.0043 54.0583 31.6003 53.8339 32.2491 53.5632C33.5971 53.0008 34.9757 52.3231 36.3444 51.523ZM29.8366 31.2774C30.2426 31.1955 30.6381 31.4583 30.72 31.8643C31.5504 35.9825 30.3911 40.1712 27.6703 43.2679C27.3969 43.5791 26.923 43.6097 26.6119 43.3363C26.3007 43.0629 26.2701 42.589 26.5435 42.2778C28.9585 39.5292 29.9864 35.8151 29.2496 32.1608C29.1677 31.7548 29.4305 31.3592 29.8366 31.2774ZM33.409 31.1235C32.9415 29.3152 31.1351 28.1685 29.2823 28.5421C27.3655 28.9286 26.125 30.7956 26.5116 32.7125L26.6555 33.4258L27.0396 33.3601L27.1134 33.3806C27.2087 33.4009 27.3095 33.4029 27.4112 33.3834C27.818 33.3052 28.0844 32.9121 28.006 32.5037L27.9536 32.2311L27.9441 32.1159C27.8924 31.1226 28.5745 30.215 29.5787 30.0125L29.7291 29.9879C30.7294 29.8618 31.6751 30.4901 31.9465 31.4611L31.9626 31.5321L32.0524 32.0016C32.7096 35.7832 31.8534 39.6008 29.7188 42.7203C29.4849 43.0622 29.5724 43.5289 29.9143 43.7628C30.2561 43.9968 30.7229 43.9093 30.9568 43.5674L31.1806 43.2315C33.3013 39.961 34.1765 36.0338 33.5914 32.1228L33.5606 31.9381L33.5774 31.9324L33.4525 31.3128L33.409 31.1235ZM27.4388 33.6465C27.853 33.6421 28.1923 33.9743 28.1968 34.3885C28.2283 37.3417 27.006 40.1636 24.8641 42.1676C24.5617 42.4506 24.087 42.4349 23.804 42.1324C23.521 41.8299 23.5368 41.3553 23.8393 41.0723C25.6758 39.354 26.7239 36.9344 26.6968 34.4045C26.6924 33.9903 27.0246 33.6509 27.4388 33.6465ZM32.2787 23.9521C32.4277 23.5656 32.8618 23.3732 33.2483 23.5222C36.1351 24.6357 38.2844 27.1287 38.9063 30.2134C38.9882 30.6195 38.7254 31.015 38.3193 31.0969C37.9133 31.1787 37.5178 30.916 37.4359 30.5099C36.9165 27.9338 35.1225 25.8528 32.7085 24.9217C32.322 24.7727 32.1296 24.3385 32.2787 23.9521ZM31.3939 23.0268C30.3225 22.8583 29.2427 22.8747 28.1826 23.0885C24.6415 23.8025 21.9036 26.5245 21.111 29.9892C21.0186 30.393 21.2711 30.7952 21.6748 30.8876C22.0786 30.98 22.4808 30.7275 22.5732 30.3237C23.2356 27.4282 25.5219 25.1552 28.4791 24.5589C29.3615 24.381 30.2622 24.3672 31.1608 24.5086C31.5699 24.5729 31.9538 24.2934 32.0182 23.8842C32.0826 23.475 31.803 23.0912 31.3939 23.0268ZM21.6396 31.1526C22.0538 31.1577 22.3854 31.4976 22.3803 31.9117C22.375 32.3467 22.4049 32.7763 22.4713 33.1997L22.4916 33.3181L22.5322 33.5152C22.8759 35.2197 22.2982 36.9477 21.0554 38.1046L20.8818 38.2588C20.5658 38.5266 20.0926 38.4874 19.8248 38.1714C19.557 37.8554 19.5961 37.3821 19.9122 37.1144C20.8055 36.3574 21.2572 35.1989 21.0987 34.0307L21.0575 33.8124C20.9558 33.308 20.8985 32.7971 20.8836 32.2812L20.8805 31.8934C20.8855 31.4792 21.2254 31.1476 21.6396 31.1526ZM21.6025 23.5844C21.896 23.2922 22.3708 23.2931 22.6631 23.5866C22.9554 23.8801 22.9544 24.355 22.6609 24.6473C20.3583 26.9404 19.2462 30.1713 19.6911 33.4169L19.7376 33.7231L19.8544 34.2876L19.9064 34.5081C20.0058 34.9102 19.7604 35.3168 19.3583 35.4162C19.0568 35.4908 18.7527 35.3715 18.5775 35.1375L18.5416 35.0831L18.4785 35.0965L18.3305 34.3624C17.5322 30.4039 18.7933 26.382 21.6025 23.5844ZM41.2852 42.8415L43.7378 44.9L48.2332 39.5436L49.7653 40.8292L43.985 47.7178L39.9996 44.3736L41.2852 42.8415ZM52.5433 36.0834H37.5829C36.7468 36.0834 36.095 36.7158 36.095 37.5178L37.1909 48.8509C37.1955 49.7611 37.8581 50.4167 38.6834 50.4167H51.4428C52.275 50.4167 52.9301 49.7763 52.9301 48.9688L54.0353 37.4315C54.0307 36.722 53.3762 36.0834 52.5433 36.0834Z" fill="#979797"/>
</svg>
