<svg width="60" height="60" viewBox="0 0 60 60" fill="none" xmlns="http://www.w3.org/2000/svg">
<rect width="60" height="60" fill="white"/>
<path fill-rule="evenodd" clip-rule="evenodd" d="M58.0124 42.6921L54.7265 43.122C54.5048 44.0437 54.1416 44.9081 53.6603 45.6946L55.6813 48.3242C55.0045 49.2195 54.2065 50.0177 53.3116 50.695L50.6826 48.6744C49.8957 49.1569 49.0308 49.5207 48.1084 49.7432L47.6783 53.0296C46.5366 53.1878 45.4591 53.1867 44.3271 53.0307L43.8972 49.7456C42.9732 49.5239 42.107 49.1601 41.3186 48.6776L38.6892 50.6985C37.7748 50.0073 36.9689 49.1881 36.3196 48.3301L38.34 45.7012C37.8564 44.9126 37.4919 44.0457 37.2695 43.121L33.9838 42.691C33.8254 41.5452 33.8365 40.4069 33.9838 39.3409L37.2695 38.9109C37.4919 37.9862 37.8564 37.1193 38.34 36.3306L36.3196 33.7018C37.0114 32.7878 37.8307 31.9823 38.6892 31.3333L41.3186 33.3542C42.1069 32.8716 42.9732 32.5079 43.8972 32.2861L44.3271 29.001C45.4594 28.845 46.5368 28.844 47.6783 29.0022L48.1084 32.2886C49.0309 32.511 49.8958 32.8749 50.6828 33.3573L53.3116 31.3367C54.2065 32.014 55.0045 32.8122 55.6813 33.7074L53.6603 36.337C54.1416 37.1236 54.5048 37.9879 54.7265 38.9096L58.0124 39.3396C58.1726 40.4984 58.1666 41.5769 58.0124 42.6921ZM42.5048 41.0158C42.5048 39.0864 44.0688 37.5224 45.9982 37.5224C47.9276 37.5224 49.4917 39.0864 49.4917 41.0158C49.4917 42.9452 47.9276 44.5093 45.9982 44.5093C44.0688 44.5093 42.5048 42.9452 42.5048 41.0158ZM45.9982 35.5224C42.9643 35.5224 40.5048 37.9819 40.5048 41.0158C40.5048 44.0498 42.9643 46.5093 45.9982 46.5093C49.0322 46.5093 51.4917 44.0498 51.4917 41.0158C51.4917 37.9819 49.0322 35.5224 45.9982 35.5224Z" fill="#339C63"/>
<path fill-rule="evenodd" clip-rule="evenodd" d="M27.6162 5.49587C28.5773 4.11239 30.7728 4.11239 31.7343 5.49582C35.6862 11.1837 40.4587 13.5095 45.4889 13.5095C46.2565 13.5095 46.9626 13.4491 47.5891 13.3489L47.8785 13.2988C47.9659 13.2824 48.0437 13.2667 48.1106 13.2522L48.3329 13.1983C49.8905 12.7554 51.4301 13.873 51.531 15.4429L51.5363 15.6069V27.055C50.8904 26.7984 50.2226 26.5853 49.5363 26.4194V15.6069C49.5363 15.2759 49.2106 15.028 48.8852 15.1205C48.2126 15.3158 47.0017 15.5095 45.4889 15.5095C39.8236 15.5095 34.4302 12.8811 30.0919 6.63711C29.9261 6.39864 29.4243 6.39864 29.2587 6.637C24.0564 14.1246 15.8776 16.9561 10.4651 15.1207C10.1694 15.0328 9.86909 15.23 9.82109 15.5245L9.81445 15.6071V29.7983C9.81445 38.1344 13.4599 44.507 19.5799 49.2218C21.7425 50.8879 24.0686 52.225 26.4004 53.2614C27.2211 53.6262 27.9847 53.9273 28.6713 54.1685L29.0903 54.3115C29.2947 54.379 29.4492 54.4263 29.5407 54.4519C29.5841 54.4637 29.629 54.4697 29.6744 54.4697C29.7196 54.4697 29.7648 54.4637 29.8045 54.4529L30.2198 54.3241L30.4744 54.239C31.0043 54.0583 31.6003 53.8339 32.2491 53.5632C33.3825 53.0903 34.5376 52.536 35.6902 51.8958C36.2086 52.3865 36.762 52.8406 37.3463 53.2539C35.9 54.0991 34.4443 54.8144 33.0192 55.4089L32.4853 55.6267C31.5393 56.0038 30.7808 56.2579 30.334 56.3815C30.1189 56.4401 29.8969 56.4697 29.6744 56.4697C29.4517 56.4697 29.2299 56.4401 29.0088 56.3799C28.3029 56.1827 27.0909 55.757 25.5881 55.089C23.1192 53.9917 20.6571 52.5764 18.3593 50.8062C11.8987 45.829 7.95948 39.0577 7.81838 30.2876L7.81445 29.7983V15.6071C7.81445 13.9281 9.43257 12.7273 11.0711 13.2151C15.6637 14.7718 22.9157 12.2612 27.6162 5.49587ZM35.9334 29.8792C35.5053 30.2669 35.0997 30.679 34.7188 31.1133L34.7082 31.0601C34.1825 28.449 31.6398 26.7593 29.0289 27.2857C26.5593 27.7837 24.9139 30.0862 25.1888 32.5435L25.2136 32.7301L25.2615 32.9647C25.8135 35.7024 24.8453 38.4764 22.7969 40.283L22.5812 40.4664C22.2608 40.7288 21.7882 40.6819 21.5257 40.3615C21.2632 40.041 21.3102 39.5685 21.6306 39.306C23.2697 37.9633 24.1202 35.8812 23.8719 33.7685L23.8386 33.5311L23.7846 33.2625C23.1097 29.9157 25.2125 26.6537 28.5061 25.8652L28.7325 25.8153C31.8507 25.1866 34.8949 26.9691 35.9334 29.8792ZM38.2333 28.1646C37.798 28.4285 37.3773 28.7139 36.9725 29.0194C36.1689 27.1424 34.6364 25.6654 32.7085 24.9217C32.322 24.7727 32.1296 24.3385 32.2787 23.9521C32.4277 23.5656 32.8618 23.3732 33.2483 23.5222C35.4628 24.3764 37.2433 26.0424 38.2333 28.1646ZM40.7379 26.9489C40.2672 27.1252 39.8077 27.3246 39.3608 27.5455C37.3458 23.3018 32.6518 20.8799 27.9292 21.8321C26.4628 22.1277 25.1026 22.7271 23.9104 23.5873C23.5745 23.8296 23.1058 23.7538 22.8634 23.4179C22.621 23.082 22.6969 22.6132 23.0328 22.3709C24.3971 21.3865 25.9551 20.6999 27.6328 20.3617C33.0552 19.2684 38.4437 22.0612 40.7379 26.9489ZM33.6426 32.4944C33.1081 33.2695 32.6446 34.0974 32.2615 34.9686C32.2929 33.9859 32.2246 32.9925 32.0524 32.0016L31.9626 31.5321L31.9465 31.4611C31.6751 30.4901 30.7294 29.8618 29.7291 29.9879L29.5787 30.0125C28.5745 30.215 27.8924 31.1226 27.9441 32.1159L27.9536 32.2311L28.006 32.5037C28.0844 32.9121 27.818 33.3052 27.4112 33.3834C27.3095 33.4029 27.2087 33.4009 27.1134 33.3806L27.0396 33.3601L26.6555 33.4258L26.5116 32.7125C26.125 30.7956 27.3655 28.9286 29.2823 28.5421C31.1351 28.1685 32.9415 29.3152 33.409 31.1235L33.4525 31.3128L33.5774 31.9324L33.5606 31.9381L33.5914 32.1228C33.6099 32.2466 33.627 32.3706 33.6426 32.4944ZM31.011 40.4102C31.0034 40.6059 30.9996 40.8025 30.9996 41.0001C30.9996 41.7652 31.0569 42.5169 31.1674 43.2512L30.9568 43.5674C30.7229 43.9093 30.2561 43.9968 29.9143 43.7628C29.5724 43.5289 29.4849 43.0622 29.7188 42.7203C30.2215 41.9858 30.6532 41.2126 31.011 40.4102ZM29.8366 31.2774C30.2426 31.1955 30.6381 31.4583 30.72 31.8643C31.5504 35.9825 30.3911 40.1712 27.6703 43.2679C27.3969 43.5791 26.923 43.6097 26.6119 43.3363C26.3007 43.0629 26.2701 42.589 26.5435 42.2778C28.9585 39.5292 29.9864 35.8151 29.2496 32.1608C29.1677 31.7548 29.4305 31.3592 29.8366 31.2774ZM27.4388 33.6465C27.853 33.6421 28.1923 33.9743 28.1968 34.3885C28.2283 37.3417 27.006 40.1636 24.8641 42.1676C24.5617 42.4506 24.087 42.4349 23.804 42.1324C23.521 41.8299 23.5368 41.3553 23.8393 41.0723C25.6758 39.354 26.7239 36.9344 26.6968 34.4045C26.6924 33.9903 27.0246 33.6509 27.4388 33.6465ZM31.3939 23.0268C30.3225 22.8583 29.2427 22.8747 28.1826 23.0885C24.6415 23.8025 21.9036 26.5245 21.111 29.9892C21.0186 30.393 21.2711 30.7952 21.6748 30.8876C22.0786 30.98 22.4808 30.7275 22.5732 30.3237C23.2356 27.4282 25.5219 25.1552 28.4791 24.5589C29.3615 24.381 30.2622 24.3672 31.1608 24.5086C31.5699 24.5729 31.9538 24.2934 32.0182 23.8842C32.0826 23.475 31.803 23.0912 31.3939 23.0268ZM21.6396 31.1526C22.0538 31.1577 22.3854 31.4976 22.3803 31.9117C22.375 32.3467 22.4049 32.7763 22.4713 33.1997L22.4916 33.3181L22.5322 33.5152C22.8759 35.2197 22.2982 36.9477 21.0554 38.1046L20.8818 38.2588C20.5658 38.5266 20.0926 38.4874 19.8248 38.1714C19.557 37.8554 19.5961 37.3821 19.9122 37.1144C20.8055 36.3574 21.2572 35.1989 21.0987 34.0307L21.0575 33.8124C20.9558 33.308 20.8985 32.7971 20.8836 32.2812L20.8805 31.8934C20.8855 31.4792 21.2254 31.1476 21.6396 31.1526ZM21.6025 23.5844C21.896 23.2922 22.3708 23.2931 22.6631 23.5866C22.9554 23.8801 22.9544 24.355 22.6609 24.6473C20.3583 26.9404 19.2462 30.1713 19.6911 33.4169L19.7376 33.7231L19.8544 34.2876L19.9064 34.5081C20.0058 34.9102 19.7604 35.3168 19.3583 35.4162C19.0568 35.4908 18.7527 35.3715 18.5775 35.1375L18.5416 35.0831L18.4785 35.0965L18.3305 34.3624C17.5322 30.4039 18.7933 26.382 21.6025 23.5844ZM40.5041 41.0157C40.5041 37.9817 42.9636 35.5222 45.9975 35.5222C49.0315 35.5222 51.491 37.9817 51.491 41.0157C51.491 44.0496 49.0315 46.5091 45.9975 46.5091C42.9636 46.5091 40.5041 44.0496 40.5041 41.0157ZM49.491 41.0157C49.491 39.0863 47.9269 37.5222 45.9975 37.5222C44.0682 37.5222 42.5041 39.0863 42.5041 41.0157C42.5041 42.9451 44.0682 44.5091 45.9975 44.5091C47.9269 44.5091 49.491 42.9451 49.491 41.0157ZM38.6935 51.9558L41.4036 49.8721L41.4752 49.9106C41.9372 50.1461 42.4171 50.3451 42.9113 50.5058L42.9906 50.5291L43.4339 53.9171L44.1899 54.0212C45.4167 54.1903 46.5863 54.1903 47.815 54.0199L48.5703 53.9152L49.0126 50.5261L49.0929 50.5026C49.5864 50.3416 50.0655 50.1424 50.5267 49.907L50.5956 49.8691L53.3062 51.9525L53.9144 51.4922C54.8829 50.7592 55.7462 49.8956 56.4783 48.9271L56.938 48.319L54.8536 45.6081L54.8919 45.5388C55.1269 45.0779 55.3256 44.5991 55.4861 44.1059L55.5096 44.0271L58.8978 43.5845L59.0023 42.8289C59.1713 41.6068 59.1729 40.4365 59.0023 39.2025L58.8978 38.4469L55.5096 38.0031L55.4862 37.9255C55.3256 37.4324 55.1269 36.9536 54.892 36.4927L54.8546 36.4221L56.938 33.7123L56.4783 33.1043C55.7462 32.1358 54.8829 31.2721 53.9144 30.5391L53.3062 30.0789L50.5966 32.1611L50.5268 32.1245C50.0656 31.889 49.5865 31.6898 49.0929 31.5289L49.0126 31.5041L48.5703 28.1162L47.8149 28.0115C46.5862 27.8413 45.4166 27.8412 44.1899 28.0102L43.4339 28.1144L42.9906 31.5011L42.9113 31.5257C42.4169 31.6864 41.9371 31.8854 41.4751 32.1209L41.4026 32.1581L38.6935 30.0758L38.0854 30.5355C37.1332 31.2554 36.254 32.1305 35.5216 33.0981L35.0613 33.7063L37.1436 36.4161L37.1058 36.4872C36.8699 36.9495 36.6703 37.4297 36.5092 37.9244L36.4836 38.0051L33.097 38.4482L32.9926 39.2038C32.8286 40.3902 32.8256 41.6197 32.9926 42.8278L33.097 43.5834L36.4836 44.0261L36.5092 44.1072C36.6703 44.6019 36.8699 45.0821 37.1058 45.5443L37.1436 45.6151L35.0613 48.3252L35.5216 48.9334C36.2421 49.8854 37.1177 50.7645 38.0854 51.4961L38.6935 51.9558ZM46.6553 29.9037L46.7876 29.9141L47.2054 33.0995L47.8734 33.2606C48.6833 33.4559 49.4522 33.7761 50.1595 34.2097L50.746 34.5693L53.2926 32.6111L53.3895 32.6937C53.719 32.9866 54.031 33.2987 54.3237 33.6283L54.4056 33.7241L52.4479 36.2725L52.8067 36.8588C53.2394 37.5661 53.5589 38.3344 53.7536 39.1434L53.9144 39.8118L57.0986 40.2281L57.1099 40.3644C57.1364 40.8031 57.1362 41.2362 57.1096 41.6732L57.0986 41.8031L53.9144 42.2195L53.7536 42.888C53.5589 43.6971 53.2394 44.4654 52.8067 45.1725L52.4479 45.7588L54.4056 48.3061L54.3237 48.403C54.031 48.7326 53.719 49.0448 53.3895 49.3377L53.2926 49.4191L50.7459 47.4622L50.1594 47.8217C49.4521 48.2553 48.6832 48.5756 47.8734 48.7709L47.2054 48.9319L46.7876 52.1161L46.6554 52.1278C46.2175 52.1544 45.7846 52.1545 45.3471 52.1281L45.2156 52.1171L44.7988 48.9337L44.1299 48.7731C43.3189 48.5785 42.5489 48.2584 41.84 47.8245L41.2537 47.4656L38.7046 49.4231L38.6917 49.4129C38.3024 49.0732 37.9354 48.7057 37.5926 48.3131L39.5515 45.7649L39.1918 45.1784C38.7571 44.4694 38.4363 43.6989 38.2411 42.887L38.0803 42.2185L34.8966 41.8021L34.8875 41.6719C34.8618 41.2298 34.8622 40.7871 34.8881 40.3484L34.8966 40.2291L38.0803 39.8131L38.2411 39.1446C38.4363 38.3327 38.7571 37.5621 39.1918 36.8532L39.5515 36.2666L37.5926 33.7181L37.6045 33.7053C37.9445 33.3161 38.3122 32.9493 38.7056 32.6061L41.2537 34.5658L41.8401 34.2069C42.5488 33.7731 43.3189 33.453 44.1299 33.2583L44.7988 33.0978L45.2146 29.9131L45.347 29.9034C45.7846 29.877 46.2175 29.8771 46.6553 29.9037Z" fill="white"/>
</svg>
