<svg width="60" height="60" viewBox="0 0 60 60" fill="none" xmlns="http://www.w3.org/2000/svg">
<rect width="60" height="60" fill="white"/>
<path fill-rule="evenodd" clip-rule="evenodd" d="M29.4467 9.33486L46.9621 18.0826C47.4562 18.3294 47.6567 18.93 47.4099 19.4241C47.31 19.624 47.1461 19.7848 46.9441 19.8806L29.4288 28.1964C29.1574 28.3253 28.8425 28.3253 28.571 28.1964L11.0557 19.8806C10.5568 19.6438 10.3444 19.0473 10.5813 18.5484C10.6771 18.3465 10.8378 18.1825 11.0378 18.0826L28.5531 9.33486C28.8344 9.19437 29.1654 9.19437 29.4467 9.33486Z" fill="#B3D4F1"/>
<circle cx="41" cy="40" r="9" fill="#B3D4F1"/>
<path fill-rule="evenodd" clip-rule="evenodd" d="M29.8938 8.44023L29.7222 8.36437L29.5459 8.30536C29.0703 8.17048 28.5566 8.21544 28.1065 8.44023L10.5912 17.188L10.445 17.2688C10.113 17.4709 9.84588 17.7662 9.67813 18.1195L9.61653 18.2633C9.24615 19.2293 9.67676 20.3328 10.6271 20.784L16.6384 23.6375L10.5912 26.6585C10.1913 26.8583 9.86985 27.1862 9.67813 27.59C9.20439 28.5879 9.62924 29.7808 10.6271 30.2545L17.1814 33.3665L10.5912 36.6585C10.1913 36.8583 9.86985 37.1862 9.67813 37.59C9.20439 38.5879 9.62924 39.7808 10.6271 40.2545L28.1424 48.5703L28.3077 48.6399C28.8103 48.8254 29.3694 48.8022 29.8579 48.5703L33.643 46.773C35.4704 48.757 38.0901 50 41.0002 50C46.523 50 51.0002 45.5229 51.0002 40C51.0002 36.1265 48.7978 32.7674 45.577 31.1065L47.3733 30.2545C47.7771 30.0628 48.105 29.7413 48.3048 29.3414C48.7983 28.3532 48.3973 27.1521 47.4091 26.6585L41.3604 23.6375L47.3733 20.784L47.521 20.7061C47.8571 20.5107 48.13 20.2208 48.3048 19.8709C48.7983 18.8827 48.3973 17.6815 47.4091 17.188L29.8938 8.44023ZM33.0002 40C33.0002 35.5818 36.5819 32 41.0002 32C45.4184 32 49.0002 35.5818 49.0002 40C49.0002 44.4183 45.4184 48 41.0002 48C36.5819 48 33.0002 44.4183 33.0002 40ZM19.4764 34.4555L11.4848 38.4478L29.0002 46.7636L32.4208 45.1405C31.5188 43.6383 31.0002 41.8797 31.0002 40C31.0002 39.2884 31.0745 38.5941 31.2158 37.9246L29.8579 38.5703C29.3694 38.8022 28.8103 38.8254 28.3077 38.6399L28.1424 38.5703L19.4764 34.4555ZM40.7894 35.9142L39.3752 34.5L35.4861 38.3891L39.3752 42.2782L40.7894 40.864L39.3001 39.375H42.0448L42.1935 39.381C43.1249 39.4567 43.8573 40.2366 43.8573 41.1875C43.8573 42.1885 43.0458 43 42.0448 43H40.8395V45H42.0448L42.241 44.9951C44.2554 44.893 45.8573 43.2273 45.8573 41.1875C45.8573 39.0819 44.1504 37.375 42.0448 37.375H39.3281L40.7894 35.9142ZM39.0664 24.7265L29.8579 29.0998C29.3694 29.3317 28.8103 29.3549 28.3077 29.1693L28.1424 29.0998L18.9324 24.7275L11.4848 28.4478L29.0002 36.7636L32.2022 35.2425C33.8941 32.1203 37.1995 30 41.0002 30C41.6414 30 42.2685 30.0604 42.8762 30.1757L46.5155 28.4478L39.0664 24.7265ZM11.4848 18.9773L29.0002 10.2295L46.5155 18.9773L29.0002 27.2931L11.4848 18.9773Z" fill="#006FCF"/>
</svg>
