<svg width="60" height="60" viewBox="0 0 60 60" fill="none" xmlns="http://www.w3.org/2000/svg">
<rect width="60" height="60" fill="white"/>
<circle cx="45.625" cy="40.625" r="10.5" fill="#B3D4F1"/>
<circle cx="45.625" cy="40.625" r="10.5" fill="#B3D4F1"/>
<path fill-rule="evenodd" clip-rule="evenodd" d="M27.9342 4.53464C23.1403 11.4345 15.7427 13.9955 11.0554 12.4067C9.39869 11.9135 7.76221 13.1279 7.76221 14.8259V29.2849C7.76221 38.4565 11.7986 45.5125 18.4987 50.6742C20.8386 52.4768 23.3458 53.9181 25.86 55.0356L26.4558 55.2945C27.7102 55.8272 28.72 56.176 29.3427 56.3498C29.5661 56.4107 29.7905 56.4407 30.0157 56.4407C30.2408 56.4407 30.4653 56.4107 30.6828 56.3515L30.9925 56.2607C31.7247 56.0354 32.8454 55.6254 34.1725 55.0356C36.4726 54.0134 38.767 52.7202 40.9327 51.1272C42.3656 51.7684 43.9536 52.1249 45.6249 52.1249C51.9762 52.1249 57.1249 46.9762 57.1249 40.6249C57.1249 36.7235 55.1822 33.2759 52.2113 31.1966C52.2511 30.5699 52.2712 29.9326 52.2712 29.2849V14.8257C52.2712 13.2078 50.7666 12.0086 49.1943 12.3491L48.8041 12.445C48.6673 12.4746 48.4859 12.5094 48.2714 12.5438C47.6322 12.646 46.9118 12.7077 46.1286 12.7077C40.9976 12.7077 36.1291 10.3351 32.099 4.53464C31.1604 3.18414 29.0577 3.13757 28.0391 4.39497L27.9342 4.53464ZM34.774 44.4433C35.576 46.7225 37.0758 48.6729 39.0169 50.038C37.1914 51.3042 35.2777 52.3558 33.3603 53.2079C32.663 53.5178 32.0059 53.7827 31.4012 54.0046L31.0447 54.1327C30.6211 54.2814 30.2979 54.3828 30.1533 54.4228C30.1112 54.4343 30.0635 54.4407 30.0157 54.4407C29.9678 54.4407 29.9204 54.4343 29.8746 54.4219L29.6398 54.3512C29.5072 54.3095 29.3386 54.2542 29.141 54.1861L28.9875 54.1327C28.2875 53.8868 27.509 53.5798 26.6723 53.208C24.2952 52.1514 21.9239 50.7883 19.7192 49.0898C13.4794 44.2827 9.76221 37.7846 9.76221 29.2849V14.8259C9.76221 14.468 10.1086 14.211 10.4494 14.3123C15.9566 16.1798 24.281 13.2979 29.5767 5.67578C29.7529 5.42216 30.2802 5.42216 30.4566 5.67593C34.8731 12.0325 40.3624 14.7077 46.1286 14.7077C47.668 14.7077 48.9001 14.5105 49.5838 14.3121C49.9274 14.2143 50.2712 14.476 50.2712 14.8257V29.2849C50.2712 29.5577 50.2674 29.8284 50.2598 30.0971C48.8419 29.472 47.274 29.1249 45.6249 29.1249C43.9307 29.1249 42.3221 29.4913 40.8739 30.1491L40.931 29.5538C40.931 27.633 39.3703 26.11 37.4436 26.11H25.9562V21.9027C25.9562 19.8108 27.9268 17.9999 30.2059 17.9999C32.4151 17.9999 34.3364 19.7033 34.4509 21.7134L34.4562 21.9027H36.4562C36.4562 18.6672 33.5526 15.9999 30.2059 15.9999C26.9343 15.9999 24.0884 18.5469 23.9607 21.683L23.9562 21.9027V26.11H22.4832C20.5558 26.11 18.9953 27.6241 18.9999 29.6402L20.0958 40.9734C20.0958 42.897 21.6585 44.4433 23.5837 44.4433H34.774ZM38.9355 29.4581L38.749 31.406C35.9421 33.503 34.1249 36.8517 34.1249 40.6249C34.1249 41.2437 34.1738 41.851 34.2679 42.4433H23.5837C22.7584 42.4433 22.0958 41.7877 22.0912 40.8775L20.9953 29.5444C20.9953 28.7424 21.6471 28.11 22.4832 28.11H37.4436C38.2765 28.11 38.931 28.7486 38.9355 29.4581ZM55.1249 40.6249C55.1249 35.3782 50.8716 31.1249 45.6249 31.1249C40.3782 31.1249 36.1249 35.3782 36.1249 40.6249C36.1249 45.8716 40.3782 50.1249 45.6249 50.1249C50.8716 50.1249 55.1249 45.8716 55.1249 40.6249ZM43.8896 41.9153L41.8383 40.2111L40.5605 41.7497L44.1433 44.725L49.9203 37.8403L48.3882 36.5547L43.8896 41.9153Z" fill="#006FCF"/>
</svg>
