<svg width="60" height="60" viewBox="0 0 60 60" fill="none" xmlns="http://www.w3.org/2000/svg">
<g id="npi-rocket-stop_watch">
<rect width="60" height="60" fill="white"/>
<g id="Group">
<path id="Combined Shape" fill-rule="evenodd" clip-rule="evenodd" d="M31.1054 16.2293C30.1489 16.7986 29.2687 17.4828 28.4838 18.2629H16.9077C16.9077 18.2629 18.5232 14.7236 20.4538 11.5471C22.3844 8.37054 24.3608 6 24.3608 6C24.3608 6 26.3418 8.35991 28.3727 11.5471C29.4227 13.1948 30.4032 14.9338 31.1054 16.2293Z" fill="#E4F2D2"/>
<path id="Combined Shape_2" fill-rule="evenodd" clip-rule="evenodd" d="M25.2971 5.40811L24.5493 4.39014L23.7301 5.35156L23.263 5.90612C18.0296 12.1946 14.8226 18.5991 13.6602 25.1167C12.4656 31.8146 13.2367 39.3211 15.9572 47.631L16.1827 48.3199H31.7443L38.6568 54.8425L39.3406 54.0631C41.7302 51.3393 42.5523 48.3215 41.7532 45.1089C41.3969 43.6764 40.7659 42.3761 39.8666 41.2104C39.2565 41.2948 38.6333 41.3384 38 41.3384C37.7566 41.3384 37.5148 41.332 37.2746 41.3193C38.5684 42.547 39.4087 43.9689 39.8123 45.5916C40.3538 47.7685 39.9692 49.7971 38.6255 51.7387L38.4872 51.9321L33.2842 47.0221L35.1654 41.0404C34.5062 40.8995 33.8649 40.7105 33.2452 40.4773L31.4078 46.3199L17.636 46.3191L17.4145 45.6032C15.154 38.153 14.5635 31.4428 15.6291 25.4679L15.7342 24.9089C16.1248 22.9331 16.7171 20.9635 17.5116 19.0001H27.7951C28.4382 18.2582 29.1609 17.5871 29.9499 17.0001H18.3919C19.8669 13.8999 21.8489 10.8151 24.3402 7.74531L24.438 7.62514L25.1893 8.67639C27.3709 11.7584 29.0771 14.4489 30.3069 16.7435C30.8535 16.3638 31.4295 16.0234 32.0308 15.7265C30.6184 13.1026 28.6305 10.0169 26.0659 6.46366L25.2971 5.40811Z" fill="#009639"/>
<path id="Path 92" fill-rule="evenodd" clip-rule="evenodd" d="M14.7058 36.9844L18.0496 47.6171L10.3926 54.8422L9.70878 54.0627C7.31923 51.3389 6.49714 48.3212 7.2962 45.1085C8.08551 41.9352 10.2228 39.4105 13.6396 37.5614L14.7058 36.9844ZM15.7652 47.0218L13.5392 39.9438L13.3152 40.0911C11.1287 41.5678 9.78316 43.3958 9.23707 45.5913C8.69562 47.7682 9.08017 49.7968 10.4239 51.7384L10.5622 51.9318L15.7652 47.0218Z" fill="#009639"/>
<path id="Combined Shape_3" fill-rule="evenodd" clip-rule="evenodd" d="M24.798 25.0039C22.1302 25.1099 20 27.3061 20 29.9999C20 32.7613 22.2386 34.9999 25 34.9999C25.4959 34.9999 25.9749 34.9277 26.4271 34.7933C26.0751 34.2088 25.7661 33.5955 25.5045 32.9577C25.3405 32.9854 25.1719 32.9999 25 32.9999C23.3431 32.9999 22 31.6568 22 29.9999C22 28.5053 23.093 27.2659 24.5233 27.0376C24.5639 26.3443 24.6568 25.6651 24.798 25.0039Z" fill="#009639"/>
<circle id="Oval" cx="38.5" cy="27.3384" r="11.5" fill="#E4F2D2"/>
<path id="Oval_2" fill-rule="evenodd" clip-rule="evenodd" d="M26 27.7194C26 21.0174 31.433 15.5845 38.1349 15.5845C44.8368 15.5845 50.2698 21.0174 50.2698 27.7194C50.2698 34.4213 44.8368 39.8542 38.1349 39.8542C31.433 39.8542 26 34.4213 26 27.7194ZM48.2698 27.7194C48.2698 22.122 43.7322 17.5845 38.1349 17.5845C32.5375 17.5845 28 22.122 28 27.7194C28 33.3167 32.5375 37.8542 38.1349 37.8542C43.7322 37.8542 48.2698 33.3167 48.2698 27.7194Z" fill="#009639"/>
<path id="Path 93 Copy" d="M46.8896 21.8062C46.8896 21.2933 47.2757 20.8706 47.773 20.8129L47.8896 20.8062H50.9755C51.5277 20.8062 51.9755 21.2539 51.9755 21.8062C51.9755 22.319 51.5894 22.7417 51.0921 22.7994L50.9755 22.8062H47.8896C47.3374 22.8062 46.8896 22.3584 46.8896 21.8062Z" fill="#009639"/>
<path id="Path 93" d="M48.2607 30.8062C48.2607 30.2933 48.6468 29.8706 49.1441 29.8129L49.2607 29.8062H51.8753C52.4276 29.8062 52.8753 30.2539 52.8753 30.8062C52.8753 31.319 52.4892 31.7417 51.9919 31.7994L51.8753 31.8062H49.2607C48.7085 31.8062 48.2607 31.3584 48.2607 30.8062Z" fill="#009639"/>
<path id="Path 93_2" d="M48.6255 26.3062C48.6255 25.7933 49.0115 25.3706 49.5089 25.3129L49.6255 25.3062H53.9606C54.5128 25.3062 54.9606 25.7539 54.9606 26.3062C54.9606 26.819 54.5745 27.2417 54.0772 27.2994L53.9606 27.3062L49.6255 27.3062C49.0732 27.3062 48.6255 26.8584 48.6255 26.3062Z" fill="#009639"/>
<path id="Path 96" d="M38.041 20.2729C38.5539 20.2729 38.9765 20.659 39.0343 21.1563L39.041 21.2729L39.0401 27.8899L43.4454 32.2957C43.8059 32.6562 43.8336 33.2234 43.5286 33.6157L43.4454 33.7099C43.0849 34.0704 42.5177 34.0981 42.1254 33.7931L42.0312 33.7099L37.041 28.7197V21.2729C37.041 20.7207 37.4887 20.2729 38.041 20.2729Z" fill="#009639"/>
<path id="Path 91" d="M40.5947 11.5859C41.147 11.5859 41.5947 12.0337 41.5947 12.5859C41.5947 13.0988 41.2087 13.5214 40.7113 13.5792L40.5947 13.5859H35.8452C35.2929 13.5859 34.8452 13.1382 34.8452 12.5859C34.8452 12.0731 35.2313 11.6504 35.7286 11.5927L35.8452 11.5859H40.5947Z" fill="#009639"/>
<path id="Path 95" d="M39.2197 12.5859V16.5846H37.2197V12.5859H39.2197Z" fill="#009639"/>
<path id="Path 102" d="M19 49.0142C19.5128 49.0142 19.9355 49.4002 19.9933 49.8975L20 50.0142V51.5323C20 52.0846 19.5523 52.5323 19 52.5323C18.4872 52.5323 18.0645 52.1462 18.0067 51.6489L18 51.5323V50.0142C18 49.4619 18.4477 49.0142 19 49.0142Z" fill="#009639"/>
<path id="Path 102_2" d="M24 49.0142C24.5128 49.0142 24.9355 49.4002 24.9933 49.8975L25 50.0142V53.5323C25 54.0846 24.5523 54.5323 24 54.5323C23.4872 54.5323 23.0645 54.1462 23.0067 53.6489L23 53.5323V50.0142C23 49.4619 23.4477 49.0142 24 49.0142Z" fill="#009639"/>
<path id="Path 102_3" d="M29 49.0142C29.5128 49.0142 29.9355 49.4002 29.9933 49.8975L30 50.0142V51.5323C30 52.0846 29.5523 52.5323 29 52.5323C28.4872 52.5323 28.0645 52.1462 28.0067 51.6489L28 51.5323V50.0142C28 49.4619 28.4477 49.0142 29 49.0142Z" fill="#009639"/>
</g>
</g>
</svg>
