<svg width="60" height="60" viewBox="0 0 60 60" fill="none" xmlns="http://www.w3.org/2000/svg">
<rect width="60" height="60" fill="white"/>
<path d="M13.5543 10.9787L6.94824 12.1436L13.9584 51.6007L13.5543 10.9787Z" fill="#339C63"/>
<path fill-rule="evenodd" clip-rule="evenodd" d="M40.5944 34L37.6348 46.5703L45.0003 40.2851L51.1117 45.8587L49.0194 34C47.2548 34.9019 45.7061 35.3528 44.3732 35.3528C43.0404 35.3528 41.7808 34.9019 40.5944 34Z" fill="#339C63"/>
<path d="M46.5268 7.5L46.5272 14.1052C51.8795 14.8486 56 19.4431 56 25C56 29.1842 53.6638 32.8228 50.2246 34.6824L52.7165 48.7068L46.5264 42.829L46.5268 52.5H12.5L12.4994 49.214L5.73242 11.1248L12.4994 9.931L12.5 7.5H46.5268ZM44.2769 9.75H14.75L14.7494 49.017L14.9684 50.25H44.2769L44.2764 41.895L36.2202 48.5644L39.5569 34.5611C36.2376 32.6674 34 29.095 34 25C34 19.1678 38.5388 14.3957 44.2769 14.0234V9.75ZM35 42V44H18V42H35ZM41.4123 35.4016L39.551 43.211L45.0455 38.6642L49.683 43.068L48.3363 35.4849C47.284 35.8195 46.1631 36 45 36C43.7438 36 42.5367 35.7894 41.4123 35.4016ZM32.9365 38V40H18V38H32.9365ZM12.4994 12.216L8.34184 12.9494L12.4994 36.353V12.216ZM35 32V34H18V32H35ZM45 16C40.0294 16 36 20.0294 36 25C36 29.9706 40.0294 34 45 34C49.9705 34 54 29.9706 54 25C54 20.0294 49.9705 16 45 16ZM46.3966 19.7404L46.4508 19.8692L47.418 22.518L50.3973 22.5766C51.5686 22.6008 52.1153 23.9922 51.3459 24.7918L51.255 24.8781L51.153 24.9589L48.823 26.64L49.6634 29.2828C50.0249 30.4103 48.8582 31.3256 47.8657 30.8908L47.7601 30.839L47.6562 30.7765L45.2 29.149L42.7463 30.7752C41.7899 31.412 40.5314 30.6152 40.6817 29.5233L40.7033 29.4052L40.7361 29.2852L41.576 26.64L39.2448 24.9574C38.2791 24.2564 38.6782 22.8195 39.754 22.6036L39.8763 22.5848L40.0039 22.5765L42.982 22.518L43.9487 19.8709C44.3535 18.7563 45.9015 18.7102 46.3966 19.7404ZM32.9365 28V30H18V28H32.9365ZM45.2 22.274L44.3909 24.4915L42.078 24.536L43.9212 25.8667L43.223 28.059L45.2001 26.7502L47.175 28.059L46.4784 25.8668L48.321 24.536L46.0096 24.4915L45.2 22.274ZM32.0074 21V23H18V21H32.0074ZM33.514 17V19H18V17H33.514Z" fill="white"/>
</svg>
