<svg width="60" height="60" viewBox="0 0 60 60" fill="none" xmlns="http://www.w3.org/2000/svg">
<rect width="60" height="60" fill="white"/>
<path d="M8.60059 45.3923L29.2665 51.3684L29.2199 14.9429L8.60059 8.83643V45.3923Z" fill="#D8D8D8"/>
<path fill-rule="evenodd" clip-rule="evenodd" d="M28.8447 13.4765L15.393 9.3999H38.107V20.1488C38.107 20.7011 38.5547 21.1488 39.107 21.1488C39.6593 21.1488 40.107 20.7011 40.107 20.1488V9.3999C40.107 8.29533 39.2116 7.3999 38.107 7.3999H9.6416C8.53703 7.3999 7.6416 8.29533 7.6416 9.3999V44.8729C7.6416 45.7596 8.22552 46.5405 9.0761 46.7912L27.6991 52.281C28.7586 52.5933 29.8707 51.9876 30.183 50.9281C30.2372 50.7445 30.2647 50.554 30.2647 50.3626V47.6794H38.107C39.2116 47.6794 40.107 46.7839 40.107 45.6794V33.9863C40.107 33.434 39.6593 32.9863 39.107 32.9863C38.5547 32.9863 38.107 33.434 38.107 33.9863V45.6794H30.2647V15.3905C30.2647 14.5094 29.688 13.7321 28.8447 13.4765ZM28.2647 50.3626L9.6416 44.8729V9.74644L9.66464 9.75372L28.2647 15.3905V50.3626ZM41.6067 19.4141L43.021 17.9999L52.0784 27.0573L43.021 36.1147L41.6067 34.7005L48.2096 28.0976H34.1866V26.0976H48.2903L41.6067 19.4141Z" fill="#979797"/>
</svg>
