<svg width="60" height="60" viewBox="0 0 60 60" fill="none" xmlns="http://www.w3.org/2000/svg">
<g id="npi-chat-question_mark">
<rect width="60" height="60" fill="white"/>
<g id="chat-question_mark">
<path id="Path" d="M42.9174 20.8584C44.5492 21.3265 46.1071 22.15 47.4729 23.3373C51.8274 27.1226 52.7926 33.3573 50.1004 38.2079L51.9239 45.0335L44.2788 43.4471C42.4253 44.23 40.4066 44.5311 38.4204 44.3366C38.4204 44.3366 44.1347 40.42 45.1721 33.5251C46.2096 26.6301 42.9174 20.8584 42.9174 20.8584Z" fill="#E4F2D2"/>
<path id="Path_2" d="M10.6978 38.7133C6.77082 31.2792 8.31444 21.858 14.9333 16.1043C22.6505 9.39578 34.345 10.2135 41.0535 17.9308C47.762 25.6481 46.9443 37.3425 39.227 44.051C32.6939 49.7301 23.3107 50.0155 16.5149 45.2875L8.1001 46.3273L10.6978 38.7133Z" fill="white"/>
<path id="Shape" fill-rule="evenodd" clip-rule="evenodd" d="M43.8433 20.1287C45.3972 20.6656 46.8435 21.4981 48.1126 22.6013C52.6578 26.5524 53.8523 33.0689 51.1418 38.328L53.2739 46.3093L44.3719 44.462C42.7183 45.1144 40.9466 45.4194 39.1735 45.362C32.5308 50.6228 23.2589 50.965 16.2696 46.3001L6.67456 47.4857L9.64118 38.7906C5.69763 30.9144 7.53217 21.246 14.2935 15.3684C22.4172 8.30658 34.7275 9.1674 41.7893 17.2911C42.5706 18.1899 43.255 19.1401 43.8433 20.1287ZM27.261 32.6489H25.266V29.2679H26.2005C28.4475 29.2679 29.697 28.4384 29.697 26.9159C29.697 25.5509 28.4685 24.7739 26.253 24.7739C25.6335 24.7739 25.0245 24.8264 24.573 24.8684L24.384 22.6109C24.9195 22.5269 25.749 22.4639 26.358 22.4639C30.0435 22.4639 32.154 24.1754 32.154 26.8214C32.154 29.3414 30.4635 30.9059 27.345 31.3049L27.261 32.6489ZM26.2635 34.0874C27.24 34.0874 28.0905 34.9274 28.0905 35.9144C28.0905 36.9014 27.24 37.7624 26.2635 37.7624C25.287 37.7624 24.426 36.9014 24.426 35.9144C24.426 34.9274 25.287 34.0874 26.2635 34.0874ZM41.4327 43.2656C46.5691 37.6895 47.9088 29.7222 45.2046 22.8969C45.7768 23.2356 46.3217 23.6283 46.8333 24.073C50.7821 27.5056 51.7545 33.2184 49.2479 37.7346L49.0568 38.079L50.5738 43.7575L44.1794 42.4305L43.8994 42.5488C43.1058 42.884 42.2774 43.1238 41.4327 43.2656ZM38.5154 43.3661L38.5143 43.3782C32.4195 48.6184 23.5843 49.0181 17.0716 44.4871L16.7654 44.274L9.52548 45.1686L11.7564 38.6299L11.5599 38.2578C7.78507 31.1119 9.39041 22.2144 15.5729 16.8401C22.8837 10.4848 33.9623 11.2595 40.3176 18.5704C46.6728 25.8813 45.8981 36.9598 38.5872 43.3151L38.527 43.3672L38.5154 43.3661Z" fill="#009639"/>
</g>
</g>
</svg>
