<svg width="60" height="60" viewBox="0 0 60 60" fill="none" xmlns="http://www.w3.org/2000/svg">
<g id="npi-house-document">
<rect width="60" height="60" fill="white"/>
<g id="Group">
<path id="Vector" d="M42.375 50.2423H10.125V26.6938H7.875V52.4923H44.625V29.1868H42.375V50.2423Z" fill="#009639"/>
<path id="Vector_2" d="M52.5 12H33V39H52.5V12Z" fill="#E4F2D2"/>
<path id="Vector_3" d="M25.8918 8.02832C28.2043 10.2251 30.0743 12.0014 31.5017 13.3573L31.5001 10.4997H54.0001V40.4997L38.6251 40.4988V50.9997H36.3751V40.4988L31.5001 40.4997V34.1238L29.6251 34.1247V50.9997H27.3751V31.8747L31.5001 31.8738V16.4598L25.9333 11.1711L5.14618 31.9888C4.70716 32.4285 3.99485 32.429 3.55519 31.99C3.11553 31.551 3.115 30.8387 3.55402 30.399L25.8918 8.02832ZM22.1251 31.8747V40.1247H13.8751V31.8747H22.1251ZM51.7501 12.7497H33.7501V38.2497H51.7501V12.7497ZM19.8751 34.1247H16.1251V37.8747H19.8751V34.1247ZM41.8691 31.8747V34.1247H36.1447V31.8747H41.8691ZM48.7501 27.3747V29.6247H36.1447V27.3747H48.7501ZM48.7501 22.8747V25.1247H36.1447V22.8747H48.7501ZM41.8691 16.8747V19.1247H36.1447V16.8747H41.8691Z" fill="#009639"/>
</g>
</g>
</svg>
