<svg width="60" height="60" viewBox="0 0 60 60" fill="none" xmlns="http://www.w3.org/2000/svg">
<rect width="60" height="60" fill="white"/>
<path fill-rule="evenodd" clip-rule="evenodd" d="M26.2406 42.8791C25.9454 42.5805 25.5507 42.5454 25.0501 43.036C24.5617 43.5139 23.1594 44.8859 23.0225 45.0127C22.9887 45.0462 22.9512 45.0728 22.9086 45.0943C20.7563 46.1845 12.9876 37.8671 14.4697 36.3031L16.6842 34.133C16.9709 33.8507 16.9723 33.3894 16.6942 33.108L9.44608 25.7173C9.17147 25.4357 8.7156 25.4226 8.42094 25.7084C4.82687 29.2347 -1.07286 32.8074 12.5655 46.7182C17.9629 52.2226 25.5277 58.8231 31.1058 53.5914L31.2427 53.4646C31.337 53.3776 33.4718 51.2933 33.5286 51.2322C33.7947 50.9474 33.7875 50.5047 33.5158 50.2274L26.2406 42.8791Z" fill="#339C63"/>
<path fill-rule="evenodd" clip-rule="evenodd" d="M40.1529 26.7548L33.779 26.7553L33.7788 20.4164C33.7788 20.1622 33.5718 19.9547 33.3176 19.9552L28.7361 19.955C28.4918 19.955 28.2753 20.1714 28.2751 20.4159L28.2754 26.7553L21.9355 26.7555C21.6907 26.756 21.4745 26.9722 21.474 27.217L21.475 31.8686C21.4755 32.1229 21.6817 32.3292 21.9362 32.3298L28.2751 32.3296L28.2759 38.6333C28.2751 38.8883 28.4817 39.0948 28.7366 39.0941L33.3172 39.0943C33.5717 39.0941 33.7777 38.8881 33.778 38.6336L33.7784 32.3296L40.1535 32.3293C40.4065 32.3302 40.6149 32.1224 40.6144 31.8683L40.6142 27.216C40.6151 26.9641 40.4093 26.7549 40.1529 26.7548Z" fill="#339C63"/>
<path fill-rule="evenodd" clip-rule="evenodd" d="M36.5848 51.452C35.6366 51.7436 34.8824 51.9466 34.3139 52.0619C34.2382 52.0773 34.1627 52.0836 34.0887 52.0817L31.9225 54.1982L31.5753 54.5164C28.6985 57.0586 25.1973 57.0764 21.3093 55.0697C18.3772 53.5563 15.4524 51.0908 11.8515 47.4184L11.2039 46.7516C1.74318 36.9126 1.08078 31.7977 5.86788 26.7862L6.19882 26.4485L6.54223 26.1144L7.28568 25.4129L7.72475 24.9907C8.41214 24.324 9.49962 24.3402 10.1601 25.0173L17.4055 32.4053C18.0736 33.0813 18.0653 34.1768 17.3841 34.8474L15.2723 36.916C15.2841 36.9142 15.29 36.9329 15.2992 36.9792L15.3263 37.0914C15.3921 37.3283 15.5286 37.6388 15.7317 37.9992C16.2283 38.8809 17.0664 39.9658 18.0522 41.0065C19.9203 42.9784 21.9185 44.2972 22.4078 44.2175L24.3502 42.322C25.1835 41.5054 26.2106 41.4264 26.9518 42.1763L34.2301 49.5277C34.3574 49.6576 34.4601 49.8027 34.5383 49.9571C34.6599 49.926 34.7887 49.8918 34.9247 49.8544L35.4309 49.7105L35.9948 49.5409C44.453 46.9204 50.3318 39.0682 50.3318 30.0752C50.3318 18.8224 41.2096 9.7002 29.9568 9.7002C21.4442 9.7002 13.9198 14.9689 10.924 22.7862C10.7264 23.3019 10.1481 23.5598 9.63242 23.3622C9.11671 23.1645 8.85885 22.5863 9.05648 22.0705C12.3463 13.4859 20.609 7.7002 29.9568 7.7002C42.3142 7.7002 52.3318 17.7178 52.3318 30.0752C52.3318 39.9509 45.8764 48.5732 36.5848 51.452ZM33.316 18.9554C34.1235 18.954 34.7789 19.6098 34.7789 20.4166L34.7791 25.7555L40.1529 25.7551L40.3028 25.7626C41.0415 25.8379 41.617 26.4635 41.6143 27.2162L41.6145 31.8667C41.6161 32.6748 40.9578 33.3324 40.1536 33.3295L34.7785 33.3297L34.778 38.6348C34.7772 39.4408 34.1242 40.0938 33.3173 40.0945L28.7396 40.0943C27.9301 40.0967 27.2736 39.4402 27.276 38.6337L27.2754 33.3299L21.9336 33.33C21.1288 33.3279 20.4766 32.6757 20.4751 31.869L20.4741 27.2152C20.4757 26.4197 21.1381 25.7573 21.9355 25.7557L27.2754 25.7556L27.2752 20.4153C27.2759 19.619 27.9397 18.9552 28.7362 18.9552L33.316 18.9554ZM32.7786 31.3298L39.6145 31.3295L39.6143 27.7551L32.7791 27.7556L32.7789 20.9554L29.2752 20.9552L29.2755 27.7555L22.4742 27.7557L22.475 31.33L29.2751 31.3298L29.2759 38.0943L32.7781 38.0945L32.7786 31.3298ZM30.565 52.7294L32.6104 50.7344L25.7226 43.7773L23.7713 45.6808L23.6131 45.8242C23.5347 45.8871 23.4502 45.9412 23.3605 45.9866C20.3229 47.5253 11.3917 38.0975 13.7698 35.589L15.7875 33.6118L8.92441 26.6137L7.6792 27.7958C5.63494 29.7866 4.86916 31.1773 5.03371 33.2584C5.2745 36.3037 7.79141 40.4205 13.2796 46.0182L13.92 46.6649C21.2752 54.0162 26.4914 56.5484 30.4261 52.8582L30.565 52.7294Z" fill="white"/>
</svg>
