<svg width="60" height="60" viewBox="0 0 60 60" fill="none" xmlns="http://www.w3.org/2000/svg">
<rect width="60" height="60" fill="white"/>
<path fill-rule="evenodd" clip-rule="evenodd" d="M29.9474 9.33486L47.1756 18.0826C47.6616 18.3294 47.8588 18.93 47.6161 19.4241C47.5178 19.624 47.3566 19.7848 47.158 19.8806L29.9298 28.1964C29.6628 28.3253 29.353 28.3253 29.0861 28.1964L11.8579 19.8806C11.3671 19.6438 11.1582 19.0473 11.3912 18.5484C11.4855 18.3465 11.6436 18.1825 11.8403 18.0826L29.0684 9.33486C29.3451 9.19437 29.6707 9.19437 29.9474 9.33486Z" fill="#B3D4F1"/>
<path d="M41.3114 49C46.2005 49 50.1639 44.9706 50.1639 40C50.1639 35.0294 46.2005 31 41.3114 31C36.4224 31 32.459 35.0294 32.459 40C32.459 44.9706 36.4224 49 41.3114 49Z" fill="#B3D4F1"/>
<path d="M30.2181 8.36437L30.3868 8.44023L47.615 17.188C48.587 17.6815 48.9814 18.8827 48.496 19.8709C48.3241 20.2208 48.0556 20.5107 47.7251 20.7061L47.5798 20.784L41.6655 23.6375L47.615 26.6585C48.587 27.1521 48.9814 28.3532 48.496 29.3414C48.2995 29.7413 47.977 30.0628 47.5798 30.2545L45.813 31.1065C48.981 32.7674 51.1472 36.1265 51.1472 40C51.1472 45.5229 46.7435 50 41.3112 50C38.4488 50 35.872 48.757 34.0746 46.773L30.3516 48.5703C29.8711 48.8022 29.3211 48.8254 28.8267 48.6399L28.6642 48.5703L11.436 40.2545C10.4545 39.7808 10.0366 38.5879 10.5026 37.59C10.6912 37.1862 11.0074 36.8583 11.4007 36.6585L17.8828 33.3665L11.436 30.2545C10.4545 29.7808 10.0366 28.5879 10.5026 27.59C10.6912 27.1862 11.0074 26.8583 11.4007 26.6585L17.3487 23.6375L11.436 20.784C10.5012 20.3328 10.0777 19.2293 10.442 18.2633L10.5026 18.1195C10.6676 17.7662 10.9303 17.4709 11.2569 17.2688L11.4007 17.188L28.6289 8.44023C29.127 8.18734 29.7042 8.16205 30.2181 8.36437ZM41.3112 32C36.9653 32 33.4423 35.5818 33.4423 40C33.4423 44.4183 36.9653 48 41.3112 48C45.657 48 49.18 44.4183 49.18 40C49.18 35.5818 45.657 32 41.3112 32ZM20.1402 34.4555L12.2797 38.4478L29.5079 46.7636L32.8724 45.1405C31.9852 43.6383 31.4751 41.8797 31.4751 40C31.4751 39.2884 31.5482 38.5941 31.6872 37.9246L30.3516 38.5703C29.8711 38.8022 29.3211 38.8254 28.8267 38.6399L28.6642 38.5703L20.1402 34.4555ZM41.3112 42.66C41.4731 42.66 41.6287 42.6904 41.7779 42.751C41.9271 42.8117 42.0549 42.894 42.1615 42.998C42.268 43.102 42.3533 43.2255 42.4172 43.3685C42.4812 43.5115 42.5131 43.6654 42.5131 43.83C42.5131 43.9947 42.4812 44.1485 42.4172 44.2915C42.3533 44.4345 42.268 44.558 42.1615 44.662C42.0549 44.766 41.9271 44.8484 41.7779 44.909C41.6287 44.9697 41.4731 45 41.3112 45C41.1407 45 40.983 44.9675 40.838 44.9025C40.6931 44.8375 40.5653 44.753 40.4544 44.649C40.3436 44.545 40.2584 44.4215 40.1987 44.2785C40.139 44.1355 40.1092 43.986 40.1092 43.83C40.1092 43.5094 40.2243 43.2342 40.4544 43.0045C40.6846 42.7749 40.9702 42.66 41.3112 42.66ZM42.3597 35.289V41.763H40.2626V35.289H42.3597ZM39.4091 24.7265L30.3516 29.0998C29.8711 29.3317 29.3211 29.3549 28.8267 29.1693L28.6642 29.0998L19.6051 24.7275L12.2797 28.4478L29.5079 36.7636L32.6574 35.2425C34.3216 32.1203 37.5728 30 41.3112 30C41.9419 30 42.5587 30.0604 43.1564 30.1757L46.7361 28.4478L39.4091 24.7265ZM29.5079 10.2295L12.2797 18.9773L29.5079 27.2931L46.7361 18.9773L29.5079 10.2295Z" fill="#006FCF"/>
</svg>
