<svg width="60" height="60" viewBox="0 0 60 60" fill="none" xmlns="http://www.w3.org/2000/svg">
<g id="npi-wallet-link">
<rect width="60" height="60" fill="white"/>
<g id="Group">
<g id="Group_2">
<path id="Vector" d="M18.1929 28.4282H49.3418V36.9052L46.0002 37.0013C44.7519 37.0372 43.7586 38.0595 43.7586 39.3084C43.7586 40.6205 44.6657 41.7582 45.9448 42.0505L49.3418 42.8266V50.4921H22.1929C19.9837 50.4921 18.1929 48.7012 18.1929 46.4921V28.4282Z" fill="#E4F2D2"/>
<path id="Vector_2" d="M23.5247 16.9978C24.0452 17.6181 24.4193 18.3166 24.6494 19.0475C24.6934 19.0346 24.7396 19.0257 24.7868 19.0203L24.9015 19.0136H49.4917C50.0349 19.0136 50.4753 19.454 50.4753 19.9973C50.4753 20.5017 50.0956 20.9174 49.6064 20.9742L49.4917 20.9809L24.9253 20.9808C24.9084 21.7705 24.7359 22.5526 24.4106 23.2748L49.4917 23.2744C50.0349 23.2744 50.4753 23.7148 50.4753 24.258C50.4753 24.7624 50.0956 25.1782 49.6064 25.235L49.4917 25.2416L22.9412 25.2422L20.209 27.535L50.4753 27.5352L50.4745 35.8806L51.9579 35.8808C52.5012 35.8808 52.9416 36.3212 52.9416 36.8645V42.5455C52.9416 43.0887 52.5012 43.5291 51.9579 43.5291L50.4745 43.5286L50.4753 52.1247H21.0866C19.0313 52.1247 17.3693 50.606 17.2674 48.5981L17.2625 48.4023L17.262 30.007L16.7572 30.4318C14.2869 32.5046 10.5164 32.1989 8.44234 29.7272C7.0557 28.0747 6.6387 25.9064 7.32287 23.9968L7.42807 23.7268L7.60506 23.3408C7.82121 23.6196 8.0498 23.8863 8.29082 24.1409C8.53184 24.3954 8.80541 24.6397 9.11154 24.8738C8.80541 26.3571 9.08467 27.5534 9.94931 28.4627C11.422 30.0114 13.8504 30.3028 15.4927 28.9248L21.6237 23.7803C23.2358 22.4275 23.4151 19.9276 22.0177 18.2623C20.6204 16.597 18.1272 16.3394 16.5151 17.6921L11.8921 21.5713L10.6276 20.0643L15.2506 16.1851C17.7058 14.125 21.4377 14.5106 23.5247 16.9978ZM48.5081 29.5024H19.2297V48.4023C19.2297 49.3472 19.9518 50.0808 20.9301 50.1518L21.0866 50.1575H48.5081L48.5075 43.5286L46.2769 43.5291C44.1649 43.5291 42.4528 41.817 42.4528 39.705C42.4528 37.593 44.1649 35.8808 46.2769 35.8808L48.5075 35.8806L48.5081 29.5024ZM50.9743 37.8481H46.2769C45.2514 37.8481 44.42 38.6794 44.42 39.705C44.42 40.7305 45.2514 41.5619 46.2769 41.5619H50.9743V37.8481ZM24.0702 10.1175C25.4372 11.7467 25.9087 13.914 25.2955 15.7934L25.2021 16.0531L25.1266 16.211L24.8594 16.7372C24.6184 16.4159 24.3818 16.1394 24.1495 15.9077C23.9172 15.6759 23.6647 15.4572 23.392 15.2516C23.42 15.1991 23.4483 15.1215 23.4767 15.0188C23.8053 13.8309 23.4683 12.4607 22.5632 11.382C21.1772 9.73018 18.5806 9.48757 16.9552 10.8514L10.8241 15.996C9.21203 17.3487 9.03279 19.8487 10.4301 21.514C11.8275 23.1793 14.3206 23.4369 15.9327 22.0842L20.3599 18.3693L21.6244 19.8763L17.1972 23.5912C14.7421 25.6513 11.0101 25.2657 8.92316 22.7785C6.83618 20.2913 7.10448 16.5492 9.55964 14.489L15.6907 9.34447C18.1524 7.27888 21.9891 7.63735 24.0702 10.1175Z" fill="#009639"/>
</g>
</g>
</g>
</svg>
