<svg width="60" height="60" viewBox="0 0 60 60" fill="none" xmlns="http://www.w3.org/2000/svg">
<g id="npi-gesture-holding_bag">
<rect width="60" height="60" fill="white"/>
<g id="Group 12">
<g id="Group 11">
<path id="Path 108" fill-rule="evenodd" clip-rule="evenodd" d="M21.0001 19.7251H12.0061V33.6049H16.3389C16.3389 33.6049 17.4515 30.927 18.6327 29.1694C19.814 27.4118 21.0996 26.5214 21.0996 26.5214L21.0001 19.7251Z" fill="#E4F2D2"/>
<path id="Combined Shape" fill-rule="evenodd" clip-rule="evenodd" d="M34.7727 12.4121H27.2073L26.3341 8.61699L30.8495 9.67807L35.5681 8.59899L34.7727 12.4121ZM37.188 12.4121H36.816L38.1646 5.95477L30.8541 7.62499L23.6656 5.93652L25.2593 12.865C24.7839 13.1128 24.3575 13.4565 24.0101 13.8819L20.532 18.1407H11.0061V34.605H15.5645C15.4155 35.4687 15.3389 36.3523 15.3389 37.248C15.3389 45.7887 22.2625 52.7123 30.8032 52.7123C39.3439 52.7123 46.2675 45.7887 46.2675 37.248C46.2675 37.1043 46.257 36.9546 46.2365 36.7982C46.44 36.3459 46.5532 35.8442 46.5532 35.3161C46.5532 34.2954 46.1304 33.3735 45.4503 32.7161C46.1304 32.0586 46.5532 31.1367 46.5532 30.1161C46.5532 29.1044 46.1377 28.1897 45.4681 27.5334C46.1366 26.896 46.5532 25.9966 46.5532 25C46.5532 24.0206 46.151 23.1352 45.5027 22.5C46.151 21.8647 46.5532 20.9793 46.5532 20C46.5532 18.067 44.9862 16.5 43.0532 16.5H40.1465C40.2473 16.1936 40.3019 15.8661 40.3019 15.526C40.3019 13.8062 38.9077 12.4121 37.188 12.4121ZM44.1891 38.7095C43.799 38.8535 43.3772 38.9321 42.9371 38.9321H38.1157C36.1186 38.9321 34.4996 37.3132 34.4996 35.3161C34.4996 34.2954 34.9225 33.3735 35.6025 32.7161C34.9225 32.0586 34.4996 31.1367 34.4996 30.1161C34.4996 29.1044 34.9151 28.1897 35.5847 27.5334C34.9162 26.896 34.4996 25.9966 34.4996 25C34.4996 24.0206 34.9019 23.1352 35.5501 22.5C34.9019 21.8647 34.4996 20.9793 34.4996 20C34.4996 19.5175 34.5973 19.0578 34.7739 18.6395L30.9861 18.639L30.9382 18.7832C29.8961 21.7556 27.6855 23.6449 24.4076 24.3891C23.822 25.2818 22.904 26.237 21.7707 27.2629C18.9672 29.8006 17.3389 33.3921 17.3389 37.248C17.3389 44.6842 23.3671 50.7123 30.8032 50.7123C37.7455 50.7123 43.4606 45.4582 44.1891 38.7095ZM24.0349 22.4232C26.7742 21.7848 28.4558 20.2239 29.1951 17.6696L29.2708 17.3919L29.4633 16.6399H37.0167C37.2384 16.5752 37.4691 16.5318 37.7065 16.5121C38.0605 16.3256 38.3019 15.9539 38.3019 15.526C38.3019 14.9518 37.8674 14.4791 37.3093 14.4186L37.188 14.4121H27.1082C26.5678 14.4121 26.0531 14.6306 25.6786 15.0134L25.5592 15.147L22.0061 19.496L22.0063 24.1921C22.6289 23.4833 23.0508 22.8627 23.1085 22.5025L23.1152 22.4232H24.0349ZM20.0064 26.1766V20.1406L13.0061 20.14V32.605L16.0486 32.605C16.8117 30.1761 18.1676 27.9694 20.0064 26.1766ZM42.9371 31.7C43.0276 31.7 43.1173 31.7033 43.2061 31.7098C43.9706 31.5818 44.5532 30.9169 44.5532 30.1161C44.5532 29.2731 43.9078 28.5809 43.0842 28.5066L42.9371 28.5H38.1157C37.2232 28.5 36.4996 29.2235 36.4996 30.1161C36.4996 30.9169 37.0822 31.5818 37.8467 31.7098C37.9355 31.7033 38.0252 31.7 38.1157 31.7H42.9371ZM36.4996 35.3161C36.4996 34.5152 37.0822 33.8504 37.8467 33.7223C37.9355 33.7288 38.0252 33.7321 38.1157 33.7321H42.9371C43.0276 33.7321 43.1173 33.7288 43.2061 33.7223C43.9706 33.8504 44.5532 34.5152 44.5532 35.3161C44.5532 36.2086 43.8297 36.9321 42.9371 36.9321H38.1157L37.9686 36.9255C37.145 36.8512 36.4996 36.159 36.4996 35.3161ZM42.9371 26.5H43.0532C43.8816 26.5 44.5532 25.8284 44.5532 25C44.5532 24.2203 43.9583 23.5795 43.1977 23.5069L43.0532 23.5H37.9996C37.1712 23.5 36.4996 24.1716 36.4996 25C36.4996 25.7797 37.0945 26.4204 37.8552 26.4931L37.9996 26.5H38.1157H42.9371ZM44.5532 20C44.5532 20.8284 43.8816 21.5 43.0532 21.5H37.9996L37.8552 21.4931C37.0945 21.4204 36.4996 20.7797 36.4996 20C36.4996 19.393 36.8602 18.8702 37.3787 18.6341C37.6331 18.6188 37.8793 18.5728 38.1136 18.5H43.0532L43.1977 18.5069C43.9583 18.5795 44.5532 19.2203 44.5532 20Z" fill="#009639"/>
</g>
</g>
</g>
</svg>
