<svg width="60" height="60" viewBox="0 0 60 60" fill="none" xmlns="http://www.w3.org/2000/svg">
<g id="npi-beverage-wine">
<rect width="60" height="60" fill="white"/>
<g id="Drinks">
<rect id="Rectangle" x="14" y="29" width="13" height="13" fill="#E4F2D2"/>
<path id="Path 646" fill-rule="evenodd" clip-rule="evenodd" d="M35 35.4274L38.3288 34L43.2841 37.5273L39.8177 40.5273L35 35.4274Z" fill="#E4F2D2"/>
<rect id="Rectangle_2" x="19" y="9" width="3" height="7" fill="#E4F2D2"/>
<path id="Combined Shape" fill-rule="evenodd" clip-rule="evenodd" d="M21.4716 7.5415H19.4152C18.3106 7.5415 17.4152 8.43693 17.4152 9.5415V18.169C17.4152 19.5736 16.8174 20.9072 15.7791 21.8409L15.5793 22.0112C13.9481 23.3285 13.0001 25.3127 13.0001 27.4094V50.5977C13.0001 51.7022 13.8955 52.5977 15.0001 52.5977H26.2426C26.2898 52.5977 26.3366 52.596 26.383 52.5928C26.4156 52.596 26.4487 52.5977 26.4822 52.5977H31.9406L32.0572 52.5909C32.5546 52.5332 32.9406 52.1105 32.9406 51.5977C32.9406 51.0454 32.4929 50.5977 31.9406 50.5977H28.2426V27.5499C28.2426 25.4515 27.294 23.471 25.6712 22.1559L25.4557 21.9882C24.207 21.055 23.4716 19.5874 23.4716 18.0285V9.5415C23.4716 8.43693 22.5762 7.5415 21.4716 7.5415ZM19.4152 9.5415H21.4716V15H19.4152V9.5415ZM19.4152 17V18.169C19.4152 20.2657 18.4671 22.2499 16.8359 23.5672L16.6361 23.7375C15.5978 24.6712 15.0001 26.0049 15.0001 27.4094V28H26.2426V27.5499C26.2426 25.991 25.5072 24.5234 24.2585 23.5902L24.043 23.4225C22.4202 22.1075 21.4716 20.1269 21.4716 18.0285V17H19.4152ZM15.0001 41V30H26.2426V41H15.0001ZM15.0001 43V50.5977H26.2426V43H15.0001ZM22.204 37C22.7563 37 23.204 37.4477 23.204 38C23.204 38.5129 22.818 38.9355 22.3206 38.9933L22.204 39H19.0372C18.485 39 18.0372 38.5523 18.0372 38C18.0372 37.4872 18.4233 37.0645 18.9206 37.0067L19.0372 37H22.204ZM35.526 50.5977H38.9993V41.4486L35.7179 38.5265C33.9324 36.9366 33.0818 34.5454 33.4622 32.1851L34.5194 25.6242C34.6365 24.8973 35.264 24.3628 36.0003 24.3628H44.0101C44.747 24.3628 45.3748 24.898 45.4913 25.6256L46.5411 32.1818C46.7388 33.4162 46.5999 34.6588 46.1668 35.7907L46.1914 35.8031C46.1551 35.8749 46.1168 35.9455 46.0765 36.0148C45.6791 36.9548 45.0752 37.8107 44.29 38.5114L40.9993 41.4479V50.5977H44.6548C45.2071 50.5977 45.6548 51.0454 45.6548 51.5977C45.6548 52.1105 45.2688 52.5332 44.7714 52.5909L44.6548 52.5977H35.526C34.9737 52.5977 34.526 52.15 34.526 51.5977C34.526 51.0848 34.912 50.6622 35.4093 50.6044L35.526 50.5977ZM41.8686 37.9913L39.9981 39.66L37.0479 37.0329L36.8703 36.8668C36.7051 36.7047 36.5526 36.5325 36.4132 36.3517C36.7747 35.8122 37.4361 35.5127 38.1135 35.6446C38.469 35.7139 38.7922 35.8973 39.0341 36.167L39.5018 36.6888L39.6559 36.8517C40.2769 37.4734 41.0548 37.8554 41.8686 37.9913ZM44.2862 35.1086C44.1877 35.2582 44.0701 35.3948 43.9363 35.5148C43.0785 36.2837 41.7599 36.2116 40.9911 35.3539L40.5233 34.832L40.3582 34.6596C39.8476 34.1597 39.2005 33.8188 38.4958 33.6815C37.3944 33.467 36.3122 33.7703 35.5007 34.4218C35.3577 33.8015 35.3323 33.1508 35.4367 32.5033L36.4251 26.362H43.5831L44.5663 32.498L44.5988 32.7385C44.689 33.5524 44.5769 34.3647 44.2862 35.1086ZM10.9406 50.5977C11.4929 50.5977 11.9406 51.0454 11.9406 51.5977C11.9406 52.1105 11.5546 52.5332 11.0572 52.5909L10.9406 52.5977H8.48218C7.92989 52.5977 7.48218 52.15 7.48218 51.5977C7.48218 51.0848 7.86822 50.6622 8.36556 50.6044L8.48218 50.5977H10.9406ZM51.3551 51.5977C51.3551 51.0454 50.9074 50.5977 50.3551 50.5977H48.5652L48.4486 50.6044C47.9512 50.6622 47.5652 51.0848 47.5652 51.5977C47.5652 52.15 48.0129 52.5977 48.5652 52.5977H50.3551L50.4718 52.5909C50.9691 52.5332 51.3551 52.1105 51.3551 51.5977ZM24.8313 34C24.8313 33.4477 24.3836 33 23.8313 33H17.2251L17.1085 33.0067C16.6111 33.0645 16.2251 33.4872 16.2251 34C16.2251 34.5523 16.6728 35 17.2251 35H23.8313L23.948 34.9933C24.4453 34.9355 24.8313 34.5129 24.8313 34Z" fill="#009639"/>
</g>
</g>
</svg>
