<svg width="60" height="60" viewBox="0 0 60 60" fill="none" xmlns="http://www.w3.org/2000/svg">
<rect width="60" height="60" fill="white"/>
<path fill-rule="evenodd" clip-rule="evenodd" d="M36.3955 8.2998V14.9998H44.0001L36.3955 8.2998Z" fill="#B3D4F1"/>
<path fill-rule="evenodd" clip-rule="evenodd" d="M46.1531 24.7791C47.6823 23.3661 50.0659 23.4548 51.4859 24.9775C52.9151 26.5101 52.8257 28.9126 51.2866 30.3347L32.9182 47.3075L27.7594 47.3075L27.7594 41.7753L46.1531 24.7791Z" fill="#B3D4F1"/>
<path fill-rule="evenodd" clip-rule="evenodd" d="M36.5292 7.2998H10V52.2998H45V37.0882L51.6893 30.9348L51.7032 30.9221C53.322 29.4188 53.4156 26.8879 51.9124 25.2691L51.5233 24.85C50.0258 23.2375 47.5071 23.1373 45.8864 24.6259L45 25.44V14.6893L36.5292 7.2998ZM43 27.277V16.2998H35.3954V9.2998H35.7791L35.778 9.2988H12V50.2988H43V38.928L34.6391 46.619C33.9008 47.2981 32.9343 47.675 31.9311 47.675H28.4015C27.8492 47.675 27.4015 47.2273 27.4015 46.675V43.3611C27.4015 42.2413 27.871 41.1727 28.6957 40.4152L43 27.277ZM37.395 14.2988L37.3953 10.7096L41.5104 14.2994L37.395 14.2988ZM28 19.9998V17.9998H18.3155V19.9998H28ZM36 25.9998V23.9998H18.3155V25.9998H36ZM36 29.9998V31.9998H18.3155V29.9998H36ZM31.9311 45.675C32.4327 45.675 32.916 45.4866 33.2851 45.147L50.3353 29.4629C51.1516 28.7049 51.1985 27.4394 50.4468 26.63L50.0577 26.211C49.309 25.4047 48.0496 25.3546 47.2393 26.0989L30.0486 41.8881C29.6362 42.2669 29.4015 42.8012 29.4015 43.3611V45.675H31.9311Z" fill="#006FCF"/>
</svg>
