<svg width="60" height="60" viewBox="0 0 60 60" fill="none" xmlns="http://www.w3.org/2000/svg">
<g id="npi-car-man">
<rect width="60" height="60" fill="white"/>
<g id="Group 2">
<g id="Group">
<path id="Combined Shape" fill-rule="evenodd" clip-rule="evenodd" d="M9.28804 36.0669H37.4591L38.1563 37.3771V46.5613H8.52734V37.3771L9.28804 36.0669ZM13.1499 40.2865C12.5804 40.2865 12.1187 40.7482 12.1187 41.3178C12.1187 41.8873 12.5804 42.349 13.1499 42.349C13.7195 42.349 14.1812 41.8873 14.1812 41.3178C14.1812 40.7482 13.7195 40.2865 13.1499 40.2865ZM10.1187 41.3178C10.1187 39.6436 11.4758 38.2865 13.1499 38.2865C14.824 38.2865 16.1812 39.6436 16.1812 41.3178C16.1812 42.9919 14.824 44.349 13.1499 44.349C11.4758 44.349 10.1187 42.9919 10.1187 41.3178ZM31.8624 41.3178C31.8624 40.7482 32.3241 40.2865 32.8937 40.2865C33.4632 40.2865 33.9249 40.7482 33.9249 41.3178C33.9249 41.8873 33.4632 42.349 32.8937 42.349C32.3241 42.349 31.8624 41.8873 31.8624 41.3178ZM32.8937 38.2865C31.2195 38.2865 29.8624 39.6436 29.8624 41.3178C29.8624 42.9919 31.2195 44.349 32.8937 44.349C34.5678 44.349 35.9249 42.9919 35.9249 41.3178C35.9249 39.6436 34.5678 38.2865 32.8937 38.2865Z" fill="#E4F2D2"/>
<path id="Path" fill-rule="evenodd" clip-rule="evenodd" d="M9.14245 36.1583H7.95C6.87304 36.1583 6 35.2853 6 34.2083C6 33.1313 6.87304 32.2583 7.95 32.2583H10.875L9.14245 36.1583Z" fill="#E4F2D2"/>
<path id="Path_2" fill-rule="evenodd" clip-rule="evenodd" d="M37.6067 36.1583H38.6625C39.7395 36.1583 40.6125 35.2853 40.6125 34.2083C40.6125 33.1313 39.7395 32.2583 38.6625 32.2583H35.8374L37.6067 36.1583Z" fill="#E4F2D2"/>
<path id="Path_3" d="M14.334 46.615V49.9304C14.334 50.7381 13.5514 51.3929 12.7437 51.3929H10.3062C9.49844 51.3929 8.68115 50.7381 8.68115 49.9304V37.3773L12.7354 28.3208C13.5347 26.6004 15.2594 25.5 17.1564 25.5H29.3431H29.6066C31.6017 25.5 33.4059 26.6861 34.1969 28.5176L34.836 29.9977" stroke="#009639" stroke-width="2"/>
<path id="Path_4" d="M34.8362 29.9976L37.9313 37.3772V49.9303C37.9313 50.738 37.1141 51.3928 36.3063 51.3928H33.8688C33.0611 51.3928 32.2756 50.738 32.2756 49.9303V46.6148" stroke="#009639" stroke-width="2"/>
<path id="Path 339" d="M9.28809 35.9146H37.4591" stroke="#009639" stroke-width="2"/>
<path id="Path 340" d="M8.52734 46.5613H38.1563" stroke="#009639" stroke-width="2"/>
<path id="Path_5" d="M9.14245 35.9146H7.95C6.87304 35.9146 6 35.0051 6 33.8833C6 32.7615 6.87304 31.8521 7.95 31.8521V31.8521H10.875V31.8521" stroke="#009639" stroke-width="2"/>
<path id="Path_6" d="M37.4701 35.9146H38.6625C39.7395 35.9146 40.6125 35.0051 40.6125 33.8833C40.6125 32.7615 39.7395 31.8521 38.6625 31.8521V31.8521H35.7375V31.8521" stroke="#009639" stroke-width="2"/>
<path id="Path 341" d="M17.6187 39.9771H28.1812" stroke="#009639" stroke-width="2" stroke-linecap="round"/>
<path id="Path 341_2" d="M19.2437 43.2271H26.5562" stroke="#009639" stroke-width="2" stroke-linecap="round"/>
<circle id="Oval" cx="13.1499" cy="41.1553" r="1.625" stroke="#009639" stroke-width="2"/>
<circle id="Oval_2" cx="32.8938" cy="41.1553" r="1.625" stroke="#009639" stroke-width="2"/>
</g>
<path id="Shape" d="M47.9004 52.8744L47.9009 37.4155" stroke="#009639" stroke-width="2"/>
<path id="Shape_2" fill-rule="evenodd" clip-rule="evenodd" d="M50.422 14.7519C50.422 16.1711 49.2934 18.1528 47.9011 18.1528C46.5087 18.1528 45.3801 16.1711 45.3801 14.7519C45.3801 13.3327 46.5087 12.1821 47.9011 12.1821C49.2934 12.1821 50.422 13.3327 50.422 14.7519V14.7519Z" stroke="#009639" stroke-width="2"/>
<path id="Shape_3" d="M51.1628 52.8742L52.16 34.5947C52.1745 34.2253 53.338 34.7061 53.3509 34.356C53.8248 21.4274 52.7702 20.6051 52.6511 20.5036C52.5107 20.4635 51.3601 20.4318 51.0157 20.4098C50.5502 20.38 50.1488 20.6698 49.935 21.0925C49.1769 22.5912 46.6246 22.5912 45.8667 21.0925C45.6531 20.6698 45.2517 20.38 44.7862 20.4098C44.4943 20.4285 36.5032 21.7427 33.9877 22.1674C32.9489 22.3428 33.0108 23.8861 34.0553 23.9835L43.6419 24.8783V34.5949L44.6382 52.8744" stroke="#009639" stroke-width="2"/>
</g>
</g>
</svg>
