<svg width="60" height="60" viewBox="0 0 60 60" fill="none" xmlns="http://www.w3.org/2000/svg">
<g id="npi-beverage-juice">
<rect width="60" height="60" fill="white"/>
<g id="Drinks 1">
<g id="Group">
<path id="Vector" d="M13.7703 30.8017C13.4615 35.4427 15.2111 39.9844 18.5538 43.2186L19.378 44.0161L20.667 42.6792C23.7185 39.5143 25.2456 35.1804 24.8522 30.8017H13.7703ZM30.5849 30.2148L29.8853 34.9133C29.5175 37.3833 29.3329 39.8771 29.3329 42.3743V44.8889C29.3329 45.7091 29.4472 46.5252 29.6724 47.3138C29.8977 48.1025 30.012 48.9186 30.012 49.7388V49.9563C30.012 50.8275 30.6331 51.575 31.4896 51.7345C32.8565 51.989 34.2198 52.1162 35.5796 52.1162C36.469 52.1162 37.3638 52.0618 38.2639 51.9529C39.9377 51.7504 41.1967 50.3299 41.1967 48.6438C41.6149 46.971 41.8263 45.2533 41.8263 43.529V42.3743C41.8263 39.8767 41.6519 37.3822 41.3045 34.9089L40.6705 30.3959L30.5849 30.2148Z" fill="#E4F2D2"/>
<path id="Vector_2" d="M38 8H33V11H38V8Z" fill="#E4F2D2"/>
<path id="Vector_3" d="M8 52.9998C7.44772 52.9998 7 52.5521 7 51.9998C7 51.487 7.38604 51.0643 7.88338 51.0065L8 50.9998L18.319 50.999L18.32 44.4294L17.2069 43.3789L16.6555 42.8459L16.109 42.3041L15.6635 41.8457L15.4526 41.6229C14.6889 40.8085 14.1148 40.1108 13.7615 39.5337C12.5784 37.5988 12.2369 34.943 12.6902 31.6047L12.8072 30.7778L12.9508 29.8219L13.2039 28.2165L13.5106 26.3477L13.88 24.1709L14.0239 23.342H24.6147L24.9699 25.4078L25.2836 27.2888L25.578 29.1177L25.7861 30.4728L25.9482 31.6047C26.4013 34.9416 26.061 37.5766 24.8765 39.5111C24.522 40.0901 23.9442 40.7936 23.175 41.6165L22.968 41.836L22.3264 42.4942L21.7836 43.0292L20.683 44.0849L20.319 44.42V50.999L29.1154 50.9999C29.0627 50.8134 29.0292 50.6188 29.0171 50.4184L29.0121 50.251V48.6422L28.711 47.5881C28.4961 46.8356 28.3719 46.0605 28.3408 45.2795L28.333 44.8885V42.3738C28.333 40.1457 28.4772 37.9202 28.7644 35.7113L28.8963 34.7657L32.0157 13.8161C32.0883 13.329 32.1394 12.8392 32.169 12.348L31.5 12.3482V8.7998C31.5 7.69524 32.3954 6.7998 33.5 6.7998H37.6293C38.7339 6.7998 39.6293 7.69524 39.6293 8.7998V12.3482L39.2073 12.3486C39.226 12.678 39.2538 13.0068 39.2906 13.3347L39.3527 13.8258L42.2949 34.7694C42.6046 36.9738 42.7792 39.1948 42.8181 41.42L42.8264 42.3738V43.5286C42.8264 45.1339 42.6514 46.7339 42.305 48.3002L42.196 48.7618L42.1969 49.9998C42.1969 50.3508 42.1366 50.6877 42.0258 51.0007L44.6214 50.9998C45.1736 50.9998 45.6214 51.4475 45.6214 51.9998C45.6214 52.5126 45.2353 52.9353 44.738 52.9931L44.6214 52.9998H8ZM50.86 50.9998C51.4122 50.9998 51.86 51.4475 51.86 51.9998C51.86 52.5126 51.4739 52.9353 50.9766 52.9931L50.86 52.9998H47.0692C46.5169 52.9998 46.0692 52.5521 46.0692 51.9998C46.0692 51.487 46.4552 51.0643 46.9526 51.0065L47.0692 50.9998H50.86ZM37.696 16.4088H33.651L30.8745 35.0602C30.5591 37.1788 30.381 39.3152 30.3415 41.4561L30.333 42.3738V44.8885C30.333 45.4946 30.4034 46.0981 30.5424 46.6872L30.6341 47.0388L30.9352 48.0928C30.9692 48.2119 30.9921 48.3338 31.0035 48.4569L31.0121 48.6422V50.251C31.0121 50.6301 31.2938 50.9434 31.6593 50.993L31.752 50.9988L39.2 50.9998L39.3135 50.9931C39.7726 50.9398 40.1368 50.5755 40.1901 50.1164L40.1969 49.9998V48.5204L40.2267 48.401C40.5807 46.9845 40.7792 45.5342 40.819 44.0758L40.8264 43.5286V42.3738C40.8264 40.2292 40.6954 38.0869 40.4342 35.9588L40.3143 35.0476L37.696 16.4088ZM23.948 31.75L14.6886 31.7528L14.672 31.8738C14.2752 34.7956 14.5594 37.0046 15.4676 38.49C15.7065 38.8803 16.1358 39.412 16.7135 40.0414L17.1103 40.4648L17.5322 40.8989L17.8954 41.2606L18.3119 41.666L18.9627 42.2889L19.317 42.6238L20.1791 41.7987L20.7518 41.2392L21.1045 40.886L21.5185 40.458L21.7139 40.2509C22.398 39.5189 22.9033 38.9038 23.1709 38.4667C24.0803 36.9814 24.3629 34.7937 23.9663 31.8739L23.948 31.75ZM35.5905 29.2216C37.0619 29.2216 38.2548 30.4144 38.2548 31.8859C38.2548 33.3573 37.0619 34.5502 35.5905 34.5502C34.1191 34.5502 32.9262 33.3573 32.9262 31.8859C32.9262 30.4144 34.1191 29.2216 35.5905 29.2216ZM35.5905 31.2216C35.2236 31.2216 34.9262 31.519 34.9262 31.8859C34.9262 32.2528 35.2236 32.5502 35.5905 32.5502C35.9574 32.5502 36.2548 32.2528 36.2548 31.8859C36.2548 31.519 35.9574 31.2216 35.5905 31.2216ZM22.93 25.3418H15.708L15.3286 27.6118L14.985 29.75L23.6529 29.7513L23.4601 28.5353L23.1551 26.6769L22.93 25.3418ZM37.206 12.3478H34.17L34.1666 12.4482C34.1556 12.6336 34.1419 12.8188 34.1254 13.0038L34.0679 13.5581L33.9939 14.1106L33.948 14.4088H37.415L37.3721 14.104C37.2948 13.5535 37.2406 13.0001 37.2094 12.4393L37.206 12.3478ZM37.6293 8.7998H33.5L33.499 10.3338H37.629L37.6293 8.7998Z" fill="#009639"/>
</g>
</g>
</g>
</svg>
