<svg width="60" height="60" viewBox="0 0 60 60" fill="none" xmlns="http://www.w3.org/2000/svg">
<rect width="60" height="60" fill="white"/>
<path d="M41.0928 12.7407L46.188 8.16016L51.6281 13.0753L46.5842 18.4979L41.0928 12.7407Z" fill="#D8D8D8"/>
<path fill-rule="evenodd" clip-rule="evenodd" d="M49.1426 8.84149L50.8417 10.5406C52.3952 12.0941 52.405 14.6098 50.8636 16.1754L48.1095 18.9727L48.1311 18.9943L46.7169 20.4085L46.7063 20.3979L15.078 52.5221H7.52246V45.1112L43.4738 8.85352C45.0292 7.28481 47.5619 7.27407 49.1306 8.82952L49.1426 8.84149ZM46.6952 17.5584L49.4384 14.7722C50.2091 13.9894 50.2042 12.7316 49.4275 11.9548L47.7284 10.2557L47.7224 10.2497C46.938 9.47199 45.6717 9.47737 44.894 10.2617L42.1579 13.0211L43.8836 14.7468L45.2978 16.161L46.6952 17.5584ZM40.7497 14.4413L42.4694 16.161L12.2955 46.3348L10.7039 44.7431L40.7497 14.4413ZM9.52246 46.3902V50.5221H13.6544L9.52246 46.3902ZM15.3529 49.3922L45.292 18.9836L43.8836 17.5752L13.7098 47.749L15.3529 49.3922Z" fill="#979797"/>
</svg>
