<svg width="60" height="60" viewBox="0 0 60 60" fill="none" xmlns="http://www.w3.org/2000/svg">
<g id="npi-graph-connected">
<rect width="60" height="60" fill="white"/>
<g id="Group 15">
<g id="Group 14">
<rect id="Rectangle" x="8" y="8" width="14" height="14" fill="#E4F2D2"/>
<rect id="Rectangle_2" x="38" y="8" width="14" height="14" fill="#E4F2D2"/>
<rect id="Rectangle_3" x="8" y="38" width="14" height="14" fill="#E4F2D2"/>
<rect id="Rectangle_4" x="38" y="38" width="14" height="14" fill="#E4F2D2"/>
<path id="Combined Shape" fill-rule="evenodd" clip-rule="evenodd" d="M7 7H23V14H37V7H53V23H46V37H53V53H37V46H23V53H7V37H14V23H7V7ZM16 23V37H23V44H37V37H44V23H37V16H23V23H16ZM21 21V9H9V21H21ZM51 21V9H39V21H51ZM21 39V51H9V39H21ZM51 51V39H39V51H51Z" fill="#009639"/>
</g>
</g>
</g>
</svg>
