<svg width="60" height="60" viewBox="0 0 60 60" fill="none" xmlns="http://www.w3.org/2000/svg">
<rect width="60" height="60" fill="white"/>
<circle cx="22.8089" cy="21.4764" r="8.64286" fill="#D8D8D8" stroke="#979797" stroke-width="2"/>
<circle cx="22.8089" cy="21.4764" r="8.64286" stroke="#979797" stroke-width="2"/>
<path fill-rule="evenodd" clip-rule="evenodd" d="M22.2469 21.0744H22.6262C23.0227 21.0744 23.3268 20.9923 23.5387 20.8283C23.7506 20.6643 23.8566 20.4284 23.8566 20.1208C23.8566 19.8133 23.7506 19.5774 23.5387 19.4134C23.3268 19.2494 23.0227 19.1673 22.6262 19.1673H22.2469V21.0744ZM26.6659 25.3498H24.1642L22.2469 22.3765V25.3498H20.2373V17.6191H23.3644C23.7951 17.6191 24.171 17.6824 24.4923 17.8088C24.8135 17.9353 25.0784 18.1079 25.2869 18.3266C25.4953 18.5453 25.6525 18.7982 25.7585 19.0853C25.8644 19.3724 25.9174 19.68 25.9174 20.0081C25.9174 20.5959 25.7756 21.0727 25.4919 21.4383C25.2083 21.804 24.7896 22.0518 24.2359 22.1817L26.6659 25.3498Z" fill="#979797"/>
<circle cx="40.0589" cy="17.6429" r="8.64286" fill="#D8D8D8" stroke="#979797" stroke-width="2"/>
<circle cx="40.0589" cy="17.6429" r="8.64286" stroke="#979797" stroke-width="2"/>
<path fill-rule="evenodd" clip-rule="evenodd" d="M39.4969 17.2409H39.8762C40.2727 17.2409 40.5768 17.1589 40.7887 16.9948C41.0006 16.8308 41.1066 16.5949 41.1066 16.2874C41.1066 15.9798 41.0006 15.744 40.7887 15.5799C40.5768 15.4159 40.2727 15.3338 39.8762 15.3338H39.4969V17.2409ZM43.9159 21.5163H41.4142L39.4969 18.543V21.5163H37.4873V13.7856H40.6144C41.0451 13.7856 41.421 13.8489 41.7423 13.9753C42.0635 14.1018 42.3284 14.2744 42.5369 14.4931C42.7453 14.7118 42.9025 14.9647 43.0085 15.2518C43.1144 15.5389 43.1674 15.8465 43.1674 16.1746C43.1674 16.7624 43.0256 17.2392 42.7419 17.6049C42.4583 17.9705 42.0396 18.2183 41.4859 18.3482L43.9159 21.5163Z" fill="#979797"/>
<path d="M16.2451 35.0612C16.2731 34.4734 16.5032 33.8524 16.9354 33.198C18.0969 31.5311 20.0278 30.4403 22.2135 30.4403C23.8439 30.4403 25.3325 31.0472 26.4657 32.0475H34.4162C36.1914 32.0475 37.6305 33.4866 37.6305 35.2618C37.6305 37.037 36.1914 38.476 34.4162 38.476H35.3464C36.1989 38.476 37.0164 38.1374 37.6192 37.5346L48.2538 25.843C49.1945 24.8088 50.811 24.7777 51.7909 25.7749V25.7749C52.7043 26.7045 52.7235 28.1886 51.8345 29.1415L39.3036 42.5737C38.7008 43.1765 37.8833 43.5151 37.0308 43.5151H24.5672" stroke="#979797" stroke-width="2" stroke-linecap="round"/>
<path d="M14.1514 33.5807L26.3742 45.8036L20.9699 51.2079L8.74705 38.985L14.1514 33.5807Z" fill="#D8D8D8" stroke="#979797" stroke-width="2"/>
<path d="M30.2494 32.0474L34.4373 32.0474C36.2125 32.0474 37.6516 33.4864 37.6516 35.2616C37.6516 37.0368 36.2125 38.4759 34.4373 38.4759H27.0352" stroke="#979797" stroke-width="2" stroke-linecap="round" stroke-linejoin="round"/>
</svg>
