<svg width="60" height="60" viewBox="0 0 60 60" fill="none" xmlns="http://www.w3.org/2000/svg">
<rect width="60" height="60" fill="white"/>
<path fill-rule="evenodd" clip-rule="evenodd" d="M30.0194 7.68468C30.6052 7.0989 31.555 7.0989 32.1407 7.68468L41.6867 17.2306C42.2725 17.8164 42.2725 18.7662 41.6867 19.3519L40.626 20.4126C40.0402 20.9984 39.0905 20.9984 38.5047 20.4126L28.9588 10.8667C28.373 10.2809 28.373 9.33113 28.9588 8.74534L30.0194 7.68468Z" fill="#339C63"/>
<path fill-rule="evenodd" clip-rule="evenodd" d="M16.5194 21.1847C17.1052 20.5989 18.055 20.5989 18.6407 21.1847L28.1867 30.7306C28.7725 31.3164 28.7725 32.2662 28.1867 32.8519L27.126 33.9126C26.5402 34.4984 25.5905 34.4984 25.0047 33.9126L15.4588 24.3667C14.873 23.7809 14.873 22.8311 15.4588 22.2453L16.5194 21.1847Z" fill="#339C63"/>
<path fill-rule="evenodd" clip-rule="evenodd" d="M33.3778 7.50806L41.8631 15.9933C43.1323 17.2625 43.1323 19.3203 41.8631 20.5895C40.8239 21.6287 39.2562 21.817 38.0254 21.1546L35.5325 23.6112L51.4807 38.2756C51.5616 38.35 51.6392 38.428 51.7132 38.5093C53.0916 40.0238 52.9812 42.3689 51.4667 43.7473C49.9031 45.1703 47.5106 45.1077 46.023 43.6408L45.8724 43.4841L31.448 27.6363L28.8805 30.1664C29.5989 31.4093 29.4264 33.0262 28.3631 34.0895C27.0939 35.3587 25.0361 35.3587 23.7669 34.0895L15.2816 25.6042C14.0124 24.335 14.0124 22.2773 15.2816 21.0081C16.3035 19.9861 17.8368 19.787 19.0579 20.4108L28.1779 11.2718C27.5619 10.0527 27.7631 8.5265 28.7816 7.50806C30.0508 6.23885 32.1086 6.23885 33.3778 7.50806ZM20.5833 21.7136L27.5446 28.6749L36.5137 19.8364L29.4779 12.8005L20.5833 21.7136ZM40.4488 17.4075L31.9636 8.92227C31.4754 8.43411 30.684 8.43411 30.1958 8.92227C29.7076 9.41042 29.7076 10.2019 30.1958 10.69L38.6811 19.1753C39.1692 19.6635 39.9607 19.6635 40.4488 19.1753C40.937 18.6872 40.937 17.8957 40.4488 17.4075ZM32.8736 26.2314L34.1063 25.0167L50.127 39.7478L50.2341 39.8555C50.869 40.5531 50.8181 41.6333 50.1206 42.2681C49.3199 42.9968 48.0802 42.9385 47.3515 42.1379L32.8736 26.2314ZM32.4067 44.0001H37V52.0001H8V44.0001H12.5907C13.0609 41.44 15.3039 39.5001 18 39.5001H27C29.6818 39.5001 31.9278 41.4238 32.4067 44.0001ZM32.5234 46.0001H12.5H9.999V50.0001H35V46.0001H32.5234ZM30.353 44.0001L30.3278 43.9119C29.8886 42.5673 28.6574 41.5849 27.1924 41.5053L27 41.5001H18C16.4536 41.5001 15.1414 42.503 14.6784 43.8938L14.646 44.0001H30.353ZM18.4636 22.4223L26.9488 30.9075C27.437 31.3957 27.437 32.1872 26.9488 32.6753C26.4607 33.1635 25.6692 33.1635 25.1811 32.6753L16.6958 24.19C16.2076 23.7019 16.2076 22.9104 16.6958 22.4223C17.1839 21.9341 17.9754 21.9341 18.4636 22.4223ZM11.4842 29.0599C11.8446 28.6994 12.4119 28.6717 12.8042 28.9767L12.8984 29.0599L15.1048 31.2663C15.4953 31.6568 15.4953 32.29 15.1048 32.6805C14.7443 33.041 14.1771 33.0687 13.7848 32.7637L13.6906 32.6805L11.4842 30.4741C11.0936 30.0836 11.0936 29.4504 11.4842 29.0599ZM13.8977 35.0326C13.8977 34.4803 13.45 34.0326 12.8977 34.0326H10.0856L9.96899 34.0393C9.47165 34.0971 9.08561 34.5198 9.08561 35.0326C9.08561 35.5849 9.53333 36.0326 10.0856 36.0326H12.8977L13.0143 36.0259C13.5117 35.9681 13.8977 35.5455 13.8977 35.0326Z" fill="white"/>
</svg>
