<svg width="60" height="60" viewBox="0 0 60 60" fill="none" xmlns="http://www.w3.org/2000/svg">
<rect width="60" height="60" fill="white"/>
<path d="M43 26C47.9706 26 52 21.9706 52 17C52 12.0294 47.9706 8 43 8C38.0294 8 34 12.0294 34 17C34 21.9706 38.0294 26 43 26Z" fill="#B3D4F1"/>
<path d="M14.8585 32.8736L27.0813 45.0965C27.4718 45.487 27.4718 46.1201 27.0813 46.5107L20.9699 52.6221L7.33284 38.985L13.4443 32.8736C13.8348 32.4831 14.4679 32.4831 14.8585 32.8736Z" fill="#B3D4F1"/>
<path d="M43.0002 7C48.523 7 53.0002 11.4772 53.0002 17C53.0002 19.7238 51.9112 22.1932 50.1449 23.9967C50.9114 24.0167 51.674 24.3018 52.2854 24.858C52.3313 24.8998 52.3761 24.9428 52.4196 24.9871C53.7083 26.2987 53.7805 28.3647 52.6177 29.7608L52.4834 29.9131L40.0117 43.281C39.2778 44.0148 38.3011 44.4501 37.2705 44.5085L37.0317 44.5153L26.5005 44.5153L27.082 45.0966C27.4725 45.4871 27.4725 46.1203 27.082 46.5108L20.9706 52.6223L7.3335 38.9852L13.4449 32.8738C13.8354 32.4832 14.4686 32.4832 14.8591 32.8738L15.5854 33.5997C15.7219 33.2787 15.8989 32.9547 16.1159 32.6264C17.4957 30.6462 19.7544 29.4405 22.2144 29.4405C23.8091 29.4405 25.3274 29.9458 26.5821 30.8595L26.8295 31.0476H34.4171C36.5701 31.0476 38.3459 32.662 38.6002 34.7462L38.62 34.9494L46.3853 26.4125C45.3281 26.7928 44.1883 27 43.0002 27C42.7439 27 42.4899 26.9904 42.2385 26.9714C42.1621 26.9901 42.0823 27 42.0002 27H31.0002C30.4479 27 30.0002 26.5523 30.0002 26C30.0002 25.4477 30.4479 25 31.0002 25H36.9992C35.6266 23.9688 34.528 22.5925 33.8323 21H26.0002C25.4479 21 25.0002 20.5523 25.0002 20C25.0002 19.4477 25.4479 19 26.0002 19H33.2002C33.069 18.3538 33.0002 17.6849 33.0002 17C33.0002 16.3151 33.069 15.6462 33.2002 15H30.0002C29.4479 15 29.0002 14.5523 29.0002 14C29.0002 13.4477 29.4479 13 30.0002 13H33.8323C35.3754 9.46819 38.8995 7 43.0002 7ZM14.152 34.9951L10.1619 38.9852L20.9706 49.7938L24.9607 45.8037L14.152 34.9951ZM49.179 26.3246L49.0766 26.4257L38.3273 38.2419C37.5934 38.9757 36.6167 39.411 35.5861 39.4694L35.3473 39.4762H27.0359C26.4836 39.4762 26.0359 39.0285 26.0359 38.4762C26.0359 37.9634 26.4219 37.5407 26.9193 37.4829L27.0359 37.4762H34.4171L34.5753 37.4706C35.7244 37.3895 36.6314 36.4317 36.6314 35.2619C36.6314 34.0922 35.7244 33.1343 34.5753 33.0532L34.4171 33.0476H26.0885L25.8049 32.7974C24.8197 31.9278 23.5562 31.4405 22.2144 31.4405C20.4155 31.4405 18.7666 32.3208 17.7708 33.7493C17.4314 34.263 17.2636 34.7159 17.2449 35.1089C17.2427 35.155 17.2375 35.2002 17.2293 35.2443L24.5035 42.5183L24.5681 42.5153H37.0317C37.5537 42.5153 38.0568 42.331 38.4368 42.0159L38.5734 41.8917L51.021 28.5488C51.5913 27.9374 51.579 26.9852 50.993 26.3888C50.9757 26.3712 50.9579 26.3541 50.9397 26.3375C50.4368 25.8801 49.6766 25.884 49.179 26.3246ZM43.0002 9C38.5819 9 35.0002 12.5817 35.0002 17C35.0002 21.4183 38.5819 25 43.0002 25C47.4184 25 51.0002 21.4183 51.0002 17C51.0002 12.5817 47.4184 9 43.0002 9ZM46.4871 13.0321L47.7727 14.5642L41.0713 20.1873L38.5002 17.1231L40.0323 15.8376L41.3178 17.3697L46.4871 13.0321Z" fill="#006FCF"/>
</svg>
