<svg width="60" height="60" viewBox="0 0 60 60" fill="none" xmlns="http://www.w3.org/2000/svg">
<g clip-path="url(#clip0)">
<rect width="60" height="60" fill="white"/>
<path d="M19 41H10V52H19V41Z" fill="#D8D8D8"/>
<path d="M35 31H26V52H35V31Z" fill="#D8D8D8"/>
<path d="M52 20H43V52H52V20Z" fill="#D8D8D8"/>
<path d="M20.0003 40V53H9.00026V40H20.0003ZM36.0003 30V53H25.0003V30H36.0003ZM53.0003 19V53H42.0003V19H53.0003ZM18.0003 42H11.0003V51H18.0003V42ZM34.0003 32H27.0003V51H34.0003V32ZM51.0003 21H44.0003V51H51.0003V21ZM36.0003 9V18H34.0003L33.9996 12.322L24.6516 21.6709L20.9533 17.973L9.76443 29.1408L8.35156 27.7253L20.9549 15.1458L24.6513 18.842L32.4936 11H27.0003V9H36.0003Z" fill="#979797"/>
</g>
<defs>
<clipPath id="clip0">
<rect width="60" height="60" fill="white"/>
</clipPath>
</defs>
</svg>
