<svg width="60" height="60" viewBox="0 0 60 60" fill="none" xmlns="http://www.w3.org/2000/svg">
<rect width="60" height="60" fill="white"/>
<path fill-rule="evenodd" clip-rule="evenodd" d="M32.125 51.9595V32.8408H41.575V51.8606" fill="#D8D8D8"/>
<circle cx="43.542" cy="20.2656" r="10" fill="#D8D8D8"/>
<path fill-rule="evenodd" clip-rule="evenodd" d="M33.2869 14.4444C33.675 13.7877 34.1238 13.1712 34.6257 12.6027L29.9957 8L8.32714 29.7979C7.88911 30.2385 7.89123 30.9508 8.33187 31.3889C8.77252 31.8269 9.48483 31.8248 9.92286 31.3841L11 30.3006V52.7057H49.25V31.1437C48.5395 31.5214 47.7865 31.8298 47 32.0599V50.4557H42.7V32.5059C41.4887 32.4135 40.3277 32.1414 39.2436 31.716H31V50.4557H13.25V28.0371L30.0052 11.182L33.2869 14.4444ZM40.45 50.4557V33.966H33.25V50.4557H40.45ZM17.75 31.716V39.966H26V31.716H17.75ZM23.75 37.716H20V33.966H23.75V37.716ZM43.5417 10.2655C38.0188 10.2655 33.5417 14.7426 33.5417 20.2655C33.5417 25.7883 38.0188 30.2655 43.5417 30.2655C45.4461 30.2655 47.2261 29.7332 48.7411 28.8092C48.7783 28.8793 48.8245 28.946 48.8798 29.0078L52.9743 33.5841L53.0638 33.6724C53.4385 33.9987 54.0064 34.0024 54.3864 33.6625C54.7979 33.2943 54.8331 32.6621 54.4648 32.2505L50.3702 27.6742L50.3164 27.6211C52.2994 25.7937 53.5417 23.1747 53.5417 20.2655C53.5417 14.7426 49.0645 10.2655 43.5417 10.2655ZM43.5417 12.2655C47.96 12.2655 51.5417 15.8472 51.5417 20.2655C51.5417 24.6838 47.96 28.2655 43.5417 28.2655C39.1234 28.2655 35.5417 24.6838 35.5417 20.2655C35.5417 15.8472 39.1234 12.2655 43.5417 12.2655ZM39.9 22.0655C40.6732 22.0655 41.3 21.4387 41.3 20.6655C41.3 19.8923 40.6732 19.2655 39.9 19.2655C39.1268 19.2655 38.5 19.8923 38.5 20.6655C38.5 21.4387 39.1268 22.0655 39.9 22.0655ZM43.9417 22.0655C44.7149 22.0655 45.3417 21.4387 45.3417 20.6655C45.3417 19.8923 44.7149 19.2655 43.9417 19.2655C43.1685 19.2655 42.5417 19.8923 42.5417 20.6655C42.5417 21.4387 43.1685 22.0655 43.9417 22.0655ZM49.3 20.6655C49.3 21.4387 48.6732 22.0655 47.9 22.0655C47.1268 22.0655 46.5 21.4387 46.5 20.6655C46.5 19.8923 47.1268 19.2655 47.9 19.2655C48.6732 19.2655 49.3 19.8923 49.3 20.6655Z" fill="#979797"/>
</svg>
