<svg width="60" height="60" viewBox="0 0 60 60" fill="none" xmlns="http://www.w3.org/2000/svg">
<rect width="60" height="60" fill="white"/>
<path d="M21.7137 10.6358C22.7138 10.6358 23.5244 9.7069 23.5244 8.56104C23.5244 7.79712 22.9209 6.47681 21.7137 4.6001C20.5066 6.47681 19.903 7.79712 19.903 8.56104C19.903 9.7069 20.7137 10.6358 21.7137 10.6358ZM14.4709 13.5358C15.4709 13.5358 16.2816 12.6069 16.2816 11.461C16.2816 10.6971 15.678 9.37681 14.4709 7.5001C13.2637 9.37681 12.6602 10.6971 12.6602 11.461C12.6602 12.6069 13.4708 13.5358 14.4709 13.5358ZM29.0102 13.5358C30.0102 13.5358 30.8209 12.6069 30.8209 11.461C30.8209 10.6971 30.2173 9.37681 29.0102 7.5001C27.803 9.37681 27.1994 10.6971 27.1994 11.461C27.1994 12.6069 28.0101 13.5358 29.0102 13.5358ZM49.5066 34.3751H51.1349C52.8826 34.3751 54.2994 35.7873 54.2994 37.5292V48.5689C54.2994 50.3109 52.8826 51.723 51.1349 51.723L37.3334 51.7006L32.1134 56.4803C32.0477 56.5445 31.9593 56.5805 31.8672 56.5805C31.673 56.5805 31.5156 56.4236 31.5156 56.23L31.2217 51.723H27.2854C25.5377 51.723 24.1209 50.3109 24.1209 48.5689V46.6608L46.3882 47.5401C48.0438 47.6055 49.4389 46.3164 49.5042 44.6609C49.5058 44.6214 49.5066 44.582 49.5066 44.5425V34.3751Z" fill="#B3D4F1"/>
<path d="M37.4126 30.2236H47.7214C49.5067 30.4747 50.3994 31.6197 50.3994 33.6586V44.1552C50.3994 45.8499 49.089 47.2236 47.4726 47.2236H34.8019H29.0555H25.3262C23.7098 47.2236 22.3994 45.8499 22.3994 44.1552V41.6134V38.9908H37.4126V30.2236Z" fill="#B3D4F1"/>
<path d="M37.9794 30.6611H46.9244C48.646 30.8974 49.5068 31.9751 49.5068 33.894V43.7732C49.5068 45.3682 48.2433 46.6611 46.6845 46.6611H34.4664H28.9252H25.3291C23.7704 46.6611 22.5068 45.3682 22.5068 43.7732V41.3809V38.9125" stroke="#006FCF" stroke-width="1.5"/>
<path d="M51.5689 34.2503C53.0876 34.2503 54.3189 35.4815 54.3189 37.0003V48.9638C54.3189 50.4826 53.0876 51.7138 51.5689 51.7138H37.3449L32.6007 56.3799C32.4417 56.5363 32.2277 56.6239 32.0047 56.6239C31.5352 56.6239 31.1547 56.2433 31.1547 55.7739V51.7138H26.8996C25.3808 51.7138 24.1496 50.4826 24.1496 48.9638V46.627H25.6496V48.9638C25.6496 49.6542 26.2092 50.2138 26.8996 50.2138H32.6547V54.2229L36.7308 50.2138H51.5689C52.2592 50.2138 52.8189 49.6542 52.8189 48.9638V37.0003C52.8189 36.3099 52.2592 35.7503 51.5689 35.7503H49.6784V34.2503H51.5689ZM42.2353 40.5735C42.6495 40.5735 42.9853 40.9093 42.9853 41.3235C42.9853 41.7377 42.6495 42.0735 42.2353 42.0735H28.9567C28.5425 42.0735 28.2067 41.7377 28.2067 41.3235C28.2067 40.9093 28.5425 40.5735 28.9567 40.5735H42.2353ZM21.7139 3.21387L22.3446 4.19452C23.6286 6.19074 24.2746 7.6037 24.2746 8.56119C24.2746 9.82822 23.5141 10.9235 22.4427 11.2711C22.4566 11.3265 22.4639 11.3857 22.4639 11.4467V19.2931L28.206 19.2929L28.2067 14.1967L28.209 14.1463C27.1759 13.7737 26.4496 12.6995 26.4496 11.4612C26.4496 10.5037 27.0955 9.09074 28.3795 7.09452L29.0103 6.11387L29.6411 7.09452C30.9251 9.09074 31.571 10.5037 31.571 11.4612C31.571 12.7412 30.795 13.8459 29.7062 14.1816L29.706 19.2929L35.5807 19.2931C36.9225 19.2931 38.0103 20.3632 38.0103 21.6833L38.01 33.9979L42.2291 33.9989C42.6433 33.9989 42.9791 34.3346 42.9791 34.7489C42.9791 35.1631 42.6433 35.4989 42.2291 35.4989L38.01 35.4979L38.0103 39.211H6.021V21.6833C6.021 20.3632 7.10875 19.2931 8.45056 19.2931L13.721 19.2929V14.1967L13.7233 14.1649C12.6618 13.8106 11.9103 12.7208 11.9103 11.4612C11.9103 10.5037 12.5562 9.09074 13.8402 7.09452L14.471 6.11387L15.1018 7.09452C16.3858 9.09074 17.0317 10.5037 17.0317 11.4612C17.0317 12.7204 16.2807 13.8099 15.2197 14.1646L15.221 14.1967V19.2929L20.9639 19.2931V11.4467C20.9639 11.3857 20.9711 11.3265 20.9848 11.2698C19.9136 10.9235 19.1531 9.82822 19.1531 8.56119C19.1531 7.6037 19.7991 6.19074 21.0831 4.19452L21.7139 3.21387ZM7.52121 26.3769L7.521 37.711H36.5103L36.51 26.4299L21.9103 26.4303C21.6471 26.4303 21.3905 26.5134 21.1773 26.6678L20.417 27.2182C19.5038 27.8794 18.2795 27.9162 17.3282 27.311L17.1169 27.1766C16.6625 26.8875 16.0637 26.9834 15.7223 27.4L14.919 28.3802C14.7782 28.5521 14.617 28.7063 14.439 28.8394C13.2227 29.7489 11.4993 29.5003 10.5898 28.284L9.5785 26.9317C9.34251 26.6161 8.97151 26.4303 8.57745 26.4303H7.79957C7.70121 26.4303 7.60728 26.4113 7.52121 26.3769ZM35.5807 20.7931H8.45056C7.93173 20.7931 7.521 21.1972 7.521 21.6833L7.52121 24.9836C7.60728 24.9492 7.70121 24.9303 7.79957 24.9303H8.57745C9.44439 24.9303 10.2606 25.3391 10.7798 26.0333L11.791 27.3856C12.2045 27.9385 12.9878 28.0515 13.5407 27.6381C13.6216 27.5776 13.6948 27.5075 13.7589 27.4294L14.5622 26.4492C15.3847 25.4456 16.8272 25.2145 17.922 25.911L18.1334 26.0454C18.5658 26.3205 19.1223 26.3038 19.5374 26.0032L20.2976 25.4528C20.7667 25.1131 21.3312 24.9303 21.9103 24.9303L36.51 24.9299L36.5103 21.6833C36.5103 21.1972 36.0995 20.7931 35.5807 20.7931ZM14.471 8.93136C13.7626 10.1449 13.4103 11.0093 13.4103 11.4612C13.4103 12.2138 13.9096 12.786 14.471 12.786C15.0324 12.786 15.5317 12.2138 15.5317 11.4612C15.5317 11.0093 15.1794 10.1449 14.471 8.93136ZM29.0103 8.93136C28.3018 10.1449 27.9496 11.0093 27.9496 11.4612C27.9496 12.2138 28.4489 12.786 29.0103 12.786C29.5717 12.786 30.071 12.2138 30.071 11.4612C30.071 11.0093 29.7187 10.1449 29.0103 8.93136ZM21.7139 6.03136C21.0054 7.24487 20.6531 8.10933 20.6531 8.56119C20.6531 9.31383 21.1525 9.88597 21.7139 9.88597C22.2752 9.88597 22.7746 9.31383 22.7746 8.56119C22.7746 8.10933 22.4223 7.24487 21.7139 6.03136Z" fill="#006FCF"/>
</svg>
