<svg width="60" height="60" viewBox="0 0 60 60" fill="none" xmlns="http://www.w3.org/2000/svg">
<g id="npi-chat-wallet" clip-path="url(#clip0)">
<rect width="60" height="60" fill="white"/>
<g id="Chat">
<path id="Combined Shape Copy" d="M47.5249 29.1045C49.3373 29.1045 52.4544 30.588 52.4544 32.418V44.0154C52.4544 45.8454 50.9852 47.3289 49.1728 47.3289H34.9664L29.1434 53.0938C29.0752 53.1613 28.9836 53.1991 28.8881 53.1991C28.6867 53.1991 28.5235 53.0343 28.5235 52.8309V47.3289H24.4417C22.6294 47.3289 21.1602 45.0215 21.1602 43.1915H40.1824C44.9691 43.1915 48.6844 39.0162 48.1282 34.262L47.5249 29.1045Z" fill="#78BE20" fill-opacity="0.2"/>
<path id="Combined Shape Copy_2" d="M35.7439 24.9408L45.599 24.5991C45.599 24.5991 48.6016 25.0058 48.6016 28.3085V40.2741C48.6016 42.1041 47.1324 43.5876 45.32 43.5876H31.1136H24.6707H20.5889C18.7766 43.5876 17.3074 42.1041 17.3074 40.2741V33.5597H34.0048L33.8977 27.0656L35.7439 26.5652V24.9408Z" fill="#78BE20" fill-opacity="0.2"/>
<g id="Union">
<path d="M25.5146 37.4961C25.5146 36.9438 25.9624 36.4961 26.5146 36.4961H39.0702C39.6225 36.4961 40.0702 36.9438 40.0702 37.4961C40.0702 38.0484 39.6225 38.4961 39.0702 38.4961H26.5146C25.9624 38.4961 25.5146 38.0484 25.5146 37.4961Z" fill="#009639"/>
<path fill-rule="evenodd" clip-rule="evenodd" d="M9.67285 10.8399C9.67285 10.112 10.2629 9.52197 10.9908 9.52197H34.1703C34.7226 9.52197 35.1703 9.07426 35.1703 8.52197C35.1703 7.96969 34.7226 7.52197 34.1703 7.52197H10.9908C9.15835 7.52197 7.67285 9.00747 7.67285 10.8399V31.7017C7.67285 33.5342 9.15835 35.0197 10.9908 35.0197H16.3074V40.2741C16.3074 42.5145 18.0077 44.3692 20.1952 44.5696C20.4648 46.6834 22.2557 48.3289 24.4417 48.3289H27.5235V52.8309C27.5235 53.5774 28.1254 54.1991 28.8881 54.1991C29.2485 54.1991 29.5925 54.0563 29.8469 53.8045L35.3777 48.3289H49.1728C51.5466 48.3289 53.4544 46.3886 53.4544 44.0154V32.418C53.4544 30.1887 51.7708 28.3413 49.599 28.1255C49.5437 26.2155 48.6255 25.0483 47.6656 24.3904C47.1899 24.0644 46.7202 23.8725 46.3718 23.7615C46.1962 23.7055 46.047 23.6687 45.9373 23.6452C45.8822 23.6334 45.8367 23.6249 45.8023 23.619L45.7803 23.6153L45.759 23.6119L45.7438 23.6097L45.7379 23.6088L45.7343 23.6083C45.7343 23.6083 45.7332 23.6082 45.599 24.5991L45.7332 23.6082L45.6664 23.5991H37.4883V22.43C37.4883 21.8777 37.0406 21.43 36.4883 21.43H35.1703V14.4761H9.66024C9.66854 14.4242 9.67285 14.371 9.67285 14.3168V12.9985H34.1703C34.7226 12.9985 35.1703 12.5508 35.1703 11.9985C35.1703 11.4463 34.7226 10.9985 34.1703 10.9985H9.67285V10.8399ZM49.6016 30.1454V40.2741C49.6016 42.6472 47.6938 44.5876 45.32 44.5876H22.2303C22.4822 45.5936 23.383 46.3289 24.4417 46.3289H29.5235V51.3103L34.5552 46.3289H49.1728C50.4238 46.3289 51.4544 45.3023 51.4544 44.0154V32.418C51.4544 31.2817 50.6509 30.3483 49.6016 30.1454ZM18.3074 40.2741V35.0197H35.1703V31.9844H39.0703C39.6226 31.9844 40.0703 31.5367 40.0703 30.9844C40.0703 30.4321 39.6226 29.9844 39.0703 29.9844H35.1703V28.0659H36.4883C37.0406 28.0659 37.4883 27.6182 37.4883 27.0659V25.5991H45.5103L45.5187 25.6009C45.5732 25.6126 45.6586 25.6333 45.7644 25.667C45.9791 25.7355 46.26 25.8517 46.5349 26.0401C47.0462 26.3905 47.6016 27.0246 47.6016 28.3085V40.2741C47.6016 41.561 46.571 42.5876 45.32 42.5876H20.5889C19.338 42.5876 18.3074 41.561 18.3074 40.2741ZM31.8524 28.0659H33.1703V33.0197H10.9908C10.2629 33.0197 9.67285 32.4296 9.67285 31.7017V16.4761H33.1703V21.43H31.8524C30.0199 21.43 28.5344 22.9155 28.5344 24.748C28.5344 26.5804 30.0199 28.0659 31.8524 28.0659ZM30.5344 24.748C30.5344 25.4759 31.1245 26.0659 31.8524 26.0659H35.4883V23.43H31.8524C31.1245 23.43 30.5344 24.0201 30.5344 24.748Z" fill="#009639"/>
</g>
</g>
</g>
<defs>
<clipPath id="clip0">
<rect width="60" height="60" fill="white"/>
</clipPath>
</defs>
</svg>
