<svg width="60" height="60" viewBox="0 0 60 60" fill="none" xmlns="http://www.w3.org/2000/svg">
<g id="npi-rotating_arrow-money">
<rect width="60" height="60" fill="white"/>
<g id="Money : Refunder 1">
<g id="Group">
<path id="Vector" d="M38.055 31.485C41.8823 31.485 44.985 28.3823 44.985 24.555C44.985 20.7277 41.8823 17.625 38.055 17.625C34.2277 17.625 31.125 20.7277 31.125 24.555C31.125 28.3823 34.2277 31.485 38.055 31.485Z" fill="#E4F2D2" stroke="#009639" stroke-width="1.5"/>
<path id="Circle" d="M26.8204 3.75L31.8311 8.76069L26.793 13.7988L25.202 12.2078L27.4096 9.99885C17.4855 11.3037 9.82495 19.7947 9.82495 30.075C9.82495 41.1034 18.6411 50.0728 29.6102 50.3198L30.0749 50.325L30.7898 50.3126C31.2653 50.2962 31.7382 50.2632 32.2083 50.2141L32.911 50.1281L33.2231 52.3564C32.4453 52.4653 31.6595 52.5338 30.8682 52.5613L30.0749 52.575C17.6485 52.575 7.57495 42.5014 7.57495 30.075C7.57495 18.4854 16.3374 8.94248 27.5987 7.7097L25.2294 5.34099L26.8204 3.75ZM38.3721 48.5529L39.295 50.6049C38.5747 50.9289 37.8374 51.2147 37.0857 51.461L36.3293 51.694L35.705 49.5324C36.6174 49.2689 37.5084 48.9414 38.3721 48.5529ZM43.1763 45.5163L44.6328 47.2313C44.0305 47.7429 43.4017 48.2226 42.7493 48.6681L42.0892 49.1022L40.8862 47.2008C41.6878 46.6936 42.4531 46.1306 43.1763 45.5163ZM46.9935 41.207L48.8719 42.4455C48.4369 43.1053 47.9675 43.7417 47.4659 44.3521L46.9536 44.9536L45.2663 43.4652C45.894 42.7536 46.4713 41.9989 46.9935 41.207ZM49.4017 36.1388L51.5487 36.8117C51.3119 37.5673 51.0355 38.3086 50.7207 39.033L50.3933 39.7517L48.3626 38.7829C48.7704 37.928 49.1178 37.0447 49.4017 36.1388ZM28.5047 22.875V25.125H20.625V36.375H40.875V33.75H43.125V38.625H18.375V22.875H28.5047ZM28.125 31.875V34.125H22.875V31.875H28.125ZM38.0548 16.5C42.5033 16.5 46.1096 20.1063 46.1096 24.5548C46.1096 29.0033 42.5033 32.6096 38.0548 32.6096C33.6062 32.6096 30 29.0033 30 24.5548C30 20.1063 33.6062 16.5 38.0548 16.5ZM38.0548 18.75C34.8488 18.75 32.25 21.3489 32.25 24.5548C32.25 27.7607 34.8488 30.3596 38.0548 30.3596C41.2607 30.3596 43.8596 27.7607 43.8596 24.5548C43.8596 21.3489 41.2607 18.75 38.0548 18.75ZM38.5189 21.3329C38.8786 21.3329 39.1927 21.3857 39.461 21.4913C39.7294 21.5969 39.9506 21.7411 40.1248 21.9238C40.2989 22.1065 40.4302 22.3178 40.5187 22.5576C40.6072 22.7974 40.6515 23.0543 40.6515 23.3284C40.6515 23.8194 40.533 24.2176 40.296 24.5231C40.0591 24.8286 39.7094 25.0355 39.2469 25.144L41.2767 27.7904H39.187L37.5854 25.3068V27.7904H35.9068V21.3329H38.5189ZM37.9023 22.6261H37.5854V24.2191H37.9023C38.2335 24.2191 38.4875 24.1506 38.6645 24.0135C38.8415 23.8765 38.93 23.6795 38.93 23.4226C38.93 23.1657 38.8415 22.9687 38.6645 22.8316C38.4875 22.6946 38.2335 22.6261 37.9023 22.6261Z" fill="#009639"/>
</g>
</g>
</g>
</svg>
