<svg width="60" height="60" viewBox="0 0 60 60" fill="none" xmlns="http://www.w3.org/2000/svg">
<rect width="60" height="60" fill="white"/>
<path fill-rule="evenodd" clip-rule="evenodd" d="M30.6239 13.5542L50.8582 24.3812C51.0814 24.5007 51.1655 24.7784 51.0461 25.0016C51.0007 25.0863 50.93 25.1546 50.8437 25.1969L30.1031 35.365C29.9736 35.4284 29.8218 35.4273 29.6933 35.3619L8.96433 24.8068C8.73876 24.692 8.64901 24.416 8.76387 24.1904C8.80882 24.1021 8.88117 24.0308 8.97008 23.9871L30.2054 13.547C30.3379 13.4819 30.4937 13.4846 30.6239 13.5542Z" fill="#D8D8D8"/>
<path fill-rule="evenodd" clip-rule="evenodd" d="M16.6826 28.5821V40.1076C16.6826 40.1076 20.4835 45.8255 30.232 45.8255C39.9805 45.8255 45.0993 39.5842 45.0993 39.5842V27.916L29.9068 35.4116L16.6826 28.5821Z" fill="#D8D8D8"/>
<path fill-rule="evenodd" clip-rule="evenodd" d="M29.7643 12.6496L8.52893 23.0897C8.24604 23.2288 8.01582 23.4558 7.87279 23.7367C7.50732 24.4544 7.79289 25.3325 8.51062 25.698L10.3395 26.6292C10.3354 26.6658 10.3333 26.703 10.3333 26.7406V30.252C10.3333 32.231 8.72902 33.8353 6.75 33.8353C6.19772 33.8353 5.75 34.283 5.75 34.8353C5.75 35.3876 6.19772 35.8353 6.75 35.8353C8.11394 35.8353 9.36365 35.3462 10.3333 34.5339V36.2103L10.3401 36.3269C10.3978 36.8243 10.8205 37.2103 11.3333 37.2103C11.8856 37.2103 12.3333 36.7626 12.3333 36.2103V30.252V27.6445L14.75 28.875V40.4761L15.0517 40.7704L15.3981 41.1016C19.4631 44.9118 24.3725 46.8257 30.076 46.8257C35.9278 46.8257 41.1634 44.8123 45.7417 40.8072L46.0833 40.5084V28.6444L51.2839 26.0948C51.5584 25.9602 51.7836 25.7429 51.9278 25.4734C52.3078 24.7632 52.0402 23.8795 51.33 23.4995L31.0957 12.6725C30.6815 12.4509 30.1859 12.4423 29.7643 12.6496ZM44.0833 29.6249L30.5433 36.2629C30.1314 36.4648 29.6484 36.4612 29.2396 36.253L16.75 29.8934V39.627L16.7817 39.6573C20.3595 43.0041 24.6192 44.72 29.6063 44.821L30.076 44.8257C35.1128 44.8257 39.6268 43.2072 43.6519 39.9523L44.083 39.594L44.0833 29.6249ZM30.397 14.566L49.454 24.763L29.906 34.347L10.383 24.406L30.397 14.566Z" fill="#979797"/>
</svg>
