<svg width="60" height="60" viewBox="0 0 60 60" fill="none" xmlns="http://www.w3.org/2000/svg">
<g id="npi-payment-quick">
<rect width="60" height="60" fill="white"/>
<g id="Group">
<path id="Vector" d="M35.643 27.2865C40.969 27.2865 45.2865 22.969 45.2865 17.643C45.2865 12.3171 40.969 7.99951 35.643 7.99951C30.3171 7.99951 25.9995 12.3171 25.9995 17.643C25.9995 22.969 30.3171 27.2865 35.643 27.2865Z" fill="#E4F2D2"/>
<path id="Vector_2" d="M15.2125 33.2277L26.7283 44.7434C27.314 45.3292 27.314 46.2789 26.7283 46.8647L20.9704 52.6226L7.33333 38.9855L13.0912 33.2277C13.677 32.6419 14.6267 32.6419 15.2125 33.2277Z" fill="#E4F2D2"/>
<path id="Vector_3" d="M52.3695 24.7655C52.4404 24.8312 52.4404 24.8312 52.5087 24.8995C53.8292 26.2434 53.9158 28.3525 52.7499 29.7967L52.5748 29.9983L40.1001 43.3693C39.3603 44.1091 38.3809 44.5542 37.3443 44.629L37.0317 44.6403L26.625 44.6398L26.7284 44.7431C27.3142 45.3289 27.3142 46.2786 26.7284 46.8644L20.9706 52.6223L7.3335 38.9852L13.0914 33.2273C13.6772 32.6415 14.6269 32.6415 15.2127 33.2273L15.4896 33.5065C15.6267 33.1923 15.8015 32.8755 16.0134 32.5549C17.4163 30.5416 19.713 29.3155 22.2144 29.3155C23.7971 29.3155 25.306 29.8051 26.5638 30.6925L26.8729 30.9226H34.438C36.6237 30.9226 38.432 32.5386 38.7332 34.6409L47.5046 24.9959C48.7844 23.5889 50.9625 23.4857 52.3695 24.7655ZM14.152 35.3486L10.5155 38.9852L20.9706 49.4403L24.6071 45.8037L14.152 35.3486ZM49.2974 26.388L49.1691 26.5098L38.4157 38.3302C37.6759 39.07 36.6965 39.5151 35.6598 39.5899L35.3473 39.6012H27.0359C26.4146 39.6012 25.9109 39.0975 25.9109 38.4762C25.9109 37.9066 26.3341 37.436 26.8832 37.3615L27.0359 37.3512H34.4171C35.571 37.3512 36.5064 36.4158 36.5064 35.2619C36.5064 34.1759 35.6778 33.2834 34.6184 33.1822L34.4171 33.1726H26.0412L25.7222 32.8911C24.7596 32.0414 23.5255 31.5655 22.2144 31.5655C20.4569 31.5655 18.846 32.4254 17.8751 33.8182C17.5473 34.3143 17.3873 34.7462 17.3698 35.1148C17.366 35.1951 17.3538 35.273 17.3342 35.3477L24.3909 42.4042C24.399 42.4029 24.4072 42.4017 24.4155 42.4006L24.5681 42.3903H37.0317C37.5166 42.3903 37.9841 42.2218 38.3377 41.936L38.482 41.8064L50.9296 28.4635C51.4543 27.901 51.4429 27.0251 50.9038 26.4764C50.8801 26.4528 50.8801 26.4528 50.8556 26.43C50.4121 26.0267 49.7478 26.0195 49.2974 26.388ZM35.643 8C40.9686 8 45.2859 12.3173 45.2859 17.6429C45.2859 22.7231 41.3572 26.8858 36.3722 27.2586C36.3474 27.2668 36.3217 27.2712 36.2957 27.2747L36.143 27.285L35.7292 27.284L35.643 27.2857C35.614 27.2857 35.5849 27.2856 35.5559 27.2853L22.0002 27.285C21.3788 27.285 20.8752 26.7813 20.8752 26.16C20.8752 25.5905 21.2984 25.1198 21.8475 25.0453L22.0002 25.035L29.4511 25.0354C27.847 23.6903 26.687 21.8328 26.2233 19.7148L17.0002 19.7146C16.3788 19.7146 15.8752 19.2109 15.8752 18.5896C15.8752 18.0201 16.2984 17.5494 16.8475 17.4749L17.0002 17.4646L26.0018 17.4643C26.0541 14.5814 27.3716 12.0075 29.4226 10.2744L25.5002 10.275C24.8788 10.275 24.3752 9.77132 24.3752 9.15C24.3752 8.58046 24.7984 8.10976 25.3475 8.03527L25.5002 8.025L34.9544 8.02421C35.1818 8.00816 35.4115 8 35.643 8ZM35.643 10.25L35.8447 10.257C35.8285 10.2599 35.8121 10.2625 35.7957 10.2647L35.643 10.275L35.05 10.2734C31.2443 10.5755 28.2502 13.7595 28.2502 17.6429C28.2502 21.6184 31.3881 24.861 35.3223 25.0289L35.5777 25.034L35.7077 25.0354C39.6537 25.0016 42.862 21.8764 43.029 17.9635L43.0359 17.6429C43.0359 13.5599 39.726 10.25 35.643 10.25ZM36.1987 13.7857C36.6294 13.7857 37.0053 13.8489 37.3265 13.9754C37.6478 14.1018 37.9127 14.2744 38.1211 14.4932C38.3296 14.7119 38.4868 14.9648 38.5928 15.2519C38.6987 15.539 38.7517 15.8465 38.7517 16.1746C38.7517 16.7625 38.6099 17.2392 38.3262 17.6049C38.0425 17.9706 37.6239 18.2184 37.0702 18.3483L39.5002 21.5164H36.9985L35.0812 18.5431V21.5164H33.0716V13.7857H36.1987ZM35.4605 15.3339H35.0812V17.2409H35.4605C35.857 17.2409 36.1611 17.1589 36.373 16.9949C36.5849 16.8308 36.6909 16.595 36.6909 16.2874C36.6909 15.9798 36.5849 15.744 36.373 15.58C36.1611 15.4159 35.857 15.3339 35.4605 15.3339Z" fill="#009639"/>
</g>
</g>
</svg>
