<svg width="60" height="60" viewBox="0 0 60 60" fill="none" xmlns="http://www.w3.org/2000/svg">
<rect width="60" height="60" fill="white"/>
<path d="M18.7759 25.7368C18.7759 28.955 21.3848 31.5639 24.603 31.5639V31.5639C27.8212 31.5639 30.4301 28.955 30.4301 25.7368" stroke="#006FCF" stroke-width="2"/>
<path fill-rule="evenodd" clip-rule="evenodd" d="M6.77588 25.7368C6.77588 28.955 9.38477 31.5639 12.603 31.5639C15.8212 31.5639 18.4301 28.955 18.4301 25.7368" fill="#B3D4F1"/>
<path fill-rule="evenodd" clip-rule="evenodd" d="M30.7759 25.7368C30.7759 28.955 33.3848 31.5639 36.603 31.5639C39.8212 31.5639 42.4301 28.955 42.4301 25.7368" fill="#B3D4F1"/>
<path d="M6.77588 25.7368C6.77588 28.955 9.38477 31.5639 12.603 31.5639V31.5639C15.8212 31.5639 18.4301 28.955 18.4301 25.7368" stroke="#006FCF" stroke-width="2"/>
<path d="M30.4302 25.7368C30.4302 28.955 33.0391 31.5639 36.2573 31.5639V31.5639C39.4755 31.5639 42.0844 28.955 42.0844 25.7368" stroke="#006FCF" stroke-width="2"/>
<path fill-rule="evenodd" clip-rule="evenodd" d="M46.7835 11H36.7433L43.2167 25.7531H55.231L46.7835 11Z" fill="#B3D4F1"/>
<path d="M43.2168 25.7366L37.0566 11.6406" stroke="#006FCF" stroke-width="2"/>
<path d="M42.311 25.7368C42.311 28.955 44.9199 31.5639 48.1382 31.5639V31.5639C51.3564 31.5639 53.9653 28.955 53.9653 25.7368" stroke="#006FCF" stroke-width="2"/>
<path fill-rule="evenodd" clip-rule="evenodd" d="M35 51V36H45V51H35Z" fill="#B3D4F1"/>
<path d="M9 30V51H50.9851V30.829" stroke="#006FCF" stroke-width="2"/>
<path d="M35 52V36V36H45V52" stroke="#006FCF" stroke-width="2"/>
<rect x="17" y="36" width="8" height="8" stroke="#006FCF" stroke-width="2"/>
<path fill-rule="evenodd" clip-rule="evenodd" d="M23.4892 11H30.2726V25.7531H17L23.4892 11Z" fill="#B3D4F1"/>
<path d="M30 25.9203V11.6406" stroke="#006FCF" stroke-width="2"/>
<path d="M17.0562 25.7366L23.2164 11.6406" stroke="#006FCF" stroke-width="2"/>
<path fill-rule="evenodd" clip-rule="evenodd" d="M14.1066 11H46.831L55.2309 26H5.5L14.1066 11Z" stroke="#006FCF" stroke-width="2"/>
</svg>
