<svg width="60" height="60" viewBox="0 0 60 60" fill="none" xmlns="http://www.w3.org/2000/svg">
<rect width="60" height="60" fill="white"/>
<rect x="14" y="29" width="13" height="13" fill="#339C63"/>
<path fill-rule="evenodd" clip-rule="evenodd" d="M35 35.4274L38.3288 34L43.2841 37.5273L39.8177 40.5273L35 35.4274Z" fill="#339C63"/>
<rect x="19" y="9" width="3" height="7" fill="#339C63"/>
<path fill-rule="evenodd" clip-rule="evenodd" d="M21.4719 7.5415H19.4154C18.3108 7.5415 17.4154 8.43693 17.4154 9.5415V18.169C17.4154 19.5736 16.8177 20.9072 15.7794 21.8409L15.5796 22.0112C13.9484 23.3285 13.0003 25.3127 13.0003 27.4094V50.5977C13.0003 51.7022 13.8957 52.5977 15.0003 52.5977H26.2428C26.29 52.5977 26.3369 52.596 26.3833 52.5928C26.4159 52.596 26.449 52.5977 26.4824 52.5977H31.9409L32.0575 52.5909C32.5548 52.5332 32.9409 52.1105 32.9409 51.5977C32.9409 51.0454 32.4931 50.5977 31.9409 50.5977H28.2428V27.5499C28.2428 25.4515 27.2942 23.471 25.6715 22.1559L25.456 21.9882C24.2073 21.055 23.4719 19.5874 23.4719 18.0285V9.5415C23.4719 8.43693 22.5765 7.5415 21.4719 7.5415ZM19.4154 9.5415H21.4719V15H19.4154V9.5415ZM19.4154 17V18.169C19.4154 20.2657 18.4673 22.2499 16.8361 23.5672L16.6363 23.7375C15.5981 24.6712 15.0003 26.0049 15.0003 27.4094V28H26.2428V27.5499C26.2428 25.991 25.5075 24.5234 24.2587 23.5902L24.0433 23.4225C22.4205 22.1075 21.4719 20.1269 21.4719 18.0285V17H19.4154ZM15.0003 41V30H26.2428V41H15.0003ZM15.0003 43V50.5977H26.2428V43H15.0003ZM22.2043 37C22.7565 37 23.2043 37.4477 23.2043 38C23.2043 38.5129 22.8182 38.9355 22.3209 38.9933L22.2043 39H19.0375C18.4852 39 18.0375 38.5523 18.0375 38C18.0375 37.4872 18.4235 37.0645 18.9209 37.0067L19.0375 37H22.2043ZM35.5262 50.5977H38.9996V41.4486L35.7181 38.5265C33.9326 36.9366 33.0821 34.5454 33.4624 32.1851L34.5196 25.6242C34.6368 24.8973 35.2642 24.3628 36.0005 24.3628H44.0104C44.7473 24.3628 45.375 24.898 45.4915 25.6256L46.5414 32.1818C46.739 33.4162 46.6001 34.6588 46.167 35.7907L46.1916 35.8031C46.1554 35.8749 46.1171 35.9455 46.0767 36.0148C45.6793 36.9548 45.0754 37.8107 44.2902 38.5114L40.9996 41.4479V50.5977H44.6551C45.2073 50.5977 45.6551 51.0454 45.6551 51.5977C45.6551 52.1105 45.269 52.5332 44.7717 52.5909L44.6551 52.5977H35.5262C34.9739 52.5977 34.5262 52.15 34.5262 51.5977C34.5262 51.0848 34.9122 50.6622 35.4096 50.6044L35.5262 50.5977ZM41.8688 37.9913L39.9983 39.66L37.0481 37.0329L36.8705 36.8668C36.7054 36.7047 36.5528 36.5325 36.4134 36.3517C36.7749 35.8122 37.4363 35.5127 38.1138 35.6446C38.4693 35.7139 38.7925 35.8973 39.0343 36.167L39.502 36.6888L39.6562 36.8517C40.2771 37.4734 41.055 37.8554 41.8688 37.9913ZM44.2864 35.1086C44.1879 35.2582 44.0704 35.3948 43.9365 35.5148C43.0788 36.2837 41.7602 36.2116 40.9913 35.3539L40.5235 34.832L40.3585 34.6596C39.8479 34.1597 39.2008 33.8188 38.4961 33.6815C37.3946 33.467 36.3124 33.7703 35.501 34.4218C35.3579 33.8015 35.3326 33.1508 35.4369 32.5033L36.4253 26.362H43.5833L44.5665 32.498L44.5991 32.7385C44.6893 33.5524 44.5771 34.3647 44.2864 35.1086ZM10.9409 50.5977C11.4931 50.5977 11.9409 51.0454 11.9409 51.5977C11.9409 52.1105 11.5548 52.5332 11.0575 52.5909L10.9409 52.5977H8.48242C7.93014 52.5977 7.48242 52.15 7.48242 51.5977C7.48242 51.0848 7.86846 50.6622 8.3658 50.6044L8.48242 50.5977H10.9409ZM51.3554 51.5977C51.3554 51.0454 50.9077 50.5977 50.3554 50.5977H48.5654L48.4488 50.6044C47.9515 50.6622 47.5654 51.0848 47.5654 51.5977C47.5654 52.15 48.0131 52.5977 48.5654 52.5977H50.3554L50.472 52.5909C50.9693 52.5332 51.3554 52.1105 51.3554 51.5977ZM24.8316 34C24.8316 33.4477 24.3839 33 23.8316 33H17.2253L17.1087 33.0067C16.6114 33.0645 16.2253 33.4872 16.2253 34C16.2253 34.5523 16.6731 35 17.2253 35H23.8316L23.9482 34.9933C24.4456 34.9355 24.8316 34.5129 24.8316 34Z" fill="white"/>
</svg>
