<svg width="60" height="60" viewBox="0 0 60 60" fill="none" xmlns="http://www.w3.org/2000/svg">
<rect width="60" height="60" fill="white"/>
<circle cx="45.625" cy="40.625" r="10.5" fill="#D8D8D8"/>
<circle cx="45.625" cy="40.625" r="10.5" fill="#D8D8D8"/>
<path fill-rule="evenodd" clip-rule="evenodd" d="M27.9347 4.53464C23.1408 11.4345 15.7432 13.9955 11.0558 12.4067C9.39918 11.9135 7.7627 13.1279 7.7627 14.8259V29.2849C7.7627 38.4565 11.7991 45.5125 18.4991 50.6742C20.8391 52.4768 23.3463 53.9181 25.8605 55.0356L26.4563 55.2945C27.7107 55.8272 28.7205 56.176 29.3432 56.3498C29.5666 56.4107 29.791 56.4407 30.0162 56.4407C30.2413 56.4407 30.4658 56.4107 30.6833 56.3515L30.993 56.2607C31.7252 56.0354 32.8459 55.6254 34.173 55.0356C36.4731 54.0134 38.7675 52.7202 40.9332 51.1272C42.366 51.7684 43.9541 52.1249 45.6254 52.1249C51.9767 52.1249 57.1254 46.9762 57.1254 40.6249C57.1254 36.7235 55.1827 33.2759 52.2118 31.1966C52.2516 30.5699 52.2717 29.9326 52.2717 29.2849V14.8257C52.2717 13.2078 50.7671 12.0086 49.1948 12.3491L48.8046 12.445C48.6678 12.4746 48.4864 12.5094 48.2719 12.5438C47.6326 12.646 46.9123 12.7077 46.1291 12.7077C40.9981 12.7077 36.1296 10.3351 32.0995 4.53464C31.1609 3.18414 29.0581 3.13757 28.0396 4.39497L27.9347 4.53464ZM34.7745 44.4433C35.5765 46.7225 37.0763 48.6729 39.0174 50.038C37.1919 51.3042 35.2782 52.3558 33.3608 53.2079C32.6634 53.5178 32.0064 53.7827 31.4017 54.0046L31.0452 54.1327C30.6216 54.2814 30.2984 54.3828 30.1538 54.4228C30.1116 54.4343 30.064 54.4407 30.0162 54.4407C29.9683 54.4407 29.9208 54.4343 29.8751 54.4219L29.6403 54.3512C29.5077 54.3095 29.3391 54.2542 29.1415 54.1861L28.988 54.1327C28.288 53.8868 27.5094 53.5798 26.6728 53.208C24.2957 52.1514 21.9244 50.7883 19.7197 49.0898C13.4799 44.2827 9.7627 37.7846 9.7627 29.2849V14.8259C9.7627 14.468 10.1091 14.211 10.4499 14.3123C15.9571 16.1798 24.2814 13.2979 29.5772 5.67578C29.7534 5.42216 30.2807 5.42216 30.4571 5.67593C34.8736 12.0325 40.3629 14.7077 46.1291 14.7077C47.6685 14.7077 48.9006 14.5105 49.5843 14.3121C49.9279 14.2143 50.2717 14.476 50.2717 14.8257V29.2849C50.2717 29.5577 50.2679 29.8284 50.2603 30.0971C48.8424 29.472 47.2744 29.1249 45.6254 29.1249C43.9312 29.1249 42.3226 29.4913 40.8744 30.1491L40.9314 29.5538C40.9314 27.633 39.3708 26.11 37.4441 26.11H25.9567V21.9027C25.9567 19.8108 27.9273 17.9999 30.2064 17.9999C32.4156 17.9999 34.3369 19.7033 34.4513 21.7134L34.4567 21.9027H36.4567C36.4567 18.6672 33.5531 15.9999 30.2064 15.9999C26.9348 15.9999 24.0889 18.5469 23.9612 21.683L23.9567 21.9027V26.11H22.4837C20.5563 26.11 18.9958 27.6241 19.0004 29.6402L20.0963 40.9734C20.0963 42.897 21.6589 44.4433 23.5842 44.4433H34.7745ZM38.936 29.4581L38.7494 31.406C35.9425 33.503 34.1254 36.8517 34.1254 40.6249C34.1254 41.2437 34.1743 41.851 34.2684 42.4433H23.5842C22.7589 42.4433 22.0963 41.7877 22.0917 40.8775L20.9958 29.5444C20.9958 28.7424 21.6476 28.11 22.4837 28.11H37.4441C38.277 28.11 38.9314 28.7486 38.936 29.4581ZM55.1254 40.6249C55.1254 35.3782 50.8721 31.1249 45.6254 31.1249C40.3787 31.1249 36.1254 35.3782 36.1254 40.6249C36.1254 45.8716 40.3787 50.1249 45.6254 50.1249C50.8721 50.1249 55.1254 45.8716 55.1254 40.6249ZM43.89 41.9153L41.8388 40.2111L40.561 41.7497L44.1438 44.725L49.9208 37.8403L48.3887 36.5547L43.89 41.9153Z" fill="#979797"/>
</svg>
