<svg width="60" height="60" viewBox="0 0 60 60" fill="none" xmlns="http://www.w3.org/2000/svg">
<rect width="60" height="60" fill="white"/>
<path d="M42.375 50.2423H10.125V26.6938H7.875V52.4923H44.625V29.1868H42.375V50.2423Z" fill="white"/>
<path d="M52.5 12H33V39H52.5V12Z" fill="#339C63"/>
<path d="M25.8913 8.02832C28.2038 10.2251 30.0738 12.0014 31.5012 13.3573L31.4996 10.4997H53.9996V40.4997L38.6246 40.4988V50.9997H36.3746V40.4988L31.4996 40.4997V34.1238L29.6246 34.1247V50.9997H27.3746V31.8747L31.4996 31.8738V16.4598L25.9328 11.1711L5.14569 31.9888C4.70667 32.4285 3.99436 32.429 3.5547 31.99C3.11504 31.551 3.11451 30.8387 3.55353 30.399L25.8913 8.02832ZM22.1246 31.8747V40.1247H13.8746V31.8747H22.1246ZM51.7496 12.7497H33.7496V38.2497H51.7496V12.7497ZM19.8746 34.1247H16.1246V37.8747H19.8746V34.1247ZM41.8686 31.8747V34.1247H36.1443V31.8747H41.8686ZM48.7496 27.3747V29.6247H36.1443V27.3747H48.7496ZM48.7496 22.8747V25.1247H36.1443V22.8747H48.7496ZM41.8686 16.8747V19.1247H36.1443V16.8747H41.8686Z" fill="white"/>
</svg>
