<svg width="60" height="60" viewBox="0 0 60 60" fill="none" xmlns="http://www.w3.org/2000/svg">
<rect width="60" height="60" fill="white"/>
<circle cx="19.5683" cy="19.144" r="9.728" fill="#B3D4F1"/>
<circle cx="19.5683" cy="19.144" r="9.728" stroke="#006FCF" stroke-width="2"/>
<circle cx="40.2558" cy="40.7954" r="9.728" fill="#B3D4F1"/>
<circle cx="40.2558" cy="40.7954" r="9.728" stroke="#006FCF" stroke-width="2"/>
<path fill-rule="evenodd" clip-rule="evenodd" d="M31.3914 12.231H30.888C30.888 12.231 30.5037 11.6762 30.0647 11.1531C29.6258 10.63 29.1548 10.231 29.1548 10.231H31.3914C41.2436 10.231 49.3661 17.6361 50.4969 27.184L52.9463 24.7538L54.355 26.1736L49.3376 31.1517L44.5094 26.2856L45.9291 24.8769L48.5185 27.4866C47.5344 18.8999 40.2417 12.231 31.3914 12.231Z" fill="#006FCF"/>
<path fill-rule="evenodd" clip-rule="evenodd" d="M28.9637 48.9209H29.4671C29.4671 48.9209 29.859 49.4236 30.3414 49.8968C30.8237 50.3699 31.5059 50.9209 31.5059 50.9209H28.9637C19.1115 50.9209 10.989 43.5158 9.85817 33.9678L7.4088 36.398L6.00015 34.9783L11.0175 30.0002L15.8458 34.8662L14.426 36.2749L11.8366 33.6652C12.8207 42.252 20.1134 48.9209 28.9637 48.9209Z" fill="#006FCF"/>
<path fill-rule="evenodd" clip-rule="evenodd" d="M20.5682 12.7998V14.5759C21.4676 14.6639 22.3378 14.9187 23.3898 15.4993L22.4213 17.2803C21.7713 16.8903 20.8808 16.5133 19.8148 16.5133C18.9893 16.5133 18.3848 16.7928 18.3848 17.3323C18.3848 17.8034 18.9712 17.9791 19.7408 18.1244L20.6338 18.2813C22.4018 18.5868 23.5133 19.4123 23.5133 20.9008C23.5133 22.7389 22.1681 23.6676 20.5682 23.9059V25.6998H18.5682V23.8941C17.4678 23.7463 16.4479 23.381 15.6938 22.8118L16.7793 21.0438C17.4748 21.5183 18.4368 21.9993 19.7173 21.9993C20.5363 21.9993 21.1603 21.7198 21.1603 21.1543C21.1603 20.6404 20.6191 20.472 19.5637 20.3022L18.9048 20.1988C17.0328 19.9063 16.0188 19.0613 16.0513 17.4233C16.0776 15.9945 17.0675 14.9902 18.5682 14.6575V12.7998H20.5682Z" fill="#006FCF"/>
<path fill-rule="evenodd" clip-rule="evenodd" d="M42.0179 44.4838C42.0179 45.2258 41.4439 45.7998 40.7089 45.7998C39.9669 45.7998 39.3999 45.2258 39.3999 44.4838C39.3999 43.7488 39.9669 43.1818 40.7089 43.1818C41.4439 43.1818 42.0179 43.7488 42.0179 44.4838ZM39.6239 42.3698H41.8149V35.5028H39.6239V42.3698Z" fill="#006FCF"/>
</svg>
