<svg width="60" height="60" viewBox="0 0 60 60" fill="none" xmlns="http://www.w3.org/2000/svg">
<g id="npi-shield-biometrics">
<rect width="60" height="60" fill="white"/>
<g id="Group">
<path id="Shape" fill-rule="evenodd" clip-rule="evenodd" d="M52.4919 35.0835C53.8632 35.0835 54.9792 36.156 54.9792 37.5273L53.8787 48.9689C53.8787 50.3419 52.7626 51.4168 51.3914 51.4168H38.632C37.2607 51.4168 36.1441 50.3198 36.1441 48.9469L35.0436 37.5179C35.0436 36.1466 36.1602 35.0835 37.5315 35.0835H52.4919Z" fill="#E4F2D2"/>
<path id="Combined Shape" fill-rule="evenodd" clip-rule="evenodd" d="M27.6167 5.49587C28.5778 4.11239 30.7733 4.11239 31.7347 5.49582C35.6866 11.1837 40.4592 13.5095 45.4894 13.5095C46.257 13.5095 46.9631 13.4491 47.5896 13.3489L47.879 13.2988C47.9663 13.2824 48.0442 13.2667 48.1111 13.2522L48.3334 13.1983C49.891 12.7554 51.4306 13.873 51.5315 15.4429L51.5368 15.6069V29.4159C51.5498 29.5679 51.5564 29.7213 51.5564 29.8761H49.5564L49.5542 29.7983H49.5368V29.5146C49.3261 27.5804 47.4519 25.9733 45.3061 25.9733C43.027 25.9733 41.0564 27.7842 41.0564 29.8761V34.0834H52.5438C54.4705 34.0834 56.0311 35.6064 56.0311 37.5272L54.926 49.0646C54.9306 50.8911 53.3701 52.4167 51.4433 52.4167H38.7088C36.8202 53.6368 34.8935 54.6272 33.0197 55.4089L32.4858 55.6267C31.5398 56.0038 30.7813 56.2579 30.3345 56.3815C30.1194 56.4401 29.8974 56.4697 29.6749 56.4697C29.4521 56.4697 29.2303 56.4401 29.0093 56.3799C28.3034 56.1827 27.0914 55.757 25.5886 55.089C23.1197 53.9917 20.6576 52.5764 18.3598 50.8062C11.8992 45.829 7.95997 39.0577 7.81887 30.2876L7.81494 29.7983V15.6071C7.81494 13.9281 9.43306 12.7273 11.0716 13.2151C15.6642 14.7718 22.9162 12.2612 27.6167 5.49587ZM36.3448 51.523C35.6394 50.8891 35.196 49.9715 35.196 48.9468L34.1001 37.6136C34.0979 36.6414 34.4596 35.7859 35.0509 35.1607C35.0442 35.1163 35.0413 35.0708 35.0427 35.0244C35.0826 33.6959 34.9727 32.3696 34.7086 31.0601C34.183 28.449 31.6403 26.7593 29.0294 27.2857C26.5597 27.7837 24.9143 30.0862 25.1893 32.5435L25.2141 32.7301L25.262 32.9647C25.814 35.7024 24.8458 38.4764 22.7974 40.283L22.5817 40.4664C22.2612 40.7288 21.7887 40.6819 21.5262 40.3615C21.2637 40.041 21.3107 39.5685 21.6311 39.306C23.2702 37.9633 24.1207 35.8812 23.8724 33.7685L23.8391 33.5311L23.7851 33.2625C23.1102 29.9157 25.213 26.6537 28.5066 25.8652L28.733 25.8153C32.156 25.1251 35.4899 27.3406 36.1791 30.7638C36.4106 31.9121 36.5331 33.0723 36.5489 34.2355C36.8757 34.1363 37.2232 34.0834 37.5834 34.0834H39.0564V29.8761L39.0609 29.6564C39.0875 29.0031 39.232 28.3753 39.4738 27.7909C37.5258 23.3957 32.7426 20.8617 27.9297 21.8321C26.4633 22.1277 25.1031 22.7271 23.9109 23.5873C23.575 23.8296 23.1063 23.7538 22.8639 23.4179C22.6215 23.082 22.6973 22.6132 23.0332 22.3709C24.3976 21.3865 25.9556 20.6999 27.6333 20.3617C32.8008 19.3197 37.9376 21.8073 40.3947 26.2738C41.5568 24.8784 43.3558 23.9733 45.3061 23.9733C46.9077 23.9733 48.4078 24.5842 49.5368 25.5758V15.6069C49.5368 15.2759 49.2111 15.028 48.8857 15.1205C48.2131 15.3158 47.0021 15.5095 45.4894 15.5095C39.8241 15.5095 34.4307 12.8811 30.0924 6.63711C29.9266 6.39864 29.4248 6.39864 29.2592 6.637C24.0569 14.1246 15.8781 16.9561 10.4656 15.1207C10.1699 15.0328 9.86958 15.23 9.82158 15.5245L9.81494 15.6071V29.7983C9.81494 38.1344 13.4604 44.507 19.5804 49.2218C21.743 50.8879 24.0691 52.225 26.4009 53.2614C27.2216 53.6262 27.9852 53.9273 28.6718 54.1685L29.0908 54.3115C29.2952 54.379 29.4497 54.4263 29.5412 54.4519C29.5846 54.4637 29.6295 54.4697 29.6749 54.4697C29.7201 54.4697 29.7653 54.4637 29.805 54.4529L30.2203 54.3241L30.4749 54.239C31.0047 54.0583 31.6008 53.8339 32.2496 53.5632C33.5976 53.0008 34.9762 52.3231 36.3448 51.523ZM29.837 31.2774C30.2431 31.1955 30.6386 31.4583 30.7205 31.8643C31.5509 35.9825 30.3916 40.1712 27.6708 43.2679C27.3974 43.5791 26.9235 43.6097 26.6124 43.3363C26.3012 43.0629 26.2706 42.589 26.544 42.2778C28.959 39.5292 29.9869 35.8151 29.2501 32.1608C29.1682 31.7548 29.431 31.3592 29.837 31.2774ZM33.4095 31.1235C32.942 29.3152 31.1356 28.1685 29.2828 28.5421C27.366 28.9286 26.1255 30.7956 26.5121 32.7125L26.656 33.4258L27.0401 33.3601L27.1139 33.3806C27.2092 33.4009 27.31 33.4029 27.4117 33.3834C27.8185 33.3052 28.0849 32.9121 28.0065 32.5037L27.9541 32.2311L27.9446 32.1159C27.8929 31.1226 28.575 30.215 29.5792 30.0125L29.7296 29.9879C30.7299 29.8618 31.6756 30.4901 31.947 31.4611L31.9631 31.5321L32.0529 32.0016C32.7101 35.7832 31.8539 39.6008 29.7193 42.7203C29.4854 43.0622 29.5729 43.5289 29.9148 43.7628C30.2566 43.9968 30.7233 43.9093 30.9573 43.5674L31.1811 43.2315C33.3018 39.961 34.177 36.0338 33.5919 32.1228L33.5611 31.9381L33.5779 31.9324L33.453 31.3128L33.4095 31.1235ZM27.4393 33.6465C27.8535 33.6421 28.1928 33.9743 28.1972 34.3885C28.2288 37.3417 27.0065 40.1636 24.8646 42.1676C24.5621 42.4506 24.0875 42.4349 23.8045 42.1324C23.5215 41.8299 23.5373 41.3553 23.8398 41.0723C25.6763 39.354 26.7244 36.9344 26.6973 34.4045C26.6929 33.9903 27.0251 33.6509 27.4393 33.6465ZM32.2791 23.9521C32.4282 23.5656 32.8623 23.3732 33.2488 23.5222C36.1356 24.6357 38.2848 27.1287 38.9068 30.2134C38.9887 30.6195 38.7259 31.015 38.3198 31.0969C37.9138 31.1787 37.5183 30.916 37.4364 30.5099C36.917 27.9338 35.123 25.8528 32.709 24.9217C32.3225 24.7727 32.1301 24.3385 32.2791 23.9521ZM31.3943 23.0268C30.323 22.8583 29.2431 22.8747 28.1831 23.0885C24.642 23.8025 21.9041 26.5245 21.1115 29.9892C21.0191 30.393 21.2716 30.7952 21.6753 30.8876C22.0791 30.98 22.4813 30.7275 22.5737 30.3237C23.2361 27.4282 25.5224 25.1552 28.4795 24.5589C29.362 24.381 30.2627 24.3672 31.1612 24.5086C31.5704 24.5729 31.9543 24.2934 32.0187 23.8842C32.083 23.475 31.8035 23.0912 31.3943 23.0268ZM21.6401 31.1526C22.0542 31.1577 22.3859 31.4976 22.3808 31.9117C22.3755 32.3467 22.4054 32.7763 22.4718 33.1997L22.4921 33.3181L22.5327 33.5152C22.8763 35.2197 22.2987 36.9477 21.0559 38.1046L20.8823 38.2588C20.5663 38.5266 20.093 38.4874 19.8253 38.1714C19.5575 37.8554 19.5966 37.3821 19.9127 37.1144C20.806 36.3574 21.2577 35.1989 21.0992 34.0307L21.058 33.8124C20.9563 33.308 20.8989 32.7971 20.8841 32.2812L20.8809 31.8934C20.886 31.4792 21.2259 31.1476 21.6401 31.1526ZM21.603 23.5844C21.8965 23.2922 22.3713 23.2931 22.6636 23.5866C22.9559 23.8801 22.9549 24.355 22.6614 24.6473C20.3588 26.9404 19.2467 30.1713 19.6916 33.4169L19.7381 33.7231L19.8549 34.2876L19.9069 34.5081C20.0063 34.9102 19.7609 35.3168 19.3588 35.4162C19.0573 35.4908 18.7532 35.3715 18.578 35.1375L18.5421 35.0831L18.479 35.0965L18.331 34.3624C17.5327 30.4039 18.7938 26.382 21.603 23.5844ZM41.2857 42.8415L43.7383 44.9L48.2337 39.5436L49.7658 40.8292L43.9855 47.7178L40.0001 44.3736L41.2857 42.8415ZM52.5438 36.0834H37.5834C36.7473 36.0834 36.0955 36.7158 36.0955 37.5178L37.1914 48.8509C37.196 49.7611 37.8586 50.4167 38.6839 50.4167H51.4433C52.2755 50.4167 52.9306 49.7763 52.9306 48.9688L54.0357 37.4315C54.0311 36.722 53.3767 36.0834 52.5438 36.0834Z" fill="#009639"/>
</g>
</g>
</svg>
