<svg width="60" height="60" viewBox="0 0 60 60" fill="none" xmlns="http://www.w3.org/2000/svg">
<rect width="60" height="60" fill="white"/>
<path d="M44.2091 8.01953L14.8154 8.02028" stroke="black" stroke-width="2"/>
<path fill-rule="evenodd" clip-rule="evenodd" d="M14.8154 8.01953C17.4863 8.01953 19.6511 10.1075 19.6511 12.6824C19.6511 15.2577 17.4863 17.3453 14.8154 17.3453H44.2089C46.8798 17.3453 49.0446 15.2577 49.0446 12.6824C49.0446 10.1075 46.8798 8.01953 44.2089 8.01953H14.8154V8.01953Z" fill="#B3D4F1"/>
<circle cx="41.6786" cy="33.6786" r="8.67857" fill="#B3D4F1"/>
<path fill-rule="evenodd" clip-rule="evenodd" d="M14.7268 7.01953H14.8158H16.6015H44.2093C47.4243 7.01953 50.045 9.54672 50.045 12.6824C50.045 15.8184 47.4245 18.3453 44.2093 18.3453H42.8492V25.0784C47.0887 25.6499 50.3573 29.2826 50.3573 33.6787C50.3573 38.0748 47.0887 41.7075 42.8492 42.279V47.6242L37.4519 53.5313L31.7072 46.7791L25.9377 53.5629L20.1682 46.7811L14.6192 53.3439L9.08893 47.6418L9.06396 12.2041C9.06396 9.38568 11.4985 7.13187 14.5007 7.0236L14.7268 7.01953ZM14.8158 18.3453H40.8492L40.8492 25.0393C36.4453 25.4569 33.0002 29.1655 33.0002 33.6787C33.0002 38.1919 36.4453 41.9005 40.8492 42.3181L40.8492 46.8471L37.5052 50.5071L31.7079 43.6929L25.9372 50.4751L20.1647 43.6903L14.5172 50.3661L11.0882 46.8291L11.064 12.2034L11.0693 12.0311C11.1722 10.3757 12.7492 9.01953 14.7268 9.01953H14.8158C16.9422 9.01953 18.6515 10.6679 18.6515 12.6824C18.6515 14.6972 16.9423 16.3453 14.8158 16.3453V18.3453ZM44.2093 9.01953L19.2662 9.01913L19.4565 9.24796C20.2058 10.1996 20.6515 11.3892 20.6515 12.6824C20.6515 14.0681 20.1398 15.3348 19.2914 16.3172L19.2662 16.3451L44.2093 16.3453C46.2672 16.3453 47.9343 14.8018 48.0397 12.8762L48.045 12.6824C48.045 10.6679 46.3357 9.01953 44.2093 9.01953ZM35.0002 33.6787C35.0002 29.9902 37.9903 27.0001 41.6787 27.0001C45.3672 27.0001 48.3573 29.9902 48.3573 33.6787C48.3573 37.3672 45.3672 40.3573 41.6787 40.3573C37.9903 40.3573 35.0002 37.3672 35.0002 33.6787ZM41.3402 32.3521C41.3402 33.2481 40.6642 33.9081 39.7562 33.9081C38.8482 33.9081 38.1722 33.2481 38.1722 32.3521C38.1722 31.4561 38.8482 30.7961 39.7562 30.7961C40.6642 30.7961 41.3402 31.4561 41.3402 32.3521ZM44.7002 30.9001L40.5282 36.5001H39.1642L43.3362 30.9001H44.7002ZM39.7562 32.8921C39.4602 32.8921 39.2482 32.6521 39.2482 32.3521C39.2482 32.0521 39.4602 31.8121 39.7562 31.8121C40.0522 31.8121 40.2642 32.0481 40.2642 32.3521C40.2642 32.6521 40.0522 32.8921 39.7562 32.8921ZM45.7322 35.0481C45.7322 35.9441 45.0562 36.6041 44.1482 36.6041C43.2402 36.6041 42.5642 35.9441 42.5642 35.0481C42.5642 34.1721 43.2402 33.4921 44.1482 33.4921C45.0562 33.4921 45.7322 34.1521 45.7322 35.0481ZM44.1482 35.5881C43.8522 35.5881 43.6402 35.3481 43.6402 35.0481C43.6402 34.7481 43.8522 34.5081 44.1482 34.5081C44.4442 34.5081 44.6562 34.7441 44.6562 35.0481C44.6562 35.3481 44.4442 35.5881 44.1482 35.5881ZM19.6202 29.8275V26.597H19.7567L21.9472 29.8275H24.8592L22.3827 26.4865C23.9232 26.168 24.7357 25.1605 24.7357 23.7565C24.7357 21.9235 23.5202 20.7275 21.2062 20.7275H17.1502V29.8275H19.6202ZM21.1802 24.5625H19.6202V22.944H21.1802C21.7912 22.944 22.2397 23.204 22.2397 23.7565C22.2397 24.309 21.7912 24.5625 21.1802 24.5625ZM17.0002 38.0001H33.0002V40.0001H17.0002V38.0001ZM27.0312 35.0001V33.0001H17.0312V35.0001H27.0312Z" fill="#006FCF"/>
</svg>
