<svg width="60" height="60" viewBox="0 0 60 60" fill="none" xmlns="http://www.w3.org/2000/svg">
<rect width="60" height="60" fill="white"/>
<path fill-rule="evenodd" clip-rule="evenodd" d="M9.28804 36.0669H37.4591L38.1563 37.3771V46.5613H8.52734V37.3771L9.28804 36.0669Z" fill="#339C63"/>
<path fill-rule="evenodd" clip-rule="evenodd" d="M9.14245 36.1583H7.95C6.87304 36.1583 6 35.2853 6 34.2083C6 33.1313 6.87304 32.2583 7.95 32.2583H10.875L9.14245 36.1583Z" fill="#339C63"/>
<path fill-rule="evenodd" clip-rule="evenodd" d="M37.6065 36.1583H38.6623C39.7393 36.1583 40.6123 35.2853 40.6123 34.2083C40.6123 33.1313 39.7393 32.2583 38.6623 32.2583H35.8372L37.6065 36.1583Z" fill="#339C63"/>
<path d="M14.3345 46.615V49.9304C14.3345 50.7381 13.5519 51.3929 12.7441 51.3929H10.3066C9.49892 51.3929 8.68164 50.7381 8.68164 49.9304V37.3773L12.7358 28.3208C13.5352 26.6004 15.2599 25.5 17.1569 25.5H29.3436H29.6071C31.6022 25.5 33.4064 26.6861 34.1974 28.5176L34.8365 29.9977" stroke="white" stroke-width="2"/>
<path d="M34.836 29.9976L37.9311 37.3772V49.9303C37.9311 50.738 37.1138 51.3928 36.3061 51.3928H33.8686C33.0609 51.3928 32.2754 50.738 32.2754 49.9303V46.6148" stroke="white" stroke-width="2"/>
<path d="M9.28809 35.9146H37.4591" stroke="white" stroke-width="2"/>
<path d="M8.52734 46.5613H38.1563" stroke="white" stroke-width="2"/>
<path d="M9.14245 35.9146H7.95C6.87304 35.9146 6 35.0051 6 33.8833C6 32.7615 6.87304 31.8521 7.95 31.8521V31.8521H10.875V31.8521" stroke="white" stroke-width="2"/>
<path d="M37.4699 35.9146H38.6623C39.7393 35.9146 40.6123 35.0051 40.6123 33.8833C40.6123 32.7615 39.7393 31.8521 38.6623 31.8521V31.8521H35.7373V31.8521" stroke="white" stroke-width="2"/>
<path d="M17.6191 39.9771H28.1816" stroke="white" stroke-width="2" stroke-linecap="round"/>
<path d="M19.2441 43.2271H26.5566" stroke="white" stroke-width="2" stroke-linecap="round"/>
<circle cx="13.1504" cy="41.1553" r="1.625" stroke="white" stroke-width="2"/>
<circle cx="32.8936" cy="41.1553" r="1.625" stroke="white" stroke-width="2"/>
<path d="M47.9004 52.8744L47.9009 37.4155" stroke="white" stroke-width="2"/>
<path fill-rule="evenodd" clip-rule="evenodd" d="M50.4218 14.7519C50.4218 16.1711 49.2931 18.1528 47.9008 18.1528C46.5085 18.1528 45.3799 16.1711 45.3799 14.7519C45.3799 13.3327 46.5085 12.1821 47.9008 12.1821C49.2931 12.1821 50.4218 13.3327 50.4218 14.7519V14.7519Z" stroke="white" stroke-width="2"/>
<path d="M51.1625 52.8742L52.1598 34.5947C52.1743 34.2253 53.3378 34.7061 53.3506 34.356C53.8246 21.4274 52.7699 20.6051 52.6508 20.5036C52.5105 20.4635 51.3599 20.4318 51.0155 20.4098C50.55 20.38 50.1485 20.6698 49.9348 21.0925C49.1766 22.5912 46.6244 22.5912 45.8665 21.0925C45.6529 20.6698 45.2515 20.38 44.7859 20.4098C44.4941 20.4285 36.503 21.7427 33.9874 22.1674C32.9487 22.3428 33.0105 23.8861 34.0551 23.9835L43.6416 24.8783V34.5949L44.6379 52.8744" stroke="white" stroke-width="2"/>
</svg>
