<svg width="60" height="60" viewBox="0 0 60 60" fill="none" xmlns="http://www.w3.org/2000/svg">
<rect width="60" height="60" fill="white"/>
<path fill-rule="evenodd" clip-rule="evenodd" d="M8.91846 33H51.0831V37.0833C51.0831 38.7402 49.74 40.0833 48.0831 40.0833H11.9185C10.2616 40.0833 8.91846 38.7402 8.91846 37.0833L8.91846 33Z" fill="#B3D4F1"/>
<path fill-rule="evenodd" clip-rule="evenodd" d="M48.1018 7.9165H11.8922C9.6755 7.9165 7.9165 9.68777 7.9165 11.9067V37.0802C7.9165 39.301 9.67629 41.0832 11.8922 41.0832H22.8936L21.3717 48.9816L21.344 49.1508C21.1245 50.7772 22.2985 52.1349 23.9703 52.1349H35.9879L36.1591 52.1301C37.7955 52.038 38.9053 50.6297 38.5949 48.9853L37.1035 41.0832H48.1018C50.3195 41.0832 52.0832 39.3011 52.0832 37.0804V11.9067C52.0832 9.68774 50.3203 7.9165 48.1018 7.9165ZM35.0682 41.0832H24.9304L23.3356 49.36C23.2524 49.7919 23.4615 50.0867 23.8653 50.1295L23.9703 50.1349H35.9879C36.4267 50.1349 36.6778 49.8722 36.6441 49.4618L36.6296 49.3562L35.0682 41.0832ZM11.8922 9.9165H48.1018C49.2136 9.9165 50.0832 10.7902 50.0832 11.9067V31.9998H9.9165V11.9067C9.9165 10.7892 10.7832 9.9165 11.8922 9.9165ZM9.9165 33.9998H50.0832V37.0804C50.0832 38.2011 49.2102 39.0832 48.1018 39.0832H11.8922C10.7865 39.0832 9.9165 38.2021 9.9165 37.0802V33.9998ZM30.9931 15.1718C30.9353 14.6745 30.5127 14.2885 29.9998 14.2885C29.4476 14.2885 28.9998 14.7362 28.9998 15.2885V25.3006L25.208 21.498L25.1139 21.4146C24.7221 21.109 24.1548 21.1359 23.7938 21.4958C23.4027 21.8858 23.4017 22.5189 23.7917 22.91L29.2917 28.4267L29.2995 28.4336C29.324 28.4577 29.3497 28.4805 29.3766 28.5019L29.3859 28.5102C29.7786 28.8163 30.3473 28.7885 30.708 28.4267L36.208 22.91L36.2911 22.8157C36.5955 22.423 36.5669 21.8558 36.2059 21.4958L36.1115 21.4128C35.7188 21.1084 35.1516 21.1369 34.7917 21.498L30.9998 25.3006V15.2885L30.9931 15.1718Z" fill="#006FCF"/>
</svg>
