<svg width="100" height="100" viewBox="0 0 100 100" fill="none" xmlns="http://www.w3.org/2000/svg">
<rect width="100" height="100" fill="white"/>
<path d="M14.5798 23.1953L26.1822 88.9956L75.5736 80.2865L74.7096 75.3868L63.9712 14.4863L14.5798 23.1953Z" fill="#E4F2D2"/>
<path d="M76.6667 24.0755V13.333H26.6667V80.1483H76.6667V52.5087" fill="white"/>
<circle cx="75.8" cy="39.666" r="16.5" fill="#E4F2D2"/>
<path fill-rule="evenodd" clip-rule="evenodd" d="M27.6667 14.333V79.1483H75.6667V56.9472C68.8791 56.8457 62.9149 52.5302 60.644 46.3073L59.0695 50.3617L57.2051 49.6377L59.8972 42.7055L66.6189 45.3158L65.8949 47.1802L62.6331 45.9135C64.7254 51.2714 69.9778 54.949 75.9115 54.949C82.2515 54.949 87.7644 50.7455 89.5149 44.7434L91.4349 45.3034C89.6008 51.5923 84.1476 56.1504 77.6667 56.8542V81.1483H76.4434L25.371 90.1538L13.4214 22.3839L25.6667 20.2247V12.333H77.6667V22.6991C82.9399 23.309 87.5942 26.465 90.1112 31.1238C90.5441 31.925 90.9077 32.7611 91.1921 33.6058L92.6877 29.7552L94.552 30.4792L91.8597 37.4114L85.138 34.8011L85.8621 32.9367L89.3064 34.2743C89.0521 33.5151 88.7325 32.7795 88.3516 32.0745C85.8864 27.5117 81.0806 24.5913 75.7934 24.5913C69.4534 24.5913 63.9405 28.7948 62.1901 34.7968L60.2701 34.2369C62.256 27.4276 68.4846 22.6474 75.6667 22.5918V14.333H27.6667ZM25.6667 22.2556V80.3131L15.7383 24.0062L25.6667 22.2556ZM25.814 81.1483L26.9934 87.8369L64.9258 81.1483H25.814ZM58.3334 27.333H48.3334V29.333H58.3334V27.333ZM48.3334 33.9997H56.6667V35.9997H48.3334V33.9997ZM55.5325 52.3333H33.3334V54.3333H55.5325V52.3333ZM33.3334 59H68.852V61H33.3334V59ZM33.3334 65.6667H64.4122V67.6667H33.3334V65.6667ZM48.3334 40.6663H53.3334V42.6663H48.3334V40.6663ZM76.9408 34.4997C76.1596 34.4997 75.5834 33.943 75.5834 33.2204C75.5834 32.488 76.1596 31.9313 76.9408 31.9313C77.7221 31.9313 78.2982 32.488 78.2982 33.2204C78.2982 33.943 77.7221 34.4997 76.9408 34.4997ZM75.8959 46.9997V36.3649H77.9857V46.9997H75.8959ZM36.3506 42.9997V37.0915H39.7452L42.9034 42.9997H45.6856L42.2051 36.694C44.0958 36.0495 45.2129 34.3522 45.2129 32.2682C45.2129 29.3571 43.2042 27.4987 40.0782 27.4987H33.9444V42.9997H36.3506ZM36.3506 35.0397V29.6149H39.7452C41.6036 29.6149 42.7422 30.6354 42.7422 32.3219C42.7422 34.0514 41.668 35.0397 39.8096 35.0397H36.3506Z" fill="#009639"/>
</svg>
