<svg width="100" height="100" viewBox="0 0 100 100" fill="none" xmlns="http://www.w3.org/2000/svg">
<rect width="100" height="100" fill="white"/>
<rect x="20.6953" y="47.667" width="66" height="12" fill="#339C63"/>
<path fill-rule="evenodd" clip-rule="evenodd" d="M83.0353 36.5632C85.6531 37.878 87.4495 40.5875 87.4495 43.7165V75.7498C87.4495 80.1681 83.8678 83.7498 79.4495 83.7498H27.7662C23.3479 83.7498 19.7662 80.1681 19.7662 75.7498V69.6358L12.4727 35.2529C11.7455 31.8315 13.9295 28.4684 17.3509 27.7412L72.2027 16.0821C75.6241 15.3548 78.9872 17.5389 79.7144 20.96L83.0353 36.5632ZM80.8358 35.8362L77.7581 21.3761C77.2606 19.0351 74.9595 17.5408 72.6185 18.0384L17.7667 29.6975C15.4258 30.1951 13.9314 32.4962 14.4291 34.8375L19.7662 59.9976V43.7165C19.7662 39.2982 23.3479 35.7165 27.7662 35.7165H79.4495C79.9223 35.7165 80.3855 35.7575 80.8358 35.8362ZM85.4495 43.7165V46.6665H21.7662V43.7165C21.7662 40.4028 24.4525 37.7165 27.7662 37.7165H79.4495C82.7632 37.7165 85.4495 40.4028 85.4495 43.7165ZM85.4495 48.6665H21.7662V58.7332H85.4495V48.6665ZM21.7662 60.7332H85.4495V75.7498C85.4495 79.0635 82.7632 81.7498 79.4495 81.7498H27.7662C24.4525 81.7498 21.7662 79.0635 21.7662 75.7498V60.7332Z" fill="white"/>
</svg>
