<svg width="150" height="150" viewBox="0 0 150 150" fill="none" xmlns="http://www.w3.org/2000/svg">
<rect width="150" height="150" fill="white"/>
<path fill-rule="evenodd" clip-rule="evenodd" d="M52.3981 121.525L28 32.7563L77.7391 19L84.7752 45.2593C84.7752 45.2593 83.8587 46.0894 77.7391 46.0894C77.5945 46.0894 77.4504 46.0889 77.3066 46.088C70.8583 46.0475 66.1298 40.4921 66.1298 34.0437H52.3981V121.525Z" fill="#339C63"/>
<path fill-rule="evenodd" clip-rule="evenodd" d="M37.4338 14.6134C36.6992 11.3986 33.822 9 30.3846 9C26.9735 9 24.114 11.362 23.3527 14.5398C20.9389 14.5976 19 16.5724 19 19H21C21 17.6405 22.1021 16.5385 23.4615 16.5385C24.821 16.5385 25.9231 17.6405 25.9231 19H27.9231C27.9231 17.197 26.8535 15.6437 25.3143 14.9401C25.889 12.6754 27.9411 11 30.3846 11C33.2735 11 35.6154 13.3419 35.6154 16.2308H36.6154V16.5385C37.9749 16.5385 39.0769 17.6405 39.0769 19H41.0769C41.0769 16.8155 39.507 14.9977 37.4338 14.6134Z" fill="#B2E0C4"/>
<path fill-rule="evenodd" clip-rule="evenodd" d="M131 23C131 20.7909 129.209 19 127 19C124.791 19 123 20.7909 123 23C123 25.2091 124.791 27 127 27C129.209 27 131 25.2091 131 23ZM125 23C125 21.8954 125.895 21 127 21C128.105 21 129 21.8954 129 23C129 24.1046 128.105 25 127 25C125.895 25 125 24.1046 125 23Z" fill="#7FCB9C"/>
<path fill-rule="evenodd" clip-rule="evenodd" d="M131.037 56.4185C129.216 57.1427 127.929 58.921 127.929 61H129.929C129.929 59.3826 131.24 58.0714 132.857 58.0714C134.475 58.0714 135.786 59.3826 135.786 61H137.786C137.786 58.3293 135.661 56.1547 133.01 56.0738C132.519 52.0868 129.12 49 125 49C121.156 49 117.939 51.6873 117.127 55.2857C114.846 55.2944 113 57.1459 113 59.4286H115C115 58.2451 115.959 57.2857 117.143 57.2857C118.326 57.2857 119.286 58.2451 119.286 59.4286H121.286C121.286 57.8365 120.388 56.4542 119.07 55.7605C119.67 53.0375 122.097 51 125 51C128.133 51 130.711 53.3724 131.037 56.4185Z" fill="#99D5B0"/>
<path fill-rule="evenodd" clip-rule="evenodd" d="M29 99C29 95.6863 26.3137 93 23 93C19.6863 93 17 95.6863 17 99C17 102.314 19.6863 105 23 105C26.3137 105 29 102.314 29 99ZM19 99C19 96.7909 20.7909 95 23 95C25.2091 95 27 96.7909 27 99C27 101.209 25.2091 103 23 103C20.7909 103 19 101.209 19 99Z" fill="#7FCB9C"/>
<path fill-rule="evenodd" clip-rule="evenodd" d="M17 66V63C17 62.4477 17.4477 62 18 62C18.5523 62 19 62.4477 19 63V66H22C22.5523 66 23 66.4477 23 67C23 67.5523 22.5523 68 22 68H19V71C19 71.5523 18.5523 72 18 72C17.4477 72 17 71.5523 17 71V68H14C13.4477 68 13 67.5523 13 67C13 66.4477 13.4477 66 14 66H17Z" fill="#CCEAD8"/>
<path fill-rule="evenodd" clip-rule="evenodd" d="M9.375 124V122C9.375 121.448 9.82272 121 10.375 121C10.9273 121 11.375 121.448 11.375 122V124H13.375C13.9273 124 14.375 124.448 14.375 125C14.375 125.552 13.9273 126 13.375 126H11.375V128C11.375 128.552 10.9273 129 10.375 129C9.82272 129 9.375 128.552 9.375 128V126H7.375C6.82272 126 6.375 125.552 6.375 125C6.375 124.448 6.82272 124 7.375 124H9.375Z" fill="#99D5B0"/>
<path d="M59 129.9H48" stroke="white" stroke-width="2" stroke-linecap="round"/>
<path d="M44.0001 129.9H41.9551" stroke="white" stroke-width="2" stroke-linecap="round"/>
<path fill-rule="evenodd" clip-rule="evenodd" d="M100.186 102.376C90.3248 102.376 82.3311 110.37 82.3311 120.231C82.3311 130.092 90.325 138.086 100.186 138.086C110.047 138.086 118.041 130.092 118.041 120.231C118.041 110.37 110.047 102.376 100.186 102.376Z" fill="#339C63"/>
<path fill-rule="evenodd" clip-rule="evenodd" d="M65.0001 62.6295V74.2295H67.3118V69.6144H67.9913L71.3718 74.2295H74.1724L70.6013 69.5812C72.8301 69.3658 74.1558 68.0649 74.1558 66.1592C74.1558 63.9386 72.6727 62.6295 69.9053 62.6295H65.0001ZM69.8638 64.7589C71.0901 64.7589 71.7778 65.1981 71.7778 66.1592C71.7778 67.1369 71.1233 67.6009 69.8638 67.6009H67.3118V64.7589H69.8638Z" fill="white"/>
<path d="M65.0001 83.9996H85.0001V81.9996H65.0001V83.9996Z" fill="white"/>
<path d="M95.0001 90.9996H65.0001V88.9996H95.0001V90.9996Z" fill="white"/>
<path d="M65.0001 97.9996H95.0001V95.9996H65.0001V97.9996Z" fill="white"/>
<path d="M101.586 122.728L106.314 118H104C102.412 118 100.874 118.336 99.4612 118.977C95.5593 120.747 93 124.64 93 129H91C91 123.848 94.0247 119.247 98.635 117.155C100.306 116.397 102.126 116 104 116H106.172L101.586 111.414L103 110L110.071 117.071L103 124.142L101.586 122.728Z" fill="white"/>
<path fill-rule="evenodd" clip-rule="evenodd" d="M79.2077 116.575C80.0324 116.575 80.8459 116.654 81.6405 116.81C81.4371 117.919 81.3308 119.063 81.3308 120.231C81.3308 130.644 89.7725 139.086 100.186 139.086C110.599 139.086 119.041 130.644 119.041 120.231C119.041 112.312 114.159 105.534 107.242 102.741V71.9996H109.605C110.157 71.9996 110.605 71.5519 110.605 70.9996C110.605 70.4473 110.157 69.9996 109.605 69.9996H107.242V65.9996H112.143C112.695 65.9996 113.143 65.5519 113.143 64.9996C113.143 64.4473 112.695 63.9996 112.143 63.9996H107.242V33.0433H93.2211V33.0496H92.3685C92.3685 37.8794 89.6485 42.0739 85.6569 44.185L78.5757 17.7578L26.9048 31.603L50.8875 121.108V130.879L66.6191 130.878V129.164C66.6191 122.211 72.2552 116.575 79.2077 116.575ZM29.3543 33.0172L77.1615 20.2073L83.8 44.9826C82.5376 45.4078 81.1856 45.6382 79.7799 45.6382C72.8274 45.6382 67.1913 40.0021 67.1913 33.0496H66.3045V33.0433H50.8875V113.38L29.3543 33.0172ZM65.3264 35.0433H52.8875V128.879H64.6218C64.7736 120.953 71.2458 114.575 79.2077 114.575C80.1898 114.575 81.1594 114.672 82.1059 114.863C84.4177 107.065 91.6372 101.376 100.186 101.376C101.937 101.376 103.633 101.615 105.242 102.062V35.0433H94.2334C93.2612 42.1571 87.1606 47.6382 79.7799 47.6382C72.3991 47.6382 66.2985 42.1571 65.3264 35.0433ZM83.3308 120.231C83.3308 110.922 90.8769 103.376 100.186 103.376C109.494 103.376 117.041 110.922 117.041 120.231C117.041 129.539 109.494 137.086 100.186 137.086C90.877 137.086 83.3308 129.539 83.3308 120.231Z" fill="white"/>
<path d="M116 65.9996H117.407C117.96 65.9996 118.407 65.5519 118.407 64.9996C118.407 64.4473 117.96 63.9996 117.407 63.9996H116C115.448 63.9996 115 64.4473 115 64.9996C115 65.5519 115.448 65.9996 116 65.9996Z" fill="white"/>
</svg>
