<svg width="150" height="150" viewBox="0 0 150 150" fill="none" xmlns="http://www.w3.org/2000/svg">
<rect width="150" height="150" fill="white"/>
<path fill-rule="evenodd" clip-rule="evenodd" d="M33.9943 113.442L19 30.9187L33.9201 28.2441L33.9943 113.442Z" fill="#E4F2D2"/>
<circle cx="116.59" cy="30.0004" r="15.6" fill="#E4F2D2"/>
<path fill-rule="evenodd" clip-rule="evenodd" d="M116.213 13C111.085 13 106.481 15.2423 103.328 18.8H33.0002V27.0408L17.7573 29.7285L33.0002 116.175V131.1H119.17V47.2601C119.496 47.217 119.825 47.1632 120.171 47.0988L119.805 45.1326C118.96 45.2899 117.242 45.3904 117.166 45.3904V47.3904H117.17V129.1H35.0002V20.8H101.8C100.029 23.5051 99.0002 26.7389 99.0002 30.213C99.0002 39.7195 106.707 47.4261 116.213 47.4261V45.4261C107.811 45.4261 101 38.615 101 30.213C101 21.8111 107.811 15 116.213 15C119.349 15 122.34 15.9498 124.863 17.6963C128.588 20.2759 130.982 24.3649 131.371 28.9051L130.23 27.5511L128.7 28.8399L132.165 32.9515L135.917 28.9304L134.455 27.5659L133.363 28.7355C132.925 23.5984 130.215 18.9696 126.001 16.052C123.147 14.0757 119.759 13 116.213 13ZM33.0002 29.0716V104.658L20.0742 31.3508L33.0002 29.0716ZM123.261 46.2161L122.533 44.3532C123.409 44.011 124.251 43.5879 125.048 43.0901L126.107 44.7864C125.205 45.3498 124.253 45.8287 123.261 46.2161ZM127.306 41.3677L128.662 42.8385C129.444 42.1178 130.158 41.3263 130.795 40.4746L129.193 39.277C128.63 40.0302 127.998 40.7303 127.306 41.3677ZM132.449 37.7775L130.655 36.8934C131.07 36.0514 131.406 35.1719 131.658 34.2646L133.585 34.8006C133.299 35.8282 132.918 36.8242 132.449 37.7775ZM117 32.991V22C117 21.4477 116.552 21 116 21C115.448 21 115 21.4477 115 22V34.0552L121.202 38.233C121.66 38.5415 122.282 38.4203 122.59 37.9623C122.899 37.5042 122.778 36.8828 122.32 36.5742L117 32.991ZM90.0003 75.0001V77.0001L56.0001 76.9963V74.9963L90.0003 75.0001ZM108 65V63H56.0002V65H108ZM107 86V88H56.0002V86H107ZM45.5556 64.8697L44.2701 63.3376L42.738 64.6231L45.3091 67.6873L52.0105 62.0642L50.7249 60.5321L45.5556 64.8697ZM44.2701 75.3376L45.5556 76.8697L50.7249 72.5321L52.0105 74.0642L45.3091 79.6873L42.738 76.6231L44.2701 75.3376ZM50.7249 83.5321L45.5556 87.8697L44.2701 86.3376L42.738 87.6231L45.3091 90.6873L52.0105 85.0642L50.7249 83.5321Z" fill="#009639"/>
</svg>
