<svg width="150" height="150" viewBox="0 0 150 150" fill="none" xmlns="http://www.w3.org/2000/svg">
<rect width="150" height="150" fill="white"/>
<path d="M136 84C136.552 84 137 84.4477 137 85C137 85.5523 136.552 86 136 86H131.567C131.015 86 130.567 85.5523 130.567 85C130.567 84.4477 131.015 84 131.567 84H136ZM140 84C140.552 84 141 84.4477 141 85C141 85.5523 140.552 86 140 86H139.567C139.015 86 138.567 85.5523 138.567 85C138.567 84.4477 139.015 84 139.567 84H140ZM134 79C134.552 79 135 79.4477 135 80C135 80.5523 134.552 81 134 81H131.567C131.015 81 130.567 80.5523 130.567 80C130.567 79.4477 131.015 79 131.567 79H134Z" fill="#006FCF"/>
<path d="M131.928 70.119L126.558 63.877L125.042 65.182L130.412 71.424L131.928 70.119Z" fill="#006FCF"/>
<path d="M102.913 62.0234V60.0234H92.6635L84.0635 70.0204L85.5795 71.3244L93.5815 62.0234H102.913Z" fill="#006FCF"/>
<path fill-rule="evenodd" clip-rule="evenodd" d="M116.973 73.8054C116.973 75.6616 115.468 77.1662 113.612 77.1662H102.491C100.635 77.1662 99.13 75.6614 99.13 73.8054V71.1054H84.999V93.9799C84.999 96.0239 86.6714 97.6963 88.7154 97.6963H127.284C129.328 97.6963 131.001 96.0239 131.001 93.9799V71.1054H116.973V73.8054ZM112.015 39.0537C113.327 38.873 114.575 38.8719 115.897 39.0551L116.395 42.8617C117.464 43.1193 118.465 43.5408 119.377 44.0996L122.422 41.7591C123.458 42.5436 124.383 43.4682 125.167 44.5051L122.826 47.5509C123.383 48.462 123.804 49.4631 124.061 50.5307L127.867 51.0287C128.052 52.371 128.045 53.6202 127.867 54.9119L124.061 55.4099C123.804 56.4775 123.383 57.4787 122.826 58.3897L125.167 61.4355C124.383 62.4725 123.458 63.397 122.422 64.1815L119.377 61.8412C118.465 62.3999 117.463 62.8214 116.395 63.079L115.897 66.8856C114.574 67.069 113.326 67.0677 112.015 66.887L111.517 63.0819C110.447 62.8251 109.444 62.4037 108.531 61.8448L105.485 64.1857C104.426 63.385 103.492 62.4361 102.74 61.4423L105.08 58.3974C104.52 57.4839 104.098 56.4798 103.84 55.4087L100.035 54.9106C99.8513 53.5835 99.8641 52.265 100.035 51.0302L103.84 50.5322C104.098 49.4611 104.52 48.457 105.08 47.5435L102.74 44.4986C103.542 43.4399 104.491 42.507 105.485 41.7552L108.531 44.0959C109.444 43.537 110.447 43.1157 111.517 42.8588L112.015 39.0537ZM113.951 47.7656C111.076 47.7656 108.746 50.0958 108.746 52.9703C108.746 55.8448 111.076 58.175 113.951 58.175C116.825 58.175 119.156 55.8448 119.156 52.9703C119.156 50.0958 116.825 47.7656 113.951 47.7656Z" fill="#B3D4F1"/>
<path d="M132.235 15V21.47" stroke="#B3D4F1" stroke-width="2" stroke-linecap="round"/>
<path d="M135.47 18.2354H129" stroke="#B3D4F1" stroke-width="2" stroke-linecap="round"/>
<path d="M18.5 135C20.9853 135 23 132.985 23 130.5C23 128.015 20.9853 126 18.5 126C16.0147 126 14 128.015 14 130.5C14 132.985 16.0147 135 18.5 135Z" stroke="#B3D4F1" stroke-width="2"/>
<path fill-rule="evenodd" clip-rule="evenodd" d="M107.038 106.799V120.754C107.038 126.277 102.56 130.754 97.0375 130.754H54.8892C49.3731 130.754 44.8987 126.288 44.8892 120.771L44.8652 106.799H107.038ZM75.5607 114.232C73.3068 114.232 71.4796 116.059 71.4796 118.313C71.4796 120.567 73.3068 122.394 75.5607 122.394C77.8146 122.394 79.6418 120.567 79.6418 118.313C79.6418 116.059 77.8146 114.232 75.5607 114.232ZM44.8652 35.9869H106.647V28C106.647 23.5817 103.065 20 98.6469 20H52.8652C48.447 20 44.8652 23.5817 44.8652 28V35.9869Z" fill="#B3D4F1"/>
<path fill-rule="evenodd" clip-rule="evenodd" d="M68.8546 66.2002V88.7562H23.3076V82.7662H63.0836L62.9726 68.2152L68.8546 66.2002Z" fill="#B3D4F1"/>
<path d="M63.9416 70.0228C69.5837 70.0228 74.1576 65.449 74.1576 59.8068C74.1576 54.1647 69.5837 49.5908 63.9416 49.5908C58.2994 49.5908 53.7256 54.1647 53.7256 59.8068C53.7256 65.449 58.2994 70.0228 63.9416 70.0228Z" fill="#B3D4F1"/>
<path d="M45.4744 91.7384L45.4734 105.213H105.646L105.646 101.442H107.647V120.456C107.647 126.257 102.981 131.014 97.2141 131.166L96.9296 131.17H54.1914C48.389 131.17 43.6301 126.506 43.4781 120.74L43.4744 120.456V91.7384H45.4744ZM105.647 107.213H45.4734L45.4744 120.456C45.4744 125.16 49.2569 129.027 53.9308 129.166L54.1914 129.17H96.9296C101.636 129.17 105.504 125.388 105.643 120.716L105.647 120.456V107.213ZM75.5605 113.232C78.3667 113.232 80.6416 115.507 80.6416 118.313C80.6416 121.119 78.3667 123.394 75.5605 123.394C72.7543 123.394 70.4794 121.119 70.4794 118.313C70.4794 115.507 72.7543 113.232 75.5605 113.232ZM75.5605 115.232C73.8589 115.232 72.4794 116.612 72.4794 118.313C72.4794 120.015 73.8589 121.394 75.5605 121.394C77.2622 121.394 78.6416 120.015 78.6416 118.313C78.6416 116.612 77.2622 115.232 75.5605 115.232ZM100.131 70.105V73.805C100.131 75.0544 101.101 76.0773 102.33 76.1603L102.491 76.1658H113.612C114.862 76.1658 115.885 75.1951 115.968 73.9666L115.973 73.805V70.105H132.001V94.2395C132.001 96.7637 129.997 98.8377 127.5 98.951L127.285 98.9559H88.716C86.1918 98.9559 84.1177 96.9519 84.0044 94.4547L83.9996 94.2395V70.105H100.131ZM130.001 86.031L118.026 86.0319V87.0108C118.026 89.153 116.342 90.9018 114.226 91.0059L114.026 91.0108H102.05C99.9076 91.0108 98.1587 89.3268 98.0546 87.2104L98.0498 87.0108V86.0319L85.9986 86.031L85.9996 94.2395C85.9996 95.676 87.1352 96.8648 88.5514 96.9509L88.716 96.9559H127.285C128.721 96.9559 129.91 95.8202 129.996 94.4041L130.001 94.2395L130.001 86.031ZM64.1276 47.7987C70.6924 47.7987 76.0168 53.0879 76.0168 59.6158C76.0168 64.0756 73.5317 67.9573 69.8636 69.9692L69.8631 89.4616H23.3925L23.3917 83.452L17.3785 83.4521L17.3777 74.014L13.0812 74.0149C12.529 74.0149 12.0812 73.5672 12.0812 73.0149C12.0812 72.502 12.4673 72.0794 12.9646 72.0216L13.0812 72.0149L17.3777 72.014V66.447L11.5677 66.4473C11.0154 66.4473 10.5677 65.9996 10.5677 65.4473C10.5677 64.9345 10.9538 64.5118 11.4511 64.454L11.5677 64.4473L17.3777 64.447L17.3785 56.212L52.7388 56.2123C54.2092 51.3442 58.7527 47.7987 64.1276 47.7987ZM98.1306 72.105H85.9996L85.9986 84.031L100.05 84.0319V87.0108C100.05 88.0651 100.866 88.9289 101.9 89.0053L102.05 89.0108H114.026C115.08 89.0108 115.944 88.1949 116.021 87.16L116.026 87.0108V84.0319L130.001 84.031L130.001 72.105H117.973V73.805C117.973 76.1426 116.134 78.0505 113.824 78.1608L113.612 78.1658H102.491C100.154 78.1658 98.2458 76.3265 98.1356 74.0163L98.1306 73.805V72.105ZM67.8631 70.8379C66.6883 71.224 65.4324 71.433 64.1276 71.433C64.0359 71.433 63.9445 71.432 63.8534 71.4299L63.8535 83.4521L25.3917 83.452L25.3925 87.4616H67.8631V70.8379ZM52.3213 58.212H19.3785V81.4521H61.8535V71.217C56.3758 70.1622 52.2383 65.3703 52.2383 59.6158C52.2383 59.1408 52.2665 58.6724 52.3213 58.212ZM33.7457 75.4425V77.4425H24.9758V75.4425H33.7457ZM42.1591 75.4425V77.4425H37.2498V75.4425H42.1591ZM30.9213 69.2527V71.2527H24.9758V69.2527H30.9213ZM64.1276 49.7987C58.6644 49.7987 54.2383 54.1954 54.2383 59.6158C54.2383 65.0362 58.6644 69.433 64.1276 69.433C69.5907 69.433 74.0168 65.0362 74.0168 59.6158C74.0168 54.1954 69.5907 49.7987 64.1276 49.7987ZM115.567 38.0063L116.035 38.0642L116.79 38.1688L117.301 42.0729C117.854 42.2426 118.391 42.4541 118.91 42.7052L119.295 42.9009L122.418 40.501L123.026 40.9613C124.013 41.7082 124.904 42.5734 125.68 43.5361L125.965 43.9017L126.424 44.5097L124.024 47.6329C124.294 48.1414 124.525 48.6696 124.715 49.2138L124.85 49.625L128.753 50.1358L128.858 50.8914C129.032 52.1491 129.05 53.3484 128.915 54.5835L128.858 55.0485L128.753 55.804L124.85 56.3148C124.681 56.8669 124.47 57.4038 124.219 57.9219L124.024 58.3069L126.424 61.4301L125.965 62.0381C125.219 63.0249 124.354 63.9168 123.391 64.6929L123.026 64.9785L122.418 65.4387L119.295 63.039C118.786 63.3098 118.258 63.5414 117.713 63.7319L117.301 63.867L116.79 67.771L116.035 67.8757C114.783 68.0493 113.584 68.0686 112.346 67.9347L111.879 67.8772L111.123 67.773L110.613 63.8706C110.058 63.701 109.52 63.4896 109 63.2383L108.613 63.0424L105.49 65.4426L104.882 64.9829C103.896 64.2375 102.994 63.3584 102.225 62.4059L101.943 62.0453L101.483 61.4372L103.883 58.3151C103.611 57.8043 103.379 57.2737 103.188 56.7267L103.052 56.3135L99.1492 55.8028L99.0447 55.0471C98.8772 53.8354 98.8589 52.6049 98.9829 51.4051L99.0447 50.8929L99.1491 50.1373L103.052 49.6265C103.222 49.0716 103.434 48.5322 103.686 48.0117L103.883 47.625L101.483 44.5028L101.943 43.8947C102.69 42.9088 103.569 42.0066 104.522 41.2387L104.882 40.9571L105.49 40.4974L108.613 42.8975C109.124 42.6265 109.654 42.3947 110.2 42.2043L110.613 42.0693L111.123 38.1668L111.879 38.0627C113.129 37.8904 114.327 37.8713 115.567 38.0063ZM6.04487 64.4473C6.59715 64.4473 7.04487 64.895 7.04487 65.4473C7.04487 65.9601 6.65883 66.3828 6.16149 66.4406L6.04487 66.4473H5.51367C4.96139 66.4473 4.51367 65.9996 4.51367 65.4473C4.51367 64.9345 4.89971 64.5118 5.39705 64.454L5.51367 64.4473H6.04487ZM113.327 39.9331L112.905 39.9608L112.42 43.6702L111.751 43.8308C110.915 44.0315 110.116 44.3453 109.37 44.763L109.053 44.9484L108.467 45.3073L105.499 43.0263C105.075 43.3876 104.67 43.7797 104.291 44.1956L104.013 44.5119L106.293 47.4793L105.933 48.0658C105.485 48.7967 105.14 49.5832 104.906 50.4092L104.813 50.7656L104.652 51.4341L100.944 51.9194C100.9 52.4751 100.891 53.0373 100.917 53.5993L100.944 54.0206L104.652 54.5059L104.813 55.1744C105.015 56.0114 105.329 56.8112 105.748 57.5576L105.933 57.8742L106.293 58.4608L104.013 61.4281C104.374 61.8516 104.766 62.2567 105.182 62.635L105.499 62.9137L108.467 60.6326L109.053 60.9915C109.784 61.4388 110.57 61.7834 111.395 62.0162L111.751 62.1091L112.42 62.2697L112.905 65.9791C113.47 66.0255 114.025 66.0346 114.586 66.0065L115.008 65.9783L115.493 62.2676L116.161 62.1065C116.996 61.9051 117.794 61.5911 118.539 61.1735L118.855 60.9882L119.441 60.6286L122.409 62.9097C122.837 62.5454 123.241 62.1541 123.618 61.7384L123.896 61.4221L121.614 58.4536L121.973 57.8673C122.419 57.1384 122.763 56.3541 122.996 55.5308L123.089 55.1756L123.25 54.5071L126.96 54.0216C127.007 53.4586 127.016 52.9033 126.988 52.3412L126.96 51.9181L123.25 51.4326L123.089 50.7642C122.888 49.9301 122.575 49.1328 122.158 48.3882L121.973 48.0724L121.614 47.4861L123.896 44.5176C123.532 44.0899 123.141 43.686 122.725 43.3084L122.409 43.0301L119.441 45.3113L118.855 44.9517C118.126 44.5047 117.341 44.1599 116.517 43.9266L116.161 43.8334L115.493 43.6724L115.008 39.9616C114.443 39.9148 113.888 39.9053 113.327 39.9331ZM64.704 54.8082C65.207 54.8082 65.6462 54.8821 66.0215 55.0298C66.3969 55.1775 66.7063 55.3791 66.9498 55.6347C67.1934 55.8902 67.3771 56.1857 67.5008 56.521C67.6246 56.8564 67.6865 57.2158 67.6865 57.5991C67.6865 58.2858 67.5208 58.8428 67.1894 59.27C66.858 59.6972 66.3689 59.9867 65.7221 60.1384L68.5609 63.8396H65.6383L63.3984 60.366V63.8396H61.0507V54.8082H64.704ZM113.951 46.7652C117.378 46.7652 120.156 49.5431 120.156 52.9699C120.156 56.3966 117.378 59.1746 113.951 59.1746C110.525 59.1746 107.747 56.3966 107.747 52.9699C107.747 49.5431 110.525 46.7652 113.951 46.7652ZM63.8416 56.6169H63.3984V58.8448H63.8416C64.3047 58.8448 64.66 58.749 64.9076 58.5573C65.1551 58.3657 65.2789 58.0902 65.2789 57.7308C65.2789 57.3715 65.1551 57.096 64.9076 56.9043C64.66 56.7127 64.3047 56.6169 63.8416 56.6169ZM113.951 48.7652C111.629 48.7652 109.747 50.6477 109.747 52.9699C109.747 55.2921 111.629 57.1746 113.951 57.1746C116.274 57.1746 118.156 55.2921 118.156 52.9699C118.156 50.6477 116.274 48.7652 113.951 48.7652ZM96.9296 19C102.731 19 107.491 23.6666 107.643 29.4308L107.647 29.7151V38.6035L105.646 38.5314L105.646 36.67L45.4734 36.981L45.4744 53.9638H43.4744V29.7151C43.4744 23.9159 48.1408 19.1558 53.9069 19.0037L54.1914 19H96.9296ZM96.9296 21H54.1914C49.4868 21 45.6174 24.784 45.4783 29.4547L45.4744 29.7151L45.4734 34.981L105.647 34.67V29.7151C105.647 25.0125 101.863 21.143 97.1901 21.0039L96.9296 21Z" fill="#006FCF"/>
<path fill-rule="evenodd" clip-rule="evenodd" d="M19.7782 16.9213C20.1248 17.0396 20.459 17.1937 20.7761 17.3817C21.2204 17.6451 21.367 18.2187 21.1036 18.663C20.8403 19.1073 20.2666 19.254 19.8223 18.9906C19.2902 18.6752 18.6871 18.5071 18.0581 18.5071C16.1192 18.5071 14.5379 20.1126 14.5236 22.1081C14.5587 22.2064 14.5778 22.3123 14.5778 22.4227C14.5778 22.9392 14.1591 23.3579 13.6426 23.3579H9.93519C9.4187 23.3579 9 22.9392 9 22.4227C9 21.9062 9.4187 21.4875 9.93519 21.4875H12.6903C13 18.8043 15.21 16.7069 17.9213 16.6385C18.6809 13.3899 21.5745 11 24.9924 11C28.4211 11 31.3175 13.4036 32.0686 16.6606C34.1298 16.8843 35.73 18.6521 35.73 20.7932C35.73 21.3097 35.3113 21.7284 34.7948 21.7284C34.2783 21.7284 33.8596 21.3097 33.8596 20.7932C33.8596 19.5272 32.8561 18.5071 31.626 18.5071C31.2818 18.5071 30.9504 18.5862 30.649 18.7366C30.1868 18.9672 29.6253 18.7795 29.3946 18.3174C29.164 17.8553 29.3517 17.2937 29.8139 17.0631C29.9397 17.0003 30.0684 16.9442 30.1995 16.8949C29.5752 14.5657 27.4683 12.8704 24.9924 12.8704C22.5092 12.8704 20.3941 14.5765 19.7782 16.9213Z" fill="#B3D4F1" fill-opacity="0.5"/>
<path fill-rule="evenodd" clip-rule="evenodd" d="M129.547 132.143C129.188 132.266 128.841 132.425 128.512 132.621C128.051 132.894 127.899 133.489 128.172 133.95C128.445 134.411 129.04 134.563 129.501 134.29C130.053 133.962 130.679 133.788 131.332 133.788C133.343 133.788 134.984 135.454 134.998 137.524C134.962 137.626 134.942 137.736 134.942 137.85C134.942 138.386 135.376 138.82 135.912 138.82H139.758C140.294 138.82 140.729 138.386 140.729 137.85C140.729 137.314 140.294 136.88 139.758 136.88H136.9C136.579 134.097 134.286 131.921 131.474 131.85C130.686 128.479 127.684 126 124.138 126C120.581 126 117.576 128.494 116.797 131.872C114.659 132.104 112.998 133.938 112.998 136.16C112.998 136.695 113.433 137.13 113.969 137.13C114.504 137.13 114.939 136.695 114.939 136.16C114.939 134.846 115.98 133.788 117.256 133.788C117.613 133.788 117.957 133.87 118.27 134.026C118.749 134.265 119.332 134.071 119.571 133.591C119.81 133.112 119.615 132.529 119.136 132.29C119.006 132.225 118.872 132.167 118.736 132.116C119.384 129.699 121.569 127.94 124.138 127.94C126.714 127.94 128.908 129.71 129.547 132.143Z" fill="#B3D4F1" fill-opacity="0.5"/>
</svg>
