<svg width="150" height="150" viewBox="0 0 150 150" fill="none" xmlns="http://www.w3.org/2000/svg">
<rect width="150" height="150" fill="white"/>
<path fill-rule="evenodd" clip-rule="evenodd" d="M40.9868 83.7186L75.0671 103.688L109.147 82.1768V121.177C109.147 124.49 106.461 127.177 103.147 127.177H46.9868C43.6731 127.177 40.9868 124.49 40.9868 121.177V83.7186Z" fill="#E4F2D2"/>
<circle cx="50.1176" cy="60.1176" r="19.3529" fill="#E4F2D2"/>
<path fill-rule="evenodd" clip-rule="evenodd" d="M78.7899 19.4776C79.1692 19.607 79.5349 19.7757 79.8818 19.9813C80.3678 20.2694 80.5283 20.897 80.2402 21.383C79.9521 21.869 79.3245 22.0294 78.8385 21.7413C78.2565 21.3963 77.5967 21.2125 76.9086 21.2125C74.7873 21.2125 73.0573 22.9693 73.0422 25.1526C73.0806 25.2602 73.1016 25.376 73.1016 25.4968C73.1016 26.0618 72.6435 26.5198 72.0786 26.5198H68.023C67.458 26.5198 67 26.0618 67 25.4968C67 24.9318 67.458 24.4738 68.023 24.4738H71.0367C71.375 21.5382 73.7925 19.2434 76.7586 19.1684C77.5894 15.6145 80.7547 13 84.4937 13C88.2445 13 91.4131 15.6295 92.2345 19.1925C94.4894 19.437 96.2402 21.3709 96.2402 23.7132C96.2402 24.2781 95.7822 24.7362 95.2172 24.7362C94.6522 24.7362 94.1942 24.2781 94.1942 23.7132C94.1942 22.3283 93.0964 21.2125 91.7508 21.2125C91.3742 21.2125 91.0118 21.299 90.682 21.4635C90.1765 21.7158 89.5622 21.5104 89.3099 21.0049C89.0576 20.4994 89.263 19.885 89.7685 19.6328C89.906 19.5642 90.0466 19.5029 90.19 19.449C89.5072 16.9007 87.2024 15.046 84.4937 15.046C81.7773 15.046 79.4635 16.9125 78.7899 19.4776Z" fill="#CCEAD8"/>
<path fill-rule="evenodd" clip-rule="evenodd" d="M130 48.5C130 51.5376 127.538 54 124.5 54C121.462 54 119 51.5376 119 48.5C119 45.4624 121.462 43 124.5 43C127.538 43 130 45.4624 130 48.5ZM121 48.5C121 50.433 122.567 52 124.5 52C126.433 52 128 50.433 128 48.5C128 46.567 126.433 45 124.5 45C122.567 45 121 46.567 121 48.5Z" fill="#99D5B0"/>
<path fill-rule="evenodd" clip-rule="evenodd" d="M29.0083 30.0083V25C29.0083 24.4477 29.456 24 30.0083 24C30.5605 24 31.0083 24.4477 31.0083 25V30.0083H36.0165C36.5688 30.0083 37.0165 30.456 37.0165 31.0083C37.0165 31.5605 36.5688 32.0083 36.0165 32.0083H31.0083V37.0165C31.0083 37.5688 30.5605 38.0165 30.0083 38.0165C29.456 38.0165 29.0083 37.5688 29.0083 37.0165V32.0083H24C23.4477 32.0083 23 31.5605 23 31.0083C23 30.456 23.4477 30.0083 24 30.0083H29.0083Z" fill="#B2E0C4"/>
<path fill-rule="evenodd" clip-rule="evenodd" d="M26 121C26 123.209 24.2091 125 22 125C19.7909 125 18 123.209 18 121C18 118.791 19.7909 117 22 117C24.2091 117 26 118.791 26 121ZM20 121C20 122.105 20.8954 123 22 123C23.1046 123 24 122.105 24 121C24 119.895 23.1046 119 22 119C20.8954 119 20 119.895 20 121Z" fill="#99D5B0"/>
<path fill-rule="evenodd" clip-rule="evenodd" d="M127.235 98.2352V96C127.235 95.4477 127.683 95 128.235 95C128.787 95 129.235 95.4477 129.235 96V98.2352H131.47C132.023 98.2352 132.47 98.6829 132.47 99.2352C132.47 99.7875 132.023 100.235 131.47 100.235H129.235V102.47C129.235 103.023 128.787 103.47 128.235 103.47C127.683 103.47 127.235 103.023 127.235 102.47V100.235H125C124.448 100.235 124 99.7875 124 99.2352C124 98.6829 124.448 98.2352 125 98.2352H127.235Z" fill="#B2E0C4"/>
<path fill-rule="evenodd" clip-rule="evenodd" d="M50.1176 77.4705C59.7014 77.4705 67.4705 69.7014 67.4705 60.1176C67.4705 50.5338 59.7014 42.7646 50.1176 42.7646C40.5338 42.7646 32.7646 50.5338 32.7646 60.1176C32.7646 69.7014 40.5338 77.4705 50.1176 77.4705ZM50.1176 79.4705C50.7527 79.4705 51.3806 79.4399 52 79.3802V89.7571L42.6499 84.1542C42.5391 84.0878 42.4206 84.0454 42.3005 84.0254L48.1356 79.3703C48.7872 79.4366 49.4484 79.4705 50.1176 79.4705ZM54 90.9555V79.081C62.8277 77.2833 69.4705 69.4762 69.4705 60.1176C69.4705 59.402 69.4317 58.6955 69.356 58H96C96.5523 58 97 58.4477 97 59V76.7602L96.9728 76.8112L97 76.8258V90.0467L75.0595 103.575L54 90.9555ZM50.1176 40.7646C59.3929 40.7646 67.1442 47.2897 69.0316 56H96C97.6569 56 99 57.3431 99 59V75.6263L110.147 81.5768V119.618C110.147 124.589 106.118 128.618 101.147 128.618H48.9868C44.0163 128.618 39.9868 124.589 39.9868 119.618V83.3127L45.4983 78.9158C38.6052 77.2277 33.1615 71.8471 31.3832 64.9899C31.2555 65.049 31.1133 65.082 30.9634 65.082H27C26.4477 65.082 26 64.6343 26 64.082C26 63.5297 26.4477 63.082 27 63.082H30.9634C30.9724 63.082 30.9814 63.0822 30.9903 63.0824C30.8417 62.1158 30.7646 61.1257 30.7646 60.1176C30.7646 60.1057 30.7647 60.0939 30.7647 60.082H25C24.4477 60.082 24 59.6343 24 59.082C24 58.5297 24.4477 58.082 25 58.082H30.8704C31.8876 48.3505 40.1167 40.7646 50.1176 40.7646ZM54.1475 56.8223H43.5515V54.8223H54.5285L50.9134 51.2072L52.3276 49.793L58.1664 55.6318L57.0754 56.7229V56.8223H56.976L52.3276 61.4706L50.9134 60.0564L54.1475 56.8223ZM45.0511 66.499H55.6472V64.499H44.6702L48.2853 60.8839L46.8711 59.4697L41.0322 65.3086L42.1233 66.3996V66.499H42.2227L46.8711 71.1474L48.2853 69.7332L45.0511 66.499ZM80.4365 73.4709V63.6709H84.5805C86.9185 63.6709 88.1715 64.7769 88.1715 66.6529C88.1715 68.2629 87.0515 69.3619 85.1685 69.5439L88.1855 73.4709H85.8195L82.9635 69.5719H82.3895V73.4709H80.4365ZM86.1625 66.6529C86.1625 65.8409 85.5815 65.4699 84.5455 65.4699H82.3895V67.8709H84.5455C85.6095 67.8709 86.1625 67.4789 86.1625 66.6529ZM108.147 83.1732L99 88.8135V77.8934L108.147 82.7763V83.1732ZM75.0743 105.915L83.0755 100.982L83.4496 101.446L84.2279 100.818C83.5221 101.526 83.5221 101.526 83.5222 101.526L106.365 124.285C105.083 125.717 103.221 126.618 101.147 126.618H48.9868C46.9664 126.618 45.1459 125.762 43.8681 124.393L67.0593 101.113L75.0743 105.915ZM65.2915 100.053L41.9868 86.0885V119.618C41.9868 120.733 42.2472 121.786 42.7105 122.722L65.2915 100.053ZM84.9721 100.148L84.7916 99.9239L108.147 85.5229V119.618C108.147 120.678 107.912 121.683 107.49 122.583L84.9721 100.148ZM64.3223 83H88.7568V81H64.3223V83ZM88.7568 79H64.3223V77H88.7568V79ZM64.3223 87H88.7568V85H64.3223V87ZM71.8234 93H64.3223V91H71.8234V93ZM21 64.082C21 63.5297 21.4477 63.082 22 63.082H22.9634C23.5156 63.082 23.9634 63.5297 23.9634 64.082C23.9634 64.6343 23.5156 65.082 22.9634 65.082H22C21.4477 65.082 21 64.6343 21 64.082Z" fill="#009639"/>
</svg>
