<svg width="150" height="150" viewBox="0 0 150 150" fill="none" xmlns="http://www.w3.org/2000/svg">
<rect width="150" height="150" fill="white"/>
<path fill-rule="evenodd" clip-rule="evenodd" d="M60.8828 74.1894C60.8828 71.8386 62.796 70 65.1468 70H90.7932C93.144 70 95.0582 71.8224 95.0582 74.1732L93.1716 93.7658C93.1716 96.1194 91.2574 98 88.9066 98H67.0334C64.6828 98 62.7694 96.1572 62.7694 93.8036L60.8828 74.1894ZM76.6253 89L75.9002 83.0317C75.9295 81.9722 76.816 81.1014 77.9678 81.1014C79.1309 81.1014 80.0101 81.9638 80.0393 83.0148L79.316 89H76.6253ZM81.1952 90.12L80.2024 90V91H75.7394H74.8536L74.7467 90.1206L73.9067 83.2066L73.8994 83.1465V83.086C73.8994 80.8375 75.7529 79.1014 77.9678 79.1014C80.1769 79.1014 82.04 80.8121 82.04 83.0688V83.129L82.0328 83.1888L81.1952 90.12Z" fill="#D8D8D8"/>
<path fill-rule="evenodd" clip-rule="evenodd" d="M74.2317 20.9519C68.4864 29.2211 61.3027 34.6486 53.5047 37.3482C47.2262 39.5219 40.8829 39.7252 36.6619 38.2944C33.8793 37.4666 31.1045 39.5257 31.1045 42.4039V73.4639C31.1045 92.7803 39.592 107.617 53.7205 118.502C58.6694 122.314 63.9773 125.366 69.2995 127.731C71.1762 128.565 72.9268 129.256 74.508 129.811L75.1937 130.047C75.8321 130.262 76.3234 130.414 76.6232 130.498C76.9978 130.6 77.3781 130.65 77.7602 130.65C78.1419 130.65 78.5227 130.6 78.8912 130.499L79.3947 130.35C79.8065 130.222 80.3624 130.04 81.0137 129.811C82.5949 129.256 84.3461 128.565 86.2233 127.731C91.5459 125.366 96.8543 122.314 101.804 118.502C115.932 107.618 124.42 92.7804 124.42 73.4639V42.4035C124.42 39.6327 121.811 37.5838 119.111 38.2261L118.582 38.3604L118.476 38.3848C118.098 38.4699 117.657 38.5554 117.158 38.6353C115.726 38.8643 114.119 39.0018 112.373 39.0018C100.986 39.0018 90.1716 33.7314 81.2924 20.9519C79.661 18.6046 75.8625 18.6046 74.2317 20.9519ZM79.65 22.0932C88.9156 35.4288 100.351 41.0018 112.373 41.0018C114.229 41.0018 115.942 40.8553 117.474 40.6102L117.961 40.5278C118.658 40.4037 119.189 40.2806 119.475 40.1975C120.955 39.7768 122.42 40.8922 122.42 42.4035V73.4639C122.42 92.1086 114.252 106.388 100.583 116.917C95.769 120.626 90.5965 123.599 85.4111 125.903C83.5845 126.715 81.8831 127.386 80.351 127.924L79.6932 128.15C79.081 128.357 78.6136 128.501 78.3617 128.571C78.1685 128.623 77.9646 128.65 77.7602 128.65C77.5554 128.65 77.352 128.623 77.1551 128.57L76.6916 128.431C76.3111 128.313 75.7932 128.143 75.1708 127.924C73.6389 127.386 71.938 126.715 70.1118 125.903C64.9267 123.599 59.7548 120.626 54.9411 116.917C41.2729 106.388 33.1045 92.1084 33.1045 73.4639V42.4039C33.1045 40.8658 34.5892 39.7641 36.056 40.2C40.6821 41.7689 47.4782 41.5511 54.159 39.2382C62.3565 36.4002 69.8866 30.711 75.8743 22.093C76.7095 20.8908 78.8144 20.8908 79.65 22.0932ZM77.9737 51.6683C83.2385 51.6683 87.8128 55.7885 87.969 60.8081L87.9731 61.0731V68.9999H90.7937C93.7081 68.9999 96.0587 71.2807 96.0541 74.269L94.1721 93.7657C94.1721 96.6672 91.8147 98.9999 88.9071 98.9999H67.0339C64.1218 98.9999 61.7699 96.7007 61.7745 93.8993L59.8833 74.1893C59.8833 71.2949 62.2351 68.9999 65.1473 68.9999H67.9731V61.0731C67.9731 55.9352 72.618 51.6683 77.9737 51.6683ZM85.9731 61.0731V68.9999H69.9731V61.0731L69.9772 60.8434C70.1161 56.9495 73.7689 53.6683 77.9737 53.6683C82.2623 53.6683 85.9731 57.0784 85.9731 61.0731ZM90.7937 70.9999H65.1473C63.3288 70.9999 61.8833 72.4106 61.8787 74.0936L63.7699 93.8035C63.7699 95.5858 65.2164 96.9999 67.0339 96.9999H88.9071C90.7148 96.9999 92.1721 95.5579 92.1767 93.6699L94.0587 74.1731C94.0587 72.399 92.6168 70.9999 90.7937 70.9999Z" fill="#979797"/>
<path fill-rule="evenodd" clip-rule="evenodd" d="M80.2024 90.0002H75.7394L74.8994 83.0862C74.8994 81.42 76.2746 80.1016 77.9678 80.1016C79.6638 80.1016 81.04 81.403 81.04 83.069L80.2024 90.0002V90.0002Z" stroke="#979797" stroke-width="2"/>
</svg>
