<svg width="100" height="100" viewBox="0 0 100 100" fill="none" xmlns="http://www.w3.org/2000/svg">
<rect width="100" height="100" fill="white"/>
<path d="M77.0456 45.9665C77.0456 35.1642 68.2886 26.4072 57.4863 26.4072C54.1761 26.4072 51.058 27.2295 48.3251 28.6809C45.8432 29.999 49.7104 31.4293 59.9265 32.9719L55.7453 44.6132L77.0456 45.9665ZM35.1997 29.7555C39.3841 27.3396 40.8178 21.989 38.402 17.8045C35.9861 13.6201 30.6354 12.1864 26.451 14.6023C22.2666 17.0182 20.8329 22.3688 23.2488 26.5532C25.6646 30.7377 31.0153 32.1714 35.1997 29.7555Z" fill="#D8D8D8"/>
<path d="M39.2682 17.3047C40.7965 19.9519 40.9423 23.0179 39.9295 25.6665L47.0323 28.2607L47.1254 28.2053C50.0954 26.469 53.461 25.5008 56.9676 25.4138L56.9672 19.4812C56.9672 18.9289 57.4149 18.4812 57.9672 18.4812C58.5195 18.4812 58.9672 18.9289 58.9672 19.4812L58.9678 25.4599C69.1844 26.1873 77.3371 34.3797 78.002 44.6135L80.4974 44.6134C81.0497 44.6134 81.4974 45.0611 81.4974 45.6134C81.4974 46.1656 81.0497 46.6134 80.4974 46.6134L54.9903 46.6127L53.0413 51.9997L83.9491 51.9999C84.5013 51.9999 84.9491 52.4476 84.9491 52.9999C84.9491 53.5522 84.5013 53.9999 83.9491 53.9999H77.922V60.9989L86.524 60.9999C87.0762 60.9999 87.524 61.4476 87.524 61.9999C87.524 62.5522 87.0762 62.9999 86.524 62.9999L82.297 62.9989V85.5039L86.524 85.5046C87.0763 85.5046 87.524 85.9524 87.524 86.5047C87.524 87.0569 87.0762 87.5046 86.5239 87.5046L45.6468 87.5034C45.6305 87.5042 45.6141 87.5046 45.5975 87.5046L45.548 87.5009L31.0239 87.4999L30.9733 87.4967L15.594 87.4968C13.9267 87.4968 12.5751 86.1452 12.5751 84.4779V65.6222C12.5751 65.2015 12.6611 64.8008 12.8166 64.437L12.5103 64.3228L25.1781 30.1282C24.0689 29.3412 23.1075 28.3083 22.3829 27.0534C19.6909 22.3907 21.2885 16.4284 25.9512 13.7364C30.614 11.0444 36.5762 12.642 39.2682 17.3047ZM80.297 62.9989H70.632V85.5029L80.297 85.5039V62.9989ZM68.632 62.9989H58.967V85.5019L68.632 85.5029V62.9989ZM56.967 62.9989L49.0603 62.9997L46.5973 69.8067L46.597 85.5009L56.967 85.5019V62.9989ZM36.7833 73.7017V75.4017L37.8022 75.4022C38.3545 75.4022 38.8022 75.8499 38.8022 76.4022V80.44C38.8022 80.9923 38.3545 81.44 37.8022 81.44L36.7833 81.4397V85.4997L44.597 85.5009L44.5973 75.3357L44.1808 76.4872L36.7833 73.7017ZM34.7833 71.3454H14.5751V84.4779C14.5751 85.0406 15.0313 85.4968 15.594 85.4968H34.7833L34.7833 81.4397L33.7644 81.44C32.0971 81.44 30.7454 80.0884 30.7454 78.4211C30.7454 76.7538 32.0971 75.4022 33.7644 75.4022L34.7833 75.4017L34.7833 71.3454ZM36.8022 77.4022H33.7644C33.2016 77.4022 32.7454 77.8584 32.7454 78.4211C32.7454 78.9839 33.2016 79.44 33.7644 79.44H36.8022V77.4022ZM39.0204 27.4632C38.2076 28.7259 37.09 29.8191 35.6999 30.6217C32.9196 32.2269 29.6773 32.3069 26.9417 31.1213L15.2737 62.62C15.3789 62.6089 15.4858 62.6032 15.594 62.6032H35.7833C36.3356 62.6032 36.7833 63.051 36.7833 63.6032C36.7833 64.1555 36.3356 64.6032 35.7833 64.6032H15.594C15.0313 64.6032 14.5751 65.0594 14.5751 65.6222L14.5743 65.9997L35.7833 65.9999C36.3356 65.9999 36.7833 66.4476 36.7833 66.9999C36.7833 67.5522 36.3356 67.9999 35.7833 67.9999L14.5743 67.9997V69.3447L36.7833 69.3454L36.7833 71.5767L42.9894 73.9018L57.3663 34.1701L39.0204 27.4632ZM56.967 53.9999L52.3173 53.9997L49.7843 60.9997L56.967 60.9989V53.9999ZM67.174 53.9999H58.967V60.9989H67.174V53.9999ZM75.922 53.9999H69.174V60.9989H75.922V53.9999ZM57.4865 27.4073C54.7007 27.4073 52.0068 28.0215 49.5562 29.1817L59.9267 32.9721L55.7143 44.6127L75.9972 44.6137C75.3043 34.9953 67.2815 27.4073 57.4865 27.4073ZM26.9512 15.4685C23.2451 17.6082 21.9753 22.3472 24.115 26.0534C26.2547 29.7595 30.9938 31.0294 34.6999 28.8896C38.4061 26.7499 39.6759 22.0108 37.5361 18.3047C35.3964 14.5985 30.6574 13.3287 26.9512 15.4685ZM33.9111 19.0011L35.2493 20.4874L28.9255 26.1814L26.5002 23.4878L27.9865 22.1495L29.0736 23.3568L33.9111 19.0011Z" fill="#979797"/>
</svg>
