<svg width="150" height="150" viewBox="0 0 150 150" fill="none" xmlns="http://www.w3.org/2000/svg">
<rect width="150" height="150" fill="white"/>
<path fill-rule="evenodd" clip-rule="evenodd" d="M87.0987 43.1448C88.1804 54.8417 98.0207 63.9999 110 63.9999C116.117 63.9999 121.676 61.6123 125.796 57.7181L125.795 97.3205H80.3411L80.3415 88.4458C77.5912 88.4535 75.4542 89.0183 73.9305 90.1404L73.7065 90.3129C72.171 91.5496 71.2687 93.4353 70.9995 95.9699L70.9991 108.086L64.9378 108.158H37.141C34.1731 108.158 31.7681 105.753 31.7681 102.784L31.7671 57.8515L39.6066 65.7672C39.7757 65.938 39.9763 66.0688 40.1933 66.1574C40.1336 66.421 40.0952 66.6936 40.0797 66.9725L40.0719 67.2535V74.3758C40.0719 77.0645 42.1942 79.2576 44.855 79.3711L45.0719 79.3758H56.2229C58.9116 79.3758 61.1047 77.2534 61.2183 74.5926L61.2229 74.3758V67.2535C61.2229 64.5648 59.1006 62.3717 56.4398 62.2582L56.2229 62.2535H45.7201L65.0171 43.1445L87.0987 43.1448Z" fill="#E4F2D2"/>
<path fill-rule="evenodd" clip-rule="evenodd" d="M19.6917 43.0947C37.1216 25.8317 33.5352 29.3837 44.419 18.6044C45.1054 17.9248 45.9849 18.0832 47.0095 18.087L65.721 18.1758C66.7677 18.1914 67.5234 19.0352 67.5188 19.9932L67.4221 40.0168C67.4202 40.4932 67.2258 40.9517 66.8876 41.2915L42.1607 65.7794C41.4396 66.4922 40.2764 66.4435 39.6066 65.767L19.6816 45.6506C18.976 44.941 18.9826 43.795 19.6917 43.0947Z" stroke="#009639" stroke-width="2"/>
<path d="M56.2228 62.2539C58.9842 62.2539 61.2228 64.4925 61.2228 67.2539V74.3761C61.2228 77.1376 58.9842 79.3761 56.2228 79.3761H45.0718C42.4656 79.3761 40.3252 77.3822 40.0927 74.8367L40.0718 74.8366V66.7934L40.0927 66.7933C40.1125 66.5767 40.1461 66.364 40.1927 66.1562C40.8351 66.4201 41.6214 66.3129 42.1606 65.78L45.7208 62.2539H56.2228ZM45.6178 74.8359L42.1069 74.8368C42.3198 76.2182 43.4751 77.2887 44.8955 77.371L45.0718 77.3761L45.6178 77.3759V74.8359ZM52.6688 64.2529H47.6178V77.3759H52.6688V64.2529ZM59.2218 71.8149H54.6688V77.3759L56.2228 77.3761C57.8204 77.3761 59.1264 76.1272 59.2177 74.5524L59.2228 74.3761L59.2218 71.8149ZM45.6178 68.7929H42.0718V72.8359H45.6178V68.7929ZM54.6688 64.2529V69.8149H59.2218L59.2228 67.2539C59.2228 65.6562 57.9738 64.3502 56.399 64.259L56.2228 64.2539L54.6688 64.2529ZM45.6178 64.2529L45.0718 64.2539C43.5717 64.2539 42.3287 65.3549 42.107 66.7929L45.6178 66.7929V64.2529Z" fill="#009639"/>
<path d="M30.7671 56.8426L32.7671 58.8616L32.7681 102.784C32.7681 105.129 34.6118 107.042 36.9291 107.153L37.141 107.158H64.926L70.9991 107.086V109.086L64.9378 109.158H37.141C33.6972 109.158 30.8924 106.428 30.7721 103.013L30.7681 102.784L30.7671 56.8426ZM126.795 56.7136L126.795 102.44C126.795 103.527 126.506 104.549 126 105.433L126 97.3208L124.795 97.3205L124.796 58.6101C125.499 58.0181 126.167 57.3847 126.795 56.7136ZM87.028 42.1445C87.0611 42.8196 87.1233 43.4871 87.2133 44.1456L64.0071 44.1446L66.0271 42.1446L87.028 42.1445ZM133.022 106.354V132.98H79.0329L79.0325 126.559C79.1145 126.561 79.1968 126.562 79.2794 126.562L81.0315 126.562L81.032 130.98H131.021V108.353L126 108.353V106.353L133.022 106.354ZM80.0235 106.353L80.0237 110.874L79.0325 110.874L79.0329 106.354L80.0235 106.353Z" fill="#009639"/>
<path fill-rule="evenodd" clip-rule="evenodd" d="M84.4297 111.69C84.4297 115.555 87.5632 118.688 91.4283 118.688C95.2933 118.688 98.4268 115.555 98.4268 111.69C98.4268 107.825 95.2933 104.691 91.4283 104.691C87.5632 104.691 84.4297 107.825 84.4297 111.69Z" stroke="#009639" stroke-width="2"/>
<path d="M115.834 104.705C115.282 104.705 114.834 105.153 114.834 105.705C114.834 106.218 115.22 106.641 115.718 106.698L115.834 106.705H121.439C121.991 106.705 122.439 106.257 122.439 105.705C122.439 105.192 122.053 104.77 121.556 104.712L121.439 104.705H115.834ZM115.834 120.705C115.282 120.705 114.834 121.153 114.834 121.705C114.834 122.218 115.22 122.641 115.718 122.698L115.834 122.705H121.439C121.991 122.705 122.439 122.257 122.439 121.705C122.439 121.192 122.053 120.77 121.556 120.712L121.439 120.705H115.834Z" fill="#009639"/>
<path d="M80.798 87.4355L79.7751 87.459C79.4379 87.4667 78.8837 87.5181 78.1819 87.6485C77.0178 87.8647 75.8523 88.2331 74.7553 88.7941C71.5674 90.4246 69.6233 93.3185 69.6233 97.6335C69.6233 99.2265 69.6302 100.966 69.6433 102.829C69.6621 105.514 69.6931 108.375 69.7329 111.302C69.7569 113.064 69.7826 114.742 69.8083 116.28C69.8173 116.818 69.8256 117.301 69.8331 117.72C69.8406 118.132 69.8408 118.146 69.8424 118.229C69.8452 122.604 71.7633 125.411 74.91 126.826C75.8973 127.27 76.9434 127.546 77.999 127.689C78.6965 127.783 79.2999 127.808 79.7608 127.794C79.8309 127.791 79.8309 127.791 79.798 127.792H126.798V97.3158H80.798V87.4355ZM71.7328 111.274C71.693 108.352 71.662 105.495 71.6432 102.815C71.6302 100.956 71.6233 99.2215 71.6233 97.6335C71.6233 94.1045 73.1197 91.8771 75.666 90.5747C76.5761 90.1093 77.5609 89.7981 78.5471 89.6148C78.6324 89.599 78.7161 89.5844 78.798 89.5711V109.366C77.58 109.346 76.2615 109.513 74.9797 109.977C73.6793 110.448 72.585 111.174 71.7451 112.166C71.741 111.872 71.7368 111.574 71.7328 111.274ZM124.798 99.3158V125.792L79.7404 125.793C79.7419 125.793 79.7419 125.793 79.7 125.795C79.343 125.806 78.8477 125.785 78.2671 125.707C77.3907 125.588 76.5278 125.361 75.7304 125.002C73.2821 123.901 71.8424 121.792 71.8424 118.219C71.8424 114.671 73.2519 112.73 75.6607 111.858C76.9068 111.407 78.2492 111.302 79.4085 111.397C79.5348 111.407 79.6189 111.417 79.6543 111.422L80.798 111.588V99.3158H124.798Z" fill="#009639"/>
<path d="M110 64C122.703 64 133 53.7025 133 41C133 28.2975 122.703 18 110 18C97.2975 18 87 28.2975 87 41C87 53.7025 97.2975 64 110 64Z" stroke="#009639" stroke-width="2"/>
<path d="M104.45 29.3643H96.314L98.992 36.1063H111.279L104.45 29.3643Z" fill="#009639" stroke="#009639" stroke-width="2"/>
<path d="M101.423 34.9841C102.559 34.9841 103.48 34.0632 103.48 32.9271C103.48 31.7911 102.559 30.8701 101.423 30.8701C100.287 30.8701 99.366 31.7911 99.366 32.9271C99.366 34.0632 100.287 34.9841 101.423 34.9841Z" fill="white"/>
<path d="M98.3999 37.3418L106.782 42.6898L103.345 49.5488L98.3999 37.3418Z" fill="#009639"/>
<path d="M103.821 49.6481L118.684 42.0571L114.894 38.3321L98.6389 37.2041L103.634 38.6181L112.832 41.2221L103.821 49.6481Z" fill="#009639"/>
<path d="M103.854 50.1344L119.995 43.6934L126.23 49.8314L103.854 50.1344Z" fill="#009639"/>
<path d="M58.746 23.5938C60.5282 23.5938 61.9729 25.0385 61.9729 26.8206C61.9729 28.6028 60.5282 30.0475 58.746 30.0475C56.9638 30.0475 55.5191 28.6028 55.5191 26.8206C55.5191 25.0385 56.9638 23.5938 58.746 23.5938ZM58.746 25.5938C58.0684 25.5938 57.5191 26.1431 57.5191 26.8206C57.5191 27.4982 58.0684 28.0475 58.746 28.0475C59.4236 28.0475 59.9729 27.4982 59.9729 26.8206C59.9729 26.1431 59.4236 25.5938 58.746 25.5938Z" fill="#009639"/>
<path d="M46.273 37.911L52.1186 38.0365L52.2622 38.0457C53.6695 38.1952 54.1901 40.0457 53.0632 40.9436L48.37 44.671L50.079 50.5893L50.1116 50.7207C50.4014 52.1155 48.8432 53.2599 47.6284 52.3716L42.838 48.879L38.0453 52.3725L37.9303 52.4498C36.6945 53.2114 35.1888 51.9975 35.596 50.5891L37.307 44.671L32.6137 40.9447L32.5063 40.8517C31.4871 39.8924 32.0912 38.0697 33.5555 38.0366L39.404 37.911L41.3313 32.1014C41.8185 30.6342 43.8555 30.6316 44.3437 32.1011L46.273 37.911ZM44.8185 39.8815L42.838 33.912L40.857 39.8815L34.658 40.013L39.6004 43.9388L37.834 50.052L42.8379 46.4047L47.843 50.052L46.0761 43.9387L51.019 40.013L44.8185 39.8815Z" fill="#009639"/>
</svg>
