<svg width="100" height="100" viewBox="0 0 100 100" fill="none" xmlns="http://www.w3.org/2000/svg">
<rect width="100" height="100" fill="white"/>
<path fill-rule="evenodd" clip-rule="evenodd" d="M53.851 71.9834V72.9589C53.851 73.729 53.2252 74.3532 52.4552 74.3532H47.2907C46.5206 74.3532 45.8948 73.729 45.8948 72.9589V71.9834H12.9561V75.8384C12.9561 77.2574 14.1063 78.4063 15.5237 78.4063H84.2186C85.6376 78.4063 86.7878 77.2574 86.7878 75.8384V71.9834H53.851Z" fill="#E4F2D2"/>
<path d="M79.6049 34.5619L75.8929 36.5139L76.6019 32.3799L73.5989 29.4529L77.7489 28.8499L79.6049 25.0889L81.4609 28.8499L85.6119 29.4529L82.6089 32.3799L83.3179 36.5139L79.6049 34.5619Z" fill="white"/>
<path d="M49.6051 66.9314C54.8374 66.9314 59.0791 62.6897 59.0791 57.4574C59.0791 52.2251 54.8374 47.9834 49.6051 47.9834C44.3728 47.9834 40.1311 52.2251 40.1311 57.4574C40.1311 62.6897 44.3728 66.9314 49.6051 66.9314Z" fill="white"/>
<path d="M54.5644 21L77.4708 27.153L79.6053 22.829L82.1255 27.9356L87.7609 28.7544L83.6831 32.7293L84.6457 38.342L81.9248 36.911L80.645 41.671L81.3938 39.003L81.394 70.451L87 70.4517V75.3067C87 77.2754 85.4176 78.8747 83.4597 78.8747H15.5387C13.582 78.8747 12 77.2751 12 75.3067V70.4517L17.815 70.451L17.8158 35.37C17.8158 33.5386 19.3078 32.057 21.1452 32.057L51.6 32.056L54.5644 21ZM44.5678 72.4517H14V75.3067C14 76.1754 14.6916 76.8747 15.5387 76.8747H83.4597C84.3083 76.8747 85 76.1756 85 75.3067V72.4517H54.4342C54.4211 73.7604 53.3621 74.8216 52.0541 74.8216H46.9478C45.6398 74.8216 44.5808 73.7604 44.5678 72.4517ZM51.064 34.056L21.1452 34.057C20.4093 34.057 19.8158 34.6463 19.8158 35.37L19.815 70.451L46.5676 70.4517V72.4273C46.5676 72.6469 46.7406 72.8216 46.9478 72.8216H52.0541C52.2613 72.8216 52.4343 72.6469 52.4343 72.4273V70.4517L79.394 70.451L79.393 46.331L73.5652 68.0253L57.909 63.8411C55.9941 66.3281 52.9868 67.9307 49.6053 67.9307C43.8208 67.9307 39.1316 63.2414 39.1316 57.457C39.1316 52.3779 42.7469 48.1432 47.5445 47.186L51.064 34.056ZM49.6053 48.9833C44.9254 48.9833 41.1316 52.7771 41.1316 57.457C41.1316 62.1369 44.9254 65.9307 49.6053 65.9307C54.2851 65.9307 58.0789 62.1369 58.0789 57.457C58.0789 52.7771 54.2851 48.9833 49.6053 48.9833ZM55.9781 23.4507L49.6686 46.984L49.8888 46.9871C55.5422 47.1373 60.0789 51.7674 60.0789 57.457C60.0789 59.1103 59.6959 60.6742 59.0136 62.0646L72.152 65.5774L80.1098 35.958L79.6053 35.692L74.5648 38.342L75.5274 32.7293L71.4496 28.7544L74.2218 28.351L55.9781 23.4507ZM53.6916 52.7659L55.1059 54.1802L46.6628 62.6232L43.8344 59.7948L45.2486 58.3805L46.6628 59.7948L53.6916 52.7659ZM65.4101 51.9569L73.7045 54.1794L73.1869 56.1113L64.8925 53.8888L65.4101 51.9569ZM53.218 43.6412L74.8717 49.8503L74.3204 51.7728L52.6667 45.5637L53.218 43.6412ZM79.6053 27.3481L78.4132 29.7636L75.7476 30.1509L77.6764 32.0311L77.2211 34.6859L79.6053 33.4325L81.9895 34.6859L81.5341 32.0311L83.463 30.1509L80.7974 29.7636L79.6053 27.3481Z" fill="#009639"/>
<path d="M55.734 30.6152H57.5V32.3812H55.734V30.6152Z" fill="#009639"/>
<path fill-rule="evenodd" clip-rule="evenodd" d="M62.2507 34.4831L62.1309 35.5989L61.0878 35.1849L60.5507 36.1704L59.7456 35.3884L58.8733 36.093L58.4288 35.0629L57.3519 35.3797L57.3352 34.258L56.2194 34.1393L56.6344 33.0961L55.6489 32.5589L56.4299 31.754L55.7262 30.8806L56.7554 30.4361L56.4386 29.3592L57.5613 29.3435L57.68 28.2277L58.7231 28.6417L59.2603 27.6562L60.0653 28.4382L60.9376 27.7335L61.3822 28.7637L62.4591 28.4469L62.4758 29.5686L63.5915 29.6873L63.1766 30.7305L64.163 31.2676L63.3811 32.0726L64.0858 32.9459L63.0556 33.3905L63.3723 34.4663L62.2507 34.4831Z" fill="#E4F2D2"/>
<path d="M59.1359 26.8389L60.0956 27.7707L61.1365 26.931L61.6663 28.1587L62.9495 27.7807L62.969 29.1183L64.2991 29.2604L63.8053 30.5034L64.98 31.1436L64.048 32.1032L64.8878 33.1439L63.6601 33.6739L64.0381 34.9571L62.7004 34.9766L62.5583 36.3064L61.3154 35.8129L60.6752 36.9874L59.7155 36.0557L58.675 36.8954L58.1449 35.6676L56.862 36.0454L56.8421 34.7081L55.5123 34.566L56.0059 33.3229L54.8313 32.6828L55.7633 31.7232L54.9236 30.6825L56.1511 30.1525L55.7734 28.8695L57.1108 28.8496L57.2527 27.5198L58.4959 28.0135L59.1359 26.8389ZM59.384 28.4736L58.9501 29.2699L58.1074 28.9352L58.0112 29.8364L57.1044 29.8498L57.3605 30.7196L56.5283 31.0789L57.0976 31.7846L56.4661 32.4348L57.2622 32.8687L56.9276 33.7115L57.8288 33.8078L57.8423 34.7143L58.712 34.4582L59.0713 35.2905L59.7767 34.7213L60.4272 35.3529L60.8612 34.5566L61.7039 34.8912L61.8002 33.9897L62.7067 33.9764L62.4506 33.1069L63.2829 32.7476L62.7135 32.0419L63.3452 31.3915L62.5489 30.9575L62.8836 30.1149L61.9821 30.0185L61.9688 29.1121L61.0991 29.3683L60.7399 28.5358L60.0344 29.105L59.384 28.4736Z" fill="#009639"/>
</svg>
