<svg width="150" height="150" viewBox="0 0 150 150" fill="none" xmlns="http://www.w3.org/2000/svg">
<rect width="150" height="150" fill="white"/>
<path fill-rule="evenodd" clip-rule="evenodd" d="M92.0171 59.9951H34.6937C26.5799 59.9951 19.5386 66.5269 19.5386 74.5845V98.6255C19.5386 106.683 26.5799 113.276 34.6937 113.276H38.9136V127.558C38.9136 130.7 42.0756 132.364 44.3952 130.227L62.2178 113.276H92.0171C100.131 113.276 106.726 106.683 106.726 98.6255V74.5845C106.726 66.5269 100.131 59.9951 92.0171 59.9951Z" fill="#E4F2D2"/>
<circle cx="116.5" cy="30.5" r="16.5" fill="#E4F2D2"/>
<path fill-rule="evenodd" clip-rule="evenodd" d="M127.564 44.0592C124.549 46.5225 120.697 48 116.5 48C109.047 48 102.682 43.3407 100.159 36.776H67.0667C60.0553 36.776 54.6854 42.0706 54 49.2523V56H52L52.0045 49.1579C52.7885 40.888 58.9874 34.776 67.0667 34.776H99.5262C99.1825 33.4076 99 31.9751 99 30.5C99 20.835 106.835 13 116.5 13C126.165 13 134 20.835 134 30.5C134 35.2344 132.12 39.5297 129.066 42.68C130.581 45.0937 131.401 47.8327 131.401 50.6696V69.4362C131.401 77.4749 125.016 84.3098 116.949 85.2213L116.837 85.2276H111V83.2276H116.779C123.828 82.4035 129.401 76.4194 129.401 69.4362V50.6696C129.401 48.3392 128.76 46.0811 127.564 44.0592ZM38.375 114.281V127.563C38.375 131.585 42.5772 133.692 45.5342 130.967L63.0788 114.281H92.4785C101.135 114.281 108.188 107.249 108.188 98.6304V74.5894C108.188 65.981 101.146 59 92.4785 59H35.1551C26.4114 59 19 66.0523 19 74.5894V98.6304C19 107.177 26.4224 114.281 35.1551 114.281H38.375ZM21 74.5894C21 67.1797 27.4943 61 35.1551 61H92.4785C100.045 61 106.188 67.0894 106.188 74.5894V98.6304C106.188 106.143 100.032 112.281 92.4785 112.281H62.2796L44.1675 129.507C42.5523 130.995 40.375 129.904 40.375 127.563V112.281H35.1551C27.5078 112.281 21 106.053 21 98.6304V74.5894ZM132 30.5C132 39.0604 125.06 46 116.5 46C107.94 46 101 39.0604 101 30.5C101 21.9396 107.94 15 116.5 15C125.06 15 132 21.9396 132 30.5ZM43.5 77V75H75.5V77H43.5ZM43.5 84V86H80.5V84H43.5ZM43.5 96V94H64.9278V96H43.5ZM113.246 33.8045L110.032 29.9743L108.5 31.2598L113 36.6222L125.636 26.0187L124.351 24.4866L113.246 33.8045Z" fill="#009639"/>
</svg>
