<svg width="150" height="150" viewBox="0 0 150 150" fill="none" xmlns="http://www.w3.org/2000/svg">
<rect width="150" height="150" fill="white"/>
<path fill-rule="evenodd" clip-rule="evenodd" d="M80.25 55.6441H72.75L87.75 29.5L104.715 55.6441H95.25V79.2766H80.25V55.6441Z" fill="#339C63"/>
<circle cx="41.375" cy="108.875" r="20.625" fill="#339C63"/>
<path fill-rule="evenodd" clip-rule="evenodd" d="M87.6975 27.582L106.556 56.6441L96.25 56.644V80.2767H89.25V83.5V85.5V94.75H126.75V106V108V117.25V119.25V128.5H131.25C131.802 128.5 132.25 128.948 132.25 129.5C132.25 130.013 131.864 130.436 131.367 130.493L131.25 130.5H126.75H125.75H89.25H87.25H51.25H49.75H41.625H27.75C27.1977 130.5 26.75 130.052 26.75 129.5C26.75 128.987 27.136 128.564 27.6334 128.507L27.75 128.5H32.5297C25.1308 125.065 20 117.569 20 108.875C20 96.9318 29.6818 87.25 41.625 87.25C44.4987 87.25 47.2415 87.8105 49.75 88.8283V85.5V83.5V74.25V72.25V61H79.25V56.644L71.0234 56.6441L87.6975 27.582ZM41.625 128.5C52.4636 128.5 61.25 119.714 61.25 108.875C61.25 98.0364 52.4636 89.25 41.625 89.25C30.7864 89.25 22 98.0364 22 108.875C22 119.714 30.7864 128.5 41.625 128.5ZM124.75 119.25H89.25V128.5H124.75V119.25ZM87.25 117.25V108H63.2326C63.2442 108.29 63.25 108.582 63.25 108.875C63.25 111.844 62.6515 114.674 61.5685 117.25H87.25ZM89.25 106H124.75V96.75H89.25V106ZM87.25 106H63.0606C62.6095 102.605 61.3706 99.458 59.5336 96.75H87.25V106ZM124.75 117.25V108H89.25V117.25H124.75ZM51.75 127.988C55.4866 126.005 58.5723 122.957 60.6033 119.25H87.25V128.5H51.75V127.988ZM51.75 83.5H87.25V80.2767H79.25V74.25H51.75V83.5ZM51.75 85.5V89.7619C54.133 91.0269 56.2512 92.7245 58 94.75H87.25V85.5H51.75ZM79.25 63V72.25H51.75V63H79.25ZM102.873 54.644L87.802 31.417L74.476 54.644L81.25 54.6441V78.276H94.25V54.6441L102.873 54.644ZM38.576 109.896V116.375H36.09V100.975H42.426C45.968 100.975 47.882 102.559 47.882 105.43C47.882 108.048 45.88 109.786 42.745 109.896L47.816 116.375H44.736L39.83 109.896H38.576ZM38.576 107.641H42.36C44.362 107.641 45.297 106.915 45.297 105.43C45.297 103.967 44.307 103.307 42.36 103.307H38.576V107.641ZM138.392 128.5C138.944 128.5 139.392 128.948 139.392 129.5C139.392 130.013 139.006 130.436 138.508 130.493L138.392 130.5H135.75C135.198 130.5 134.75 130.052 134.75 129.5C134.75 128.987 135.136 128.564 135.633 128.507L135.75 128.5H138.392ZM24.6417 129.5C24.6417 128.948 24.194 128.5 23.6417 128.5H21L20.8834 128.507C20.386 128.564 20 128.987 20 129.5C20 130.052 20.4477 130.5 21 130.5H23.6417L23.7583 130.493C24.2556 130.436 24.6417 130.013 24.6417 129.5Z" fill="white"/>
<path fill-rule="evenodd" clip-rule="evenodd" d="M27 56.5C27 52.9101 29.9101 50 33.5 50C37.0899 50 40 52.9101 40 56.5C40 60.0899 37.0899 63 33.5 63C29.9101 63 27 60.0899 27 56.5ZM38 56.5C38 54.0147 35.9853 52 33.5 52C31.0147 52 29 54.0147 29 56.5C29 58.9853 31.0147 61 33.5 61C35.9853 61 38 58.9853 38 56.5Z" fill="#99D5B0"/>
<path fill-rule="evenodd" clip-rule="evenodd" d="M117 71.5C117 69.0147 119.015 67 121.5 67C123.985 67 126 69.0147 126 71.5C126 73.9853 123.985 76 121.5 76C119.015 76 117 73.9853 117 71.5ZM124 71.5C124 70.1193 122.881 69 121.5 69C120.119 69 119 70.1193 119 71.5C119 72.8807 120.119 74 121.5 74C122.881 74 124 72.8807 124 71.5Z" fill="#CCEAD8"/>
<path fill-rule="evenodd" clip-rule="evenodd" d="M118.96 29.8834C118.902 29.386 118.48 29 117.967 29C117.415 29 116.967 29.4477 116.967 30V33.9669H113L112.883 33.9736C112.386 34.0313 112 34.454 112 34.9669C112 35.5191 112.448 35.9669 113 35.9669H116.967V39.9337L116.974 40.0503C117.031 40.5477 117.454 40.9337 117.967 40.9337C118.519 40.9337 118.967 40.486 118.967 39.9337V35.9669H122.934L123.05 35.9601C123.548 35.9024 123.934 35.4797 123.934 34.9669C123.934 34.4146 123.486 33.9669 122.934 33.9669H118.967V30L118.96 29.8834Z" fill="#CCEAD8"/>
<path fill-rule="evenodd" clip-rule="evenodd" d="M59.4338 26.6134C58.6992 23.3986 55.822 21 52.3846 21C48.9735 21 46.114 23.362 45.3527 26.5398C42.9389 26.5976 41 28.5724 41 31H43C43 29.6405 44.1021 28.5385 45.4615 28.5385C46.821 28.5385 47.9231 29.6405 47.9231 31H49.9231C49.9231 29.197 48.8535 27.6437 47.3143 26.9401C47.889 24.6754 49.9411 23 52.3846 23C55.2735 23 57.6154 25.3419 57.6154 28.2308H58.6154V28.5385C59.9749 28.5385 61.0769 29.6405 61.0769 31H63.0769C63.0769 28.8155 61.507 26.9977 59.4338 26.6134Z" fill="#B2E0C4"/>
</svg>
