<svg width="100" height="100" viewBox="0 0 100 100" fill="none" xmlns="http://www.w3.org/2000/svg">
<rect width="100" height="100" fill="white"/>
<path fill-rule="evenodd" clip-rule="evenodd" d="M66.3166 63.4377C61.5748 61.2448 57.7628 59.0596 57.2921 57.4919V54.9664C58.8993 53.2579 60.167 50.8751 60.9174 48.0854C62.72 46.7701 63.1682 44.059 61.6761 42.1518V36.4983C61.6761 30.6621 58.5486 26.667 51.3984 26.667C44.4327 26.667 41.1169 30.6621 41.1169 36.4983V42.1536C39.6282 44.0579 40.0754 46.7673 41.8757 48.0841C42.6258 50.8749 43.8945 53.2577 45.5028 54.9662V57.4916C44.7819 59.8961 36.1787 63.7605 28.4308 66.8735C27.7705 67.1398 27.3335 67.8072 27.3335 68.5535V71.214" fill="url(#paint0_linear)" fill-opacity="0.3"/>
<path d="M47.315 7.48742C48.6928 5.5042 51.8857 5.5042 53.2639 7.48738C60.2816 17.5877 68.8136 21.7456 77.7989 21.7456C79.175 21.7456 80.4421 21.6372 81.5693 21.4569C81.8638 21.4098 82.1323 21.3603 82.373 21.3103L82.9486 21.176C85.2168 20.531 87.4582 22.1747 87.5746 24.4673L87.5793 24.6545V49.3419C87.5793 53.344 87.1136 57.1335 86.2104 60.7144L86.024 61.4278L84.0934 60.9054C85.0072 57.5278 85.5097 53.9477 85.5726 50.1574L85.5793 49.3419V24.6545C85.5793 23.5892 84.5444 22.8015 83.5009 23.0982C83.3349 23.1464 83.148 23.1947 82.9415 23.242L82.5027 23.3349C82.3481 23.3652 82.1851 23.3948 82.0143 23.4232L81.4786 23.5047C80.4548 23.647 79.2053 23.7456 77.7989 23.7456C68.1784 23.7456 59.0256 19.2851 51.6215 8.62867C51.039 7.79045 49.5397 7.79045 48.9575 8.62856C44.1735 15.514 38.1529 20.0627 31.5965 22.3326C26.2451 24.1852 20.7971 24.3598 17.0823 23.0999C16.0908 22.8052 15.0873 23.507 15.0054 24.5209L15 24.6549V49.3419C15 64.092 21.4596 75.3841 32.2762 83.717C36.0883 86.6538 40.1851 89.0089 44.2922 90.8343C45.7385 91.4772 47.0853 92.0082 48.2979 92.4342L49.0877 92.7032L49.5417 92.8483L49.7704 92.9171C49.8033 92.9267 49.8335 92.9353 49.861 92.943C49.9999 92.9808 50.1434 93 50.2879 93C50.4322 93 50.5762 92.9808 50.7114 92.944L50.9144 92.8851L51.5069 92.6975L52.3111 92.423L52.54 92.3417C53.9505 91.8365 55.5056 91.2044 57.1607 90.437C61.6128 88.3728 65.9547 85.7281 69.8882 82.4467L70.5399 81.8939L71.8461 83.4084C67.5914 87.0778 62.8594 89.9993 58.002 92.2515C56.2904 93.0451 54.6798 93.6997 53.2144 94.2245L52.7415 94.3912L52.1171 94.6021L51.6108 94.7636L51.3479 94.8423C51.3094 94.8534 51.2737 94.8635 51.2409 94.8726C50.9303 94.9572 50.6095 95 50.2879 95C49.9661 95 49.6456 94.9573 49.329 94.8709L48.9685 94.7643L48.4753 94.6071L47.635 94.3212C46.3733 93.8779 44.9768 93.3272 43.4799 92.6619C39.2357 90.7755 35.0029 88.3424 31.0556 85.3014C19.9252 76.7267 13.1768 65.0711 13.0034 49.941L13 49.3419V24.6549C13 22.2297 15.3378 20.4949 17.6882 21.1943C20.9978 22.3161 25.9931 22.156 30.9422 20.4426C37.0992 18.3111 42.7734 14.0241 47.315 7.48742Z" fill="#009639"/>
<path d="M77.333 84.666C84.6966 84.666 90.666 78.6966 90.666 71.333C90.666 63.9694 84.6966 58 77.333 58C69.9694 58 64 63.9694 64 71.333C64 78.6966 69.9694 84.666 77.333 84.666Z" fill="#E4F2D2"/>
<path d="M51.3984 25.667C58.6185 25.667 62.5501 29.604 62.6731 36.1781L62.6761 36.4983L62.6752 41.8283L62.7375 41.9198C64.134 44.0786 63.7355 46.9557 61.8634 48.6069L61.7922 48.6653L61.7543 48.8036C61.0432 51.2312 59.9459 53.3721 58.5554 55.0461L58.2912 55.3543V57.2703L58.3277 57.3141C58.3593 57.3492 58.3999 57.3904 58.4491 57.4372L58.6217 57.5935L58.8423 57.7794C58.8829 57.8127 58.9254 57.847 58.9696 57.8824L59.256 58.1058L59.5822 58.3497L59.945 58.6104L60.3411 58.8841L60.8611 59.229L61.5515 59.6696C62.1565 60.0486 62.7954 60.4322 63.4429 60.8087L64.3158 61.3094L65.2445 61.8259L64.2924 63.5847L63.9622 63.4034L63.1023 62.9203C62.2126 62.4134 61.3227 61.8862 60.4897 61.3644C60.2406 61.2084 60.0001 61.0549 59.7689 60.9044L59.4292 60.6809C57.6892 59.5229 56.6848 58.6884 56.3771 57.9031L56.3343 57.7795L56.2921 57.6388V54.57L56.5637 54.2812C57.9744 52.7816 59.1066 50.7069 59.8224 48.284L59.9517 47.8256L60.0432 47.4853L60.3279 47.2776C61.6633 46.3032 61.9804 44.3387 61.0025 42.923L60.8885 42.768L60.6761 42.4965V36.4983C60.6761 30.8229 57.6163 27.667 51.3984 27.667C45.4043 27.667 42.2314 30.7846 42.12 36.2006L42.1169 36.4983V42.4981L41.9048 42.7695C40.8331 44.1403 41.064 46.118 42.322 47.1646L42.466 47.277L42.7501 47.4847L42.8414 47.8245C43.5041 50.2902 44.5929 52.4218 45.9695 53.9928L46.2309 54.2807L46.5028 54.5695V57.6383L46.4606 57.7788C46.1947 58.6659 45.2803 59.6257 43.7423 60.6843L43.3074 60.9754L42.8416 61.2716C42.7615 61.3214 42.68 61.3714 42.5973 61.4216L42.0855 61.7255C41.9977 61.7766 41.9086 61.8279 41.8182 61.8795L41.2607 62.1914C41.1652 62.2439 41.0685 62.2965 40.9705 62.3494L40.3675 62.6696L39.7343 62.9955L39.071 63.3272L38.3777 63.6647L37.2818 64.1824L36.1191 64.714C35.9862 64.7738 35.8521 64.8339 35.7167 64.8943L34.4655 65.4451L33.5947 65.8205L32.2337 66.3963L30.8075 66.9876L29.3163 67.5949C29.147 67.6633 28.9765 67.7319 28.8048 67.8009C28.5586 67.9002 28.3777 68.1462 28.3405 68.4409L28.3335 68.5535V71.214H26.3335V68.5535C26.3335 67.4057 27.0121 66.3674 28.058 65.9456L29.444 65.3836L30.7804 64.8315L32.0656 64.29L33.2979 63.7596L34.0893 63.4126L35.2298 62.9025L36.3131 62.4054L37.0026 62.0816L37.9868 61.6078L38.9093 61.1489L39.4893 60.8516L40.0406 60.5614L40.5629 60.2785L41.0555 60.0031C41.1351 59.9579 41.2135 59.913 41.2906 59.8684L41.7379 59.6047L42.1545 59.3491C42.2213 59.3072 42.2868 59.2656 42.351 59.2244L42.7205 58.9812C42.7794 58.9414 42.837 58.9019 42.8932 58.8628L43.2144 58.6325C43.2652 58.5949 43.3147 58.5576 43.3627 58.5207L43.6346 58.3038C44.06 57.9499 44.3458 57.6341 44.482 57.3608L44.5022 57.3133V55.3533L44.2391 55.0459C42.8474 53.3715 41.7494 51.2302 41.0387 48.8022L40.9992 48.6633L40.9293 48.6048C39.0602 46.9527 38.6621 44.0779 40.0559 41.9214L40.1162 41.8313L40.1169 36.4983C40.1169 29.9081 44.0552 25.7989 51.0572 25.6701L51.3984 25.667Z" fill="#009639"/>
<path d="M75.0764 85.294C78.5183 85.909 81.9892 85.1945 84.8706 83.3554L85.1771 83.1541L84.0569 81.4972C81.5441 83.1961 78.4752 83.8696 75.4282 83.3252C69.0546 82.186 64.8114 76.0959 65.9506 69.7225C67.0898 63.349 73.18 59.1055 79.5535 60.2448C85.7108 61.3451 89.8555 66.9966 89.1174 73.11L84.5302 68.2686L83.0783 69.644L89.8812 76.8256L97.1784 69.9128L95.803 68.4608L91.1529 72.8654C91.748 65.8924 86.9481 59.5345 79.9053 58.276C72.4445 56.9424 65.3154 61.9098 63.9818 69.3706C62.6483 76.8313 67.6153 83.9604 75.0764 85.294Z" fill="#009639"/>
<path d="M77.7274 74.994C78.5734 74.994 79.2304 75.642 79.2304 76.488C79.2304 77.334 78.5734 78 77.7274 78C76.8814 78 76.2334 77.334 76.2334 76.488C76.2334 75.642 76.8814 74.994 77.7274 74.994ZM78.9154 64.914V73.635H76.5664V64.914H78.9154Z" fill="#009639"/>
<defs>
<linearGradient id="paint0_linear" x1="46.825" y1="26.667" x2="46.825" y2="71.214" gradientUnits="userSpaceOnUse">
<stop stop-color="#78BE20" stop-opacity="0.953521"/>
<stop offset="0.72104" stop-color="white" stop-opacity="0.4"/>
<stop offset="0.85275" stop-color="white" stop-opacity="0"/>
<stop offset="1" stop-color="white" stop-opacity="0"/>
</linearGradient>
</defs>
</svg>
