<svg width="150" height="150" viewBox="0 0 150 150" fill="none" xmlns="http://www.w3.org/2000/svg">
<rect width="150" height="150" fill="white"/>
<path d="M115.618 46.426C124.572 46.426 131.831 39.1672 131.831 30.213C131.831 21.2588 124.572 14 115.618 14C106.664 14 99.405 21.2588 99.405 30.213C99.405 39.1672 106.664 46.426 115.618 46.426Z" fill="#E4F2D2"/>
<path d="M115.5 13C124.889 13 132.5 20.6112 132.5 30C132.5 37.8311 127.205 44.4255 120 46.3981L120 131H34L33.9991 121.498L33.9403 121.508L17.7571 29.7285L33.9991 26.864L34 19L102.538 19.0006C105.656 15.3294 110.306 13 115.5 13ZM101.075 21.0003L36 21V129H118L118 46.8175C117.184 46.9377 116.349 47 115.5 47C106.111 47 98.5 39.3888 98.5 30C98.5 26.695 99.4431 23.6103 101.075 21.0003ZM64 95V112H47V95H64ZM33.9991 28.895L20.074 31.3508L33.9991 110.328V28.895ZM62 97H49V110H62V97ZM96 106V108H72.86V106H96ZM102.527 98.8742V100.874H72.86V98.8742H102.527ZM64 73V90H47V73H64ZM62 75H49V88H62V75ZM106 84V86H72.86V84H106ZM96 76.8742V78.8742H72.86V76.8742H96ZM64 51V68H47V51H64ZM62 53H49V66H62V53ZM98 62V64H72.86V62H98ZM102.527 54.8742V56.8742H72.86V54.8742H102.527ZM115.5 15C107.216 15 100.5 21.7157 100.5 30C100.5 38.2843 107.216 45 115.5 45C123.784 45 130.5 38.2843 130.5 30C130.5 21.7157 123.784 15 115.5 15ZM109 28C110.105 28 111 28.8954 111 30C111 31.1046 110.105 32 109 32C107.895 32 107 31.1046 107 30C107 28.8954 107.895 28 109 28ZM116 28C117.105 28 118 28.8954 118 30C118 31.1046 117.105 32 116 32C114.895 32 114 31.1046 114 30C114 28.8954 114.895 28 116 28ZM123 28C124.105 28 125 28.8954 125 30C125 31.1046 124.105 32 123 32C121.895 32 121 31.1046 121 30C121 28.8954 121.895 28 123 28Z" fill="#009639"/>
</svg>
