<svg width="100" height="100" viewBox="0 0 100 100" fill="none" xmlns="http://www.w3.org/2000/svg">
<rect width="100" height="100" fill="white"/>
<path d="M33.795 66.2051H17V83.0001H33.795V66.2051Z" fill="#D8D8D8"/>
<path d="M58.9869 49.4111H42.1919V83.0001H58.9869V49.4111Z" fill="#D8D8D8"/>
<path d="M84.1788 32.6162H67.3838V83.0002H84.1788V32.6162Z" fill="#D8D8D8"/>
<path d="M87.75 12C88.3023 12 88.75 12.4477 88.75 13L88.749 15H90.75C91.2628 15 91.6855 15.386 91.7433 15.8834L91.75 16C91.75 16.5523 91.3023 17 90.75 17H88.749L88.75 19C88.75 19.5128 88.364 19.9355 87.8666 19.9933L87.75 20C87.1977 20 86.75 19.5523 86.75 19L86.749 17H84.75C84.2372 17 83.8145 16.614 83.7567 16.1166L83.75 16C83.75 15.4477 84.1977 15 84.75 15H86.749L86.75 13C86.75 12.4872 87.136 12.0645 87.6334 12.0067L87.75 12ZM9.125 88C9.67728 88 10.125 88.4477 10.125 89L10.124 90.5H11.625C12.1378 90.5 12.5605 90.886 12.6183 91.3834L12.625 91.5C12.625 92.0523 12.1773 92.5 11.625 92.5H10.124L10.125 94C10.125 94.5128 9.73896 94.9355 9.24162 94.9933L9.125 95C8.57272 95 8.125 94.5523 8.125 94L8.124 92.5H6.625C6.11216 92.5 5.68949 92.114 5.63173 91.6166L5.625 91.5C5.625 90.9477 6.07272 90.5 6.625 90.5H8.124L8.125 89C8.125 88.4872 8.51104 88.0645 9.00838 88.0067L9.125 88ZM9.125 34C9.67728 34 10.125 34.4477 10.125 35L10.124 36.5H11.625C12.1378 36.5 12.5605 36.886 12.6183 37.3834L12.625 37.5C12.625 38.0523 12.1773 38.5 11.625 38.5H10.124L10.125 40C10.125 40.5128 9.73896 40.9355 9.24162 40.9933L9.125 41C8.57272 41 8.125 40.5523 8.125 40L8.124 38.5H6.625C6.11216 38.5 5.68949 38.114 5.63173 37.6166L5.625 37.5C5.625 36.9477 6.07272 36.5 6.625 36.5H8.124L8.125 35C8.125 34.4872 8.51104 34.0645 9.00838 34.0067L9.125 34Z" fill="#D8D8D8"/>
<path d="M22.6667 16.3333C24.6917 16.3333 26.3333 14.6917 26.3333 12.6667C26.3333 10.6416 24.6917 9 22.6667 9C20.6416 9 19 10.6416 19 12.6667C19 14.6917 20.6416 16.3333 22.6667 16.3333ZM22.6667 14.3333C21.7462 14.3333 21 13.5871 21 12.6667C21 11.7462 21.7462 11 22.6667 11C23.5871 11 24.3333 11.7462 24.3333 12.6667C24.3333 13.5871 23.5871 14.3333 22.6667 14.3333ZM95 50C96.6569 50 98 48.6569 98 47C98 45.3431 96.6569 44 95 44C93.3431 44 92 45.3431 92 47C92 48.6569 93.3431 50 95 50ZM95 48C94.4477 48 94 47.5523 94 47C94 46.4477 94.4477 46 95 46C95.5523 46 96 46.4477 96 47C96 47.5523 95.5523 48 95 48Z" fill="#D8D8D8"/>
<path d="M92 95C94.2091 95 96 93.2091 96 91C96 88.7909 94.2091 87 92 87C89.7909 87 88 88.7909 88 91C88 93.2091 89.7909 95 92 95ZM92 93C90.8954 93 90 92.1046 90 91C90 89.8954 90.8954 89 92 89C93.1046 89 94 89.8954 94 91C94 92.1046 93.1046 93 92 93Z" fill="#D8D8D8"/>
<path fill-rule="evenodd" clip-rule="evenodd" d="M62.3985 19.3109L55.0484 19.2914L55.0587 17.2979L66.1661 17.3273L66.1116 28.0511L64.1126 28.0459L64.1515 20.3806L47.7962 37.0132L42.1913 31.4083L18.9741 54.5815L17.5612 53.166L42.1927 28.5812L47.7843 34.1728L62.3985 19.3109ZM33.7947 82.9992V66.2045H17V82.9992H33.7947ZM58.9867 82.9992V49.4099H42.192V82.9992H58.9867ZM84.1787 82.9992V32.6152H67.384V82.9992H84.1787ZM19 68.2045H31.7947V80.9992H19V68.2045ZM44.192 51.4099H56.9867V80.9992H44.192V51.4099ZM69.384 34.6152H82.1787V80.9992H69.384V34.6152Z" fill="#979797"/>
</svg>
