<svg width="100" height="100" viewBox="0 0 100 100" fill="none" xmlns="http://www.w3.org/2000/svg">
<rect width="100" height="100" fill="white"/>
<path fill-rule="evenodd" clip-rule="evenodd" d="M48.0378 46.7959H84.2044V61.333H80.3329C77.3874 61.333 74.9996 63.7208 74.9996 66.6664C74.9996 69.6119 77.3874 71.9997 80.3329 71.9997H84.2044V86.4059H37.4023C32.9841 86.4059 29.4023 82.8241 29.4023 78.4059L29.4023 52.1442C29.4023 52.1442 33.3742 52.957 39.1876 52.1442C45.001 51.3315 48.0378 46.7959 48.0378 46.7959Z" fill="#339C63"/>
<path fill-rule="evenodd" clip-rule="evenodd" d="M21.139 46.1699L8.67983 58.6291C7.77353 59.5354 7.77353 61.0045 8.67983 61.9108C9.58594 62.8169 11.0552 62.8169 11.9615 61.9108L24.4219 49.4504" fill="#339C63"/>
<path fill-rule="evenodd" clip-rule="evenodd" d="M16.7047 35.943C16.7047 39.7735 17.9049 43.3236 19.9498 46.2377L8.26559 57.922C6.96876 59.2188 6.96876 61.321 8.26559 62.6179C9.5622 63.9145 11.6646 63.9145 12.9615 62.6179L24.7006 50.8788C26.0235 51.7616 27.4703 52.4733 29.0093 52.9823V81.0728C29.0093 84.5706 31.8449 87.4062 35.3427 87.4062H85.0001V72H88.0001V60H85.0001V45H50.1406C51.0565 43.4366 51.7426 41.7221 52.1523 39.903C52.2826 39.9652 52.4284 40 52.5824 40H84.2049C84.7572 40 85.2049 39.5523 85.2049 39C85.2049 38.4477 84.7572 38 84.2049 38H52.5824C52.5456 38 52.5092 38.002 52.4735 38.0059C52.5509 37.329 52.5907 36.6407 52.5907 35.943C52.5907 34.941 52.5086 33.958 52.3507 33.0007L84.2048 33.0026C84.7571 33.0026 85.2048 32.5549 85.2049 32.0026C85.2049 31.4504 84.7572 31.0026 84.2049 31.0026L52.2279 31.0007C52.1188 31.0007 52.0139 31.0181 51.9156 31.0504C49.7858 23.5187 42.8612 18 34.6477 18C24.738 18 16.7047 26.0334 16.7047 35.943ZM83.0001 60V47H48.7801C45.4956 51.1922 40.3862 53.8861 34.6477 53.8861C33.4011 53.8861 32.1843 53.759 31.0093 53.517V81.0728C31.0093 83.4661 32.9494 85.4062 35.3427 85.4062H83.0001V72H80.0001C76.6864 72 74.0001 69.3137 74.0001 66C74.0001 62.6863 76.6864 60 80.0001 60H83.0001ZM9.6798 59.3362L21.197 47.819C21.7805 48.4795 22.412 49.0966 23.0859 49.665L11.5473 61.2036C11.0315 61.7192 10.1954 61.7192 9.6798 61.2036C9.16402 60.6879 9.16402 59.852 9.6798 59.3362ZM50.5907 35.943C50.5907 44.7481 43.4528 51.8861 34.6477 51.8861C25.8426 51.8861 18.7047 44.7481 18.7047 35.943C18.7047 27.1379 25.8426 20 34.6477 20C43.4528 20 50.5907 27.1379 50.5907 35.943ZM80.0001 62C77.7909 62 76.0001 63.7909 76.0001 66C76.0001 68.2091 77.7909 70 80.0001 70H86.0001V62H80.0001Z" fill="white"/>
<circle cx="35" cy="36" r="2" fill="white"/>
<circle cx="43" cy="36" r="2" fill="white"/>
<circle cx="27" cy="36" r="2" fill="white"/>
</svg>
