<svg width="100" height="100" viewBox="0 0 100 100" fill="none" xmlns="http://www.w3.org/2000/svg">
<rect width="100" height="100" fill="white"/>
<path fill-rule="evenodd" clip-rule="evenodd" d="M83.896 68.8217L89.3935 68.1023C89.6516 66.2365 89.6616 64.4322 89.3935 62.4933L83.896 61.774C83.525 60.2319 82.9174 58.7859 82.1121 57.4698L85.4933 53.0703C84.3611 51.5725 83.026 50.237 81.5287 49.1039L77.1305 52.4845C75.8139 51.6774 74.3668 51.0686 72.8234 50.6965L72.1039 45.1981C70.194 44.9335 68.3913 44.9351 66.4969 45.1961L65.7777 50.6923C64.2318 51.0634 62.7824 51.672 61.4636 52.4793L57.0643 49.0982C55.6281 50.1841 54.2573 51.5317 53.0998 53.0609L56.4801 57.4591C55.671 58.7786 55.0611 60.229 54.689 61.7761L49.1919 62.4955C48.9454 64.279 48.9269 66.1836 49.1919 68.1005L54.689 68.8199C55.0611 70.367 55.671 71.8174 56.4801 73.1369L53.0998 77.5351C54.1862 78.9706 55.5345 80.3412 57.0643 81.4978L61.4636 78.1166C62.7825 78.9238 64.2318 79.5325 65.7777 79.9035L66.4969 85.3997C68.391 85.6607 70.1937 85.6625 72.1039 85.3977L72.8234 79.8993C74.3666 79.5272 75.8137 78.9184 77.1303 78.1113L81.5287 81.4918C83.026 80.3586 84.3611 79.0232 85.4933 77.5253L82.1121 73.1258C82.9174 71.81 83.525 70.3638 83.896 68.8217ZM60.775 65.2978C60.775 60.5935 64.5886 56.7799 69.2929 56.7799C73.9972 56.7799 77.8107 60.5935 77.8107 65.2978C77.8107 70.0021 73.9972 73.8157 69.2929 73.8157C64.5886 73.8157 60.775 70.0021 60.775 65.2978Z" fill="#B3D4F1"/>
<path fill-rule="evenodd" clip-rule="evenodd" d="M76.3181 13L86.988 29.9581L86.923 29.999L87 30V47.1615H85V32H63.9397V34.8516C63.9397 38.2114 61.2734 40.9483 57.9393 41.0683L57.7109 41.0724H41.8544C38.4912 41.0724 35.7503 38.4101 35.6301 35.0796L35.626 34.8516V32H15V48.957L50.0548 48.9573V50.9573L15 50.957V65.957L45.0548 65.9573V67.9573L15 67.957V79.795C15 82.4486 17.1342 84.8693 19.5826 84.9949L19.7818 85H54.9123V87H19.7818C16.1778 87 13.1295 83.7249 13.004 80.0313L13 79.795V30L13.088 29.999L13.0232 29.9581L23.6935 13H76.3181ZM71.6455 44.1329L72.2411 44.2076L72.9965 44.3122L73.7279 49.9014C74.7223 50.1875 75.6829 50.5687 76.5993 51.0394L77.0538 51.2822L81.524 47.8462L82.1322 48.3065C83.5461 49.3766 84.8218 50.6183 85.9285 52.0012L86.2911 52.4673L86.7507 53.0754L83.3141 57.5469C83.8133 58.4478 84.2241 59.3941 84.5409 60.3758L84.6914 60.8695L90.2796 61.6008L90.3841 62.3564C90.6333 64.1592 90.6562 65.8753 90.4582 67.6466L90.384 68.2393L90.2795 68.9949L84.6914 69.7261C84.4062 70.7194 84.0259 71.679 83.5563 72.5947L83.3141 73.0488L86.7507 77.5203L86.2911 78.1283C85.2223 79.5422 83.9811 80.8183 82.5983 81.9262L82.1322 82.2892L81.524 82.7494L77.0537 79.3136C76.1522 79.8139 75.205 80.2258 74.2222 80.5435L73.7279 80.6944L72.9965 86.2836L72.2412 86.3883C70.4462 86.6371 68.7319 86.662 66.9551 86.4644L66.3604 86.3904L65.6044 86.2862L64.8733 80.6993C63.8771 80.4138 62.9146 80.0326 61.9961 79.5616L61.5406 79.3186L57.0693 82.7552L56.4612 82.2954C55.0346 81.2169 53.7305 79.9398 52.6273 78.5566L52.3024 78.1386L51.8422 77.5304L55.2777 73.0603C54.7758 72.1562 54.3628 71.2061 54.0447 70.2202L53.8935 69.7243L48.3057 68.9931L48.2013 68.2374C47.9575 66.4738 47.9371 64.6816 48.1293 62.9379L48.2013 62.3586L48.3057 61.603L53.8935 60.8717C54.1799 59.8742 54.562 58.9107 55.0342 57.9915L55.2777 57.5357L51.8421 53.0655L52.3025 52.4574C53.3822 51.0309 54.6596 49.7275 56.0431 48.6252L56.4612 48.3006L57.0692 47.8408L61.5405 51.2772C62.444 50.7765 63.3932 50.3645 64.378 50.0472L64.8733 49.8965L65.6044 44.3096L66.3604 44.2055C68.1526 43.9585 69.8666 43.9339 71.6455 44.1329ZM67.3876 46.0968L67.9371 46.0493C69.0325 45.9701 70.1087 45.9863 71.2131 46.0982L71.921 51.5076L72.589 51.6687L73.061 51.7912C74.312 52.1395 75.5028 52.6597 76.6078 53.3371L77.1944 53.6967L81.5212 50.3709L81.9399 50.7243C82.767 51.4427 83.5322 52.23 84.2266 53.0775L80.9004 57.4054L81.2591 57.9918L81.5053 58.41C82.1419 59.5359 82.6196 60.7436 82.9237 62.0079L83.0846 62.6763L88.4932 63.3841L88.5411 63.9358C88.6209 65.0351 88.6044 66.1113 88.4932 67.2116L83.0846 67.9193L82.9237 68.5878L82.8016 69.0592C82.4542 70.3091 81.9352 71.4992 81.2592 72.6038L80.9004 73.1902L84.2266 77.5181L83.8736 77.9368C83.1558 78.764 82.3687 79.5296 81.5212 80.2248L77.1942 76.8992L76.6077 77.2587L76.1893 77.5054C75.0633 78.1432 73.8546 78.622 72.589 78.9272L71.921 79.0883L71.2131 84.4977L70.6631 84.5457C69.5668 84.6257 68.4908 84.61 67.3876 84.4991L66.68 79.0917L66.0111 78.9311L65.5385 78.8089C64.2858 78.4614 63.0931 77.9415 61.9856 77.2636L61.3993 76.9047L57.0718 80.2307L56.653 79.8768C55.8249 79.1567 55.0551 78.3644 54.3671 77.5272L57.6923 73.2007L57.3326 72.6142L57.0854 72.1948C56.446 71.0662 55.9664 69.8548 55.6613 68.586L55.5005 67.9175L50.0934 67.2099L50.0474 66.6623C49.971 65.5662 49.9873 64.4664 50.0934 63.3861L55.5005 62.6785L55.6613 62.01L55.7839 61.5369C56.1324 60.2829 56.6535 59.0894 57.3326 57.9819L57.6923 57.3953L54.3671 53.0688L54.7213 52.6501C55.442 51.8221 56.2345 51.0528 57.0719 50.3653L61.3993 53.6911L61.9857 53.3322L62.4048 53.0854C63.533 52.4474 64.7436 51.9689 66.0111 51.6647L66.68 51.5042L67.3876 46.0968ZM69.2929 56.7799C73.9972 56.7799 77.8107 60.5935 77.8107 65.2978C77.8107 70.0021 73.9972 73.8157 69.2929 73.8157C64.5886 73.8157 60.775 70.0021 60.775 65.2978C60.775 60.5935 64.5886 56.7799 69.2929 56.7799ZM62.775 65.2978C62.775 61.6981 65.6931 58.7799 69.2929 58.7799C72.8926 58.7799 75.8107 61.6981 75.8107 65.2978C75.8107 68.8976 72.8926 71.8157 69.2929 71.8157C65.6931 71.8157 62.775 68.8976 62.775 65.2978ZM80.247 22.999H19.764L15.36 29.999L37.626 30V34.8516C37.626 37.1118 39.4057 38.9575 41.6433 39.0672L41.8544 39.0724H57.7109C59.9761 39.0724 61.8245 37.2953 61.9345 35.0622L61.9397 34.8516V30L84.651 29.999L80.247 22.999ZM24.798 15H75.2135L78.988 20.999H21.023L24.798 15Z" fill="#006FCF"/>
</svg>
