<svg width="150" height="150" viewBox="0 0 150 150" fill="none" xmlns="http://www.w3.org/2000/svg">
<rect width="150" height="150" fill="white"/>
<circle cx="116.5" cy="30.5" r="16.5" fill="#339C63"/>
<path fill-rule="evenodd" clip-rule="evenodd" d="M98.9999 30.5C98.9999 32.8087 99.447 35.0131 100.259 37.0311L94.0817 40.4955V106.309H71.9978V87H69.9978V108.309H94.0817V129.96L131.142 109.177V40.3353H130.977C132.885 37.5323 134 34.1464 134 30.5C134 20.835 126.165 13 116.5 13C111.237 13 106.517 15.3232 103.309 19H69.9151V38.3191H71.9151V21H101.8C100.029 23.7359 98.9999 26.9978 98.9999 30.5ZM54.0622 48.0508C52.8084 52.1403 55.0444 56.4967 59.0687 57.7804C63.1012 59.0669 67.3886 56.7767 68.6444 52.6784C69.8982 48.5886 67.6623 44.2327 63.6379 42.9489C59.6057 41.6625 55.3186 43.9529 54.0622 48.0508ZM63.0301 44.8543C66.0037 45.8029 67.6669 49.0433 66.7322 52.0924C65.8005 55.1331 62.641 56.8208 59.6765 55.875C56.703 54.9265 55.0396 51.6857 55.9743 48.6371C56.9065 45.5965 60.0659 43.9086 63.0301 44.8543ZM45.1795 82.9263C44.7342 84.3785 44.8765 85.9518 45.5704 87.2945L56.4547 98.5857C57.2208 99.3798 57.6767 100.416 57.7424 101.519C57.8483 103.293 57.9277 106.531 57.9849 110.824C58.0161 113.168 58.0388 115.679 58.0542 118.191C58.0596 119.069 58.0637 119.885 58.0667 120.618C58.0685 121.058 58.0695 121.372 58.07 121.539L56.07 121.545C56.0696 121.378 56.0685 121.065 56.0667 120.626C56.0637 119.895 56.0596 119.08 56.0543 118.203C56.0388 115.696 56.0162 113.19 55.9851 110.851C55.9283 106.589 55.8494 103.371 55.746 101.638C55.7087 101.011 55.4509 100.426 55.0151 99.974L43.9398 88.4848L43.8754 88.3666C42.8713 86.5265 42.6516 84.3481 43.2674 82.3401L47.7464 67.7257C49.0168 63.5801 53.1189 60.9397 57.1781 61.8499C61.404 62.7974 62.9999 66.1641 62.9999 71.92V82H72.0647V84H60.9999V71.92C60.9999 66.9882 59.8162 64.4911 56.7405 63.8014C53.7418 63.129 50.6338 65.1295 49.6586 68.3117L45.1795 82.9263ZM42.6626 91.5889L34.3378 101.389H18.5933V103.389H35.263L44.1869 92.8837L42.6626 91.5889ZM47.1637 64H38.9727L30.7938 74.6803L29.2059 73.4644L37.9852 62H47.1637V64ZM101.114 38.8449L96.0817 41.6669V126.545L129.142 108.005V42.6011C125.956 45.9282 121.47 48 116.5 48C109.857 48 104.078 44.2982 101.114 38.8449ZM132 30.5C132 39.0604 125.06 46 116.5 46C107.939 46 101 39.0604 101 30.5C101 21.9396 107.939 15 116.5 15C125.06 15 132 21.9396 132 30.5ZM116 34.7155V20.5893C116 20.0371 116.448 19.5893 117 19.5893C117.552 19.5893 118 20.0371 118 20.5893V34.7155C118 35.2678 117.552 35.7155 117 35.7155C116.448 35.7155 116 35.2678 116 34.7155ZM116 39C116 39.5523 116.448 40 117 40C117.552 40 118 39.5523 118 39C118 38.4477 117.552 38 117 38C116.448 38 116 38.4477 116 39Z" fill="white"/>
</svg>
