<svg width="100" height="100" viewBox="0 0 100 100" fill="none" xmlns="http://www.w3.org/2000/svg">
<rect width="100" height="100" fill="white"/>
<path d="M46.4121 84.876L51.645 83.0742L51.6341 82.9049C51.3592 78.6214 54.013 74.6932 58.0896 73.3494L58.1752 73.3212C62.1959 71.9958 66.6032 73.5692 68.8754 77.1412L74.7631 75.114L70.7671 63.5087L42.4161 73.2708L46.4121 84.876Z" fill="#339C63"/>
<path d="M37.2959 79.5537H42.8303L42.8751 79.3901C44.0098 75.2505 47.7979 72.4003 52.0898 72.4569L52.18 72.4581C56.4131 72.514 60.068 75.4365 61.0536 79.5537H67.2805V67.2798H37.2959V79.5537Z" fill="#339C63"/>
<path d="M37.2959 15.4912H42.8303L43.049 16.3739C44.0757 20.5178 47.821 23.4088 52.0898 23.3525C56.3548 23.2962 60.0155 20.3012 60.9153 16.1318L61.0536 15.4912H67.2805V31.9283H37.2959V15.4912Z" fill="#339C63"/>
<path fill-rule="evenodd" clip-rule="evenodd" d="M30.7885 22.5012L25.5557 24.303L30.907 39.8446L37 37.7466V34.0003H47.88L59.258 30.0826L53.9066 14.541L48.019 16.5683L48.0968 17.219C48.6035 21.4542 46.1173 25.4778 42.103 26.9196C38.0851 28.3626 33.6026 26.8485 31.2827 23.2647L30.7885 22.5012Z" fill="#339C63"/>
<path fill-rule="evenodd" clip-rule="evenodd" d="M52.7351 52.9912L48.6211 55.1542L49.4071 50.5732L46.0781 47.3282L50.6781 46.6602L52.7351 42.4912L54.7931 46.6602L59.3931 47.3282L56.0641 50.5732L56.8501 55.1542L52.7351 52.9912Z" fill="#339C63"/>
<path d="M47.3969 48.1686L46.1502 48.8433C45.9305 48.4374 45.7013 48.0368 45.4629 47.6417L46.6766 46.9092C46.9265 47.3233 47.1667 47.7432 47.3969 48.1686Z" fill="white"/>
<path d="M51.9354 74.4559C48.467 74.4559 45.5528 76.8284 44.7271 80.039L46.393 84.8716L51.6029 83.0776C51.3556 80.0137 52.6316 77.0346 54.9476 75.0905C54.0268 74.6826 53.0075 74.4559 51.9354 74.4559ZM42.6359 15.4995H37.2787V31.8175L41.345 31.8181V33.7872L37.2787 33.7865L37.2777 65.5065L41.345 65.5066V67.4757L37.2777 67.4755L37.2787 79.5438H42.7888C43.8369 75.4572 47.5463 72.4559 51.9354 72.4559C56.3245 72.4559 60.0338 75.4572 61.0819 79.5438H67.3009L67.3007 67.4755L64.0919 67.4757V65.5066L67.3007 65.5065V33.7865L64.0919 33.7872V31.8181L67.3007 31.8175L67.3009 15.4995H61.2348C60.4562 19.9299 56.5889 23.2962 51.9354 23.2962C47.2818 23.2962 43.4145 19.9299 42.6359 15.4995ZM69.3 76.983L74.7795 75.0973L70.8505 63.6866L69.3 64.22V76.983ZM63.6757 65.5066V67.4757H58.5092V65.5066H63.6757ZM58.093 65.5066V67.4757H52.9265V65.5066H58.093ZM52.5103 65.5066V67.4757H47.3438V65.5066H52.5103ZM46.9277 65.5066V67.4757H41.7612V65.5066H46.9277ZM52.7353 40.2316L55.4566 45.7455L61.5417 46.6298L57.1385 50.9218L58.178 56.9823L52.7353 54.1209L47.2927 56.9823L48.3322 50.9218L43.929 46.6298L50.014 45.7455L52.7353 40.2316ZM52.7353 44.7507L51.3421 47.5736L48.2269 48.0262L50.4811 50.2236L49.949 53.3262L52.7353 51.8613L55.5217 53.3262L54.9895 50.2236L57.2438 48.0262L54.1285 47.5736L52.7353 44.7507ZM31.4961 41.6078L35.278 52.592V40.304L31.4961 41.6078ZM63.6757 31.8181V33.7872H58.5092V31.8181H63.6757ZM58.093 31.8181V33.7872H52.9265V31.8181H58.093ZM52.5103 31.8181V33.7872H47.3438V31.8181H52.5103ZM46.9277 31.8181V33.7872H41.7612V31.8181H46.9277ZM53.9287 14.5422L48.1932 16.5171C48.3917 17.7664 48.332 19.0157 48.0456 20.1998C49.177 20.8952 50.5093 21.2962 51.9354 21.2962C53.3788 21.2962 54.7263 20.8853 55.8672 20.174L53.9287 14.5422ZM69.3 62.137L70.2094 61.8248L69.3 59.184V62.137ZM69.3009 81.5438H59.3694C59.2696 79.4146 58.275 77.5193 56.7531 76.2255L56.6257 76.3153C54.1489 78.1238 52.976 81.3461 53.8732 84.4111L45.1531 87.4137L43.132 81.543L35.2787 81.5438L35.278 58.734L23 23.0765L31.7202 20.0739C31.7532 20.1868 31.789 20.2994 31.8277 20.4117C32.4541 22.2309 33.7152 23.6511 35.2782 24.51L35.2787 13.4995H44.5013C44.4958 13.6169 44.493 13.7351 44.493 13.8539C44.493 15.6969 45.1629 17.3835 46.2726 18.6833L46.2519 18.8942C46.3874 17.806 46.2823 16.6717 45.9015 15.5657C45.8628 15.4534 45.8217 15.3426 45.7783 15.2334L55.1686 12L57.5057 18.7896C58.6705 17.476 59.3777 15.7475 59.3777 13.8539C59.3777 13.7351 59.3749 13.6169 59.3694 13.4995H69.3009L69.3 53.042L77.3217 76.3372L69.3 79.099L69.3009 81.5438ZM35.2781 26.7236C33.3367 25.9255 31.6675 24.487 30.6075 22.5723L25.5422 24.3164L30.855 39.746L34.6998 38.4221L35.278 40.103L35.2781 26.7236Z" fill="white"/>
</svg>
