<svg width="150" height="150" viewBox="0 0 150 150" fill="none" xmlns="http://www.w3.org/2000/svg">
<rect width="150" height="150" fill="white"/>
<path d="M130.935 76.084L98.0955 23.5304L94.5328 25.7566L127.372 78.3102L130.935 76.084Z" fill="#B3D4F1"/>
<path d="M117.536 61.5586H68.8479C66.0657 64.8498 63.6284 67.2341 61.5361 68.7116C59.4438 70.189 56.4002 71.675 52.4054 73.1694L57.7692 133.065H111.253L117.536 61.5586Z" fill="#B3D4F1"/>
<path d="M54.219 133C53.6667 133 53.219 132.552 53.219 132C53.219 131.448 53.6667 131 54.219 131H57.599L52.5258 74.1275C50.2784 74.6972 47.9245 75 45.5 75C29.7599 75 17 62.2401 17 46.5C17 30.7599 29.7599 18 45.5 18C61.2401 18 74 30.7599 74 46.5C74 47.958 73.8905 49.3905 73.6793 50.7897L79.7529 44.5417L85.012 50.303L88.763 46.5528L102.458 61.5569L102.444 61.568H115.732L93.1562 25.439L98.4152 22.1528L112.906 45.343C115.312 43.8991 118.441 44.6441 119.934 47.0335C121.402 49.3825 120.748 52.456 118.491 54.0123L118.371 54.09L132.314 76.4018L127.055 79.688L117.343 64.146L111.429 131H117.536C118.089 131 118.536 131.448 118.536 132C118.536 132.552 118.089 133 117.536 133H54.219ZM49.5 131C50.0523 131 50.5 131.448 50.5 132C50.5 132.552 50.0523 133 49.5 133H46.5C45.9477 133 45.5 132.552 45.5 132C45.5 131.448 45.9477 131 46.5 131H49.5ZM42.5 131C43.0523 131 43.5 131.448 43.5 132C43.5 132.552 43.0523 133 42.5 133H41.5C40.9477 133 40.5 132.552 40.5 132C40.5 131.448 40.9477 131 41.5 131H42.5ZM123.5 131C124.052 131 124.5 131.448 124.5 132C124.5 132.552 124.052 133 123.5 133H122.5C121.948 133 121.5 132.552 121.5 132C121.5 131.448 121.948 131 122.5 131H123.5ZM115.386 63.5687H68.3255C64.8743 68.1765 60.0606 71.7047 54.482 73.5558L59.6067 131H109.422L115.386 63.5687ZM85.0722 81.9196C85.585 81.9196 86.0077 82.3057 86.0654 82.803L86.0722 82.9196V110.92C86.0722 111.472 85.6245 111.92 85.0722 111.92C84.5593 111.92 84.1367 111.534 84.0789 111.036L84.0722 110.92V82.9196C84.0722 82.3673 84.5199 81.9196 85.0722 81.9196ZM102.086 81.92L102.202 81.9234C102.713 81.9678 103.101 82.389 103.115 82.8895L103.112 83.0063L100.677 111.006C100.629 111.556 100.144 111.964 99.5942 111.916C99.0833 111.871 98.6957 111.45 98.6812 110.95L98.6846 110.833L101.119 82.833C101.16 82.3614 101.522 81.9948 101.972 81.9298L102.086 81.92ZM69.0249 82.833L71.4597 110.833C71.5076 111.383 71.1003 111.868 70.5501 111.916C69.9999 111.964 69.5151 111.556 69.4672 111.006L67.0325 83.0063C66.9846 82.4561 67.3919 81.9712 67.9421 81.9234C68.4923 81.8755 68.9771 82.2828 69.0249 82.833ZM97.7789 24.9087L95.9121 26.0753L127.691 76.9321L129.558 75.7656L97.7789 24.9087ZM45.5 20C30.8645 20 19 31.8645 19 46.5C19 61.1355 30.8645 73 45.5 73C60.1355 73 72 61.1355 72 46.5C72 31.8645 60.1355 20 45.5 20ZM79.7071 47.4583L73.0068 54.351L72.927 54.2733C72.191 56.8756 71.0945 59.3266 69.695 61.5689L92.585 61.568L79.7071 47.4583ZM88.697 49.4472L86.361 51.782L95.293 61.568H99.76L88.697 49.4472ZM59.1481 36.8073C59.5387 37.1979 59.5387 37.831 59.1481 38.2215L38.9375 58.4321L32.8822 52.3768C32.4917 51.9863 32.4917 51.3532 32.8822 50.9626C33.2728 50.5721 33.9059 50.5721 34.2965 50.9626L38.9375 55.6037L57.7339 36.8073C58.1244 36.4168 58.7576 36.4168 59.1481 36.8073ZM114.046 46.9946L113.967 47.04L117.313 52.3947C118.677 51.4854 119.114 49.6833 118.332 48.2535L118.238 48.0933C117.347 46.6667 115.503 46.1975 114.046 46.9946Z" fill="#006FCF"/>
</svg>
