<svg width="150" height="150" viewBox="0 0 150 150" fill="none" xmlns="http://www.w3.org/2000/svg">
<g clip-path="url(#clip0)">
<rect width="150" height="150" fill="white"/>
<path fill-rule="evenodd" clip-rule="evenodd" d="M97.5216 87.1152C97.5216 95.5799 105.523 102.442 115.391 102.442C125.26 102.442 133.26 95.5799 133.26 87.1152H97.5216Z" fill="#D8D8D8"/>
<path fill-rule="evenodd" clip-rule="evenodd" d="M108.336 132.2C108.336 131.648 107.888 131.2 107.336 131.2H72.6417C72.0894 131.2 71.6417 131.648 71.6417 132.2C71.6417 132.752 72.0894 133.2 72.6417 133.2H107.336C107.888 133.2 108.336 132.752 108.336 132.2Z" fill="#979797"/>
<path fill-rule="evenodd" clip-rule="evenodd" d="M69.9414 132.2C69.9414 131.648 69.4937 131.2 68.9414 131.2H65.57C65.0177 131.2 64.57 131.648 64.57 132.2C64.57 132.752 65.0177 133.2 65.57 133.2H68.9414C69.4937 133.2 69.9414 132.752 69.9414 132.2Z" fill="#979797"/>
<path fill-rule="evenodd" clip-rule="evenodd" d="M113.754 132.2C113.754 131.648 113.306 131.2 112.754 131.2H110.904C110.351 131.2 109.904 131.648 109.904 132.2C109.904 132.752 110.351 133.2 110.904 133.2H112.754C113.306 133.2 113.754 132.752 113.754 132.2Z" fill="#979797"/>
<path d="M61.6538 96.6572H28.6647C28.6647 96.6572 19.8101 98.5903 19.8057 106.345C19.8012 114.099 31.2462 115.902 31.2462 115.902H63.4104C63.4104 115.902 55.4261 112.728 55.4261 106.28C55.4261 99.8317 61.6538 96.6572 61.6538 96.6572Z" fill="#D8D8D8"/>
<path d="M75.583 65.2774V54.7391C75.583 54.7391 76.8301 50.406 78.2828 49.0199C79.7356 47.6338 84.1016 46.6113 84.1016 46.6113C84.1016 46.6113 91.8294 48.9234 92.2548 56.2454C92.4496 59.5979 90.4524 63.6897 85.1373 65.2774C82.7133 66.0015 75.583 65.2774 75.583 65.2774Z" fill="#D8D8D8"/>
<path d="M28.8349 96.5197L28.665 46.5381H83.2624C83.2624 46.5381 75.6893 49.2661 75.6893 55.0413C75.6893 59.142 75.6893 88.0294 75.6893 104.435C75.6893 110.693 70.6165 115.751 64.3588 115.751C64.3588 115.751 56.6564 114.765 55.693 108.029C55.2811 105.148 55.7582 101.338 58.2576 98.9958C59.6549 97.6866 64.381 96.5197 64.381 96.5197H28.8349Z" fill="white"/>
<path d="M49.499 62.625H63.1981" stroke="#979797" stroke-width="2" stroke-linecap="round"/>
<path d="M40.1321 72.8615H63.1981" stroke="#979797" stroke-width="2" stroke-linecap="round"/>
<path d="M40.1321 83.4563H63.1981" stroke="#979797" stroke-width="2" stroke-linecap="round"/>
<path fill-rule="evenodd" clip-rule="evenodd" d="M76.3647 66.8834L76.0726 106.222V106.226C76.0703 112.158 70.7751 116.856 64.9661 116.856C59.0931 116.856 54.332 112.095 54.332 106.222C54.332 100.349 59.0931 95.588 64.9661 95.588V97.588C60.1976 97.588 56.332 101.454 56.332 106.222C56.332 110.991 60.1976 114.856 64.9661 114.856C69.7974 114.856 74.0726 110.93 74.0726 106.222L74.0727 106.215L74.4472 55.7569C74.4833 50.8955 77.9472 46.8567 82.5356 45.9268V45.6152C83.0775 45.6152 83.6099 45.6558 84.1299 45.7339C84.2705 45.7282 84.4117 45.7252 84.5536 45.7252V45.8065C89.4617 46.7493 93.1697 51.0663 93.1697 56.2493C93.1697 56.8194 93.1249 57.379 93.0385 57.9248L114.696 49.9508L114.701 49.9651L114.713 49.942L132.965 86.3346H133.086V87.3346C133.086 96.423 124.781 103.585 114.804 103.585C104.889 103.585 96.6219 96.5087 96.5231 87.4979L96.5 87.4996L96.5052 86.4706L113.41 52.5555L92.3702 60.3021C91.8353 61.5985 91.0516 62.7661 90.0785 63.7452C90.0927 63.8122 90.1001 63.8816 90.1001 63.9528V132.091C90.1001 132.643 89.6524 133.091 89.1001 133.091C88.5478 133.091 88.1001 132.643 88.1001 132.091V65.3131C86.4814 66.309 84.5756 66.8834 82.5356 66.8834H76.3647ZM76.3795 64.8834H82.5356C87.3041 64.8834 91.1697 61.0178 91.1697 56.2493C91.1697 51.9872 88.0815 48.4464 84.0207 47.7425C79.8147 48.0155 76.4789 51.4972 76.4471 55.7718L76.3795 64.8834ZM98.8077 86.3346H130.728L114.718 54.4142L98.8077 86.3346ZM114.804 101.585C123.524 101.585 130.462 95.6409 131.047 88.3346H98.5621C99.1467 95.6408 106.086 101.585 114.804 101.585Z" fill="#979797"/>
<path fill-rule="evenodd" clip-rule="evenodd" d="M28.0506 59.6651C27.7666 60.9351 27.6167 62.2557 27.6167 63.6113V95.7436C22.6123 96.6081 18.8057 100.971 18.8057 106.222C18.8057 112.095 23.5667 116.856 29.4398 116.856H65.204V114.856H29.4398C24.6713 114.856 20.8057 110.99 20.8057 106.222C20.8057 101.454 24.6713 97.5879 29.4398 97.5879H64.7717V95.5879H29.6167V63.6113C29.6167 62.6839 29.6956 61.775 29.8471 60.8907C29.2278 60.5107 28.6284 60.1015 28.0506 59.6651ZM63.3148 47.6113H83.6388V45.6113H63.7606C63.6419 46.2889 63.4928 46.9561 63.3148 47.6113Z" fill="#979797"/>
<path fill-rule="evenodd" clip-rule="evenodd" d="M41.5996 20.2002C29.7255 20.2002 20.0996 29.8261 20.0996 41.7002C20.0996 53.5743 29.7255 63.2002 41.5996 63.2002C53.4737 63.2002 63.0996 53.5743 63.0996 41.7002C63.0996 29.8261 53.4737 20.2002 41.5996 20.2002ZM18.0996 41.7002C18.0996 28.7215 28.6209 18.2002 41.5996 18.2002C54.5783 18.2002 65.0996 28.7215 65.0996 41.7002C65.0996 54.6789 54.5783 65.2002 41.5996 65.2002C28.6209 65.2002 18.0996 54.6789 18.0996 41.7002Z" fill="#979797"/>
<path d="M42.0996 35.002V57.2002" stroke="#979797" stroke-width="2" stroke-linecap="round"/>
<path d="M42.0996 29.7344V31.1223" stroke="#979797" stroke-width="2" stroke-linecap="round"/>
</g>
<defs>
<clipPath id="clip0">
<rect width="150" height="150" fill="white"/>
</clipPath>
</defs>
</svg>
