<svg width="150" height="150" viewBox="0 0 150 150" fill="none" xmlns="http://www.w3.org/2000/svg">
<rect width="150" height="150" fill="white"/>
<path d="M37.8807 30.9181L20.0476 34.0625L36.8388 129.29L85.4925 119.816L37.8807 119.745L37.8807 30.9181Z" fill="#E4F2D2"/>
<path d="M37.8807 30.9181L20.0476 34.0625L36.8388 129.29L85.4925 119.816" stroke="#009639" stroke-width="2"/>
<path d="M113 71.6582V20H38V119.816H58.1378" stroke="#009639" stroke-width="2"/>
<path d="M81.1493 46H49.0001" stroke="#009639" stroke-width="2"/>
<path d="M60.8792 38H49.0001" stroke="#009639" stroke-width="2"/>
<path d="M103.042 59H49.0001" stroke="#009639" stroke-width="2"/>
<path d="M103.042 66.9331H49.0001" stroke="#009639" stroke-width="2"/>
<path d="M58.0001 83.1305H49.0001" stroke="#009639" stroke-width="2"/>
<path d="M58 104H49" stroke="#009639" stroke-width="2"/>
<path d="M58.0001 97H49.0001" stroke="#009639" stroke-width="2"/>
<rect x="62.0667" y="75" width="67" height="29" fill="#E4F2D2"/>
<path d="M85.6338 97.06C85.6338 97.06 79.7133 94.5343 79.4515 93.6626V92.748C80.0335 92.1293 80.4926 91.2665 80.7643 90.2562C81.4171 89.7799 81.5794 88.7981 81.0391 88.1075V86.0602C81.0391 83.9468 79.9065 82.5 77.3172 82.5C74.7947 82.5 73.594 83.9468 73.594 86.0602V88.1081C73.0549 88.7978 73.2168 89.7789 73.8688 90.2557C74.1404 91.2664 74.5998 92.1292 75.1822 92.7479V93.6625C74.9212 94.5332 69 97.0599 69 97.0599" stroke="#009639" stroke-width="2"/>
<rect x="93.0437" y="96" width="22" height="2" fill="#009639"/>
<rect x="93.0437" y="82" width="10" height="2" fill="#009639"/>
<rect x="93.0437" y="89" width="26" height="2" fill="#009639"/>
<rect x="68.2163" y="110.911" width="44.5752" height="2" fill="#009639"/>
<path d="M115.845 115.412V116.007L114.195 115.243V114.673L115.845 113.911V114.507L114.758 114.958L115.845 115.412Z" fill="#78BE20"/>
<path d="M62.6443 104H127.982" stroke="#009639" stroke-width="2" stroke-linecap="square"/>
<circle cx="117.09" cy="122.62" r="11.8896" fill="#E4F2D2"/>
<path d="M117.37 120.48V126.927" stroke="#009639" stroke-width="2" stroke-linecap="square"/>
<circle cx="117.09" cy="122.62" r="11.8896" stroke="#009639" stroke-width="2"/>
<path d="M114.258 122.023L117.37 118.912L120.481 122.023" stroke="#009639" stroke-width="2"/>
<path d="M105.154 119.733H62V75V75H129V119.733" stroke="#009639" stroke-width="2"/>
</svg>
