<svg width="150" height="150" viewBox="0 0 150 150" fill="none" xmlns="http://www.w3.org/2000/svg">
<rect width="150" height="150" fill="white"/>
<path d="M121.604 102.17C121.214 101.782 120.585 101.782 120.195 102.17L101.158 121.08C100.765 121.471 100.765 122.108 101.158 122.499L110.672 131.95L131.127 111.63L121.604 102.17Z" fill="#339C63"/>
<path fill-rule="evenodd" clip-rule="evenodd" d="M53 49.8097V50.75C53 56.1348 57.3652 60.5 62.75 60.5C68.1348 60.5 72.5 56.1348 72.5 50.75C72.5 45.3652 68.1348 41 62.75 41C60.2421 41 57.9554 41.9468 56.2278 43.5026" fill="#339C63"/>
<path fill-rule="evenodd" clip-rule="evenodd" d="M35.9819 67.4024V74.3251H98.9498V49.1627L91.6014 48V67.4024H35.9819Z" fill="#339C63"/>
<path d="M43.718 18.5C46.5187 18.5 49.2093 19.5681 51.2452 21.4786L51.4962 21.7218L60.2875 30.5131L58.8732 31.9273L50.082 23.136C48.4676 21.5216 46.3029 20.5839 44.0288 20.5054L43.718 20.5H17.5V18.5H43.718Z" fill="white"/>
<path fill-rule="evenodd" clip-rule="evenodd" d="M82.0978 32.3428V30.3428H44.3441V32.3428H82.0978ZM29.5951 66.4024L29.5957 40.5004H27.5957V68.4028H92.6015V47.1054H90.6015L90.6011 66.4024H29.5951Z" fill="white"/>
<path d="M99.9498 49.1631V75.3255H34.9819V71.518H36.9819L36.981 73.3253H97.949L97.9498 49.1631H99.9498Z" fill="white"/>
<circle cx="101" cy="36" r="20" fill="#339C63"/>
<path fill-rule="evenodd" clip-rule="evenodd" d="M80 36C80 24.402 89.402 15 101 15C112.598 15 122 24.402 122 36C122 47.598 112.598 57 101 57C89.402 57 80 47.598 80 36ZM120 36C120 25.5066 111.493 17 101 17C90.5066 17 82 25.5066 82 36C82 46.4934 90.5066 55 101 55C111.493 55 120 46.4934 120 36Z" fill="white"/>
<path d="M103.114 39.538H100.804V29H103.114V39.538ZM101.948 44.807C101.035 44.807 100.342 44.092 100.342 43.179C100.342 42.266 101.035 41.573 101.948 41.573C102.861 41.573 103.576 42.266 103.576 43.179C103.576 44.092 102.861 44.807 101.948 44.807Z" fill="white"/>
<path d="M41.8464 27.9014L55.2167 41.0906C57.4797 43.3229 57.5634 46.9298 55.4499 49.2635L55.2287 49.495C52.9444 51.7613 49.3071 51.8541 46.9122 49.7493L46.7208 49.5738L33.8442 37.264L33.7537 37.3467C32.2583 38.6637 30.5893 39.7731 28.749 40.6742L28.2428 40.9147C25.9392 41.9772 22.9575 42.5695 19.293 42.7077L18.7382 42.725L18.6885 40.7256C22.3568 40.6345 25.2642 40.086 27.4052 39.0986C29.4155 38.1714 31.2028 36.9859 32.7707 35.5405L33.1581 35.1738L33.8493 34.5018L48.1029 48.1282C49.6546 49.6116 52.0756 49.6391 53.6593 48.2265L53.8499 48.0454C55.3145 46.5606 55.3493 44.201 53.9658 42.6747L53.8122 42.5144L40.4418 29.3252L41.8464 27.9014Z" fill="white"/>
<path d="M62.75 40C68.6871 40 73.5 44.8129 73.5 50.75C73.5 56.6871 68.6871 61.5 62.75 61.5C56.9087 61.5 52.1555 56.8411 52.0037 51.0364L52 50.75V49.8097H54V50.75C54 55.5825 57.9175 59.5 62.75 59.5C67.5825 59.5 71.5 55.5825 71.5 50.75C71.5 45.9175 67.5825 42 62.75 42C60.667 42 58.6999 42.7295 57.1399 44.0348L56.897 44.2457L55.5586 42.7595C57.5187 40.9944 60.0582 40 62.75 40Z" fill="white"/>
<path fill-rule="evenodd" clip-rule="evenodd" d="M28.5954 56.1045C29.1477 56.1045 29.5954 56.5522 29.5954 57.1045C29.5954 57.6173 29.2094 58.04 28.712 58.0978L28.5954 58.1045H25.7129C25.1606 58.1045 24.7129 57.6568 24.7129 57.1045C24.7129 56.5917 25.0989 56.169 25.5963 56.1112L25.7129 56.1045H28.5954ZM28.5954 62.1045C29.1477 62.1045 29.5954 62.5522 29.5954 63.1045C29.5954 63.6173 29.2094 64.04 28.712 64.0978L28.5954 64.1045H19.7129C19.1606 64.1045 18.7129 63.6568 18.7129 63.1045C18.7129 62.5917 19.0989 62.169 19.5963 62.1112L19.7129 62.1045H28.5954ZM23.5954 57.1045C23.5954 56.5522 23.1477 56.1045 22.5954 56.1045H21.3293L21.2127 56.1112C20.7154 56.169 20.3293 56.5917 20.3293 57.1045C20.3293 57.6568 20.7771 58.1045 21.3293 58.1045H22.5954L22.712 58.0978C23.2094 58.04 23.5954 57.6173 23.5954 57.1045Z" fill="white"/>
<path fill-rule="evenodd" clip-rule="evenodd" d="M63.8774 91.2669C65.3403 89.4788 67.9757 89.2151 69.7638 90.678C69.8595 90.7563 69.9517 90.8388 70.0401 90.9253L70.1698 91.0579L84.7149 106.607L84.6975 106.507C84.6599 106.275 84.6358 106.038 84.6262 105.798L84.6213 105.557C84.6213 102.765 86.8268 100.488 89.5907 100.373L89.8101 100.368L101.749 100.368L101.798 100.313C103.4 98.5774 105.712 97.6853 108.669 97.6193L109.027 97.6153C113.193 97.6153 116.89 100.196 118.354 104.039L118.621 103.772C119.793 102.6 121.692 102.6 122.864 103.772L131.349 112.257L124.939 118.668H129.188C129.741 118.668 130.188 119.115 130.188 119.668C130.188 120.18 129.802 120.603 129.305 120.661L129.188 120.668H123.281C123.177 120.668 123.077 120.652 122.983 120.623L118.939 124.668H123.188C123.741 124.668 124.188 125.115 124.188 125.668C124.188 126.18 123.802 126.603 123.305 126.661L123.188 126.668H117.281C117.177 126.668 117.077 126.652 116.983 126.623L110.843 132.763L102.358 124.278C101.186 123.106 101.186 121.207 102.358 120.035L103.005 119.388H86.3593C85.0669 119.388 83.8283 118.888 82.9 117.998L82.7185 117.815L64.1131 98.0494C62.3426 96.1685 62.2418 93.2662 63.8774 91.2669ZM105.005 117.388L116.768 105.625L116.685 105.342C115.685 101.947 112.567 99.6153 109.027 99.6153C106.343 99.6153 104.412 100.35 103.153 101.798L102.993 101.991L102.692 102.368H89.8101C88.049 102.368 86.6213 103.796 86.6213 105.557C86.6213 107.414 87.9223 109.007 89.7214 109.391L89.916 109.428L91.1597 109.629L90.9999 111.616H86.6635L68.7093 92.4242C68.6431 92.3535 68.5723 92.2873 68.4974 92.226C67.5642 91.4625 66.1888 91.6001 65.4254 92.5333C64.4674 93.7043 64.4841 95.3821 65.4395 96.5317L65.5694 96.6786L84.1748 116.444C84.6945 116.997 85.402 117.33 86.1534 117.381L86.3593 117.388H105.005ZM129.744 124.668C130.297 124.668 130.744 125.115 130.744 125.668C130.744 126.18 130.358 126.603 129.861 126.661L129.744 126.668H127.281C126.729 126.668 126.281 126.22 126.281 125.668C126.281 125.155 126.667 124.732 127.164 124.674L127.281 124.668H129.744ZM120.035 105.186L120.123 105.108C120.515 104.797 121.087 104.823 121.45 105.186L128.52 112.258L110.842 129.935L103.772 122.864C103.381 122.473 103.381 121.84 103.772 121.449L120.035 105.186Z" fill="white"/>
</svg>
