<svg width="100" height="100" viewBox="0 0 100 100" fill="none" xmlns="http://www.w3.org/2000/svg">
<rect width="100" height="100" fill="white"/>
<path fill-rule="evenodd" clip-rule="evenodd" d="M23.8677 27L31.2788 30.2997C33.297 31.1982 34.2046 33.5626 33.3061 35.5808L27.6921 48.1901C26.7935 50.2082 24.4291 51.1158 22.4109 50.2173L14.9998 46.9176L23.8677 27Z" fill="#D8D8D8"/>
<path d="M23.8679 27L32.1926 30.7064C33.7062 31.3803 34.387 33.1536 33.7131 34.6673L33.454 35.249L55.6899 35.2499C57.6656 35.2499 59.5447 36.0845 60.8682 37.5397L61.0534 37.7518L70.335 48.82L85.0643 48.8202V73.746H39.1484L39.1482 54.3163C37.3387 54.3193 35.7251 54.0377 34.3071 53.467L34.0011 53.3379C31.0687 52.0446 28.9287 50.393 27.6101 48.3729L27.2856 49.1036C26.6117 50.6172 24.8383 51.2979 23.3247 50.624L15 46.9176L23.8679 27ZM64.7091 56.0781C66.6343 58.3209 66.4016 61.6941 64.1866 63.6512C62.0353 65.5521 58.7837 65.4145 56.7993 63.3798L56.6324 63.2007L54.4685 60.773C54.0408 61.5992 53.1962 62.1613 51.9966 62.3525L54.868 66.1668H52.0251L49.3894 62.4239H49.0394V66.1668H46.6537V56.1668L50.3625 56.1659L47.3767 52.8163C45.1157 53.5431 43.0395 54.0078 41.1481 54.206L41.1484 71.746H83.0643V50.8202L60.195 50.82L64.7091 56.0781ZM55.6899 37.2499L32.563 37.249L28.6254 46.0926C28.6591 46.1576 28.6996 46.2353 28.7423 46.3169L28.8724 46.5643C28.9575 46.7252 29.0332 46.8666 29.0631 46.9184C30.1172 48.7444 32.0202 50.2784 34.8081 51.508C37.641 52.7574 41.6691 52.5679 46.8889 50.8721L47.3667 50.7138L47.9932 50.5022L53.7711 56.9832C53.9859 57.1606 54.1675 57.3648 54.3151 57.5936L58.1254 61.87C59.3573 63.2522 61.4748 63.3785 62.8623 62.1525C64.2081 60.9634 64.3925 58.9446 63.3163 57.5348L63.1915 57.3808L56.2978 49.3497L57.8154 48.047L58.479 48.82H67.725L59.521 39.0369C58.6269 37.9708 57.3318 37.3285 55.9499 37.2566L55.6899 37.2499ZM50.9751 58.331H49.0394V60.4168H50.9751C51.8323 60.4168 52.3608 60.081 52.3608 59.3668C52.3608 58.6596 51.818 58.331 50.9751 58.331ZM24.8815 29.6406L17.6406 45.904L24.1382 48.797C24.6427 49.0216 25.2338 48.7947 25.4585 48.2901L31.886 33.8538C32.1106 33.3492 31.8837 32.7581 31.3792 32.5335L24.8815 29.6406Z" fill="#979797"/>
</svg>
