<svg width="100" height="100" viewBox="0 0 100 100" fill="none" xmlns="http://www.w3.org/2000/svg">
<rect width="100" height="100" fill="white"/>
<circle cx="70.625" cy="63.625" r="16.125" fill="#D8D8D8"/>
<path fill-rule="evenodd" clip-rule="evenodd" d="M20.2217 70.6562C19.3765 70.6562 18.5842 70.4685 17.8847 70.1336L37.6501 50.7617L40.0881 52.9539C42.3806 55.0154 45.9828 55.0154 48.2754 52.9539L50.6226 50.839L52.723 52.8105L54.0917 51.3522L52.1136 49.4955L73.5043 30.2218C73.8814 30.9268 74.0935 31.7304 74.0935 32.5849V44.3244H76.0935V32.5849C76.0935 28.6518 72.8804 25.5 68.8526 25.5H20.2217C16.1963 25.5 13 28.649 13 32.5849V65.5795C13 69.514 16.1953 72.6562 20.2217 72.6562H52.9107V70.6562H20.2217ZM36.1599 49.4218L16.2666 68.9191C15.4741 68.0291 15 66.8631 15 65.5795V32.5849C15 31.9235 15.1258 31.2931 15.356 30.7154L36.1599 49.4218ZM16.4692 29.0266L41.4254 51.4667C42.9575 52.8444 45.4059 52.8444 46.9373 51.4674L72.2286 28.6791C71.3218 27.9422 70.148 27.5 68.8526 27.5H20.2217C18.7351 27.5 17.4117 28.0829 16.4692 29.0266ZM53.5 63.625C53.5 73.0829 61.1671 80.75 70.625 80.75C80.0829 80.75 87.75 73.0829 87.75 63.625C87.75 54.1671 80.0829 46.5 70.625 46.5C61.1671 46.5 53.5 54.1671 53.5 63.625ZM70.625 78.75C78.9783 78.75 85.75 71.9783 85.75 63.625C85.75 55.2717 78.9783 48.5 70.625 48.5C62.2717 48.5 55.5 55.2717 55.5 63.625C55.5 71.9783 62.2717 78.75 70.625 78.75ZM67.0902 66.7428L64.2224 63.3251L62.6903 64.6107L66.8437 69.5605L78.4151 59.8509L77.1296 58.3188L67.0902 66.7428Z" fill="#979797"/>
</svg>
