<svg width="150" height="150" viewBox="0 0 150 150" fill="none" xmlns="http://www.w3.org/2000/svg">
<rect width="150" height="150" fill="white"/>
<path d="M38 108C47.9411 108 56 104.642 56 100.5C56 96.3579 47.9411 93 38 93C28.0589 93 20 96.3579 20 100.5C20 104.642 28.0589 108 38 108Z" fill="#E4F2D2"/>
<path fill-rule="evenodd" clip-rule="evenodd" d="M51.3457 95.1709C51.7872 95.0043 52.1759 94.7645 52.5038 94.448C55.4834 91.5706 52.3007 83.441 45.395 76.2899C38.4893 69.1389 30.4757 65.6744 27.4961 68.5517C24.5165 71.4291 27.6992 79.5587 34.6049 86.7098C37.2961 89.4966 40.1555 91.7235 42.8197 93.2334L51.3457 95.1709Z" fill="#E4F2D2"/>
<path fill-rule="evenodd" clip-rule="evenodd" d="M55.2766 124.515C55.5794 124.443 55.8035 124.381 55.9489 124.328C59.4051 123.083 63.6977 120.135 67.6761 116.015C74.5818 108.864 77.9255 100.89 75.1446 98.2048C72.3636 95.5192 64.511 99.1392 57.6053 106.29C57.2788 106.628 56.8071 107.139 56.1904 107.822L55.2766 124.515Z" fill="#E4F2D2"/>
<path fill-rule="evenodd" clip-rule="evenodd" d="M46.8887 51.9397C49.3282 59.6172 56.5145 67 64.9999 67C75.4933 67 83.9999 58.4934 83.9999 48C83.9999 37.5066 75.4933 29 64.9999 29C57.5138 29 51.5456 31.442 48.4492 37.7336L54.9385 44.7839C56.5336 46.5168 56.4218 49.2146 54.6889 50.8096C54.6631 50.8334 54.637 50.8568 54.6106 50.88C52.5959 52.6445 49.7562 53.1169 47.2787 52.0998L46.8887 51.9397ZM123.676 101.142C125.049 100.953 126.355 100.952 127.739 101.144L128.26 105.127C129.378 105.397 130.426 105.838 131.38 106.423L134.567 103.973C135.652 104.794 136.619 105.762 137.439 106.847L134.99 110.034C135.573 110.988 136.013 112.036 136.282 113.153L140.265 113.674C140.459 115.079 140.452 116.386 140.265 117.738L136.282 118.259C136.013 119.376 135.573 120.424 134.989 121.377L137.439 124.565C136.619 125.65 135.652 126.617 134.567 127.438L131.38 124.989C130.426 125.574 129.378 126.015 128.26 126.285L127.739 130.268C126.355 130.46 125.049 130.459 123.676 130.27L123.155 126.288C122.035 126.019 120.985 125.578 120.03 124.993L116.842 127.443C115.745 126.613 114.766 125.623 113.97 124.572L116.419 121.385C115.833 120.429 115.391 119.378 115.122 118.258L111.139 117.736C110.947 116.348 110.96 114.968 111.139 113.676L115.122 113.154C115.391 112.033 115.833 110.983 116.419 110.027L113.97 106.84C114.809 105.732 115.802 104.756 116.842 103.969L120.03 106.419C120.985 105.834 122.035 105.393 123.155 105.124L123.676 101.142ZM125.702 110.259C122.694 110.259 120.255 112.698 120.255 115.706C120.255 118.714 122.694 121.153 125.702 121.153C128.71 121.153 131.149 118.714 131.149 115.706C131.149 112.698 128.71 110.259 125.702 110.259Z" fill="#E4F2D2"/>
<path d="M127.388 100.093L127.876 100.153L128.631 100.258L129.165 104.338C129.757 104.518 130.333 104.744 130.887 105.013L131.299 105.224L134.562 102.716L135.17 103.176C136.2 103.955 137.13 104.858 137.939 105.862L138.237 106.244L138.697 106.852L136.188 110.116C136.478 110.66 136.726 111.225 136.928 111.807L137.072 112.248L141.151 112.781L141.256 113.537C141.437 114.85 141.456 116.101 141.316 117.39L141.256 117.875L141.151 118.63L137.072 119.164C136.892 119.756 136.667 120.33 136.398 120.884L136.188 121.296L138.697 124.56L138.237 125.168C137.458 126.197 136.556 127.128 135.552 127.938L135.17 128.236L134.562 128.696L131.299 126.188C130.755 126.479 130.189 126.727 129.606 126.93L129.165 127.074L128.631 131.154L127.876 131.259C126.569 131.44 125.319 131.46 124.027 131.32L123.54 131.26L122.784 131.156L122.25 127.078C121.657 126.898 121.08 126.672 120.524 126.402L120.111 126.192L116.847 128.7L116.239 128.24C115.213 127.464 114.271 126.548 113.467 125.552L113.173 125.175L112.713 124.567L115.22 121.304C114.928 120.758 114.679 120.191 114.476 119.605L114.332 119.163L110.253 118.629L110.148 117.873C109.971 116.589 109.954 115.284 110.09 114.013L110.148 113.539L110.253 112.783L114.332 112.249C114.512 111.655 114.739 111.077 115.009 110.521L115.22 110.108L112.713 106.845L113.173 106.237C113.951 105.208 114.869 104.267 115.863 103.465L116.239 103.172L116.847 102.712L120.111 105.22C120.656 104.929 121.223 104.68 121.808 104.478L122.25 104.334L122.784 100.256L123.54 100.152C124.845 99.9717 126.094 99.9518 127.388 100.093ZM119.978 66L115.381 80.216L122.242 80.2163V82.2163L116.088 82.2158C116.274 82.502 116.475 82.808 116.694 83.1381L117.133 83.7981C117.255 83.9801 117.388 84.1788 117.545 84.4132C117.628 84.5365 117.701 84.6465 117.768 84.7455L117.947 85.0124C118.054 85.172 118.138 85.298 118.214 85.4106C118.771 86.2427 119.186 86.8674 119.595 87.4916C119.869 87.9099 120.127 88.3091 120.375 88.6975C121.12 89.8622 124.289 94.4738 124.472 94.7464C124.965 95.4806 125.409 96.1574 125.827 96.8138L124.14 97.8876C123.731 97.2461 123.296 96.5827 122.811 95.8613C122.726 95.7338 121.841 94.4445 120.897 93.0591L120.424 92.3633C119.691 91.2839 118.997 90.2539 118.69 89.7747C118.446 89.3928 118.192 88.9997 117.922 88.5874C117.517 87.9699 117.105 87.3503 116.552 86.5234C116.401 86.2989 116.215 86.0205 115.884 85.5267C115.621 85.1345 115.425 84.8413 115.237 84.5593C114.616 83.627 114.125 82.8737 113.714 82.216L98.0077 82.2161C97.6758 82.6867 97.3473 83.1644 97.0051 83.6727C96.9001 83.8287 96.7925 83.9894 96.6801 84.1581C96.4289 84.5352 95.0097 86.6919 94.5333 87.4053C93.6882 88.6706 92.8468 89.8979 91.8821 91.2626L91.466 91.847C91.4782 91.8306 91.2968 92.0843 91.0221 92.4687L90.7523 92.8461C90.5593 93.1161 90.3435 93.4182 90.1267 93.722L89.8983 94.0421C89.4823 94.6254 89.0907 95.176 88.8794 95.4764C88.5524 95.9412 88.2491 96.3772 87.9619 96.796C86.9733 98.2373 86.1786 99.4691 85.5532 100.547C83.4099 104.242 82.4999 107.013 82.4999 110.452C82.4999 119.275 86.7324 125.21 94.0562 127.896C97.2365 129.062 100.397 129.368 106.609 129.368C110.646 129.368 112.601 129.271 114.558 128.898L114.933 130.863C112.813 131.267 110.768 131.368 106.609 131.368C100.173 131.368 96.8345 131.045 93.3676 129.774C86.0493 127.09 81.4553 121.383 80.6331 113.18C79.1679 116.142 76.8839 119.331 73.9784 122.34C66.7254 129.851 58.2146 133.53 54.6655 130.103L52.5476 128.057C49.0536 129.892 43.8191 131 37.9999 131C27.5588 131 18.9999 127.434 18.9999 122.5V100.833C18.9999 100.816 19.0031 100.798 19.0094 100.777C19.003 100.685 18.9999 100.593 18.9999 100.5C18.9999 97.5109 22.1414 95.0238 26.9396 93.5275L27.0287 93.6207L26.7962 93.3762C23.2129 89.5695 20.6286 85.5073 19.4358 82L13.9999 82C13.4477 82 12.9999 81.5523 12.9999 81C12.9999 80.4872 13.386 80.0645 13.8833 80.0067L13.9999 80L18.8961 79.9994C18.4438 77.6594 18.7493 75.688 19.9583 74.3856L20.1211 74.2195L22.4537 71.9997L17.9999 72C17.4871 72 17.0644 71.614 17.0067 71.1166L16.9999 71C16.9999 70.4872 17.386 70.0645 17.8833 70.0067L17.9999 70H24.3842C24.4381 70 24.491 70.0043 24.5425 70.0125L26.517 68.1355C26.6063 68.0305 26.7011 67.9294 26.8014 67.8325C30.3505 64.4052 38.8613 68.0847 46.1143 75.5954C53.3673 83.1061 56.7475 91.7402 53.1985 95.1675L53.1069 95.2511C55.5465 96.666 56.9999 98.4669 56.9999 100.5C56.9999 100.61 56.9957 100.719 56.9873 100.828L56.9999 100.833L57.0007 105.26C64.1364 98.0748 72.1633 94.4724 75.461 97.6282L75.4704 97.618L81.0625 102.768C81.3445 103.04 81.5827 103.345 81.7787 103.68C82.2922 102.367 82.9693 101.016 83.8231 99.5439C84.4777 98.4153 85.2979 97.1441 86.3126 95.6647C86.6045 95.2391 86.9122 94.7967 87.2435 94.3258C87.4955 93.9675 87.9994 93.2599 88.497 92.5627L88.7252 92.243C89.2568 91.4986 89.734 90.8319 89.8262 90.7036L89.8389 90.685L89.8417 90.6821L89.8317 90.6962C90.9653 89.1044 91.9151 87.7245 92.8701 86.2945C93.0587 86.0121 93.3988 85.4977 93.7554 84.9577L94.0238 84.551C94.4322 83.9322 94.8179 83.3472 94.9778 83.1062L95.0156 83.0493C95.1298 82.8779 95.2392 82.7145 95.3461 82.5556C96.0016 81.5822 96.6097 80.7151 97.2841 79.8013L92.8581 66H119.978ZM76.7417 101.507C76.5342 105.598 73.2374 111.472 68.0298 116.865C64.0571 120.979 59.6381 124.085 55.9223 125.424C55.4881 125.972 54.9452 126.488 54.2989 126.968L56.0548 128.664C58.465 130.992 65.9814 127.742 72.5397 120.951C79.0981 114.159 82.0833 106.534 79.6905 104.223L76.7417 101.507ZM125.024 102.017L124.566 102.049L124.057 105.936L123.389 106.097C122.509 106.308 121.669 106.638 120.884 107.077L120.552 107.272L119.965 107.631L116.855 105.24C116.394 105.631 115.954 106.057 115.543 106.509L115.241 106.853L117.631 109.963L117.272 110.549C116.801 111.318 116.437 112.145 116.192 113.013L116.094 113.388L115.933 114.056L112.047 114.565C111.997 115.168 111.987 115.779 112.017 116.389L112.047 116.847L115.933 117.355L116.094 118.024C116.306 118.904 116.636 119.745 117.076 120.53L117.272 120.862L117.631 121.449L115.241 124.559C115.633 125.02 116.059 125.46 116.511 125.87L116.855 126.172L119.965 123.781L120.552 124.14C121.32 124.61 122.146 124.973 123.014 125.217L123.389 125.315L124.057 125.476L124.566 129.363C125.179 129.415 125.781 129.425 126.39 129.394L126.849 129.362L127.357 125.474L128.025 125.312C128.903 125.101 129.742 124.77 130.525 124.331L130.858 124.137L131.444 123.777L134.554 126.168C135.02 125.773 135.459 125.349 135.868 124.897L136.169 124.553L133.777 121.442L134.137 120.855C134.606 120.089 134.967 119.265 135.212 118.399L135.31 118.025L135.471 117.357L139.359 116.848C139.411 116.236 139.422 115.634 139.39 115.023L139.359 114.564L135.471 114.055L135.31 113.387C135.099 112.51 134.769 111.671 134.331 110.888L134.137 110.556L133.778 109.97L136.169 106.859C135.775 106.394 135.35 105.955 134.899 105.545L134.555 105.244L131.444 107.635L130.858 107.275C130.091 106.805 129.266 106.443 128.399 106.197L128.026 106.099L127.358 105.938L126.849 102.049C126.235 101.997 125.633 101.986 125.024 102.017ZM54.9999 119.397C51.8728 122.204 45.4104 124 37.9999 124C30.5895 124 24.1271 122.204 20.9999 119.397V122.5C20.9999 125.85 28.5588 129 37.9999 129C47.4411 129 54.9999 125.85 54.9999 122.5V119.397ZM57.959 107.14C57.7903 107.314 57.3972 107.748 57.0006 108.189L56.9999 122.5C56.9999 122.6 56.9964 122.699 56.9895 122.798C60.0125 121.321 63.4403 118.738 66.5911 115.476C73.1411 108.693 76.2824 101.202 74.0843 99.0789C71.8861 96.9562 64.509 100.357 57.959 107.14ZM125.702 109.259C129.262 109.259 132.149 112.146 132.149 115.706C132.149 119.266 129.262 122.153 125.702 122.153C122.142 122.153 119.255 119.266 119.255 115.706C119.255 112.146 122.142 109.259 125.702 109.259ZM54.9999 112.397C51.8728 115.204 45.4104 117 37.9999 117C30.5895 117 24.1271 115.204 20.9999 112.397V115.5C20.9999 118.85 28.5588 122 37.9999 122C47.4411 122 54.9999 118.85 54.9999 115.5V112.397ZM125.702 111.259C123.246 111.259 121.255 113.25 121.255 115.706C121.255 118.162 123.246 120.153 125.702 120.153C128.158 120.153 130.149 118.162 130.149 115.706C130.149 113.25 128.158 111.259 125.702 111.259ZM55.0011 104.396C51.8744 107.203 45.4114 109 37.9999 109C30.5893 109 24.1268 107.204 20.9997 104.397L20.9999 108.5C20.9999 111.85 28.5588 115 37.9999 115C47.4411 115 54.9999 111.85 54.9999 108.5L55.0011 104.396ZM37.9999 94C28.5588 94 20.9999 97.1495 20.9999 100.5C20.9999 103.85 28.5588 107 37.9999 107C47.4411 107 54.9999 103.85 54.9999 100.5C54.9999 97.1495 47.4411 94 37.9999 94ZM28.1908 69.2712C25.7806 71.5987 28.7659 79.2239 35.3242 86.0153C37.7246 88.5009 40.3159 90.5853 42.8144 92.0739L43.2216 92.3096C46.1696 92.6691 48.8303 93.3298 51.0099 94.2276L50.9927 94.2355C51.3135 94.1144 51.5844 93.9458 51.8091 93.7288C54.2193 91.4013 51.234 83.7761 44.6757 76.9847C38.1173 70.1933 30.6009 66.9438 28.1908 69.2712ZM25.3878 71.9826L21.5036 75.6647C19.0935 77.9921 22.0787 85.6174 28.6371 92.4088C28.8087 92.5865 28.9815 92.7623 29.1552 92.9361C31.8013 92.3323 34.813 92 37.9999 92C38.3777 92 38.7531 92.0047 39.1256 92.0139C37.3414 90.7024 35.5668 89.1456 33.8856 87.4046C28.7396 82.0758 25.5431 76.1816 25.3878 71.9826ZM9.99994 80C10.5522 80 10.9999 80.4477 10.9999 81C10.9999 81.5128 10.6139 81.9355 10.1166 81.9933L9.99994 82H8.56274C8.01046 82 7.56274 81.5523 7.56274 81C7.56274 80.4872 7.94878 80.0645 8.44612 80.0067L8.56274 80H9.99994ZM117.23 68H95.6001L99.5179 80.216H102.435L101.364 73.0163L103.342 72.7218L104.457 80.216H108.542L109.481 73.913L111.459 74.2075L110.564 80.216H113.281L117.23 68ZM44.9319 19C47.6272 19 50.1806 20.208 51.8901 22.2918L57.7009 29.375C59.983 28.481 62.4504 28 64.9999 28C76.0456 28 84.9999 36.9543 84.9999 48C84.9999 59.0457 76.0456 68 64.9999 68C58.7367 68 53.0352 65.095 49.3329 60.4377C49.2288 60.4745 49.1167 60.4945 48.9999 60.4945H46.9999C46.4477 60.4945 45.9999 60.0468 45.9999 59.4945C45.9999 58.9422 46.4477 58.4945 46.9999 58.4945H47.9684C47.4777 57.6989 47.0402 56.8643 46.6614 55.9952C46.629 55.9984 46.5961 56 46.5627 56H40.9999C40.4477 56 39.9999 55.5523 39.9999 55C39.9999 54.4477 40.4477 54 40.9999 54H46.1332L47.8417 53.4571C50.1963 60.8672 57.1021 66 64.9999 66C74.9411 66 82.9999 57.9411 82.9999 48C82.9999 38.0589 74.9411 30 64.9999 30C59.0183 30 53.5413 32.9399 50.2073 37.7411L55.9085 43.3442C55.967 43.4017 56.0243 43.4604 56.0804 43.5202C58.3445 45.9358 58.2216 49.7294 55.806 51.9935C53.291 54.3507 49.3679 54.3165 46.8944 51.9158L34.2777 39.6705C30.6294 43.0427 25.8344 44.9284 20.8421 44.9284H18.9999V42.9284H20.8421C25.6294 42.9284 30.2148 40.9995 33.5625 37.5774L34.2591 36.8653L48.2873 50.4806C49.9946 52.1376 52.7024 52.1613 54.4383 50.5343C56.048 49.0255 56.1299 46.4976 54.6212 44.8879C54.5838 44.848 54.5456 44.8089 54.5066 44.7706L40.7797 31.2798L42.1816 29.8534L48.7622 36.3208C50.6192 33.7412 53.0419 31.6634 55.8149 30.2294L50.3438 23.5603C49.0142 21.9395 47.0283 21 44.9319 21H18.9999V19H44.9319Z" fill="#009639"/>
</svg>
