<svg width="100" height="100" viewBox="0 0 100 100" fill="none" xmlns="http://www.w3.org/2000/svg">
<rect width="100" height="100" fill="white"/>
<path d="M77.0456 45.9665C77.0456 35.1642 68.2886 26.4072 57.4863 26.4072C54.1761 26.4072 51.058 27.2295 48.3251 28.6809C45.8432 29.999 49.7104 31.4293 59.9265 32.9719L55.7453 44.6132L77.0456 45.9665ZM35.1997 29.7555C39.3841 27.3396 40.8178 21.989 38.402 17.8045C35.9861 13.6201 30.6354 12.1864 26.451 14.6023C22.2666 17.0182 20.8329 22.3688 23.2488 26.5532C25.6646 30.7377 31.0153 32.1714 35.1997 29.7555Z" fill="#E4F2D2"/>
<path d="M39.268 17.3047C40.7963 19.9519 40.942 23.0179 39.9292 25.6665L47.032 28.2607L47.1252 28.2053C50.0952 26.469 53.4608 25.5008 56.9674 25.4138L56.967 19.4812C56.967 18.9289 57.4147 18.4812 57.967 18.4812C58.5193 18.4812 58.967 18.9289 58.967 19.4812L58.9676 25.4599C69.1842 26.1873 77.3368 34.3797 78.0017 44.6135L80.4972 44.6134C81.0495 44.6134 81.4972 45.0611 81.4972 45.6134C81.4972 46.1656 81.0495 46.6134 80.4972 46.6134L54.99 46.6127L53.041 51.9997L83.9488 51.9999C84.5011 51.9999 84.9488 52.4476 84.9488 52.9999C84.9488 53.5522 84.5011 53.9999 83.9488 53.9999H77.9217V60.9989L86.5237 60.9999C87.076 60.9999 87.5237 61.4476 87.5237 61.9999C87.5237 62.5522 87.076 62.9999 86.5237 62.9999L82.2967 62.9989V85.5039L86.5238 85.5046C87.0761 85.5046 87.5237 85.9524 87.5237 86.5047C87.5237 87.0569 87.0759 87.5046 86.5236 87.5046L45.6466 87.5034C45.6302 87.5042 45.6138 87.5046 45.5973 87.5046L45.5477 87.5009L31.0236 87.4999L30.973 87.4967L15.5938 87.4968C13.9264 87.4968 12.5748 86.1452 12.5748 84.4779V65.6222C12.5748 65.2015 12.6609 64.8008 12.8164 64.437L12.51 64.3228L25.1778 30.1282C24.0686 29.3412 23.1072 28.3083 22.3827 27.0534C19.6907 22.3907 21.2882 16.4284 25.951 13.7364C30.6137 11.0444 36.5759 12.642 39.268 17.3047ZM80.2967 62.9989H70.6317V85.5029L80.2967 85.5039V62.9989ZM68.6317 62.9989H58.9667V85.5019L68.6317 85.5029V62.9989ZM56.9667 62.9989L49.06 62.9997L46.597 69.8067L46.5967 85.5009L56.9667 85.5019V62.9989ZM36.783 73.7017V75.4017L37.802 75.4022C38.3543 75.4022 38.802 75.8499 38.802 76.4022V80.44C38.802 80.9923 38.3543 81.44 37.802 81.44L36.783 81.4397V85.4997L44.5967 85.5009L44.597 75.3357L44.1805 76.4872L36.783 73.7017ZM34.7831 71.3454H14.5748V84.4779C14.5748 85.0406 15.031 85.4968 15.5938 85.4968H34.7831L34.783 81.4397L33.7641 81.44C32.0968 81.44 30.7452 80.0884 30.7452 78.4211C30.7452 76.7538 32.0968 75.4022 33.7641 75.4022L34.783 75.4017L34.7831 71.3454ZM36.802 77.4022H33.7641C33.2014 77.4022 32.7452 77.8584 32.7452 78.4211C32.7452 78.9839 33.2014 79.44 33.7641 79.44H36.802V77.4022ZM39.0201 27.4632C38.2074 28.7259 37.0897 29.8191 35.6997 30.6217C32.9194 32.2269 29.677 32.3069 26.9415 31.1213L15.2734 62.62C15.3787 62.6089 15.4856 62.6032 15.5938 62.6032H35.7831C36.3354 62.6032 36.7831 63.051 36.7831 63.6032C36.7831 64.1555 36.3354 64.6032 35.7831 64.6032H15.5938C15.031 64.6032 14.5748 65.0594 14.5748 65.6222L14.574 65.9997L35.7831 65.9999C36.3354 65.9999 36.7831 66.4476 36.7831 66.9999C36.7831 67.5522 36.3354 67.9999 35.7831 67.9999L14.574 67.9997V69.3447L36.7831 69.3454L36.783 71.5767L42.9892 73.9018L57.366 34.1701L39.0201 27.4632ZM56.9667 53.9999L52.317 53.9997L49.784 60.9997L56.9667 60.9989V53.9999ZM67.1737 53.9999H58.9667V60.9989H67.1737V53.9999ZM75.9217 53.9999H69.1737V60.9989H75.9217V53.9999ZM57.4863 27.4073C54.7004 27.4073 52.0065 28.0215 49.5559 29.1817L59.9264 32.9721L55.714 44.6127L75.997 44.6137C75.3041 34.9953 67.2813 27.4073 57.4863 27.4073ZM26.951 15.4685C23.2448 17.6082 21.975 22.3472 24.1148 26.0534C26.2545 29.7595 30.9935 31.0294 34.6997 28.8896C38.4058 26.7499 39.6756 22.0108 37.5359 18.3047C35.3962 14.5985 30.6571 13.3287 26.951 15.4685ZM33.9108 19.0011L35.2491 20.4874L28.9253 26.1814L26.5 23.4878L27.9862 22.1495L29.0733 23.3568L33.9108 19.0011Z" fill="#009639"/>
</svg>
