<svg width="100" height="100" viewBox="0 0 100 100" fill="none" xmlns="http://www.w3.org/2000/svg">
<rect width="100" height="100" fill="white"/>
<path fill-rule="evenodd" clip-rule="evenodd" d="M89.75 8C89.75 7.44772 89.3023 7 88.75 7C88.1977 7 87.75 7.44772 87.75 8V10H85.75C85.1977 10 84.75 10.4477 84.75 11C84.75 11.5523 85.1977 12 85.75 12H87.75V14C87.75 14.5523 88.1977 15 88.75 15C89.3023 15 89.75 14.5523 89.75 14V12H91.75C92.3023 12 92.75 11.5523 92.75 11C92.75 10.4477 92.3023 10 91.75 10H89.75V8Z" fill="#B2E0C4"/>
<path fill-rule="evenodd" clip-rule="evenodd" d="M10.125 89C10.125 88.4477 9.67728 88 9.125 88C8.57272 88 8.125 88.4477 8.125 89V90.5H6.625C6.07272 90.5 5.625 90.9477 5.625 91.5C5.625 92.0523 6.07272 92.5 6.625 92.5H8.125V94C8.125 94.5523 8.57272 95 9.125 95C9.67728 95 10.125 94.5523 10.125 94V92.5H11.625C12.1773 92.5 12.625 92.0523 12.625 91.5C12.625 90.9477 12.1773 90.5 11.625 90.5H10.125V89Z" fill="#B2E0C4"/>
<path fill-rule="evenodd" clip-rule="evenodd" d="M10.125 35C10.125 34.4477 9.67728 34 9.125 34C8.57272 34 8.125 34.4477 8.125 35V36.5H6.625C6.07272 36.5 5.625 36.9477 5.625 37.5C5.625 38.0523 6.07272 38.5 6.625 38.5H8.125V40C8.125 40.5523 8.57272 41 9.125 41C9.67728 41 10.125 40.5523 10.125 40V38.5H11.625C12.1773 38.5 12.625 38.0523 12.625 37.5C12.625 36.9477 12.1773 36.5 11.625 36.5H10.125V35Z" fill="#B2E0C4"/>
<path fill-rule="evenodd" clip-rule="evenodd" d="M45.6667 6C44.7462 6 44 6.74619 44 7.66667C44 8.58714 44.7462 9.33333 45.6667 9.33333C46.5871 9.33333 47.3333 8.58714 47.3333 7.66667C47.3333 6.74619 46.5871 6 45.6667 6ZM42 7.66667C42 5.64162 43.6416 4 45.6667 4C47.6917 4 49.3333 5.64162 49.3333 7.66667C49.3333 9.69171 47.6917 11.3333 45.6667 11.3333C43.6416 11.3333 42 9.69171 42 7.66667Z" fill="#99D5B0"/>
<path fill-rule="evenodd" clip-rule="evenodd" d="M95 46C94.4477 46 94 46.4477 94 47C94 47.5523 94.4477 48 95 48C95.5523 48 96 47.5523 96 47C96 46.4477 95.5523 46 95 46ZM92 47C92 45.3431 93.3431 44 95 44C96.6569 44 98 45.3431 98 47C98 48.6569 96.6569 50 95 50C93.3431 50 92 48.6569 92 47Z" fill="#99D5B0"/>
<path fill-rule="evenodd" clip-rule="evenodd" d="M92 89C90.8954 89 90 89.8954 90 91C90 92.1046 90.8954 93 92 93C93.1046 93 94 92.1046 94 91C94 89.8954 93.1046 89 92 89ZM88 91C88 88.7909 89.7909 87 92 87C94.2091 87 96 88.7909 96 91C96 93.2091 94.2091 95 92 95C89.7909 95 88 93.2091 88 91Z" fill="#7FCB9C"/>
<circle cx="29.2805" cy="30.2397" r="16.2133" fill="#E4F2D2"/>
<path fill-rule="evenodd" clip-rule="evenodd" d="M29.2805 15.0264C20.8784 15.0264 14.0671 21.8376 14.0671 30.2397C14.0671 38.6418 20.8784 45.453 29.2805 45.453C37.6826 45.453 44.4938 38.6418 44.4938 30.2397C44.4938 21.8376 37.6826 15.0264 29.2805 15.0264ZM12.0671 30.2397C12.0671 20.733 19.7738 13.0264 29.2805 13.0264C38.7871 13.0264 46.4938 20.733 46.4938 30.2397C46.4938 39.7464 38.7871 47.453 29.2805 47.453C19.7738 47.453 12.0671 39.7464 12.0671 30.2397Z" fill="#009639"/>
<circle cx="68.76" cy="69.6586" r="16.2133" fill="#E4F2D2"/>
<path fill-rule="evenodd" clip-rule="evenodd" d="M68.76 54.4453C60.3579 54.4453 53.5466 61.2566 53.5466 69.6586C53.5466 78.0607 60.3579 84.872 68.76 84.872C77.1621 84.872 83.9733 78.0607 83.9733 69.6586C83.9733 61.2566 77.1621 54.4453 68.76 54.4453ZM51.5466 69.6586C51.5466 60.152 59.2533 52.4453 68.76 52.4453C78.2666 52.4453 85.9733 60.152 85.9733 69.6586C85.9733 79.1653 78.2666 86.872 68.76 86.872C59.2533 86.872 51.5466 79.1653 51.5466 69.6586Z" fill="#009639"/>
<path fill-rule="evenodd" clip-rule="evenodd" d="M62.719 18.0518H51.48V16.0518H62.719C74.317 16.0518 83.719 25.4538 83.719 37.0518V45.5755L89.1474 40.1896L90.556 41.6093L82.667 49.4366L75.0895 41.7998L76.5092 40.3911L81.719 45.6417V37.0518C81.719 26.5583 73.2124 18.0518 62.719 18.0518ZM12.8527 61.9375L18.2811 56.5516V65.0743C18.2811 76.6723 27.6831 86.0743 39.2811 86.0743H50.5201V84.0743H39.2811C28.7877 84.0743 20.2811 75.5677 20.2811 65.0743V56.4854L25.4909 61.736L26.9106 60.3273L19.3331 52.6904L11.4441 60.5177L12.8527 61.9375Z" fill="#009639"/>
<path d="M34.2199 25.2698C32.8099 24.3298 31.1999 23.7598 29.1599 23.7598C26.1299 23.7598 23.6399 25.3198 23.6399 28.1298C23.6399 30.7298 25.7099 31.7098 27.7899 31.9998L28.8799 32.1498C30.9299 32.4298 32.0299 32.9398 32.0299 34.0398C32.0299 35.3298 30.5899 36.1098 28.7599 36.1098C27.1399 36.1098 25.3299 35.4498 24.3699 34.5698L23.1399 36.3698C24.5899 37.6198 26.8699 38.2498 28.7699 38.2498C31.7999 38.2498 34.3799 36.6898 34.3799 33.8398C34.3799 31.2398 32.1399 30.2998 29.8699 29.9898L28.8999 29.8598C27.0799 29.5998 25.9899 29.1498 25.9899 27.9898C25.9899 26.7098 27.2699 25.8998 29.1399 25.8998C30.5599 25.8998 31.8799 26.3398 33.0699 27.0998L34.2199 25.2698Z" fill="#009639"/>
<path d="M29.2805 24.5V23" stroke="#009639" stroke-width="2" stroke-linecap="square"/>
<path d="M29.2805 39.5V38" stroke="#009639" stroke-width="2" stroke-linecap="square"/>
<path d="M63.8999 63V77H66.1599V71.11H67.2999L71.7599 77H74.5599L69.9499 71.11C72.7999 71.01 74.6199 69.43 74.6199 67.05C74.6199 64.44 72.8799 63 69.6599 63H63.8999ZM69.5999 65.12C71.3699 65.12 72.2699 65.72 72.2699 67.05C72.2699 68.4 71.4199 69.06 69.5999 69.06H66.1599V65.12H69.5999Z" fill="#009639"/>
</svg>
