<svg width="150" height="150" viewBox="0 0 150 150" fill="none" xmlns="http://www.w3.org/2000/svg">
<rect width="150" height="150" fill="white"/>
<path fill-rule="evenodd" clip-rule="evenodd" d="M39.7098 75.8429L23.4228 97.0281C23.1842 97.3818 23.0047 97.6481 22.8844 97.827C16.301 107.614 18.8981 120.885 28.6852 127.468C32.3033 129.902 36.5797 131.17 40.9397 131.102L51.732 130.933C63.0973 130.755 72.1666 121.397 71.9887 110.032C71.9277 106.135 70.7615 102.335 68.6257 99.0753C62.1762 89.2309 56.8035 81.4867 52.5076 75.8429L58.8488 65.5752H34.2873L39.7098 75.8429Z" fill="#B3D4F1"/>
<path fill-rule="evenodd" clip-rule="evenodd" d="M78.729 104.239H76.543L80.242 122.212L78.729 104.239Z" fill="#B3D4F1"/>
<path fill-rule="evenodd" clip-rule="evenodd" d="M80.9923 128.625L76.293 102.348L126.78 93.4454L127.431 97.1345L81.3265 103.264L80.9923 128.625Z" fill="#B3D4F1"/>
<path fill-rule="evenodd" clip-rule="evenodd" d="M78.1452 104.025L128.497 97.4675L129.892 103.753L78.1452 104.025Z" fill="#B3D4F1"/>
<path fill-rule="evenodd" clip-rule="evenodd" d="M104.777 86.7602C111.896 86.7602 117.666 80.9896 117.666 73.8713C117.666 73.7174 117.191 74.7099 116.918 74.9921C116.174 75.7602 115.028 76.7526 114.597 76.7724C112.773 76.8561 111.034 75.3047 110.204 73.8713C110.084 73.6631 115.695 67.0131 115.563 66.8124C113.261 63.3013 109.29 60.9824 104.777 60.9824C97.6592 60.9824 91.8887 66.753 91.8887 73.8713C91.8887 80.9896 97.6592 86.7602 104.777 86.7602Z" fill="#B3D4F1"/>
<path d="M39.25 37C42.1495 37 44.5 34.6495 44.5 31.75C44.5 28.8505 42.1495 26.5 39.25 26.5C36.3505 26.5 34 28.8505 34 31.75C34 34.6495 36.3505 37 39.25 37ZM39.25 35C37.4551 35 36 33.5449 36 31.75C36 29.9551 37.4551 28.5 39.25 28.5C41.0449 28.5 42.5 29.9551 42.5 31.75C42.5 33.5449 41.0449 35 39.25 35ZM115.5 44C117.433 44 119 42.433 119 40.5C119 38.567 117.433 37 115.5 37C113.567 37 112 38.567 112 40.5C112 42.433 113.567 44 115.5 44ZM115.5 42C114.672 42 114 41.3284 114 40.5C114 39.6716 114.672 39 115.5 39C116.328 39 117 39.6716 117 40.5C117 41.3284 116.328 42 115.5 42Z" fill="#B3D4F1"/>
<path d="M122.66 21.5C123.212 21.5 123.66 21.9477 123.66 22.5L123.659 23.239L124.4 23.2397C124.913 23.2397 125.335 23.6258 125.393 24.1231L125.4 24.2397C125.4 24.792 124.952 25.2397 124.4 25.2397L123.659 25.239L123.66 25.9794C123.66 26.4923 123.274 26.9149 122.777 26.9727L122.66 26.9794C122.108 26.9794 121.66 26.5317 121.66 25.9794L121.659 25.239L120.92 25.2397C120.407 25.2397 119.985 24.8537 119.927 24.3563L119.92 24.2397C119.92 23.6874 120.368 23.2397 120.92 23.2397L121.659 23.239L121.66 22.5C121.66 21.9872 122.046 21.5645 122.543 21.5067L122.66 21.5ZM27.0747 47.5C27.6269 47.5 28.0747 47.9477 28.0747 48.5L28.0737 50.73L30.3056 50.7309C30.8184 50.7309 31.2411 51.1169 31.2988 51.6143L31.3056 51.7309C31.3056 52.2832 30.8578 52.7309 30.3056 52.7309L28.0737 52.73L28.0747 54.9618C28.0747 55.4746 27.6886 55.8973 27.1913 55.9551L27.0747 55.9618C26.5224 55.9618 26.0747 55.5141 26.0747 54.9618L26.0737 52.73L23.8438 52.7309C23.3309 52.7309 22.9082 52.3449 22.8505 51.8475L22.8438 51.7309C22.8438 51.1786 23.2915 50.7309 23.8438 50.7309L26.0737 50.73L26.0747 48.5C26.0747 47.9872 26.4607 47.5645 26.958 47.5067L27.0747 47.5Z" fill="#B3D4F1" fill-opacity="0.5"/>
<path d="M104.698 26.25L93.9927 44.982L95.5256 44.9912C96.0384 44.9942 96.4588 45.3828 96.5136 45.8805L96.5196 45.9971C96.5165 46.51 96.128 46.9303 95.6303 46.9851L95.5136 46.9911L94.2467 46.983L103.504 59.3389C103.779 59.3233 104.055 59.3153 104.334 59.3153C106.336 59.3153 108.268 59.7294 110.031 60.4931L112.23 57.1525C113.475 55.2604 115.554 54.0923 117.807 54.0052L118.078 54H135.376V56H118.078C116.475 56 114.975 56.7676 114.037 58.0549L113.901 58.2518L111.816 61.4207C113.38 62.3781 114.758 63.635 115.866 65.1348L119.826 61.1491L121.244 62.5586L112.044 71.8202C111.152 72.718 111.157 74.1688 112.055 75.0606L112.126 75.1285L112.265 75.2464C113.252 76.0311 114.66 76.0121 115.626 75.2022L115.767 75.0747L125.415 65.7458L126.11 66.4512C128.401 68.7753 131.541 70.0547 134.793 70.0013L135.142 69.9904L135.509 69.9737L135.6 71.9716L135.234 71.9883C131.751 72.1475 128.353 70.9941 125.698 68.7858L125.406 68.5361L118.592 75.1264C117.846 82.3989 111.701 87.982 104.334 87.982C96.4176 87.982 90.0004 81.5647 90.0004 73.6487C90.0004 66.7955 94.8099 61.0658 101.238 59.6505L91.7357 46.968L71.8477 46.849L59.709 66.2062L59.6541 66.172L53.7188 75.7852L54.4467 76.7548L55.2058 77.7783L55.9848 78.8405L56.7836 79.9416L58.0191 81.6659L58.8675 82.864L60.1775 84.7338L61.0757 86.0289L61.9937 87.3628L62.9316 88.7355L64.3757 90.8673L65.8646 93.0866L66.3708 93.8457L67.9194 96.1815L69.4622 98.5275C71.7018 101.946 72.9247 105.93 72.9887 110.016C73.1272 118.864 67.9218 126.551 60.3547 130.001L80.0003 130L79.9997 125.047L75.1687 102.316L124.413 91.8489C123.477 89.9116 122.16 87.7352 120.461 85.3289L120.149 84.8907L117.21 81.0944L118.791 79.87L121.752 83.6957C123.799 86.5499 125.357 89.1224 126.423 91.4224L126.981 91.3026L128.175 96.1756L129.782 95.9498L130.86 103L133 103L133 130H136C136.513 130 136.936 130.386 136.994 130.883L137 131C137 131.513 136.614 131.936 136.117 131.993L136 132H47.4053L40.9554 132.102C40.1181 132.115 39.2837 132.081 38.4559 132.001L16.0004 132C15.4481 132 15.0004 131.552 15.0004 131C15.0004 130.487 15.3864 130.064 15.8838 130.007L16.0004 130L31.1374 130.001C30.0961 129.514 29.0894 128.945 28.1272 128.298C17.9875 121.478 15.22 107.8 21.8446 97.5871L22.0547 97.2691L22.6302 96.4188L37.6791 76.8424L36.4604 76.8431C35.9476 76.8431 35.5249 76.4571 35.4671 75.9598L35.4604 75.8431C35.4604 75.3303 35.8465 74.9076 36.3438 74.8499L36.4604 74.8431L38.0501 74.8424L32.6285 64.5754L58.3701 64.575L69.8681 46.2373C69.8154 46.1146 69.7866 45.9792 69.7874 45.8371C69.7884 45.6744 69.8282 45.5209 69.8981 45.3855L60.9918 26.25H104.698ZM12.2754 130C12.8277 130 13.2754 130.448 13.2754 131C13.2754 131.513 12.8894 131.936 12.392 131.993L12.2754 132H9.82129C9.269 132 8.82129 131.552 8.82129 131C8.82129 130.487 9.20733 130.064 9.70467 130.007L9.82129 130H12.2754ZM142.275 130C142.828 130 143.275 130.448 143.275 131C143.275 131.513 142.889 131.936 142.392 131.993L142.275 132H139.821C139.269 132 138.821 131.552 138.821 131C138.821 130.487 139.207 130.064 139.705 130.007L139.821 130H142.275ZM52.0091 76.8424H40.2021L24.2519 97.5876L23.5105 98.6941C17.4944 107.991 20.0172 120.433 29.2434 126.639C32.0331 128.515 35.2332 129.665 38.554 130.001L47.4373 130L51.7164 129.933C62.5296 129.764 71.1582 120.861 70.9889 110.048C70.9309 106.34 69.8213 102.725 67.7893 99.6236L65.7362 96.5057L64.2461 94.2643L62.7986 92.1059L61.3939 90.0308L60.0318 88.0387L59.1474 86.7569L57.8564 84.9035L57.0195 83.714L56.2016 82.5616L55.4026 81.4461L54.6227 80.3676L53.8617 79.3261L53.1197 78.3216L52.3967 77.354L52.0091 76.8424ZM131 105H82.0004V130H131V105ZM100.997 125L101.003 127L88.9538 127.037L88.9477 125.037L100.997 125ZM93.7547 121.037V123.037H88.9507V121.037H93.7547ZM93.2112 108.587C95.6149 108.587 96.9032 109.724 96.9032 111.653C96.9032 113.308 95.7517 114.438 93.8157 114.625L96.9175 118.663H94.485L91.5488 114.654H90.9586V118.663H88.9507V108.587H93.2112ZM93.1752 110.437H90.9586V112.905H93.1752C94.2691 112.905 94.8377 112.502 94.8377 111.653C94.8377 110.818 94.2404 110.437 93.1752 110.437ZM79.9997 104.965L79.5687 105.027L79.9997 108.094V104.965ZM128.104 98.2054L93.9847 103H128.837L128.104 98.2054ZM125.228 93.7207L85.3777 102.19L126.016 96.4801C125.873 95.6377 125.61 94.7174 125.228 93.7207ZM104.334 61.3153C97.5222 61.3153 92.0004 66.8371 92.0004 73.6487C92.0004 80.4602 97.5222 85.982 104.334 85.982C109.854 85.982 114.578 82.3377 116.129 77.2649C114.495 78.1473 112.442 77.9842 110.958 76.7617L110.779 76.6067L110.646 76.4795C109.018 74.8631 108.957 72.2664 110.469 70.5766L110.625 70.4107L114.437 66.5734C112.152 63.3129 108.415 61.3153 104.334 61.3153ZM104.521 68.7444C106.658 68.7444 107.803 69.7551 107.803 71.4695C107.803 72.9409 106.779 73.9452 105.058 74.1115L107.816 77.7003H105.653L103.043 74.1371H102.519V77.7003H100.734V68.7444H104.521ZM57.056 66.5754H35.9464L40.3121 74.8424H42.5241L40.9209 71.0537C40.721 70.5815 40.9118 70.0418 41.3473 69.7947L41.452 69.7431C41.9243 69.5432 42.464 69.734 42.7111 70.1695L42.7627 70.2743L44.6961 74.8424H47.0421L48.9767 70.2743C49.1919 69.7657 49.7787 69.5278 50.2873 69.7431C50.7959 69.9583 51.0338 70.5451 50.8185 71.0537L49.2141 74.8424H51.9491L57.056 66.5754ZM104.489 70.3884H102.519V72.5826H104.489C105.462 72.5826 105.967 72.2244 105.967 71.4695C105.967 70.7275 105.436 70.3884 104.489 70.3884ZM101.251 28.25H64.1286L71.8537 44.849L76.5927 44.877L73.3966 36.2261C73.2189 35.7451 73.4345 35.2148 73.881 34.9882L73.988 34.9415C74.4691 34.7638 74.9994 34.9794 75.2259 35.4258L75.2727 35.5329L78.7297 44.89L84.0097 44.922L85.9767 40.2743C86.1919 39.7657 86.7787 39.5278 87.2873 39.7431C87.7959 39.9583 88.0338 40.5451 87.8185 41.0537L86.1747 44.935L91.6977 44.968L101.251 28.25Z" fill="#006FCF"/>
</svg>
