<svg width="100" height="100" viewBox="0 0 100 100" fill="none" xmlns="http://www.w3.org/2000/svg">
<rect width="100" height="100" fill="white"/>
<path fill-rule="evenodd" clip-rule="evenodd" d="M73.5 80V77.8499C73.5 77.2471 73.1368 76.706 72.588 76.4923C66.1484 73.978 58.9998 70.8559 58.399 68.9105V66.8696C59.7349 65.4889 60.7885 63.5633 61.4121 61.3088C62.9103 60.2459 63.2827 58.055 62.0427 56.5137V51.945C62.0427 47.2286 59.4433 44 53.5007 44C47.7114 44 44.9556 47.2286 44.9556 51.945V56.5152C43.7183 58.0541 44.09 60.2437 45.5862 61.3078C46.2096 63.5631 47.2641 65.4887 48.6008 66.8694V68.9103C48.0017 70.8534 40.8513 73.9763 34.412 76.4921C33.8632 76.7073 33.5 77.2466 33.5 77.8497V79.9998" fill="url(#paint0_linear)" fill-opacity="0.3"/>
<path fill-rule="evenodd" clip-rule="evenodd" d="M38.9991 70.9618C38.7836 70.8705 38.5422 70.7674 38.284 70.6558C34.73 69.1192 31.5493 67.4831 31.216 66.3734V64.8884C32.1611 63.8838 32.9065 62.4827 33.3478 60.8423C34.4077 60.0689 34.6712 58.4747 33.7939 57.3533V54.0289C33.7939 50.5972 31.9549 48.248 27.7505 48.248C23.6546 48.248 21.7049 50.5972 21.7049 54.0289V57.3543C20.8295 58.4741 21.0924 60.0672 22.151 60.8415C22.5921 62.4825 23.3381 63.8836 24.2838 64.8882V66.3732C23.8599 67.7871 18.8011 70.0594 14.2453 71.8899C13.857 72.0465 13.6001 72.4389 13.6001 72.8777V74.4422" fill="url(#paint1_linear)" fill-opacity="0.3"/>
<path d="M53.5008 43C59.6864 43 63.0428 46.3661 63.0428 51.945V56.1861C64.2847 58.0249 63.9346 60.4953 62.2837 61.8969C61.6569 64.0027 60.6648 65.8495 59.3991 67.2627V68.7232C60.0321 69.9639 65.224 72.5435 72.9511 75.5605C73.887 75.925 74.5001 76.838 74.5001 77.8499V80H72.5001V77.8499C72.5001 77.6559 72.3867 77.487 72.2244 77.4238C63.1322 73.8738 58.1068 71.3528 57.4437 69.2056L57.3991 69.0614V66.465L57.6804 66.1743C58.9031 64.9106 59.8715 63.1278 60.4484 61.0422L60.5433 60.6992L60.8335 60.4932C61.8958 59.7396 62.1167 58.2009 61.2637 57.1406L61.0428 56.8661V51.945C61.0428 47.4694 58.5805 45 53.5008 45C48.5161 45 45.9557 47.5315 45.9557 51.945V56.8673L45.7351 57.1418C44.8841 58.2002 45.1048 59.7383 46.1659 60.4929L46.4555 60.6988L46.5502 61.0414C47.1267 63.1269 48.0956 64.9098 49.3193 66.1738L49.6009 66.4646V69.061L49.5565 69.205C48.895 71.3503 43.8741 73.869 34.7772 77.423C34.6134 77.4872 34.5001 77.6558 34.5001 77.8497V80H32.5001V77.8497C32.5001 76.8384 33.1123 75.9276 34.0482 75.5606C41.7788 72.5404 46.9694 69.9615 47.6009 68.7232V67.2627C46.3339 65.849 45.3411 64.0016 44.7146 61.8953C43.0661 60.493 42.7163 58.0246 43.9557 56.1877V51.945C43.9557 46.4218 47.4165 43 53.5008 43ZM87.5001 20.5V80H85.5001V22.5H53.5001V40H51.5001V20.5H87.5001ZM27.7505 47.2483C32.2949 47.2483 34.7939 49.8258 34.7939 54.0292V57.0405C35.6782 58.4563 35.4236 60.3149 34.2253 61.4143C33.7816 62.9142 33.0931 64.2376 32.216 65.2699V66.1747C32.5933 66.7761 35.0497 68.1682 38.6809 69.7382C38.9198 69.8414 39.1566 69.9427 39.3891 70.0413L38.609 71.8828C38.372 71.7824 38.1307 71.6792 37.8872 71.5739C33.2188 69.5555 30.6887 68.0944 30.2583 66.6613L30.216 66.5206V64.4922L30.4877 64.2035C31.3201 63.3186 31.9846 62.0605 32.3821 60.5828L32.4736 60.2425L32.7583 60.0347C33.3845 59.5779 33.5177 58.6235 33.0063 57.9697L32.7939 57.6983V54.0292C32.7939 50.9168 31.1763 49.2483 27.7505 49.2483C24.3909 49.2483 22.7049 50.9628 22.7049 54.0292V57.6991L22.4927 57.9705C21.9826 58.623 22.1158 59.5771 22.7414 60.0347L23.0254 60.2424L23.1168 60.5822C23.5139 62.0598 24.1788 63.318 25.0119 64.2031L25.2838 64.4919V66.5202L25.2417 66.6607C24.7351 68.3504 21.2064 70.1709 14.6193 72.8176C14.6146 72.8195 14.6001 72.8417 14.6001 72.878V74.4424H12.6001V72.878C12.6001 72.0374 13.0989 71.2743 13.8725 70.9622C16.5235 69.8971 18.6966 68.9428 20.3556 68.0869C21.9948 67.2412 23.0537 66.4994 23.2838 66.167V65.27C22.4058 64.2373 21.7168 62.9134 21.2732 61.413C20.0768 60.3132 19.8224 58.4561 20.7049 57.0417V54.0292C20.7049 49.8656 23.2788 47.2483 27.7505 47.2483ZM71.0415 65.0274V67.7683H68.3006V65.0274H71.0415ZM80.1779 65.0274V67.7683H77.437V65.0274H80.1779ZM71.0415 55.891V58.632H68.3006V55.891H71.0415ZM80.1779 55.891V58.632H77.437V55.891H80.1779ZM71.0415 46.7546V49.4956H68.3006V46.7546H71.0415ZM80.1779 46.7546V49.4956H77.437V46.7546H80.1779ZM71.0415 37.6182V40.3592H68.3006V37.6182H71.0415ZM80.1779 37.6182V40.3592H77.437V37.6182H80.1779ZM61.9051 28.4818V31.2228H59.1642V28.4818H61.9051ZM71.0415 28.4818V31.2228H68.3006V28.4818H71.0415ZM80.1779 28.4818V31.2228H77.437V28.4818H80.1779Z" fill="#979797"/>
<defs>
<linearGradient id="paint0_linear" x1="53.5" y1="44" x2="53.5" y2="90.4774" gradientUnits="userSpaceOnUse">
<stop stop-color="#979797"/>
<stop offset="0.72104" stop-color="white" stop-opacity="0.4"/>
<stop offset="0.85275" stop-color="white" stop-opacity="0"/>
<stop offset="1" stop-color="white" stop-opacity="0"/>
</linearGradient>
<linearGradient id="paint1_linear" x1="26.2996" y1="48.248" x2="26.2996" y2="82.0657" gradientUnits="userSpaceOnUse">
<stop stop-color="#979797"/>
<stop offset="0.72104" stop-color="white" stop-opacity="0.4"/>
<stop offset="0.85275" stop-color="white" stop-opacity="0"/>
<stop offset="1" stop-color="white" stop-opacity="0"/>
</linearGradient>
</defs>
</svg>
