<svg width="100" height="100" viewBox="0 0 100 100" fill="none" xmlns="http://www.w3.org/2000/svg">
<rect width="100" height="100" fill="white"/>
<path d="M14.1663 22.5166L25.3431 78.3652L24.7027 20.6587L14.1663 22.5166Z" fill="#E4F2D2"/>
<path d="M73.3459 13.5H25.3459V77.5H73.3459V13.5Z" fill="white"/>
<path d="M73.4979 50.992C65.9062 50.992 59.7519 44.8377 59.7519 37.246C59.7519 29.6543 65.9062 23.5 73.4979 23.5C81.0896 23.5 87.2439 29.6543 87.2439 37.246C87.2439 44.8377 81.0896 50.992 73.4979 50.992Z" fill="#E4F2D2"/>
<path fill-rule="evenodd" clip-rule="evenodd" d="M24.844 78.3652H61.841L26.147 84.6592L24.844 78.3652Z" fill="#E4F2D2"/>
<path d="M74.5953 12L74.5957 22.5402C82.2276 23.1014 88.2451 29.4712 88.2451 37.2464C88.2451 41.2132 86.6788 44.8142 84.1309 47.4647L93.2258 56.5592L91.8116 57.9734L82.6491 48.8112C80.4032 50.5906 77.6269 51.7296 74.596 51.9526L74.5953 78.3655L73.081 78.365L73.0895 78.4126L24.5242 86.9759L13 21.6187L24.428 19.603L24.4286 12H74.5953ZM61.837 78.365H25.036L26.1466 84.659L61.837 78.365ZM72.5953 14H26.4286V76.3655H72.5953L72.595 51.9655C64.8717 51.4986 58.7523 45.0871 58.7523 37.2464C58.7523 29.4056 64.8717 22.9941 72.595 22.5272L72.5953 14ZM24.428 21.634L15.3169 23.241L24.428 74.916V21.634ZM53.3432 63.5V65.5H32.3432V63.5H53.3432ZM67.4146 56.5V58.5H32.4146V56.5H67.4146ZM53.3432 49.5V51.5H32.3432V49.5H53.3432ZM73.4987 24.5C66.4591 24.5 60.7523 30.2068 60.7523 37.2464C60.7523 44.286 66.4591 49.9928 73.4987 49.9928C80.5383 49.9928 86.2451 44.286 86.2451 37.2464C86.2451 30.2068 80.5383 24.5 73.4987 24.5ZM38.7664 26.4C42.4694 26.4 44.4704 28.056 44.4704 31.0575C44.4704 33.7945 42.3774 35.6115 39.0999 35.7265L44.4014 42.5H41.1814L36.0524 35.7265H34.7414V42.5H32.1424V26.4H38.7664ZM38.6974 28.838H34.7414V33.369H38.6974C40.7904 33.369 41.7679 32.61 41.7679 31.0575C41.7679 29.528 40.7329 28.838 38.6974 28.838Z" fill="#009639"/>
</svg>
