<svg width="100" height="100" viewBox="0 0 100 100" fill="none" xmlns="http://www.w3.org/2000/svg">
<rect width="100" height="100" fill="white"/>
<path d="M28.371 28.9952C28.1904 30.9973 26.5076 32.5662 24.4585 32.5662C22.4093 32.5662 20.7265 30.9973 20.5459 28.9952H28.371ZM51.4752 52.9822V23.1093C51.4752 22.6347 51.8599 22.25 52.3344 22.25C52.7724 22.25 53.1403 22.5794 53.1885 23.0147C53.3821 24.7638 53.7457 28.5224 54.2792 34.2905C54.4169 35.7796 53.3214 37.0984 51.8323 37.2362C51.7494 37.2439 51.6662 37.2477 51.5829 37.2477L51.4752 52.9822ZM59.1761 49.4455H79.3833C82.1863 49.8242 83.5878 51.5514 83.5878 54.6269V70.4604C83.5878 73.0166 81.5305 75.0889 78.9927 75.0889H59.0997H50.0778H44.2229C41.685 75.0889 39.6277 73.0166 39.6277 70.4604V62.6701C39.4096 63.7706 42.736 62.47 49.6071 58.7684C56.4782 55.0668 59.6679 51.9592 59.1761 49.4455Z" fill="#339C63"/>
<path d="M83.0198 55C85.4872 55 88.4874 57.022 88.4874 59.5164V74.9743C88.4874 77.4687 86.4872 79.4907 84.0198 79.4907H63.6787L55.751 87.3483C55.6582 87.4403 55.5334 87.4918 55.4035 87.4918C55.1293 87.4918 54.9071 87.2672 54.9071 86.99V79.4907H48.4676C46.0002 79.4907 44 77.4687 44 74.9743H79.5572C81.8656 74.9762 83.0198 73.2415 83.0198 69.7702C83.0198 66.299 83.0198 61.3756 83.0198 55Z" fill="#339C63"/>
<path d="M37.8269 12.1738C51.8846 12.1738 63.2807 23.5699 63.2807 37.6276C63.2807 41.1137 62.5798 44.4361 61.3114 47.4617L79.7501 47.4608L79.8828 47.4697C83.1445 47.9065 84.9137 49.9745 85.0046 53.3833L85.0092 53.894C87.5263 54.391 89.4431 56.5545 89.5537 59.1846L89.5587 59.4249V75.6597C89.5587 78.702 87.1431 81.1804 84.1217 81.294L83.9049 81.2981H64.1655L56.1989 89.0833C55.9153 89.3604 55.5344 89.5155 55.138 89.5155C54.3473 89.5155 53.6969 88.9109 53.6271 88.1381L53.6209 88.0001V81.2981H48.8322C45.819 81.2981 43.3553 78.9469 43.1876 75.9824C40.6581 75.4883 38.7321 73.3072 38.6321 70.659L38.628 70.4423L38.6272 63.0691C38.3614 63.0773 38.0946 63.0814 37.8269 63.0814C23.7691 63.0814 12.373 51.6854 12.373 37.6276C12.373 23.5699 23.7691 12.1738 37.8269 12.1738ZM85.009 55.9555L85.0083 70.4423C85.0083 73.4887 82.593 75.9711 79.5714 76.0849L79.3545 76.089L45.2037 76.0896C45.4099 77.8335 46.8549 79.2009 48.6398 79.2931L48.8322 79.2981H55.6209V86.8517L63.3505 79.2981H83.9049C85.8585 79.2981 87.4528 77.7718 87.5536 75.8528L87.5587 75.6597V59.4249C87.5587 57.7991 86.4876 56.4216 85.009 55.9555ZM55.5001 55.9457L71.5818 55.9456C72.1341 55.9456 72.5818 56.3933 72.5818 56.9456C72.5818 57.4584 72.1958 57.8811 71.6984 57.9389L71.5818 57.9456L53.1617 57.9454C49.598 60.6393 45.3034 62.4173 40.628 62.9291V70.4423C40.628 72.391 42.1597 73.9832 44.0877 74.0839L44.2818 74.089H79.3545C81.3077 74.089 82.9024 72.5596 83.0032 70.636L83.0083 70.4423V53.6626C83.0083 51.1723 82.033 49.8757 79.9054 49.4968L79.6812 49.4608L60.3682 49.4618C59.0967 51.8787 57.4479 54.0661 55.5001 55.9457ZM71.5818 64.7691C72.1341 64.7691 72.5818 65.2168 72.5818 65.7691C72.5818 66.282 72.1958 66.7046 71.6984 66.7624L71.5818 66.7691H52.0545C51.5022 66.7691 51.0545 66.3214 51.0545 65.7691C51.0545 65.2563 51.4405 64.8336 51.9379 64.7759L52.0545 64.7691H71.5818ZM37.8269 14.1738C30.893 14.1738 24.662 17.1827 20.3682 21.966C20.5114 21.8862 20.6752 21.8416 20.8495 21.8416C21.3623 21.8416 21.785 22.2277 21.8427 22.725L21.8495 22.8416V27.4296H23.5455L23.546 22.6596C23.546 22.1468 23.932 21.7241 24.4294 21.6664L24.546 21.6596C25.0588 21.6596 25.4815 22.0457 25.5392 22.543L25.546 22.6596L25.5455 27.4296H27.2425L27.2425 22.8416C27.2425 22.3288 27.6285 21.9061 28.1259 21.8483L28.2425 21.8416C28.7553 21.8416 29.178 22.2277 29.2357 22.725L29.2425 22.8416V29.4815C29.2425 31.6889 27.6559 33.5253 25.5463 33.9735L25.546 53.0496C25.546 53.6019 25.0983 54.0496 24.546 54.0496C24.0331 54.0496 23.6105 53.6636 23.5527 53.1663L23.546 53.0496L23.5457 33.9735C21.5064 33.5403 19.9558 31.8098 19.8547 29.701L19.8495 29.4815V22.8416C19.8495 22.7167 19.8724 22.5971 19.9142 22.4869C16.4574 26.5725 14.373 31.8566 14.373 37.6276C14.373 50.5808 24.8737 61.0814 37.8269 61.0814C50.78 61.0814 61.2807 50.5808 61.2807 37.6276C61.2807 24.6745 50.78 14.1738 37.8269 14.1738ZM52.9868 21.2501C53.9345 21.2501 54.7306 21.9629 54.8348 22.9048L55.0249 24.7218L55.539 30.0358L55.9273 34.1985C56.0924 35.9829 54.9641 37.5888 53.3131 38.0884L53.1276 38.1394V52.9823C53.1276 53.5346 52.6799 53.9823 52.1276 53.9823C51.6147 53.9823 51.1921 53.5963 51.1343 53.099L51.1276 52.9823V23.1094C51.1276 22.0825 51.96 21.2501 52.9868 21.2501ZM27.7952 45.4155C30.2135 48.5873 33.9616 50.4848 38.0262 50.4848C42.064 50.4848 45.7901 48.6124 48.211 45.4759C48.5484 45.0387 49.1764 44.9578 49.6136 45.2952C50.0508 45.6327 50.1317 46.2606 49.7942 46.6978C46.9986 50.3199 42.6905 52.4848 38.0262 52.4848C33.3309 52.4848 28.9974 50.2909 26.2047 46.6282C25.8699 46.189 25.9544 45.5615 26.3936 45.2266C26.8328 44.8918 27.4603 44.9763 27.7952 45.4155ZM53.1276 25.8509V35.9966C53.6644 35.6672 53.9978 35.0522 53.9358 34.3827L53.418 28.8537L53.1276 25.8509ZM27.2425 29.4296H21.8495V29.4815C21.8495 30.8544 22.9601 31.9878 24.3748 32.073L24.546 32.0781C25.9837 32.0781 27.1496 30.9975 27.2372 29.645L27.2425 29.4296ZM38.0262 22.7705C42.7067 22.7705 47.0281 24.9505 49.8222 28.5938C50.1583 29.0321 50.0755 29.6598 49.6373 29.9959C49.199 30.332 48.5713 30.2492 48.2352 29.8109C45.8156 26.656 42.078 24.7705 38.0262 24.7705C35.5285 24.7705 33.1389 25.4829 31.0843 26.8036C30.6197 27.1022 30.001 26.9677 29.7023 26.5031C29.4037 26.0385 29.5383 25.4198 30.0028 25.1212C32.3777 23.5947 35.1422 22.7705 38.0262 22.7705Z" fill="white"/>
</svg>
