<svg width="100" height="100" viewBox="0 0 100 100" fill="none" xmlns="http://www.w3.org/2000/svg">
<rect width="100" height="100" fill="white"/>
<path fill-rule="evenodd" clip-rule="evenodd" d="M63.391 35.9736C70.0737 35.9736 75.491 41.4156 75.491 48.1286C75.491 52.604 71.4577 61.019 63.391 73.3736C55.3244 61.019 51.291 52.604 51.291 48.1286C51.291 41.4156 56.7084 35.9736 63.391 35.9736ZM63.391 43.6736C60.961 43.6736 58.991 45.6436 58.991 48.0736C58.991 50.5037 60.961 52.4736 63.391 52.4736C65.8211 52.4736 67.791 50.5037 67.791 48.0736C67.791 45.6436 65.8211 43.6736 63.391 43.6736Z" fill="#B3D4F1"/>
<path d="M38.5 81.8535C44.299 81.8535 49 77.1525 49 71.3535C49 65.5545 44.299 60.8535 38.5 60.8535C32.701 60.8535 28 65.5545 28 71.3535C28 77.1525 32.701 81.8535 38.5 81.8535Z" fill="#B3D4F1"/>
<path d="M70.3258 63.9997H80.7168L87.9094 82.9997H37.9997V82.9891C31.8804 82.7273 26.9997 77.6835 26.9997 71.4997C26.9997 65.1485 32.1484 59.9997 38.4997 59.9997C41.9854 59.9997 45.1088 61.5505 47.2178 63.9997H56.4551C52.3447 56.7565 50.2905 51.4921 50.2905 48.1283C50.2905 45.6904 50.951 43.4071 52.1022 41.4493L46.4823 44.669C46.4141 44.7399 46.3342 44.8019 46.2436 44.8518L30.5037 53.5236C30.02 53.7901 29.4118 53.614 29.1453 53.1303C28.8788 52.6465 29.0549 52.0384 29.5386 51.7719L37.6188 47.3201C35.9187 47.7147 34.0743 48.1024 32.0844 48.4768C29.127 49.0332 25.9489 49.5399 22.5478 49.9858C22.026 50.0542 21.5916 49.8848 21.2845 49.5932L15.9389 52.6557C15.4596 52.9303 14.8486 52.7643 14.5741 52.2851C14.2995 51.8059 14.4654 51.1949 14.9446 50.9203L21.3549 47.2479C21.4202 47.1962 21.4916 47.1479 21.5692 47.1034L22.3258 46.6699L11.7188 39.415L15.8813 37.0306L16.2558 37.1109C18.7426 37.6444 26.9772 39.5514 28.4744 39.8292C31.1875 40.3325 32.6917 40.3199 34.1557 39.7718C34.5648 39.6187 34.984 39.4181 35.4338 39.1605L46.5034 32.8186L32.8238 20.3067L35.7465 18.6323L57.8505 26.3174L70.8131 18.8909C70.8826 18.852 71.0107 18.7819 71.1923 18.6851C71.4919 18.5253 71.8345 18.3477 72.2151 18.1567C73.3007 17.6119 74.4752 17.0673 75.6981 16.5584C77.3698 15.8628 79.0001 15.2894 80.5445 14.88C83.4901 14.0991 85.9601 13.95 87.84 14.6315C89.2872 15.1561 89.909 16.2644 89.4877 17.5716C89.2038 18.4524 88.4655 19.3763 87.3404 20.4015C86.6899 20.9943 85.9168 21.6118 85.0455 22.2461C84.1147 22.9238 83.1209 23.5856 82.1274 24.2061C81.7799 24.4232 81.457 24.6197 81.1668 24.7925C80.9913 24.8969 80.8647 24.9707 80.7951 25.0106L63.4056 34.9734C70.6346 34.9815 76.4905 40.8691 76.4905 48.1283C76.4905 51.4921 74.4362 56.7565 70.3258 63.9997ZM69.1683 65.9997C67.7327 68.4351 66.0859 71.0743 64.2278 73.9201L63.3905 75.2025L62.5532 73.9201C60.6951 71.0743 59.0483 68.4351 57.6126 65.9997H48.6017C49.4931 67.6335 49.9997 69.5075 49.9997 71.4997C49.9997 75.4463 48.0117 78.9286 44.9824 80.9997H85.0137L79.3354 65.9997H69.1683ZM74.4905 48.1283C74.4905 41.9666 69.5198 36.9733 63.3905 36.9733C57.2611 36.9733 52.2905 41.9666 52.2905 48.1283C52.2905 52.185 55.9921 60.0528 63.3905 71.5358C70.7889 60.0528 74.4905 52.185 74.4905 48.1283ZM63.3905 53.4733C60.4081 53.4733 57.9905 51.0557 57.9905 48.0733C57.9905 45.091 60.4081 42.6733 63.3905 42.6733C66.3728 42.6733 68.7905 45.091 68.7905 48.0733C68.7905 51.0557 66.3728 53.4733 63.3905 53.4733ZM63.3905 51.4733C65.2682 51.4733 66.7905 49.9511 66.7905 48.0733C66.7905 46.1956 65.2682 44.6733 63.3905 44.6733C61.5127 44.6733 59.9905 46.1956 59.9905 48.0733C59.9905 49.9511 61.5127 51.4733 63.3905 51.4733ZM49.7363 35.7717L47.8972 34.325L36.4279 40.8959C35.888 41.2052 35.3719 41.4521 34.8569 41.6449C32.9901 42.3438 31.1475 42.3592 28.1096 41.7956C26.632 41.5215 19.0316 39.7645 16.2096 39.1474L15.4806 39.565L26.0875 46.8197L24.7038 47.6125L24.5689 47.6898C27.0824 47.3293 29.464 46.9347 31.7146 46.5113C35.7454 45.7529 39.1609 44.9414 41.9731 44.1314C42.9529 43.8492 43.7863 43.5877 44.4748 43.354C44.8211 43.2364 45.0647 43.1486 45.2066 43.0949L79.8009 23.2752C79.8612 23.2406 79.9783 23.1723 80.144 23.0737C80.4224 22.9081 80.7331 22.719 81.0679 22.5098C82.024 21.9127 82.9797 21.2762 83.8684 20.6292C84.6848 20.0349 85.4027 19.4615 85.9933 18.9232C86.8803 18.115 87.4349 17.4209 87.5841 16.958C87.6592 16.7252 87.6367 16.6851 87.1584 16.5117C85.748 16.0004 83.6437 16.1275 81.057 16.8132C79.6082 17.1972 78.0605 17.7416 76.4665 18.4049C75.2902 18.8944 74.1578 19.4194 73.1122 19.9442C72.7469 20.1276 72.4189 20.2976 72.1335 20.4498C71.9641 20.5401 71.8478 20.6038 71.7986 20.6312L58.0542 28.5057L36.5935 21.0442L51.0294 34.2478L49.7363 35.7717ZM24.8732 54.132C25.3524 53.8575 25.9634 54.0234 26.238 54.5026C26.5125 54.9818 26.3466 55.5929 25.8674 55.8674L21.6474 58.2852C21.1682 58.5597 20.5571 58.3938 20.2826 57.9146C20.008 57.4354 20.1739 56.8243 20.6531 56.5498L24.8732 54.132ZM15.5571 56.132C16.0363 55.8575 16.6473 56.0234 16.9218 56.5026C17.1964 56.9818 17.0305 57.5929 16.5513 57.8674L14.1259 59.2569C13.6467 59.5315 13.0356 59.3656 12.7611 58.8864C12.4865 58.4071 12.6524 57.7961 13.1317 57.5216L15.5571 56.132ZM38.4997 80.9997C43.7464 80.9997 47.9997 76.7464 47.9997 71.4997C47.9997 66.253 43.7464 61.9997 38.4997 61.9997C33.253 61.9997 28.9997 66.253 28.9997 71.4997C28.9997 76.7464 33.253 80.9997 38.4997 80.9997ZM37.9997 73.913V64.5579C37.9997 64.0056 38.4474 63.5579 38.9997 63.5579C39.552 63.5579 39.9997 64.0056 39.9997 64.5579V73.913C39.9997 74.4653 39.552 74.913 38.9997 74.913C38.4474 74.913 37.9997 74.4653 37.9997 73.913ZM38.9997 77.7504C38.4474 77.7504 37.9997 77.3027 37.9997 76.7504C37.9997 76.1981 38.4474 75.7504 38.9997 75.7504C39.552 75.7504 39.9997 76.1981 39.9997 76.7504C39.9997 77.3027 39.552 77.7504 38.9997 77.7504Z" fill="#006FCF"/>
</svg>
