<svg width="150" height="150" viewBox="0 0 150 150" fill="none" xmlns="http://www.w3.org/2000/svg">
<rect width="150" height="150" fill="white"/>
<path d="M132.235 15V21.4704" stroke="#B2E0C4" stroke-width="2" stroke-linecap="round"/>
<path d="M135.47 18.2348H129" stroke="#B2E0C4" stroke-width="2" stroke-linecap="round"/>
<circle cx="18.5" cy="130.5" r="4.5" stroke="#99D5B0" stroke-width="2"/>
<path fill-rule="evenodd" clip-rule="evenodd" d="M19.7782 16.9213C20.1248 17.0396 20.459 17.1937 20.7761 17.3817C21.2204 17.6451 21.367 18.2187 21.1036 18.663C20.8403 19.1073 20.2666 19.254 19.8223 18.9906C19.2902 18.6752 18.6871 18.5071 18.0581 18.5071C16.1192 18.5071 14.5379 20.1126 14.5236 22.1081C14.5587 22.2064 14.5778 22.3123 14.5778 22.4227C14.5778 22.9392 14.1591 23.3579 13.6426 23.3579H9.93519C9.4187 23.3579 9 22.9392 9 22.4227C9 21.9062 9.4187 21.4875 9.93519 21.4875H12.6903C13 18.8043 15.21 16.7069 17.9213 16.6385C18.6809 13.3899 21.5745 11 24.9924 11C28.4211 11 31.3175 13.4036 32.0686 16.6606C34.1298 16.8843 35.73 18.6521 35.73 20.7932C35.73 21.3097 35.3113 21.7284 34.7948 21.7284C34.2783 21.7284 33.8596 21.3097 33.8596 20.7932C33.8596 19.5272 32.8561 18.5071 31.626 18.5071C31.2818 18.5071 30.9504 18.5862 30.649 18.7366C30.1868 18.9672 29.6253 18.7795 29.3946 18.3174C29.164 17.8552 29.3517 17.2937 29.8139 17.0631C29.9397 17.0003 30.0684 16.9442 30.1995 16.8949C29.5752 14.5657 27.4683 12.8704 24.9924 12.8704C22.5092 12.8704 20.3941 14.5765 19.7782 16.9213Z" fill="#CCEAD8"/>
<path fill-rule="evenodd" clip-rule="evenodd" d="M129.547 132.143C129.188 132.266 128.841 132.425 128.512 132.621C128.051 132.894 127.899 133.489 128.172 133.95C128.445 134.411 129.04 134.563 129.501 134.29C130.053 133.962 130.679 133.788 131.332 133.788C133.343 133.788 134.984 135.454 134.998 137.524C134.962 137.626 134.942 137.736 134.942 137.85C134.942 138.386 135.376 138.82 135.912 138.82H139.758C140.294 138.82 140.729 138.386 140.729 137.85C140.729 137.314 140.294 136.88 139.758 136.88H136.9C136.579 134.097 134.286 131.921 131.474 131.85C130.686 128.479 127.684 126 124.138 126C120.581 126 117.576 128.494 116.797 131.872C114.659 132.104 112.998 133.938 112.998 136.16C112.998 136.695 113.433 137.13 113.969 137.13C114.504 137.13 114.939 136.695 114.939 136.16C114.939 134.846 115.98 133.788 117.256 133.788C117.613 133.788 117.957 133.87 118.27 134.026C118.749 134.265 119.332 134.071 119.571 133.591C119.81 133.112 119.615 132.529 119.136 132.29C119.005 132.225 118.872 132.167 118.736 132.116C119.384 129.699 121.569 127.94 124.138 127.94C126.714 127.94 128.908 129.71 129.547 132.143Z" fill="#CCEAD8"/>
<path fill-rule="evenodd" clip-rule="evenodd" d="M122.094 70.391L124.084 67.3268C124.385 66.8617 125.008 66.7311 125.471 67.0355L129.807 69.8838C130.268 70.1871 130.396 70.8072 130.093 71.2688L128.105 74.2943L122.094 70.391Z" fill="#E4F2D2"/>
<path fill-rule="evenodd" clip-rule="evenodd" d="M110.421 88.4668L116.432 92.2684L110.936 95.927C110.211 96.4099 109.258 95.7985 109.395 94.9379L110.421 88.4668Z" fill="#E4F2D2"/>
<path fill-rule="evenodd" clip-rule="evenodd" d="M107.037 106.799H44.8647L44.8887 120.772C44.8982 126.288 49.3726 130.754 54.8887 130.754H97.037C102.56 130.754 107.037 126.277 107.037 120.754V106.799ZM72.4792 118.313C72.4792 116.612 73.8586 115.232 75.5602 115.232C77.2619 115.232 78.6413 116.612 78.6413 118.313C78.6413 120.015 77.2619 121.394 75.5602 121.394C73.8586 121.394 72.4792 120.015 72.4792 118.313ZM75.5602 113.232C72.754 113.232 70.4792 115.507 70.4792 118.313C70.4792 121.12 72.754 123.394 75.5602 123.394C78.3664 123.394 80.6413 121.12 80.6413 118.313C80.6413 115.507 78.3664 113.232 75.5602 113.232Z" fill="#E4F2D2"/>
<path fill-rule="evenodd" clip-rule="evenodd" d="M44.8647 35.9869H106.646V28C106.646 23.5817 103.065 20 98.6464 20H52.8647C48.4465 20 44.8647 23.5817 44.8647 28V35.9869Z" fill="#E4F2D2"/>
<path fill-rule="evenodd" clip-rule="evenodd" d="M68.8549 66.1992V88.7558H23.3076L23.3076 82.7655H63.0841L62.9731 68.2148L68.8549 66.1992Z" fill="#E4F2D2"/>
<circle cx="63.9418" cy="59.807" r="10.2162" fill="#E4F2D2"/>
<path fill-rule="evenodd" clip-rule="evenodd" d="M107.643 29.4308C107.491 23.6666 102.731 19 96.9294 19H54.1912L53.9067 19.0037C48.1406 19.1558 43.4741 23.9159 43.4741 29.7151V53.9638H45.4741L45.4731 36.981L105.646 36.67L105.646 38.5314L107.646 38.6035V29.7151L107.643 29.4308ZM76.0166 59.6158C76.0166 53.0879 70.6921 47.7987 64.1273 47.7987C58.7525 47.7987 54.209 51.3442 52.7385 56.2123L17.3783 56.212L17.3774 64.447L11.5675 64.4473L11.4509 64.454C10.9535 64.5118 10.5675 64.9345 10.5675 65.4473C10.5675 65.9996 11.0152 66.4473 11.5675 66.4473L17.3774 66.447V72.014L13.081 72.0149L12.9644 72.0216C12.467 72.0794 12.081 72.502 12.081 73.0149C12.081 73.5672 12.5287 74.0149 13.081 74.0149L17.3774 74.014L17.3783 83.4521L23.3914 83.452L23.3922 89.4616H69.8628L69.8634 69.9692C73.5314 67.9573 76.0166 64.0756 76.0166 59.6158ZM45.4741 91.7384L45.4731 105.213H105.646L105.646 101.442H107.646V120.456C107.646 126.257 102.981 131.014 97.2139 131.166L96.9294 131.17H54.1912C48.3888 131.17 43.6299 126.506 43.4779 120.74L43.4741 120.456V91.7384H45.4741ZM105.646 107.213H45.4731L45.4741 120.456C45.4741 125.16 49.2567 129.027 53.9306 129.166L54.1912 129.17H96.9294C101.635 129.17 105.503 125.388 105.643 120.716L105.646 120.456L105.646 107.213ZM80.6413 118.313C80.6413 115.507 78.3665 113.232 75.5603 113.232C72.7541 113.232 70.4792 115.507 70.4792 118.313C70.4792 121.119 72.7541 123.394 75.5603 123.394C78.3665 123.394 80.6413 121.119 80.6413 118.313ZM75.5603 115.232C73.8586 115.232 72.4792 116.612 72.4792 118.313C72.4792 120.015 73.8586 121.394 75.5603 121.394C77.2619 121.394 78.6413 120.015 78.6413 118.313C78.6413 116.612 77.2619 115.232 75.5603 115.232ZM67.8628 70.8379C66.688 71.224 65.4322 71.433 64.1273 71.433C64.0357 71.433 63.9443 71.432 63.8531 71.4299L63.8533 83.4521L25.3914 83.452L25.3922 87.4616H67.8628L67.8628 70.8379ZM19.3783 58.212L52.321 58.2121C52.2662 58.6724 52.238 59.1408 52.238 59.6158C52.238 65.3703 56.3755 70.1622 61.8529 71.217L61.8533 81.4521H19.3783V58.212ZM33.7455 75.4425V77.4425H24.9756V75.4425H33.7455ZM42.1589 77.4425V75.4425H37.2496V77.4425H42.1589ZM30.921 69.2527V71.2527H24.9756V69.2527H30.921ZM54.238 59.6158C54.238 54.1954 58.6641 49.7987 64.1273 49.7987C69.5905 49.7987 74.0166 54.1954 74.0166 59.6158C74.0166 65.0362 69.5905 69.433 64.1273 69.433C58.6641 69.433 54.238 65.0362 54.238 59.6158ZM6.04462 64.4473C6.59691 64.4473 7.04462 64.895 7.04462 65.4473C7.04462 65.9601 6.65858 66.3828 6.16124 66.4406L6.04462 66.4473H5.51343C4.96114 66.4473 4.51343 65.9996 4.51343 65.4473C4.51343 64.9345 4.89947 64.5118 5.39681 64.454L5.51343 64.4473H6.04462ZM66.0213 55.0298C65.646 54.8821 65.2068 54.8082 64.7037 54.8082H61.0504V63.8396H63.3981V60.366L65.638 63.8396H68.5606L65.7219 60.1384C66.3687 59.9867 66.8578 59.6972 67.1892 59.27C67.5205 58.8428 67.6862 58.2858 67.6862 57.5991C67.6862 57.2158 67.6244 56.8564 67.5006 56.521C67.3768 56.1857 67.1931 55.8902 66.9496 55.6347C66.706 55.3791 66.3966 55.1775 66.0213 55.0298ZM63.8413 56.6169H63.3981V58.8448H63.8413C64.3045 58.8448 64.6598 58.749 64.9073 58.5573C65.1549 58.3657 65.2787 58.0902 65.2787 57.7308C65.2787 57.3715 65.1549 57.096 64.9073 56.9043C64.6598 56.7127 64.3045 56.6169 63.8413 56.6169ZM96.9294 21H54.1912C49.4865 21 45.6172 24.784 45.478 29.4547L45.4741 29.7151L45.4731 34.981L105.646 34.67L105.646 29.7151C105.646 25.0125 101.863 21.143 97.1899 21.0039L96.9294 21ZM116.383 67.0046C115.654 69.5112 114.489 71.7043 113 73.3691V75.1968C113.166 75.5133 113.688 76.0202 114.539 76.6155L113.392 78.2543C112.099 77.3498 111.305 76.533 111.044 75.6771L111 75.5346V72.5771L111.277 72.2873C112.723 70.774 113.865 68.6438 114.545 66.1548L114.638 65.8129L114.926 65.6061C116.246 64.6577 116.521 62.7174 115.461 61.3836L115.244 61.1105V55.3721C115.244 49.9906 112.3 47 106.295 47C100.401 47 97.3424 50.0633 97.3424 55.3721V61.1123L97.1257 61.3854C96.0687 62.7171 96.3437 64.6564 97.6618 65.6059L97.9488 65.8127L98.0419 66.1539C98.7214 68.6431 99.8645 70.7735 101.311 72.287L101.588 72.577V75.5344L101.545 75.6768C100.801 78.1215 94.9285 81.1049 84.4313 85.2588C84.1763 85.36 83.9999 85.6258 83.9999 85.9308V88.4672H81.9999V85.9308C81.9999 84.8143 82.6686 83.8068 83.6943 83.3995C92.8407 79.7802 98.8772 76.7384 99.5883 75.2065V73.3693C98.0984 71.704 96.9324 69.5103 96.2034 67.003C94.3043 65.4022 93.9044 62.5439 95.3424 60.4362V55.3721C95.3424 48.9594 99.2962 45 106.295 45C113.411 45 117.244 48.893 117.244 55.3721V60.4339C118.685 62.5436 118.286 65.4043 116.383 67.0046ZM119.746 89L121.694 86H127C127.552 86 128 85.5523 128 85C128 84.4477 127.552 84 127 84H122.993L130.983 71.6964C131.886 70.3055 131.495 68.447 130.106 67.5453L127.444 65.8171C126.055 64.9156 124.198 65.3142 123.294 66.705L109.705 87.631L109.705 87.6313C109.576 87.9106 109.563 87.9377 109.562 87.9652L109.562 87.9743L109.551 88.0231L109.542 88.0711C109.529 88.1326 109.514 88.2158 109.494 88.3218C109.459 88.5161 109.412 88.7899 109.353 89.1379C109.249 89.7479 109.111 90.5732 108.948 91.5608L108.942 91.5992C108.814 92.3736 108.679 93.2014 108.544 94.0278L108.414 94.8263L108.365 95.1292C108.177 96.5906 109.753 97.68 111.038 96.907L111.039 96.9069L111.039 96.9068L111.039 96.9066L111.039 96.9066C111.115 96.8576 111.116 96.8572 111.326 96.7205L112.004 96.2782C112.707 95.8203 113.41 95.361 114.067 94.9306L114.1 94.9093C114.938 94.3603 115.638 93.9003 116.155 93.5582C116.449 93.3631 116.681 93.2086 116.845 93.0978C116.934 93.0373 117.004 92.9894 117.055 92.9532L117.055 92.9531C117.095 92.9247 117.095 92.9246 117.135 92.8949L117.144 92.8911C117.169 92.8789 117.188 92.8564 117.393 92.6236L117.393 92.6236L118.447 91H122.153C122.705 91 123.153 90.5523 123.153 90C123.153 89.4477 122.705 89 122.153 89H119.746ZM130.567 84H131C131.552 84 132 84.4477 132 85C132 85.5523 131.552 86 131 86H130.567C130.015 86 129.567 85.5523 129.567 85C129.567 84.4477 130.015 84 130.567 84ZM116.137 90.885L111.804 88.0711L122.387 71.7739L126.721 74.5878L116.137 90.885ZM127.81 72.9105L123.477 70.0965L124.972 67.7943C125.274 67.3283 125.894 67.1954 126.355 67.4947L129.017 69.2228C129.478 69.5221 129.608 70.1412 129.306 70.6071L127.81 72.9105ZM114.536 92.2302L111.222 90.0779C111.136 90.5891 111.035 91.198 110.922 91.8862L110.915 91.9246C110.788 92.6977 110.652 93.5243 110.518 94.3497L110.425 94.9205L110.912 94.603C111.613 94.1456 112.315 93.687 112.972 93.2573L113.004 93.236C113.588 92.8541 114.103 92.5154 114.536 92.2302Z" fill="#009639"/>
</svg>
