<svg width="100" height="100" viewBox="0 0 100 100" fill="none" xmlns="http://www.w3.org/2000/svg">
<rect width="100" height="100" fill="white"/>
<rect x="20.6958" y="47.667" width="66" height="12" fill="#D8D8D8"/>
<path fill-rule="evenodd" clip-rule="evenodd" d="M83.0358 36.5632C85.6536 37.878 87.45 40.5875 87.45 43.7165V75.7498C87.45 80.1681 83.8683 83.7498 79.45 83.7498H27.7667C23.3484 83.7498 19.7667 80.1681 19.7667 75.7498V69.6358L12.4732 35.2529C11.746 31.8315 13.93 28.4684 17.3514 27.7412L72.2032 16.0821C75.6246 15.3548 78.9877 17.5389 79.7149 20.96L83.0358 36.5632ZM80.8363 35.8362L77.7586 21.3761C77.261 19.0351 74.96 17.5408 72.619 18.0384L17.7672 29.6975C15.4262 30.1951 13.9319 32.4962 14.4296 34.8375L19.7667 59.9976V43.7165C19.7667 39.2982 23.3484 35.7165 27.7667 35.7165H79.45C79.9228 35.7165 80.386 35.7575 80.8363 35.8362ZM85.45 43.7165V46.6665H21.7667V43.7165C21.7667 40.4028 24.453 37.7165 27.7667 37.7165H79.45C82.7637 37.7165 85.45 40.4028 85.45 43.7165ZM85.45 48.6665H21.7667V58.7332H85.45V48.6665ZM21.7667 60.7332H85.45V75.7498C85.45 79.0635 82.7637 81.7498 79.45 81.7498H27.7667C24.453 81.7498 21.7667 79.0635 21.7667 75.7498V60.7332Z" fill="#979797"/>
</svg>
