<svg width="150" height="150" viewBox="0 0 150 150" fill="none" xmlns="http://www.w3.org/2000/svg">
<rect width="150" height="150" fill="white"/>
<path d="M70.8319 122.671C72.6467 122.671 74.1179 121.199 74.1179 119.385C74.1179 117.57 72.6467 116.099 70.8319 116.099C69.0171 116.099 67.5459 117.57 67.5459 119.385C67.5459 121.199 69.0171 122.671 70.8319 122.671Z" fill="#D8D8D8"/>
<path d="M86.4393 122.671C88.2541 122.671 89.7253 121.199 89.7253 119.385C89.7253 117.57 88.2541 116.099 86.4393 116.099C84.6245 116.099 83.1533 117.57 83.1533 119.385C83.1533 121.199 84.6245 122.671 86.4393 122.671Z" fill="#D8D8D8"/>
<path d="M55.2255 122.671C57.0403 122.671 58.5115 121.199 58.5115 119.385C58.5115 117.57 57.0403 116.099 55.2255 116.099C53.4106 116.099 51.9395 117.57 51.9395 119.385C51.9395 121.199 53.4106 122.671 55.2255 122.671Z" fill="#D8D8D8"/>
<path d="M44.6651 17.5018L45.3573 17.5163L64.0698 17.6052C65.5939 17.6278 66.7795 18.8054 66.8587 20.2585L66.8628 20.4274L66.768 40.029L87.2241 40.0291C95.5084 40.0291 102.224 46.7448 102.224 55.0291V57.7958H103.106C104.873 57.7958 106.372 58.9408 106.901 60.5291L126.616 60.5291C129.92 60.5291 132.616 63.0985 132.616 66.2929V110.765C132.616 113.96 129.92 116.529 126.616 116.529L106.947 116.529C106.463 118.193 104.926 119.409 103.106 119.409H102.224V117.409H103.106C104.211 117.409 105.106 116.513 105.106 115.409V61.7958C105.106 60.6913 104.211 59.7958 103.106 59.7958H102.224V116.779C102.224 125.063 95.5084 131.779 87.2241 131.779H52.7965C44.5122 131.779 37.7965 125.063 37.7965 116.779L37.7962 67.3332C37.663 67.2546 37.5354 67.1641 37.415 67.0619L37.24 66.8999L17.3152 46.7836C16.2215 45.6837 16.2293 43.9031 17.3326 42.813L42.0593 18.3232C42.7652 17.6243 43.3801 17.4816 44.6651 17.5018ZM87.2241 42.0291L66.2688 42.0307C66.2043 42.1244 66.134 42.2145 66.0582 42.3005L65.9402 42.4263L60.391 47.921L88.6528 47.9218C91.9665 47.9218 94.6528 50.6081 94.6528 53.9218V74.7785C94.6528 78.0922 91.9665 80.7785 88.6528 80.7785H52.1892C48.8755 80.7785 46.1892 78.0922 46.1892 74.7785L46.189 61.986L41.2085 66.9193C40.8069 67.3161 40.3137 67.5646 39.7972 67.6681L39.7965 116.779C39.7965 123.959 45.6168 129.779 52.7965 129.779H87.2241C94.4038 129.779 100.224 123.959 100.224 116.779V55.0291C100.224 47.8494 94.4038 42.0291 87.2241 42.0291ZM86.4386 115.099C88.8055 115.099 90.7243 117.018 90.7243 119.385C90.7243 121.752 88.8055 123.671 86.4386 123.671C84.0717 123.671 82.1529 121.752 82.1529 119.385C82.1529 117.018 84.0717 115.099 86.4386 115.099ZM70.8317 115.099C73.1986 115.099 75.1174 117.018 75.1174 119.385C75.1174 121.752 73.1986 123.671 70.8317 123.671C68.4648 123.671 66.546 121.752 66.546 119.385C66.546 117.018 68.4648 115.099 70.8317 115.099ZM55.2248 115.099C57.5917 115.099 59.5105 117.018 59.5105 119.385C59.5105 121.752 57.5917 123.671 55.2248 123.671C52.8579 123.671 50.9391 121.752 50.9391 119.385C50.9391 117.018 52.8579 115.099 55.2248 115.099ZM86.4386 117.099C85.1763 117.099 84.1529 118.123 84.1529 119.385C84.1529 120.647 85.1763 121.671 86.4386 121.671C87.7009 121.671 88.7243 120.647 88.7243 119.385C88.7243 118.123 87.7009 117.099 86.4386 117.099ZM70.8317 117.099C69.5694 117.099 68.546 118.123 68.546 119.385C68.546 120.647 69.5694 121.671 70.8317 121.671C72.094 121.671 73.1174 120.647 73.1174 119.385C73.1174 118.123 72.094 117.099 70.8317 117.099ZM55.2248 117.099C53.9625 117.099 52.9391 118.123 52.9391 119.385C52.9391 120.647 53.9625 121.671 55.2248 121.671C56.4871 121.671 57.5105 120.647 57.5105 119.385C57.5105 118.123 56.4871 117.099 55.2248 117.099ZM107.106 62.5288V114.529H126.616C128.836 114.529 130.616 112.833 130.616 110.765V66.2929C130.616 64.2253 128.836 62.5288 126.616 62.5288H107.106ZM123.813 84.7069C124.365 84.7069 124.813 85.1547 124.813 85.7069V112.814C124.813 113.366 124.365 113.814 123.813 113.814C123.261 113.814 122.813 113.366 122.813 112.814V85.7069C122.813 85.1547 123.261 84.7069 123.813 84.7069ZM70.8317 105.242C73.1986 105.242 75.1174 107.161 75.1174 109.528C75.1174 111.895 73.1986 113.814 70.8317 113.814C68.4648 113.814 66.546 111.895 66.546 109.528C66.546 107.161 68.4648 105.242 70.8317 105.242ZM55.2248 105.242C57.5917 105.242 59.5105 107.161 59.5105 109.528C59.5105 111.895 57.5917 113.814 55.2248 113.814C52.8579 113.814 50.9391 111.895 50.9391 109.528C50.9391 107.161 52.8579 105.242 55.2248 105.242ZM86.4386 105.242C88.8055 105.242 90.7243 107.161 90.7243 109.528C90.7243 111.895 88.8055 113.814 86.4386 113.814C84.0717 113.814 82.1529 111.895 82.1529 109.528C82.1529 107.161 84.0717 105.242 86.4386 105.242ZM119.706 98.752C120.258 98.752 120.706 99.1997 120.706 99.752V112.043C120.706 112.596 120.258 113.043 119.706 113.043C119.154 113.043 118.706 112.596 118.706 112.043V99.752C118.706 99.1997 119.154 98.752 119.706 98.752ZM70.8317 107.242C69.5694 107.242 68.546 108.266 68.546 109.528C68.546 110.79 69.5694 111.814 70.8317 111.814C72.094 111.814 73.1174 110.79 73.1174 109.528C73.1174 108.266 72.094 107.242 70.8317 107.242ZM86.4386 107.242C85.1763 107.242 84.1529 108.266 84.1529 109.528C84.1529 110.79 85.1763 111.814 86.4386 111.814C87.7009 111.814 88.7243 110.79 88.7243 109.528C88.7243 108.266 87.7009 107.242 86.4386 107.242ZM55.2248 107.242C53.9625 107.242 52.9391 108.266 52.9391 109.528C52.9391 110.79 53.9625 111.814 55.2248 111.814C56.4871 111.814 57.5105 110.79 57.5105 109.528C57.5105 108.266 56.4871 107.242 55.2248 107.242ZM86.4386 95.3854C88.8055 95.3854 90.7243 97.3041 90.7243 99.671C90.7243 102.038 88.8055 103.957 86.4386 103.957C84.0717 103.957 82.1529 102.038 82.1529 99.671C82.1529 97.3041 84.0717 95.3854 86.4386 95.3854ZM70.8317 95.3854C73.1986 95.3854 75.1174 97.3041 75.1174 99.671C75.1174 102.038 73.1986 103.957 70.8317 103.957C68.4648 103.957 66.546 102.038 66.546 99.671C66.546 97.3041 68.4648 95.3854 70.8317 95.3854ZM55.2248 95.3854C57.5917 95.3854 59.5105 97.3041 59.5105 99.671C59.5105 102.038 57.5917 103.957 55.2248 103.957C52.8579 103.957 50.9391 102.038 50.9391 99.671C50.9391 97.3041 52.8579 95.3854 55.2248 95.3854ZM55.2248 97.3854C53.9625 97.3854 52.9391 98.4087 52.9391 99.671C52.9391 100.933 53.9625 101.957 55.2248 101.957C56.4871 101.957 57.5105 100.933 57.5105 99.671C57.5105 98.4087 56.4871 97.3854 55.2248 97.3854ZM70.8317 97.3854C69.5694 97.3854 68.546 98.4087 68.546 99.671C68.546 100.933 69.5694 101.957 70.8317 101.957C72.094 101.957 73.1174 100.933 73.1174 99.671C73.1174 98.4087 72.094 97.3854 70.8317 97.3854ZM86.4386 97.3854C85.1763 97.3854 84.1529 98.4087 84.1529 99.671C84.1529 100.933 85.1763 101.957 86.4386 101.957C87.7009 101.957 88.7243 100.933 88.7243 99.671C88.7243 98.4087 87.7009 97.3854 86.4386 97.3854ZM55.2248 84.7069C57.5917 84.7069 59.5105 86.6257 59.5105 88.9926C59.5105 91.3595 57.5917 93.2783 55.2248 93.2783C52.8579 93.2783 50.9391 91.3595 50.9391 88.9926C50.9391 86.6257 52.8579 84.7069 55.2248 84.7069ZM70.8317 84.7069C73.1986 84.7069 75.1174 86.6257 75.1174 88.9926C75.1174 91.3595 73.1986 93.2783 70.8317 93.2783C68.4648 93.2783 66.546 91.3595 66.546 88.9926C66.546 86.6257 68.4648 84.7069 70.8317 84.7069ZM86.4386 84.7069C88.8055 84.7069 90.7243 86.6257 90.7243 88.9926C90.7243 91.3595 88.8055 93.2783 86.4386 93.2783C84.0717 93.2783 82.1529 91.3595 82.1529 88.9926C82.1529 86.6257 84.0717 84.7069 86.4386 84.7069ZM55.2248 86.7069C53.9625 86.7069 52.9391 87.7303 52.9391 88.9926C52.9391 90.255 53.9625 91.2783 55.2248 91.2783C56.4871 91.2783 57.5105 90.255 57.5105 88.9926C57.5105 87.7303 56.4871 86.7069 55.2248 86.7069ZM70.8317 86.7069C69.5694 86.7069 68.546 87.7303 68.546 88.9926C68.546 90.255 69.5694 91.2783 70.8317 91.2783C72.094 91.2783 73.1174 90.255 73.1174 88.9926C73.1174 87.7303 72.094 86.7069 70.8317 86.7069ZM86.4386 86.7069C85.1763 86.7069 84.1529 87.7303 84.1529 88.9926C84.1529 90.255 85.1763 91.2783 86.4386 91.2783C87.7009 91.2783 88.7243 90.255 88.7243 88.9926C88.7243 87.7303 87.7009 86.7069 86.4386 86.7069ZM88.6528 49.9218L58.372 49.921L52.692 55.546L69.1309 55.5467C69.6831 55.5467 70.1309 55.9944 70.1309 56.5467C70.1309 57.099 69.6831 57.5467 69.1309 57.5467H51.5284C51.2898 57.5467 51.0707 57.4631 50.8988 57.3236L48.189 60.005V74.7785C48.189 76.9876 49.9801 78.7785 52.1892 78.7785H88.6528C90.8619 78.7785 92.6528 76.9876 92.6528 74.7785V53.9218C92.6528 51.7127 90.8619 49.9218 88.6528 49.9218ZM119.706 71.6452C120.258 71.6452 120.706 72.0929 120.706 72.6452V77.6547C120.706 78.2069 120.258 78.6547 119.706 78.6547C119.154 78.6547 118.706 78.2069 118.706 77.6547V72.6452C118.706 72.0929 119.154 71.6452 119.706 71.6452ZM123.813 66.6358C124.365 66.6358 124.813 67.0835 124.813 67.6358V77.6547C124.813 78.2069 124.365 78.6547 123.813 78.6547C123.261 78.6547 122.813 78.2069 122.813 77.6547V67.6358C122.813 67.0835 123.261 66.6358 123.813 66.6358ZM74.8808 72.7964C75.4331 72.7964 75.8808 73.2441 75.8808 73.7964C75.8808 74.3487 75.4331 74.7964 74.8808 74.7964H74.1174C73.5651 74.7964 73.1174 74.3487 73.1174 73.7964C73.1174 73.2441 73.5651 72.7964 74.1174 72.7964H74.8808ZM88.0234 72.7964C88.5757 72.7964 89.0234 73.2441 89.0234 73.7964C89.0234 74.3487 88.5757 74.7964 88.0234 74.7964H77.9218C77.3695 74.7964 76.9218 74.3487 76.9218 73.7964C76.9218 73.2441 77.3695 72.7964 77.9218 72.7964H88.0234ZM88.3643 67.8679C88.9166 67.8679 89.3643 68.3156 89.3643 68.8679C89.3643 69.4202 88.9166 69.8679 88.3643 69.8679H51.5284C50.9761 69.8679 50.5284 69.4202 50.5284 68.8679C50.5284 68.3156 50.9761 67.8679 51.5284 67.8679H88.3643ZM43.4666 19.7443L18.7395 44.2346C18.4513 44.5191 18.4232 44.9672 18.6568 45.284L18.7348 45.3748L38.6611 65.4926C38.9337 65.768 39.397 65.8002 39.7121 65.5733L39.8018 65.4975L64.5279 41.0102C64.648 40.8896 64.7279 40.7327 64.7555 40.5673L64.7662 40.4421L64.8628 20.4177C64.8648 20.0093 64.5679 19.6683 64.1555 19.6128L64.0501 19.605L45.1801 19.5145L44.5215 19.4997C44.4711 19.4997 44.4234 19.4997 44.3781 19.4997L44.1345 19.5073C43.7722 19.5285 43.6158 19.5966 43.4666 19.7443ZM88.3643 61.2966C88.9166 61.2966 89.3643 61.7443 89.3643 62.2966C89.3643 62.8489 88.9166 63.2966 88.3643 63.2966H51.5284C50.9761 63.2966 50.5284 62.8489 50.5284 62.2966C50.5284 61.7443 50.9761 61.2966 51.5284 61.2966H88.3643ZM88.3643 55.5467C88.9166 55.5467 89.3643 55.9944 89.3643 56.5467C89.3643 57.099 88.9166 57.5467 88.3643 57.5467H86.8493C86.297 57.5467 85.8493 57.099 85.8493 56.5467C85.8493 55.9944 86.297 55.5467 86.8493 55.5467H88.3643ZM35.8445 35.9131C38.5165 35.9131 40.6765 38.0891 40.6765 41.7131C40.6765 45.3371 38.5165 47.5131 35.8445 47.5131C33.1645 47.5131 31.0205 45.3371 31.0205 41.7131C31.0205 38.0891 33.1645 35.9131 35.8445 35.9131ZM53.6125 41.4011C55.4045 41.4011 56.7405 42.7131 56.7405 44.4571C56.7405 46.2091 55.4045 47.5131 53.6125 47.5131C51.8285 47.5131 50.4925 46.2091 50.4925 44.4571C50.4925 42.7291 51.8285 41.4011 53.6125 41.4011ZM54.1965 36.1131L46.6925 47.3131H44.5965L52.1085 36.1131H54.1965ZM53.6125 43.0731C52.8365 43.0731 52.2685 43.6491 52.2685 44.4571C52.2685 45.2651 52.8365 45.8411 53.6125 45.8411C54.3965 45.8411 54.9645 45.2651 54.9645 44.4571C54.9645 43.6491 54.3965 43.0731 53.6125 43.0731ZM35.8445 37.9851C34.4125 37.9851 33.2685 39.2651 33.2685 41.7131C33.2685 44.1611 34.4125 45.4411 35.8445 45.4411C37.2845 45.4411 38.4205 44.1611 38.4205 41.7131C38.4205 39.2651 37.2845 37.9851 35.8445 37.9851ZM45.2045 35.9131C46.9965 35.9131 48.3325 37.2171 48.3325 38.9611C48.3325 40.7211 46.9965 42.0251 45.2045 42.0251C43.4205 42.0251 42.0845 40.7211 42.0845 38.9611C42.0845 37.2171 43.4205 35.9131 45.2045 35.9131ZM45.2045 37.5851C44.4365 37.5851 43.8605 38.1611 43.8605 38.9611C43.8605 39.7771 44.4365 40.3531 45.2045 40.3531C45.9885 40.3531 46.5565 39.7771 46.5565 38.9611C46.5565 38.1611 45.9885 37.5851 45.2045 37.5851Z" fill="#979797"/>
<path d="M57.0905 30.4772C58.8727 30.4772 60.3174 29.0325 60.3174 27.2503C60.3174 25.4682 58.8727 24.0234 57.0905 24.0234C55.3083 24.0234 53.8636 25.4682 53.8636 27.2503C53.8636 29.0325 55.3083 30.4772 57.0905 30.4772ZM57.0905 28.4772C56.4129 28.4772 55.8636 27.9279 55.8636 27.2503C55.8636 26.5727 56.4129 26.0234 57.0905 26.0234C57.7681 26.0234 58.3174 26.5727 58.3174 27.2503C58.3174 27.9279 57.7681 28.4772 57.0905 28.4772Z" fill="#979797"/>
</svg>
