<svg width="150" height="150" viewBox="0 0 150 150" fill="none" xmlns="http://www.w3.org/2000/svg">
<rect width="150" height="150" fill="white"/>
<circle cx="69.5" cy="125.5" r="8.5" fill="#B3D4F1"/>
<circle cx="107.5" cy="125.5" r="8.5" fill="#B3D4F1"/>
<path fill-rule="evenodd" clip-rule="evenodd" d="M57.3266 104.584L43.0802 36.1634L23.7444 30.9753C23.2087 30.8316 22.8909 30.2806 23.0345 29.7447C23.1782 29.2088 23.7289 28.8908 24.2646 29.0345L44.7943 34.5429L47.7761 48.8632L124.215 56.439L124.017 58.438L124.018 58.4382L124.018 58.4387L115.19 57.5637L113.08 66.6762H129.254L129.754 65.1061C129.861 64.771 129.932 64.4257 129.967 64.0757C130.24 61.3148 128.224 58.855 125.465 58.5815L124.018 58.4382L124.216 56.4391L124.215 56.439L124.215 56.4384L125.663 56.5819C129.526 56.9648 132.348 60.4085 131.965 64.2738C131.917 64.7637 131.817 65.2473 131.667 65.7164L121.118 98.8264H58.1793L59.2929 104.174C59.78 106.514 61.8468 108.186 64.2352 108.173L121.546 107.869C122.101 107.866 122.553 108.313 122.556 108.868C122.559 109.423 122.112 109.875 121.557 109.878L64.2459 110.183C60.9021 110.2 58.0085 107.859 57.3266 104.584ZM128.613 68.6856H112.614L109.589 81.7466H124.452L128.613 68.6856ZM111.027 66.6762L113.185 57.3651L91.5394 55.2198V66.6762H111.027ZM91.5394 68.6856H110.561L107.532 81.7466H91.5394V68.6856ZM89.5309 66.6762V55.0207L66.9038 52.7782L69.7604 66.6762H89.5309ZM70.1734 68.6856H89.5309V81.7466H72.858L70.1734 68.6856ZM67.7099 66.6762L64.8107 52.5707L48.2054 50.925L51.4851 66.6762H67.7099ZM51.9035 68.6856H68.1229L70.8075 81.7466H54.623L51.9035 68.6856ZM109.124 83.756H123.812L119.65 96.817H106.099L109.124 83.756ZM107.066 83.756H91.5394V96.817H104.038L107.066 83.756ZM89.5309 83.756H73.271L75.9556 96.817H89.5309V83.756ZM71.2205 83.756H55.0414L57.7609 96.817H73.9051L71.2205 83.756ZM79.4886 125.953C79.4886 131.502 74.9924 136 69.4462 136C63.9 136 59.4038 131.502 59.4038 125.953L55.3869 125.953C54.8323 125.953 54.3826 125.503 54.3826 124.948C54.3826 124.394 54.8323 123.944 55.3869 123.944H59.4038C59.4713 123.944 59.5371 123.95 59.6008 123.963C59.9005 122.471 60.5306 121.098 61.4116 119.925H55.3869C54.8323 119.925 54.3826 119.475 54.3826 118.92C54.3826 118.365 54.8323 117.916 55.3869 117.916H63.4198C65.0984 116.654 67.185 115.906 69.4462 115.906C74.9924 115.906 79.4886 120.404 79.4886 125.953ZM61.4123 125.953C61.4123 130.392 65.0092 133.991 69.4462 133.991C73.8832 133.991 77.4801 130.392 77.4801 125.953C77.4801 121.514 73.8832 117.916 69.4462 117.916C65.0092 117.916 61.4123 121.514 61.4123 125.953ZM107.607 136C113.153 136 117.65 131.502 117.65 125.953C117.65 120.404 113.153 115.906 107.607 115.906C102.061 115.906 97.5648 120.404 97.5648 125.953C97.5648 131.502 102.061 136 107.607 136ZM107.607 133.991C103.17 133.991 99.5733 130.392 99.5733 125.953C99.5733 121.514 103.17 117.916 107.607 117.916C112.044 117.916 115.641 121.514 115.641 125.953C115.641 130.392 112.044 133.991 107.607 133.991ZM50.3657 117.916H49.3615C48.8068 117.916 48.3572 118.365 48.3572 118.92C48.3572 119.475 48.8068 119.925 49.3615 119.925H50.3657C50.9203 119.925 51.3699 119.475 51.3699 118.92C51.3699 118.365 50.9203 117.916 50.3657 117.916Z" fill="#006FCF"/>
<path fill-rule="evenodd" clip-rule="evenodd" d="M19.693 76.7077C20.0693 76.8417 20.4319 77.0163 20.776 77.2293C21.258 77.5277 21.4172 78.1775 21.1314 78.6808C20.8457 79.184 20.2233 79.3502 19.7413 79.0518C19.164 78.6946 18.5097 78.5042 17.8272 78.5042C15.7233 78.5042 14.0075 80.3234 13.9926 82.5843C14.0307 82.6957 14.0514 82.8156 14.0514 82.9407C14.0514 83.5257 13.5972 84 13.0368 84H9.0146C8.45425 84 8 83.5257 8 82.9407C8 82.3556 8.45425 81.8813 9.0146 81.8813H12.0035C12.3391 78.8415 14.7367 76.4652 17.6784 76.3875C18.5024 72.7074 21.6418 70 25.3501 70C29.07 70 32.2126 72.7229 33.0273 76.4125C35.2636 76.6656 37 78.6682 37 81.0937C37 81.6787 36.5457 82.153 35.9854 82.153C35.4251 82.153 34.9708 81.6787 34.9708 81.0937C34.9708 79.6597 33.8821 78.5042 32.5475 78.5042C32.174 78.5042 31.8146 78.5938 31.4875 78.7641C30.9861 79.0254 30.3769 78.8127 30.1267 78.2892C29.8765 77.7657 30.0801 77.1296 30.5815 76.8684C30.7178 76.7973 30.8573 76.7339 30.9995 76.6781C30.3223 74.0393 28.0365 72.1187 25.3501 72.1187C22.6559 72.1187 20.3611 74.0515 19.693 76.7077Z" fill="#B3D4F1" fill-opacity="0.5"/>
<path fill-rule="evenodd" clip-rule="evenodd" d="M135.056 22.0555V19.9445C135.056 19.4229 135.478 19 136 19C136.522 19 136.944 19.4229 136.944 19.9445V22.0555H139.056C139.577 22.0555 140 22.4784 140 23C140 23.5216 139.577 23.9445 139.056 23.9445H136.944V26.0555C136.944 26.5771 136.522 27 136 27C135.478 27 135.056 26.5771 135.056 26.0555V23.9445H132.944C132.423 23.9445 132 23.5216 132 23C132 22.4784 132.423 22.0555 132.944 22.0555H135.056Z" fill="#B3D4F1"/>
<path fill-rule="evenodd" clip-rule="evenodd" d="M61 19.5C61 22.5376 58.5376 25 55.5 25C52.4624 25 50 22.5376 50 19.5C50 16.4624 52.4624 14 55.5 14C58.5376 14 61 16.4624 61 19.5ZM52 19.5C52 21.433 53.567 23 55.5 23C57.433 23 59 21.433 59 19.5C59 17.567 57.433 16 55.5 16C53.567 16 52 17.567 52 19.5Z" fill="#B3D4F1" fill-opacity="0.5"/>
<path fill-rule="evenodd" clip-rule="evenodd" d="M31 118C31 120.209 29.2091 122 27 122C24.7909 122 23 120.209 23 118C23 115.791 24.7909 114 27 114C29.2091 114 31 115.791 31 118ZM25 118C25 119.105 25.8954 120 27 120C28.1046 120 29 119.105 29 118C29 116.895 28.1046 116 27 116C25.8954 116 25 116.895 25 118Z" fill="#B3D4F1" fill-opacity="0.5"/>
<path fill-rule="evenodd" clip-rule="evenodd" d="M134.001 107.001V101.999C134.001 101.447 134.448 101 135 101C135.552 101 135.999 101.447 135.999 101.999V107.001H141.001C141.553 107.001 142 107.448 142 108C142 108.552 141.553 108.999 141.001 108.999H135.999V114.001C135.999 114.553 135.552 115 135 115C134.448 115 134.001 114.553 134.001 114.001V108.999H128.999C128.447 108.999 128 108.552 128 108C128 107.448 128.447 107.001 128.999 107.001H134.001Z" fill="#B3D4F1"/>
<path d="M107 135.5H49" stroke="#006FCF" stroke-width="2" stroke-linecap="round"/>
<path d="M44 135.5H36" stroke="#006FCF" stroke-width="2" stroke-linecap="round"/>
<path d="M31 135.5H28" stroke="#006FCF" stroke-width="2" stroke-linecap="round"/>
<path d="M123 135.5H106" stroke="#006FCF" stroke-width="2" stroke-linecap="round"/>
<path d="M130 135.5H128" stroke="#006FCF" stroke-width="2" stroke-linecap="round"/>
</svg>
