<svg width="34" height="12" viewBox="0 0 34 12" fill="none" xmlns="http://www.w3.org/2000/svg">
<path d="M3.942 0.468L0.312 1.932V3.564L2.322 2.748V9H3.942V0.468ZM10.8979 0.599999H6.06788L5.97788 5.25H7.97588C9.28988 5.25 9.68588 5.802 9.68588 6.432C9.68588 7.098 9.22388 7.65 8.28788 7.65C7.51388 7.65 6.69188 7.26 6.23588 6.762L5.32388 7.896C6.01988 8.682 7.04588 9.15 8.29988 9.15C9.99788 9.15 11.3659 8.118 11.3659 6.312C11.3659 4.908 10.3819 3.786 8.42588 3.786H7.45988L7.49588 2.106H10.8979V0.599999ZM16.154 0.45C14.144 0.45 12.536 2.082 12.536 4.8C12.536 7.518 14.144 9.15 16.154 9.15C18.158 9.15 19.778 7.518 19.778 4.8C19.778 2.082 18.158 0.45 16.154 0.45ZM16.154 2.004C17.234 2.004 18.086 2.964 18.086 4.8C18.086 6.636 17.234 7.596 16.154 7.596C15.08 7.596 14.222 6.636 14.222 4.8C14.222 2.964 15.08 2.004 16.154 2.004ZM24.4766 3.03C23.6786 3.03 23.1206 3.354 22.7426 3.828V3.186H21.2126V11.4H22.7726V8.394C23.1506 8.844 23.7026 9.15 24.4826 9.15C26.0846 9.15 27.2966 7.836 27.2966 6.09C27.2966 4.344 26.0846 3.03 24.4766 3.03ZM24.1886 4.488C25.1126 4.488 25.6886 5.202 25.6886 6.09C25.6886 6.978 25.1126 7.692 24.1886 7.692C23.3006 7.692 22.6946 7.008 22.6946 6.09C22.6946 5.172 23.3006 4.488 24.1886 4.488ZM33.7884 3.186H31.9764L30.7284 4.992L29.4744 3.186H27.6144L29.6964 6.048L27.5604 9H29.3724L30.6564 7.152L31.9644 9H33.8244L31.7064 6.042L33.7884 3.186Z" fill="white"/>
</svg>
