<svg width="100" height="100" viewBox="0 0 100 100" fill="none" xmlns="http://www.w3.org/2000/svg">
<rect width="100" height="100" fill="white"/>
<path d="M13.9268 31.4082H62.1207C61.6065 34.7219 62.2008 37.6675 63.9038 40.2453C65.6067 42.823 66.8398 44.4458 67.603 45.1137H13.9268V31.4082Z" fill="#339C63"/>
<path fill-rule="evenodd" clip-rule="evenodd" d="M72.084 35.2568L74.596 53.4648L78.851 49.7778L82.583 56.6608L86.045 54.3398L81.369 48.3218L86.469 46.2948L72.084 35.2568Z" fill="#339C63"/>
<path d="M74.2226 21C81.6239 21 87.6239 27 87.6239 34.4013C87.6239 38.0439 86.1706 41.347 83.8123 43.7626L87.4749 46.5738L81.9758 48.7598L86.4927 54.574L81.2269 58.1033L77.565 51.3488L75.559 53.086L75.5598 78.9803H13V29.9803L61.5676 29.9802C63.3943 24.7512 68.3704 21 74.2226 21ZM66.5121 45.3637L15 45.3633V76.9803H73.5598L73.559 54.819L72.857 55.4289L71.7736 47.5794C69.8429 47.2229 68.0572 46.4525 66.5121 45.3637ZM72.4078 37.5326L72.4742 38.018L72.8752 40.921L72.9397 40.9212L72.9392 41.387L72.9952 41.793L73.9562 48.759L74.3344 51.5021L78.1367 48.2069L81.9382 55.2189L83.5973 54.1069L78.7632 47.8846L83.4632 46.0163L83.4582 46.013L83.5973 45.9588L72.4078 37.5326ZM71.1312 42.921L66.6467 42.9218C68.0069 44.1321 69.6588 45.0215 71.4837 45.4715L71.1312 42.921ZM61.0393 31.9803L15 31.9803V43.3633L64.2588 43.3635C62.1218 40.9893 60.8212 37.8472 60.8212 34.4013C60.8212 33.5747 60.8961 32.7656 61.0393 31.9803ZM74.2226 23C70.964 23 68.0247 24.367 65.9469 26.5589L81.637 26.5592L81.6362 42.093L82.2121 42.535C84.3179 40.4663 85.6239 37.5863 85.6239 34.4013C85.6239 28.1045 80.5193 23 74.2226 23ZM60.0844 34.0982V41.2456H52.9528V34.0982H60.0844ZM49.4714 39.2456V41.2456H44.2054V39.2456H49.4714ZM64.4299 28.5589C63.4083 30.2675 62.8212 32.2659 62.8212 34.4013C62.8212 36.8261 63.5782 39.0741 64.8687 40.9219L70.8552 40.921L70.3642 37.358L68.3894 39.3774L66.96 37.9785L69.698 35.1802L66.96 32.3831L68.3894 30.9842L71.097 33.7512L73.8051 30.9842L75.2345 32.3831L72.5522 35.122L79.6362 40.558L79.637 28.5592L64.4299 28.5589ZM58.0844 36.0982H54.9528V39.2456H58.0844V36.0982Z" fill="white"/>
<path d="M32.511 69.5723V71.9723H22.9268V69.5723H32.511ZM65.3531 64.5723V66.9723H22.9268V64.5723H65.3531ZM60.0636 59.5723V61.9723H22.9268V59.5723H60.0636ZM41.2093 50.5723V52.9723H22.9268V50.5723H41.2093Z" fill="#339C63"/>
</svg>
