<svg width="150" height="150" viewBox="0 0 150 150" fill="none" xmlns="http://www.w3.org/2000/svg">
<rect width="150" height="150" fill="white"/>
<path fill-rule="evenodd" clip-rule="evenodd" d="M95.5358 106H33.9639V120C33.9639 125.523 38.441 130 43.9639 130H85.5358C91.0586 130 95.5358 125.523 95.5358 120V106ZM61.7792 118.257C61.7792 116.571 63.1461 115.204 64.8323 115.204C66.5186 115.204 67.8855 116.571 67.8855 118.257C67.8855 119.943 66.5186 121.31 64.8323 121.31C63.1461 121.31 61.7792 119.943 61.7792 118.257ZM64.8323 113.204C62.0415 113.204 59.7792 115.466 59.7792 118.257C59.7792 121.048 62.0415 123.31 64.8323 123.31C67.6231 123.31 69.8855 121.048 69.8855 118.257C69.8855 115.466 67.6231 113.204 64.8323 113.204Z" fill="#D8D8D8"/>
<path fill-rule="evenodd" clip-rule="evenodd" d="M33.5361 35.9905H95.5361V30C95.5361 24.4771 91.059 20 85.5361 20H43.5361C38.0133 20 33.5361 24.4772 33.5361 30V35.9905ZM53.5361 27C52.9838 27 52.5361 27.4477 52.5361 28C52.5361 28.5523 52.9838 29 53.5361 29C54.0884 29 54.5361 28.5523 54.5361 28C54.5361 27.4477 54.0884 27 53.5361 27ZM50.5361 28C50.5361 26.3431 51.8793 25 53.5361 25C55.193 25 56.5361 26.3431 56.5361 28C56.5361 29.6569 55.193 31 53.5361 31C51.8793 31 50.5361 29.6569 50.5361 28ZM62.5361 25C60.8793 25 59.5361 26.3431 59.5361 28C59.5361 29.6569 60.8793 31 62.5361 31H76.5361C78.193 31 79.5361 29.6569 79.5361 28C79.5361 26.3431 78.193 25 76.5361 25H62.5361ZM61.5361 28C61.5361 27.4477 61.9838 27 62.5361 27H76.5361C77.0884 27 77.5361 27.4477 77.5361 28C77.5361 28.5523 77.0884 29 76.5361 29H62.5361C61.9838 29 61.5361 28.5523 61.5361 28Z" fill="#D8D8D8"/>
<path fill-rule="evenodd" clip-rule="evenodd" d="M78.5843 84.9434C71.5176 83.3629 64.5361 75.4833 64.5361 66.1213C64.5361 55.6167 72.6126 47 82.2194 47H99.8253C109.432 47 117.221 55.9291 117.221 66.4337C117.221 76.9376 109.432 85.8667 99.8253 85.8667H94.2797L78.5843 98.5605V84.9434Z" fill="#D8D8D8"/>
<path fill-rule="evenodd" clip-rule="evenodd" d="M82.2194 46H94.5361V36.9905H34.5361V105H94.5361V86.9454L77.5843 100.655V85.7216C69.9282 83.5618 63.5361 75.15 63.5361 66.1213C63.5361 55.1203 72.006 46 82.2194 46ZM34.5361 34.9905V29.7002C34.5361 24.9184 38.4496 21 43.2262 21H85.846C90.6227 21 94.5361 24.9184 94.5361 29.7002V34.9905H34.5361ZM96.5361 29.7002V46H99.8253C109.943 46 118.221 55.3228 118.221 66.4337C118.221 77.544 109.943 86.8667 99.8253 86.8667H96.5361V120.301C96.5361 126.189 91.729 131 85.846 131H45.5361C38.3564 131 32.5361 125.18 32.5361 118V29.7002C32.5361 23.8144 37.3444 19 43.2262 19H85.846C91.7278 19 96.5361 23.8144 96.5361 29.7002ZM34.5361 118V107H94.5361V120.301C94.5361 125.085 90.624 129 85.846 129H45.5361C39.461 129 34.5361 124.075 34.5361 118ZM93.926 84.8667H99.8253C108.782 84.8667 116.221 76.4889 116.221 66.4337C116.221 56.3779 108.782 48 99.8253 48H82.2194C73.145 48 65.5361 56.1932 65.5361 66.1213C65.5361 74.526 71.7254 82.3847 78.8026 83.9675L79.5843 84.1423V96.4656L93.926 84.8667ZM69.8859 118.257C69.8859 115.466 67.6235 113.204 64.8327 113.204C62.0419 113.204 59.7795 115.466 59.7795 118.257C59.7795 121.048 62.0419 123.31 64.8327 123.31C67.6235 123.31 69.8859 121.048 69.8859 118.257ZM61.7795 118.257C61.7795 116.571 63.1465 115.204 64.8327 115.204C66.5189 115.204 67.8859 116.571 67.8859 118.257C67.8859 119.943 66.5189 121.31 64.8327 121.31C63.1465 121.31 61.7795 119.943 61.7795 118.257ZM53.5361 25C55.193 25 56.5361 26.3431 56.5361 28C56.5361 29.6569 55.193 31 53.5361 31C51.8793 31 50.5361 29.6569 50.5361 28C50.5361 26.3431 51.8793 25 53.5361 25ZM53.5361 27C52.9838 27 52.5361 27.4477 52.5361 28C52.5361 28.5523 52.9838 29 53.5361 29C54.0884 29 54.5361 28.5523 54.5361 28C54.5361 27.4477 54.0884 27 53.5361 27ZM79.5361 28C79.5361 26.3431 78.193 25 76.5361 25H62.5361C60.8793 25 59.5361 26.3431 59.5361 28C59.5361 29.6569 60.8793 31 62.5361 31H76.5361C78.193 31 79.5361 29.6569 79.5361 28ZM62.5361 27H76.5361C77.0884 27 77.5361 27.4477 77.5361 28C77.5361 28.5523 77.0884 29 76.5361 29H62.5361C61.9838 29 61.5361 28.5523 61.5361 28C61.5361 27.4477 61.9838 27 62.5361 27Z" fill="#979797"/>
<path d="M84.9287 59.9287L99.0709 74.0708" stroke="#979797" stroke-width="2"/>
<path d="M99.0713 59.9287L84.9291 74.0708" stroke="#979797" stroke-width="2"/>
</svg>
