<svg width="150" height="150" viewBox="0 0 150 150" fill="none" xmlns="http://www.w3.org/2000/svg">
<rect width="150" height="150" fill="white"/>
<path fill-rule="evenodd" clip-rule="evenodd" d="M75.0001 20C75.0001 20 63.2133 26.2927 56.6283 39.4807C50.0433 52.6688 50.0342 70 50.0342 70C50.0342 70 55.0503 60.941 61.2774 58.8503C67.5045 56.7597 75.0001 61.618 75.0001 61.618V20Z" fill="#E4F2D2"/>
<path fill-rule="evenodd" clip-rule="evenodd" d="M76.6731 20.4639C76.6731 20.4639 99.6698 21.8752 113.473 35.7705C127.277 49.6658 129.955 71.2386 129.955 71.2386C129.955 71.2386 126.724 58.2716 114.545 58.2716C102.367 58.2716 100.135 71.7822 100.135 71.7822C100.135 71.7822 100.941 57.6582 95.6565 44.4928C90.3721 31.3275 76.6731 20.4639 76.6731 20.4639Z" fill="#E4F2D2"/>
<path fill-rule="evenodd" clip-rule="evenodd" d="M65.5453 59.2711C68.7839 59.2711 71.8429 60.4207 74.2615 62.4779V120.96C74.2615 125.264 70.7717 128.754 66.4668 128.754C62.162 128.754 58.6722 125.264 58.6722 120.96V120.449C58.6722 119.896 58.2245 119.449 57.6722 119.449C57.1199 119.449 56.6722 119.896 56.6722 120.449V120.96C56.6722 126.369 61.0574 130.754 66.4668 130.754C71.8763 130.754 76.2615 126.369 76.2615 120.96V61.944C78.5637 60.2228 81.3617 59.2711 84.3084 59.2711C91.5625 59.2711 97.5168 65.0366 97.8092 72.3081L99.4269 72.2431L101.045 72.3081C101.337 65.0366 107.291 59.2711 114.545 59.2711C121.8 59.2711 127.755 65.0383 128.046 72.3111L128.955 72.2747L128.956 72.3113L130.955 72.2309C129.76 42.5454 105.307 19 75.5001 19C75.4299 19 75.3598 19.0001 75.2897 19.0004C75.2803 19.0001 75.2709 19 75.2615 19C75.2491 19 75.2368 19.0002 75.2245 19.0007C45.5475 19.1453 21.2431 42.6301 20.0465 72.2189L20.0461 72.2278L22.0445 72.3081C22.3369 65.0366 28.2912 59.2711 35.5453 59.2711C42.8004 59.2711 48.7553 65.0383 49.0461 72.3111L50.5862 72.2495L52.0445 72.3081C52.3369 65.0366 58.2912 59.2711 65.5453 59.2711ZM100.736 65.7547C103.312 60.7101 108.539 57.2711 114.545 57.2711C120.478 57.2711 125.651 60.6267 128.259 65.5709C124.173 41.2245 103.667 22.5421 78.6409 21.0908C92.6097 31.6297 100.855 48.1915 100.736 65.7547ZM76.2615 21.8258V59.5309C78.6538 58.0684 81.4203 57.2711 84.3084 57.2711C90.8204 57.2711 96.4171 61.3136 98.7108 67.0622C99.2753 49.1571 90.7965 32.1849 76.2615 21.8258ZM74.2615 21.6581C59.8376 31.8211 51.3084 48.4681 51.5543 66.1227C54.0596 60.878 59.3941 57.2711 65.5453 57.2711C68.7069 57.2711 71.7226 58.2265 74.2615 59.9641V21.6581ZM23.1269 63.5193C27.9385 40.4318 47.6126 22.8812 71.5779 21.1418C57.5426 31.7645 49.3046 48.4756 49.5545 66.1611C47.0569 60.8957 41.7115 57.2711 35.5453 57.2711C30.4755 57.2711 25.9604 59.7214 23.1269 63.5193Z" fill="#009639"/>
</svg>
