<svg width="150" height="150" viewBox="0 0 150 150" fill="none" xmlns="http://www.w3.org/2000/svg">
<rect width="150" height="150" fill="white"/>
<path fill-rule="evenodd" clip-rule="evenodd" d="M69.976 53.7684H126.211V77.6073H119.469C115.288 77.6073 111.898 80.9968 111.898 85.1779C111.898 89.359 115.288 92.7485 119.469 92.7485H126.211V116.593L59.3331 116.45L62.1162 82.6921L52.612 80.5311C52.612 80.5311 53.8802 70.96 51.1996 65.6586C48.5189 60.3573 42.122 59.7856 42.122 59.7856V44.4697C42.122 44.4697 39.4751 48.8416 48.476 52.2456C57.4768 55.6497 69.976 53.7684 69.976 53.7684Z" fill="#D8D8D8"/>
<path fill-rule="evenodd" clip-rule="evenodd" d="M37.04 93V107H39.3V101.11H40.44L44.9 107H47.7L43.09 101.11C45.94 101.01 47.76 99.43 47.76 97.05C47.76 94.44 46.02 93 42.8 93H37.04ZM42.74 95.12C44.51 95.12 45.41 95.72 45.41 97.05C45.41 98.4 44.56 99.06 42.74 99.06H39.3V95.12H42.74Z" fill="#979797"/>
<path fill-rule="evenodd" clip-rule="evenodd" d="M127.211 52.7683V75.9658H131.679V93.7483H127.211V117.592H54.8675V117.564H27.6882C24.1849 117.564 21.3583 114.801 21.3628 111.415L19 86.8013C19 83.3227 21.8264 80.5645 25.33 80.5645H29.1123V70.406C29.1123 64.2035 34.6634 59.0282 41.1223 58.9023V43.4024H41.1334C41.126 43.2306 41.1223 43.0578 41.1223 42.8841C41.1223 36.3207 46.443 31 53.0064 31H127.188C127.74 31 128.188 31.4477 128.188 32C128.188 32.5523 127.74 33 127.188 33H53.0064C47.695 33 43.3622 37.1894 43.1319 42.444C43.2226 42.417 43.3187 42.4024 43.4182 42.4024H126.726C127.278 42.4024 127.726 42.8502 127.726 43.4024C127.726 43.9547 127.278 44.4024 126.726 44.4024H43.4182C43.3558 44.4024 43.2948 44.3967 43.2356 44.3858C43.959 49.132 48.0581 52.7683 53.0064 52.7683H127.211ZM31.1123 70.406V80.5645H51.6123V70.406C51.6123 65.2695 46.8574 60.9 41.363 60.9C35.8704 60.9 31.1123 65.2709 31.1123 70.406ZM53.6123 70.406V80.5645H57.388C60.8946 80.5645 63.7192 83.3052 63.7146 86.8768L61.361 111.272C61.361 112.948 60.7062 114.467 59.6376 115.592H125.211V93.7483H119.778C114.867 93.7483 110.886 89.7676 110.886 84.857C110.886 79.9465 114.867 75.9658 119.778 75.9658H125.211V54.7683H53.0064C48.8852 54.7683 45.254 52.6706 43.1223 49.4846V59.0257C48.91 59.8559 53.6123 64.6947 53.6123 70.406ZM119.778 77.9658C115.972 77.9658 112.886 81.0511 112.886 84.857C112.886 88.663 115.972 91.7483 119.778 91.7483H129.679V77.9658H119.778ZM25.33 82.5645H57.388C59.8033 82.5645 61.7192 84.4235 61.7192 86.781L59.3656 111.176C59.361 113.651 57.4269 115.564 55.0298 115.564H27.6882C25.2795 115.564 23.3583 113.686 23.3583 111.319L20.9954 86.7055C21 84.4383 22.9202 82.5645 25.33 82.5645Z" fill="#979797"/>
</svg>
