<svg width="150" height="150" viewBox="0 0 150 150" fill="none" xmlns="http://www.w3.org/2000/svg">
<rect width="150" height="150" fill="white"/>
<circle cx="116.5" cy="30.5" r="16.5" fill="#D8D8D8"/>
<path fill-rule="evenodd" clip-rule="evenodd" d="M99.0004 30.5C99.0004 32.8087 99.4474 35.0131 100.26 37.0311L94.0822 40.4955V106.309H71.9983V87H69.9983V108.309H94.0822V129.96L131.142 109.177V40.3353H130.977C132.885 37.5323 134 34.1464 134 30.5C134 20.835 126.165 13 116.5 13C111.237 13 106.517 15.3232 103.309 19H69.9156V38.3191H71.9156V21H101.801C100.029 23.7359 99.0004 26.9978 99.0004 30.5ZM54.0627 48.0508C52.8089 52.1403 55.0449 56.4967 59.0692 57.7804C63.1017 59.0669 67.3891 56.7767 68.6449 52.6784C69.8986 48.5886 67.6628 44.2327 63.6384 42.9489C59.6062 41.6625 55.3191 43.9529 54.0627 48.0508ZM63.0305 44.8543C66.0042 45.8029 67.6674 49.0433 66.7327 52.0924C65.801 55.1331 62.6415 56.8208 59.677 55.875C56.7035 54.9265 55.0401 51.6857 55.9748 48.6371C56.907 45.5965 60.0664 43.9086 63.0305 44.8543ZM45.18 82.9263C44.7347 84.3785 44.877 85.9518 45.5709 87.2945L56.4552 98.5857C57.2213 99.3798 57.6772 100.416 57.7429 101.519C57.8488 103.293 57.9282 106.531 57.9854 110.824C58.0166 113.168 58.0393 115.679 58.0547 118.191C58.0601 119.069 58.0642 119.885 58.0672 120.618C58.069 121.058 58.07 121.372 58.0705 121.539L56.0705 121.545C56.07 121.378 56.069 121.065 56.0672 120.626C56.0642 119.895 56.0601 119.08 56.0547 118.203C56.0393 115.696 56.0167 113.19 55.9855 110.851C55.9287 106.589 55.8499 103.371 55.7465 101.638C55.7092 101.011 55.4513 100.426 55.0155 99.974L43.9403 88.4848L43.8759 88.3666C42.8718 86.5265 42.6521 84.3481 43.2678 82.3401L47.7469 67.7257C49.0173 63.5801 53.1194 60.9397 57.1786 61.8499C61.4045 62.7974 63.0004 66.1641 63.0004 71.92V82H72.0652V84H61.0004V71.92C61.0004 66.9882 59.8167 64.4911 56.741 63.8014C53.7422 63.129 50.6343 65.1295 49.6591 68.3117L45.18 82.9263ZM42.663 91.5889L34.3382 101.389H18.5938V103.389H35.2635L44.1873 92.8837L42.663 91.5889ZM47.1642 64H38.9732L30.7943 74.6803L29.2064 73.4644L37.9857 62H47.1642V64ZM101.114 38.8449L96.0822 41.6669V126.545L129.142 108.005V42.6011C125.956 45.9282 121.47 48 116.5 48C109.857 48 104.078 44.2982 101.114 38.8449ZM132 30.5C132 39.0604 125.061 46 116.5 46C107.94 46 101 39.0604 101 30.5C101 21.9396 107.94 15 116.5 15C125.061 15 132 21.9396 132 30.5ZM116 34.7155V20.5893C116 20.0371 116.448 19.5893 117 19.5893C117.553 19.5893 118 20.0371 118 20.5893V34.7155C118 35.2678 117.553 35.7155 117 35.7155C116.448 35.7155 116 35.2678 116 34.7155ZM116 39C116 39.5523 116.448 40 117 40C117.553 40 118 39.5523 118 39C118 38.4477 117.553 38 117 38C116.448 38 116 38.4477 116 39Z" fill="#979797"/>
</svg>
