<svg width="150" height="150" viewBox="0 0 150 150" fill="none" xmlns="http://www.w3.org/2000/svg">
<rect width="150" height="150" fill="white"/>
<path fill-rule="evenodd" clip-rule="evenodd" d="M69.9592 47.9297C67.0958 47.9297 61.028 47.9297 51.7558 47.9297C46.905 47.9297 42.5313 50.8501 40.6721 55.3305L34.6452 69.8548C34.3277 70.62 34.6906 71.4976 35.4558 71.8151C35.638 71.8908 35.8334 71.9297 36.0307 71.9297C54.556 71.9297 68.4501 71.9297 77.7128 71.9297C78.1765 71.9297 70.4133 47.9297 69.9592 47.9297Z" fill="url(#paint0_linear)" fill-opacity="0.3"/>
<path fill-rule="evenodd" clip-rule="evenodd" d="M36.6909 80.1085L46.434 84.7127C48.5931 85.7331 49.5338 88.2973 48.5469 90.4719C47.4954 92.7885 45.0282 94.1198 42.5146 93.7269L33.5946 92.3324C29.9653 91.7651 27.4831 88.363 28.0505 84.7337C28.0848 84.5143 28.1301 84.2967 28.1862 84.0817C29.0363 80.8235 32.3669 78.8713 35.6251 79.7215C35.9916 79.8171 36.3484 79.9467 36.6909 80.1085Z" fill="#B3D4F1"/>
<path fill-rule="evenodd" clip-rule="evenodd" d="M112.999 80.1085L103.255 84.7127C101.096 85.7331 100.156 88.2973 101.143 90.4719C102.194 92.7885 104.661 94.1198 107.175 93.7269L116.095 92.3324C119.724 91.7651 122.206 88.363 121.639 84.7337C121.605 84.5143 121.559 84.2967 121.503 84.0817C120.653 80.8235 117.323 78.8713 114.064 79.7215C113.698 79.8171 113.341 79.9467 112.999 80.1085Z" fill="#B3D4F1"/>
<path fill-rule="evenodd" clip-rule="evenodd" d="M128.227 110.25V127.494C127.758 129.761 126.301 130.895 123.857 130.895C121.291 130.895 118.726 130.895 116.16 130.895C113.951 130.895 112.16 129.105 112.16 126.895V119.741H123.167C124.4 119.576 125.268 119.228 125.771 118.695C126.273 118.163 126.665 117.261 126.946 115.991L128.227 110.25Z" fill="#B3D4F1"/>
<path fill-rule="evenodd" clip-rule="evenodd" d="M22.1602 110.25V127.494C22.6287 129.761 24.0853 130.895 26.5299 130.895C29.0956 130.895 31.6612 130.895 34.2268 130.895C36.4359 130.895 38.2268 129.105 38.2268 126.895V119.741H27.22C25.9867 119.576 25.1187 119.228 24.616 118.695C24.1133 118.163 23.7214 117.261 23.4404 115.991L22.1602 110.25Z" fill="#B3D4F1"/>
<path d="M137.425 129.898C137.977 129.898 138.425 130.345 138.425 130.898C138.425 131.41 138.039 131.833 137.541 131.891L137.425 131.898H135.925C135.373 131.898 134.925 131.45 134.925 130.898C134.925 130.385 135.311 129.962 135.808 129.904L135.925 129.898H137.425ZM13.6748 129.898C14.2271 129.898 14.6748 130.345 14.6748 130.898C14.6748 131.41 14.2888 131.833 13.7914 131.891L13.6748 131.898H10.6748C10.1225 131.898 9.6748 131.45 9.6748 130.898C9.6748 130.385 10.0608 129.962 10.5582 129.904L10.6748 129.898H13.6748ZM16.4996 131.895C15.9473 131.895 15.4996 131.448 15.4996 130.895C15.4996 130.383 15.8856 129.96 16.383 129.902L16.4996 129.895L22.6879 129.896C21.7968 128.901 21.2331 127.606 21.1661 126.182L21.1594 125.895L21.1588 105.38L20.9342 104.419L20.5891 102.876L20.3816 101.894L20.2846 101.417L20.104 100.492C20.0468 100.189 19.9926 99.8933 19.9415 99.6034L19.7969 98.7525C19.7292 98.3364 19.6682 97.9342 19.614 97.546L19.5146 96.7882L19.4332 96.0675C19.3368 95.1312 19.2885 94.2938 19.2885 93.5545C19.2885 92.0987 19.5633 90.3606 19.984 88.6877L16.6748 88.6874C16.1225 88.6874 15.6748 88.2397 15.6748 87.6874C15.6748 87.1351 16.1225 86.6874 16.6748 86.6874L20.5662 86.6864C21.0803 85.139 21.6857 83.7955 22.257 82.9939L22.5651 82.5838L22.7866 82.2742L23.0431 81.902L23.4217 81.3355L24.0371 80.3873L24.7596 79.247L25.8122 77.5529L26.4939 76.4415L27.6665 73.679L22.9363 73.6792C20.0717 73.6792 17.7495 71.357 17.7495 68.4924C17.7495 65.6278 20.0717 63.3056 22.9363 63.3056H23.3174C26.369 63.3056 28.8473 65.7606 28.8848 68.8033L29.7365 68.803L36.2562 53.4473C38.8359 47.3711 44.7373 43.3872 51.3148 43.2469L51.6742 43.2431L71.6016 43.243C71.9147 43.0562 72.2534 42.9012 72.6149 42.7838L110.32 30.5325C112.581 27.3037 116.319 25.25 120.461 25.25C125.113 25.25 129.283 27.8381 131.409 31.7586L132.079 30.0324L133.944 30.7565L132.009 35.7384L127.169 33.8589L127.893 31.9945L129.627 32.6677C127.837 29.4052 124.349 27.25 120.461 27.25C115.818 27.25 111.781 30.3285 110.499 34.7242L108.579 34.1642C108.686 33.7951 108.81 33.4337 108.95 33.0808L73.2329 44.6859C71.6939 45.186 70.8502 46.821 71.3419 48.3346L79.447 73.2794C79.9388 74.7929 81.5824 75.6198 83.1215 75.1197L126.06 61.1682C127.208 60.795 127.97 59.7897 128.078 58.6745C127.595 58.6044 127.226 58.1891 127.226 57.6874C127.226 57.1351 127.674 56.6874 128.226 56.6874H131.25C131.802 56.6874 132.25 57.1351 132.25 57.6874C132.25 58.2397 131.802 58.6874 131.25 58.6874L130.083 58.6875C129.967 60.6436 128.666 62.4245 126.678 63.0703L119.835 65.293L121.117 68.803L122.061 68.8033C122.098 65.7606 124.577 63.3056 127.628 63.3056H128.009C130.874 63.3056 133.196 65.6278 133.196 68.4924C133.196 71.357 130.874 73.6792 128.009 73.6792L123.076 73.679L125.748 79.6557C128.843 82.9627 130.665 86.5385 131.187 90.3684C131.688 94.0411 131.119 98.3935 129.497 103.433L129.312 103.996L129.179 104.999L129.226 105V125.895C129.226 127.432 128.648 128.835 127.697 129.896L133.125 129.895C133.677 129.895 134.125 130.343 134.125 130.895C134.125 131.408 133.739 131.831 133.241 131.889L133.125 131.895H62.4443C61.892 131.895 61.4443 131.448 61.4443 130.895C61.4443 130.383 61.8304 129.96 62.3277 129.902L62.4443 129.895L112.688 129.896C111.737 128.835 111.159 127.432 111.159 125.895L111.159 120.736H39.2258L39.226 125.895C39.226 127.432 38.648 128.835 37.6974 129.896L56.3216 129.895C56.8739 129.895 57.3216 130.343 57.3216 130.895C57.3216 131.408 56.9356 131.831 56.4382 131.889L56.3216 131.895H16.4996ZM23.1588 117.094L23.1594 125.895C23.1594 128.038 24.8433 129.786 26.9597 129.89L27.1594 129.895H33.226C35.3682 129.895 37.1171 128.211 37.2211 126.095L37.226 125.895L37.2258 120.736L27.8477 120.737C25.6284 120.737 23.7734 119.177 23.3191 117.094H23.1588ZM127.226 116.99L127.04 116.991C126.595 119.064 124.798 120.634 122.616 120.732L122.399 120.737L113.159 120.736L113.159 125.895C113.159 128.105 114.95 129.895 117.159 129.895H123.226C125.435 129.895 127.226 128.105 127.226 125.895L127.226 116.99ZM98.9514 106.28L49.4907 106.354C43.3223 106.364 37.8502 110.277 35.8339 116.081L35.7274 116.399L35.5041 117.093L25.4057 117.094C25.7777 118.009 26.6488 118.667 27.6811 118.732L27.8477 118.737H122.399C123.563 118.737 124.557 118.013 124.958 116.991L115.117 116.991L114.848 116.412C112.028 110.335 105.993 106.412 99.3162 106.284L98.9514 106.28ZM96.3746 110.25C97.8243 110.25 98.9996 111.425 98.9996 112.875C98.9996 114.325 97.8243 115.5 96.3746 115.5H53.6246C52.1748 115.5 50.9996 114.325 50.9996 112.875C50.9996 111.425 52.1748 110.25 53.6246 110.25H96.3746ZM69.7331 45.2431H51.6742C45.8672 45.2431 40.612 48.6486 38.2313 53.9225L38.0971 54.2289L28.3061 77.2907L28.2391 77.4211L27.1861 79.1347L26.097 80.8761L25.4758 81.8474L24.9378 82.6678L24.5886 83.1846L24.2857 83.6172L24.0289 83.966L23.9534 84.0637C22.8304 85.4977 21.2885 90.3856 21.2885 93.5545C21.2885 94.3268 21.3475 95.2289 21.4662 96.2623L21.5542 96.9707L21.6599 97.7182C21.6981 97.9739 21.7392 98.236 21.7834 98.5047L21.9246 99.3305C21.9496 99.4714 21.9754 99.614 22.0019 99.7581L22.17 100.643L22.3559 101.567L22.6136 102.778L22.8994 104.051L23.1208 104.999L23.1594 105L23.1588 105.186L24.6449 115.093H34.0638C36.408 108.781 42.3749 104.514 49.1314 104.359L49.4878 104.354L98.9484 104.281C106.204 104.27 112.835 108.285 116.205 114.648L116.382 114.991H125.833L127.342 103.637L127.385 103.45C129.081 98.402 129.681 94.1288 129.205 90.6387C128.754 87.3287 127.196 84.2065 124.506 81.2589L124.061 80.7822L120.258 72.2725L117.932 65.911L115.951 66.555L116.666 69.126C116.721 69.3221 116.755 69.5232 116.769 69.726L116.776 69.9292C116.776 71.5269 115.527 72.8329 113.952 72.9241L113.776 72.9292H96.4996L96.4995 72.875L83.7395 77.0218C81.1543 77.8618 78.3794 76.4659 77.5449 73.8974L77.2295 72.929L36.0304 72.9292C35.7015 72.9292 35.3759 72.8643 35.0722 72.7383C33.8501 72.2312 33.2437 70.8666 33.661 69.6313L33.7213 69.471L39.7482 54.9467C41.7212 50.1921 46.3082 47.0591 51.4344 46.9332L51.7555 46.9292L69.2296 46.9295C69.2941 46.3385 69.4666 45.7673 69.7331 45.2431ZM96.3746 112.25H53.6246C53.2794 112.25 52.9996 112.53 52.9996 112.875C52.9996 113.22 53.2794 113.5 53.6246 113.5H96.3746C96.7198 113.5 96.9996 113.22 96.9996 112.875C96.9996 112.53 96.7198 112.25 96.3746 112.25ZM33.1269 103.25C34.7838 103.25 36.1269 104.593 36.1269 106.25C36.1269 107.06 35.7993 107.836 35.2185 108.401L32.118 111.416C30.9303 112.571 29.0309 112.545 27.8758 111.357C27.3312 110.797 27.0265 110.046 27.0265 109.265V106.25C27.0265 104.593 28.3696 103.25 30.0265 103.25H33.1269ZM121.205 103.25C122.803 103.25 124.109 104.499 124.2 106.074L124.205 106.25V109.265C124.205 110.046 123.901 110.797 123.356 111.357C122.247 112.497 120.452 112.567 119.26 111.549L119.114 111.416L116.013 108.401C115.432 107.836 115.105 107.06 115.105 106.25C115.105 104.652 116.354 103.346 117.928 103.255L118.105 103.25H121.205ZM33.1269 105.25H30.0265C29.4742 105.25 29.0265 105.698 29.0265 106.25V109.265C29.0265 109.526 29.1281 109.776 29.3096 109.962C29.6946 110.358 30.3277 110.367 30.7237 109.982L33.8241 106.967C34.0177 106.779 34.1269 106.52 34.1269 106.25C34.1269 105.698 33.6792 105.25 33.1269 105.25ZM121.205 105.25H118.105C117.552 105.25 117.105 105.698 117.105 106.25C117.105 106.475 117.181 106.692 117.318 106.867L117.408 106.967L120.508 109.982C120.904 110.367 121.537 110.358 121.922 109.962C122.073 109.807 122.169 109.607 122.197 109.394L122.205 109.265V106.25C122.205 105.737 121.819 105.314 121.322 105.257L121.205 105.25ZM88.4226 88.5C92.4371 88.5 95.6915 91.7544 95.6915 95.7689C95.6915 96.89 95.4323 97.9958 94.9339 99H55.2167C53.4797 95.3281 55.0482 90.9434 58.7201 89.2064C59.7033 88.7412 60.7775 88.5 61.8652 88.5H88.4226ZM88.4226 90.5H61.8652C61.0732 90.5 60.2912 90.6757 59.5753 91.0143C57.2756 92.1022 56.1091 94.6166 56.6329 97H93.5457C93.6423 96.5981 93.6915 96.185 93.6915 95.7689C93.6915 92.859 91.3326 90.5 88.4226 90.5ZM121.503 84.0813C121.559 84.2963 121.604 84.5138 121.638 84.7333C122.194 88.2854 119.828 91.6198 116.324 92.292L116.094 92.332L107.174 93.7265C104.661 94.1194 102.194 92.7881 101.142 90.4715C100.185 88.3628 101.041 85.8877 103.062 84.8093L103.255 84.7123L112.998 80.1081C113.341 79.9463 113.697 79.8167 114.064 79.7211C117.322 78.8709 120.653 80.8231 121.503 84.0813ZM35.6246 79.7211C35.9911 79.8167 36.3479 79.9463 36.6903 80.1081L46.4335 84.7123C48.5926 85.7327 49.5333 88.2969 48.5463 90.4715C47.4949 92.7881 45.0277 94.1194 42.5141 93.7265L33.5941 92.332C29.9648 91.7647 27.4826 88.3626 28.05 84.7333C28.0843 84.5138 28.1296 84.2963 28.1856 84.0813C29.0358 80.8231 32.3664 78.8709 35.6246 79.7211ZM114.569 81.6563C114.405 81.6991 114.243 81.7521 114.086 81.8149L113.853 81.9163L104.11 86.5206C102.938 87.0741 102.428 88.4652 102.963 89.6449C103.616 91.0835 105.113 91.9347 106.671 91.7756L106.865 91.7505L115.785 90.356C118.323 89.9593 120.059 87.5802 119.662 85.0422C119.638 84.8887 119.607 84.7366 119.568 84.5863C118.996 82.3968 116.758 81.085 114.569 81.6563ZM30.1209 84.5863C30.0816 84.7366 30.05 84.8887 30.026 85.0422C29.6292 87.5802 31.365 89.9593 33.903 90.356L42.823 91.7505C44.449 92.0047 46.045 91.1435 46.7252 89.6449C47.2606 88.4652 46.7502 87.0741 45.5789 86.5206L35.8358 81.9163C35.6057 81.8076 35.366 81.7205 35.1197 81.6563C32.9302 81.085 30.6921 82.3968 30.1209 84.5863ZM13.6748 86.6874C14.2271 86.6874 14.6748 87.1351 14.6748 87.6874C14.6748 88.2397 14.2271 88.6874 13.6748 88.6874H10.6748C10.1225 88.6874 9.6748 88.2397 9.6748 87.6874C9.6748 87.1351 10.1225 86.6874 10.6748 86.6874H13.6748ZM98.1183 41.4272L105.572 64.3687L82.6309 71.8228L75.1768 48.8813L98.1183 41.4272ZM23.3174 65.3056H22.9363C21.1763 65.3056 19.7495 66.7323 19.7495 68.4924C19.7495 70.2524 21.1763 71.6792 22.9363 71.6792L28.5155 71.679L28.8875 70.803L26.8853 70.8033V68.8734C26.8853 66.903 25.2879 65.3056 23.3174 65.3056ZM128.009 65.3056H127.628C125.658 65.3056 124.06 66.903 124.06 68.8734V70.8033L121.848 70.803L122.11 71.5209L122.181 71.679L128.009 71.6792C129.769 71.6792 131.196 70.2524 131.196 68.4924C131.196 66.7323 129.769 65.3056 128.009 65.3056ZM114.047 67.173L102.488 70.929L113.776 70.9292C114.289 70.9292 114.711 70.5432 114.769 70.0458L114.776 69.9292C114.776 69.8689 114.771 69.8088 114.76 69.7495L114.739 69.6615L114.047 67.173ZM69.4325 48.929H51.7555C47.41 48.929 43.4822 51.486 41.7152 55.4355L41.5955 55.7133L35.5686 70.2376C35.4627 70.4926 35.5837 70.7852 35.8387 70.891C35.8792 70.9078 35.9217 70.9192 35.965 70.9249L36.0304 70.9292H76.5805L69.4325 48.929ZM96.8342 43.9473L77.6969 50.1654L83.915 69.3027L84.8553 68.9971L83.7797 65.7062C83.5679 65.0911 83.7413 64.4042 84.2341 63.9764L84.8731 63.4174L85.4646 62.8878C86.1266 62.2872 86.6898 61.7468 87.1477 61.2678C87.5513 60.8456 87.8593 60.4845 88.0586 60.1993L88.2089 59.9733L88.1511 59.8056C87.5182 59.4037 86.9342 58.8442 86.4359 58.1665C85.5093 57.7016 84.981 56.6558 85.1624 55.6144L84.6449 54.1115C83.7993 51.6558 84.8138 49.531 87.4376 48.6275C90.1017 47.7102 92.1609 48.7543 93.0134 51.23L93.5306 52.7322C94.3159 53.4416 94.5437 54.592 94.0986 55.5291C94.123 56.3695 94.0075 57.1695 93.7565 57.8754L93.8144 58.0434L94.0724 58.1292C94.4051 58.2313 94.87 58.3263 95.4479 58.4105C95.729 58.4514 96.0323 58.4893 96.3572 58.5245L97.0359 58.5911L97.7715 58.6506L98.5632 58.7037L99.4101 58.7505C100.062 58.7828 100.622 59.2184 100.831 59.8238L102.103 63.3931L103.052 63.0846L96.8342 43.9473ZM88.0887 50.5186C86.5164 51.06 86.0475 52.0421 86.5359 53.4604L87.2616 55.5679L87.1493 55.8936C87.0762 56.1057 87.1958 56.341 87.3817 56.3985L87.7179 56.5025L87.9149 56.7941C88.362 57.4558 88.8978 57.958 89.441 58.2436L89.7921 58.4281L90.2429 59.7375L90.2488 59.8841C90.2743 60.5149 89.8767 61.2466 89.0346 62.1973L88.7189 62.5421L88.3661 62.9063L87.8726 63.3904L87.083 64.1263L86.5796 64.5793L85.753 65.3063L86.7574 68.3791L100.2 64.0113L99.0318 60.7337L98.2883 60.692L97.5907 60.647L96.6282 60.5715L95.7641 60.484L95.2411 60.4178C93.5676 60.1855 92.5859 59.8325 92.1521 59.2293L92.0664 59.11L91.6155 57.8005L91.7784 57.4391C92.0303 56.8799 92.1431 56.1542 92.0882 55.3574L92.0639 55.0058L92.2655 54.7166C92.3766 54.5572 92.3261 54.2984 92.1371 54.1758L91.8479 53.9883L91.1223 51.8811C90.625 50.4369 89.6951 49.9654 88.0887 50.5186ZM137.425 56.6874C137.977 56.6874 138.425 57.1351 138.425 57.6874C138.425 58.2397 137.977 58.6874 137.425 58.6874H134.425C133.873 58.6874 133.425 58.2397 133.425 57.6874C133.425 57.1351 133.873 56.6874 134.425 56.6874H137.425ZM141.175 56.6874C141.727 56.6874 142.175 57.1351 142.175 57.6874C142.175 58.2397 141.727 58.6874 141.175 58.6874H140.425C139.873 58.6874 139.425 58.2397 139.425 57.6874C139.425 57.1351 139.873 56.6874 140.425 56.6874H141.175ZM119.017 52.5047L119.662 54.398L107.395 58.5758L106.75 56.6826L119.017 52.5047ZM110.417 50.4227L111.062 52.3159L105.895 54.0758L105.25 52.1826L110.417 50.4227ZM109.002 39.5299L113.842 41.4095L113.118 43.2738L111.384 42.6006C113.174 45.8631 116.662 48.0183 120.55 48.0183C125.193 48.0183 129.23 44.9398 130.512 40.5441L132.432 41.1041C130.903 46.347 126.088 50.0183 120.55 50.0183C115.898 50.0183 111.728 47.4302 109.602 43.5098L108.932 45.2359L107.067 44.5119L109.002 39.5299Z" fill="#006FCF"/>
<path d="M30.75 48.25C32.5449 48.25 34 46.7949 34 45C34 43.2051 32.5449 41.75 30.75 41.75C28.9551 41.75 27.5 43.2051 27.5 45C27.5 46.7949 28.9551 48.25 30.75 48.25ZM30.75 46.25C30.0596 46.25 29.5 45.6904 29.5 45C29.5 44.3096 30.0596 43.75 30.75 43.75C31.4404 43.75 32 44.3096 32 45C32 45.6904 31.4404 46.25 30.75 46.25Z" fill="#B3D4F1" fill-opacity="0.5"/>
<path d="M26.0638 23.9214C26.9162 21.7166 29.0483 20.2207 31.4659 20.2207H31.8605C34.2298 20.2207 36.3363 21.6458 37.2422 23.7816H37.785C40.1058 23.7816 42.0437 25.4208 42.5042 27.6046H44.9561C45.5083 27.6046 45.9561 28.0523 45.9561 28.6046C45.9561 29.1569 45.5083 29.6046 44.9561 29.6046H40.608V28.6046C40.608 27.0455 39.3441 25.7816 37.785 25.7816H35.7716L35.5694 25.0469C35.1101 23.3775 33.592 22.2207 31.8605 22.2207H31.4659C29.7068 22.2207 28.1786 23.4303 27.7746 25.1423L27.5928 25.9127H26.353C24.8663 25.9127 23.661 27.1179 23.661 28.6046V29.6046H18.7503C18.198 29.6046 17.7503 29.1569 17.7503 28.6046C17.7503 28.0523 18.198 27.6046 18.7503 27.6046H21.7678C22.2063 25.5849 23.9452 24.0502 26.0638 23.9214Z" fill="#B3D4F1"/>
<path d="M67.4178 28.5264C67.97 28.536 68.4098 28.9915 68.4002 29.5437L68.3594 31.8332L70.6586 31.8335C71.1714 31.8335 71.5941 32.2195 71.6518 32.7169L71.6586 32.8335C71.6586 33.3858 71.2108 33.8335 70.6586 33.8335L68.3244 33.8332L68.2844 36.1583C68.2755 36.671 67.8821 37.0869 67.3838 37.1359L67.2671 37.1406C66.7149 37.131 66.2751 36.6755 66.2847 36.1233L66.3244 33.8332L64.0264 33.8335C63.5135 33.8335 63.0909 33.4475 63.0331 32.9501L63.0264 32.8335C63.0264 32.2812 63.4741 31.8335 64.0264 31.8335L66.3594 31.8332L66.4005 29.5087C66.4095 28.996 66.8028 28.5801 67.3011 28.5311L67.4178 28.5264Z" fill="#B3D4F1"/>
<defs>
<linearGradient id="paint0_linear" x1="34.5303" y1="47.9297" x2="34.5303" y2="71.9297" gradientUnits="userSpaceOnUse">
<stop stop-color="#006FCF" stop-opacity="0.953521"/>
<stop offset="0.721043" stop-color="white" stop-opacity="0.4"/>
<stop offset="0.852745" stop-color="white" stop-opacity="0.01"/>
<stop offset="1" stop-color="white" stop-opacity="0.01"/>
</linearGradient>
</defs>
</svg>
