<svg width="100" height="100" viewBox="0 0 100 100" fill="none" xmlns="http://www.w3.org/2000/svg">
<rect width="100" height="100" fill="white"/>
<path fill-rule="evenodd" clip-rule="evenodd" d="M56.5 37.096H51.5L61.5 19.667L72.81 37.096H66.5V52.851H56.5V37.096Z" fill="#D8D8D8"/>
<path d="M27.583 86.333C35.1769 86.333 41.333 80.1769 41.333 72.583C41.333 64.9891 35.1769 58.833 27.583 58.833C19.9891 58.833 13.833 64.9891 13.833 72.583C13.833 80.1769 19.9891 86.333 27.583 86.333Z" fill="#D8D8D8"/>
<path d="M61.4477 17.749L74.6509 38.0964L67.5002 38.0963V53.8514L62.8335 53.851V62.8337H87.8335V87.3337H35.8335L35.8341 84.8121C33.4792 86.404 30.6399 87.3337 27.5835 87.3337C19.4373 87.3337 12.8335 80.7299 12.8335 72.5837C12.8335 64.4375 19.4373 57.8337 27.5835 57.8337C30.6399 57.8337 33.4792 58.7633 35.8341 60.3553L35.8335 40.3337L55.4995 40.333L55.5002 38.0963L49.7735 38.0964L61.4477 17.749ZM27.5835 59.8337C20.5419 59.8337 14.8335 65.542 14.8335 72.5837C14.8335 79.6253 20.5419 85.3337 27.5835 85.3337C34.6251 85.3337 40.3335 79.6253 40.3335 72.5837C40.3335 65.542 34.6251 59.8337 27.5835 59.8337ZM60.8325 79.8337L40.4313 79.8344C39.7292 81.0758 38.8524 82.2053 37.8342 83.1896L37.8332 85.3333H60.8332L60.8325 79.8337ZM85.8325 79.8337H62.8335V85.3327L85.8332 85.3333L85.8325 79.8337ZM27.8082 67.0503C30.4802 67.0503 31.9122 68.3143 31.9122 70.4583C31.9122 72.2983 30.6322 73.5543 28.4802 73.7623L31.9282 78.2503H29.2242L25.9602 73.7943H25.3042V78.2503H23.0722V67.0503H27.8082ZM60.8332 72.3333L42.3305 72.3337L42.3335 72.5837C42.3335 74.4332 41.9931 76.2032 41.3715 77.8345L60.8332 77.8333V72.3333ZM85.8325 72.3337H62.8325L62.8332 77.8333H85.8332L85.8325 72.3337ZM27.7682 69.1063H25.3042V71.8503H27.7682C28.9842 71.8503 29.6162 71.4023 29.6162 70.4583C29.6162 69.5303 28.9522 69.1063 27.7682 69.1063ZM60.8335 64.8337L40.1361 64.8342C41.1545 66.4802 41.8581 68.3414 42.163 70.3339L60.8335 70.3337V64.8337ZM62.8335 64.8327V64.8337H62.8325L62.8332 70.3333H85.8332V64.8333L62.8335 64.8327ZM60.8325 57.3337H37.8325L37.8342 61.9778C38.1181 62.2522 38.391 62.5379 38.6521 62.8341L60.8332 62.8333L60.8325 57.3337ZM55.4995 49.833L37.8325 49.8337L37.8332 55.3333H60.8332L60.8335 53.851L55.5002 53.8514L55.4995 49.833ZM61.5522 21.5843L53.2262 36.0963L57.5002 36.0964V51.8513H65.5002V36.0964L70.9682 36.0963L61.5522 21.5843ZM55.4995 42.333L37.8332 42.3333V47.8333L55.4995 47.833V42.333Z" fill="#979797"/>
</svg>
