<svg width="150" height="150" viewBox="0 0 150 150" fill="none" xmlns="http://www.w3.org/2000/svg">
<rect width="150" height="150" fill="white"/>
<path fill-rule="evenodd" clip-rule="evenodd" d="M85.2491 51.9922C95.3071 51.9922 103.461 60.1458 103.461 70.2037C103.461 80.2617 95.3071 88.4152 85.2491 88.4152C79.4148 88.4152 74.2213 85.6717 70.8883 81.4044C70.4208 80.8058 71.7383 79.3247 73.2075 77.7626L73.8128 77.121C75.2929 75.5517 76.7019 74.0106 76.4061 73.2993C75.7937 71.8263 75.7937 69.9997 72.5579 67.6183C72.2822 67.4153 71.1368 68.0767 69.9602 68.7944L69.568 69.0346C68.2645 69.8349 67.0376 70.594 67.0376 70.2037C67.0376 60.1458 75.1912 51.9922 85.2491 51.9922ZM81 61.7096C80.4477 61.7096 80 62.1573 80 62.7096V77.2899C80 77.4616 80.0442 77.6304 80.1284 77.7801C80.3992 78.2615 81.0089 78.4322 81.4903 78.1614L94.4505 70.8713C94.6102 70.7815 94.7421 70.6496 94.8318 70.49C95.1026 70.0086 94.9319 69.3989 94.4505 69.1281L81.4903 61.838C81.3406 61.7538 81.1717 61.7096 81 61.7096Z" fill="#E4F2D2"/>
<path d="M74 30C75.1046 30 76 29.1046 76 28C76 26.8954 75.1046 26 74 26C72.8954 26 72 26.8954 72 28C72 29.1046 72.8954 30 74 30Z" fill="#E4F2D2"/>
<path d="M97 26H83C81.8954 26 81 26.8954 81 28C81 29.1046 81.8954 30 83 30H97C98.1046 30 99 29.1046 99 28C99 26.8954 98.1046 26 97 26Z" fill="#E4F2D2"/>
<path d="M106.31 19C112.097 19 116.845 23.6604 116.996 29.4162L117 29.7002V34.99L119.683 34.9905C120.196 34.9905 120.619 35.3765 120.676 35.8739L120.683 35.9905C120.683 36.5033 120.297 36.926 119.8 36.9838L119.683 36.9905L117 36.99V40.99L120.683 40.9905C121.196 40.9905 121.619 41.3765 121.676 41.8739L121.683 41.9905C121.683 42.5033 121.297 42.926 120.8 42.9838L120.683 42.9905L117 42.99V120.301C117 126.094 112.347 130.845 106.594 130.996L106.31 131L61.8084 131.002C55.1704 134.352 46.8888 133.324 41.2594 127.918L40.994 127.658L36.697 123.361C33.7888 120.453 31.7486 116.856 30.722 112.968C30.6682 112.982 30.6126 112.991 30.5556 112.996L30.4692 113H26C25.4477 113 25 112.552 25 112C25 111.487 25.386 111.064 25.8833 111.007L26 111L30.2938 111.001C30.0672 109.685 29.9543 108.344 29.9606 106.993L29.8542 107H28C27.4477 107 27 106.552 27 106C27 105.487 27.386 105.064 27.8833 105.007L28 105H29.8542C29.9227 105 29.9897 105.007 30.0544 105.02L31.7206 84.8305C31.953 82.0155 34.3054 79.8493 37.1299 79.8493C39.8621 79.8493 42.0903 82.0074 42.2027 84.712L42.2072 84.9266V93.9709L53.047 83.13L53 83.1302V29.7002C53 23.9093 57.6544 19.1556 63.4063 19.0037L63.69 19H106.31ZM69.4599 69.5552L69.3009 69.7056L43.6214 95.3851C43.2463 95.7602 42.7376 95.9709 42.2072 95.9709C41.1528 95.9709 40.289 95.155 40.2127 94.1202L40.2072 93.9709V84.9266C40.2072 83.2271 38.8294 81.8493 37.1299 81.8493C35.4099 81.8493 33.967 83.1214 33.7346 84.8062L33.7138 84.995L32.0316 105.37C31.5354 111.381 33.6476 117.307 37.817 121.647L38.1112 121.947L42.4083 126.244C48.5622 132.398 58.4865 132.483 64.7452 126.501L65.0075 126.244L76.3315 114.92C77.8372 113.414 77.8372 110.973 76.3315 109.468C74.8778 108.014 72.552 107.964 71.0381 109.317L70.8791 109.468L67.2516 113.095C66.861 113.486 66.2279 113.486 65.8374 113.095C65.4769 112.735 65.4491 112.167 65.7542 111.775L65.8374 111.681L66.5706 110.946C66.6 110.893 66.6345 110.843 66.6742 110.795L66.7375 110.726L72.2657 105.197C72.322 105.141 72.3762 105.083 72.4283 105.025L72.428 105L72.4492 105.001C73.7686 103.486 73.7074 101.187 72.2657 99.7449C70.812 98.2912 68.4861 98.2411 66.9723 99.5945L66.8133 99.7449L63.1857 103.372C62.7952 103.763 62.162 103.763 61.7715 103.372C61.411 103.012 61.3833 102.445 61.6883 102.052L61.7977 101.93C61.827 101.878 61.8615 101.827 61.9012 101.779L61.9645 101.71L67.4927 96.1817C68.9983 94.6761 68.9983 92.2349 67.4927 90.7293C66.039 89.2756 63.7132 89.2254 62.1993 90.5789L62.0403 90.7293L58.4127 94.3568C58.0222 94.7474 57.389 94.7474 56.9985 94.3568C56.638 93.9964 56.6103 93.4291 56.9153 93.0368L56.9985 92.9426L57.6153 92.3254L57.6001 92.3112L74.7533 75.158C76.2589 73.6524 76.2589 71.2113 74.7533 69.7056C73.2996 68.2519 70.9738 68.2018 69.4599 69.5552ZM77.7458 108.053C79.9723 110.28 80.0309 113.853 77.9215 116.151L77.7458 116.334L66.4217 127.658C65.9412 128.139 65.4403 128.586 64.9218 129.001L106.31 129C111.001 129 114.857 125.226 114.996 120.561L115 120.301V107L76.3114 106.999C76.8276 107.269 77.3122 107.62 77.7458 108.053ZM85.2965 113.204C88.0873 113.204 90.3497 115.466 90.3497 118.257C90.3497 121.048 88.0873 123.31 85.2965 123.31C82.5057 123.31 80.2433 121.048 80.2433 118.257C80.2433 115.466 82.5057 113.204 85.2965 113.204ZM85.2965 115.204C83.6103 115.204 82.2433 116.571 82.2433 118.257C82.2433 119.943 83.6103 121.31 85.2965 121.31C86.9827 121.31 88.3497 119.943 88.3497 118.257C88.3497 116.571 86.9827 115.204 85.2965 115.204ZM24.4692 105C25.0215 105 25.4692 105.448 25.4692 106C25.4692 106.513 25.0832 106.936 24.5858 106.993L24.4692 107H23.012C22.4597 107 22.012 106.552 22.012 106C22.012 105.487 22.398 105.064 22.8953 105.007L23.012 105H24.4692ZM115 36.99H55L54.999 81.178L66.038 70.139L66.0405 69.8624C66.2228 59.4098 74.7529 50.9925 85.2491 50.9925C95.8593 50.9925 104.461 59.5938 104.461 70.204C104.461 80.8142 95.8593 89.4155 85.2491 89.4155C79.398 89.4155 73.9866 86.7802 70.3752 82.3647L65.128 87.6112C66.5038 87.6957 67.8555 88.2637 68.9069 89.3151C70.8908 91.2989 71.1535 94.3522 69.6951 96.6193C71.1414 96.656 72.5761 97.2269 73.6799 98.3307C75.4841 100.135 75.8648 102.824 74.8219 105.001L115 105V36.99ZM85.2491 52.9925C76.482 52.9925 69.246 59.5473 68.1744 68.0235C70.4745 66.0086 73.9744 66.0983 76.1675 68.2914C78.394 70.5179 78.4526 74.0914 76.3433 76.3888L76.1675 76.5722L71.7971 80.9423C75.0331 84.9934 79.9375 87.4155 85.2491 87.4155C94.7547 87.4155 102.461 79.7097 102.461 70.204C102.461 60.6983 94.7547 52.9925 85.2491 52.9925ZM81.5198 61.2294C81.8633 61.2294 82.201 61.3178 82.5003 61.4862L95.4606 68.7764C96.3775 69.2921 96.7308 70.4227 96.2946 71.3609L96.2232 71.5L96.1266 71.6549C95.9542 71.9049 95.7267 72.113 95.4606 72.2627L82.5003 79.5528C81.5376 80.0943 80.3182 79.7529 79.7767 78.7902C79.6083 78.4908 79.5198 78.1531 79.5198 77.8097V63.2294C79.5198 62.1248 80.4153 61.2294 81.5198 61.2294ZM81.5198 63.2294V77.8097L94.4801 70.5195L81.5198 63.2294ZM125.068 34.9905C125.62 34.9905 126.068 35.4382 126.068 35.9905C126.068 36.5033 125.682 36.926 125.185 36.9838L125.068 36.9905H123.214C122.661 36.9905 122.214 36.5428 122.214 35.9905C122.214 35.4777 122.6 35.055 123.097 34.9972L123.214 34.9905H125.068ZM106.31 21H63.69C59.0002 21 55.1425 24.7772 55.0038 29.4402L55 29.7002V34.99H115V29.7002C115 25.0053 111.228 21.1428 106.57 21.0039L106.31 21ZM74 25C75.6568 25 77 26.3431 77 28C77 29.6569 75.6568 31 74 31C72.3431 31 71 29.6569 71 28C71 26.3431 72.3431 25 74 25ZM97 25C98.6568 25 100 26.3431 100 28C100 29.6569 98.6568 31 97 31H83C81.3431 31 80 29.6569 80 28C80 26.3431 81.3431 25 83 25H97ZM74 27C73.4477 27 73 27.4477 73 28C73 28.5523 73.4477 29 74 29C74.5522 29 75 28.5523 75 28C75 27.4477 74.5522 27 74 27ZM97 27H83C82.4477 27 82 27.4477 82 28C82 28.5523 82.4477 29 83 29H97C97.5522 29 98 28.5523 98 28C98 27.4477 97.5522 27 97 27Z" fill="#009639"/>
<path d="M65.0001 61.6395L61.0601 58.5615" stroke="#009639" stroke-width="2" stroke-linecap="round"/>
<path d="M60 67.3623H63" stroke="#009639" stroke-width="2" stroke-linecap="round"/>
<path d="M35 48C35 43.5817 31.4183 40 27 40C23.1292 40 19.9005 42.749 19.1598 46.4012C21.4069 47.2684 23 49.4482 23 52H21C21 49.7909 19.2091 48 17 48C14.7909 48 13 49.7909 13 52H11C11 48.6863 13.6863 46 17 46C17.0672 46 17.1342 46.0011 17.2009 46.0033C18.1242 41.4375 22.1607 38 27 38C31.8574 38 35.9058 41.4632 36.811 46.0551C39.7411 46.4502 42 48.9613 42 52H40C40 49.7909 38.2091 48 36 48H35Z" fill="#B2E0C4"/>
<path d="M128 5C132.12 5 135.519 8.08724 136.01 12.0747C138.662 12.155 140.786 14.3295 140.786 17H138.786C138.786 15.3826 137.475 14.0714 135.857 14.0714C134.24 14.0714 132.929 15.3826 132.929 17H130.929C130.929 14.9212 132.216 13.143 134.036 12.4187C133.711 9.37212 131.132 7 128 7C125.097 7 122.669 9.03791 122.07 11.7613C123.388 12.4546 124.286 13.8367 124.286 15.4286H122.286C122.286 14.2451 121.326 13.2857 120.143 13.2857C118.959 13.2857 118 14.2451 118 15.4286H116C116 13.1405 117.855 11.2857 120.143 11.2857L120.127 11.2853C120.94 7.68706 124.156 5 128 5Z" fill="#99D5B0"/>
<path d="M46 8C48.2091 8 50 9.79086 50 12C50 14.2091 48.2091 16 46 16C43.7909 16 42 14.2091 42 12C42 9.79086 43.7909 8 46 8ZM46 10C44.8954 10 44 10.8954 44 12C44 13.1046 44.8954 14 46 14C47.1046 14 48 13.1046 48 12C48 10.8954 47.1046 10 46 10ZM134 84C137.314 84 140 86.6863 140 90C140 93.3137 137.314 96 134 96C130.686 96 128 93.3137 128 90C128 86.6863 130.686 84 134 84ZM134 86C131.791 86 130 87.7909 130 90C130 92.2091 131.791 94 134 94C136.209 94 138 92.2091 138 90C138 87.7909 136.209 86 134 86Z" fill="#7FCB9C"/>
<path d="M104.158 130H118.117" stroke="#009639" stroke-width="2" stroke-linecap="round"/>
<path d="M121.158 130H124.023" stroke="#009639" stroke-width="2" stroke-linecap="round"/>
</svg>
