<svg width="100" height="100" viewBox="0 0 100 100" fill="none" xmlns="http://www.w3.org/2000/svg">
<g clip-path="url(#clip0)">
<rect width="100" height="100" fill="white"/>
<path d="M66 19.9922L66.0303 26.528L72.4118 26.448L66 19.9922Z" fill="#B3D4F1"/>
<path fill-rule="evenodd" clip-rule="evenodd" d="M35.7145 17.8054L36.3719 15.1686L46.9474 17.8054H55.2924L34.9186 12.7256L33.652 17.8054H35.7145ZM25.1817 60.05V51.778L19.3203 75.2867L25.1817 76.7481V74.6675L21.7504 73.812L25.1817 60.05ZM55.7207 82.2817H47.3757L67.0943 87.1981L68.3201 82.2817H66.2576L65.6409 84.7551L55.7207 82.2817ZM74.4182 49.5514V57.8234L82.6925 24.637L68.8116 21.1761L71.5513 23.9398L80.2624 26.1117L74.4182 49.5514Z" fill="#006FCF"/>
<path fill-rule="evenodd" clip-rule="evenodd" d="M72.4181 80.261H27.1816V19.8247H64.4307V28.6426H72.4181V80.261ZM71.3813 26.6226L66.4307 21.6286V26.6226H71.3813ZM25.1816 17.8047H65.4701L74.4181 26.8312V82.281H25.1816V17.8047Z" fill="#006FCF"/>
<path fill-rule="evenodd" clip-rule="evenodd" d="M63.3834 48.0953C62.7705 46.7265 62.0157 45.5037 61.0165 44.3073L56.9998 46.1417C56.0985 45.257 55.0779 44.5369 53.9786 43.9879L54.4059 39.5897C53.009 39.0561 51.5437 38.7176 50.0544 38.5844L48.5102 42.7237C47.2802 42.7343 46.046 42.934 44.8467 43.3339L42.0404 39.9245C40.6385 40.5519 39.4222 41.3135 38.2526 42.2895L40.0861 46.3049C39.1985 47.2078 38.4764 48.2304 37.9263 49.3323L33.5283 48.9056C33.0164 50.2452 32.6593 51.7336 32.5229 53.2549L36.6619 54.7984C36.6723 56.031 36.8724 57.2679 37.2739 58.4696L33.8649 61.2756C34.451 62.5842 35.2422 63.8781 36.2301 65.0608L40.2464 63.2266C41.1506 64.1143 42.1745 64.8364 43.2778 65.3861L42.8507 69.7828C44.2048 70.2994 45.6938 70.6515 47.2005 70.7858L48.745 66.6458C49.9765 66.6344 51.2121 66.4337 52.4128 66.0318L55.218 69.4399C56.608 68.8165 57.8257 68.0572 59.0042 67.0722L57.1698 63.0554C58.055 62.1528 58.7755 61.131 59.3243 60.0302L63.7215 60.4569C64.2546 59.0597 64.5928 57.5945 64.7255 56.105L60.5852 54.5611C60.5741 53.3323 60.374 52.0993 59.9739 50.9014L63.3834 48.0953Z" fill="#B3D4F1"/>
<path d="M53.3304 51.4195C55.0647 54.2227 54.2109 57.9213 51.4233 59.6806C48.6358 61.4398 44.9701 60.5936 43.2359 57.7904C41.5016 54.9873 42.3555 51.2887 45.143 49.5294C47.9305 47.7701 51.5962 48.6164 53.3304 51.4195Z" fill="white"/>
<path fill-rule="evenodd" clip-rule="evenodd" d="M37.8872 39.2578C38.0215 38.2872 38.0267 37.3483 37.8872 36.3395L35.0266 35.9653C34.8336 35.163 34.5174 34.4107 34.0984 33.7259L35.8579 31.437C35.2687 30.6577 34.574 29.9629 33.7949 29.3735L31.5063 31.1323C30.8211 30.7123 30.0682 30.3956 29.2652 30.202L28.8908 27.3414C27.8968 27.2037 26.9593 27.2045 25.9733 27.3404L25.599 30.1999C24.7946 30.3929 24.0405 30.7094 23.3542 31.1295L21.0652 29.3705C20.3178 29.9355 19.6046 30.6365 19.0023 31.4321L20.7612 33.7203C20.3402 34.4068 20.0229 35.1614 19.8293 35.9663L16.969 36.3407C16.8407 37.2686 16.8311 38.2595 16.969 39.2568L19.8293 39.631C20.0229 40.4359 20.3402 41.1905 20.7612 41.877L19.0023 44.1652C19.5737 44.9202 20.2769 45.6308 21.0652 46.2268L23.3542 44.4678C24.0405 44.8879 24.7946 45.2044 25.599 45.3974L25.9733 48.2569C26.9593 48.3928 27.8968 48.3937 28.8908 48.2559L29.2651 45.3953C30.068 45.2017 30.821 44.885 31.5062 44.465L33.7948 46.2238C34.5739 45.6343 35.2685 44.9396 35.8577 44.1603L34.0983 41.8714C34.5176 41.1867 34.8336 40.4343 35.0266 39.632L37.8872 39.2578Z" fill="#B3D4F1"/>
<path d="M31.4915 37.799C31.4915 40.0422 29.673 41.8607 27.4298 41.8607C25.1866 41.8607 23.3682 40.0422 23.3682 37.799C23.3682 35.5558 25.1866 33.7373 27.4298 33.7373C29.673 33.7373 31.4915 35.5558 31.4915 37.799Z" fill="white"/>
<path fill-rule="evenodd" clip-rule="evenodd" d="M25.8381 26.3399C26.9136 26.1917 27.9423 26.1907 29.0267 26.341L29.7822 26.4457L30.1703 29.4108C30.6025 29.5523 31.0198 29.7263 31.4197 29.93L33.7902 28.1082L34.3944 28.5653C35.247 29.2104 36.0074 29.9709 36.6526 30.8243L37.12 31.4424L35.2954 33.8159C35.4953 34.2107 35.6664 34.6225 35.8061 35.049L38.7721 35.4371L38.8776 36.2001C39.0301 37.3033 39.0245 38.3363 38.8776 39.3978L38.772 40.1607L35.8062 40.5487C35.6665 40.9753 35.4954 41.3872 35.2954 41.782L37.1198 44.1554L36.6525 44.7735C36.0072 45.6269 35.2468 46.3873 34.3944 47.0324L33.7901 47.4896L31.4195 45.6678C31.0197 45.8715 30.6024 46.0454 30.1702 46.1869L29.7822 49.1521L29.0267 49.2568C27.9423 49.407 26.9136 49.4061 25.8381 49.2579L25.082 49.1537L24.694 46.1898C24.2605 46.0483 23.8421 45.8742 23.4412 45.6703L21.07 47.4924L20.4659 47.0356C19.6026 46.3829 18.8341 45.6063 18.2079 44.7788L17.74 44.1606L19.5638 41.788C19.3624 41.391 19.1901 40.9768 19.0497 40.5477L16.0841 40.1597L15.9786 39.3967C15.8274 38.3034 15.838 37.2185 15.9786 36.2013L16.0841 35.4383L19.0497 35.0501C19.1901 34.621 19.3624 34.2068 19.5638 33.8098L17.74 31.4371L18.2079 30.8189C18.8679 29.947 19.6474 29.1809 20.4659 28.5621L21.0701 28.1054L23.4412 29.9275C23.8421 29.7235 24.2605 29.5494 24.694 29.4079L25.082 26.4441L25.8381 26.3399ZM26.8609 28.266L26.5001 31.022L25.8301 31.1828C25.1287 31.3511 24.4713 31.627 23.8725 31.9935L23.2904 32.3498L21.0848 30.6549C20.807 30.9017 20.5383 31.1689 20.2844 31.4533L21.9773 33.6556L21.6113 34.2524C21.2448 34.8501 20.9692 35.5059 20.801 36.205L20.6389 36.879L17.8853 37.2394C17.8641 37.6062 17.8634 37.9806 17.8852 38.3585L20.6389 38.7188L20.801 39.3928C20.9692 40.0919 21.2448 40.7477 21.6113 41.3454L21.9773 41.9421L20.2844 44.1445C20.5329 44.4228 20.8008 44.6906 21.0848 44.9429L23.2904 43.2479L23.8725 43.6042C24.4713 43.9708 25.1287 44.2467 25.8301 44.415L26.5001 44.5758L26.8609 47.3318C27.2424 47.3552 27.6202 47.3551 28.0031 47.3314L28.3638 44.5744L29.0329 44.4131C29.7332 44.2443 30.3896 43.9682 30.9874 43.6018L31.5697 43.2449L33.7754 44.94C34.0579 44.6894 34.3253 44.4223 34.5763 44.1404L32.8825 41.9369L33.2478 41.3403C33.6128 40.7444 33.8872 40.0906 34.0549 39.3938L34.2171 38.7198L36.9729 38.3592C36.9954 37.9875 36.9957 37.6167 36.9728 37.2386L34.2171 36.878L34.0549 36.204C33.8873 35.5073 33.6127 34.8535 33.2478 34.2571L32.8828 33.6606L34.5764 31.4574C34.3255 31.1754 34.058 30.9083 33.7756 30.6577L31.5698 32.3528L30.9875 31.9959C30.3898 31.6296 29.7333 31.3535 29.033 31.1847L28.364 31.0233L28.0031 28.2664C27.6202 28.2427 27.2424 28.2426 26.8609 28.266ZM27.4294 34.7473C25.729 34.7473 24.3677 36.1231 24.3677 37.799C24.3677 39.475 25.729 40.8507 27.4294 40.8507C29.1297 40.8507 30.491 39.475 30.491 37.799C30.491 36.1231 29.1297 34.7473 27.4294 34.7473ZM22.3677 37.799C22.3677 34.9885 24.6433 32.7273 27.4294 32.7273C30.2154 32.7273 32.491 34.9885 32.491 37.799C32.491 40.6095 30.2154 42.8707 27.4294 42.8707C24.6433 42.8707 22.3677 40.6095 22.3677 37.799ZM37.6152 41.5112C38.855 40.4765 40.1492 39.6662 41.6348 39.0013L42.3258 38.6921L45.1922 42.1746C46.0554 41.9372 46.9317 41.793 47.8088 41.7385L49.3858 37.511L50.1421 37.5786C51.7222 37.7199 53.2769 38.079 54.7592 38.6453L55.4754 38.9189L55.0389 43.4122C55.7996 43.8448 56.5208 44.3569 57.1898 44.9465L61.2929 43.0727L61.7803 43.6563C62.84 44.925 63.6439 46.2271 64.2942 47.6794L64.6113 48.3876L61.1266 51.2554C61.361 52.1106 61.5042 52.9788 61.5593 53.8481L65.7897 55.4256L65.7211 56.1958C65.58 57.7789 65.2206 59.3358 64.6542 60.8203L64.3812 61.5358L59.8894 61.1C59.4578 61.8606 58.947 62.5814 58.3594 63.25L60.2341 67.3551L59.6413 67.8506C58.3919 68.8948 57.0962 69.7027 55.6234 70.3632L54.9321 70.6732L52.0669 67.1922C51.2022 67.431 50.3244 67.5761 49.4456 67.6312L47.8682 71.8595L47.1121 71.7921C45.5129 71.6496 43.9346 71.2764 42.4969 70.7279L41.7802 70.4545L42.2165 65.9629C41.452 65.529 40.7274 65.0148 40.0554 64.4224L35.9528 66.2959L35.4653 65.7123C34.416 64.4561 33.5761 63.0826 32.9533 61.6922L32.6361 60.984L36.1203 58.1161C35.8847 57.257 35.7413 56.3849 35.6865 55.5117L31.4574 53.9346L31.5265 53.1641C31.6716 51.5465 32.0507 49.9665 32.5949 48.5423L32.8681 47.8272L37.3607 48.2631C37.7935 47.5013 38.3057 46.7794 38.8953 46.11L37.0216 42.0065L37.6152 41.5112ZM39.4905 42.59L41.2845 46.519L40.7953 47.0167C39.983 47.8431 39.3223 48.7787 38.8188 49.7873L38.5109 50.404L34.2077 49.9865C33.9393 50.8131 33.7337 51.6882 33.6068 52.5829L37.6556 54.0927L37.6614 54.7901C37.6709 55.9176 37.8539 57.0482 38.221 58.147L38.4426 58.8105L35.1085 61.5548C35.504 62.3292 35.9767 63.0916 36.5243 63.818L40.4546 62.0232L40.943 62.5027C41.7706 63.3152 42.7082 63.9766 43.7197 64.4805L44.3401 64.7896L43.9222 69.0914C44.7604 69.3631 45.6426 69.5684 46.5388 69.694L48.0503 65.6424L48.7354 65.6361C49.8652 65.6257 50.9976 65.4415 52.0978 65.0733L52.7453 64.8566L55.4917 68.1932C56.297 67.7859 57.043 67.3205 57.7656 66.7728L55.9708 62.8425L56.4589 62.3449C57.2692 61.5187 57.9284 60.5838 58.4306 59.5763L58.7383 58.959L63.0414 59.3765C63.317 58.5295 63.5179 57.6597 63.6416 56.7779L59.5911 55.2674L59.5848 54.5705C59.5747 53.4467 59.3917 52.3197 59.0259 51.2245L58.8043 50.561L62.1401 47.8156C61.738 47.0221 61.2746 46.2776 60.7227 45.55L56.7907 47.3457L56.3023 46.8663C55.4775 46.0565 54.543 45.3969 53.5349 44.8935L52.9154 44.5841L53.3335 40.2807C52.4804 40.0028 51.604 39.8005 50.7152 39.6765L49.2038 43.728L48.5183 43.7339C47.39 43.7436 46.2588 43.9267 45.1598 44.2933L44.5129 44.509L41.7655 41.1712C40.9555 41.5801 40.2097 42.0458 39.4905 42.59ZM45.6722 50.3861C43.3495 51.852 42.6438 54.9288 44.0832 57.2554C45.5226 59.582 48.57 60.2901 50.8927 58.8242C53.2154 57.3583 53.9211 54.2815 52.4817 51.955C51.0423 49.6284 47.9949 48.9202 45.6722 50.3861ZM42.3871 58.3258C40.358 55.0461 41.36 50.7257 44.6124 48.6731C47.8648 46.6204 52.1487 47.6048 54.1778 50.8845C56.2069 54.1642 55.205 58.4846 51.9525 60.5373C48.7001 62.5899 44.4162 61.6055 42.3871 58.3258Z" fill="#006FCF"/>
<path fill-rule="evenodd" clip-rule="evenodd" d="M59.1261 18.5755L34.9186 12.5996L33.3304 18.9062L59.1261 18.5755ZM67.025 20.5254L67.4998 21.0002L70.9998 24.2694L73.9998 27.5002V58.9124L82.6925 24.3931L67.025 20.5254ZM68.6895 80.0002H41.4335L67.0943 86.3348L68.6895 80.0002ZM25.9998 76.1902V48.0166L19.3203 74.5413L25.9998 76.1902Z" fill="#B3D4F1"/>
</g>
<defs>
<clipPath id="clip0">
<rect width="100" height="100" fill="white"/>
</clipPath>
</defs>
</svg>
