<svg width="150" height="150" viewBox="0 0 150 150" fill="none" xmlns="http://www.w3.org/2000/svg">
<rect width="150" height="150" fill="white"/>
<circle cx="116.618" cy="30.213" r="16.213" fill="#E4F2D2"/>
<rect x="47" y="95" width="17" height="17" fill="#E4F2D2"/>
<path fill-rule="evenodd" clip-rule="evenodd" d="M118.245 45.266L120 44.9602V131H34V121.498L33.9403 121.508L17.7571 29.7285L34 26.8645V19H103.153C106.31 15.3266 110.99 13 116.213 13C119.759 13 123.147 14.0757 126.001 16.052C130.164 18.9344 132.859 23.4871 133.346 28.5501L134.451 27.3659L135.914 28.7304L132.162 32.7515L128.697 28.6399L130.226 27.3511L131.35 28.6846C130.904 24.2327 128.527 20.2341 124.862 17.6963C122.34 15.9498 119.349 15 116.213 15C107.811 15 101 21.8111 101 30.213C101 38.615 107.811 45.4261 116.213 45.4261V45.4289C116.898 45.4195 117.576 45.3649 118.245 45.266ZM118 47.3153C117.34 47.3918 116.672 47.4304 116 47.4304V47.4248C106.592 47.3107 99 39.6484 99 30.213C99 26.8241 99.9793 23.6639 101.671 21H36V129H118V47.3153ZM121.533 44.3932L122.261 46.2561C123.252 45.8687 124.205 45.3898 125.107 44.8264L124.047 43.1301C123.251 43.6279 122.409 44.051 121.533 44.3932ZM127.661 42.8785L126.306 41.4077C126.998 40.7703 127.63 40.0702 128.193 39.317L129.794 40.5146C129.158 41.3663 128.443 42.1578 127.661 42.8785ZM129.654 36.9334L131.448 37.8175C131.918 36.8642 132.299 35.8682 132.585 34.8406L130.658 34.3046C130.406 35.2119 130.069 36.0914 129.654 36.9334ZM116 22V32.991L121.319 36.5742C121.777 36.8828 121.899 37.5042 121.59 37.9623C121.282 38.4203 120.66 38.5415 120.202 38.233L114 34.0552V22C114 21.4477 114.448 21 115 21C115.552 21 116 21.4477 116 22ZM20.074 31.3508L34 28.8953V110.329L20.074 31.3508ZM98 62V64H72.86V62H98ZM102.527 56.8742V54.8742H72.86V56.8742H102.527ZM106 84V86H72.86V84H106ZM96 78.8742V76.8742H72.86V78.8742H96ZM102.527 98.8742V100.874H72.86V98.8742H102.527ZM96 108V106H72.86V108H96ZM53.0321 59.3376L54.3176 60.8697L59.4869 56.5321L60.7725 58.0642L54.0711 63.6873L51.5 60.6231L53.0321 59.3376ZM64 51H47V68H64V51ZM49 53V66H62V53H49ZM64 73H47V90H64V73ZM49 75V88H62V75H49ZM64 95H47V112H64V95ZM49 97V110H62V97H49ZM54.3176 82.8697L53.0321 81.3376L51.5 82.6231L54.0711 85.6873L60.7725 80.0642L59.4869 78.5321L54.3176 82.8697Z" fill="#009639"/>
</svg>
