<svg width="150" height="150" viewBox="0 0 150 150" fill="none" xmlns="http://www.w3.org/2000/svg">
<rect width="150" height="150" fill="white"/>
<path fill-rule="evenodd" clip-rule="evenodd" d="M121.65 75.0363L127.197 74.3104C127.457 72.4278 127.467 70.6072 127.197 68.6509L121.65 67.9251C121.275 66.3691 120.662 64.9101 119.85 63.5822L123.262 59.143C122.119 57.6317 120.772 56.2842 119.261 55.1408L114.823 58.552C113.495 57.7376 112.035 57.1233 110.478 56.7478L109.751 51.1999C107.824 50.9329 106.005 50.9345 104.094 51.1979L103.368 56.7436C101.808 57.118 100.346 57.7321 99.0153 58.5467L94.5764 55.1352C93.1272 56.2308 91.7441 57.5906 90.5762 59.1335L93.987 63.5714C93.1706 64.9028 92.5552 66.3662 92.1797 67.9273L86.6331 68.6531C86.3843 70.4527 86.3657 72.3744 86.6331 74.3086L92.1797 75.0345C92.5552 76.5956 93.1706 78.059 93.987 79.3904L90.5762 83.8282C91.6724 85.2766 93.0329 86.6596 94.5764 87.8266L99.0153 84.4149C100.346 85.2295 101.808 85.8436 103.368 86.2179L104.094 91.7637C106.005 92.027 107.824 92.0289 109.751 91.7617L110.478 86.2137C112.035 85.8383 113.495 85.224 114.823 84.4096L119.261 87.8205C120.772 86.6772 122.119 85.3297 123.262 83.8183L119.85 79.3792C120.662 78.0515 121.275 76.5923 121.65 75.0363ZM98.3295 71.4807C98.3295 66.739 102.173 62.8951 106.915 62.8951C111.657 62.8951 115.501 66.739 115.501 71.4807C115.501 76.2224 111.657 80.0663 106.915 80.0663C102.173 80.0663 98.3295 76.2224 98.3295 71.4807Z" fill="#D8D8D8"/>
<path fill-rule="evenodd" clip-rule="evenodd" d="M107.037 106.799H44.8652L44.8892 120.772C44.8987 126.288 49.3731 130.754 54.8892 130.754H97.0375C102.56 130.754 107.037 126.277 107.037 120.754V106.799ZM72.4796 118.313C72.4796 116.612 73.8591 115.232 75.5607 115.232C77.2624 115.232 78.6418 116.612 78.6418 118.313C78.6418 120.015 77.2624 121.394 75.5607 121.394C73.8591 121.394 72.4796 120.015 72.4796 118.313ZM75.5607 113.232C72.7545 113.232 70.4796 115.507 70.4796 118.313C70.4796 121.12 72.7545 123.394 75.5607 123.394C78.3669 123.394 80.6418 121.12 80.6418 118.313C80.6418 115.507 78.3669 113.232 75.5607 113.232Z" fill="#D8D8D8"/>
<path fill-rule="evenodd" clip-rule="evenodd" d="M44.8652 35.9869H106.647V28C106.647 23.5817 103.065 20 98.6469 20H52.8652C48.447 20 44.8652 23.5817 44.8652 28V35.9869Z" fill="#D8D8D8"/>
<path fill-rule="evenodd" clip-rule="evenodd" d="M68.8549 66.1992V88.7558H23.3076L23.3076 82.7655H63.0841L62.9731 68.2148L68.8549 66.1992Z" fill="#D8D8D8"/>
<circle cx="63.9418" cy="59.807" r="10.2162" fill="#D8D8D8"/>
<path fill-rule="evenodd" clip-rule="evenodd" d="M96.9296 19C102.731 19 107.491 23.6666 107.643 29.4308L107.647 29.7151V47.9282H105.647L105.646 36.67L45.4734 36.981L45.4744 53.9638H43.4744V29.7151C43.4744 23.9159 48.1408 19.1558 53.9069 19.0037L54.1914 19H96.9296ZM76.0168 59.6158C76.0168 53.0879 70.6924 47.7987 64.1276 47.7987C58.7527 47.7987 54.2092 51.3442 52.7388 56.2123L17.3785 56.212L17.3777 64.447L11.5677 64.4473L11.4511 64.454C10.9538 64.5118 10.5677 64.9345 10.5677 65.4473C10.5677 65.9996 11.0154 66.4473 11.5677 66.4473L17.3777 66.447V72.014L13.0812 72.0149L12.9646 72.0216C12.4673 72.0794 12.0812 72.502 12.0812 73.0149C12.0812 73.5672 12.529 74.0149 13.0812 74.0149L17.3777 74.014L17.3785 83.4521L23.3917 83.452L23.3925 89.4616H69.8631L69.8636 69.9692C73.5317 67.9573 76.0168 64.0756 76.0168 59.6158ZM109.889 50.2094L109.288 50.1341C107.494 49.9334 105.766 49.9582 103.958 50.2072L103.202 50.3114L102.464 55.9477L101.963 56.1C100.967 56.4207 100.006 56.8376 99.0926 57.3445L94.5818 53.8778L93.9738 54.3375L93.5521 54.6649C92.1567 55.7766 90.8683 57.0913 89.7793 58.53L89.319 59.1382L92.785 63.6478L92.5384 64.1089C92.0605 65.0387 91.6739 66.0135 91.3846 67.0229L85.7474 67.7606L85.6429 68.5162L85.5704 69.1005C85.3765 70.8592 85.3971 72.6668 85.6429 74.4455L85.7474 75.2012L91.3846 75.9389L91.5373 76.4406C91.8589 77.4381 92.2768 78.3994 92.785 79.3139L89.319 83.8235L89.7793 84.4317L90.1069 84.8533C91.2196 86.2484 92.535 87.5364 93.9738 88.6243L94.5818 89.084L99.0927 85.617L99.5535 85.863C100.483 86.3398 101.456 86.7254 102.464 87.0139L103.202 92.6501L103.958 92.7543L104.558 92.829C106.35 93.0283 108.079 93.0032 109.889 92.7522L110.645 92.6475L111.382 87.0089L111.883 86.8564C112.877 86.5353 113.835 86.1185 114.747 85.612L119.257 89.0782L119.865 88.6179L120.335 88.2518C121.73 87.1344 122.982 85.8473 124.06 84.4214L124.519 83.8133L122.356 80.999L127.639 81L127.756 80.9933C128.253 80.9355 128.639 80.5128 128.639 80C128.639 79.4477 128.192 79 127.639 79L121.213 78.999L121.298 78.8429C121.773 77.9166 122.158 76.9457 122.446 75.9407L128.083 75.203L128.188 74.4475L128.263 73.8497C128.295 73.5611 128.321 73.2741 128.342 72.9879L130.996 73L131.113 72.9938C131.61 72.9381 131.998 72.517 132 72.0042C132.002 71.4519 131.557 71.0023 131.004 71L128.391 70.9882C128.371 70.1727 128.304 69.3527 128.188 68.514L128.083 67.7584L122.446 67.0207L122.294 66.5211C121.974 65.5278 121.558 64.5704 121.052 63.6591L124.519 59.1481L124.06 58.54L123.694 58.0699C122.578 56.6752 121.291 55.4227 119.865 54.3434L119.257 53.8832L114.747 57.3495L114.288 57.1038C113.36 56.6273 112.389 56.2416 111.382 55.9526L110.645 50.314L109.889 50.2094ZM45.4744 91.7384L45.4734 105.213H105.646L105.647 95.0836H107.647V120.456C107.647 126.257 102.981 131.014 97.2141 131.166L96.9296 131.17H54.1914C48.389 131.17 43.6301 126.506 43.4781 120.74L43.4744 120.456V91.7384H45.4744ZM105.646 107.213H45.4734L45.4744 120.456C45.4744 125.16 49.2569 129.027 53.9308 129.166L54.1914 129.17H96.9296C101.636 129.17 105.504 125.388 105.643 120.716L105.647 120.456L105.646 107.213ZM80.6416 118.313C80.6416 115.507 78.3667 113.232 75.5605 113.232C72.7543 113.232 70.4794 115.507 70.4794 118.313C70.4794 121.119 72.7543 123.394 75.5605 123.394C78.3667 123.394 80.6416 121.119 80.6416 118.313ZM75.5605 115.232C73.8589 115.232 72.4794 116.612 72.4794 118.313C72.4794 120.015 73.8589 121.394 75.5605 121.394C77.2621 121.394 78.6416 120.015 78.6416 118.313C78.6416 116.612 77.2621 115.232 75.5605 115.232ZM105.542 52.0501L104.985 52.0984L104.271 57.5555L103.602 57.716C102.322 58.0231 101.1 58.5062 99.9611 59.1504L99.5379 59.3996L98.9515 59.7585L94.5843 56.4021C93.7357 57.0983 92.9326 57.8778 92.2026 58.7169L91.8439 59.1413L95.1996 63.5075L94.8399 64.0941C94.1542 65.2123 93.6281 66.4174 93.2762 67.6835L93.1525 68.1611L92.9917 68.8296L87.535 69.5437C87.427 70.6382 87.4104 71.7526 87.4882 72.8632L87.5349 73.418L92.9917 74.1321L93.1525 74.8006C93.4605 76.0816 93.9447 77.3047 94.5903 78.4443L94.8399 78.8676L95.1996 79.4542L91.8439 83.8204C92.5406 84.6689 93.3206 85.4718 94.1598 86.2012L94.5843 86.5596L98.9515 83.2031L99.5378 83.562C100.656 84.2464 101.86 84.7713 103.125 85.1222L103.602 85.2456L104.271 85.4061L104.985 90.8632C106.103 90.976 107.193 90.9919 108.304 90.9106L108.861 90.8618L109.576 85.4027L110.244 85.2416C111.521 84.9335 112.742 84.45 113.879 83.806L114.301 83.557L114.888 83.1975L119.254 86.5536C120.113 85.8496 120.911 85.0739 121.638 84.2356L121.995 83.8113L118.639 79.4436L118.997 78.8572C119.68 77.7419 120.204 76.5403 120.555 75.2784L120.678 74.8024L120.839 74.134L126.297 73.4197C126.41 72.3048 126.427 71.2145 126.346 70.1008L126.297 69.5417L120.839 68.8274L120.678 68.159C120.371 66.8825 119.889 65.6631 119.246 64.5264L118.997 64.1041L118.639 63.5178L121.995 59.1501C121.292 58.2912 120.517 57.4934 119.679 56.7657L119.254 56.4078L114.888 59.7641L114.301 59.4045C113.186 58.7206 111.983 58.1954 110.72 57.8437L110.244 57.72L109.576 57.5589L108.861 52.0998C107.742 51.9861 106.652 51.9696 105.542 52.0501ZM67.863 70.8379C66.6883 71.224 65.4324 71.433 64.1276 71.433C64.0359 71.433 63.9445 71.432 63.8534 71.4299L63.8535 83.4521L25.3917 83.452L25.3925 87.4616H67.8631L67.863 70.8379ZM19.3785 58.212L52.3213 58.2121C52.2665 58.6724 52.2383 59.1408 52.2383 59.6158C52.2383 65.3703 56.3758 70.1622 61.8531 71.217L61.8535 81.4521H19.3785V58.212ZM132.676 79C133.228 79 133.676 79.4477 133.676 80C133.676 80.5128 133.29 80.9355 132.792 80.9933L132.676 81H131.162C130.61 81 130.162 80.5523 130.162 80C130.162 79.4872 130.548 79.0645 131.046 79.0067L131.162 79H132.676ZM115.501 71.4807C115.501 66.739 111.657 62.8951 106.916 62.8951C102.174 62.8951 98.33 66.739 98.33 71.4807C98.33 76.2224 102.174 80.0663 106.916 80.0663C111.657 80.0663 115.501 76.2224 115.501 71.4807ZM106.916 64.8951C103.278 64.8951 100.33 67.8436 100.33 71.4807C100.33 75.1178 103.278 78.0663 106.916 78.0663C110.553 78.0663 113.501 75.1178 113.501 71.4807C113.501 67.8436 110.553 64.8951 106.916 64.8951ZM33.7457 77.4425V75.4425H24.9758V77.4425H33.7457ZM42.1591 75.4425V77.4425H37.2498V75.4425H42.1591ZM30.9213 71.2527V69.2527H24.9758V71.2527H30.9213ZM64.1276 49.7987C58.6644 49.7987 54.2383 54.1954 54.2383 59.6158C54.2383 65.0362 58.6644 69.433 64.1276 69.433C69.5907 69.433 74.0168 65.0362 74.0168 59.6158C74.0168 54.1954 69.5907 49.7987 64.1276 49.7987ZM7.04487 65.4473C7.04487 64.895 6.59715 64.4473 6.04487 64.4473H5.51367L5.39705 64.454C4.89971 64.5118 4.51367 64.9345 4.51367 65.4473C4.51367 65.9996 4.96139 66.4473 5.51367 66.4473H6.04487L6.16149 66.4406C6.65883 66.3828 7.04487 65.9601 7.04487 65.4473ZM64.704 54.8082C65.207 54.8082 65.6462 54.8821 66.0215 55.0298C66.3969 55.1775 66.7063 55.3791 66.9498 55.6347C67.1934 55.8902 67.3771 56.1857 67.5008 56.521C67.6246 56.8564 67.6865 57.2158 67.6865 57.5991C67.6865 58.2858 67.5208 58.8428 67.1894 59.27C66.858 59.6972 66.3689 59.9867 65.7221 60.1384L68.5609 63.8396H65.6382L63.3984 60.366V63.8396H61.0507V54.8082H64.704ZM63.3984 56.6169H63.8416C64.3047 56.6169 64.66 56.7127 64.9076 56.9043C65.1551 57.096 65.2789 57.3715 65.2789 57.7308C65.2789 58.0902 65.1551 58.3657 64.9076 58.5573C64.66 58.749 64.3047 58.8448 63.8416 58.8448H63.3984V56.6169ZM54.1914 21H96.9296L97.1901 21.0039C101.863 21.143 105.647 25.0125 105.647 29.7151L105.646 34.67L45.4734 34.981L45.4744 29.7151L45.4783 29.4547C45.6174 24.784 49.4868 21 54.1914 21Z" fill="#979797"/>
<path d="M132.235 15V21.4704" stroke="#D8D8D8" stroke-opacity="0.4" stroke-width="2" stroke-linecap="round"/>
<path d="M135.47 18.2348H129" stroke="#D8D8D8" stroke-opacity="0.4" stroke-width="2" stroke-linecap="round"/>
<circle cx="18.5" cy="130.5" r="4.5" stroke="#D8D8D8" stroke-opacity="0.4" stroke-width="2"/>
<path fill-rule="evenodd" clip-rule="evenodd" d="M18.7782 16.9213C19.1248 17.0396 19.459 17.1937 19.7761 17.3817C20.2204 17.6451 20.367 18.2187 20.1036 18.663C19.8403 19.1073 19.2666 19.254 18.8223 18.9906C18.2902 18.6752 17.6871 18.5071 17.0581 18.5071C15.1192 18.5071 13.5379 20.1126 13.5236 22.1081C13.5587 22.2064 13.5778 22.3123 13.5778 22.4227C13.5778 22.9392 13.1591 23.3579 12.6426 23.3579H8.93519C8.4187 23.3579 8 22.9392 8 22.4227C8 21.9062 8.4187 21.4875 8.93519 21.4875H11.6903C12 18.8043 14.21 16.7069 16.9213 16.6385C17.6809 13.3899 20.5745 11 23.9924 11C27.4211 11 30.3175 13.4036 31.0686 16.6606C33.1298 16.8843 34.73 18.6521 34.73 20.7932C34.73 21.3097 34.3113 21.7284 33.7948 21.7284C33.2783 21.7284 32.8596 21.3097 32.8596 20.7932C32.8596 19.5272 31.8561 18.5071 30.626 18.5071C30.2818 18.5071 29.9504 18.5862 29.649 18.7366C29.1868 18.9672 28.6253 18.7795 28.3946 18.3174C28.164 17.8553 28.3517 17.2937 28.8139 17.0631C28.9397 17.0003 29.0684 16.9442 29.1995 16.8949C28.5752 14.5657 26.4683 12.8704 23.9924 12.8704C21.5092 12.8704 19.3941 14.5765 18.7782 16.9213Z" fill="#D8D8D8"/>
<path fill-rule="evenodd" clip-rule="evenodd" d="M128.547 132.143C128.188 132.266 127.841 132.425 127.512 132.621C127.051 132.894 126.899 133.489 127.172 133.95C127.445 134.411 128.04 134.563 128.501 134.29C129.053 133.962 129.679 133.788 130.332 133.788C132.343 133.788 133.984 135.454 133.998 137.524C133.962 137.626 133.942 137.736 133.942 137.85C133.942 138.386 134.376 138.82 134.912 138.82H138.758C139.294 138.82 139.729 138.386 139.729 137.85C139.729 137.314 139.294 136.88 138.758 136.88H135.9C135.579 134.097 133.286 131.921 130.474 131.85C129.686 128.479 126.684 126 123.138 126C119.581 126 116.576 128.494 115.797 131.872C113.659 132.104 111.998 133.938 111.998 136.16C111.998 136.695 112.433 137.13 112.969 137.13C113.504 137.13 113.939 136.695 113.939 136.16C113.939 134.846 114.98 133.788 116.256 133.788C116.613 133.788 116.957 133.87 117.27 134.026C117.749 134.265 118.332 134.071 118.571 133.591C118.81 133.112 118.615 132.529 118.136 132.29C118.006 132.225 117.872 132.167 117.736 132.116C118.384 129.699 120.569 127.94 123.138 127.94C125.714 127.94 127.908 129.71 128.547 132.143Z" fill="#D8D8D8"/>
</svg>
