<svg width="150" height="150" viewBox="0 0 150 150" fill="none" xmlns="http://www.w3.org/2000/svg">
<rect width="150" height="150" fill="white"/>
<path d="M38.1832 108C48.0586 108 56.0642 104.642 56.0642 100.5C56.0642 96.3579 48.0586 93 38.1832 93C28.3078 93 20.3022 96.3579 20.3022 100.5C20.3022 104.642 28.3078 108 38.1832 108Z" fill="#339C63"/>
<path fill-rule="evenodd" clip-rule="evenodd" d="M51.4403 95.1705C51.8789 95.0039 52.2651 94.7641 52.5908 94.4475C55.5506 91.5701 52.389 83.4405 45.529 76.2895C38.6691 69.1384 30.7085 65.6739 27.7486 68.5513C24.7888 71.4287 27.9504 79.5583 34.8104 86.7093C37.4838 89.4962 40.3243 91.7231 42.9708 93.233L51.4403 95.1705Z" fill="#339C63"/>
<path fill-rule="evenodd" clip-rule="evenodd" d="M55.344 124.515C55.6449 124.443 55.8675 124.38 56.0119 124.328C59.4452 123.083 63.7094 120.135 67.6614 116.015C74.5214 108.864 77.843 100.89 75.0804 98.2043C72.3179 95.5188 64.5173 99.1388 57.6573 106.29C57.3329 106.628 56.8644 107.139 56.2518 107.822L55.344 124.515Z" fill="#339C63"/>
<path fill-rule="evenodd" clip-rule="evenodd" d="M47.0127 51.9397C49.4361 59.6172 56.5747 67 65.004 67C75.4279 67 83.8782 58.4934 83.8782 48C83.8782 37.5066 75.4279 29 65.004 29C57.5675 29 51.6388 31.442 48.5629 37.7336L55.0114 44.7862C56.6052 46.5293 56.4842 49.2345 54.741 50.8283C54.722 50.8457 54.7028 50.8629 54.6835 50.88C52.684 52.6428 49.8559 53.1147 47.3924 52.0966L47.0127 51.9397Z" fill="#339C63"/>
<path d="M119.618 66L115.052 80.216L121.867 80.2163V82.2163L115.754 82.2162L116.917 83.9864L118.929 87.0201L119.504 87.9039L120.147 88.9053L122.908 93.0681C122.449 93.0084 121.981 92.9655 121.504 92.9393L120.471 92.8861L118.894 90.6056L118.381 89.8405L117.839 88.9936L117.27 88.1207L114.683 84.2179L114.074 83.2847L113.552 82.4673C113.499 82.3819 113.446 82.2982 113.395 82.216L97.7933 82.2161C97.5734 82.5298 97.3551 82.8467 97.1333 83.1737L96.6386 83.9106L94.3419 87.4053C93.6423 88.4597 92.9452 89.4877 92.1777 90.5909L88.7254 95.4764L88.0311 96.4785L87.5251 97.2222L86.9815 98.0381C86.3734 98.9626 85.8561 99.7925 85.4212 100.547C83.2921 104.242 82.3882 107.013 82.3882 110.452C82.3882 119.275 86.5927 125.21 93.8679 127.896L94.4099 128.088C95.9481 128.607 97.5229 128.931 99.4838 129.123L100.192 129.186C100.313 129.195 100.436 129.204 100.56 129.213L101.323 129.26C101.453 129.267 101.586 129.274 101.72 129.28L102.545 129.313L103.416 129.338L104.336 129.355L105.816 129.367L107.315 129.366L109.706 129.35C110.077 129.634 110.611 129.973 111.309 130.367C112.007 130.762 112.641 131.062 113.211 131.267L108.925 131.345L107.223 131.364L106.337 131.368L104.759 131.36L103.776 131.346L102.845 131.324L101.961 131.293C101.818 131.287 101.676 131.281 101.536 131.274L100.717 131.229C100.584 131.22 100.453 131.212 100.323 131.202L99.5607 131.141C97.0781 130.917 95.1519 130.5 93.1839 129.774C85.9138 127.09 81.3501 121.382 80.5336 113.179C79.0792 116.141 76.81 119.331 73.9231 122.34C71.7136 124.643 69.3865 126.586 67.1202 128.074L66.5304 128.452C61.6295 131.514 57.0885 132.388 54.7381 130.103L52.6342 128.057C49.1633 129.892 43.9635 131 38.1829 131C37.24 131 36.3125 130.971 35.4055 130.913L34.6332 130.857C33.8661 130.795 33.1151 130.712 32.3832 130.61L31.6579 130.502C30.3404 130.293 29.0908 130.02 27.9287 129.691L27.3035 129.506C22.4764 128.014 19.3087 125.512 19.3087 122.5V100.833C19.3087 100.816 19.3118 100.798 19.3181 100.777C19.3117 100.685 19.3087 100.593 19.3087 100.5C19.3087 97.5115 22.4282 95.0248 27.1931 93.5284L27.411 93.7572C23.6353 89.8473 20.9207 85.6265 19.7038 82.0002L14.3418 82C13.7932 82 13.3485 81.5523 13.3485 81C13.3485 80.4872 13.7319 80.0645 14.226 80.0067L14.3418 80L19.1746 79.9999C18.7406 77.6836 19.0547 75.7301 20.259 74.4344L20.4211 74.2692L22.8053 71.9997L18.3153 72C17.8059 72 17.386 71.614 17.3286 71.1166L17.322 71C17.322 70.4872 17.7055 70.0645 18.1995 70.0067L18.3153 70H24.6573C24.7346 70 24.8099 70.0089 24.8821 70.0257L26.7757 68.2239C26.8646 68.1197 26.9589 68.0193 27.0585 67.9231C30.6076 64.4958 39.0791 68.1344 46.284 75.5954C47.4524 76.8053 48.5192 78.045 49.4714 79.2875L49.9379 79.9089C54.5065 86.123 56.1584 92.298 53.2808 95.0769L53.1289 95.2158C55.5891 96.6359 57.0571 98.4499 57.0571 100.5C57.0571 100.61 57.0528 100.72 57.0444 100.829L57.0571 100.833L57.0568 105.261C57.6476 104.662 58.2444 104.088 58.8442 103.541L59.4449 103.003C60.7479 101.856 62.0595 100.838 63.3469 99.9666L63.9393 99.5749C68.7608 96.463 73.1664 95.4804 75.3959 97.6282L75.4052 97.618L80.9603 102.768C81.2408 103.041 81.4777 103.346 81.6726 103.682C82.1814 102.368 82.8542 101.016 83.7026 99.5439C84.0277 98.9796 84.394 98.3797 84.8049 97.7359L85.3198 96.9417C85.4092 96.8057 85.5006 96.6678 85.5938 96.5279L86.1756 95.6647L86.8578 94.6738L88.5722 92.243L89.6714 90.6962L90.4846 89.538L91.247 88.4347C91.3708 88.254 91.4933 88.0746 91.6147 87.8959L92.3338 86.8289L94.9878 82.7978L95.1493 82.5556C95.8007 81.5819 96.4049 80.7145 97.0751 79.8003L92.6778 66H119.618ZM76.6681 101.507C76.4619 105.598 73.187 111.472 68.0138 116.865C64.0675 120.979 59.6777 124.085 55.9866 125.424C55.5552 125.973 55.0157 126.488 54.3736 126.968L56.1182 128.664C57.678 130.18 61.391 129.33 65.5911 126.674L66.1801 126.292C68.2517 124.914 70.421 123.111 72.4939 120.951C73.0862 120.333 73.6491 119.709 74.1814 119.082L74.7034 118.455C76.2383 116.573 77.4931 114.683 78.4313 112.912L78.7322 112.326L79.0095 111.75C80.6009 108.325 80.8939 105.483 79.5973 104.223L76.6681 101.507ZM55.0703 119.397C51.9638 122.204 45.5443 124 38.1829 124C30.8215 124 24.4019 122.204 21.2955 119.397V122.5C21.2955 124.248 23.3395 125.941 26.6266 127.161L27.1858 127.36C27.2809 127.393 27.3769 127.425 27.4738 127.456L28.066 127.641L28.6792 127.816C29.0947 127.93 29.5237 128.036 29.9651 128.135L30.6362 128.278C32.7898 128.713 35.2091 128.973 37.7763 128.998L38.1829 129C40.7654 129 43.2061 128.761 45.3874 128.345L46.0674 128.208C46.6267 128.089 47.1672 127.958 47.6866 127.816L48.2998 127.641L48.892 127.456C52.6715 126.223 55.0703 124.394 55.0703 122.5V119.397ZM58.0098 107.14L57.5608 107.628L57.0559 108.191L57.0571 122.5C57.0571 122.6 57.0536 122.699 57.0467 122.798C60.0495 121.321 63.4547 118.738 66.5847 115.476C73.0913 108.693 76.2118 101.202 74.0282 99.0789C72.9364 98.0176 70.5585 98.3371 67.6401 99.7698L67.1038 100.043C64.5743 101.372 61.6884 103.491 58.9016 106.236L58.3061 106.834C58.2071 106.935 58.1084 107.037 58.0098 107.14ZM55.0703 112.397C51.9638 115.204 45.5443 117 38.1829 117C30.8215 117 24.4019 115.204 21.2955 112.397V115.5C21.2955 117.248 23.3395 118.941 26.6266 120.161L27.1858 120.36C27.2809 120.393 27.3769 120.425 27.4738 120.456L28.066 120.641L28.6792 120.816C29.0947 120.93 29.5237 121.036 29.9651 121.135L30.6362 121.278C32.7898 121.713 35.2091 121.973 37.7763 121.998L38.1829 122C40.7654 122 43.2061 121.761 45.3874 121.345L46.0674 121.208C46.6267 121.089 47.1672 120.958 47.6866 120.816L48.2998 120.641L48.892 120.456C52.6715 119.223 55.0703 117.394 55.0703 115.5V112.397ZM21.2943 104.396L21.2955 108.5C21.2955 110.248 23.3395 111.941 26.6266 113.161L27.1858 113.36C27.2809 113.393 27.3769 113.425 27.4738 113.456L28.066 113.641L28.6792 113.816C29.0947 113.93 29.5237 114.036 29.9651 114.135L30.6362 114.278C32.7898 114.713 35.2091 114.973 37.7763 114.998L38.1829 115C40.7654 115 43.2061 114.761 45.3874 114.345L46.0674 114.208C46.6267 114.089 47.1672 113.958 47.6866 113.816L48.2998 113.641L48.892 113.456C52.6715 112.223 55.0703 110.394 55.0703 108.5L55.0712 104.396C51.965 107.203 45.545 109 38.1829 109C30.8205 109 24.4003 107.203 21.2943 104.396ZM38.1829 94C35.4645 94 32.9031 94.2646 30.6362 94.722L29.9651 94.865C29.5237 94.964 29.0947 95.0705 28.6792 95.1838L28.066 95.3589L27.4738 95.5438C27.3769 95.5754 27.2809 95.6074 27.1858 95.6398L26.6266 95.8387C23.3395 97.0586 21.2955 98.7519 21.2955 100.5C21.2955 102.248 23.3395 103.941 26.6266 105.161L27.1858 105.36C27.2809 105.393 27.3769 105.425 27.4738 105.456L28.066 105.641L28.6792 105.816C29.0947 105.93 29.5237 106.036 29.9651 106.135L30.6362 106.278C32.7898 106.713 35.2091 106.973 37.7763 106.998L38.1829 107C40.7654 107 43.2061 106.761 45.3874 106.345L46.0674 106.208C46.6267 106.089 47.1672 105.958 47.6866 105.816L48.2998 105.641L48.892 105.456C52.6715 104.223 55.0703 102.394 55.0703 100.5C55.0703 98.6063 52.6715 96.7767 48.892 95.5438L48.2998 95.3589L47.6866 95.1838C47.1672 95.0422 46.6267 94.9112 46.0674 94.7921L45.3874 94.6549C43.2061 94.2388 40.7654 94 38.1829 94ZM28.4387 69.3522C26.4302 71.2917 28.1444 76.8853 32.5418 82.6001L33.0321 83.2238C33.7834 84.1597 34.6055 85.0953 35.4939 86.0153C37.8784 88.4844 40.4545 90.5531 42.9401 92.0283L43.436 92.3154C46.3404 92.6793 48.9626 93.3377 51.1127 94.2301L51.0851 94.1554C51.4053 94.0337 51.6759 93.8649 51.9006 93.6478C54.3108 91.3204 51.3603 83.7311 44.8454 76.9847C43.7595 75.8603 42.6469 74.8341 41.5353 73.9152L40.9293 73.4248C40.6265 73.1849 40.3241 72.9532 40.0228 72.7297L39.4217 72.294C34.6268 68.8976 30.1915 67.6595 28.4387 69.3522ZM25.6357 72.0636L21.7944 75.7048C19.3843 78.0323 22.3348 85.6215 28.8497 92.3679C29.0339 92.5587 29.2194 92.7472 29.4061 92.9334C32.0329 92.3314 35.021 92 38.1829 92C38.5604 92 38.9354 92.0047 39.3076 92.0141C37.5188 90.7057 35.7394 89.1486 34.0553 87.4046C28.9434 82.1111 25.7767 76.2477 25.6357 72.0636ZM10.3683 80C10.917 80 11.3617 80.4477 11.3617 81C11.3617 81.5128 10.9782 81.9355 10.4842 81.9933L10.3683 82H8.94064C8.39202 82 7.94727 81.5523 7.94727 81C7.94727 80.4872 8.33075 80.0645 8.82479 80.0067L8.94064 80H10.3683ZM116.888 68H95.4016L99.2944 80.216H102.191L101.127 73.0163L103.092 72.7218L104.2 80.216H108.257L109.19 73.913L111.155 74.2075L110.266 80.216H112.965L116.888 68ZM45.069 19C47.7464 19 50.2829 20.208 51.9811 22.2918L57.7534 29.375C60.0204 28.481 62.4714 28 65.0041 28C75.9766 28 84.8716 36.9543 84.8716 48C84.8716 59.0457 75.9766 68 65.0041 68C58.7823 68 53.1186 65.095 49.4408 60.4377C49.3374 60.4745 49.226 60.4945 49.11 60.4945H47.1233C46.5747 60.4945 46.1299 60.0468 46.1299 59.4945C46.1299 58.9422 46.5747 58.4945 47.1233 58.4945H48.0854C47.5979 57.6989 47.1633 56.8643 46.787 55.9952L46.689 56H41.163C40.6144 56 40.1696 55.5523 40.1696 55C40.1696 54.4477 40.6144 54 41.163 54H46.2623L47.9595 53.4571C50.2985 60.8672 57.1585 66 65.0041 66C74.8794 66 82.8849 57.9411 82.8849 48C82.8849 38.0589 74.8794 30 65.0041 30C59.062 30 53.6213 32.9399 50.3095 37.7411L55.9728 43.3442C56.031 43.4017 56.0879 43.4604 56.1436 43.5202C58.3927 45.9358 58.2707 49.7294 55.871 51.9935C53.3727 54.3507 49.4756 54.3165 47.0184 51.9158L34.4853 39.6705C30.8611 43.0427 26.0979 44.9284 21.1387 44.9284H19.3087V42.9284H21.1387C25.8943 42.9284 30.4493 40.9995 33.7749 37.5774L34.4668 36.8653L48.4021 50.4806C50.0981 52.1376 52.788 52.1613 54.5124 50.5343C56.1114 49.0255 56.1928 46.4976 54.694 44.8879L54.5802 44.7706L40.9442 31.2798L42.3368 29.8534L48.8739 36.3208C50.7186 33.7412 53.1252 31.6634 55.8799 30.2294L50.445 23.5603C49.1243 21.9395 47.1514 21 45.069 21H19.3087V19H45.069Z" fill="white"/>
<path d="M120.47 129.326C111.054 129.326 103.42 121.642 103.42 112.163C103.42 102.684 111.054 95 120.47 95C129.886 95 137.52 102.684 137.52 112.163C137.52 121.642 129.886 129.326 120.47 129.326Z" fill="#339C63"/>
<path d="M120.137 130C110.536 130 102.753 122.165 102.753 112.5C102.753 102.835 110.536 95 120.137 95C129.738 95 137.521 102.835 137.521 112.5C137.521 122.165 129.738 130 120.137 130Z" stroke="white" stroke-width="2"/>
<path d="M112.666 112.852L116.534 117.493L128.439 107.437" stroke="white" stroke-width="2"/>
</svg>
