<svg width="150" height="150" viewBox="0 0 150 150" fill="none" xmlns="http://www.w3.org/2000/svg">
<rect width="150" height="150" fill="white"/>
<circle cx="110" cy="36" r="16" fill="#D8D8D8"/>
<rect x="37.0762" y="79.0596" width="80.025" height="14.55" fill="#D8D8D8"/>
<path fill-rule="evenodd" clip-rule="evenodd" d="M37.5693 70.9001L30.4229 71.828L33.1991 86.1107L37.5729 83.5289V70.9001V70.8994L37.5693 70.9001ZM63.066 65.7837H64.3829H79.0029L78.8794 65.9516L112.892 66.3454L110.916 56.1816L63.066 65.7837Z" fill="#D8D8D8"/>
<path fill-rule="evenodd" clip-rule="evenodd" d="M118.243 72.9141C118.243 68.4958 114.662 64.9141 110.243 64.9141H44.6016C40.1833 64.9141 36.6016 68.4958 36.6016 72.9141V115.114C36.6016 119.532 40.1833 123.114 44.6016 123.114H110.243C114.662 123.114 118.243 119.532 118.243 115.114V72.9141ZM44.6016 66.9141H110.243L110.468 66.9182C113.678 67.0365 116.243 69.6757 116.243 72.9141V78.6247H38.6016V72.9141L38.6057 72.6891C38.724 69.4796 41.3632 66.9141 44.6016 66.9141ZM38.6016 80.6247H116.243V93.1747H38.6016V80.6247ZM38.6016 95.1747V115.114C38.6016 118.352 41.1671 120.992 44.3766 121.11L44.6016 121.114H110.243C113.482 121.114 116.121 118.548 116.239 115.339L116.243 115.114V95.1747H38.6016Z" fill="#979797"/>
<path fill-rule="evenodd" clip-rule="evenodd" d="M96.7455 41.1396L97.1613 43.0959L33.231 56.6847C30.3499 57.2972 28.4853 60.0751 28.9789 62.9526L29.0204 63.1685L30.5796 70.5041L37.3439 69.1285L38.0445 68.9633L38.5035 70.9099L37.7728 71.0817L30.9954 72.4604L38.4319 107.446L36.4756 107.862L27.0641 63.5844C26.2236 59.6298 28.6819 55.7413 32.5796 54.7824L32.8152 54.7285L96.7455 41.1396ZM110.759 51.1558L113.876 65.8191L111.919 66.2349L109.834 56.4229L58.9955 66.7645L58.3764 66.8884L57.984 64.9273L59.9107 64.5374L109.418 54.4665L108.803 51.5716L110.759 51.1558Z" fill="#979797"/>
<path d="M37.3701 82.5488L37.7688 84.5087L32.3459 85.6118L31.9473 83.652L37.3701 82.5488Z" fill="#979797"/>
<path fill-rule="evenodd" clip-rule="evenodd" d="M62.7899 19.4776C63.1692 19.607 63.5349 19.7757 63.8818 19.9813C64.3678 20.2694 64.5283 20.897 64.2402 21.383C63.9521 21.869 63.3245 22.0294 62.8385 21.7413C62.2565 21.3963 61.5967 21.2125 60.9086 21.2125C58.7873 21.2125 57.0573 22.9693 57.0422 25.1526C57.0806 25.2602 57.1016 25.376 57.1016 25.4968C57.1016 26.0618 56.6435 26.5198 56.0786 26.5198H52.023C51.458 26.5198 51 26.0618 51 25.4968C51 24.9318 51.458 24.4738 52.023 24.4738H55.0367C55.375 21.5382 57.7925 19.2434 60.7586 19.1684C61.5894 15.6145 64.7547 13 68.4937 13C72.2445 13 75.4131 15.6295 76.2345 19.1925C78.4894 19.437 80.2402 21.3709 80.2402 23.7132C80.2402 24.2781 79.7822 24.7362 79.2172 24.7362C78.6522 24.7362 78.1942 24.2781 78.1942 23.7132C78.1942 22.3283 77.0964 21.2125 75.7508 21.2125C75.3742 21.2125 75.0118 21.299 74.682 21.4635C74.1765 21.7158 73.5622 21.5104 73.3099 21.0049C73.0576 20.4994 73.263 19.885 73.7685 19.6328C73.906 19.5642 74.0466 19.5029 74.19 19.449C73.5072 16.9007 71.2024 15.046 68.4937 15.046C65.7773 15.046 63.4635 16.9125 62.7899 19.4776Z" fill="#D8D8D8"/>
<path fill-rule="evenodd" clip-rule="evenodd" d="M29.0083 30.0083V25C29.0083 24.4477 29.456 24 30.0083 24C30.5605 24 31.0083 24.4477 31.0083 25V30.0083H36.0165C36.5688 30.0083 37.0165 30.456 37.0165 31.0083C37.0165 31.5605 36.5688 32.0083 36.0165 32.0083H31.0083V37.0165C31.0083 37.5688 30.5605 38.0165 30.0083 38.0165C29.456 38.0165 29.0083 37.5688 29.0083 37.0165V32.0083H24C23.4477 32.0083 23 31.5605 23 31.0083C23 30.456 23.4477 30.0083 24 30.0083H29.0083Z" fill="#D8D8D8"/>
<path fill-rule="evenodd" clip-rule="evenodd" d="M21 100C21 102.209 19.2091 104 17 104C14.7909 104 13 102.209 13 100C13 97.7909 14.7909 96 17 96C19.2091 96 21 97.7909 21 100ZM15 100C15 101.105 15.8954 102 17 102C18.1046 102 19 101.105 19 100C19 98.8954 18.1046 98 17 98C15.8954 98 15 98.8954 15 100Z" fill="#979797"/>
<path fill-rule="evenodd" clip-rule="evenodd" d="M142 43.5C142 46.5376 139.538 49 136.5 49C133.462 49 131 46.5376 131 43.5C131 40.4624 133.462 38 136.5 38C139.538 38 142 40.4624 142 43.5ZM133 43.5C133 45.433 134.567 47 136.5 47C138.433 47 140 45.433 140 43.5C140 41.567 138.433 40 136.5 40C134.567 40 133 41.567 133 43.5Z" fill="#979797"/>
<path fill-rule="evenodd" clip-rule="evenodd" d="M131.235 86.2352V84C131.235 83.4477 131.683 83 132.235 83C132.787 83 133.235 83.4477 133.235 84V86.2352H135.47C136.023 86.2352 136.47 86.6829 136.47 87.2352C136.47 87.7875 136.023 88.2352 135.47 88.2352H133.235V90.4704C133.235 91.0227 132.787 91.4704 132.235 91.4704C131.683 91.4704 131.235 91.0227 131.235 90.4704V88.2352H129C128.448 88.2352 128 87.7875 128 87.2352C128 86.6829 128.448 86.2352 129 86.2352H131.235Z" fill="#D8D8D8"/>
<path d="M37.0759 107.664H34.0078" stroke="#979797" stroke-width="2" stroke-linecap="round"/>
<path d="M37.0759 112.664H31.0078" stroke="#979797" stroke-width="2" stroke-linecap="round"/>
<path d="M31.0759 107.664H30.0078" stroke="#979797" stroke-width="2" stroke-linecap="round"/>
<circle cx="110" cy="36" r="15" stroke="#979797" stroke-width="2"/>
<path d="M103.812 37.7275L107.776 41.6911L118.8 30.667" stroke="#979797" stroke-width="2"/>
<path d="M106.803 111.008H95" stroke="#979797" stroke-width="2"/>
<path d="M90.8027 111.008H85" stroke="#979797" stroke-width="2"/>
</svg>
