<svg width="150" height="150" viewBox="0 0 150 150" fill="none" xmlns="http://www.w3.org/2000/svg">
<rect width="150" height="150" fill="white"/>
<path fill-rule="evenodd" clip-rule="evenodd" d="M52.3981 121.525L28 32.7563L77.7391 19L84.7752 45.2593C84.7752 45.2593 83.8587 46.0894 77.7391 46.0894C77.5945 46.0894 77.4504 46.0889 77.3066 46.088C70.8583 46.0475 66.1298 40.4921 66.1298 34.0437H52.3981V121.525Z" fill="#D8D8D8"/>
<path d="M83 87C83 84.7909 84.7909 83 87 83H106C108.209 83 110 84.7909 110 87V90H83V87Z" fill="#D8D8D8"/>
<path d="M83 120H110V126C110 128.209 108.209 130 106 130H87C84.7909 130 83 128.209 83 126V120Z" fill="#D8D8D8"/>
<circle cx="110" cy="105" r="10" fill="#D8D8D8"/>
<path fill-rule="evenodd" clip-rule="evenodd" d="M37.4338 14.6134C36.6992 11.3986 33.822 9 30.3846 9C26.9735 9 24.114 11.362 23.3527 14.5398C20.9389 14.5976 19 16.5724 19 19H21C21 17.6405 22.1021 16.5385 23.4615 16.5385C24.821 16.5385 25.9231 17.6405 25.9231 19H27.9231C27.9231 17.197 26.8535 15.6437 25.3143 14.9401C25.889 12.6754 27.9411 11 30.3846 11C33.2735 11 35.6154 13.3419 35.6154 16.2308H36.6154V16.5385C37.9749 16.5385 39.0769 17.6405 39.0769 19H41.0769C41.0769 16.8155 39.507 14.9977 37.4338 14.6134Z" fill="#D8D8D8"/>
<path fill-rule="evenodd" clip-rule="evenodd" d="M131 23C131 20.7909 129.209 19 127 19C124.791 19 123 20.7909 123 23C123 25.2091 124.791 27 127 27C129.209 27 131 25.2091 131 23ZM125 23C125 21.8954 125.895 21 127 21C128.105 21 129 21.8954 129 23C129 24.1046 128.105 25 127 25C125.895 25 125 24.1046 125 23Z" fill="#D8D8D8"/>
<path fill-rule="evenodd" clip-rule="evenodd" d="M131.037 56.4185C129.216 57.1427 127.929 58.921 127.929 61H129.929C129.929 59.3826 131.24 58.0714 132.857 58.0714C134.475 58.0714 135.786 59.3826 135.786 61H137.786C137.786 58.3293 135.661 56.1547 133.01 56.0738C132.519 52.0868 129.12 49 125 49C121.156 49 117.939 51.6873 117.127 55.2857C114.846 55.2944 113 57.1459 113 59.4286H115C115 58.2451 115.959 57.2857 117.143 57.2857C118.326 57.2857 119.286 58.2451 119.286 59.4286H121.286C121.286 57.8365 120.388 56.4542 119.07 55.7605C119.67 53.0375 122.097 51 125 51C128.133 51 130.711 53.3724 131.037 56.4185Z" fill="#D8D8D8"/>
<path fill-rule="evenodd" clip-rule="evenodd" d="M29 99C29 95.6863 26.3137 93 23 93C19.6863 93 17 95.6863 17 99C17 102.314 19.6863 105 23 105C26.3137 105 29 102.314 29 99ZM19 99C19 96.7909 20.7909 95 23 95C25.2091 95 27 96.7909 27 99C27 101.209 25.2091 103 23 103C20.7909 103 19 101.209 19 99Z" fill="#D8D8D8"/>
<path fill-rule="evenodd" clip-rule="evenodd" d="M17 66V63C17 62.4477 17.4477 62 18 62C18.5523 62 19 62.4477 19 63V66H22C22.5523 66 23 66.4477 23 67C23 67.5523 22.5523 68 22 68H19V71C19 71.5523 18.5523 72 18 72C17.4477 72 17 71.5523 17 71V68H14C13.4477 68 13 67.5523 13 67C13 66.4477 13.4477 66 14 66H17Z" fill="#D8D8D8"/>
<path fill-rule="evenodd" clip-rule="evenodd" d="M9.375 124V122C9.375 121.448 9.82272 121 10.375 121C10.9273 121 11.375 121.448 11.375 122V124H13.375C13.9273 124 14.375 124.448 14.375 125C14.375 125.552 13.9273 126 13.375 126H11.375V128C11.375 128.552 10.9273 129 10.375 129C9.82272 129 9.375 128.552 9.375 128V126H7.375C6.82272 126 6.375 125.552 6.375 125C6.375 124.448 6.82272 124 7.375 124H9.375Z" fill="#D8D8D8"/>
<path fill-rule="evenodd" clip-rule="evenodd" d="M64.9996 62.6295V74.2295H67.3113V69.6144H67.9908L71.3713 74.2295H74.1719L70.6008 69.5812C72.8296 69.3658 74.1553 68.0649 74.1553 66.1592C74.1553 63.9386 72.6722 62.6295 69.9048 62.6295H64.9996ZM69.8633 64.7589C71.0896 64.7589 71.7773 65.1981 71.7773 66.1592C71.7773 67.1369 71.1228 67.6009 69.8633 67.6009H67.3113V64.7589H69.8633Z" fill="#979797"/>
<path d="M64.9996 83.9996H75.9996V81.9996H64.9996V83.9996Z" fill="#979797"/>
<path d="M64.9996 88.9996V90.9996H79.9996V88.9996H64.9996Z" fill="#979797"/>
<path d="M79.9996 97.9996H64.9996V95.9996H79.9996V97.9996Z" fill="#979797"/>
<path fill-rule="evenodd" clip-rule="evenodd" d="M96.3053 122.192C97.8194 122.192 99.0468 123.42 99.0468 124.934C99.0468 126.448 97.8194 127.675 96.3053 127.675C94.7913 127.675 93.5639 126.448 93.5639 124.934C93.5639 123.42 94.7913 122.192 96.3053 122.192ZM96.3053 124.192C95.8959 124.192 95.5639 124.524 95.5639 124.934C95.5639 125.343 95.8959 125.675 96.3053 125.675C96.7148 125.675 97.0468 125.343 97.0468 124.934C97.0468 124.524 96.7148 124.192 96.3053 124.192Z" fill="#979797"/>
<path fill-rule="evenodd" clip-rule="evenodd" d="M93.2206 33.0433V33.0496H92.368C92.368 37.8794 89.6481 42.0739 85.6564 44.185L78.5752 17.7578L26.9043 31.603L50.887 121.108V128.9H47.9996C47.4473 128.9 46.9996 129.347 46.9996 129.9C46.9996 130.452 47.4473 130.9 47.9996 130.9H58.9996C59.0697 130.9 59.138 130.892 59.2039 130.879L66.6186 130.878V129.164C66.6186 122.211 72.2547 116.575 79.2072 116.575C80.1568 116.575 81.0916 116.68 81.9996 116.885V125.848C81.9996 128.685 84.3499 130.993 87.2195 130.993H105.78C108.649 130.993 111 128.685 111 125.848V115.202C112.471 115.002 113.884 114.488 115.15 113.69L115.432 113.507L114.311 111.85C112.505 113.071 110.301 113.555 108.111 113.163C103.53 112.345 100.481 107.968 101.3 103.388C102.118 98.8078 106.495 95.7584 111.075 96.5771C115.3 97.332 118.205 101.066 117.998 105.225L115.288 102.365L113.836 103.74L119.054 109.248L124.647 103.949L123.272 102.497L119.977 105.619C120.39 100.35 116.752 95.5598 111.427 94.6083C111.284 94.5828 111.142 94.5603 111 94.5408V87.1284C111 84.7935 109.406 82.8152 107.241 82.1892V71.9996H109.605C110.157 71.9996 110.605 71.5519 110.605 70.9996C110.605 70.4473 110.157 69.9996 109.605 69.9996H107.241V65.9996H112.142C112.695 65.9996 113.142 65.5519 113.142 64.9996C113.142 64.4473 112.695 63.9996 112.142 63.9996H107.241V33.0433H93.2206ZM77.161 20.2073L29.3538 33.0172L50.887 113.38V33.0433H66.304V33.0496H67.1908C67.1908 40.0021 72.8269 45.6382 79.7794 45.6382C81.1852 45.6382 82.5371 45.4078 83.7995 44.9826L77.161 20.2073ZM52.887 35.0433H65.3259C66.298 42.1571 72.3986 47.6382 79.7794 47.6382C87.1602 47.6382 93.2608 42.1571 94.2329 35.0433H105.241V81.9829H87.2195C84.3503 81.9829 81.9996 84.2927 81.9996 87.1284V114.842C81.0867 114.665 80.1528 114.575 79.2072 114.575C71.2453 114.575 64.7731 120.953 64.6213 128.879H52.887V35.0433ZM109 91.1588V94.4601C104.287 94.7247 100.198 98.1871 99.331 103.036C98.318 108.704 102.091 114.119 107.759 115.132C108.172 115.206 108.587 115.255 109 115.279V118H83.9996V91.1588H109ZM109 120H83.9996V125.848C83.9996 127.572 85.4465 128.993 87.2195 128.993H105.78C107.553 128.993 109 127.572 109 125.848V120ZM83.9996 89.1588H109V87.1284C109 85.4052 107.552 83.9829 105.78 83.9829H87.2195C85.4471 83.9829 83.9996 85.4052 83.9996 87.1284V89.1588Z" fill="#979797"/>
<path d="M41.9546 128.9H43.9996C44.5519 128.9 44.9996 129.347 44.9996 129.9C44.9996 130.452 44.5519 130.9 43.9996 130.9H41.9546C41.4023 130.9 40.9546 130.452 40.9546 129.9C40.9546 129.347 41.4023 128.9 41.9546 128.9Z" fill="#979797"/>
<path d="M116 65.9996H117.407C117.959 65.9996 118.407 65.5519 118.407 64.9996C118.407 64.4473 117.959 63.9996 117.407 63.9996H116C115.447 63.9996 115 64.4473 115 64.9996C115 65.5519 115.447 65.9996 116 65.9996Z" fill="#979797"/>
</svg>
