<svg width="150" height="150" viewBox="0 0 150 150" fill="none" xmlns="http://www.w3.org/2000/svg">
<rect width="150" height="150" fill="white"/>
<rect x="30.5869" y="76.5" width="99" height="18" fill="#339C63"/>
<circle cx="116.043" cy="35.5" r="16.5" fill="#339C63"/>
<path fill-rule="evenodd" clip-rule="evenodd" d="M123.389 59.2016C127.732 59.289 131.225 62.8365 131.225 67.2V123.25C131.225 127.668 127.643 131.25 123.225 131.25H37.7C33.2817 131.25 29.7 127.668 29.7 123.25V109.546L18.6897 57.7811C17.6563 52.9192 20.7599 48.14 25.6219 47.1066L98.9998 31.5096C100.805 23.7674 107.751 18 116.043 18C125.708 18 133.543 25.835 133.543 35.5C133.543 43.1255 128.665 49.6119 121.86 52.0098L123.389 59.2016ZM121.344 59.2L119.934 52.5659C118.682 52.85 117.38 53 116.043 53C106.378 53 98.5428 45.165 98.5428 35.5C98.5428 34.8684 98.5763 34.2447 98.6415 33.6305L26.0377 49.0629C22.2562 49.8667 19.8422 53.5838 20.646 57.3653L29.7 99.9607V67.2C29.7 62.7817 33.2817 59.2 37.7 59.2H121.344ZM129.225 67.2V76H31.7V67.2C31.7 63.8863 34.3862 61.2 37.7 61.2H123.225C126.539 61.2 129.225 63.8863 129.225 67.2ZM129.225 78H31.7V94H129.225V78ZM31.7 96H129.225V123.25C129.225 126.564 126.539 129.25 123.225 129.25H37.7C34.3862 129.25 31.7 126.564 31.7 123.25V96ZM116.043 51C124.603 51 131.543 44.0604 131.543 35.5C131.543 26.9396 124.603 20 116.043 20C107.482 20 100.543 26.9396 100.543 35.5C100.543 44.0604 107.482 51 116.043 51ZM122.537 40.0308L117.765 35.2592L122.537 30.4876L121.122 29.0734L116.351 33.845L111.579 29.0734L110.165 30.4876L114.937 35.2592L110.165 40.0308L111.579 41.445L116.351 36.6734L121.122 41.445L122.537 40.0308Z" fill="white"/>
</svg>
