<svg width="150" height="150" viewBox="0 0 150 150" fill="none" xmlns="http://www.w3.org/2000/svg">
<rect width="150" height="150" fill="white"/>
<path fill-rule="evenodd" clip-rule="evenodd" d="M33.9943 113.442L19 30.9187L33.9201 28.2441L33.9943 113.442Z" fill="#D8D8D8"/>
<circle cx="116.59" cy="30.0004" r="15.6" fill="#D8D8D8"/>
<path fill-rule="evenodd" clip-rule="evenodd" d="M116.213 13C111.085 13 106.481 15.2423 103.327 18.8H32.9997V27.0408L17.7568 29.7285L32.9997 116.175V131.1H119.169V47.2601C119.495 47.217 119.825 47.1632 120.17 47.0988L119.804 45.1326C118.96 45.2899 117.241 45.3904 117.166 45.3904V47.3904H117.169V129.1H34.9997V20.8H101.799C100.029 23.5051 98.9997 26.7389 98.9997 30.213C98.9997 39.7195 106.706 47.4261 116.213 47.4261V45.4261C107.811 45.4261 101 38.615 101 30.213C101 21.8111 107.811 15 116.213 15C119.349 15 122.34 15.9498 124.862 17.6963C128.588 20.2759 130.982 24.3649 131.37 28.9051L130.229 27.5511L128.7 28.8399L132.164 32.9515L135.917 28.9304L134.454 27.5659L133.363 28.7355C132.924 23.5984 130.214 18.9696 126.001 16.052C123.147 14.0757 119.759 13 116.213 13ZM32.9997 29.0716V104.658L20.0737 31.3508L32.9997 29.0716ZM123.26 46.2161L122.533 44.3532C123.409 44.011 124.25 43.5879 125.047 43.0901L126.107 44.7864C125.205 45.3498 124.252 45.8287 123.26 46.2161ZM127.306 41.3677L128.661 42.8385C129.443 42.1178 130.157 41.3263 130.794 40.4746L129.192 39.277C128.629 40.0302 127.997 40.7303 127.306 41.3677ZM132.448 37.7775L130.654 36.8934C131.069 36.0514 131.405 35.1719 131.658 34.2646L133.585 34.8006C133.299 35.8282 132.918 36.8242 132.448 37.7775ZM117 32.991V22C117 21.4477 116.552 21 116 21C115.447 21 115 21.4477 115 22V34.0552L121.202 38.233C121.66 38.5415 122.281 38.4203 122.59 37.9623C122.898 37.5042 122.777 36.8828 122.319 36.5742L117 32.991ZM89.9998 75.0001V77.0001L55.9996 76.9963V74.9963L89.9998 75.0001ZM108 65V63H55.9997V65H108ZM107 86V88H55.9997V86H107ZM45.5551 64.8697L44.2696 63.3376L42.7375 64.6231L45.3086 67.6873L52.01 62.0642L50.7244 60.5321L45.5551 64.8697ZM44.2696 75.3376L45.5551 76.8697L50.7244 72.5321L52.01 74.0642L45.3086 79.6873L42.7375 76.6231L44.2696 75.3376ZM50.7244 83.5321L45.5551 87.8697L44.2696 86.3376L42.7375 87.6231L45.3086 90.6873L52.01 85.0642L50.7244 83.5321Z" fill="#979797"/>
</svg>
