<svg width="100" height="100" viewBox="0 0 100 100" fill="none" xmlns="http://www.w3.org/2000/svg">
<rect width="100" height="100" fill="white"/>
<path d="M64.1772 38.4453L79.3844 38.4453C79.3844 38.4453 83.589 39.0134 83.589 43.6267V59.4602C83.589 62.0165 81.5317 64.0887 78.9939 64.0887H59.1009H50.0789H44.224C41.6862 64.0887 39.6289 62.0165 39.6289 59.4602L39.6289 55.6261V51.67L44.224 50.0414L64.1772 38.4453Z" fill="#339C63"/>
<path d="M82.9026 42.8789C85.37 42.8789 87.3702 44.901 87.3702 47.3953V62.8532C87.3702 65.3476 85.37 67.3696 82.9026 67.3696H63.5615L55.6338 75.2272C55.541 75.3192 55.4162 75.3707 55.2863 75.3707C55.0121 75.3707 54.7899 75.1461 54.7899 74.8689V67.3696H48.3504C45.883 67.3696 43.8828 65.3476 43.8828 62.8532H79.4401C79.4401 62.8532 82.9026 62.856 82.9026 57.6491C82.9026 52.4423 82.9026 42.8789 82.9026 42.8789Z" fill="#339C63"/>
<path fill-rule="evenodd" clip-rule="evenodd" d="M51.0547 54.7686C51.0547 54.2163 51.5024 53.7686 52.0547 53.7686H71.582C72.1343 53.7686 72.582 54.2163 72.582 54.7686C72.582 55.3208 72.1343 55.7686 71.582 55.7686H52.0547C51.5024 55.7686 51.0547 55.3208 51.0547 54.7686Z" fill="white"/>
<path fill-rule="evenodd" clip-rule="evenodd" d="M51.0547 45.9453C51.0547 45.393 51.5024 44.9453 52.0547 44.9453H71.582C72.1343 44.9453 72.582 45.393 72.582 45.9453C72.582 46.4976 72.1343 46.9453 71.582 46.9453H52.0547C51.5024 46.9453 51.0547 46.4976 51.0547 45.9453Z" fill="white"/>
<path fill-rule="evenodd" clip-rule="evenodd" d="M86.559 47.4245C86.559 45.4181 85.021 43.7861 83 43.7861V41.7861C86.1194 41.7861 88.559 44.3073 88.559 47.4245V63.6592C88.559 66.7764 86.0246 69.2977 82.9052 69.2977H63.1657L55.1991 77.0829C54.9153 77.3602 54.5343 77.515 54.1382 77.515C53.3035 77.515 52.6211 76.8397 52.6211 75.9997V69.2977H47.8325C44.7131 69.2977 42.1787 66.7764 42.1787 63.6592H44.1787C44.1787 65.6656 45.8114 67.2977 47.8325 67.2977H54.6211V74.8513L62.3507 67.2977H82.9052C84.9262 67.2977 86.559 65.6656 86.559 63.6592V47.4245Z" fill="white"/>
<path fill-rule="evenodd" clip-rule="evenodd" d="M79.6678 38.4609H66.2588V36.4609H79.8176L79.8837 36.4698L79.7509 37.4609C79.8837 36.4698 79.8842 36.4699 79.8848 36.4699L79.886 36.4701L79.8886 36.4705L79.8952 36.4714L79.9129 36.474C79.9268 36.4761 79.9448 36.4789 79.9665 36.4826C80.01 36.4901 80.0689 36.5009 80.1409 36.5162C80.2848 36.5466 80.4827 36.5948 80.7169 36.6687C81.1823 36.8154 81.8086 37.0686 82.4411 37.4972C83.7445 38.3807 85.0092 39.9745 85.0092 42.6627V59.4424C85.0092 62.5625 82.4764 65.0891 79.3554 65.0891H44.2827C41.1616 65.0891 38.6289 62.5624 38.6289 59.4424V51.386H40.6289V59.4424C40.6289 61.455 42.2633 63.0891 44.2827 63.0891H79.3554C81.3748 63.0891 83.0092 61.455 83.0092 59.4424V42.6627C83.0092 40.7195 82.1447 39.7124 81.319 39.1528C80.887 38.86 80.4487 38.6811 80.1157 38.5762C79.9507 38.5242 79.8159 38.4917 79.7269 38.4728C79.7039 38.468 79.6841 38.464 79.6678 38.4609ZM79.6129 38.4514C79.6118 38.4512 79.6121 38.4512 79.6129 38.4514V38.4514Z" fill="white"/>
<path fill-rule="evenodd" clip-rule="evenodd" d="M77.1564 23.2962C78.8128 23.0096 80.5239 22.9582 81.9552 23.4811C82.6349 23.7294 83.2471 24.1555 83.5026 24.8641C83.7519 25.5555 83.5571 26.2326 83.2958 26.7474C82.7834 27.7569 81.6851 28.795 80.605 29.6712C79.4872 30.5779 78.2419 31.4256 77.2854 32.0418C76.8051 32.3513 76.3933 32.6051 76.1008 32.782C75.9545 32.8705 75.8378 32.9399 75.7571 32.9875C75.7168 33.0113 75.6854 33.0297 75.6638 33.0423L75.6389 33.0568L75.6321 33.0607L75.6301 33.0618C75.6301 33.0618 75.6292 33.0624 75.2333 32.3767L75.6292 33.0624L44.3623 51.1144L44.2937 51.1415L43.9261 50.2115C44.2937 51.1415 44.2937 51.1415 44.2937 51.1415L44.2907 51.1427L44.2853 51.1449L44.267 51.152C44.2583 51.1553 44.2476 51.1594 44.2348 51.1643C44.2247 51.1682 44.2133 51.1725 44.2007 51.1773C44.1433 51.199 44.0594 51.2302 43.9489 51.27C43.7279 51.3498 43.4004 51.4642 42.9648 51.6065C42.0936 51.8912 40.7905 52.2876 39.0441 52.7419C35.551 53.6507 30.2848 54.7911 23.1539 55.7332C21.5347 55.9472 20.7798 53.7716 22.2064 52.9477L22.7628 52.6264L13.2139 46.0446L17.1209 43.7892L17.4981 43.8707C19.9913 44.4097 22.0435 44.8893 23.7709 45.2929C26.1777 45.8553 27.9539 46.2703 29.4136 46.4935C30.6357 46.6803 31.5467 46.7153 32.3435 46.601C33.1269 46.4886 33.852 46.2242 34.688 45.7416L44.546 40.0502L45.2154 40.8072L45.4083 41.0255L45.9513 41.5482L35.688 47.4737C34.6754 48.0583 33.709 48.4255 32.6275 48.5807C31.5593 48.7339 30.4319 48.6724 29.1113 48.4705C27.5878 48.2376 25.686 47.7939 23.1885 47.2112C21.5524 46.8295 19.6607 46.3881 17.4522 45.9073C17.3276 45.8802 17.5788 45.9347 17.4522 45.9073L16.9551 46.1943L27.231 53.1193L25.4303 53.3956C25.3092 53.4135 25.4303 53.4303 25.4303 53.4303C25.4303 53.4303 25.4611 53.3956 25.4303 53.3956H25.4611C25.4185 53.5248 25.4431 53.3766 25.3507 53.4303C25.2583 53.4839 25.4303 53.3956 25.4303 53.3956C31.2012 52.5436 35.5507 51.5842 38.5405 50.8064C40.2472 50.3623 41.5111 49.9774 42.3436 49.7054C42.7598 49.5694 43.0682 49.4616 43.2702 49.3887C43.3712 49.3523 43.4457 49.3246 43.4937 49.3064L74.6291 31.3304L74.635 31.327L74.656 31.3148L74.7409 31.2649C74.8157 31.2208 74.9261 31.1551 75.0657 31.0707C75.345 30.9018 75.7405 30.658 76.2022 30.3605C77.1298 29.763 78.3073 28.9598 79.3451 28.118C80.4205 27.2456 81.2103 26.4373 81.5124 25.8422C81.5977 25.6742 81.614 25.5822 81.6165 25.5454C81.5844 25.5129 81.4933 25.4417 81.2689 25.3597C80.3218 25.0137 79.021 25.0033 77.4974 25.2669C75.995 25.5268 74.3875 26.0328 72.8949 26.6042C71.4068 27.1738 70.0596 27.7982 69.083 28.2812C68.5954 28.5223 68.2021 28.7272 67.9319 28.8712C67.7968 28.9432 67.6927 28.9998 67.623 29.0381C67.6073 29.0467 67.5933 29.0544 67.5811 29.0612C67.5664 29.0693 67.5543 29.076 67.5449 29.0813L67.5261 29.0917L67.522 29.0941L55.1152 36.2572L36.1865 29.6252L48.8505 41.2978L47.5516 42.8168L45.9513 41.5482L45.5 41.1137L44.546 40.0502L32.231 28.6993L35.0112 27.0942L54.9102 34.0662L66.5389 27.3523L67.0301 28.2234C66.5389 27.3523 66.5389 27.3523 66.5389 27.3523L66.54 27.3518L66.5484 27.347L66.5721 27.3338C66.5924 27.3225 66.622 27.3061 66.6603 27.2851C66.7369 27.243 66.8485 27.1823 66.9913 27.1062C67.2771 26.9539 67.6885 26.7396 68.1964 26.4884C69.2106 25.9868 70.617 25.3346 72.1798 24.7363C73.7381 24.1398 75.4788 23.5864 77.1564 23.2962Z" fill="white"/>
<path fill-rule="evenodd" clip-rule="evenodd" d="M39.6319 58.5021C39.907 58.9811 39.7417 59.5923 39.2628 59.8673L20.6808 70.5394C20.2019 70.8145 19.5907 70.6492 19.3156 70.1703C19.0406 69.6914 19.2058 69.0802 19.6848 68.8051L38.2667 58.133C38.7456 57.858 39.3569 58.0232 39.6319 58.5021Z" fill="white"/>
<path fill-rule="evenodd" clip-rule="evenodd" d="M17.517 71.2846C17.7947 71.762 17.6327 72.3741 17.1552 72.6518L13.6806 74.6722C13.2031 74.9498 12.591 74.7878 12.3134 74.3103C12.0358 73.8329 12.1978 73.2208 12.6752 72.9432L16.1499 70.9228C16.6273 70.6452 17.2394 70.8072 17.517 71.2846Z" fill="white"/>
<path fill-rule="evenodd" clip-rule="evenodd" d="M15.555 60.0806C15.8369 60.5555 15.6804 61.169 15.2055 61.4509L9.51055 64.831C9.03562 65.1129 8.4221 64.9564 8.14021 64.4814C7.85833 64.0065 8.01483 63.393 8.48976 63.1111L14.1847 59.731C14.6596 59.4492 15.2731 59.6056 15.555 60.0806Z" fill="white"/>
<path fill-rule="evenodd" clip-rule="evenodd" d="M37.4132 31.3557C37.6904 31.8334 37.5278 32.4454 37.0501 32.7225L23.4415 40.6184C22.9638 40.8955 22.3518 40.733 22.0747 40.2553C21.7975 39.7776 21.9601 39.1656 22.4378 38.8885L36.0464 30.9926C36.5241 30.7155 37.136 30.878 37.4132 31.3557Z" fill="white"/>
<path fill-rule="evenodd" clip-rule="evenodd" d="M40.4739 33.8036C40.7518 34.2809 40.5902 34.8931 40.1129 35.171L33.3832 39.0894C32.9059 39.3673 32.2938 39.2056 32.0159 38.7283C31.738 38.2511 31.8996 37.6389 32.3769 37.361L39.1066 33.4426C39.5838 33.1647 40.196 33.3264 40.4739 33.8036Z" fill="white"/>
</svg>
