<svg width="150" height="150" viewBox="0 0 150 150" fill="none" xmlns="http://www.w3.org/2000/svg">
<rect width="150" height="150" fill="white"/>
<circle cx="53" cy="70" r="4" fill="#E4F2D2"/>
<circle cx="53" cy="45" r="4" fill="#E4F2D2"/>
<circle cx="39" cy="45" r="4" fill="#E4F2D2"/>
<circle cx="39" cy="70" r="4" fill="#E4F2D2"/>
<circle cx="53" cy="95" r="4" fill="#E4F2D2"/>
<circle cx="39" cy="95" r="4" fill="#E4F2D2"/>
<circle cx="109" cy="99" r="20" fill="#E4F2D2"/>
<path fill-rule="evenodd" clip-rule="evenodd" d="M110.5 31C117.956 31 124 37.0442 124 44.5C124 50.1483 120.531 54.9864 115.608 57.0003C120.531 59.0136 124 63.8517 124 69.5C124 72.4296 123.063 75.2202 121.356 77.5257C121.028 77.9696 120.401 78.063 119.958 77.7344C119.514 77.4057 119.42 76.7795 119.749 76.3356C121.203 74.3716 122 71.9974 122 69.5C122 63.2464 117.008 58.1587 110.792 58.0036L110.5 58H34.5C28.1487 58 23 63.1487 23 69.5C23 75.7536 27.9915 80.8413 34.2077 80.9964L34.5 81H89.6236C90.1759 81 90.6236 81.4477 90.6236 82C90.6236 82.5128 90.2376 82.9355 89.7402 82.9933L89.6236 83H34.5C28.1487 83 23 88.1487 23 94.5C23 100.754 27.9915 105.841 34.2077 105.996L34.5 106H84.7608C85.3131 106 85.7608 106.448 85.7608 107C85.7608 107.513 85.3747 107.936 84.8774 107.993L84.7608 108H73.5V119H96.6501C97.2024 119 97.6501 119.448 97.6501 120C97.6501 120.513 97.2641 120.936 96.7667 120.993L96.6501 121H47C46.4477 121 46 120.552 46 120C46 119.487 46.386 119.064 46.8834 119.007L47 119H71.5V108H34.5C27.0442 108 21 101.956 21 94.5C21 88.8516 24.4689 84.0134 29.3925 81.9996C24.4687 79.9864 21 75.1483 21 69.5C21 63.8516 24.4689 59.0134 29.3925 56.9996C24.4687 54.9864 21 50.1483 21 44.5C21 37.1477 26.8774 31.1682 34.1902 31.0035L34.5 31H110.5ZM109 78C120.598 78 130 87.402 130 99C130 110.598 120.598 120 109 120C97.402 120 88 110.598 88 99C88 87.402 97.402 78 109 78ZM90 99C90 88.5066 98.5066 80 109 80C119.493 80 128 88.5066 128 99C128 109.493 119.493 118 109 118C98.5066 118 90 109.493 90 99ZM109.306 103.766C110.219 103.766 110.934 104.459 110.934 105.372C110.934 106.285 110.219 107 109.306 107C108.393 107 107.7 106.285 107.7 105.372C107.7 104.459 108.393 103.766 109.306 103.766ZM110.472 101.731V91.193H108.162V101.731H110.472ZM53 90C55.7614 90 58 92.2386 58 95C58 97.7614 55.7614 100 53 100C50.2386 100 48 97.7614 48 95C48 92.2386 50.2386 90 53 90ZM44 95C44 92.2386 41.7614 90 39 90C36.2386 90 34 92.2386 34 95C34 97.7614 36.2386 100 39 100C41.7614 100 44 97.7614 44 95ZM53 92C51.3431 92 50 93.3431 50 95C50 96.6569 51.3431 98 53 98C54.6569 98 56 96.6569 56 95C56 93.3431 54.6569 92 53 92ZM36 95C36 93.3431 37.3431 92 39 92C40.6569 92 42 93.3431 42 95C42 96.6569 40.6569 98 39 98C37.3431 98 36 96.6569 36 95ZM84.3305 93.5C84.8828 93.5 85.3305 93.9477 85.3305 94.5C85.3305 95.0128 84.9445 95.4355 84.4471 95.4933L84.3305 95.5H64C63.4477 95.5 63 95.0523 63 94.5C63 93.9872 63.386 93.5645 63.8834 93.5067L64 93.5H84.3305ZM58 70C58 67.2386 55.7614 65 53 65C50.2386 65 48 67.2386 48 70C48 72.7614 50.2386 75 53 75C55.7614 75 58 72.7614 58 70ZM39 65C41.7614 65 44 67.2386 44 70C44 72.7614 41.7614 75 39 75C36.2386 75 34 72.7614 34 70C34 67.2386 36.2386 65 39 65ZM50 70C50 68.3431 51.3431 67 53 67C54.6569 67 56 68.3431 56 70C56 71.6569 54.6569 73 53 73C51.3431 73 50 71.6569 50 70ZM39 67C37.3431 67 36 68.3431 36 70C36 71.6569 37.3431 73 39 73C40.6569 73 42 71.6569 42 70C42 68.3431 40.6569 67 39 67ZM112.65 69.5C112.65 68.9477 112.202 68.5 111.65 68.5H66L65.8834 68.5067C65.386 68.5645 65 68.9872 65 69.5C65 70.0523 65.4477 70.5 66 70.5H111.65L111.767 70.4933C112.264 70.4355 112.65 70.0128 112.65 69.5ZM110.5 33H34.5C28.1487 33 23 38.1487 23 44.5C23 50.7536 27.9915 55.8413 34.2077 55.9964L34.5 56H110.5C116.851 56 122 50.8513 122 44.5C122 38.1487 116.851 33 110.5 33ZM58 45C58 42.2386 55.7614 40 53 40C50.2386 40 48 42.2386 48 45C48 47.7614 50.2386 50 53 50C55.7614 50 58 47.7614 58 45ZM39 40C41.7614 40 44 42.2386 44 45C44 47.7614 41.7614 50 39 50C36.2386 50 34 47.7614 34 45C34 42.2386 36.2386 40 39 40ZM50 45C50 43.3431 51.3431 42 53 42C54.6569 42 56 43.3431 56 45C56 46.6569 54.6569 48 53 48C51.3431 48 50 46.6569 50 45ZM39 42C37.3431 42 36 43.3431 36 45C36 46.6569 37.3431 48 39 48C40.6569 48 42 46.6569 42 45C42 43.3431 40.6569 42 39 42ZM112.65 44.5C112.65 43.9477 112.202 43.5 111.65 43.5H66L65.8834 43.5067C65.386 43.5645 65 43.9872 65 44.5C65 45.0523 65.4477 45.5 66 45.5H111.65L111.767 45.4933C112.264 45.4355 112.65 45.0128 112.65 44.5Z" fill="#009639"/>
</svg>
