<svg width="100" height="100" viewBox="0 0 100 100" fill="none" xmlns="http://www.w3.org/2000/svg">
<rect width="100" height="100" fill="white"/>
<path fill-rule="evenodd" clip-rule="evenodd" d="M16.3289 82.8529H31.2016C32.3377 82.8529 33.2587 81.9318 33.2587 80.7957C33.2587 79.6596 32.3377 78.7385 31.2016 78.7385H30.8383V77.9496C30.8383 75.3381 28.8269 73.1673 26.223 72.9686C23.8257 72.7856 21.6382 74.3363 21.0169 76.6588L20.9991 76.7256L18.6776 76.1219C14.7425 75.0985 11.5523 79.3703 13.6508 82.8529H16.3289Z" fill="#E4F2D2"/>
<path fill-rule="evenodd" clip-rule="evenodd" d="M82.9299 82.8529H68.0572C66.9211 82.8529 66 81.9318 66 80.7957C66 79.6596 66.9211 78.7385 68.0572 78.7385H68.4205V77.9496C68.4205 75.3381 70.4319 73.1673 73.0358 72.9686C75.4331 72.7856 77.6206 74.3363 78.2419 76.6588L78.2597 76.7256L80.5812 76.1219C84.5162 75.0985 87.7065 79.3703 85.6079 82.8529H82.9299Z" fill="#E4F2D2"/>
<path fill-rule="evenodd" clip-rule="evenodd" d="M12.9443 52.6981C13.3351 53.0883 13.9683 53.0879 14.3585 52.6971L17.7639 49.2867V74.9903C15.4716 75.1658 13.4401 76.7687 12.8291 79.1182C12.4541 80.5603 12.6762 82.0926 13.4452 83.3688L13.7368 83.8527H31.8525C32.1287 83.8527 32.3964 83.816 32.6509 83.7474V83.8527H68.4172V83.839C68.5129 83.8481 68.6099 83.8527 68.708 83.8527H86.8237L87.1153 83.3688C87.8843 82.0926 88.1064 80.5603 87.7314 79.1182C87.0298 76.4205 84.4554 74.707 81.7639 75.0086V49.6299L84.8274 52.6972C85.2177 53.0879 85.8508 53.0883 86.2416 52.698C86.6323 52.3077 86.6327 51.6746 86.2424 51.2838L49.5882 14.585L12.9433 51.2839C12.553 51.6747 12.5535 52.3079 12.9443 52.6981ZM19.7639 75.2017L21.0191 75.5281C22.0575 73.2335 24.4383 71.7796 27.0189 71.9766L27.1903 71.9897C30.1799 72.2178 32.4892 74.7101 32.4892 77.7084V77.8047C33.872 78.0977 34.9096 79.3254 34.9096 80.7955C34.9096 81.1671 34.8433 81.5232 34.7219 81.8527H65.8386C65.7172 81.5232 65.6509 81.1671 65.6509 80.7955C65.6509 79.3254 66.6885 78.0977 68.0713 77.8047V77.7084C68.0713 74.7101 70.3806 72.2178 73.3702 71.9897L73.5417 71.9766C76.1222 71.7796 78.503 73.2335 79.5414 75.5281L79.7639 75.4702V47.6275L49.5884 17.4153L19.7639 47.2837V75.2017ZM67.6509 80.7955C67.6509 81.3794 68.1242 81.8527 68.708 81.8527H85.6454C85.9338 81.1493 85.9895 80.3666 85.7958 79.6216C85.3043 77.7317 83.3737 76.598 81.4837 77.0895L78.2011 77.9432L77.9445 76.9838C77.4373 75.0874 75.6512 73.8214 73.6939 73.9708L73.5224 73.9839C71.5753 74.1325 70.0713 75.7556 70.0713 77.7084V79.7383H68.708C68.1242 79.7383 67.6509 80.2117 67.6509 80.7955ZM32.9096 80.7955C32.9096 81.3794 32.4363 81.8527 31.8525 81.8527H14.9151C14.6268 81.1493 14.571 80.3666 14.7647 79.6216C15.2562 77.7317 17.1868 76.598 19.0768 77.0895L22.3594 77.9432L22.616 76.9838C23.1232 75.0874 24.9093 73.8214 26.8667 73.9708L27.0381 73.9839C28.9852 74.1325 30.4892 75.7556 30.4892 77.7084V79.7383H31.8525C32.4363 79.7383 32.9096 80.2117 32.9096 80.7955ZM24.0883 51.4905H37.0883V65.4905H24.0883V51.4905ZM26.0883 63.4905H35.0883V53.4905H26.0883V63.4905ZM62.0883 51.4905H75.0883V65.4905H62.0883V51.4905ZM64.0883 63.4905H73.0883V53.4905H64.0883V63.4905ZM57.0883 51.4905H42.0883V79.4905H57.0883V51.4905ZM55.0883 77.4905H44.0883V53.4905H55.0883V77.4905Z" fill="#009639"/>
</svg>
