<svg width="100" height="100" viewBox="0 0 100 100" fill="none" xmlns="http://www.w3.org/2000/svg">
<rect width="100" height="100" fill="white"/>
<path d="M14.5791 23.1953L26.1815 88.9956L75.5729 80.2865L74.7089 75.3868L63.9705 14.4863L14.5791 23.1953Z" fill="#B3D4F1"/>
<path d="M76.666 24.0755V13.333H26.666V80.1483H76.666V52.5087" fill="white"/>
<circle cx="75.7998" cy="39.666" r="16.5" fill="#B3D4F1"/>
<path fill-rule="evenodd" clip-rule="evenodd" d="M27.6662 14.333V79.1483H75.6662V56.9472C68.8786 56.8457 62.9144 52.5302 60.6435 46.3073L59.069 50.3617L57.2046 49.6377L59.8967 42.7055L66.6184 45.3158L65.8944 47.1802L62.6326 45.9135C64.7249 51.2714 69.9773 54.949 75.911 54.949C82.251 54.949 87.7639 50.7455 89.5144 44.7434L91.4344 45.3034C89.6003 51.5923 84.1471 56.1504 77.6662 56.8542V81.1483H76.4429L25.3706 90.1538L13.4209 22.3839L25.6662 20.2247V12.333H77.6662V22.6991C82.9394 23.309 87.5937 26.465 90.1107 31.1238C90.5436 31.925 90.9073 32.7611 91.1917 33.6058L92.6872 29.7552L94.5515 30.4792L91.8592 37.4114L85.1376 34.8011L85.8616 32.9367L89.3059 34.2743C89.0516 33.5151 88.732 32.7795 88.3511 32.0745C85.8859 27.5117 81.0801 24.5913 75.7929 24.5913C69.4529 24.5913 63.9401 28.7948 62.1896 34.7968L60.2696 34.2369C62.2555 27.4276 68.4842 22.6474 75.6662 22.5918V14.333H27.6662ZM25.6662 22.2556V80.3131L15.7378 24.0062L25.6662 22.2556ZM25.8135 81.1483L26.9929 87.8369L64.9254 81.1483H25.8135ZM58.3329 27.333H48.3329V29.333H58.3329V27.333ZM48.3329 33.9997H56.6662V35.9997H48.3329V33.9997ZM55.5321 52.3333H33.3329V54.3333H55.5321V52.3333ZM33.3329 59H68.8515V61H33.3329V59ZM33.3329 65.6667H64.4117V67.6667H33.3329V65.6667ZM48.3329 40.6663H53.3329V42.6663H48.3329V40.6663ZM76.9403 34.4997C76.1591 34.4997 75.5829 33.943 75.5829 33.2204C75.5829 32.488 76.1591 31.9313 76.9403 31.9313C77.7216 31.9313 78.2977 32.488 78.2977 33.2204C78.2977 33.943 77.7216 34.4997 76.9403 34.4997ZM75.8954 46.9997V36.3649H77.9852V46.9997H75.8954ZM36.3501 42.9997V37.0915H39.7447L42.9029 42.9997H45.6851L42.2046 36.694C44.0953 36.0495 45.2125 34.3522 45.2125 32.2682C45.2125 29.3571 43.2037 27.4987 40.0777 27.4987H33.9439V42.9997H36.3501ZM36.3501 35.0397V29.6149H39.7447C41.6031 29.6149 42.7418 30.6354 42.7418 32.3219C42.7418 34.0514 41.6675 35.0397 39.8091 35.0397H36.3501Z" fill="#006FCF"/>
</svg>
