<svg width="100" height="100" viewBox="0 0 100 100" fill="none" xmlns="http://www.w3.org/2000/svg">
<rect width="100" height="100" fill="white"/>
<rect x="42" y="56" width="15" height="30" fill="#B3D4F1"/>
<path fill-rule="evenodd" clip-rule="evenodd" d="M16.3289 85.8529H31.2016C32.3377 85.8529 33.2587 84.9318 33.2587 83.7957C33.2587 82.6596 32.3377 81.7385 31.2016 81.7385H30.8383V80.9496C30.8383 78.3381 28.8269 76.1673 26.223 75.9686C23.8257 75.7856 21.6382 77.3363 21.0169 79.6588L20.9991 79.7256L18.6776 79.1219C14.7425 78.0985 11.5523 82.3703 13.6508 85.8529H16.3289Z" fill="#B3D4F1"/>
<path fill-rule="evenodd" clip-rule="evenodd" d="M82.9299 86.8529H68.0572C66.9211 86.8529 66 85.9318 66 84.7957C66 83.6596 66.9211 82.7385 68.0572 82.7385H68.4205V81.9496C68.4205 79.3381 70.4319 77.1673 73.0358 76.9686C75.4331 76.7856 77.6206 78.3363 78.2419 80.6588L78.2597 80.7256L80.5812 80.1219C84.5162 79.0985 87.7065 83.3703 85.6079 86.8529H82.9299Z" fill="#B3D4F1"/>
<path fill-rule="evenodd" clip-rule="evenodd" d="M83.75 12V10C83.75 9.44772 84.1977 9 84.75 9C85.3023 9 85.75 9.44772 85.75 10V12H87.75C88.3023 12 88.75 12.4477 88.75 13C88.75 13.5523 88.3023 14 87.75 14H85.75V16C85.75 16.5523 85.3023 17 84.75 17C84.1977 17 83.75 16.5523 83.75 16V14H81.75C81.1977 14 80.75 13.5523 80.75 13C80.75 12.4477 81.1977 12 81.75 12H83.75Z" fill="#B3D4F1"/>
<path fill-rule="evenodd" clip-rule="evenodd" d="M9.125 60.5V59C9.125 58.4477 9.57272 58 10.125 58C10.6773 58 11.125 58.4477 11.125 59V60.5H12.625C13.1773 60.5 13.625 60.9477 13.625 61.5C13.625 62.0523 13.1773 62.5 12.625 62.5H11.125V64C11.125 64.5523 10.6773 65 10.125 65C9.57272 65 9.125 64.5523 9.125 64V62.5H7.625C7.07272 62.5 6.625 62.0523 6.625 61.5C6.625 60.9477 7.07272 60.5 7.625 60.5H9.125Z" fill="#B3D4F1"/>
<path fill-rule="evenodd" clip-rule="evenodd" d="M16.3333 12.6667C16.3333 14.6917 14.6917 16.3333 12.6667 16.3333C10.6416 16.3333 9 14.6917 9 12.6667C9 10.6416 10.6416 9 12.6667 9C14.6917 9 16.3333 10.6416 16.3333 12.6667ZM11 12.6667C11 13.5871 11.7462 14.3333 12.6667 14.3333C13.5871 14.3333 14.3333 13.5871 14.3333 12.6667C14.3333 11.7462 13.5871 11 12.6667 11C11.7462 11 11 11.7462 11 12.6667Z" fill="#B3D4F1"/>
<path fill-rule="evenodd" clip-rule="evenodd" d="M96 42C96 43.6569 94.6569 45 93 45C91.3431 45 90 43.6569 90 42C90 40.3431 91.3431 39 93 39C94.6569 39 96 40.3431 96 42ZM92 42C92 42.5523 92.4477 43 93 43C93.5523 43 94 42.5523 94 42C94 41.4477 93.5523 41 93 41C92.4477 41 92 41.4477 92 42Z" fill="#B3D4F1"/>
<path fill-rule="evenodd" clip-rule="evenodd" d="M96 65C96 67.7614 93.7614 70 91 70C88.2386 70 86 67.7614 86 65C86 62.2386 88.2386 60 91 60C93.7614 60 96 62.2386 96 65ZM88 65C88 66.6569 89.3431 68 91 68C92.6569 68 94 66.6569 94 65C94 63.3431 92.6569 62 91 62C89.3431 62 88 63.3431 88 65Z" fill="#B3D4F1"/>
<path fill-rule="evenodd" clip-rule="evenodd" d="M49.5883 21.3021L79 45.8403V78.5239L78.9858 78.5276C77.9474 76.233 75.5666 74.7792 72.986 74.9761L72.8146 74.9892C69.825 75.2174 67.5157 77.7097 67.5157 80.7079V80.8188C66.1288 81.1406 65.0953 82.384 65.0953 83.8688C65.0953 84.2675 65.1698 84.6489 65.3057 84.9997H58V54.9997H41V84.9997H34.0483C34.1842 84.6489 34.2587 84.2675 34.2587 83.8688C34.2587 82.384 33.2252 81.1406 31.8383 80.8188V80.7079C31.8383 77.7097 29.529 75.2174 26.5394 74.9892L26.368 74.9761C23.7874 74.7792 21.4066 76.233 20.3683 78.5276L19.0518 78.1853L19 78.1721V46.8285L49.5883 21.3021ZM12.1836 82.2184C12.787 79.8981 14.7523 78.2934 17 78.0383V48.4976L14.2916 50.7578C13.8675 51.1117 13.2369 51.0548 12.8831 50.6307C12.5292 50.2067 12.5861 49.5761 13.0101 49.2222L49.5882 18.6973L86.1755 49.2222C86.5996 49.576 86.6565 50.2066 86.3027 50.6306C85.9489 51.0547 85.3183 51.1117 84.8943 50.7579L81 47.5089V78.0495C83.774 77.6886 86.448 79.4407 87.1704 82.2184C87.5486 83.6726 87.33 85.2177 86.5632 86.51L86.2726 86.9997H68.2262C68.0699 86.9997 67.9164 86.9882 67.7663 86.9661V86.9997H58H41H31.1279H31H13.2533H13.0814H10C9.44772 86.9997 9 86.5519 9 85.9997C9 85.4474 9.44772 84.9997 10 84.9997H12.1699C11.944 84.0942 11.9444 83.1381 12.1836 82.2184ZM31.1279 84.9997C31.7524 84.9997 32.2587 84.4933 32.2587 83.8688C32.2587 83.2442 31.7524 82.7379 31.1279 82.7379H29.8383V80.7079C29.8383 78.7552 28.3343 77.132 26.3872 76.9834L26.2158 76.9703C24.2584 76.8209 22.4723 78.087 21.9651 79.9834L21.7085 80.9427L18.5484 80.1209C16.6071 79.616 14.6241 80.7805 14.1192 82.7218C13.9215 83.4819 13.9767 84.2806 14.2681 84.9997H31H31.1279ZM56 56.9997V84.9997H43V56.9997H56ZM75 54.9997H62V67.9997H75V54.9997ZM64 65.9997V56.9997H73V65.9997H64ZM85.2348 82.7218C84.7299 80.7805 82.7469 79.616 80.8056 80.1209L77.6455 80.9427L77.3889 79.9834C76.8817 78.087 75.0956 76.8209 73.1382 76.9703L72.9668 76.9834C71.0197 77.132 69.5157 78.7552 69.5157 80.7079V82.7379H68.2262C67.6016 82.7379 67.0953 83.2442 67.0953 83.8688C67.0953 84.4933 67.6016 84.9997 68.2262 84.9997H85.086C85.3773 84.2806 85.4325 83.4819 85.2348 82.7218ZM24 54.9997H37V67.9997H24V54.9997ZM26 56.9997V65.9997H35V56.9997H26ZM6.47345 84.9997H5C4.44772 84.9997 4 85.4474 4 85.9997C4 86.5519 4.44772 86.9997 5 86.9997H6.47345C7.02573 86.9997 7.47345 86.5519 7.47345 85.9997C7.47345 85.4474 7.02573 84.9997 6.47345 84.9997Z" fill="#006FCF"/>
<path fill-rule="evenodd" clip-rule="evenodd" d="M86 85H89.2533C89.8056 85 90.2533 85.4477 90.2533 86C90.2533 86.5523 89.8056 87 89.2533 87H86C85.4477 87 85 86.5523 85 86C85 85.4477 85.4477 85 86 85ZM93 85H94.4734C95.0257 85 95.4734 85.4477 95.4734 86C95.4734 86.5523 95.0257 87 94.4734 87H93C92.4477 87 92 86.5523 92 86C92 85.4477 92.4477 85 93 85Z" fill="#006FCF"/>
</svg>
