<svg width="150" height="150" viewBox="0 0 150 150" fill="none" xmlns="http://www.w3.org/2000/svg">
<rect width="150" height="150" fill="white"/>
<path fill-rule="evenodd" clip-rule="evenodd" d="M39.7096 75.8429L23.4226 97.0281C23.1839 97.3818 23.0044 97.6481 22.8841 97.827C16.3008 107.614 18.8979 120.885 28.685 127.468C32.3031 129.902 36.5794 131.17 40.9394 131.102L51.7317 130.933C63.0971 130.755 72.1664 121.397 71.9885 110.032C71.9275 106.135 70.7612 102.335 68.6254 99.0753C62.176 89.2309 56.8033 81.4867 52.5074 75.8429L58.8486 65.5752H34.2871L39.7096 75.8429Z" fill="#E4F2D2"/>
<path fill-rule="evenodd" clip-rule="evenodd" d="M78.729 104.239H76.543L80.242 122.212L78.729 104.239Z" fill="#E4F2D2"/>
<path fill-rule="evenodd" clip-rule="evenodd" d="M80.9923 128.625L76.293 102.348L126.78 93.4454L127.431 97.1345L81.3265 103.264L80.9923 128.625Z" fill="#E4F2D2"/>
<path fill-rule="evenodd" clip-rule="evenodd" d="M78.1452 104.025L128.497 97.4675L129.892 103.753L78.1452 104.025Z" fill="#E4F2D2"/>
<path fill-rule="evenodd" clip-rule="evenodd" d="M104.778 86.7602C111.896 86.7602 117.667 80.9896 117.667 73.8713C117.667 73.7174 117.192 74.7099 116.918 74.9921C116.174 75.7602 115.028 76.7526 114.598 76.7724C112.773 76.8561 111.034 75.3047 110.205 73.8713C110.084 73.6631 115.695 67.0131 115.564 66.8124C113.261 63.3013 109.29 60.9824 104.778 60.9824C97.6597 60.9824 91.8892 66.753 91.8892 73.8713C91.8892 80.9896 97.6597 86.7602 104.778 86.7602Z" fill="#E4F2D2"/>
<path d="M39.25 37C42.1495 37 44.5 34.6495 44.5 31.75C44.5 28.8505 42.1495 26.5 39.25 26.5C36.3505 26.5 34 28.8505 34 31.75C34 34.6495 36.3505 37 39.25 37ZM39.25 35C37.4551 35 36 33.5449 36 31.75C36 29.9551 37.4551 28.5 39.25 28.5C41.0449 28.5 42.5 29.9551 42.5 31.75C42.5 33.5449 41.0449 35 39.25 35ZM115.5 44C117.433 44 119 42.433 119 40.5C119 38.567 117.433 37 115.5 37C113.567 37 112 38.567 112 40.5C112 42.433 113.567 44 115.5 44ZM115.5 42C114.672 42 114 41.3284 114 40.5C114 39.6716 114.672 39 115.5 39C116.328 39 117 39.6716 117 40.5C117 41.3284 116.328 42 115.5 42Z" fill="#B2E0C4"/>
<path d="M122.66 21.5C123.212 21.5 123.66 21.9477 123.66 22.5L123.659 23.239L124.4 23.2397C124.913 23.2397 125.335 23.6258 125.393 24.1231L125.4 24.2397C125.4 24.792 124.952 25.2397 124.4 25.2397L123.659 25.239L123.66 25.9794C123.66 26.4923 123.274 26.9149 122.777 26.9727L122.66 26.9794C122.108 26.9794 121.66 26.5317 121.66 25.9794L121.659 25.239L120.92 25.2397C120.408 25.2397 119.985 24.8537 119.927 24.3563L119.92 24.2397C119.92 23.6874 120.368 23.2397 120.92 23.2397L121.659 23.239L121.66 22.5C121.66 21.9872 122.046 21.5645 122.544 21.5067L122.66 21.5ZM27.0749 47.5C27.6272 47.5 28.0749 47.9477 28.0749 48.5L28.074 50.73L30.3058 50.7309C30.8186 50.7309 31.2413 51.1169 31.2991 51.6143L31.3058 51.7309C31.3058 52.2832 30.8581 52.7309 30.3058 52.7309L28.074 52.73L28.0749 54.9618C28.0749 55.4746 27.6889 55.8973 27.1915 55.9551L27.0749 55.9618C26.5226 55.9618 26.0749 55.5141 26.0749 54.9618L26.074 52.73L23.844 52.7309C23.3312 52.7309 22.9085 52.3449 22.8507 51.8475L22.844 51.7309C22.844 51.1786 23.2917 50.7309 23.844 50.7309L26.074 50.73L26.0749 48.5C26.0749 47.9872 26.4609 47.5645 26.9583 47.5067L27.0749 47.5Z" fill="#7FCB9C"/>
<path d="M104.697 26.25L93.9922 44.982L95.5251 44.9912C96.0379 44.9942 96.4583 45.3828 96.5131 45.8805L96.5191 45.9971C96.516 46.51 96.1275 46.9303 95.6298 46.9851L95.5131 46.9911L94.2462 46.983L103.504 59.3389C103.778 59.3233 104.055 59.3153 104.333 59.3153C106.336 59.3153 108.267 59.7294 110.03 60.4931L112.229 57.1525C113.474 55.2604 115.554 54.0923 117.806 54.0052L118.077 54H135.375V56H118.077C116.475 56 114.975 56.7676 114.037 58.0549L113.9 58.2518L111.816 61.4207C113.379 62.3781 114.758 63.635 115.865 65.1348L119.825 61.1491L121.244 62.5586L112.044 71.8202C111.152 72.718 111.157 74.1688 112.055 75.0606L112.126 75.1285L112.264 75.2464C113.252 76.0311 114.66 76.0121 115.625 75.2022L115.767 75.0747L125.414 65.7458L126.11 66.4512C128.401 68.7753 131.54 70.0547 134.793 70.0013L135.142 69.9904L135.508 69.9737L135.6 71.9716L135.233 71.9883C131.751 72.1475 128.353 70.9941 125.698 68.7858L125.406 68.5361L118.591 75.1264C117.846 82.3989 111.7 87.982 104.333 87.982C96.4172 87.982 89.9999 81.5647 89.9999 73.6487C89.9999 66.7955 94.8095 61.0658 101.237 59.6505L91.7352 46.968L71.8472 46.849L59.7085 66.2062L59.6536 66.172L53.7183 75.7852L54.4462 76.7548L55.2053 77.7783L55.9843 78.8405L56.7831 79.9416L58.0186 81.6659L58.867 82.864L60.177 84.7338L61.0752 86.0289L61.9932 87.3628L62.9311 88.7355L64.3752 90.8673L65.8641 93.0866L66.3703 93.8457L67.9189 96.1815L69.4618 98.5275C71.7013 101.946 72.9242 105.93 72.9882 110.016C73.1267 118.864 67.9213 126.551 60.3542 130.001L79.9998 130L79.9992 125.047L75.1682 102.316L124.412 91.8489C123.476 89.9116 122.159 87.7352 120.46 85.3289L120.148 84.8907L117.209 81.0944L118.791 79.87L121.752 83.6957C123.798 86.5499 125.357 89.1224 126.422 91.4224L126.98 91.3026L128.174 96.1756L129.782 95.9498L130.859 103L133 103L133 130H136C136.513 130 136.935 130.386 136.993 130.883L137 131C137 131.513 136.614 131.936 136.117 131.993L136 132H47.4048L40.9549 132.102C40.1176 132.115 39.2832 132.081 38.4555 132.001L15.9999 132C15.4476 132 14.9999 131.552 14.9999 131C14.9999 130.487 15.3859 130.064 15.8833 130.007L15.9999 130L31.1369 130.001C30.0956 129.514 29.0889 128.945 28.1267 128.298C17.987 121.478 15.2195 107.8 21.8442 97.5871L22.0542 97.2691L22.6297 96.4188L37.6786 76.8424L36.4599 76.8431C35.9471 76.8431 35.5244 76.4571 35.4667 75.9598L35.4599 75.8431C35.4599 75.3303 35.846 74.9076 36.3433 74.8499L36.4599 74.8431L38.0496 74.8424L32.628 64.5754L58.3696 64.575L69.8676 46.2373C69.8149 46.1146 69.7861 45.9792 69.787 45.8371C69.7879 45.6744 69.8278 45.5209 69.8976 45.3855L60.9913 26.25H104.697ZM12.2749 130C12.8272 130 13.2749 130.448 13.2749 131C13.2749 131.513 12.8889 131.936 12.3915 131.993L12.2749 132H9.8208C9.26852 132 8.8208 131.552 8.8208 131C8.8208 130.487 9.20684 130.064 9.70418 130.007L9.8208 130H12.2749ZM142.275 130C142.827 130 143.275 130.448 143.275 131C143.275 131.513 142.889 131.936 142.392 131.993L142.275 132H139.821C139.269 132 138.821 131.552 138.821 131C138.821 130.487 139.207 130.064 139.704 130.007L139.821 130H142.275ZM52.0086 76.8424H40.2016L24.2514 97.5876L23.51 98.6941C17.4939 107.991 20.0167 120.433 29.243 126.639C32.0326 128.515 35.2327 129.665 38.5535 130.001L47.4368 130L51.716 129.933C62.5291 129.764 71.1577 120.861 70.9884 110.048C70.9304 106.34 69.8208 102.725 67.7888 99.6236L65.7357 96.5057L64.2456 94.2643L62.7982 92.1059L61.3934 90.0308L60.0313 88.0387L59.1469 86.7569L57.856 84.9035L57.019 83.714L56.2011 82.5616L55.4021 81.4461L54.6222 80.3676L53.8612 79.3261L53.1192 78.3216L52.3962 77.354L52.0086 76.8424ZM131 105H81.9999V130H131V105ZM100.997 125L101.003 127L88.9533 127.037L88.9472 125.037L100.997 125ZM93.7542 121.037V123.037H88.9502V121.037H93.7542ZM93.2107 108.587C95.6144 108.587 96.9027 109.724 96.9027 111.653C96.9027 113.308 95.7512 114.438 93.8153 114.625L96.9171 118.663H94.4846L91.5483 114.654H90.9581V118.663H88.9502V108.587H93.2107ZM93.1747 110.437H90.9581V112.905H93.1747C94.2687 112.905 94.8372 112.502 94.8372 111.653C94.8372 110.818 94.2399 110.437 93.1747 110.437ZM79.9992 104.965L79.5683 105.027L79.9992 108.094V104.965ZM128.103 98.2054L93.9842 103H128.836L128.103 98.2054ZM125.228 93.7207L85.3772 102.19L126.015 96.4801C125.872 95.6377 125.61 94.7174 125.228 93.7207ZM104.333 61.3153C97.5217 61.3153 91.9999 66.8371 91.9999 73.6487C91.9999 80.4602 97.5217 85.982 104.333 85.982C109.854 85.982 114.578 82.3377 116.129 77.2649C114.494 78.1473 112.442 77.9842 110.958 76.7617L110.779 76.6067L110.645 76.4795C109.018 74.8631 108.957 72.2664 110.468 70.5766L110.625 70.4107L114.437 66.5734C112.151 63.3129 108.415 61.3153 104.333 61.3153ZM104.521 68.7444C106.657 68.7444 107.802 69.7551 107.802 71.4695C107.802 72.9409 106.779 73.9452 105.058 74.1115L107.815 77.7003H105.653L103.043 74.1371H102.518V77.7003H100.734V68.7444H104.521ZM57.0555 66.5754H35.946L40.3116 74.8424H42.5236L40.9204 71.0537C40.7205 70.5815 40.9113 70.0418 41.3468 69.7947L41.4516 69.7431C41.9238 69.5432 42.4636 69.734 42.7106 70.1695L42.7622 70.2743L44.6956 74.8424H47.0416L48.9762 70.2743C49.1914 69.7657 49.7782 69.5278 50.2868 69.7431C50.7954 69.9583 51.0333 70.5451 50.818 71.0537L49.2136 74.8424H51.9486L57.0555 66.5754ZM104.489 70.3884H102.518V72.5826H104.489C105.461 72.5826 105.966 72.2244 105.966 71.4695C105.966 70.7275 105.435 70.3884 104.489 70.3884ZM101.251 28.25H64.1281L71.8532 44.849L76.5922 44.877L73.3961 36.2261C73.2184 35.7451 73.434 35.2148 73.8805 34.9882L73.9875 34.9415C74.4686 34.7638 74.9989 34.9794 75.2254 35.4258L75.2722 35.5329L78.7292 44.89L84.0092 44.922L85.9762 40.2743C86.1914 39.7657 86.7782 39.5278 87.2868 39.7431C87.7954 39.9583 88.0333 40.5451 87.818 41.0537L86.1742 44.935L91.6972 44.968L101.251 28.25Z" fill="#009639"/>
</svg>
