<svg width="150" height="150" viewBox="0 0 150 150" fill="none" xmlns="http://www.w3.org/2000/svg">
<rect width="150" height="150" fill="white"/>
<path d="M130.935 75.084L98.096 22.5304L94.5333 24.7566L127.372 77.3102L130.935 75.084Z" fill="#E4F2D2"/>
<path d="M116.162 61H67.2293C64.2817 64.221 61.7857 66.5409 59.7414 67.9598C57.697 69.3786 54.7833 70.8132 51.0002 72.2635L56.3952 132.507H109.879L116.162 61Z" fill="#E4F2D2"/>
<path d="M45.5 17C61.2401 17 74 29.7599 74 45.5C74 46.9584 73.8905 48.3912 73.6791 49.7907L79.7529 43.5417L85.0115 49.3027L88.763 45.5528L102.458 60.5569L102.444 60.568H115.732L93.1562 24.439L98.4152 21.1528L112.906 44.343C115.312 42.8991 118.441 43.6441 119.934 46.0335C121.402 48.3825 120.748 51.456 118.491 53.0123L118.371 53.09L132.314 75.4018L127.055 78.688L116.467 61.744L110.429 130H116.536C117.089 130 117.536 130.448 117.536 131C117.536 131.552 117.089 132 116.536 132H54.219C53.6667 132 53.219 131.552 53.219 131C53.219 130.448 53.6667 130 54.219 130H56.599L51.5454 73.3575C49.5969 73.7784 47.5743 74 45.5 74C29.7599 74 17 61.2401 17 45.5C17 29.7599 29.7599 17 45.5 17ZM49.5 130C50.0523 130 50.5 130.448 50.5 131C50.5 131.552 50.0523 132 49.5 132H46.5C45.9477 132 45.5 131.552 45.5 131C45.5 130.448 45.9477 130 46.5 130H49.5ZM42.5 130C43.0523 130 43.5 130.448 43.5 131C43.5 131.552 43.0523 132 42.5 132H41.5C40.9477 132 40.5 131.552 40.5 131C40.5 130.448 40.9477 130 41.5 130H42.5ZM122.5 130C123.052 130 123.5 130.448 123.5 131C123.5 131.552 123.052 132 122.5 132H121.5C120.948 132 120.5 131.552 120.5 131C120.5 130.448 120.948 130 121.5 130H122.5ZM114.386 62.5687H68.3254C64.6751 67.4424 59.5006 71.1082 53.509 72.8593L58.6067 130H108.422L114.386 62.5687ZM84.0435 81.0001C84.5564 81.0001 84.979 81.3861 85.0368 81.8834L85.0435 82.0001V110C85.0435 110.552 84.5958 111 84.0435 111C83.5307 111 83.108 110.614 83.0503 110.117L83.0435 110V82.0001C83.0435 81.4478 83.4913 81.0001 84.0435 81.0001ZM101.057 81.0004L101.174 81.0038C101.685 81.0482 102.072 81.4695 102.087 81.9699L102.083 82.0867L99.6485 110.087C99.6006 110.637 99.1158 111.044 98.5656 110.996C98.0547 110.952 97.6671 110.531 97.6526 110.03L97.656 109.913L100.091 81.9134C100.132 81.4418 100.494 81.0752 100.943 81.0103L101.057 81.0004ZM67.9963 81.9134L70.4311 109.913C70.4789 110.464 70.0717 110.948 69.5215 110.996C68.9713 111.044 68.4864 110.637 68.4386 110.087L66.0038 82.0867C65.956 81.5365 66.3632 81.0517 66.9134 81.0038C67.4636 80.956 67.9485 81.3632 67.9963 81.9134ZM97.7789 23.9087L95.9121 25.0753L127.691 75.9321L129.558 74.7656L97.7789 23.9087ZM45.5 19C30.8645 19 19 30.8645 19 45.5C19 60.1355 30.8645 72 45.5 72C60.1355 72 72 60.1355 72 45.5C72 30.8645 60.1355 19 45.5 19ZM46 30.8017C46.5523 30.8017 47 31.2494 47 31.8017V54C47 54.5523 46.5523 55 46 55C45.4477 55 45 54.5523 45 54V31.8017C45 31.2494 45.4477 30.8017 46 30.8017ZM79.7071 46.4583L72.8616 53.5009C72.1267 56.0186 71.0536 58.392 69.6951 60.5688L92.585 60.568L79.7071 46.4583ZM88.697 48.4472L86.3615 50.7817L95.294 60.568H99.76L88.697 48.4472ZM114.046 45.9946L113.967 46.04L117.313 51.3947C118.677 50.4854 119.114 48.6833 118.332 47.2535L118.238 47.0933C117.347 45.6667 115.503 45.1975 114.046 45.9946ZM46 58.5345C46.5523 58.5345 47 58.9822 47 59.5345V60.9224C47 61.4747 46.5523 61.9224 46 61.9224C45.4477 61.9224 45 61.4747 45 60.9224V59.5345C45 58.9822 45.4477 58.5345 46 58.5345Z" fill="#009639"/>
</svg>
