<svg width="150" height="150" viewBox="0 0 150 150" fill="none" xmlns="http://www.w3.org/2000/svg">
<rect width="150" height="150" fill="white"/>
<path opacity="0.3" fill-rule="evenodd" clip-rule="evenodd" d="M79.157 48.0023L93.0741 47.875L95.0006 121.526H79.157V48.0023Z" fill="white"/>
<circle cx="99" cy="27" r="15" fill="#E4F2D2"/>
<path d="M79 121.5H95L93 48H79V121.5Z" fill="#E4F2D2"/>
<path fill-rule="evenodd" clip-rule="evenodd" d="M20.8 100.631C20.8 98.5736 22.4741 96.9648 24.531 96.9648H46.9716C49.0286 96.9648 50.7035 98.5594 50.7035 100.616L49.0527 117.76C49.0527 119.819 47.3778 121.465 45.3209 121.465H26.1818C24.125 121.465 22.4508 119.852 22.4508 117.793L20.8 100.631ZM38 106H34V114H38V106Z" fill="#E4F2D2"/>
<path fill-rule="evenodd" clip-rule="evenodd" d="M115 27C115 28.7461 114.72 30.4269 114.203 32H122.282C127.253 32 131.282 36.0294 131.282 41V59.4C131.282 64.3706 127.253 68.4 122.282 68.4H108.705L110.747 114.17C110.753 114.289 110.755 114.408 110.755 114.526C110.755 118.945 107.174 122.526 102.755 122.526H46.6853C46.5639 122.526 46.4425 122.524 46.3212 122.518L46.3284 122.359C46.0038 122.428 45.6667 122.465 45.3209 122.465H26.1819C23.5654 122.465 21.4509 120.398 21.4555 117.889L21.3702 117H18.0001C17.4478 117 17.0001 116.552 17.0001 116C17.0001 115.448 17.4478 115 18.0001 115H21.1784L20.8393 111.465H15.7501C15.1978 111.465 14.7501 111.017 14.7501 110.465C14.7501 109.913 15.1978 109.465 15.7501 109.465H20.6475L19.8001 100.631C19.8001 98.0285 21.9145 95.9651 24.5311 95.9651H26.8787V89.1542C26.8787 84.587 31.0012 80.8 35.7542 80.8C37.3364 80.8 38.8483 81.2193 40.1616 81.9472L40.7789 68.4H28.0001C23.0295 68.4 19.0001 64.3706 19.0001 59.4V41C19.0001 36.0294 23.0295 32 28.0001 32H83.7969C83.2798 30.4269 83.0001 28.7461 83.0001 27C83.0001 18.1634 90.1635 11 99.0001 11C104.953 11 110.147 14.2514 112.903 19.0753C113.02 19.0268 113.149 19 113.284 19H119.294C119.847 19 120.294 19.4477 120.294 20C120.294 20.5523 119.847 21 119.294 21H113.837C114.225 21.9574 114.522 22.9609 114.719 24H117.294C117.847 24 118.294 24.4477 118.294 25C118.294 25.5523 117.847 26 117.294 26H114.969C114.99 26.3307 115 26.6641 115 27ZM40.87 66.4L41.6686 48.875H30.8189V54H28.8189V46.875H121.069V54H119.069V48.875H107.833L108.615 66.4H122.282C126.148 66.4 129.282 63.266 129.282 59.4V41C129.282 37.134 126.148 34 122.282 34H113.392C110.795 39.3285 105.326 43 99.0001 43C92.6739 43 87.2052 39.3285 84.6086 34H28.0001C24.1341 34 21.0001 37.134 21.0001 41V59.4C21.0001 63.266 24.1341 66.4 28.0001 66.4H40.87ZM43.6707 48.875L42.1008 83.3261L42.0369 83.3232C43.6251 84.8356 44.6287 86.8997 44.6287 89.1542V95.9651H46.9717C49.59 95.9651 51.7036 98.0159 51.699 100.713L50.0528 117.76C50.0528 118.796 49.7185 119.751 49.1519 120.526H78.1572V48.875H43.6707ZM23.4509 117.793L22.7564 110.553C22.7589 110.524 22.7602 110.495 22.7602 110.465C22.7602 110.369 22.7467 110.276 22.7214 110.188L21.7955 100.535C21.8001 99.1442 23.0083 97.9651 24.5311 97.9651H46.9717C48.4987 97.9651 49.7036 99.1342 49.7036 100.617L48.0574 117.664C48.0528 119.259 46.834 120.465 45.3209 120.465H26.1819C24.6599 120.465 23.4509 119.283 23.4509 117.793ZM42.6287 95.9651H28.8787V89.1542C28.8787 85.7313 32.0696 82.8 35.7542 82.8C39.44 82.8 42.6287 85.7303 42.6287 89.1542V95.9651ZM85.0001 27C85.0001 34.732 91.2681 41 99.0001 41C106.732 41 113 34.732 113 27C113 19.268 106.732 13 99.0001 13C91.2681 13 85.0001 19.268 85.0001 27ZM80.1572 120.526H93.9602L92.0966 48.875H80.1572V120.526ZM95.9609 120.526H102.755C106.069 120.526 108.755 117.84 108.755 114.526C108.755 114.437 108.753 114.348 108.749 114.259L105.831 48.875H94.0973L95.9609 120.526ZM55.0569 87.8639L56.0303 59.9896L54.0316 59.9198L53.0582 87.7941L55.0569 87.8639ZM64.5939 59.9695L64.2709 78.4706L62.2712 78.4357L62.5942 59.9346L64.5939 59.9695ZM91.9051 28.4291L93.4372 27.1435L95.8092 29.9703L105.631 21.729L106.916 23.2611L95.5626 32.788L91.9051 28.4291ZM38.5912 115.465H32.9138L32.0719 108.536L32.0646 108.415C32.0646 106.404 33.7167 104.804 35.7495 104.804C37.7855 104.804 39.4376 106.389 39.4376 108.4L39.4304 108.52L38.5912 115.465ZM37.4368 108.347C37.4081 107.485 36.68 106.804 35.7495 106.804C34.826 106.804 34.0944 107.494 34.0655 108.362L34.6855 113.465H36.8183L37.4368 108.347ZM9.46582 109.465H11.7602C12.3125 109.465 12.7602 109.913 12.7602 110.465C12.7602 111.017 12.3125 111.465 11.7602 111.465H9.46582C8.91354 111.465 8.46582 111.017 8.46582 110.465C8.46582 109.913 8.91354 109.465 9.46582 109.465ZM125.294 19H123C122.448 19 122 19.4477 122 20C122 20.5523 122.448 21 123 21H125.294C125.847 21 126.294 20.5523 126.294 20C126.294 19.4477 125.847 19 125.294 19Z" fill="#009639"/>
</svg>
