<svg width="150" height="150" viewBox="0 0 150 150" fill="none" xmlns="http://www.w3.org/2000/svg">
<rect width="150" height="150" fill="white"/>
<path fill-rule="evenodd" clip-rule="evenodd" d="M61.6149 67C66.0146 68.6184 70.8908 69.4275 76.2438 69.4275C81.5967 69.4275 86.9497 68.6184 92.3026 67C90.3917 68.1731 88.9759 69.3845 88.0551 70.6344C86.6739 72.5091 85.0173 74.4036 85.0173 76.8887C85.0173 79.3737 86.8476 81.3789 88.0551 82.0553C89.2626 82.7317 96.8764 86.4193 101.96 94.25C105.35 99.4705 107.044 107.554 107.044 118.5H73.8657L63.875 103.922H56.7463L51.1836 94.2604C52.3334 92.6599 53.2253 91.5731 53.8595 91C57.1881 87.9917 60.84 85.3602 64.8155 83.1055C66.7469 82.2403 67.7126 80.625 67.7126 78.2595C67.7126 76.2034 70.4604 73.135 65.6756 70.6344C64.7397 70.1452 63.3861 68.9337 61.6149 67Z" fill="#D8D8D8"/>
<path fill-rule="evenodd" clip-rule="evenodd" d="M73.2397 117H118C120.209 117 122 118.791 122 121C122 123.209 120.209 125 118 125H73.2397C73.6571 123.293 73.8658 121.827 73.8658 120.6C73.8658 119.373 73.6571 118.173 73.2397 117ZM73.2397 125H123.75C125.545 125 127 126.455 127 128.25C127 130.045 125.545 131.5 123.75 131.5H66.3418" fill="#D8D8D8"/>
<path d="M118.75 26.5H33.75C31.9551 26.5 30.5 27.9551 30.5 29.75C30.5 31.5449 31.9551 33 33.75 33H118.75C120.545 33 122 31.5449 122 29.75C122 27.9551 120.545 26.5 118.75 26.5Z" fill="#D8D8D8"/>
<path d="M123.75 20H28.75C26.9551 20 25.5 21.4551 25.5 23.25C25.5 25.0449 26.9551 26.5 28.75 26.5H123.75C125.545 26.5 127 25.0449 127 23.25C127 21.4551 125.545 20 123.75 20Z" fill="#D8D8D8"/>
<path d="M110.874 91.248C119.365 91.248 126.248 84.3648 126.248 75.874C126.248 67.3832 119.365 60.5 110.874 60.5C102.383 60.5 95.5 67.3832 95.5 75.874C95.5 84.3648 102.383 91.248 110.874 91.248Z" fill="#D8D8D8"/>
<path fill-rule="evenodd" clip-rule="evenodd" d="M63.6451 103.922L71.7886 114.515C71.9079 114.691 71.9977 114.825 72.0578 114.914C75.3495 119.808 74.0509 126.443 69.1574 129.735C67.3483 130.952 65.2101 131.586 63.0302 131.551L57.634 131.467C51.9513 131.378 47.4167 126.699 47.5056 121.016C47.5361 119.068 48.1193 117.168 49.1872 115.538C52.4119 110.616 55.0982 106.744 57.2462 103.922L54.0756 98.7881H66.3563L63.6451 103.922Z" fill="#D8D8D8"/>
<path fill-rule="evenodd" clip-rule="evenodd" d="M44.1355 118.12H45.2285L43.3795 127.106L44.1355 118.12Z" fill="#D8D8D8"/>
<path fill-rule="evenodd" clip-rule="evenodd" d="M43.0037 130.312L45.4695 118.119L22.7011 110.117L19.7851 114.567L42.6477 119L43.0037 130.312Z" fill="#D8D8D8"/>
<path fill-rule="evenodd" clip-rule="evenodd" d="M44.4274 118.013L19.2512 114.735L18.5529 117.877L44.4274 118.013Z" fill="#D8D8D8"/>
<path fill-rule="evenodd" clip-rule="evenodd" d="M31.6661 109.38C27.8001 109.38 24.666 106.246 24.666 102.38C24.666 102.296 24.9242 102.835 25.0727 102.989C25.4767 103.406 27.7656 104.641 27.9995 104.651C28.9904 104.697 29.9349 103.854 30.3853 103.076C30.4508 102.963 25.7369 98.6552 25.8083 98.5462C27.0589 96.6393 29.2154 95.3799 31.6661 95.3799C35.532 95.3799 38.666 98.5139 38.666 102.38C38.666 106.246 35.532 109.38 31.6661 109.38Z" fill="#D8D8D8"/>
<path d="M13.5 37.5C16.4094 37.5 18.7911 39.7589 18.987 42.6186C19.9011 43.2498 20.5 44.3049 20.5 45.5H18.5C18.5 44.6716 17.8284 44 17 44V43C17 41.067 15.433 39.5 13.5 39.5C11.9426 39.5 10.6228 40.5172 10.1687 41.9234C11.2601 42.5164 12 43.6718 12 45H10C10 44.1716 9.32843 43.5 8.5 43.5C7.67157 43.5 7 44.1716 7 45H5C5 43.1672 6.40871 41.6635 8.20243 41.5125C8.85153 39.1982 10.9774 37.5 13.5 37.5Z" fill="#D8D8D8"/>
<path d="M135.5 48C137.644 48 139.502 49.2273 140.409 51.0178C142.861 51.2148 144.813 53.1829 144.987 55.6421C146.439 56.0671 147.5 57.4097 147.5 59H145.5C145.5 58.1716 144.828 57.5 144 57.5C143.172 57.5 142.5 58.1716 142.5 59H140.5C140.5 57.4221 141.544 56.0881 142.979 55.6512C142.846 54.4953 142.055 53.5389 140.989 53.1668L140.996 53.2788L141 53.5H139C139 51.567 137.433 50 135.5 50C133.935 50 132.61 51.0268 132.162 52.4433C134.126 53.2824 135.5 55.2307 135.5 57.5H133.5C133.5 55.567 131.933 54 130 54C128.443 54 127.123 55.0172 126.669 56.4234C127.76 57.0164 128.5 58.1718 128.5 59.5H126.5C126.5 58.6716 125.828 58 125 58C124.172 58 123.5 58.6716 123.5 59.5H121.5C121.5 57.6672 122.909 56.1635 124.702 56.0125C125.352 53.6982 127.477 52 130 52C130.069 52 130.137 52.0013 130.205 52.0038C130.857 49.6939 132.981 48 135.5 48Z" fill="#979797"/>
<path d="M13 132C12.4477 132 12 131.552 12 131C12 130.487 12.386 130.064 12.8834 130.007L13 130L17 130V117L17.681 117L18.413 112.849L19.656 113.068L21.2083 108.805L22.768 109.372L24.3165 107.046C23.5253 105.798 23.0502 104.331 23.0038 102.755L23.0025 102.687L21.6024 101.424L21.3545 101.642C20.7664 102.134 20.1107 102.511 19.3906 102.768C18.3964 103.124 17.166 103.322 15.6934 103.37L15.2858 103.38L15.2575 101.38C16.7088 101.359 17.8644 101.19 18.7164 100.885C19.421 100.633 20.0361 100.217 20.571 99.6252L20.7678 99.3952L21.4318 98.5758L27.4051 103.966C27.8098 104.332 28.4339 104.3 28.7992 103.895C29.1549 103.501 29.1659 102.913 28.8431 102.508L28.7555 102.411L24.0214 97.7524L25.4242 96.3268L25.5389 96.4397C25.987 95.9987 26.4813 95.6099 27.0122 95.2797L25.7488 93.435C25.5857 93.1968 25.3289 93.0424 25.0463 93.0075L24.9237 93H15.2716V91H24.9237C25.8476 91 26.7159 91.4253 27.2823 92.146L27.3989 92.3049L28.8493 94.4222C29.6901 94.1466 30.5825 94 31.5 94C31.9841 94 32.4588 94.0405 32.9208 94.1182L35.6602 90H33.0936C32.5807 90 32.1581 89.614 32.1003 89.1166L32.0936 89C32.0936 88.4872 32.4796 88.0645 32.977 88.0067L33.0936 88H35.9982L31.2861 78H36.9992V34H33.75C31.4028 34 29.5 32.0972 29.5 29.75C29.5 28.9241 29.7356 28.1532 30.1433 27.5008L28.75 27.5C26.4028 27.5 24.5 25.5972 24.5 23.25C24.5 20.9028 26.4028 19 28.75 19H123.75C126.097 19 128 20.9028 128 23.25C128 25.5972 126.097 27.5 123.75 27.5L122.357 27.5008C122.764 28.1532 123 28.9241 123 29.75C123 32.0972 121.097 34 118.75 34H115.999L116.001 60.3186C122.533 62.4701 127.248 68.6214 127.248 75.874C127.248 83.1266 122.533 89.2778 116.001 91.4294L115.999 116H118.5C120.985 116 123 118.015 123 120.5C123 121.425 122.721 122.285 122.242 123.001L123.5 123C125.985 123 128 125.015 128 127.5C128 128.426 127.72 129.286 127.241 130.001L130.5 130C131.052 130 131.5 130.448 131.5 131C131.5 131.513 131.114 131.936 130.617 131.993L130.5 132H13ZM136.553 130C137.105 130 137.553 130.448 137.553 131C137.553 131.513 137.167 131.936 136.67 131.993L136.553 132H135C134.448 132 134 131.552 134 131C134 130.487 134.386 130.064 134.883 130.007L135 130H136.553ZM9.55317 130C10.1055 130 10.5532 130.448 10.5532 131C10.5532 131.513 10.1671 131.936 9.66979 131.993L9.55317 132H8C7.44772 132 7 131.552 7 131C7 130.487 7.38604 130.064 7.88338 130.007L8 130H9.55317ZM123.5 125L73.4271 125.001C72.3688 127.047 70.7802 128.774 68.8433 130.001L123.5 130C124.825 130 125.91 128.968 125.995 127.664L126 127.5C126 126.175 124.968 125.09 123.664 125.005L123.5 125ZM47.4722 90H38.0622L34.9231 94.7174C37.9128 96.0343 40 99.0234 40 102.5C40 107.194 36.1944 111 31.5 111C29.2302 111 27.1682 110.11 25.6437 108.661L24.702 110.076L43.724 117L44 117V117.1L46.58 118.039L44 125.125L43.999 130L52.1312 130.001C47.934 127.154 45.964 121.763 47.6586 116.721C47.7525 116.441 47.8907 116.117 48.0778 115.74L48.1959 115.507L48.4684 115.001L48.7523 114.503L55.7478 103.946C55.7551 103.808 55.7904 103.678 55.848 103.56L47.4722 90ZM41.793 119L41.7936 119.002L41.782 119L19 119V130H42V125.259L41.8445 125.203L42 124.773V119L41.793 119ZM63.3702 105H57.4502L50.4506 115.557L50.1919 116.014L49.9727 116.423C49.9395 116.487 49.9079 116.55 49.878 116.61L49.7185 116.947C49.672 117.051 49.6321 117.146 49.599 117.233L49.5544 117.358C47.8676 122.377 50.5693 127.814 55.5888 129.501C56.45 129.79 57.3475 129.955 58.254 129.992L58.643 130H61.9332C67.8433 130 72.658 125.31 72.8591 119.449L72.8653 119.16L72.7828 118.777C72.4844 117.506 71.9497 116.301 71.2065 115.227L70.9773 114.909L68.1992 111.199L63.3702 105ZM28 126V128H21.5V126H28ZM23.372 120.8C24.44 120.8 25.001 121.352 25.001 122.198C25.001 122.8 24.6777 123.244 24.0622 123.422L23.915 123.458L25.058 125H23.714L22.703 123.509H22.64V125H21.5V120.8H23.372ZM74.6503 118C74.7015 118.194 74.748 118.39 74.7897 118.588L74.8487 118.884L74.8656 119.068C74.8656 120.439 74.6522 121.761 74.2566 123.001L118.5 123C119.881 123 121 121.881 121 120.5C121 119.175 119.968 118.09 118.664 118.005L118.5 118L74.6503 118ZM23.36 121.823H22.64V122.57H23.36C23.642 122.57 23.849 122.453 23.849 122.198C23.849 121.943 23.642 121.823 23.36 121.823ZM20.0354 115.166L19.711 117H30.441L20.0354 115.166ZM105.999 34H47.0492L47.05 40.6069C47.05 51.475 53.0445 61.443 62.6126 66.5454L63.2754 66.8944C68.2896 69.6472 70.2289 75.9102 67.5985 81.03C66.7162 82.7474 65.3816 84.1912 63.7388 85.2057C58.5902 88.385 54.8984 91.4186 52.6654 94.2837L52.5552 94.427L54.1452 96.999L67.8958 97L65.1632 103H66.875C67.3878 103 67.8105 103.386 67.8683 103.883L67.875 104C67.875 104.513 67.489 104.936 66.9916 104.993L66.875 105H65.9052L69.7885 109.985L72.5781 113.71C73.1135 114.425 73.5685 115.193 73.9369 116H105.999L106.001 108.654C105.168 98.8766 99.4088 90.1163 90.6186 85.5073C88.7315 84.5178 87.1907 82.977 86.2012 81.09C83.5576 76.0481 85.4241 69.8379 90.3605 67.0741L90.6186 66.9343C99.4089 62.3252 105.168 53.5646 106.001 43.7867L105.999 34ZM114 91.9498C112.988 92.1455 111.943 92.248 110.874 92.248C109.894 92.248 108.933 92.1618 108.001 91.9967L108.001 108.575C108.07 109.415 108.105 110.262 108.105 111.113L108.105 116H114L114 91.9498ZM22.4036 111.368L21.656 113.421L34.044 115.605L22.4036 111.368ZM31.5 96C29.7696 96 28.1568 96.6809 26.9646 97.8428L30.1582 100.985C31.3316 102.14 31.3869 104.014 30.2835 105.236C29.2206 106.413 27.4338 106.547 26.2094 105.573L26.0652 105.451L25.4596 104.905C26.4158 107.305 28.7599 109 31.5 109C35.0899 109 38 106.09 38 102.5C38 98.9101 35.0899 96 31.5 96ZM64.7875 99L55.3802 98.999L57.8512 103H62.9652L64.7875 99ZM94.5301 92.7684C96.9805 95.0221 98.967 97.6121 100.486 100.534C100.741 101.024 100.55 101.628 100.06 101.883C99.5703 102.138 98.9665 101.947 98.7118 101.457C97.3 98.7414 95.456 96.3373 93.1762 94.2405C92.7697 93.8666 92.7433 93.234 93.1171 92.8275C93.491 92.421 94.1236 92.3946 94.5301 92.7684ZM106.001 52.5398C103.39 59.2442 98.4749 64.9454 91.9525 68.4893L91.5473 68.7056C87.3968 70.8818 85.7963 76.0107 87.9725 80.1612C88.7732 81.6883 90.0202 82.9353 91.5473 83.736C98.2718 87.2619 103.337 93.06 106.001 99.9031L106.001 91.5105C99.3375 89.4361 94.5 83.22 94.5 75.874C94.5 68.528 99.3375 62.3119 106.001 60.2374L106.001 52.5398ZM46.999 51.4988L46.9992 78H54.1918L49.1382 88.8911L51.4379 92.6172C53.8581 89.6725 57.6075 86.6413 62.688 83.504C64.0209 82.6809 65.1037 81.5095 65.8196 80.1161C67.9503 75.9687 66.3853 70.8968 62.3315 68.6578L61.6935 68.3219C54.7925 64.6488 49.6293 58.607 46.999 51.4988ZM110.874 61.5C102.935 61.5 96.5 67.9355 96.5 75.874C96.5 77.8559 96.9011 79.7442 97.6266 81.462L103.818 75.3056L108.322 79.7828L115.144 73H110.622V71H118.622V79H116.622L116.621 74.352L108.322 82.6029L103.818 78.1256L98.5822 83.3294C101.103 87.4773 105.665 90.248 110.874 90.248C118.813 90.248 125.248 83.8125 125.248 75.874C125.248 67.9355 118.813 61.5 110.874 61.5ZM51.059 80H34.4395L38.2092 88H47.3462L51.059 80ZM44.9992 34H38.9992V78H44.9992V34ZM67.2281 63.5617L67.3351 63.6086L69.3023 64.6086C69.7946 64.8588 69.9908 65.4608 69.7405 65.9532C69.5081 66.4103 68.9725 66.6122 68.503 66.4383L68.3959 66.3914L66.4288 65.3914C65.9365 65.1412 65.7402 64.5392 65.9905 64.0468C66.2229 63.5897 66.7586 63.3878 67.2281 63.5617ZM54.1819 51.5225C56.5375 55.8569 60.2089 59.388 65.2191 62.1222C65.7039 62.3868 65.8825 62.9942 65.6179 63.479C65.3533 63.9638 64.7459 64.1424 64.2611 63.8778C58.9244 60.9655 54.9713 57.1633 52.4247 52.4775C52.161 51.9923 52.3406 51.3851 52.8258 51.1214C53.3111 50.8577 53.9182 51.0372 54.1819 51.5225ZM114 34H108.105L108.105 41.3281C108.105 42.1811 108.07 43.0288 108.001 43.8696L108.001 59.7513C108.933 59.5862 109.894 59.5 110.874 59.5C111.943 59.5 112.988 59.6025 114 59.7982L114 34ZM118.75 27.5H33.75C32.5074 27.5 31.5 28.5074 31.5 29.75C31.5 30.9926 32.5074 32 33.75 32H118.75C119.993 32 121 30.9926 121 29.75C121 28.5074 119.993 27.5 118.75 27.5ZM123.75 21H28.75C27.5074 21 26.5 22.0074 26.5 23.25C26.5 24.4926 27.5074 25.5 28.75 25.5H123.75C124.993 25.5 126 24.4926 126 23.25C126 22.0074 124.993 21 123.75 21Z" fill="#979797"/>
<path d="M134 36C135.657 36 137 34.6569 137 33C137 31.3431 135.657 30 134 30C132.343 30 131 31.3431 131 33C131 34.6569 132.343 36 134 36Z" stroke="#D8D8D8" stroke-width="2"/>
<path d="M111 15C112.105 15 113 14.1046 113 13C113 11.8954 112.105 11 111 11C109.895 11 109 11.8954 109 13C109 14.1046 109.895 15 111 15Z" stroke="#D8D8D8" stroke-width="2"/>
<path d="M137 91C137.552 91 138 91.4477 138 92V95H141C141.513 95 141.936 95.386 141.993 95.8834L142 96C142 96.5523 141.552 97 141 97H138V100C138 100.513 137.614 100.936 137.117 100.993L137 101C136.448 101 136 100.552 136 100V97H133C132.487 97 132.064 96.614 132.007 96.1166L132 96C132 95.4477 132.448 95 133 95H136V92C136 91.4872 136.386 91.0645 136.883 91.0067L137 91Z" fill="#D8D8D8"/>
</svg>
