<svg width="100" height="100" viewBox="0 0 100 100" fill="none" xmlns="http://www.w3.org/2000/svg">
<rect width="100" height="100" fill="white"/>
<path fill-rule="evenodd" clip-rule="evenodd" d="M35.0918 76.7299C36.1437 82.3718 41.0931 86.6428 47.0401 86.6428C53.059 86.6428 58.0561 82.2678 59.0249 76.5244L35.0918 76.7299Z" fill="#339C63"/>
<path d="M66.0317 49.8644C55.9624 49.8644 47.7997 41.7016 47.7997 31.6324C47.7997 21.5631 55.9624 13.4004 66.0317 13.4004C76.1009 13.4004 84.2637 21.5631 84.2637 31.6324C84.2637 41.7016 76.1009 49.8644 66.0317 49.8644Z" fill="#339C63"/>
<path d="M46.8012 18.9112V20.9112C35.3819 20.9112 26.1247 30.1684 26.1247 41.5878C26.1247 41.6648 26.1251 41.742 26.126 41.8191C26.205 48.8841 25.8282 53.6367 24.9612 56.1639C23.281 61.0614 21.4627 63.6247 17.3664 67.7625L16.9877 68.1431L16.6633 68.4676C16.3756 68.7556 16.1602 68.9725 15.9503 69.1859C14.4826 70.6779 14.5023 73.0772 15.9944 74.5449C16.6486 75.1885 17.5122 75.571 18.4232 75.626L18.6518 75.6329H74.0096C76.1124 75.6329 77.8171 73.9282 77.8171 71.8253C77.8171 70.8381 77.4337 69.8895 76.7477 69.1795C76.4027 68.8225 75.954 68.3755 75.4829 67.9134L75.1664 67.604C73.9473 66.4154 72.7002 65.2372 72.7833 65.32L72.5331 65.0663C72.3713 64.8992 72.2184 64.7352 72.0686 64.5676C71.3394 63.7515 70.6459 62.8047 69.7304 61.3636C68.0528 58.7227 67.1619 56.0652 67.0744 53.4021L67.0673 53.0027L69.0673 52.9973C69.0737 55.3967 69.8511 57.8237 71.4186 60.2911C72.2799 61.647 72.9113 62.509 73.56 63.235C73.7577 63.4563 73.9632 63.6722 74.1957 63.904C74.1998 63.9027 75.2881 64.9318 76.4138 66.0268L76.7355 66.3407C76.9495 66.55 77.1612 66.7584 77.3635 66.9592L77.659 67.254C77.85 67.4456 78.0281 67.6264 78.1859 67.7897C79.2322 68.8726 79.8171 70.3195 79.8171 71.8253C79.8171 74.9582 77.3365 77.5116 74.2323 77.6287L74.0096 77.6329L59.816 77.633C58.3939 83.4382 53.1578 87.6425 47.0398 87.6425C40.928 87.6425 35.6877 83.4451 34.2636 77.6329L18.6519 77.6329C17.1329 77.6329 15.6747 77.0359 14.5918 75.9707C12.3124 73.7284 12.2822 70.0628 14.5245 67.7834C14.7386 67.5657 14.9573 67.3455 15.2483 67.0542L15.5734 66.729C19.7418 62.5601 21.4574 60.2137 23.0694 55.5149C23.839 53.2717 24.2027 48.6849 24.1261 41.8415C24.1251 41.7568 24.1247 41.6723 24.1247 41.5878C24.1247 29.0639 34.2773 18.9112 46.8012 18.9112ZM57.7455 77.6329L36.334 77.6328C37.7031 82.3104 42.0261 85.6425 47.0398 85.6425C52.0584 85.6425 56.378 82.3053 57.7455 77.6329ZM66.0591 12C76.878 12 85.6485 20.7705 85.6485 31.5894C85.6485 42.4083 76.878 51.1787 66.0591 51.1787C55.2402 51.1787 46.4697 42.4083 46.4697 31.5894C46.4697 20.7705 55.2402 12 66.0591 12ZM66.0591 14C56.3447 14 48.4697 21.875 48.4697 31.5894C48.4697 41.3037 56.3447 49.1787 66.0591 49.1787C75.7734 49.1787 83.6485 41.3037 83.6485 31.5894C83.6485 21.875 75.7734 14 66.0591 14ZM73.8563 25.2399L75.1418 26.772L61.6449 38.0973L56.8659 32.4019L58.398 31.1163L61.8914 35.2796L73.8563 25.2399Z" fill="white"/>
</svg>
