<svg width="150" height="150" viewBox="0 0 150 150" fill="none" xmlns="http://www.w3.org/2000/svg">
<rect width="150" height="150" fill="white"/>
<path d="M94 81C105.046 81 114 72.0457 114 61C114 49.9543 105.046 41 94 41C82.9543 41 74 49.9543 74 61C74 72.0457 82.9543 81 94 81Z" fill="#E4F2D2"/>
<path fill-rule="evenodd" clip-rule="evenodd" d="M45.182 64.1885H38.938V103.563H100.813V96.7045H45.182V64.1885Z" fill="#E4F2D2"/>
<path d="M88.912 53.6V69H91.398V62.521H92.652L97.558 69H100.638L95.567 62.521C98.702 62.411 100.704 60.673 100.704 58.055C100.704 55.184 98.79 53.6 95.248 53.6H88.912ZM95.182 55.932C97.129 55.932 98.119 56.592 98.119 58.055C98.119 59.54 97.184 60.266 95.182 60.266H91.398V55.932H95.182Z" fill="#009639"/>
<path d="M62 8L73.3137 19.3137L62 30.6274L60.5858 29.2132L69.6264 20.1712C41.2116 22.4043 19 46.1836 19 75C19 105.376 43.6243 130 74 130C76.2544 130 78.4916 129.864 80.7036 129.596L81.65 129.472L81.9256 131.453C79.3148 131.817 76.6687 132 74 132C42.5198 132 17 106.48 17 75C17 45.1725 39.9619 20.553 69.3592 18.1862L60.5858 9.41421L62 8ZM95.1393 125.791L95.9085 127.637C94.3432 128.29 92.7484 128.872 91.128 129.381L90.1528 129.679L89.587 127.76C91.4742 127.204 93.3273 126.546 95.1393 125.791ZM105.468 120.114L106.613 121.754C105.222 122.726 103.788 123.636 102.316 124.48L101.428 124.979L100.464 123.227C102.186 122.279 103.857 121.24 105.468 120.114ZM114.356 112.369L115.823 113.728C114.669 114.973 113.461 116.167 112.202 117.305L111.44 117.981L110.126 116.473C111.608 115.181 113.02 113.811 114.356 112.369ZM121.382 102.945L123.103 103.963C122.24 105.424 121.311 106.846 120.321 108.225L119.719 109.046L118.116 107.851C119.291 106.275 120.382 104.637 121.382 102.945ZM70.262 56.1875V58.1875H45.9375V95.5625H105.812V81.375H107.812V97.5625L101.812 97.5615V104.562H37.9375V63.1875H43.9375V56.1875H70.262ZM43.9375 65.1875H39.9375V102.562H99.8125V97.5615L43.9375 97.5625V65.1875ZM126.262 92.1859L128.162 92.8103C127.631 94.4249 127.029 96.013 126.356 97.5706L125.945 98.5014L124.123 97.6759C124.934 95.8872 125.648 94.0549 126.262 92.1859ZM82 87V89H56V87H82ZM69 81V83H56V81H69ZM94 40C99.7219 40 104.909 42.2884 108.697 46L114 46C114.552 46 115 46.4477 115 47C115 47.5128 114.614 47.9355 114.117 47.9933L114 48L110.494 48.0006C111.236 48.9402 111.898 49.9447 112.473 51.0041L112.561 51H118C118.552 51 119 51.4477 119 52C119 52.5128 118.614 52.9355 118.117 52.9933L118 53L113.423 53.0007C114.439 55.4662 115 58.1676 115 61C115 72.598 105.598 82 94 82C82.402 82 73 72.598 73 61C73 49.402 82.402 40 94 40ZM94 42C83.5066 42 75 50.5066 75 61C75 71.4934 83.5066 80 94 80C104.493 80 113 71.4934 113 61C113 50.5066 104.493 42 94 42ZM120.05 46C120.602 46 121.05 46.4477 121.05 47C121.05 47.5128 120.664 47.9355 120.166 47.9933L120.05 48H118.561C118.008 48 117.561 47.5523 117.561 47C117.561 46.4872 117.947 46.0645 118.444 46.0067L118.561 46H120.05Z" fill="#009639"/>
</svg>
