<svg width="100" height="100" viewBox="0 0 100 100" fill="none" xmlns="http://www.w3.org/2000/svg">
<rect width="100" height="100" fill="white"/>
<path fill-rule="evenodd" clip-rule="evenodd" d="M53.6279 54.4893V59.4893H60.6279V54.4893H53.6279Z" fill="#339C63"/>
<path fill-rule="evenodd" clip-rule="evenodd" d="M65.8398 55.4893V58.4893H73.8398V55.4893H65.8398Z" fill="#339C63"/>
<path fill-rule="evenodd" clip-rule="evenodd" d="M79.04 55.4893V58.4893H87.04V55.4893H79.04Z" fill="#339C63"/>
<path fill-rule="evenodd" clip-rule="evenodd" d="M53.6279 75.0576V77.8888H60.6279V75.0576H53.6279Z" fill="#339C63"/>
<path fill-rule="evenodd" clip-rule="evenodd" d="M65.8398 74.8887V77.8887H73.8398V74.8887H65.8398Z" fill="#339C63"/>
<path fill-rule="evenodd" clip-rule="evenodd" d="M78.8271 75.0576V79.0576H86.8271V75.0576H78.8271Z" fill="#339C63"/>
<path fill-rule="evenodd" clip-rule="evenodd" d="M48.1416 86.1328V82.5H50.2442V78.5H89.8015V82.3164H91.9842V86.1328H48.1416Z" fill="#339C63"/>
<path fill-rule="evenodd" clip-rule="evenodd" d="M48.1416 53.5002L69.8405 42.7578L91.9842 53.5002V54.4892H48.1416V53.5002Z" fill="#339C63"/>
<rect x="55" y="59" width="4" height="15" fill="#339C63"/>
<rect x="68" y="59" width="4" height="15" fill="#339C63"/>
<rect x="81" y="59" width="4" height="15" fill="#339C63"/>
<circle cx="27.7394" cy="25.7394" r="14.7394" fill="#339C63"/>
<path fill-rule="evenodd" clip-rule="evenodd" d="M27.7394 10C36.432 10 43.4788 17.0468 43.4788 25.7394C43.4788 34.432 36.432 41.4788 27.7394 41.4788C19.0468 41.4788 12 34.432 12 25.7394C12 17.0468 19.0468 10 27.7394 10ZM50.3501 12.2399C50.3501 12.2399 50.3501 12.2399 50.3501 12.2399L50.1235 12.2405C47.3369 12.257 44.6221 12.5761 42.0118 13.1675C42.5178 13.7197 42.9916 14.3019 43.43 14.911L43.447 14.9077L44.4267 16.2696C46.0167 15.1242 47.6686 14.4717 49.3499 14.3296L49.3493 34.0709L43.479 34.071L42.4788 36.071L49.3493 36.0709L49.3501 49.4479L51.3501 48.5542L51.3493 36.0709L66.5032 36.0712C66.783 37.4235 67.0238 38.8217 67.2222 40.2606C67.2336 40.3432 67.3134 40.9372 67.3245 41.0201L69.2382 40.2433L69.1185 39.3909C68.9525 38.2603 68.7608 37.1529 68.5446 36.0714L83.2271 36.0711C84.0981 38.1443 84.7806 40.3219 85.2517 42.5845C85.4706 43.6359 85.7942 45.9091 85.9142 47.1838L88.0402 48.0545L88.035 48.0064C88.0204 47.8788 87.9806 47.5546 87.9438 47.2543C87.9089 46.9696 87.8766 46.7063 87.8709 46.6527C87.7256 45.2817 87.4261 43.2158 87.2097 42.1767C83.6019 24.8519 68.2683 12.2399 50.3501 12.2399ZM50.3501 12.2399L50.5843 12.2409H50.5443L50.3501 12.2399ZM14.2612 39.1239C14.7793 39.6664 15.3289 40.1778 15.9073 40.6556L15.875 40.7762C15.1079 43.6855 14.6993 46.7403 14.6993 49.8906L14.7023 50.3639L30.9199 50.3648L30.9188 50.1279L30.9184 49.8906C30.9184 48.6865 30.9676 46.8629 31.004 46.3017C31.0355 45.8172 31.1277 44.8102 31.1947 44.078C31.2343 43.645 31.2652 43.3081 31.2695 43.2323L33.2591 42.7576C33.2545 42.8401 33.2287 43.1965 33.1938 43.6783C33.1352 44.4887 33.0509 45.6536 32.9985 46.4658C32.9257 47.5931 32.9184 48.7415 32.9184 49.8906L32.9203 50.3639L47.1634 50.3642L45.1564 51.4312V52.3642L32.9605 52.3648C33.1349 57.484 33.846 62.3302 34.9811 66.6574L52 66.6578V68.6578L35.5471 68.6579C37.7073 75.7556 41.0511 81.2283 45.0177 83.8518L45.0171 87.1669C26.6778 84.5698 12.6993 68.7979 12.6993 49.8906C12.6993 46.1492 13.245 42.5352 14.2612 39.1239ZM70.0112 41.3917L93 52.3824V55.5L88.04 55.4997L88.0402 59.5H86V73.4997L88.0402 73.5L88.0393 77.4999L91 77.5L90.9993 81.4999L93 81.5V87.5L50.2433 87.4999L50.2438 87.5421C49.9353 87.5421 49.6278 87.5283 49.3215 87.5009L47 87.5V81.5L48.9993 81.4999L49 77.5L51.9993 77.4999L52 73.5L53.9993 73.4999L54 59.5H52V55.4997L47 55.5V52.3822L70.0112 41.3917ZM49 83.5H91V85.5L49.4219 85.5015C49.281 85.4876 49.1404 85.47 48.9999 85.4489L49 83.5ZM33.458 68.6574L20.0356 68.6579C25.0529 76.7486 33.2217 82.6978 42.8653 84.7554L42.6016 84.5404C38.6951 81.3071 35.5101 75.674 33.458 68.6574ZM51 79.5H89L88.9993 81.4999H50.9993L51 79.5ZM86.0402 75.5H80.0402L80.0393 77.4999H86.0393L86.0402 75.5ZM75 55.4997H78.04L78.0402 59.5H80V73.4997L78.0402 73.5L78.0393 77.4999H74.9993L75 73.5L72.999 73.4997L73 59.5H75V55.4997ZM73 75.5H67L66.9993 77.4999H72.9993L73 75.5ZM62 55.4997H65V59.5H67V73.4997L65 73.5L64.9993 77.4999H61.9993L62 73.5L59.9993 73.4999L60 59.5H62V55.4997ZM60 75.5H54L53.9993 77.4999H59.9993L60 75.5ZM82 59.5H84V73.4997H82V59.5ZM58 59.5H56L55.9993 73.4999H57.9993L58 59.5ZM69 59.5H71L70.999 73.4997H69V59.5ZM30.9591 52.3648L14.784 52.3649C15.1367 57.4975 16.5783 62.3404 18.8832 66.6579L32.9134 66.6575C31.8082 62.2859 31.1269 57.4479 30.9591 52.3648ZM54 55.4997H60V57.5H54V55.4997ZM73 55.4997H67V57.5H73V55.4997ZM80.04 55.4997H86.04L86.0402 57.5H80.0402L80.04 55.4997ZM70.0108 43.6083L49.3001 53.5H90.7008L70.0108 43.6083ZM14 25.7394C14 18.1513 20.1513 12 27.7394 12C35.3275 12 41.4788 18.1513 41.4788 25.7394C41.4788 33.3275 35.3275 39.4788 27.7394 39.4788C20.1513 39.4788 14 33.3275 14 25.7394ZM28.7394 16.1576L28.74 18.382C30.5651 18.4612 32.0383 19.0138 33.3407 19.8821L32.1907 21.7121C31.0007 20.9521 29.6807 20.5121 28.2607 20.5121C26.3907 20.5121 25.1107 21.3221 25.1107 22.6021C25.1107 23.7621 26.2007 24.2121 28.0207 24.4721L28.9907 24.6021C31.2607 24.9121 33.5007 25.8521 33.5007 28.4521C33.5007 31.0317 31.3872 32.5544 28.7394 32.8202L28.7394 35.1576H26.7394L26.7397 32.7897C25.1294 32.5915 23.4267 31.9873 22.2607 30.9821L23.4907 29.1821C24.4507 30.0621 26.2607 30.7221 27.8807 30.7221C29.7107 30.7221 31.1507 29.9421 31.1507 28.6521C31.1507 27.5521 30.0507 27.0421 28.0007 26.7621L26.9107 26.6121C24.8307 26.3221 22.7607 25.3421 22.7607 22.7421C22.7607 20.4276 24.4501 18.9611 26.7391 18.5159L26.7394 16.1576H28.7394ZM58.1381 15.2034L57.9574 15.0567C68.5804 17.3719 77.5418 24.4386 82.3128 34.0712L68.1105 34.0716C66.1096 25.5497 62.551 18.8289 58.1381 15.2034ZM51.3496 14.2794L51.3493 34.0709L66.0531 34.0711C63.2632 22.6247 57.6022 14.8936 51.3496 14.2794Z" fill="white"/>
</svg>
