<svg width="150" height="150" viewBox="0 0 150 150" fill="none" xmlns="http://www.w3.org/2000/svg">
<rect width="150" height="150" fill="white"/>
<circle cx="116.618" cy="30.213" r="16.213" fill="#B3D4F1"/>
<rect x="47" y="95" width="17" height="17" fill="#B3D4F1"/>
<path fill-rule="evenodd" clip-rule="evenodd" d="M118.244 45.266L120 44.9602V131H33.9997V121.498L33.9401 121.508L17.7568 29.7285L33.9997 26.8645V19H103.153C106.309 15.3266 110.989 13 116.213 13C119.759 13 123.147 14.0757 126.001 16.052C130.164 18.9344 132.859 23.4871 133.346 28.5501L134.451 27.3659L135.913 28.7304L132.161 32.7515L128.697 28.6399L130.226 27.3511L131.35 28.6846C130.904 24.2327 128.527 20.2341 124.862 17.6963C122.34 15.9498 119.349 15 116.213 15C107.811 15 101 21.8111 101 30.213C101 38.615 107.811 45.4261 116.213 45.4261V45.4289C116.897 45.4195 117.576 45.3649 118.244 45.266ZM118 47.3153C117.339 47.3918 116.672 47.4304 116 47.4304V47.4248C106.591 47.3107 98.9997 39.6484 98.9997 30.213C98.9997 26.8241 99.9791 23.6639 101.67 21H35.9997V129H118V47.3153ZM121.533 44.3932L122.26 46.2561C123.252 45.8687 124.205 45.3898 125.107 44.8264L124.047 43.1301C123.25 43.6279 122.409 44.051 121.533 44.3932ZM127.661 42.8785L126.306 41.4077C126.997 40.7703 127.629 40.0702 128.192 39.317L129.794 40.5146C129.157 41.3663 128.443 42.1578 127.661 42.8785ZM129.654 36.9334L131.448 37.8175C131.918 36.8642 132.299 35.8682 132.585 34.8406L130.658 34.3046C130.405 35.2119 130.069 36.0914 129.654 36.9334ZM116 22V32.991L121.319 36.5742C121.777 36.8828 121.898 37.5042 121.59 37.9623C121.281 38.4203 120.66 38.5415 120.202 38.233L114 34.0552V22C114 21.4477 114.447 21 115 21C115.552 21 116 21.4477 116 22ZM20.0737 31.3508L33.9997 28.8953V110.329L20.0737 31.3508ZM97.9997 62V64H72.8597V62H97.9997ZM102.527 56.8742V54.8742H72.8597V56.8742H102.527ZM106 84V86H72.8597V84H106ZM95.9997 78.8742V76.8742H72.8597V78.8742H95.9997ZM102.527 98.8742V100.874H72.8597V98.8742H102.527ZM95.9997 108V106H72.8597V108H95.9997ZM53.0318 59.3376L54.3174 60.8697L59.4867 56.5321L60.7723 58.0642L54.0709 63.6873L51.4997 60.6231L53.0318 59.3376ZM63.9997 51H46.9997V68H63.9997V51ZM48.9997 53V66H61.9997V53H48.9997ZM63.9997 73H46.9997V90H63.9997V73ZM48.9997 75V88H61.9997V75H48.9997ZM63.9997 95H46.9997V112H63.9997V95ZM48.9997 97V110H61.9997V97H48.9997ZM54.3174 82.8697L53.0318 81.3376L51.4997 82.6231L54.0709 85.6873L60.7723 80.0642L59.4867 78.5321L54.3174 82.8697Z" fill="#006FCF"/>
</svg>
