<svg width="150" height="150" viewBox="0 0 150 150" fill="none" xmlns="http://www.w3.org/2000/svg">
<rect width="150" height="150" fill="white"/>
<path fill-rule="evenodd" clip-rule="evenodd" d="M78.8204 101.479C86.0982 108.757 98.1893 108.467 105.239 101.416C112.29 94.3666 112.578 82.2765 105.3 74.9984L99.8412 69.5394L73.3611 96.0195L78.8204 101.479V101.479Z" fill="#E4F2D2"/>
<path fill-rule="evenodd" clip-rule="evenodd" d="M44.9119 67.5711C37.3882 60.0474 37.4788 47.7572 44.5295 40.7078C51.5788 33.6565 63.8684 33.5673 71.3924 41.0913L76.6466 46.3455L50.1665 72.8257L44.9119 67.5711H44.9119Z" fill="#E4F2D2"/>
<path fill-rule="evenodd" clip-rule="evenodd" d="M44.7222 86.6689H51.7222C52.2745 86.6689 52.7222 86.2212 52.7222 85.6689C52.7222 85.1167 52.2745 84.6689 51.7222 84.6689H44.7222C44.1699 84.6689 43.7222 85.1167 43.7222 85.6689C43.7222 86.2212 44.1699 86.6689 44.7222 86.6689ZM55.3631 93.6247L49.8301 97.9125C49.3935 98.2508 48.7654 98.1712 48.4271 97.7346C48.0888 97.2981 48.1684 96.67 48.605 96.3317L54.138 92.0438C54.5745 91.7055 55.2027 91.7852 55.541 92.2217C55.8793 92.6582 55.7996 93.2864 55.3631 93.6247ZM61.5001 96.9905V103.99C61.5001 104.543 61.0524 104.99 60.5001 104.99C59.9478 104.99 59.5001 104.543 59.5001 103.99V96.9905C59.5001 96.4382 59.9478 95.9905 60.5001 95.9905C61.0524 95.9905 61.5001 96.4382 61.5001 96.9905Z" fill="#009639"/>
<circle cx="111.5" cy="39.5" r="22.5" fill="#E4F2D2"/>
<path fill-rule="evenodd" clip-rule="evenodd" d="M22.7899 11.4776C23.1692 11.607 23.5349 11.7757 23.8818 11.9813C24.3678 12.2694 24.5283 12.897 24.2402 13.383C23.9521 13.869 23.3245 14.0294 22.8385 13.7413C22.2565 13.3963 21.5967 13.2125 20.9086 13.2125C18.7873 13.2125 17.0573 14.9693 17.0422 17.1526C17.0806 17.2602 17.1016 17.376 17.1016 17.4968C17.1016 18.0618 16.6435 18.5198 16.0786 18.5198H12.023C11.458 18.5198 11 18.0618 11 17.4968C11 16.9318 11.458 16.4738 12.023 16.4738H15.0367C15.375 13.5382 17.7925 11.2434 20.7586 11.1684C21.5894 7.61448 24.7547 5 28.4937 5C32.2445 5 35.4131 7.62951 36.2345 11.1925C38.4894 11.437 40.2402 13.3709 40.2402 15.7132C40.2402 16.2781 39.7822 16.7362 39.2172 16.7362C38.6522 16.7362 38.1942 16.2781 38.1942 15.7132C38.1942 14.3283 37.0964 13.2125 35.7508 13.2125C35.3742 13.2125 35.0118 13.299 34.682 13.4635C34.1765 13.7158 33.5622 13.5104 33.3099 13.0049C33.0576 12.4994 33.263 11.885 33.7685 11.6328C33.906 11.5642 34.0466 11.5029 34.19 11.449C33.5072 8.90074 31.2024 7.046 28.4937 7.046C25.7773 7.046 23.4635 8.91252 22.7899 11.4776Z" fill="#CCEAD8"/>
<path fill-rule="evenodd" clip-rule="evenodd" d="M30 131.5C30 134.538 27.5376 137 24.5 137C21.4624 137 19 134.538 19 131.5C19 128.462 21.4624 126 24.5 126C27.5376 126 30 128.462 30 131.5ZM21 131.5C21 133.433 22.567 135 24.5 135C26.433 135 28 133.433 28 131.5C28 129.567 26.433 128 24.5 128C22.567 128 21 129.567 21 131.5Z" fill="#99D5B0"/>
<path fill-rule="evenodd" clip-rule="evenodd" d="M138 15C138 17.2091 136.209 19 134 19C131.791 19 130 17.2091 130 15C130 12.7909 131.791 11 134 11C136.209 11 138 12.7909 138 15ZM132 15C132 16.1046 132.895 17 134 17C135.105 17 136 16.1046 136 15C136 13.8954 135.105 13 134 13C132.895 13 132 13.8954 132 15Z" fill="#99D5B0"/>
<path fill-rule="evenodd" clip-rule="evenodd" d="M130.008 127.008V122C130.008 121.448 130.456 121 131.008 121C131.561 121 132.008 121.448 132.008 122V127.008H137.017C137.569 127.008 138.017 127.456 138.017 128.008C138.017 128.561 137.569 129.008 137.017 129.008H132.008V134.017C132.008 134.569 131.561 135.017 131.008 135.017C130.456 135.017 130.008 134.569 130.008 134.017V129.008H125C124.448 129.008 124 128.561 124 128.008C124 127.456 124.448 127.008 125 127.008H130.008Z" fill="#B2E0C4"/>
<path fill-rule="evenodd" clip-rule="evenodd" d="M7.23521 84.2352V82C7.23521 81.4477 7.68293 81 8.23521 81C8.7875 81 9.23521 81.4477 9.23521 82V84.2352H11.4704C12.0227 84.2352 12.4704 84.6829 12.4704 85.2352C12.4704 85.7875 12.0227 86.2352 11.4704 86.2352H9.23521V88.4704C9.23521 89.0227 8.7875 89.4704 8.23521 89.4704C7.68293 89.4704 7.23521 89.0227 7.23521 88.4704V86.2352H5C4.44772 86.2352 4 85.7875 4 85.2352C4 84.6829 4.44772 84.2352 5 84.2352H7.23521Z" fill="#B2E0C4"/>
<path fill-rule="evenodd" clip-rule="evenodd" d="M78.1133 102.186C85.4846 109.558 97.7137 109.653 105.305 102.736L105.498 102.926C110.758 108.087 110.838 116.535 105.676 121.794C104.82 122.667 103.848 123.417 102.788 124.025C93.5139 129.341 85.5734 131 75.5 131C44.8482 131 20 106.152 20 75.5C20 59.8841 26.4494 45.7745 36.8299 35.6895L42.5505 41.4101C36.3276 49.0634 36.8532 60.9264 44.2048 68.2779L50.1664 74.2396L56.7865 67.6196L62.1707 73.0038L63.5849 71.5896L58.2007 66.2054L69.0265 55.3795L74.4107 60.7637L75.825 59.3495L70.4408 53.9653L78.0608 46.3453L72.0994 40.3839C64.3042 32.5886 51.4385 32.4668 43.896 39.9272L38.2899 34.3211C48.1336 25.4205 61.1838 20 75.5 20C80.8488 20 86.0955 20.7564 91.128 22.2304C91.658 22.3856 92.2135 22.0818 92.3687 21.5518C92.524 21.0218 92.2201 20.4663 91.6901 20.311C86.4755 18.7837 81.0396 18 75.5 18C43.7436 18 18 43.7436 18 75.5C18 107.256 43.7436 133 75.5 133C85.8945 133 94.1677 131.271 103.782 125.76C105.002 125.061 106.119 124.198 107.104 123.195C113.039 117.147 112.947 107.433 106.899 101.498L106.711 101.313C113.473 93.7104 113.324 81.6088 106.007 74.2918L99.8412 68.1256L71.9468 96.02L78.1133 102.186ZM129.965 56.0375C138.091 77.074 133.237 101.185 116.981 117.441C116.591 117.832 115.957 117.832 115.567 117.441C115.176 117.051 115.176 116.417 115.567 116.027C131.002 100.592 135.787 77.8201 128.473 57.7533C124.195 62.2192 118.172 65 111.5 65C98.5213 65 88 54.4787 88 41.5C88 28.5213 98.5213 18 111.5 18C124.479 18 135 28.5213 135 41.5C135 42.0039 134.984 42.504 134.953 43H139.468C140.02 43 140.468 43.4477 140.468 44C140.468 44.5523 140.02 45 139.468 45H134.741C134.588 46.023 134.37 47.0245 134.089 48H136.468C137.02 48 137.468 48.4477 137.468 49C137.468 49.5523 137.02 50 136.468 50H133.468C133.451 50 133.433 49.9996 133.416 49.9987C132.566 52.1898 131.397 54.2218 129.965 56.0375ZM128.513 54.6475C131.326 51.0128 133 46.4519 133 41.5C133 29.6259 123.374 20 111.5 20C99.6259 20 90 29.6259 90 41.5C90 53.3741 99.6259 63 111.5 63C117.977 63 123.785 60.1359 127.727 55.605C127.735 55.2165 127.97 54.8516 128.353 54.6971C128.406 54.6758 128.459 54.6594 128.513 54.6475ZM113.778 52.506C113.778 53.334 113.13 54 112.302 54C111.474 54 110.844 53.334 110.844 52.506C110.844 51.678 111.474 51.048 112.302 51.048C113.13 51.048 113.778 51.678 113.778 52.506ZM113.328 29.484V46.422H111.276V29.484H113.328ZM104.531 100.71C111.285 93.9575 111.389 82.5021 104.593 75.706L99.8412 70.9541L92.9606 77.8346L97.64 82.514L96.2258 83.9282L91.5464 79.2488L82.7206 88.0747L87.3999 92.7541L85.9857 94.1683L81.3063 89.4889L74.7752 96.02L79.5275 100.772C86.3231 107.568 97.7794 107.463 104.531 100.71ZM144.468 43H143.468C142.916 43 142.468 43.4477 142.468 44C142.468 44.5523 142.916 45 143.468 45H144.468C145.02 45 145.468 44.5523 145.468 44C145.468 43.4477 145.02 43 144.468 43ZM70.6852 41.7981L75.2324 46.3453L50.1664 71.4112L45.619 66.8637C38.5753 59.82 38.4884 48.1616 45.2366 41.4146C51.9831 34.6662 63.6409 34.7538 70.6852 41.7981Z" fill="#009639"/>
</svg>
