<svg width="100" height="100" viewBox="0 0 100 100" fill="none" xmlns="http://www.w3.org/2000/svg">
<rect width="100" height="100" fill="white"/>
<circle cx="29.2807" cy="30.2397" r="16.2133" fill="#D8D8D8"/>
<path fill-rule="evenodd" clip-rule="evenodd" d="M46.494 30.2397C46.494 39.7464 38.7874 47.453 29.2807 47.453C19.7741 47.453 12.0674 39.7464 12.0674 30.2397C12.0674 20.733 19.7741 13.0264 29.2807 13.0264C38.7874 13.0264 46.494 20.733 46.494 30.2397ZM14.0674 30.2397C14.0674 38.6418 20.8786 45.453 29.2807 45.453C37.6828 45.453 44.494 38.6418 44.494 30.2397C44.494 21.8376 37.6828 15.0264 29.2807 15.0264C20.8786 15.0264 14.0674 21.8376 14.0674 30.2397Z" fill="#979797"/>
<circle cx="68.7602" cy="69.6586" r="16.2133" fill="#D8D8D8"/>
<path fill-rule="evenodd" clip-rule="evenodd" d="M85.9735 69.6586C85.9735 79.1653 78.2669 86.872 68.7602 86.872C59.2535 86.872 51.5469 79.1653 51.5469 69.6586C51.5469 60.152 59.2535 52.4453 68.7602 52.4453C78.2669 52.4453 85.9735 60.152 85.9735 69.6586ZM53.5469 69.6586C53.5469 78.0607 60.3581 84.872 68.7602 84.872C77.1623 84.872 83.9735 78.0607 83.9735 69.6586C83.9735 61.2566 77.1623 54.4453 68.7602 54.4453C60.3581 54.4453 53.5469 61.2566 53.5469 69.6586Z" fill="#979797"/>
<path d="M76.7233 40.3149L75.3036 41.7236L82.8811 49.3604L90.7701 41.5332L89.3615 40.1134L82.8922 46.5321L76.7233 40.3149Z" fill="#979797"/>
<path d="M51.48 18.0518H62.719C73.2124 18.0518 81.719 26.5583 81.719 37.0518V47.4518H83.719V37.0518C83.719 25.4538 74.317 16.0518 62.719 16.0518H51.48V18.0518Z" fill="#979797"/>
<path d="M25.847 62.7437L27.2667 61.335L19.6892 53.6982L11.8002 61.5254L13.2088 62.9452L19.6781 56.5265L25.847 62.7437Z" fill="#979797"/>
<path d="M50.8389 84.4004H39.5999C29.1065 84.4004 20.5999 75.8938 20.5999 65.4004V55.0004H18.5999V65.4004C18.5999 76.9984 28.0019 86.4004 39.5999 86.4004H50.8389V84.4004Z" fill="#979797"/>
<path d="M34.2201 25.2698L33.0701 27.0998C31.8801 26.3398 30.5601 25.8998 29.1401 25.8998C27.2701 25.8998 25.9901 26.7098 25.9901 27.9898C25.9901 29.1498 27.0801 29.5998 28.9001 29.8598L29.8701 29.9898C32.1401 30.2998 34.3801 31.2398 34.3801 33.8398C34.3801 36.6898 31.8001 38.2498 28.7701 38.2498C26.8701 38.2498 24.5901 37.6198 23.1401 36.3698L24.3701 34.5698C25.3301 35.4498 27.1401 36.1098 28.7601 36.1098C30.5901 36.1098 32.0301 35.3298 32.0301 34.0398C32.0301 32.9398 30.9301 32.4298 28.8801 32.1498L27.7901 31.9998C25.7101 31.7098 23.6401 30.7298 23.6401 28.1298C23.6401 25.3198 26.1301 23.7598 29.1601 23.7598C31.2001 23.7598 32.8101 24.3298 34.2201 25.2698Z" fill="#979797"/>
<path d="M28.2808 25.5H30.2808V22H28.2808V25.5Z" fill="#979797"/>
<path d="M29.2805 39.5V38" stroke="#979797" stroke-width="2" stroke-linecap="square"/>
<path fill-rule="evenodd" clip-rule="evenodd" d="M63.8999 77V63H69.6599C72.8799 63 74.6199 64.44 74.6199 67.05C74.6199 69.43 72.7999 71.01 69.9499 71.11L74.5599 77H71.7599L67.2999 71.11H66.1599V77H63.8999ZM72.2699 67.05C72.2699 65.72 71.3699 65.12 69.5999 65.12H66.1599V69.06H69.5999C71.4199 69.06 72.2699 68.4 72.2699 67.05Z" fill="#979797"/>
</svg>
