<svg width="100" height="100" viewBox="0 0 100 100" fill="none" xmlns="http://www.w3.org/2000/svg">
<rect width="100" height="100" fill="white"/>
<path fill-rule="evenodd" clip-rule="evenodd" d="M34.9997 32.0088H20.0098V56.0088H27.2311C28.4673 52.9219 29.7416 50.3654 31.0541 48.3393C32.3666 46.3132 33.7371 44.787 35.1655 43.7605L34.9997 32.0088Z" fill="#339C63"/>
<path d="M40.9791 10.7881L52.0709 13.393L63.3886 10.8065L61.1897 21.3531L61.9936 21.3536C64.4128 21.3536 66.3869 23.2587 66.4978 25.6504L66.5027 25.8627C66.5027 26.9227 66.1369 27.8973 65.5247 28.6671L72.9216 28.6668C75.4989 28.6668 77.5882 30.7561 77.5882 33.3335C77.5882 34.9111 76.8054 36.3059 75.6069 37.1505C76.8054 37.9944 77.5882 39.3891 77.5882 40.9668C77.5882 42.5236 76.8259 43.9023 75.6542 44.7501C76.8307 45.6644 77.5882 47.0938 77.5882 48.7001C77.5882 50.2867 76.8492 51.7007 75.6967 52.6167C76.8445 53.4651 77.5882 54.8291 77.5882 56.3668C77.5882 57.5565 77.1431 58.6422 76.4102 59.4664L76.4096 59.4161C76.4159 60.3561 76.4198 61.1298 76.421 61.7427L76.4208 62.6165C76.4192 63.0527 76.4151 63.3313 76.4082 63.458C75.6897 76.7351 64.6913 87.1874 51.3382 87.1874C42.1974 87.1874 34.1974 82.3025 29.8065 75.0008L27.3651 75.0001C26.8128 75.0001 26.3651 74.5524 26.3651 74.0001C26.3651 73.4873 26.7512 73.0646 27.2485 73.0068L27.3651 73.0001L28.724 73.0006C28.5123 72.563 28.3129 72.1183 28.1263 71.667L21.333 71.6668C20.7807 71.6668 20.333 71.2191 20.333 70.6668C20.333 70.1539 20.719 69.7313 21.2164 69.6735L21.333 69.6668L27.3976 69.6667C27.1902 69.0114 27.0089 68.3445 26.855 67.6672L24.6985 67.6668C24.1462 67.6668 23.6985 67.2191 23.6985 66.6668C23.6985 66.1539 24.0845 65.7313 24.5818 65.6735L24.6985 65.6668L26.4854 65.6671C26.3178 64.4956 26.2311 63.298 26.2311 62.0802C26.2311 60.3547 26.4062 58.6571 26.7446 57.0082L19.0097 57.0085L19.009 45.6661L17.9997 45.6668C17.4474 45.6668 16.9997 45.2191 16.9997 44.6668C16.9997 44.1539 17.3857 43.7313 17.8831 43.6735L17.9997 43.6668L19.009 43.6661V41.0001L16.6985 41.0001C16.1462 41.0001 15.6985 40.5524 15.6985 40.0001C15.6985 39.4873 16.0845 39.0646 16.5818 39.0068L16.6985 39.0001L19.009 39.0001L19.0097 30.9013L34.5047 30.9011L41.1344 22.8173C41.7224 22.1003 42.5352 21.6164 43.428 21.4343L40.9791 10.7881ZM58.5595 30.3712L51.1568 30.3717C49.5765 35.5629 45.9059 38.7934 40.2667 39.9899C39.2956 41.5553 37.6832 43.2725 35.8366 44.9441C31.026 49.2986 28.2311 55.4633 28.2311 62.0802C28.2311 74.8419 38.5765 85.1874 51.3382 85.1874C63.6273 85.1874 73.75 75.5674 74.4111 63.3499C74.4166 63.2479 74.42 62.981 74.4211 62.5546L74.4209 61.6975C74.4202 61.4264 74.4191 61.1235 74.4176 60.7895C73.9478 60.9474 73.4447 61.0335 72.9216 61.0335H62.1656C60.6622 61.0335 59.3248 60.3225 58.4713 59.2184L58.357 59.0642C57.2898 59.762 55.8628 60.1481 54.161 60.1481H54.018L60.427 68.0001H57.593L51.34 60.1481H49.208V68.0001H46.92V49.8001H54.148C55.6189 49.8001 56.8531 50.0368 57.8315 50.4928C57.6163 49.9373 57.499 49.3324 57.499 48.7001C57.499 47.0937 58.2565 45.6643 59.4338 44.7495C58.2616 43.9029 57.499 42.5239 57.499 40.9668C57.499 39.3891 58.2818 37.9944 59.4803 37.1497C58.2818 36.3059 57.499 34.9111 57.499 33.3335C57.499 32.2088 57.8968 31.177 58.5595 30.3712ZM18.6663 69.6668C19.2186 69.6668 19.6663 70.1145 19.6663 70.6668C19.6663 71.1796 19.2803 71.6023 18.783 71.6601L18.6663 71.6668H17.333C16.7807 71.6668 16.333 71.2191 16.333 70.6668C16.333 70.1539 16.719 69.7313 17.2164 69.6735L17.333 69.6668H18.6663ZM72.9216 53.7001H62.1656C60.6929 53.7001 59.499 54.894 59.499 56.3668C59.499 57.8395 60.6929 59.0335 62.1656 59.0335H72.9216C74.3943 59.0335 75.5882 57.8395 75.5882 56.3668C75.5882 54.894 74.3943 53.7001 72.9216 53.7001ZM54.096 51.9451H49.208V58.0681H54.096C55.7373 58.0681 56.8854 57.6677 57.5284 56.8878C57.5087 56.7166 57.499 56.5429 57.499 56.3668C57.499 55.632 57.6688 54.937 57.9713 54.3186L58.0525 54.1603C57.7128 52.6806 56.3581 51.9451 54.096 51.9451ZM34.0097 32.9011L21.0097 32.9013V55.0085L27.2418 55.0081C28.4762 50.7926 30.8031 46.97 34.0093 43.912L34.0097 32.9011ZM72.5882 45.7001H62.499C60.8421 45.7001 59.499 47.0433 59.499 48.7001C59.499 50.357 60.8421 51.7001 62.499 51.7001H72.5882C74.2451 51.7001 75.5882 50.357 75.5882 48.7001C75.5882 47.0433 74.2451 45.7001 72.5882 45.7001ZM72.9216 38.3001H62.1656C60.6929 38.3001 59.499 39.494 59.499 40.9668C59.499 42.4395 60.6929 43.6335 62.1656 43.6335H72.9216C74.3943 43.6335 75.5882 42.4395 75.5882 40.9668C75.5882 39.494 74.3943 38.3001 72.9216 38.3001ZM61.9936 23.3536H44.2275C43.6883 23.3536 43.1746 23.5712 42.8004 23.9524L42.6809 24.0855L36.0103 32.2207L36.0101 42.0166C37.0789 40.938 37.9828 39.8762 38.5668 38.935L38.6827 38.7391L38.6121 38.2552C44.4068 37.4007 47.9289 34.4999 49.3412 29.4549L49.4303 29.1228L49.6233 28.3717H61.9936C63.3793 28.3717 64.5027 27.2484 64.5027 25.8627C64.5027 24.4769 63.3793 23.3536 61.9936 23.3536ZM14.2543 39.0001C14.8066 39.0001 15.2543 39.4478 15.2543 40.0001C15.2543 40.513 14.8683 40.9356 14.3709 40.9934L14.2543 41.0001H13.333C12.7807 41.0001 12.333 40.5524 12.333 40.0001C12.333 39.4873 12.719 39.0646 13.2164 39.0068L13.333 39.0001H14.2543ZM72.9216 30.6668H62.1656C60.6929 30.6668 59.499 31.8607 59.499 33.3335C59.499 34.8062 60.6929 36.0001 62.1656 36.0001H72.9216C74.3943 36.0001 75.5882 34.8062 75.5882 33.3335C75.5882 31.8607 74.3943 30.6668 72.9216 30.6668ZM60.7946 13.4509L52.0648 15.4459L43.6481 13.4693L45.4617 21.3531H59.1467L60.7946 13.4509Z" fill="white"/>
<path d="M28.667 70.667H21.333" stroke="white" stroke-width="2" stroke-linecap="round"/>
</svg>
