<svg width="150" height="150" viewBox="0 0 150 150" fill="none" xmlns="http://www.w3.org/2000/svg">
<rect width="150" height="150" fill="white"/>
<path fill-rule="evenodd" clip-rule="evenodd" d="M108.096 22.0049C110.595 22.0049 112.621 24.0311 112.621 26.5293V62.2146L98.9519 76.4743L67.5347 77.0863L61.6399 74.5369C55.9862 72.9101 51.2857 72.1371 47.5384 72.2181C45.2567 72.2673 40.9137 73.2356 34.5095 75.1228C33.851 74.337 33.4546 73.324 33.4546 72.2181V26.5293C33.4546 24.0308 35.4795 22.0049 37.9783 22.0049H108.096ZM54.9439 38.1117H47.1359C44.3745 38.1117 42.1359 40.3503 42.1359 43.1117V47.5277C42.1359 50.2892 44.3745 52.5277 47.1359 52.5277H54.9439C57.7054 52.5277 59.9439 50.2892 59.9439 47.5277V43.1117C59.9439 40.3503 57.7054 38.1117 54.9439 38.1117Z" fill="#339C63"/>
<path d="M108.097 21.0049C111.075 21.0049 113.503 23.3622 113.616 26.3124L113.621 26.5293L113.62 61.0945C114.177 61.1401 114.727 61.3577 115.187 61.7528L115.317 61.8712L127.973 74.408L128.609 75.0223C129.376 75.791 129.66 76.3029 129.664 77.2051L129.824 110.335C129.833 111.776 128.717 112.962 127.301 113.062L127.115 113.069L100.16 113.198C98.7484 113.205 97.5412 112.094 97.4352 110.678L97.4274 110.421L97.3364 91.7974L72.9424 106.401L46.2431 96.4397L38.7449 98.2784L39.9258 104.986L35.1059 105.979L35.4601 107.92L16.8025 111.398C16.2596 111.5 15.7374 111.141 15.6362 110.599C15.5422 110.094 15.8442 109.608 16.3225 109.46L16.436 109.432L33.1341 106.319L27.3861 74.7567L16.1564 76.7454C15.6514 76.8347 15.1679 76.5283 15.0244 76.0486L14.9974 75.935C14.908 75.43 15.2145 74.9465 15.6941 74.8029L15.8078 74.776L28.9974 72.4413L29.1649 73.3619L32.4802 72.7507C32.4722 72.6671 32.466 72.583 32.4618 72.4986L32.4548 72.2181V26.5293C32.4548 23.5509 34.8112 21.123 37.7616 21.0091L37.9785 21.0049H108.097ZM125.604 74.8764L99.3304 90.6044L99.4277 110.481C99.4298 110.831 99.7063 111.133 100.038 111.188L100.151 111.198L127.107 111.069C127.505 111.068 127.826 110.744 127.824 110.346L127.664 77.2149C127.663 76.9933 127.584 76.8334 127.244 76.4853L127.031 76.2753L126.565 75.8282L125.604 74.8764ZM125.343 87.1929L123.544 92.5895L122.552 91.5969L111.404 102.744L108.191 99.5317L102.708 104.983L101.298 103.564L108.196 96.7076L111.404 99.9157L121.137 90.1819L119.946 88.9917L125.343 87.1929ZM114.183 72.3662L113.91 72.4769L92.6893 81.4974C93.4043 82.7819 93.8856 84.2196 94.0728 85.7566L94.1052 86.0534L94.1958 86.994L64.4548 91.5682C63.9089 91.6521 63.3983 91.2777 63.3144 90.7318C63.2364 90.2249 63.5537 89.7485 64.0365 89.6158L64.1507 89.5914L91.9771 85.3117L91.9501 85.1696C91.1108 81.1841 87.8493 78.1575 83.846 77.5915L76.5309 77.5919L67.324 77.7432L65.4191 76.896L65.2796 76.8341C60.7671 75.1045 56.1384 74.0653 51.3906 73.7154C49.2836 73.5601 46.9118 73.6603 44.2766 74.0174C42.67 74.2561 41.0747 74.5983 39.4992 75.0444L38.952 75.2037L38.8526 75.228L35.7021 75.8273L35.4481 75.8974L34.8369 76.0689L38.3969 96.3044L46.3662 94.3506L72.7401 104.191L123.201 73.9837L123.011 73.8196C120.576 71.7876 117.196 71.2013 114.183 72.3662ZM32.5771 74.7657L29.5229 75.3289L34.7479 104.01L37.6191 103.419L32.5771 74.7657ZM89.1569 77.5913C90.0522 78.2157 90.8573 78.9632 91.5467 79.8109L96.7609 77.5919L89.1569 77.5913ZM113.089 63.1556L109.921 66.2949L100.164 76.1464L111.432 71.3574C111.368 71.3024 111.305 71.2443 111.243 71.1832C110.025 69.9647 110.025 67.9893 111.243 66.7708C112.462 65.5524 114.437 65.5524 115.656 66.7708C116.479 67.5945 116.746 68.764 116.456 69.8118C118.052 69.677 119.653 69.9008 121.141 70.455L113.916 63.2992C113.681 63.0709 113.354 63.0277 113.089 63.1556ZM108.097 23.0049H37.9785C36.0971 23.0049 34.5603 24.4793 34.46 26.3359L34.4548 26.5293V72.2181C34.4548 72.7528 34.5736 73.2681 34.7961 73.7344L34.8977 73.9312L34.9049 73.9429L35.2439 73.8789L35.5969 73.7834C38.6031 72.9741 41.3861 72.3939 43.947 72.0438C51.2808 70.9451 58.813 71.8931 65.6934 74.8337L66.0468 74.9863L66.8956 75.3211L67.7039 75.6549L67.5511 75.5917L76.5409 75.5909L82.2908 75.4976C82.8603 75.4883 83.4215 75.52 83.9715 75.5902L97.6921 75.5917L108.581 64.8059L111.469 61.891C111.518 61.8414 111.568 61.794 111.62 61.7489L111.621 26.5293C111.621 24.7128 110.246 23.2169 108.481 23.0256L108.29 23.0101L108.097 23.0049ZM112.658 68.185C112.22 68.6224 112.22 69.3316 112.658 69.769C113.095 70.2063 113.804 70.2063 114.242 69.769C114.679 69.3316 114.679 68.6224 114.242 68.185C113.804 67.7477 113.095 67.7477 112.658 68.185ZM51.4978 61.7037C52.0501 61.7037 52.4978 62.1515 52.4978 62.7037C52.4978 63.2166 52.1118 63.6392 51.6144 63.697L51.4978 63.7037H43.5045C42.9522 63.7037 42.5045 63.256 42.5045 62.7037C42.5045 62.1909 42.8906 61.7682 43.3879 61.7105L43.5045 61.7037H51.4978ZM64.7045 56.6157C65.2568 56.6157 65.7045 57.0635 65.7045 57.6157C65.7045 58.1286 65.3185 58.5513 64.8212 58.609L64.7045 58.6157H43.5045C42.9522 58.6157 42.5045 58.168 42.5045 57.6157C42.5045 57.1029 42.8906 56.6802 43.3879 56.6225L43.5045 56.6157H64.7045ZM54.9441 38.1117C57.7055 38.1117 59.9441 40.3503 59.9441 43.1117V47.5277C59.9441 50.2892 57.7055 52.5277 54.9441 52.5277H47.1361C44.3747 52.5277 42.1361 50.2892 42.1361 47.5277V43.1117C42.1361 40.3503 44.3747 38.1117 47.1361 38.1117H54.9441ZM57.9441 46.3187L54.5839 46.3189V50.5269L54.9441 50.5277C56.5418 50.5277 57.8478 49.2788 57.939 47.704L57.9441 47.5277V46.3187ZM48.6471 40.1107V50.5267L52.5839 50.5269V40.1109L48.6471 40.1107ZM46.6471 48.9747L44.5078 48.9753C44.9435 49.7647 45.7246 50.3369 46.6473 50.4881L46.6471 48.9747ZM46.6471 43.8867H44.1351V46.9747H46.6471V43.8867ZM54.5839 40.1109V44.3189L57.9441 44.3187V43.1117C57.9441 41.5141 56.6952 40.2081 55.1204 40.1168L54.9441 40.1117L54.5839 40.1109ZM46.6473 40.1514C45.64 40.3164 44.8015 40.9832 44.3968 41.8866L46.6471 41.8867L46.6473 40.1514Z" fill="white"/>
</svg>
