<svg width="100" height="100" viewBox="0 0 100 100" fill="none" xmlns="http://www.w3.org/2000/svg">
<rect width="100" height="100" fill="white"/>
<path d="M33.795 66.2051H17V83.0001H33.795V66.2051Z" fill="#D8D8D8"/>
<path d="M58.9869 49.4111H42.1919V83.0001H58.9869V49.4111Z" fill="#D8D8D8"/>
<path d="M84.1788 32.6162H67.3838V83.0002H84.1788V32.6162Z" fill="#D8D8D8"/>
<path fill-rule="evenodd" clip-rule="evenodd" d="M62.4292 19.2804L54.6323 19.25L54.6401 17.25L65.7529 17.2934L65.7117 28.0519L63.7117 28.0442L63.7394 20.8005L47.7962 37.014L42.1913 31.4091L18.9741 54.5823L17.5612 53.1668L42.1927 28.582L47.7843 34.1736L62.4292 19.2804ZM33.7947 83V66.2053H17V83H33.7947ZM58.9867 83V49.4107H42.192V83H58.9867ZM84.1787 83V32.616H67.384V83H84.1787ZM19 68.2053H31.7947V81H19V68.2053ZM44.192 51.4107H56.9867V81H44.192V51.4107ZM69.384 34.616H82.1787V81H69.384V34.616Z" fill="#979797"/>
</svg>
